<svg width="416" height="240" viewBox="0 0 416 240" fill="none" xmlns="http://www.w3.org/2000/svg">
    <rect x="168" width="80" height="64" rx="6" fill="#E4CCFF" />
    <path
        d="M199.827 29.6562H196.094C196.026 29.1733 195.886 28.7443 195.676 28.3693C195.466 27.9886 195.196 27.6648 194.867 27.3977C194.537 27.1307 194.156 26.9261 193.724 26.7841C193.298 26.642 192.835 26.571 192.335 26.571C191.432 26.571 190.645 26.7955 189.974 27.2443C189.304 27.6875 188.784 28.3352 188.415 29.1875C188.045 30.0341 187.861 31.0625 187.861 32.2727C187.861 33.517 188.045 34.5625 188.415 35.4091C188.79 36.2557 189.313 36.8949 189.983 37.3267C190.653 37.7585 191.429 37.9744 192.31 37.9744C192.804 37.9744 193.261 37.9091 193.682 37.7784C194.108 37.6477 194.486 37.4574 194.815 37.2074C195.145 36.9517 195.418 36.642 195.634 36.2784C195.855 35.9148 196.009 35.5 196.094 35.0341L199.827 35.0511C199.73 35.8523 199.489 36.625 199.102 37.3693C198.722 38.108 198.207 38.7699 197.56 39.3551C196.918 39.9347 196.151 40.3949 195.259 40.7358C194.372 41.071 193.369 41.2386 192.25 41.2386C190.693 41.2386 189.301 40.8864 188.074 40.1818C186.852 39.4773 185.886 38.4574 185.176 37.1222C184.472 35.7869 184.119 34.1705 184.119 32.2727C184.119 30.3693 184.477 28.75 185.193 27.4148C185.909 26.0795 186.881 25.0625 188.108 24.3636C189.335 23.6591 190.716 23.3068 192.25 23.3068C193.261 23.3068 194.199 23.4489 195.063 23.733C195.932 24.017 196.702 24.4318 197.372 24.9773C198.043 25.517 198.588 26.179 199.009 26.9631C199.435 27.7472 199.707 28.6449 199.827 29.6562ZM202.017 41V23.5455H208.903C210.227 23.5455 211.355 23.7983 212.287 24.304C213.219 24.804 213.929 25.5 214.418 26.392C214.912 27.2784 215.159 28.3011 215.159 29.4602C215.159 30.6193 214.909 31.642 214.409 32.5284C213.909 33.4148 213.185 34.1051 212.236 34.5994C211.293 35.0937 210.151 35.3409 208.81 35.3409H204.42V32.3835H208.213C208.923 32.3835 209.509 32.2614 209.969 32.017C210.435 31.767 210.781 31.4233 211.009 30.9858C211.241 30.5426 211.358 30.0341 211.358 29.4602C211.358 28.8807 211.241 28.375 211.009 27.9432C210.781 27.5057 210.435 27.1676 209.969 26.929C209.503 26.6847 208.912 26.5625 208.196 26.5625H205.707V41H202.017ZM227.881 23.5455H231.572V34.8807C231.572 36.1534 231.268 37.267 230.66 38.2216C230.057 39.1761 229.214 39.9205 228.129 40.4545C227.043 40.983 225.779 41.2472 224.336 41.2472C222.887 41.2472 221.62 40.983 220.535 40.4545C219.45 39.9205 218.606 39.1761 218.004 38.2216C217.401 37.267 217.1 36.1534 217.1 34.8807V23.5455H220.79V34.5653C220.79 35.2301 220.935 35.821 221.225 36.3381C221.521 36.8551 221.935 37.2614 222.469 37.5568C223.004 37.8523 223.626 38 224.336 38C225.052 38 225.674 37.8523 226.202 37.5568C226.736 37.2614 227.148 36.8551 227.438 36.3381C227.734 35.821 227.881 35.2301 227.881 34.5653V23.5455Z"
        fill="black" fill-opacity="0.8" />
    <rect x="144" y="128" width="128" height="112" rx="6" fill="#FCD19C" />
    <path
        d="M170.114 166H167.477L171.494 154.364H174.665L178.676 166H176.04L173.125 157.023H173.034L170.114 166ZM169.949 161.426H176.176V163.347H169.949V161.426ZM179.855 166V157.273H182.202V158.795H182.293C182.452 158.254 182.719 157.845 183.094 157.568C183.469 157.288 183.901 157.148 184.389 157.148C184.511 157.148 184.641 157.155 184.781 157.17C184.922 157.186 185.045 157.206 185.151 157.233V159.381C185.037 159.347 184.88 159.316 184.679 159.29C184.478 159.263 184.295 159.25 184.128 159.25C183.772 159.25 183.454 159.328 183.174 159.483C182.897 159.634 182.677 159.847 182.514 160.119C182.355 160.392 182.276 160.706 182.276 161.062V166H179.855ZM186.226 166V157.273H188.647V166H186.226ZM187.442 156.148C187.082 156.148 186.774 156.028 186.516 155.79C186.262 155.547 186.135 155.258 186.135 154.92C186.135 154.587 186.262 154.301 186.516 154.062C186.774 153.82 187.082 153.699 187.442 153.699C187.802 153.699 188.109 153.82 188.363 154.062C188.62 154.301 188.749 154.587 188.749 154.92C188.749 155.258 188.62 155.547 188.363 155.79C188.109 156.028 187.802 156.148 187.442 156.148ZM195.052 157.273V159.091H189.796V157.273H195.052ZM190.989 155.182H193.41V163.318C193.41 163.542 193.444 163.716 193.512 163.841C193.58 163.962 193.675 164.047 193.796 164.097C193.921 164.146 194.065 164.17 194.228 164.17C194.341 164.17 194.455 164.161 194.569 164.142C194.682 164.119 194.769 164.102 194.83 164.091L195.211 165.892C195.09 165.93 194.919 165.973 194.699 166.023C194.48 166.076 194.213 166.108 193.898 166.119C193.315 166.142 192.804 166.064 192.364 165.886C191.929 165.708 191.59 165.432 191.347 165.057C191.105 164.682 190.985 164.208 190.989 163.636V155.182ZM199.06 160.955V166H196.64V154.364H198.992V158.812H199.094C199.291 158.297 199.61 157.894 200.049 157.602C200.488 157.307 201.039 157.159 201.702 157.159C202.308 157.159 202.837 157.292 203.288 157.557C203.742 157.818 204.094 158.195 204.344 158.688C204.598 159.176 204.723 159.761 204.719 160.443V166H202.299V160.875C202.303 160.337 202.166 159.919 201.89 159.619C201.617 159.32 201.235 159.17 200.742 159.17C200.413 159.17 200.121 159.241 199.867 159.381C199.617 159.521 199.42 159.725 199.276 159.994C199.136 160.259 199.064 160.58 199.06 160.955ZM206.448 166V157.273H208.755V158.812H208.857C209.039 158.301 209.342 157.898 209.766 157.602C210.191 157.307 210.698 157.159 211.289 157.159C211.888 157.159 212.397 157.309 212.818 157.608C213.238 157.903 213.518 158.305 213.658 158.812H213.749C213.927 158.312 214.249 157.913 214.715 157.614C215.185 157.311 215.74 157.159 216.38 157.159C217.194 157.159 217.855 157.419 218.363 157.938C218.874 158.453 219.13 159.184 219.13 160.131V166H216.715V160.608C216.715 160.123 216.586 159.759 216.329 159.517C216.071 159.275 215.749 159.153 215.363 159.153C214.924 159.153 214.581 159.294 214.335 159.574C214.088 159.85 213.965 160.216 213.965 160.67V166H211.619V160.557C211.619 160.129 211.496 159.788 211.249 159.534C211.007 159.28 210.687 159.153 210.289 159.153C210.02 159.153 209.778 159.222 209.562 159.358C209.35 159.491 209.181 159.678 209.056 159.92C208.931 160.159 208.869 160.439 208.869 160.761V166H206.448ZM224.843 166.17C223.946 166.17 223.173 165.989 222.525 165.625C221.881 165.258 221.385 164.739 221.036 164.068C220.688 163.394 220.514 162.597 220.514 161.676C220.514 160.778 220.688 159.991 221.036 159.312C221.385 158.634 221.875 158.106 222.508 157.727C223.144 157.348 223.891 157.159 224.747 157.159C225.322 157.159 225.858 157.252 226.355 157.438C226.855 157.619 227.29 157.894 227.661 158.261C228.036 158.629 228.328 159.091 228.536 159.648C228.745 160.201 228.849 160.848 228.849 161.591V162.256H221.48V160.756H226.571C226.571 160.407 226.495 160.098 226.343 159.83C226.192 159.561 225.982 159.35 225.713 159.199C225.447 159.044 225.139 158.966 224.786 158.966C224.419 158.966 224.093 159.051 223.809 159.222C223.529 159.388 223.309 159.614 223.15 159.898C222.991 160.178 222.91 160.491 222.906 160.835V162.261C222.906 162.693 222.985 163.066 223.144 163.381C223.307 163.695 223.536 163.938 223.832 164.108C224.127 164.278 224.478 164.364 224.883 164.364C225.152 164.364 225.398 164.326 225.622 164.25C225.845 164.174 226.036 164.061 226.196 163.909C226.355 163.758 226.476 163.572 226.559 163.352L228.798 163.5C228.684 164.038 228.451 164.508 228.099 164.909C227.75 165.307 227.3 165.617 226.747 165.841C226.197 166.061 225.563 166.17 224.843 166.17ZM234.895 157.273V159.091H229.639V157.273H234.895ZM230.832 155.182H233.252V163.318C233.252 163.542 233.287 163.716 233.355 163.841C233.423 163.962 233.518 164.047 233.639 164.097C233.764 164.146 233.908 164.17 234.071 164.17C234.184 164.17 234.298 164.161 234.412 164.142C234.525 164.119 234.612 164.102 234.673 164.091L235.054 165.892C234.932 165.93 234.762 165.973 234.542 166.023C234.323 166.076 234.055 166.108 233.741 166.119C233.158 166.142 232.646 166.064 232.207 165.886C231.771 165.708 231.432 165.432 231.19 165.057C230.948 164.682 230.828 164.208 230.832 163.636V155.182ZM236.295 166V157.273H238.716V166H236.295ZM237.511 156.148C237.151 156.148 236.843 156.028 236.585 155.79C236.331 155.547 236.204 155.258 236.204 154.92C236.204 154.587 236.331 154.301 236.585 154.062C236.843 153.82 237.151 153.699 237.511 153.699C237.871 153.699 238.178 153.82 238.432 154.062C238.689 154.301 238.818 154.587 238.818 154.92C238.818 155.258 238.689 155.547 238.432 155.79C238.178 156.028 237.871 156.148 237.511 156.148ZM244.422 166.17C243.528 166.17 242.759 165.981 242.115 165.602C241.475 165.22 240.982 164.689 240.638 164.011C240.297 163.333 240.126 162.553 240.126 161.67C240.126 160.777 240.299 159.992 240.643 159.318C240.992 158.64 241.486 158.112 242.126 157.733C242.766 157.35 243.528 157.159 244.41 157.159C245.172 157.159 245.838 157.297 246.41 157.574C246.982 157.85 247.435 158.239 247.768 158.739C248.102 159.239 248.285 159.826 248.32 160.5H246.035C245.971 160.064 245.801 159.714 245.524 159.449C245.251 159.18 244.893 159.045 244.45 159.045C244.075 159.045 243.748 159.148 243.467 159.352C243.191 159.553 242.975 159.847 242.82 160.233C242.664 160.619 242.587 161.087 242.587 161.636C242.587 162.193 242.662 162.667 242.814 163.057C242.969 163.447 243.187 163.744 243.467 163.949C243.748 164.153 244.075 164.256 244.45 164.256C244.727 164.256 244.975 164.199 245.195 164.085C245.418 163.972 245.602 163.807 245.746 163.591C245.893 163.371 245.99 163.108 246.035 162.801H248.32C248.282 163.468 248.1 164.055 247.774 164.562C247.452 165.066 247.007 165.46 246.439 165.744C245.871 166.028 245.198 166.17 244.422 166.17ZM180.152 190.17C179.349 190.17 178.656 190.027 178.073 189.739C177.489 189.451 177.04 189.061 176.726 188.568C176.415 188.072 176.26 187.519 176.26 186.909C176.26 186.455 176.351 186.051 176.533 185.699C176.715 185.347 176.968 185.023 177.294 184.727C177.62 184.428 177.999 184.131 178.431 183.835L180.686 182.352C180.978 182.167 181.192 181.972 181.328 181.767C181.465 181.559 181.533 181.333 181.533 181.091C181.533 180.86 181.44 180.646 181.254 180.449C181.069 180.252 180.806 180.155 180.465 180.159C180.237 180.159 180.04 180.21 179.874 180.312C179.707 180.411 179.576 180.542 179.482 180.705C179.391 180.864 179.345 181.042 179.345 181.239C179.345 181.481 179.414 181.727 179.55 181.977C179.686 182.227 179.868 182.492 180.095 182.773C180.323 183.049 180.571 183.348 180.84 183.67L186.357 190H183.834L179.232 184.875C178.929 184.53 178.626 184.17 178.323 183.795C178.023 183.417 177.773 183.015 177.573 182.591C177.372 182.163 177.271 181.699 177.271 181.199C177.271 180.634 177.402 180.127 177.664 179.676C177.929 179.225 178.3 178.869 178.777 178.608C179.254 178.343 179.811 178.21 180.448 178.21C181.069 178.21 181.605 178.337 182.056 178.591C182.51 178.841 182.859 179.174 183.101 179.591C183.347 180.004 183.47 180.458 183.47 180.955C183.47 181.504 183.334 182.002 183.061 182.449C182.792 182.892 182.414 183.29 181.925 183.642L179.55 185.352C179.228 185.587 178.989 185.828 178.834 186.074C178.682 186.316 178.607 186.549 178.607 186.773C178.607 187.049 178.675 187.297 178.811 187.517C178.948 187.737 179.141 187.911 179.391 188.04C179.641 188.165 179.934 188.227 180.271 188.227C180.681 188.227 181.084 188.134 181.482 187.949C181.883 187.759 182.247 187.492 182.573 187.148C182.902 186.799 183.165 186.386 183.362 185.909C183.559 185.432 183.658 184.903 183.658 184.324H185.664C185.664 185.036 185.586 185.678 185.431 186.25C185.275 186.818 185.059 187.314 184.783 187.739C184.506 188.159 184.19 188.504 183.834 188.773C183.72 188.845 183.61 188.913 183.504 188.977C183.398 189.042 183.289 189.11 183.175 189.182C182.743 189.53 182.26 189.782 181.726 189.938C181.196 190.093 180.671 190.17 180.152 190.17ZM193.137 178.364V190H190.716V178.364H193.137ZM198.843 190.17C197.96 190.17 197.197 189.983 196.553 189.608C195.913 189.229 195.419 188.703 195.07 188.028C194.722 187.35 194.547 186.564 194.547 185.67C194.547 184.769 194.722 183.981 195.07 183.307C195.419 182.629 195.913 182.102 196.553 181.727C197.197 181.348 197.96 181.159 198.843 181.159C199.725 181.159 200.487 181.348 201.127 181.727C201.771 182.102 202.267 182.629 202.616 183.307C202.964 183.981 203.138 184.769 203.138 185.67C203.138 186.564 202.964 187.35 202.616 188.028C202.267 188.703 201.771 189.229 201.127 189.608C200.487 189.983 199.725 190.17 198.843 190.17ZM198.854 188.295C199.256 188.295 199.591 188.182 199.86 187.955C200.129 187.723 200.332 187.409 200.468 187.011C200.608 186.614 200.678 186.161 200.678 185.653C200.678 185.146 200.608 184.693 200.468 184.295C200.332 183.898 200.129 183.583 199.86 183.352C199.591 183.121 199.256 183.006 198.854 183.006C198.449 183.006 198.108 183.121 197.832 183.352C197.559 183.583 197.352 183.898 197.212 184.295C197.076 184.693 197.008 185.146 197.008 185.653C197.008 186.161 197.076 186.614 197.212 187.011C197.352 187.409 197.559 187.723 197.832 187.955C198.108 188.182 198.449 188.295 198.854 188.295ZM208.468 193.455C207.684 193.455 207.012 193.347 206.451 193.131C205.894 192.919 205.451 192.629 205.121 192.261C204.792 191.894 204.578 191.481 204.479 191.023L206.718 190.722C206.786 190.896 206.894 191.059 207.042 191.21C207.19 191.362 207.385 191.483 207.627 191.574C207.873 191.669 208.173 191.716 208.525 191.716C209.051 191.716 209.485 191.587 209.826 191.33C210.171 191.076 210.343 190.65 210.343 190.051V188.455H210.241C210.135 188.697 209.976 188.926 209.763 189.142C209.551 189.358 209.279 189.534 208.945 189.67C208.612 189.807 208.214 189.875 207.752 189.875C207.097 189.875 206.5 189.723 205.962 189.42C205.428 189.114 205.002 188.646 204.684 188.017C204.37 187.384 204.212 186.585 204.212 185.619C204.212 184.631 204.373 183.805 204.695 183.142C205.017 182.479 205.445 181.983 205.979 181.653C206.517 181.324 207.106 181.159 207.746 181.159C208.235 181.159 208.644 181.242 208.974 181.409C209.303 181.572 209.568 181.777 209.769 182.023C209.974 182.265 210.131 182.504 210.241 182.739H210.332V181.273H212.735V190.085C212.735 190.828 212.553 191.449 212.19 191.949C211.826 192.449 211.322 192.824 210.678 193.074C210.038 193.328 209.301 193.455 208.468 193.455ZM208.519 188.057C208.909 188.057 209.239 187.96 209.508 187.767C209.781 187.57 209.989 187.29 210.133 186.926C210.281 186.559 210.354 186.119 210.354 185.608C210.354 185.097 210.282 184.653 210.138 184.278C209.995 183.9 209.786 183.606 209.513 183.398C209.241 183.189 208.909 183.085 208.519 183.085C208.121 183.085 207.786 183.193 207.513 183.409C207.241 183.621 207.034 183.917 206.894 184.295C206.754 184.674 206.684 185.112 206.684 185.608C206.684 186.112 206.754 186.547 206.894 186.915C207.038 187.278 207.245 187.561 207.513 187.761C207.786 187.958 208.121 188.057 208.519 188.057ZM214.485 190V181.273H216.906V190H214.485ZM215.701 180.148C215.341 180.148 215.033 180.028 214.775 179.79C214.521 179.547 214.394 179.258 214.394 178.92C214.394 178.587 214.521 178.301 214.775 178.062C215.033 177.82 215.341 177.699 215.701 177.699C216.061 177.699 216.368 177.82 216.622 178.062C216.879 178.301 217.008 178.587 217.008 178.92C217.008 179.258 216.879 179.547 216.622 179.79C216.368 180.028 216.061 180.148 215.701 180.148ZM222.612 190.17C221.718 190.17 220.949 189.981 220.305 189.602C219.665 189.22 219.172 188.689 218.828 188.011C218.487 187.333 218.316 186.553 218.316 185.67C218.316 184.777 218.489 183.992 218.833 183.318C219.182 182.64 219.676 182.112 220.316 181.733C220.956 181.35 221.718 181.159 222.6 181.159C223.362 181.159 224.028 181.297 224.6 181.574C225.172 181.85 225.625 182.239 225.958 182.739C226.292 183.239 226.475 183.826 226.51 184.5H224.225C224.161 184.064 223.991 183.714 223.714 183.449C223.441 183.18 223.083 183.045 222.64 183.045C222.265 183.045 221.938 183.148 221.657 183.352C221.381 183.553 221.165 183.847 221.01 184.233C220.854 184.619 220.777 185.087 220.777 185.636C220.777 186.193 220.852 186.667 221.004 187.057C221.159 187.447 221.377 187.744 221.657 187.949C221.938 188.153 222.265 188.256 222.64 188.256C222.917 188.256 223.165 188.199 223.385 188.085C223.608 187.972 223.792 187.807 223.936 187.591C224.083 187.371 224.18 187.108 224.225 186.801H226.51C226.472 187.468 226.29 188.055 225.964 188.562C225.642 189.066 225.197 189.46 224.629 189.744C224.061 190.028 223.388 190.17 222.612 190.17ZM230.372 190.165C229.815 190.165 229.319 190.068 228.883 189.875C228.448 189.678 228.103 189.388 227.849 189.006C227.599 188.619 227.474 188.138 227.474 187.562C227.474 187.078 227.563 186.67 227.741 186.341C227.919 186.011 228.162 185.746 228.468 185.545C228.775 185.345 229.124 185.193 229.514 185.091C229.908 184.989 230.321 184.917 230.753 184.875C231.26 184.822 231.669 184.773 231.98 184.727C232.29 184.678 232.516 184.606 232.656 184.511C232.796 184.417 232.866 184.277 232.866 184.091V184.057C232.866 183.697 232.753 183.419 232.525 183.222C232.302 183.025 231.984 182.926 231.571 182.926C231.135 182.926 230.789 183.023 230.531 183.216C230.273 183.405 230.103 183.644 230.02 183.932L227.781 183.75C227.895 183.22 228.118 182.761 228.451 182.375C228.785 181.985 229.215 181.686 229.741 181.477C230.271 181.265 230.885 181.159 231.582 181.159C232.067 181.159 232.531 181.216 232.974 181.33C233.421 181.443 233.817 181.619 234.162 181.858C234.51 182.097 234.785 182.403 234.985 182.778C235.186 183.15 235.287 183.595 235.287 184.114V190H232.991V188.79H232.923C232.783 189.062 232.595 189.303 232.36 189.511C232.126 189.716 231.843 189.877 231.514 189.994C231.184 190.108 230.804 190.165 230.372 190.165ZM231.065 188.494C231.421 188.494 231.735 188.424 232.008 188.284C232.281 188.14 232.495 187.947 232.65 187.705C232.806 187.462 232.883 187.187 232.883 186.881V185.955C232.807 186.004 232.703 186.049 232.571 186.091C232.442 186.129 232.296 186.165 232.133 186.199C231.97 186.229 231.807 186.258 231.645 186.284C231.482 186.307 231.334 186.328 231.201 186.347C230.917 186.388 230.669 186.455 230.457 186.545C230.245 186.636 230.08 186.759 229.963 186.915C229.845 187.066 229.787 187.256 229.787 187.483C229.787 187.812 229.906 188.064 230.145 188.239C230.387 188.409 230.694 188.494 231.065 188.494ZM239.409 178.364V190H236.988V178.364H239.409ZM199.584 210.284V205.273H202.005V214H199.681V212.415H199.59C199.393 212.926 199.065 213.337 198.607 213.648C198.152 213.958 197.598 214.114 196.942 214.114C196.359 214.114 195.846 213.981 195.402 213.716C194.959 213.451 194.613 213.074 194.363 212.585C194.117 212.097 193.992 211.511 193.988 210.83V205.273H196.408V210.398C196.412 210.913 196.55 211.32 196.823 211.619C197.096 211.919 197.461 212.068 197.92 212.068C198.211 212.068 198.484 212.002 198.738 211.869C198.992 211.733 199.196 211.532 199.351 211.267C199.51 211.002 199.588 210.674 199.584 210.284ZM206.185 208.955V214H203.765V205.273H206.072V206.812H206.174C206.367 206.305 206.691 205.903 207.146 205.608C207.6 205.309 208.151 205.159 208.799 205.159C209.405 205.159 209.933 205.292 210.384 205.557C210.835 205.822 211.185 206.201 211.435 206.693C211.685 207.182 211.81 207.765 211.81 208.443V214H209.39V208.875C209.394 208.341 209.257 207.924 208.981 207.625C208.704 207.322 208.324 207.17 207.839 207.17C207.513 207.17 207.225 207.241 206.975 207.381C206.729 207.521 206.536 207.725 206.396 207.994C206.259 208.259 206.189 208.58 206.185 208.955ZM213.542 214V205.273H215.962V214H213.542ZM214.758 204.148C214.398 204.148 214.089 204.028 213.832 203.79C213.578 203.547 213.451 203.258 213.451 202.92C213.451 202.587 213.578 202.301 213.832 202.062C214.089 201.82 214.398 201.699 214.758 201.699C215.118 201.699 215.425 201.82 215.678 202.062C215.936 202.301 216.065 202.587 216.065 202.92C216.065 203.258 215.936 203.547 215.678 203.79C215.425 204.028 215.118 204.148 214.758 204.148ZM222.367 205.273V207.091H217.112V205.273H222.367ZM218.305 203.182H220.725V211.318C220.725 211.542 220.759 211.716 220.828 211.841C220.896 211.962 220.99 212.047 221.112 212.097C221.237 212.146 221.381 212.17 221.544 212.17C221.657 212.17 221.771 212.161 221.884 212.142C221.998 212.119 222.085 212.102 222.146 212.091L222.526 213.892C222.405 213.93 222.235 213.973 222.015 214.023C221.795 214.076 221.528 214.108 221.214 214.119C220.631 214.142 220.119 214.064 219.68 213.886C219.244 213.708 218.905 213.432 218.663 213.057C218.42 212.682 218.301 212.208 218.305 211.636V203.182Z"
        fill="black" fill-opacity="0.8" />
    <path d="M208 68V124" stroke="#B3B3B3" stroke-width="3" stroke-miterlimit="0" stroke-linecap="round"
        stroke-linejoin="bevel" />
    <rect x="288" y="128" width="128" height="112" rx="6" fill="#AFF4C6" />
    <path
        d="M332.879 170.438H330.39C330.345 170.116 330.252 169.83 330.112 169.58C329.972 169.326 329.792 169.11 329.572 168.932C329.352 168.754 329.098 168.617 328.811 168.523C328.527 168.428 328.218 168.381 327.884 168.381C327.282 168.381 326.758 168.53 326.311 168.83C325.864 169.125 325.517 169.557 325.271 170.125C325.025 170.689 324.902 171.375 324.902 172.182C324.902 173.011 325.025 173.708 325.271 174.273C325.521 174.837 325.869 175.263 326.316 175.551C326.763 175.839 327.28 175.983 327.867 175.983C328.197 175.983 328.502 175.939 328.782 175.852C329.066 175.765 329.318 175.638 329.538 175.472C329.758 175.301 329.939 175.095 330.083 174.852C330.231 174.61 330.333 174.333 330.39 174.023L332.879 174.034C332.814 174.568 332.653 175.083 332.396 175.58C332.142 176.072 331.799 176.513 331.367 176.903C330.939 177.29 330.428 177.597 329.833 177.824C329.242 178.047 328.574 178.159 327.828 178.159C326.79 178.159 325.862 177.924 325.044 177.455C324.229 176.985 323.585 176.305 323.112 175.415C322.642 174.525 322.407 173.447 322.407 172.182C322.407 170.913 322.646 169.833 323.123 168.943C323.6 168.053 324.248 167.375 325.066 166.909C325.884 166.439 326.805 166.205 327.828 166.205C328.502 166.205 329.127 166.299 329.703 166.489C330.282 166.678 330.795 166.955 331.242 167.318C331.689 167.678 332.053 168.119 332.333 168.642C332.617 169.165 332.799 169.763 332.879 170.438ZM338.365 178.17C337.482 178.17 336.719 177.983 336.075 177.608C335.435 177.229 334.94 176.703 334.592 176.028C334.244 175.35 334.069 174.564 334.069 173.67C334.069 172.769 334.244 171.981 334.592 171.307C334.94 170.629 335.435 170.102 336.075 169.727C336.719 169.348 337.482 169.159 338.365 169.159C339.247 169.159 340.009 169.348 340.649 169.727C341.293 170.102 341.789 170.629 342.137 171.307C342.486 171.981 342.66 172.769 342.66 173.67C342.66 174.564 342.486 175.35 342.137 176.028C341.789 176.703 341.293 177.229 340.649 177.608C340.009 177.983 339.247 178.17 338.365 178.17ZM338.376 176.295C338.778 176.295 339.113 176.182 339.382 175.955C339.651 175.723 339.853 175.409 339.99 175.011C340.13 174.614 340.2 174.161 340.2 173.653C340.2 173.146 340.13 172.693 339.99 172.295C339.853 171.898 339.651 171.583 339.382 171.352C339.113 171.121 338.778 171.006 338.376 171.006C337.971 171.006 337.63 171.121 337.353 171.352C337.081 171.583 336.874 171.898 336.734 172.295C336.598 172.693 336.529 173.146 336.529 173.653C336.529 174.161 336.598 174.614 336.734 175.011C336.874 175.409 337.081 175.723 337.353 175.955C337.63 176.182 337.971 176.295 338.376 176.295ZM346.478 172.955V178H344.058V169.273H346.365V170.812H346.467C346.66 170.305 346.984 169.903 347.439 169.608C347.893 169.309 348.444 169.159 349.092 169.159C349.698 169.159 350.227 169.292 350.677 169.557C351.128 169.822 351.478 170.201 351.728 170.693C351.978 171.182 352.103 171.765 352.103 172.443V178H349.683V172.875C349.687 172.341 349.55 171.924 349.274 171.625C348.997 171.322 348.617 171.17 348.132 171.17C347.806 171.17 347.518 171.241 347.268 171.381C347.022 171.521 346.829 171.725 346.689 171.994C346.552 172.259 346.482 172.58 346.478 172.955ZM358.477 169.273V171.091H353.222V169.273H358.477ZM354.415 167.182H356.835V175.318C356.835 175.542 356.869 175.716 356.937 175.841C357.006 175.962 357.1 176.047 357.222 176.097C357.347 176.146 357.49 176.17 357.653 176.17C357.767 176.17 357.881 176.161 357.994 176.142C358.108 176.119 358.195 176.102 358.256 176.091L358.636 177.892C358.515 177.93 358.345 177.973 358.125 178.023C357.905 178.076 357.638 178.108 357.324 178.119C356.74 178.142 356.229 178.064 355.79 177.886C355.354 177.708 355.015 177.432 354.773 177.057C354.53 176.682 354.411 176.208 354.415 175.636V167.182ZM359.878 178V169.273H362.225V170.795H362.315C362.475 170.254 362.742 169.845 363.117 169.568C363.492 169.288 363.923 169.148 364.412 169.148C364.533 169.148 364.664 169.155 364.804 169.17C364.944 169.186 365.067 169.206 365.173 169.233V171.381C365.06 171.347 364.903 171.316 364.702 171.29C364.501 171.263 364.317 171.25 364.151 171.25C363.795 171.25 363.476 171.328 363.196 171.483C362.92 171.634 362.7 171.847 362.537 172.119C362.378 172.392 362.298 172.706 362.298 173.062V178H359.878ZM369.786 178.17C368.903 178.17 368.14 177.983 367.496 177.608C366.856 177.229 366.361 176.703 366.013 176.028C365.665 175.35 365.49 174.564 365.49 173.67C365.49 172.769 365.665 171.981 366.013 171.307C366.361 170.629 366.856 170.102 367.496 169.727C368.14 169.348 368.903 169.159 369.786 169.159C370.668 169.159 371.43 169.348 372.07 169.727C372.714 170.102 373.21 170.629 373.558 171.307C373.907 171.981 374.081 172.769 374.081 173.67C374.081 174.564 373.907 175.35 373.558 176.028C373.21 176.703 372.714 177.229 372.07 177.608C371.43 177.983 370.668 178.17 369.786 178.17ZM369.797 176.295C370.199 176.295 370.534 176.182 370.803 175.955C371.072 175.723 371.274 175.409 371.411 175.011C371.551 174.614 371.621 174.161 371.621 173.653C371.621 173.146 371.551 172.693 371.411 172.295C371.274 171.898 371.072 171.583 370.803 171.352C370.534 171.121 370.199 171.006 369.797 171.006C369.392 171.006 369.051 171.121 368.774 171.352C368.502 171.583 368.295 171.898 368.155 172.295C368.019 172.693 367.95 173.146 367.95 173.653C367.95 174.161 368.019 174.614 368.155 175.011C368.295 175.409 368.502 175.723 368.774 175.955C369.051 176.182 369.392 176.295 369.797 176.295ZM377.899 166.364V178H375.479V166.364H377.899ZM331.723 202V190.364H336.314C337.196 190.364 337.948 190.532 338.569 190.869C339.191 191.203 339.664 191.667 339.99 192.261C340.319 192.852 340.484 193.534 340.484 194.307C340.484 195.08 340.317 195.761 339.984 196.352C339.651 196.943 339.168 197.403 338.535 197.733C337.906 198.062 337.145 198.227 336.251 198.227H333.325V196.256H335.853C336.327 196.256 336.717 196.174 337.024 196.011C337.334 195.845 337.566 195.616 337.717 195.324C337.872 195.028 337.95 194.689 337.95 194.307C337.95 193.92 337.872 193.583 337.717 193.295C337.566 193.004 337.334 192.778 337.024 192.619C336.713 192.456 336.319 192.375 335.842 192.375H334.183V202H331.723ZM344.115 202.165C343.558 202.165 343.062 202.068 342.626 201.875C342.191 201.678 341.846 201.388 341.592 201.006C341.342 200.619 341.217 200.138 341.217 199.562C341.217 199.078 341.306 198.67 341.484 198.341C341.662 198.011 341.905 197.746 342.212 197.545C342.518 197.345 342.867 197.193 343.257 197.091C343.651 196.989 344.064 196.917 344.496 196.875C345.003 196.822 345.412 196.773 345.723 196.727C346.033 196.678 346.259 196.606 346.399 196.511C346.539 196.417 346.609 196.277 346.609 196.091V196.057C346.609 195.697 346.496 195.419 346.268 195.222C346.045 195.025 345.727 194.926 345.314 194.926C344.878 194.926 344.532 195.023 344.274 195.216C344.016 195.405 343.846 195.644 343.763 195.932L341.524 195.75C341.638 195.22 341.861 194.761 342.194 194.375C342.528 193.985 342.958 193.686 343.484 193.477C344.015 193.265 344.628 193.159 345.325 193.159C345.81 193.159 346.274 193.216 346.717 193.33C347.164 193.443 347.56 193.619 347.905 193.858C348.253 194.097 348.528 194.403 348.729 194.778C348.929 195.15 349.03 195.595 349.03 196.114V202H346.734V200.79H346.666C346.526 201.062 346.338 201.303 346.104 201.511C345.869 201.716 345.587 201.877 345.257 201.994C344.927 202.108 344.547 202.165 344.115 202.165ZM344.808 200.494C345.164 200.494 345.479 200.424 345.751 200.284C346.024 200.14 346.238 199.947 346.393 199.705C346.549 199.462 346.626 199.187 346.626 198.881V197.955C346.551 198.004 346.446 198.049 346.314 198.091C346.185 198.129 346.039 198.165 345.876 198.199C345.713 198.229 345.551 198.258 345.388 198.284C345.225 198.307 345.077 198.328 344.944 198.347C344.66 198.388 344.412 198.455 344.2 198.545C343.988 198.636 343.823 198.759 343.706 198.915C343.588 199.066 343.53 199.256 343.53 199.483C343.53 199.812 343.649 200.064 343.888 200.239C344.13 200.409 344.437 200.494 344.808 200.494ZM353.152 196.955V202H350.732V193.273H353.038V194.812H353.141C353.334 194.305 353.658 193.903 354.112 193.608C354.567 193.309 355.118 193.159 355.766 193.159C356.372 193.159 356.9 193.292 357.351 193.557C357.802 193.822 358.152 194.201 358.402 194.693C358.652 195.182 358.777 195.765 358.777 196.443V202H356.357V196.875C356.36 196.341 356.224 195.924 355.947 195.625C355.671 195.322 355.29 195.17 354.805 195.17C354.48 195.17 354.192 195.241 353.942 195.381C353.696 195.521 353.502 195.725 353.362 195.994C353.226 196.259 353.156 196.58 353.152 196.955ZM364.486 202.17C363.588 202.17 362.815 201.989 362.168 201.625C361.524 201.258 361.028 200.739 360.679 200.068C360.331 199.394 360.156 198.597 360.156 197.676C360.156 196.778 360.331 195.991 360.679 195.312C361.028 194.634 361.518 194.106 362.151 193.727C362.787 193.348 363.533 193.159 364.389 193.159C364.965 193.159 365.501 193.252 365.997 193.438C366.497 193.619 366.933 193.894 367.304 194.261C367.679 194.629 367.971 195.091 368.179 195.648C368.387 196.201 368.492 196.848 368.492 197.591V198.256H361.122V196.756H366.213C366.213 196.407 366.137 196.098 365.986 195.83C365.834 195.561 365.624 195.35 365.355 195.199C365.09 195.044 364.781 194.966 364.429 194.966C364.062 194.966 363.736 195.051 363.452 195.222C363.172 195.388 362.952 195.614 362.793 195.898C362.634 196.178 362.552 196.491 362.548 196.835V198.261C362.548 198.693 362.628 199.066 362.787 199.381C362.95 199.695 363.179 199.938 363.475 200.108C363.77 200.278 364.12 200.364 364.526 200.364C364.795 200.364 365.041 200.326 365.264 200.25C365.488 200.174 365.679 200.061 365.838 199.909C365.997 199.758 366.119 199.572 366.202 199.352L368.44 199.5C368.327 200.038 368.094 200.508 367.742 200.909C367.393 201.307 366.942 201.617 366.389 201.841C365.84 202.061 365.206 202.17 364.486 202.17ZM372.316 190.364V202H369.895V190.364H372.316Z"
        fill="black" fill-opacity="0.8" />
    <path d="M208 68V72C208 85.2548 218.745 96 232 96H328C341.255 96 352 106.745 352 120V124" stroke="#B3B3B3"
        stroke-width="3" stroke-miterlimit="0" stroke-linecap="round" stroke-linejoin="bevel" />
    <rect y="128" width="128" height="112" rx="6" fill="#FFC7C2" />
    <path
        d="M31.2894 166.364H34.3235L37.528 174.182H37.6644L40.8689 166.364H43.903V178H41.5166V170.426H41.42L38.4087 177.943H36.7837L33.7723 170.398H33.6757V178H31.2894V166.364ZM49.6858 178.17C48.7881 178.17 48.0154 177.989 47.3676 177.625C46.7237 177.258 46.2275 176.739 45.879 176.068C45.5305 175.394 45.3563 174.597 45.3563 173.676C45.3563 172.778 45.5305 171.991 45.879 171.312C46.2275 170.634 46.718 170.106 47.3506 169.727C47.9869 169.348 48.7332 169.159 49.5892 169.159C50.165 169.159 50.701 169.252 51.1972 169.438C51.6972 169.619 52.1328 169.894 52.504 170.261C52.879 170.629 53.1707 171.091 53.379 171.648C53.5873 172.201 53.6915 172.848 53.6915 173.591V174.256H46.3222V172.756H51.4131C51.4131 172.407 51.3373 172.098 51.1858 171.83C51.0343 171.561 50.8241 171.35 50.5551 171.199C50.29 171.044 49.9813 170.966 49.629 170.966C49.2616 170.966 48.9358 171.051 48.6517 171.222C48.3714 171.388 48.1517 171.614 47.9926 171.898C47.8335 172.178 47.7521 172.491 47.7483 172.835V174.261C47.7483 174.693 47.8279 175.066 47.9869 175.381C48.1498 175.695 48.379 175.938 48.6744 176.108C48.9699 176.278 49.3203 176.364 49.7256 176.364C49.9945 176.364 50.2407 176.326 50.4642 176.25C50.6877 176.174 50.879 176.061 51.0381 175.909C51.1972 175.758 51.3184 175.572 51.4017 175.352L53.6404 175.5C53.5267 176.038 53.2938 176.508 52.9415 176.909C52.593 177.307 52.1422 177.617 51.5892 177.841C51.04 178.061 50.4055 178.17 49.6858 178.17ZM55.095 178V169.273H57.4019V170.812H57.5041C57.6859 170.301 57.989 169.898 58.4132 169.602C58.8375 169.307 59.345 169.159 59.9359 169.159C60.5344 169.159 61.0439 169.309 61.4644 169.608C61.8848 169.903 62.1651 170.305 62.3053 170.812H62.3962C62.5742 170.312 62.8962 169.913 63.3621 169.614C63.8318 169.311 64.3867 169.159 65.0269 169.159C65.8412 169.159 66.5022 169.419 67.0098 169.938C67.5212 170.453 67.7769 171.184 67.7769 172.131V178H65.3621V172.608C65.3621 172.123 65.2333 171.759 64.9757 171.517C64.7181 171.275 64.3962 171.153 64.0098 171.153C63.5704 171.153 63.2276 171.294 62.9814 171.574C62.7352 171.85 62.6121 172.216 62.6121 172.67V178H60.2655V172.557C60.2655 172.129 60.1424 171.788 59.8962 171.534C59.6537 171.28 59.3337 171.153 58.9359 171.153C58.667 171.153 58.4246 171.222 58.2087 171.358C57.9966 171.491 57.828 171.678 57.703 171.92C57.578 172.159 57.5155 172.439 57.5155 172.761V178H55.095ZM73.456 178.17C72.5734 178.17 71.8101 177.983 71.1662 177.608C70.526 177.229 70.0317 176.703 69.6832 176.028C69.3348 175.35 69.1605 174.564 69.1605 173.67C69.1605 172.769 69.3348 171.981 69.6832 171.307C70.0317 170.629 70.526 170.102 71.1662 169.727C71.8101 169.348 72.5734 169.159 73.456 169.159C74.3385 169.159 75.0999 169.348 75.7401 169.727C76.384 170.102 76.8802 170.629 77.2287 171.307C77.5772 171.981 77.7514 172.769 77.7514 173.67C77.7514 174.564 77.5772 175.35 77.2287 176.028C76.8802 176.703 76.384 177.229 75.7401 177.608C75.0999 177.983 74.3385 178.17 73.456 178.17ZM73.4673 176.295C73.8688 176.295 74.2041 176.182 74.473 175.955C74.742 175.723 74.9446 175.409 75.081 175.011C75.2211 174.614 75.2912 174.161 75.2912 173.653C75.2912 173.146 75.2211 172.693 75.081 172.295C74.9446 171.898 74.742 171.583 74.473 171.352C74.2041 171.121 73.8688 171.006 73.4673 171.006C73.062 171.006 72.7211 171.121 72.4446 171.352C72.1719 171.583 71.9654 171.898 71.8253 172.295C71.6889 172.693 71.6207 173.146 71.6207 173.653C71.6207 174.161 71.6889 174.614 71.8253 175.011C71.9654 175.409 72.1719 175.723 72.4446 175.955C72.7211 176.182 73.062 176.295 73.4673 176.295ZM79.1493 178V169.273H81.4959V170.795H81.5868C81.7459 170.254 82.0129 169.845 82.3879 169.568C82.7629 169.288 83.1947 169.148 83.6834 169.148C83.8046 169.148 83.9353 169.155 84.0754 169.17C84.2156 169.186 84.3387 169.206 84.4447 169.233V171.381C84.3311 171.347 84.1739 171.316 83.9731 171.29C83.7724 171.263 83.5887 171.25 83.422 171.25C83.066 171.25 82.7478 171.328 82.4675 171.483C82.191 171.634 81.9713 171.847 81.8084 172.119C81.6493 172.392 81.5697 172.706 81.5697 173.062V178H79.1493ZM87.2801 181.273C86.9733 181.273 86.6854 181.248 86.4165 181.199C86.1513 181.153 85.9316 181.095 85.7574 181.023L86.3028 179.216C86.5869 179.303 86.8426 179.35 87.0699 179.358C87.3009 179.366 87.4998 179.313 87.6665 179.199C87.8369 179.085 87.9752 178.892 88.0812 178.619L88.2233 178.25L85.0926 169.273H87.6381L89.4449 175.682H89.5358L91.3596 169.273H93.9221L90.5301 178.943C90.3672 179.413 90.1456 179.822 89.8653 180.17C89.5888 180.523 89.2384 180.794 88.8142 180.983C88.3899 181.176 87.8786 181.273 87.2801 181.273ZM56.3613 190.364H58.8215V197.92C58.8215 198.769 58.6189 199.511 58.2136 200.148C57.8121 200.784 57.2496 201.28 56.5261 201.636C55.8026 201.989 54.9598 202.165 53.9977 202.165C53.0318 202.165 52.1871 201.989 51.4636 201.636C50.7401 201.28 50.1776 200.784 49.7761 200.148C49.3746 199.511 49.1738 198.769 49.1738 197.92V190.364H51.634V197.71C51.634 198.153 51.7306 198.547 51.9238 198.892C52.1208 199.237 52.3973 199.508 52.7533 199.705C53.1094 199.902 53.5242 200 53.9977 200C54.4749 200 54.8897 199.902 55.242 199.705C55.598 199.508 55.8727 199.237 56.0658 198.892C56.2628 198.547 56.3613 198.153 56.3613 197.71V190.364ZM63.0447 196.955V202H60.6242V193.273H62.931V194.812H63.0333C63.2265 194.305 63.5504 193.903 64.0049 193.608C64.4595 193.309 65.0106 193.159 65.6583 193.159C66.2644 193.159 66.7928 193.292 67.2435 193.557C67.6943 193.822 68.0447 194.201 68.2947 194.693C68.5447 195.182 68.6697 195.765 68.6697 196.443V202H66.2492V196.875C66.253 196.341 66.1166 195.924 65.8401 195.625C65.5636 195.322 65.1829 195.17 64.6981 195.17C64.3723 195.17 64.0845 195.241 63.8345 195.381C63.5882 195.521 63.3951 195.725 63.2549 195.994C63.1185 196.259 63.0485 196.58 63.0447 196.955ZM70.4013 202V193.273H72.8218V202H70.4013ZM71.6173 192.148C71.2574 192.148 70.9487 192.028 70.6911 191.79C70.4373 191.547 70.3104 191.258 70.3104 190.92C70.3104 190.587 70.4373 190.301 70.6911 190.062C70.9487 189.82 71.2574 189.699 71.6173 189.699C71.9771 189.699 72.2839 189.82 72.5377 190.062C72.7953 190.301 72.9241 190.587 72.9241 190.92C72.9241 191.258 72.7953 191.547 72.5377 191.79C72.2839 192.028 71.9771 192.148 71.6173 192.148ZM79.2268 193.273V195.091H73.9711V193.273H79.2268ZM75.1643 191.182H77.5847V199.318C77.5847 199.542 77.6188 199.716 77.687 199.841C77.7552 199.962 77.8499 200.047 77.9711 200.097C78.0961 200.146 78.24 200.17 78.4029 200.17C78.5165 200.17 78.6302 200.161 78.7438 200.142C78.8574 200.119 78.9446 200.102 79.0052 200.091L79.3859 201.892C79.2646 201.93 79.0942 201.973 78.8745 202.023C78.6548 202.076 78.3878 202.108 78.0734 202.119C77.49 202.142 76.9787 202.064 76.5393 201.886C76.1037 201.708 75.7646 201.432 75.5222 201.057C75.2798 200.682 75.1605 200.208 75.1643 199.636V191.182Z"
        fill="black" fill-opacity="0.8" />
    <path d="M208 68V72C208 85.2548 197.255 96 184 96H88C74.7452 96 64 106.745 64 120V124" stroke="#B3B3B3"
        stroke-width="3" stroke-miterlimit="0" stroke-linecap="round" stroke-linejoin="bevel" />
</svg>