<svg width="720" height="208" viewBox="0 0 720 208" fill="none" xmlns="http://www.w3.org/2000/svg">
    <rect x="256" width="208" height="80" rx="6" fill="#AFF4C6" />
    <path
        d="M289.268 31.5455H292.464L298.021 45.1136H298.225L303.782 31.5455H306.978V49H304.472V36.3693H304.311L299.163 48.9744H297.083L291.936 36.3608H291.774V49H289.268V31.5455ZM315.661 49.2642C314.433 49.2642 313.362 48.983 312.448 48.4205C311.533 47.858 310.823 47.071 310.317 46.0597C309.811 45.0483 309.558 43.8665 309.558 42.5142C309.558 41.1562 309.811 39.9687 310.317 38.9517C310.823 37.9347 311.533 37.1449 312.448 36.5824C313.362 36.0199 314.433 35.7386 315.661 35.7386C316.888 35.7386 317.959 36.0199 318.874 36.5824C319.788 37.1449 320.499 37.9347 321.004 38.9517C321.51 39.9687 321.763 41.1562 321.763 42.5142C321.763 43.8665 321.51 45.0483 321.004 46.0597C320.499 47.071 319.788 47.858 318.874 48.4205C317.959 48.983 316.888 49.2642 315.661 49.2642ZM315.669 47.125C316.465 47.125 317.124 46.9148 317.646 46.4943C318.169 46.0739 318.556 45.5142 318.806 44.8153C319.061 44.1165 319.189 43.3466 319.189 42.5057C319.189 41.6705 319.061 40.9034 318.806 40.2045C318.556 39.5 318.169 38.9347 317.646 38.5085C317.124 38.0824 316.465 37.8693 315.669 37.8693C314.868 37.8693 314.203 38.0824 313.675 38.5085C313.152 38.9347 312.763 39.5 312.507 40.2045C312.257 40.9034 312.132 41.6705 312.132 42.5057C312.132 43.3466 312.257 44.1165 312.507 44.8153C312.763 45.5142 313.152 46.0739 313.675 46.4943C314.203 46.9148 314.868 47.125 315.669 47.125ZM330.262 35.9091V37.9545H323.112V35.9091H330.262ZM325.029 32.7727H327.578V45.1562C327.578 45.6506 327.651 46.0227 327.799 46.2727C327.947 46.517 328.137 46.6847 328.37 46.7756C328.609 46.8608 328.867 46.9034 329.146 46.9034C329.35 46.9034 329.529 46.8892 329.683 46.8608C329.836 46.8324 329.955 46.8097 330.041 46.7926L330.501 48.8977C330.353 48.9545 330.143 49.0114 329.87 49.0682C329.597 49.1307 329.256 49.1648 328.847 49.1705C328.177 49.1818 327.552 49.0625 326.972 48.8125C326.393 48.5625 325.924 48.1761 325.566 47.6534C325.208 47.1307 325.029 46.4744 325.029 45.6847V32.7727ZM335.455 41.2273V49H332.906V31.5455H335.421V38.0398H335.582C335.889 37.3352 336.358 36.7756 336.989 36.3608C337.619 35.946 338.443 35.7386 339.46 35.7386C340.358 35.7386 341.142 35.9233 341.813 36.2926C342.489 36.6619 343.011 37.2131 343.381 37.946C343.756 38.6733 343.943 39.5824 343.943 40.6733V49H341.395V40.9801C341.395 40.0199 341.148 39.2756 340.653 38.7472C340.159 38.2131 339.472 37.946 338.591 37.946C337.989 37.946 337.449 38.0739 336.972 38.3295C336.5 38.5852 336.128 38.9602 335.855 39.4545C335.588 39.9432 335.455 40.5341 335.455 41.2273ZM352.53 49.2642C351.24 49.2642 350.129 48.9886 349.197 48.4375C348.271 47.8807 347.555 47.0994 347.05 46.0938C346.55 45.0824 346.3 43.8977 346.3 42.5398C346.3 41.1989 346.55 40.017 347.05 38.9943C347.555 37.9716 348.26 37.1733 349.163 36.5994C350.072 36.0256 351.135 35.7386 352.351 35.7386C353.09 35.7386 353.805 35.8608 354.499 36.1051C355.192 36.3494 355.814 36.733 356.365 37.2557C356.916 37.7784 357.351 38.4574 357.669 39.2926C357.987 40.1222 358.146 41.1307 358.146 42.3182V43.2216H347.74V41.3125H355.649C355.649 40.642 355.513 40.0483 355.24 39.5312C354.967 39.0085 354.584 38.5966 354.09 38.2955C353.601 37.9943 353.027 37.8438 352.368 37.8438C351.652 37.8438 351.027 38.0199 350.493 38.3722C349.965 38.7187 349.555 39.1733 349.266 39.7358C348.982 40.2926 348.84 40.8977 348.84 41.5511V43.0426C348.84 43.9176 348.993 44.6619 349.3 45.2756C349.612 45.8892 350.047 46.358 350.604 46.6818C351.161 47 351.811 47.1591 352.555 47.1591C353.038 47.1591 353.479 47.0909 353.876 46.9545C354.274 46.8125 354.618 46.6023 354.908 46.3239C355.197 46.0455 355.419 45.7017 355.572 45.2926L357.984 45.7273C357.791 46.4375 357.445 47.0597 356.945 47.5938C356.45 48.1222 355.828 48.5341 355.078 48.8295C354.334 49.1193 353.484 49.2642 352.53 49.2642ZM360.518 49V35.9091H362.981V37.9886H363.117C363.356 37.2841 363.776 36.7301 364.379 36.3267C364.987 35.9176 365.674 35.7131 366.441 35.7131C366.6 35.7131 366.788 35.7187 367.004 35.7301C367.225 35.7415 367.398 35.7557 367.523 35.7727V38.2102C367.421 38.1818 367.239 38.1506 366.978 38.1165C366.717 38.0767 366.455 38.0568 366.194 38.0568C365.592 38.0568 365.055 38.1847 364.583 38.4403C364.117 38.6903 363.748 39.0398 363.475 39.4886C363.202 39.9318 363.066 40.4375 363.066 41.0057V49H360.518ZM369.477 49V31.5455H372.026V38.0312H372.179C372.327 37.7585 372.54 37.4432 372.818 37.0852C373.097 36.7273 373.483 36.4148 373.977 36.1477C374.472 35.875 375.125 35.7386 375.937 35.7386C376.994 35.7386 377.937 36.0057 378.767 36.5398C379.597 37.0739 380.247 37.8437 380.719 38.8494C381.196 39.8551 381.435 41.0653 381.435 42.4801C381.435 43.8949 381.199 45.108 380.727 46.1193C380.256 47.125 379.608 47.9006 378.784 48.446C377.96 48.9858 377.02 49.2557 375.963 49.2557C375.168 49.2557 374.517 49.1222 374.011 48.8551C373.511 48.5881 373.119 48.2756 372.835 47.9176C372.551 47.5597 372.332 47.2415 372.179 46.9631H371.966V49H369.477ZM371.974 42.4545C371.974 43.375 372.108 44.1818 372.375 44.875C372.642 45.5682 373.028 46.1108 373.534 46.5028C374.04 46.8892 374.659 47.0824 375.392 47.0824C376.153 47.0824 376.79 46.8807 377.301 46.4773C377.812 46.0682 378.199 45.5142 378.46 44.8153C378.727 44.1165 378.861 43.3295 378.861 42.4545C378.861 41.5909 378.73 40.8153 378.469 40.1278C378.213 39.4403 377.827 38.8977 377.31 38.5C376.798 38.1023 376.159 37.9034 375.392 37.9034C374.653 37.9034 374.028 38.0937 373.517 38.4744C373.011 38.8551 372.628 39.3864 372.366 40.0682C372.105 40.75 371.974 41.5455 371.974 42.4545ZM389.354 49.2642C388.127 49.2642 387.056 48.983 386.141 48.4205C385.226 47.858 384.516 47.071 384.011 46.0597C383.505 45.0483 383.252 43.8665 383.252 42.5142C383.252 41.1562 383.505 39.9687 384.011 38.9517C384.516 37.9347 385.226 37.1449 386.141 36.5824C387.056 36.0199 388.127 35.7386 389.354 35.7386C390.582 35.7386 391.653 36.0199 392.567 36.5824C393.482 37.1449 394.192 37.9347 394.698 38.9517C395.204 39.9687 395.457 41.1562 395.457 42.5142C395.457 43.8665 395.204 45.0483 394.698 46.0597C394.192 47.071 393.482 47.858 392.567 48.4205C391.653 48.983 390.582 49.2642 389.354 49.2642ZM389.363 47.125C390.158 47.125 390.817 46.9148 391.34 46.4943C391.863 46.0739 392.249 45.5142 392.499 44.8153C392.755 44.1165 392.883 43.3466 392.883 42.5057C392.883 41.6705 392.755 40.9034 392.499 40.2045C392.249 39.5 391.863 38.9347 391.34 38.5085C390.817 38.0824 390.158 37.8693 389.363 37.8693C388.562 37.8693 387.897 38.0824 387.369 38.5085C386.846 38.9347 386.457 39.5 386.201 40.2045C385.951 40.9034 385.826 41.6705 385.826 42.5057C385.826 43.3466 385.951 44.1165 386.201 44.8153C386.457 45.5142 386.846 46.0739 387.369 46.4943C387.897 46.9148 388.562 47.125 389.363 47.125ZM401.655 49.2898C400.825 49.2898 400.075 49.1364 399.405 48.8295C398.734 48.517 398.203 48.0653 397.811 47.4744C397.425 46.8835 397.231 46.1591 397.231 45.3011C397.231 44.5625 397.373 43.9545 397.658 43.4773C397.942 43 398.325 42.6222 398.808 42.3438C399.291 42.0653 399.831 41.8551 400.427 41.7131C401.024 41.571 401.632 41.4631 402.251 41.3892C403.035 41.2983 403.672 41.2244 404.16 41.1676C404.649 41.1051 405.004 41.0057 405.226 40.8693C405.447 40.733 405.558 40.5114 405.558 40.2045V40.1449C405.558 39.4006 405.348 38.8239 404.927 38.4148C404.513 38.0057 403.893 37.8011 403.069 37.8011C402.212 37.8011 401.535 37.9915 401.041 38.3722C400.552 38.7472 400.214 39.1648 400.027 39.625L397.632 39.0795C397.916 38.2841 398.331 37.642 398.876 37.1534C399.427 36.6591 400.061 36.3011 400.777 36.0795C401.493 35.8523 402.246 35.7386 403.035 35.7386C403.558 35.7386 404.112 35.8011 404.697 35.9261C405.288 36.0455 405.839 36.267 406.351 36.5909C406.868 36.9148 407.291 37.3778 407.621 37.9801C407.95 38.5767 408.115 39.3523 408.115 40.3068V49H405.626V47.2102H405.524C405.359 47.5398 405.112 47.8636 404.783 48.1818C404.453 48.5 404.03 48.7642 403.513 48.9744C402.996 49.1847 402.376 49.2898 401.655 49.2898ZM402.209 47.2443C402.913 47.2443 403.516 47.1051 404.016 46.8267C404.521 46.5483 404.905 46.1847 405.166 45.7358C405.433 45.2812 405.567 44.7955 405.567 44.2784V42.5909C405.476 42.6818 405.3 42.767 405.038 42.8466C404.783 42.9205 404.49 42.9858 404.16 43.0426C403.831 43.0937 403.51 43.142 403.197 43.1875C402.885 43.2273 402.623 43.2614 402.413 43.2898C401.919 43.3523 401.467 43.4574 401.058 43.6051C400.655 43.7528 400.331 43.9659 400.087 44.2443C399.848 44.517 399.729 44.8807 399.729 45.3352C399.729 45.9659 399.962 46.4432 400.427 46.767C400.893 47.0852 401.487 47.2443 402.209 47.2443ZM411.053 49V35.9091H413.516V37.9886H413.653C413.891 37.2841 414.312 36.7301 414.914 36.3267C415.522 35.9176 416.209 35.7131 416.976 35.7131C417.136 35.7131 417.323 35.7187 417.539 35.7301C417.761 35.7415 417.934 35.7557 418.059 35.7727V38.2102C417.957 38.1818 417.775 38.1506 417.513 38.1165C417.252 38.0767 416.991 38.0568 416.729 38.0568C416.127 38.0568 415.59 38.1847 415.118 38.4403C414.653 38.6903 414.283 39.0398 414.011 39.4886C413.738 39.9318 413.601 40.4375 413.601 41.0057V49H411.053ZM424.24 49.2557C423.183 49.2557 422.24 48.9858 421.41 48.446C420.586 47.9006 419.939 47.125 419.467 46.1193C419.001 45.108 418.768 43.8949 418.768 42.4801C418.768 41.0653 419.004 39.8551 419.476 38.8494C419.953 37.8437 420.606 37.0739 421.436 36.5398C422.265 36.0057 423.206 35.7386 424.257 35.7386C425.069 35.7386 425.723 35.875 426.217 36.1477C426.717 36.4148 427.104 36.7273 427.376 37.0852C427.655 37.4432 427.871 37.7585 428.024 38.0312H428.177V31.5455H430.726V49H428.237V46.9631H428.024C427.871 47.2415 427.649 47.5597 427.359 47.9176C427.075 48.2756 426.683 48.5881 426.183 48.8551C425.683 49.1222 425.035 49.2557 424.24 49.2557ZM424.802 47.0824C425.535 47.0824 426.155 46.8892 426.66 46.5028C427.172 46.1108 427.558 45.5682 427.819 44.875C428.086 44.1818 428.22 43.375 428.22 42.4545C428.22 41.5455 428.089 40.75 427.828 40.0682C427.567 39.3864 427.183 38.8551 426.677 38.4744C426.172 38.0937 425.547 37.9034 424.802 37.9034C424.035 37.9034 423.396 38.1023 422.885 38.5C422.373 38.8977 421.987 39.4403 421.726 40.1278C421.47 40.8153 421.342 41.5909 421.342 42.4545C421.342 43.3295 421.473 44.1165 421.734 44.8153C421.996 45.5142 422.382 46.0682 422.893 46.4773C423.41 46.8807 424.047 47.0824 424.802 47.0824Z"
        fill="black" fill-opacity="0.8" />
    <rect x="512" y="128" width="208" height="80" rx="6" fill="#FCD19C" />
    <path
        d="M530.125 177V159.545H541.068V161.812H532.759V167.131H540.497V169.389H532.759V174.733H541.171V177H530.125ZM545.937 163.909L548.826 169.006L551.741 163.909H554.528L550.446 170.455L554.562 177H551.775L548.826 172.108L545.886 177H543.09L547.164 170.455L543.142 163.909H545.937ZM556.688 181.909V163.909H559.177V166.031H559.39C559.538 165.759 559.751 165.443 560.029 165.085C560.308 164.727 560.694 164.415 561.188 164.148C561.683 163.875 562.336 163.739 563.149 163.739C564.205 163.739 565.149 164.006 565.978 164.54C566.808 165.074 567.458 165.844 567.93 166.849C568.407 167.855 568.646 169.065 568.646 170.48C568.646 171.895 568.41 173.108 567.938 174.119C567.467 175.125 566.819 175.901 565.995 176.446C565.171 176.986 564.231 177.256 563.174 177.256C562.379 177.256 561.728 177.122 561.222 176.855C560.722 176.588 560.33 176.276 560.046 175.918C559.762 175.56 559.543 175.241 559.39 174.963H559.237V181.909H556.688ZM559.186 170.455C559.186 171.375 559.319 172.182 559.586 172.875C559.853 173.568 560.24 174.111 560.745 174.503C561.251 174.889 561.87 175.082 562.603 175.082C563.365 175.082 564.001 174.881 564.512 174.477C565.024 174.068 565.41 173.514 565.671 172.815C565.938 172.116 566.072 171.33 566.072 170.455C566.072 169.591 565.941 168.815 565.68 168.128C565.424 167.44 565.038 166.898 564.521 166.5C564.009 166.102 563.37 165.903 562.603 165.903C561.865 165.903 561.24 166.094 560.728 166.474C560.222 166.855 559.839 167.386 559.578 168.068C559.316 168.75 559.186 169.545 559.186 170.455ZM574.855 177.29C574.025 177.29 573.275 177.136 572.605 176.83C571.934 176.517 571.403 176.065 571.011 175.474C570.624 174.884 570.431 174.159 570.431 173.301C570.431 172.562 570.573 171.955 570.857 171.477C571.141 171 571.525 170.622 572.008 170.344C572.491 170.065 573.031 169.855 573.627 169.713C574.224 169.571 574.832 169.463 575.451 169.389C576.235 169.298 576.872 169.224 577.36 169.168C577.849 169.105 578.204 169.006 578.426 168.869C578.647 168.733 578.758 168.511 578.758 168.205V168.145C578.758 167.401 578.548 166.824 578.127 166.415C577.712 166.006 577.093 165.801 576.269 165.801C575.411 165.801 574.735 165.991 574.241 166.372C573.752 166.747 573.414 167.165 573.227 167.625L570.832 167.08C571.116 166.284 571.531 165.642 572.076 165.153C572.627 164.659 573.261 164.301 573.977 164.08C574.693 163.852 575.445 163.739 576.235 163.739C576.758 163.739 577.312 163.801 577.897 163.926C578.488 164.045 579.039 164.267 579.551 164.591C580.068 164.915 580.491 165.378 580.82 165.98C581.15 166.577 581.315 167.352 581.315 168.307V177H578.826V175.21H578.724C578.559 175.54 578.312 175.864 577.982 176.182C577.653 176.5 577.23 176.764 576.712 176.974C576.195 177.185 575.576 177.29 574.855 177.29ZM575.409 175.244C576.113 175.244 576.715 175.105 577.215 174.827C577.721 174.548 578.105 174.185 578.366 173.736C578.633 173.281 578.766 172.795 578.766 172.278V170.591C578.676 170.682 578.499 170.767 578.238 170.847C577.982 170.92 577.69 170.986 577.36 171.043C577.031 171.094 576.71 171.142 576.397 171.188C576.085 171.227 575.823 171.261 575.613 171.29C575.119 171.352 574.667 171.457 574.258 171.605C573.855 171.753 573.531 171.966 573.286 172.244C573.048 172.517 572.928 172.881 572.928 173.335C572.928 173.966 573.161 174.443 573.627 174.767C574.093 175.085 574.687 175.244 575.409 175.244ZM586.801 169.227V177H584.253V163.909H586.699V166.04H586.861C587.162 165.347 587.634 164.79 588.276 164.369C588.923 163.949 589.739 163.739 590.722 163.739C591.614 163.739 592.395 163.926 593.065 164.301C593.736 164.67 594.256 165.222 594.625 165.955C594.994 166.687 595.179 167.594 595.179 168.673V177H592.631V168.98C592.631 168.031 592.384 167.29 591.889 166.756C591.395 166.216 590.716 165.946 589.852 165.946C589.261 165.946 588.736 166.074 588.276 166.33C587.821 166.585 587.46 166.96 587.193 167.455C586.932 167.943 586.801 168.534 586.801 169.227ZM607.95 167.105L605.641 167.514C605.544 167.219 605.391 166.937 605.18 166.67C604.976 166.403 604.698 166.185 604.345 166.014C603.993 165.844 603.553 165.759 603.024 165.759C602.303 165.759 601.7 165.92 601.217 166.244C600.734 166.562 600.493 166.974 600.493 167.48C600.493 167.918 600.655 168.27 600.979 168.537C601.303 168.804 601.825 169.023 602.547 169.193L604.626 169.67C605.831 169.949 606.729 170.378 607.32 170.957C607.911 171.537 608.206 172.29 608.206 173.216C608.206 174 607.979 174.699 607.524 175.312C607.075 175.92 606.448 176.398 605.641 176.744C604.84 177.091 603.911 177.264 602.854 177.264C601.388 177.264 600.192 176.952 599.266 176.327C598.34 175.696 597.771 174.801 597.561 173.642L600.024 173.267C600.178 173.909 600.493 174.395 600.97 174.724C601.448 175.048 602.07 175.21 602.837 175.21C603.672 175.21 604.34 175.037 604.84 174.69C605.34 174.338 605.59 173.909 605.59 173.403C605.59 172.994 605.436 172.651 605.129 172.372C604.828 172.094 604.365 171.884 603.74 171.741L601.524 171.256C600.303 170.977 599.399 170.534 598.814 169.926C598.234 169.318 597.945 168.548 597.945 167.616C597.945 166.844 598.161 166.168 598.592 165.588C599.024 165.009 599.621 164.557 600.382 164.233C601.144 163.903 602.016 163.739 602.999 163.739C604.413 163.739 605.527 164.045 606.34 164.659C607.152 165.267 607.689 166.082 607.95 167.105ZM610.552 177V163.909H613.1V177H610.552ZM611.839 161.889C611.396 161.889 611.015 161.741 610.697 161.446C610.384 161.145 610.228 160.787 610.228 160.372C610.228 159.952 610.384 159.594 610.697 159.298C611.015 158.997 611.396 158.847 611.839 158.847C612.282 158.847 612.66 158.997 612.972 159.298C613.291 159.594 613.45 159.952 613.45 160.372C613.45 160.787 613.291 161.145 612.972 161.446C612.66 161.741 612.282 161.889 611.839 161.889ZM621.587 177.264C620.359 177.264 619.288 176.983 618.374 176.42C617.459 175.858 616.749 175.071 616.243 174.06C615.737 173.048 615.484 171.866 615.484 170.514C615.484 169.156 615.737 167.969 616.243 166.952C616.749 165.935 617.459 165.145 618.374 164.582C619.288 164.02 620.359 163.739 621.587 163.739C622.814 163.739 623.885 164.02 624.8 164.582C625.714 165.145 626.425 165.935 626.93 166.952C627.436 167.969 627.689 169.156 627.689 170.514C627.689 171.866 627.436 173.048 626.93 174.06C626.425 175.071 625.714 175.858 624.8 176.42C623.885 176.983 622.814 177.264 621.587 177.264ZM621.595 175.125C622.391 175.125 623.05 174.915 623.572 174.494C624.095 174.074 624.482 173.514 624.732 172.815C624.987 172.116 625.115 171.347 625.115 170.506C625.115 169.67 624.987 168.903 624.732 168.205C624.482 167.5 624.095 166.935 623.572 166.509C623.05 166.082 622.391 165.869 621.595 165.869C620.794 165.869 620.129 166.082 619.601 166.509C619.078 166.935 618.689 167.5 618.433 168.205C618.183 168.903 618.058 169.67 618.058 170.506C618.058 171.347 618.183 172.116 618.433 172.815C618.689 173.514 619.078 174.074 619.601 174.494C620.129 174.915 620.794 175.125 621.595 175.125ZM632.626 169.227V177H630.077V163.909H632.523V166.04H632.685C632.986 165.347 633.458 164.79 634.1 164.369C634.748 163.949 635.563 163.739 636.546 163.739C637.438 163.739 638.219 163.926 638.89 164.301C639.56 164.67 640.08 165.222 640.45 165.955C640.819 166.687 641.004 167.594 641.004 168.673V177H638.455V168.98C638.455 168.031 638.208 167.29 637.714 166.756C637.219 166.216 636.54 165.946 635.677 165.946C635.086 165.946 634.56 166.074 634.1 166.33C633.646 166.585 633.285 166.96 633.018 167.455C632.756 167.943 632.626 168.534 632.626 169.227ZM659.585 164.131C659.494 163.324 659.119 162.699 658.46 162.256C657.801 161.807 656.971 161.582 655.971 161.582C655.256 161.582 654.636 161.696 654.114 161.923C653.591 162.145 653.185 162.452 652.895 162.844C652.611 163.23 652.469 163.67 652.469 164.165C652.469 164.58 652.565 164.937 652.758 165.239C652.957 165.54 653.216 165.793 653.534 165.997C653.858 166.196 654.204 166.364 654.574 166.5C654.943 166.631 655.298 166.739 655.639 166.824L657.344 167.267C657.9 167.403 658.471 167.588 659.057 167.821C659.642 168.054 660.185 168.361 660.685 168.741C661.185 169.122 661.588 169.594 661.895 170.156C662.207 170.719 662.364 171.392 662.364 172.176C662.364 173.165 662.108 174.043 661.596 174.81C661.091 175.577 660.355 176.182 659.389 176.625C658.429 177.068 657.267 177.29 655.903 177.29C654.596 177.29 653.466 177.082 652.511 176.668C651.557 176.253 650.81 175.665 650.27 174.903C649.73 174.136 649.432 173.227 649.375 172.176H652.017C652.068 172.807 652.273 173.332 652.631 173.753C652.994 174.168 653.457 174.477 654.02 174.682C654.588 174.881 655.21 174.98 655.886 174.98C656.631 174.98 657.293 174.864 657.872 174.631C658.457 174.392 658.918 174.062 659.253 173.642C659.588 173.216 659.756 172.719 659.756 172.151C659.756 171.634 659.608 171.21 659.312 170.881C659.023 170.551 658.628 170.278 658.128 170.062C657.633 169.847 657.074 169.656 656.449 169.491L654.386 168.929C652.989 168.548 651.881 167.989 651.062 167.25C650.25 166.511 649.844 165.534 649.844 164.318C649.844 163.312 650.116 162.435 650.662 161.685C651.207 160.935 651.946 160.352 652.878 159.938C653.81 159.517 654.861 159.307 656.031 159.307C657.213 159.307 658.256 159.514 659.159 159.929C660.068 160.344 660.784 160.915 661.307 161.642C661.829 162.364 662.102 163.193 662.125 164.131H659.585ZM667.398 159.545V177H664.85V159.545H667.398ZM675.885 177.264C674.658 177.264 673.586 176.983 672.672 176.42C671.757 175.858 671.047 175.071 670.541 174.06C670.035 173.048 669.783 171.866 669.783 170.514C669.783 169.156 670.035 167.969 670.541 166.952C671.047 165.935 671.757 165.145 672.672 164.582C673.586 164.02 674.658 163.739 675.885 163.739C677.112 163.739 678.183 164.02 679.098 164.582C680.013 165.145 680.723 165.935 681.229 166.952C681.734 167.969 681.987 169.156 681.987 170.514C681.987 171.866 681.734 173.048 681.229 174.06C680.723 175.071 680.013 175.858 679.098 176.42C678.183 176.983 677.112 177.264 675.885 177.264ZM675.893 175.125C676.689 175.125 677.348 174.915 677.871 174.494C678.393 174.074 678.78 173.514 679.03 172.815C679.285 172.116 679.413 171.347 679.413 170.506C679.413 169.67 679.285 168.903 679.03 168.205C678.78 167.5 678.393 166.935 677.871 166.509C677.348 166.082 676.689 165.869 675.893 165.869C675.092 165.869 674.427 166.082 673.899 166.509C673.376 166.935 672.987 167.5 672.731 168.205C672.481 168.903 672.356 169.67 672.356 170.506C672.356 171.347 672.481 172.116 672.731 172.815C672.987 173.514 673.376 174.074 673.899 174.494C674.427 174.915 675.092 175.125 675.893 175.125ZM690.486 163.909V165.955H683.336V163.909H690.486ZM685.253 160.773H687.802V173.156C687.802 173.651 687.876 174.023 688.023 174.273C688.171 174.517 688.361 174.685 688.594 174.776C688.833 174.861 689.091 174.903 689.37 174.903C689.574 174.903 689.753 174.889 689.907 174.861C690.06 174.832 690.179 174.81 690.265 174.793L690.725 176.898C690.577 176.955 690.367 177.011 690.094 177.068C689.822 177.131 689.481 177.165 689.072 177.17C688.401 177.182 687.776 177.062 687.197 176.812C686.617 176.562 686.148 176.176 685.79 175.653C685.432 175.131 685.253 174.474 685.253 173.685V160.773ZM702.448 167.105L700.138 167.514C700.042 167.219 699.888 166.937 699.678 166.67C699.473 166.403 699.195 166.185 698.843 166.014C698.491 165.844 698.05 165.759 697.522 165.759C696.8 165.759 696.198 165.92 695.715 166.244C695.232 166.562 694.991 166.974 694.991 167.48C694.991 167.918 695.152 168.27 695.476 168.537C695.8 168.804 696.323 169.023 697.045 169.193L699.124 169.67C700.329 169.949 701.226 170.378 701.817 170.957C702.408 171.537 702.704 172.29 702.704 173.216C702.704 174 702.476 174.699 702.022 175.312C701.573 175.92 700.945 176.398 700.138 176.744C699.337 177.091 698.408 177.264 697.351 177.264C695.885 177.264 694.689 176.952 693.763 176.327C692.837 175.696 692.269 174.801 692.059 173.642L694.522 173.267C694.675 173.909 694.991 174.395 695.468 174.724C695.945 175.048 696.567 175.21 697.334 175.21C698.17 175.21 698.837 175.037 699.337 174.69C699.837 174.338 700.087 173.909 700.087 173.403C700.087 172.994 699.934 172.651 699.627 172.372C699.326 172.094 698.863 171.884 698.238 171.741L696.022 171.256C694.8 170.977 693.897 170.534 693.312 169.926C692.732 169.318 692.442 168.548 692.442 167.616C692.442 166.844 692.658 166.168 693.09 165.588C693.522 165.009 694.118 164.557 694.88 164.233C695.641 163.903 696.513 163.739 697.496 163.739C698.911 163.739 700.025 164.045 700.837 164.659C701.65 165.267 702.187 166.082 702.448 167.105Z"
        fill="black" fill-opacity="0.8" />
    <rect x="512" width="208" height="80" rx="6" fill="#FFE8A3" />
    <path
        d="M590.57 49V31.5455H596.962C598.201 31.5455 599.227 31.75 600.039 32.1591C600.852 32.5625 601.46 33.1108 601.863 33.804C602.266 34.4915 602.468 35.267 602.468 36.1307C602.468 36.858 602.335 37.4716 602.068 37.9716C601.8 38.4659 601.443 38.8636 600.994 39.1648C600.55 39.4602 600.062 39.6761 599.528 39.8125V39.983C600.107 40.0114 600.673 40.1989 601.224 40.5455C601.781 40.8864 602.241 41.3722 602.604 42.0028C602.968 42.6335 603.15 43.4006 603.15 44.304C603.15 45.196 602.94 45.9972 602.519 46.7074C602.104 47.4119 601.462 47.9716 600.593 48.3864C599.724 48.7955 598.613 49 597.261 49H590.57ZM593.204 46.7415H597.005C598.266 46.7415 599.17 46.4972 599.715 46.0085C600.261 45.5199 600.533 44.9091 600.533 44.1761C600.533 43.625 600.394 43.1193 600.116 42.6591C599.837 42.1989 599.44 41.8324 598.923 41.5597C598.411 41.2869 597.803 41.1506 597.099 41.1506H593.204V46.7415ZM593.204 39.0966H596.732C597.323 39.0966 597.854 38.983 598.326 38.7557C598.803 38.5284 599.181 38.2102 599.46 37.8011C599.744 37.3864 599.886 36.8977 599.886 36.3352C599.886 35.6136 599.633 35.0085 599.127 34.5199C598.621 34.0312 597.846 33.7869 596.8 33.7869H593.204V39.0966ZM608.451 31.5455V49H605.817V31.5455H608.451ZM626.992 40.2727C626.992 42.1364 626.651 43.7386 625.969 45.0795C625.288 46.4148 624.353 47.4432 623.165 48.1648C621.984 48.8807 620.64 49.2386 619.134 49.2386C617.623 49.2386 616.273 48.8807 615.086 48.1648C613.904 47.4432 612.972 46.4119 612.29 45.071C611.609 43.7301 611.268 42.1307 611.268 40.2727C611.268 38.4091 611.609 36.8097 612.29 35.4744C612.972 34.1335 613.904 33.1051 615.086 32.3892C616.273 31.6676 617.623 31.3068 619.134 31.3068C620.64 31.3068 621.984 31.6676 623.165 32.3892C624.353 33.1051 625.288 34.1335 625.969 35.4744C626.651 36.8097 626.992 38.4091 626.992 40.2727ZM624.384 40.2727C624.384 38.8523 624.154 37.6562 623.694 36.6847C623.239 35.7074 622.614 34.9688 621.819 34.4688C621.029 33.9631 620.134 33.7102 619.134 33.7102C618.129 33.7102 617.231 33.9631 616.441 34.4688C615.651 34.9688 615.026 35.7074 614.566 36.6847C614.111 37.6562 613.884 38.8523 613.884 40.2727C613.884 41.6932 614.111 42.892 614.566 43.8693C615.026 44.8409 615.651 45.5795 616.441 46.0852C617.231 46.5852 618.129 46.8352 619.134 46.8352C620.134 46.8352 621.029 46.5852 621.819 46.0852C622.614 45.5795 623.239 44.8409 623.694 43.8693C624.154 42.892 624.384 41.6932 624.384 40.2727ZM639.339 36.1307C639.249 35.3239 638.874 34.6989 638.214 34.2557C637.555 33.8068 636.726 33.5824 635.726 33.5824C635.01 33.5824 634.391 33.696 633.868 33.9233C633.345 34.1449 632.939 34.4517 632.649 34.8438C632.365 35.2301 632.223 35.6705 632.223 36.1648C632.223 36.5795 632.32 36.9375 632.513 37.2386C632.712 37.5398 632.97 37.7926 633.288 37.9972C633.612 38.196 633.959 38.3636 634.328 38.5C634.697 38.6307 635.053 38.7386 635.393 38.8239L637.098 39.267C637.655 39.4034 638.226 39.5881 638.811 39.821C639.396 40.054 639.939 40.3608 640.439 40.7415C640.939 41.1222 641.342 41.5938 641.649 42.1562C641.962 42.7188 642.118 43.392 642.118 44.1761C642.118 45.1648 641.862 46.0426 641.351 46.8097C640.845 47.5767 640.109 48.1818 639.143 48.625C638.183 49.0682 637.021 49.2898 635.658 49.2898C634.351 49.2898 633.22 49.0824 632.266 48.6676C631.311 48.2528 630.564 47.6648 630.024 46.9034C629.484 46.1364 629.186 45.2273 629.129 44.1761H631.771C631.822 44.8068 632.027 45.3324 632.385 45.7528C632.749 46.1676 633.212 46.4773 633.774 46.6818C634.342 46.8807 634.964 46.9801 635.641 46.9801C636.385 46.9801 637.047 46.8636 637.626 46.6307C638.212 46.392 638.672 46.0625 639.007 45.642C639.342 45.2159 639.51 44.7187 639.51 44.1506C639.51 43.6335 639.362 43.2102 639.067 42.8807C638.777 42.5511 638.382 42.2784 637.882 42.0625C637.388 41.8466 636.828 41.6562 636.203 41.4915L634.141 40.929C632.743 40.5483 631.635 39.9886 630.817 39.25C630.004 38.5114 629.598 37.5341 629.598 36.3182C629.598 35.3125 629.871 34.4347 630.416 33.6847C630.962 32.9347 631.7 32.3523 632.632 31.9375C633.564 31.517 634.615 31.3068 635.785 31.3068C636.967 31.3068 638.01 31.5142 638.913 31.929C639.822 32.3438 640.538 32.9148 641.061 33.642C641.584 34.3636 641.856 35.1932 641.879 36.1307H639.339Z"
        fill="black" fill-opacity="0.8" />
    <rect y="128" width="208" height="80" rx="6" fill="#BDE3FF" />
    <path
        d="M38.9408 177V159.545H45.1624C46.5147 159.545 47.6369 159.778 48.5289 160.244C49.4266 160.71 50.0971 161.355 50.5403 162.179C50.9834 162.997 51.205 163.943 51.205 165.017C51.205 166.085 50.9806 167.026 50.5317 167.838C50.0886 168.645 49.4181 169.273 48.5204 169.722C47.6283 170.17 46.5062 170.395 45.1539 170.395H40.4408V168.128H44.9153C45.7675 168.128 46.4607 168.006 46.9948 167.761C47.5346 167.517 47.9295 167.162 48.1795 166.696C48.4295 166.23 48.5545 165.67 48.5545 165.017C48.5545 164.358 48.4266 163.787 48.1709 163.304C47.9209 162.821 47.5261 162.452 46.9863 162.196C46.4522 161.935 45.7505 161.804 44.8812 161.804H41.5744V177H38.9408ZM47.5573 169.125L51.8698 177H48.8698L44.6425 169.125H47.5573ZM55.428 177H52.6326L58.9138 159.545H61.9564L68.2377 177H65.4422L60.5076 162.716H60.3712L55.428 177ZM55.8968 170.165H64.9649V172.381H55.8968V170.165ZM70.3023 159.545H73.4983L79.0551 173.114H79.2597L84.8165 159.545H88.0125V177H85.5068V164.369H85.3449L80.1972 176.974H78.1176L72.9699 164.361H72.8079V177H70.3023V159.545ZM102.156 177.247C100.985 177.247 99.9769 177.034 99.1303 176.608C98.2894 176.182 97.6417 175.602 97.1871 174.869C96.7326 174.131 96.5053 173.295 96.5053 172.364C96.5053 171.653 96.6531 171.023 96.9485 170.472C97.244 169.915 97.6559 169.401 98.1843 168.929C98.7127 168.457 99.3235 167.983 100.017 167.506L102.829 165.52C103.306 165.207 103.679 164.878 103.946 164.531C104.213 164.179 104.346 163.744 104.346 163.227C104.346 162.818 104.17 162.426 103.818 162.051C103.466 161.676 102.994 161.489 102.403 161.489C101.994 161.489 101.633 161.588 101.321 161.787C101.014 161.986 100.772 162.241 100.596 162.554C100.426 162.861 100.341 163.185 100.341 163.526C100.341 163.923 100.449 164.324 100.664 164.727C100.886 165.131 101.17 165.548 101.517 165.98C101.863 166.406 102.227 166.849 102.608 167.31L110.713 177H107.832L101.125 169.116C100.562 168.452 100.039 167.827 99.5565 167.241C99.0735 166.651 98.6815 166.054 98.3803 165.452C98.0849 164.844 97.9371 164.188 97.9371 163.483C97.9371 162.682 98.119 161.972 98.4826 161.352C98.8519 160.727 99.3661 160.239 100.025 159.886C100.684 159.534 101.457 159.358 102.343 159.358C103.241 159.358 104.011 159.534 104.653 159.886C105.301 160.233 105.798 160.696 106.145 161.276C106.497 161.849 106.673 162.477 106.673 163.159C106.673 163.989 106.466 164.722 106.051 165.358C105.642 165.989 105.076 166.568 104.355 167.097L100.852 169.679C100.17 170.179 99.6957 170.673 99.4286 171.162C99.1673 171.645 99.0366 172.023 99.0366 172.295C99.0366 172.795 99.1644 173.259 99.4201 173.685C99.6815 174.111 100.045 174.452 100.511 174.707C100.983 174.963 101.534 175.091 102.164 175.091C102.812 175.091 103.443 174.952 104.056 174.673C104.676 174.389 105.235 173.983 105.735 173.455C106.241 172.926 106.642 172.293 106.937 171.554C107.233 170.815 107.38 169.989 107.38 169.074H109.681C109.681 170.199 109.554 171.151 109.298 171.929C109.042 172.702 108.733 173.332 108.369 173.821C108.011 174.304 107.673 174.682 107.355 174.955C107.252 175.045 107.156 175.136 107.065 175.227C106.974 175.318 106.877 175.409 106.775 175.5C106.184 176.097 105.468 176.537 104.627 176.821C103.792 177.105 102.968 177.247 102.156 177.247ZM118.353 177V159.545H124.575C125.927 159.545 127.049 159.778 127.941 160.244C128.839 160.71 129.51 161.355 129.953 162.179C130.396 162.997 130.617 163.943 130.617 165.017C130.617 166.085 130.393 167.026 129.944 167.838C129.501 168.645 128.831 169.273 127.933 169.722C127.041 170.17 125.919 170.395 124.566 170.395H119.853V168.128H124.328C125.18 168.128 125.873 168.006 126.407 167.761C126.947 167.517 127.342 167.162 127.592 166.696C127.842 166.23 127.967 165.67 127.967 165.017C127.967 164.358 127.839 163.787 127.583 163.304C127.333 162.821 126.938 162.452 126.399 162.196C125.865 161.935 125.163 161.804 124.294 161.804H120.987V177H118.353ZM126.97 169.125L131.282 177H128.282L124.055 169.125H126.97ZM148.528 168.273C148.528 170.136 148.187 171.739 147.505 173.08C146.823 174.415 145.889 175.443 144.701 176.165C143.519 176.881 142.176 177.239 140.67 177.239C139.159 177.239 137.809 176.881 136.622 176.165C135.44 175.443 134.508 174.412 133.826 173.071C133.144 171.73 132.804 170.131 132.804 168.273C132.804 166.409 133.144 164.81 133.826 163.474C134.508 162.134 135.44 161.105 136.622 160.389C137.809 159.668 139.159 159.307 140.67 159.307C142.176 159.307 143.519 159.668 144.701 160.389C145.889 161.105 146.823 162.134 147.505 163.474C148.187 164.81 148.528 166.409 148.528 168.273ZM145.92 168.273C145.92 166.852 145.69 165.656 145.23 164.685C144.775 163.707 144.15 162.969 143.355 162.469C142.565 161.963 141.67 161.71 140.67 161.71C139.664 161.71 138.767 161.963 137.977 162.469C137.187 162.969 136.562 163.707 136.102 164.685C135.647 165.656 135.42 166.852 135.42 168.273C135.42 169.693 135.647 170.892 136.102 171.869C136.562 172.841 137.187 173.58 137.977 174.085C138.767 174.585 139.664 174.835 140.67 174.835C141.67 174.835 142.565 174.585 143.355 174.085C144.15 173.58 144.775 172.841 145.23 171.869C145.69 170.892 145.92 169.693 145.92 168.273ZM151.355 159.545H154.551L160.108 173.114H160.313L165.87 159.545H169.066V177H166.56V164.369H166.398L161.25 176.974H159.171L154.023 164.361H153.861V177H151.355V159.545Z"
        fill="black" fill-opacity="0.8" />
    <rect x="256" y="128" width="208" height="80" rx="6" fill="#FFC7C2" />
    <path
        d="M297.085 162V150.364H304.38V151.875H298.841V155.42H304V156.926H298.841V160.489H304.448V162H297.085ZM307.754 153.273L309.68 156.67L311.623 153.273H313.481L310.76 157.636L313.504 162H311.646L309.68 158.739L307.72 162H305.856L308.572 157.636L305.89 153.273H307.754ZM319.123 153.273V154.636H314.356V153.273H319.123ZM315.635 151.182H317.334V159.438C317.334 159.767 317.383 160.015 317.481 160.182C317.58 160.345 317.707 160.456 317.862 160.517C318.021 160.574 318.194 160.602 318.379 160.602C318.516 160.602 318.635 160.593 318.737 160.574C318.839 160.555 318.919 160.54 318.976 160.528L319.283 161.932C319.184 161.97 319.044 162.008 318.862 162.045C318.68 162.087 318.453 162.11 318.18 162.114C317.733 162.121 317.317 162.042 316.93 161.875C316.544 161.708 316.231 161.451 315.993 161.102C315.754 160.754 315.635 160.316 315.635 159.79V151.182ZM324.494 162.176C323.634 162.176 322.894 161.992 322.273 161.625C321.655 161.254 321.178 160.733 320.841 160.062C320.508 159.388 320.341 158.598 320.341 157.693C320.341 156.799 320.508 156.011 320.841 155.33C321.178 154.648 321.648 154.116 322.25 153.733C322.856 153.35 323.564 153.159 324.375 153.159C324.867 153.159 325.345 153.241 325.807 153.403C326.269 153.566 326.684 153.822 327.051 154.17C327.419 154.519 327.708 154.972 327.92 155.528C328.133 156.081 328.239 156.754 328.239 157.545V158.148H321.301V156.875H326.574C326.574 156.428 326.483 156.032 326.301 155.688C326.119 155.339 325.864 155.064 325.534 154.864C325.208 154.663 324.826 154.562 324.386 154.562C323.909 154.562 323.492 154.68 323.136 154.915C322.784 155.146 322.511 155.449 322.318 155.824C322.129 156.195 322.034 156.598 322.034 157.034V158.028C322.034 158.612 322.136 159.108 322.341 159.517C322.549 159.926 322.839 160.239 323.21 160.455C323.581 160.667 324.015 160.773 324.511 160.773C324.833 160.773 325.127 160.727 325.392 160.636C325.657 160.542 325.886 160.402 326.08 160.216C326.273 160.03 326.42 159.801 326.523 159.528L328.131 159.818C328.002 160.292 327.771 160.706 327.438 161.062C327.108 161.415 326.693 161.689 326.193 161.886C325.697 162.08 325.131 162.176 324.494 162.176ZM329.948 162V153.273H331.59V154.659H331.681C331.84 154.189 332.12 153.82 332.521 153.551C332.927 153.278 333.385 153.142 333.896 153.142C334.003 153.142 334.128 153.146 334.271 153.153C334.419 153.161 334.535 153.17 334.618 153.182V154.807C334.55 154.788 334.429 154.767 334.254 154.744C334.08 154.718 333.906 154.705 333.732 154.705C333.33 154.705 332.972 154.79 332.658 154.96C332.347 155.127 332.101 155.36 331.919 155.659C331.737 155.955 331.646 156.292 331.646 156.67V162H329.948ZM337.611 156.818V162H335.912V153.273H337.543V154.693H337.651C337.852 154.231 338.166 153.86 338.594 153.58C339.026 153.299 339.569 153.159 340.225 153.159C340.819 153.159 341.34 153.284 341.787 153.534C342.234 153.78 342.581 154.148 342.827 154.636C343.073 155.125 343.196 155.729 343.196 156.449V162H341.497V156.653C341.497 156.021 341.333 155.527 341.003 155.17C340.674 154.811 340.221 154.631 339.645 154.631C339.251 154.631 338.901 154.716 338.594 154.886C338.291 155.057 338.05 155.307 337.872 155.636C337.698 155.962 337.611 156.356 337.611 156.818ZM347.839 162.193C347.285 162.193 346.785 162.091 346.339 161.886C345.892 161.678 345.537 161.377 345.276 160.983C345.018 160.589 344.89 160.106 344.89 159.534C344.89 159.042 344.984 158.636 345.174 158.318C345.363 158 345.619 157.748 345.941 157.562C346.263 157.377 346.623 157.237 347.02 157.142C347.418 157.047 347.823 156.975 348.236 156.926C348.759 156.866 349.183 156.816 349.509 156.778C349.835 156.737 350.071 156.67 350.219 156.58C350.367 156.489 350.441 156.341 350.441 156.136V156.097C350.441 155.6 350.301 155.216 350.02 154.943C349.744 154.67 349.331 154.534 348.782 154.534C348.21 154.534 347.759 154.661 347.429 154.915C347.104 155.165 346.878 155.443 346.753 155.75L345.157 155.386C345.346 154.856 345.623 154.428 345.986 154.102C346.354 153.773 346.776 153.534 347.253 153.386C347.731 153.235 348.232 153.159 348.759 153.159C349.107 153.159 349.477 153.201 349.867 153.284C350.261 153.364 350.628 153.511 350.969 153.727C351.314 153.943 351.596 154.252 351.816 154.653C352.035 155.051 352.145 155.568 352.145 156.205V162H350.486V160.807H350.418C350.308 161.027 350.143 161.242 349.924 161.455C349.704 161.667 349.422 161.843 349.077 161.983C348.732 162.123 348.32 162.193 347.839 162.193ZM348.208 160.83C348.678 160.83 349.079 160.737 349.412 160.551C349.749 160.366 350.005 160.123 350.179 159.824C350.357 159.521 350.446 159.197 350.446 158.852V157.727C350.386 157.788 350.268 157.845 350.094 157.898C349.924 157.947 349.729 157.991 349.509 158.028C349.289 158.062 349.075 158.095 348.867 158.125C348.659 158.152 348.484 158.174 348.344 158.193C348.015 158.235 347.714 158.305 347.441 158.403C347.172 158.502 346.956 158.644 346.793 158.83C346.634 159.011 346.554 159.254 346.554 159.557C346.554 159.977 346.71 160.295 347.02 160.511C347.331 160.723 347.727 160.83 348.208 160.83ZM355.931 150.364V162H354.232V150.364H355.931ZM368.582 153.42C368.521 152.883 368.271 152.466 367.832 152.17C367.392 151.871 366.839 151.722 366.173 151.722C365.695 151.722 365.283 151.797 364.934 151.949C364.586 152.097 364.315 152.301 364.122 152.562C363.932 152.82 363.837 153.114 363.837 153.443C363.837 153.72 363.902 153.958 364.031 154.159C364.163 154.36 364.336 154.528 364.548 154.665C364.764 154.797 364.995 154.909 365.241 155C365.487 155.087 365.724 155.159 365.951 155.216L367.087 155.511C367.459 155.602 367.839 155.725 368.23 155.881C368.62 156.036 368.981 156.241 369.315 156.494C369.648 156.748 369.917 157.062 370.122 157.438C370.33 157.812 370.434 158.261 370.434 158.784C370.434 159.443 370.264 160.028 369.923 160.54C369.586 161.051 369.095 161.455 368.451 161.75C367.811 162.045 367.036 162.193 366.127 162.193C365.256 162.193 364.502 162.055 363.866 161.778C363.23 161.502 362.731 161.11 362.372 160.602C362.012 160.091 361.813 159.485 361.775 158.784H363.536C363.57 159.205 363.707 159.555 363.945 159.835C364.188 160.112 364.497 160.318 364.872 160.455C365.25 160.587 365.665 160.653 366.116 160.653C366.612 160.653 367.053 160.576 367.44 160.42C367.83 160.261 368.137 160.042 368.36 159.761C368.584 159.477 368.695 159.146 368.695 158.767C368.695 158.422 368.597 158.14 368.4 157.92C368.207 157.701 367.944 157.519 367.61 157.375C367.281 157.231 366.908 157.104 366.491 156.994L365.116 156.619C364.184 156.366 363.445 155.992 362.9 155.5C362.358 155.008 362.087 154.356 362.087 153.545C362.087 152.875 362.269 152.29 362.633 151.79C362.997 151.29 363.489 150.902 364.11 150.625C364.731 150.345 365.432 150.205 366.212 150.205C367 150.205 367.695 150.343 368.298 150.619C368.904 150.896 369.381 151.277 369.73 151.761C370.078 152.242 370.26 152.795 370.275 153.42H368.582ZM376.294 153.273V154.636H371.527V153.273H376.294ZM372.805 151.182H374.504V159.438C374.504 159.767 374.553 160.015 374.652 160.182C374.75 160.345 374.877 160.456 375.032 160.517C375.191 160.574 375.364 160.602 375.549 160.602C375.686 160.602 375.805 160.593 375.907 160.574C376.01 160.555 376.089 160.54 376.146 160.528L376.453 161.932C376.354 161.97 376.214 162.008 376.032 162.045C375.85 162.087 375.623 162.11 375.35 162.114C374.903 162.121 374.487 162.042 374.1 161.875C373.714 161.708 373.402 161.451 373.163 161.102C372.924 160.754 372.805 160.316 372.805 159.79V151.182ZM381.579 162.176C380.761 162.176 380.047 161.989 379.437 161.614C378.827 161.239 378.354 160.714 378.017 160.04C377.68 159.366 377.511 158.578 377.511 157.676C377.511 156.771 377.68 155.979 378.017 155.301C378.354 154.623 378.827 154.097 379.437 153.722C380.047 153.347 380.761 153.159 381.579 153.159C382.397 153.159 383.111 153.347 383.721 153.722C384.331 154.097 384.805 154.623 385.142 155.301C385.479 155.979 385.647 156.771 385.647 157.676C385.647 158.578 385.479 159.366 385.142 160.04C384.805 160.714 384.331 161.239 383.721 161.614C383.111 161.989 382.397 162.176 381.579 162.176ZM381.585 160.75C382.115 160.75 382.555 160.61 382.903 160.33C383.252 160.049 383.509 159.676 383.676 159.21C383.846 158.744 383.932 158.231 383.932 157.67C383.932 157.114 383.846 156.602 383.676 156.136C383.509 155.667 383.252 155.29 382.903 155.006C382.555 154.722 382.115 154.58 381.585 154.58C381.051 154.58 380.608 154.722 380.255 155.006C379.907 155.29 379.647 155.667 379.477 156.136C379.31 156.602 379.227 157.114 379.227 157.67C379.227 158.231 379.31 158.744 379.477 159.21C379.647 159.676 379.907 160.049 380.255 160.33C380.608 160.61 381.051 160.75 381.585 160.75ZM387.368 162V153.273H389.01V154.659H389.101C389.26 154.189 389.54 153.82 389.942 153.551C390.347 153.278 390.805 153.142 391.317 153.142C391.423 153.142 391.548 153.146 391.692 153.153C391.839 153.161 391.955 153.17 392.038 153.182V154.807C391.97 154.788 391.849 154.767 391.675 154.744C391.5 154.718 391.326 154.705 391.152 154.705C390.75 154.705 390.392 154.79 390.078 154.96C389.767 155.127 389.521 155.36 389.339 155.659C389.158 155.955 389.067 156.292 389.067 156.67V162H387.368ZM395.794 162.193C395.241 162.193 394.741 162.091 394.294 161.886C393.847 161.678 393.493 161.377 393.232 160.983C392.974 160.589 392.845 160.106 392.845 159.534C392.845 159.042 392.94 158.636 393.129 158.318C393.319 158 393.574 157.748 393.896 157.562C394.218 157.377 394.578 157.237 394.976 157.142C395.374 157.047 395.779 156.975 396.192 156.926C396.714 156.866 397.139 156.816 397.464 156.778C397.79 156.737 398.027 156.67 398.175 156.58C398.322 156.489 398.396 156.341 398.396 156.136V156.097C398.396 155.6 398.256 155.216 397.976 154.943C397.699 154.67 397.286 154.534 396.737 154.534C396.165 154.534 395.714 154.661 395.385 154.915C395.059 155.165 394.834 155.443 394.709 155.75L393.112 155.386C393.302 154.856 393.578 154.428 393.942 154.102C394.309 153.773 394.732 153.534 395.209 153.386C395.686 153.235 396.188 153.159 396.714 153.159C397.063 153.159 397.432 153.201 397.822 153.284C398.216 153.364 398.584 153.511 398.925 153.727C399.269 153.943 399.552 154.252 399.771 154.653C399.991 155.051 400.101 155.568 400.101 156.205V162H398.442V160.807H398.374C398.264 161.027 398.099 161.242 397.879 161.455C397.66 161.667 397.377 161.843 397.033 161.983C396.688 162.123 396.275 162.193 395.794 162.193ZM396.163 160.83C396.633 160.83 397.035 160.737 397.368 160.551C397.705 160.366 397.961 160.123 398.135 159.824C398.313 159.521 398.402 159.197 398.402 158.852V157.727C398.341 157.788 398.224 157.845 398.05 157.898C397.879 157.947 397.684 157.991 397.464 158.028C397.245 158.062 397.031 158.095 396.822 158.125C396.614 158.152 396.44 158.174 396.3 158.193C395.97 158.235 395.669 158.305 395.396 158.403C395.127 158.502 394.911 158.644 394.749 158.83C394.589 159.011 394.51 159.254 394.51 159.557C394.51 159.977 394.665 160.295 394.976 160.511C395.286 160.723 395.682 160.83 396.163 160.83ZM405.847 165.455C405.154 165.455 404.557 165.364 404.057 165.182C403.561 165 403.155 164.759 402.841 164.46C402.527 164.161 402.292 163.833 402.136 163.477L403.597 162.875C403.699 163.042 403.835 163.218 404.006 163.403C404.18 163.593 404.415 163.754 404.71 163.886C405.01 164.019 405.394 164.085 405.864 164.085C406.508 164.085 407.04 163.928 407.46 163.614C407.881 163.303 408.091 162.807 408.091 162.125V160.409H407.983C407.881 160.595 407.733 160.801 407.54 161.028C407.35 161.256 407.089 161.453 406.756 161.619C406.422 161.786 405.989 161.869 405.455 161.869C404.765 161.869 404.144 161.708 403.591 161.386C403.042 161.061 402.606 160.581 402.284 159.949C401.966 159.312 401.807 158.53 401.807 157.602C401.807 156.674 401.964 155.879 402.279 155.216C402.597 154.553 403.032 154.045 403.585 153.693C404.138 153.337 404.765 153.159 405.466 153.159C406.008 153.159 406.445 153.25 406.779 153.432C407.112 153.61 407.371 153.818 407.557 154.057C407.746 154.295 407.892 154.506 407.994 154.688H408.119V153.273H409.784V162.193C409.784 162.943 409.61 163.559 409.261 164.04C408.913 164.521 408.441 164.877 407.847 165.108C407.256 165.339 406.589 165.455 405.847 165.455ZM405.83 160.46C406.318 160.46 406.731 160.347 407.068 160.119C407.409 159.888 407.667 159.559 407.841 159.131C408.019 158.699 408.108 158.182 408.108 157.58C408.108 156.992 408.021 156.475 407.847 156.028C407.672 155.581 407.417 155.233 407.08 154.983C406.743 154.729 406.326 154.602 405.83 154.602C405.318 154.602 404.892 154.735 404.551 155C404.21 155.261 403.953 155.617 403.779 156.068C403.608 156.519 403.523 157.023 403.523 157.58C403.523 158.152 403.61 158.653 403.784 159.085C403.958 159.517 404.216 159.854 404.557 160.097C404.902 160.339 405.326 160.46 405.83 160.46ZM415.648 162.176C414.788 162.176 414.048 161.992 413.426 161.625C412.809 161.254 412.332 160.733 411.995 160.062C411.661 159.388 411.495 158.598 411.495 157.693C411.495 156.799 411.661 156.011 411.995 155.33C412.332 154.648 412.801 154.116 413.404 153.733C414.01 153.35 414.718 153.159 415.529 153.159C416.021 153.159 416.498 153.241 416.96 153.403C417.423 153.566 417.837 153.822 418.205 154.17C418.572 154.519 418.862 154.972 419.074 155.528C419.286 156.081 419.392 156.754 419.392 157.545V158.148H412.455V156.875H417.728C417.728 156.428 417.637 156.032 417.455 155.688C417.273 155.339 417.017 155.064 416.688 154.864C416.362 154.663 415.979 154.562 415.54 154.562C415.063 154.562 414.646 154.68 414.29 154.915C413.938 155.146 413.665 155.449 413.472 155.824C413.282 156.195 413.188 156.598 413.188 157.034V158.028C413.188 158.612 413.29 159.108 413.495 159.517C413.703 159.926 413.993 160.239 414.364 160.455C414.735 160.667 415.169 160.773 415.665 160.773C415.987 160.773 416.281 160.727 416.546 160.636C416.811 160.542 417.04 160.402 417.233 160.216C417.426 160.03 417.574 159.801 417.676 159.528L419.284 159.818C419.156 160.292 418.924 160.706 418.591 161.062C418.262 161.415 417.847 161.689 417.347 161.886C416.851 162.08 416.284 162.176 415.648 162.176ZM329.589 178.148H327.816C327.748 177.769 327.621 177.436 327.435 177.148C327.25 176.86 327.023 176.616 326.754 176.415C326.485 176.214 326.184 176.062 325.85 175.96C325.521 175.858 325.17 175.807 324.799 175.807C324.129 175.807 323.528 175.975 322.998 176.312C322.471 176.65 322.055 177.144 321.748 177.795C321.445 178.447 321.293 179.242 321.293 180.182C321.293 181.129 321.445 181.928 321.748 182.58C322.055 183.231 322.473 183.723 323.004 184.057C323.534 184.39 324.13 184.557 324.793 184.557C325.161 184.557 325.509 184.508 325.839 184.409C326.172 184.307 326.473 184.157 326.742 183.96C327.011 183.763 327.238 183.523 327.424 183.239C327.613 182.951 327.744 182.621 327.816 182.25L329.589 182.256C329.494 182.828 329.31 183.354 329.038 183.835C328.769 184.312 328.422 184.725 327.998 185.074C327.577 185.419 327.096 185.686 326.555 185.875C326.013 186.064 325.422 186.159 324.782 186.159C323.774 186.159 322.877 185.92 322.089 185.443C321.301 184.962 320.68 184.275 320.225 183.381C319.774 182.487 319.549 181.42 319.549 180.182C319.549 178.939 319.776 177.873 320.231 176.983C320.685 176.089 321.307 175.403 322.094 174.926C322.882 174.445 323.778 174.205 324.782 174.205C325.399 174.205 325.975 174.294 326.509 174.472C327.047 174.646 327.53 174.903 327.958 175.244C328.386 175.581 328.74 175.994 329.021 176.483C329.301 176.968 329.49 177.523 329.589 178.148ZM335.053 186.176C334.235 186.176 333.521 185.989 332.911 185.614C332.302 185.239 331.828 184.714 331.491 184.04C331.154 183.366 330.985 182.578 330.985 181.676C330.985 180.771 331.154 179.979 331.491 179.301C331.828 178.623 332.302 178.097 332.911 177.722C333.521 177.347 334.235 177.159 335.053 177.159C335.872 177.159 336.586 177.347 337.195 177.722C337.805 178.097 338.279 178.623 338.616 179.301C338.953 179.979 339.122 180.771 339.122 181.676C339.122 182.578 338.953 183.366 338.616 184.04C338.279 184.714 337.805 185.239 337.195 185.614C336.586 185.989 335.872 186.176 335.053 186.176ZM335.059 184.75C335.589 184.75 336.029 184.61 336.377 184.33C336.726 184.049 336.983 183.676 337.15 183.21C337.32 182.744 337.406 182.231 337.406 181.67C337.406 181.114 337.32 180.602 337.15 180.136C336.983 179.667 336.726 179.29 336.377 179.006C336.029 178.722 335.589 178.58 335.059 178.58C334.525 178.58 334.082 178.722 333.73 179.006C333.381 179.29 333.122 179.667 332.951 180.136C332.784 180.602 332.701 181.114 332.701 181.67C332.701 182.231 332.784 182.744 332.951 183.21C333.122 183.676 333.381 184.049 333.73 184.33C334.082 184.61 334.525 184.75 335.059 184.75ZM342.541 180.818V186H340.842V177.273H342.473V178.693H342.581C342.781 178.231 343.096 177.86 343.524 177.58C343.956 177.299 344.499 177.159 345.154 177.159C345.749 177.159 346.27 177.284 346.717 177.534C347.164 177.78 347.51 178.148 347.757 178.636C348.003 179.125 348.126 179.729 348.126 180.449V186H346.427V180.653C346.427 180.021 346.262 179.527 345.933 179.17C345.603 178.811 345.151 178.631 344.575 178.631C344.181 178.631 343.831 178.716 343.524 178.886C343.221 179.057 342.98 179.307 342.802 179.636C342.628 179.962 342.541 180.356 342.541 180.818ZM354.302 177.273V178.636H349.535V177.273H354.302ZM350.814 175.182H352.513V183.438C352.513 183.767 352.562 184.015 352.66 184.182C352.759 184.345 352.886 184.456 353.041 184.517C353.2 184.574 353.372 184.602 353.558 184.602C353.694 184.602 353.814 184.593 353.916 184.574C354.018 184.555 354.098 184.54 354.155 184.528L354.461 185.932C354.363 185.97 354.223 186.008 354.041 186.045C353.859 186.087 353.632 186.11 353.359 186.114C352.912 186.121 352.495 186.042 352.109 185.875C351.723 185.708 351.41 185.451 351.172 185.102C350.933 184.754 350.814 184.316 350.814 183.79V175.182ZM356.006 186V177.273H357.648V178.659H357.739C357.898 178.189 358.178 177.82 358.579 177.551C358.985 177.278 359.443 177.142 359.954 177.142C360.06 177.142 360.185 177.146 360.329 177.153C360.477 177.161 360.593 177.17 360.676 177.182V178.807C360.608 178.788 360.487 178.767 360.312 178.744C360.138 178.718 359.964 178.705 359.79 178.705C359.388 178.705 359.03 178.79 358.716 178.96C358.405 179.127 358.159 179.36 357.977 179.659C357.795 179.955 357.704 180.292 357.704 180.67V186H356.006ZM365.334 186.176C364.516 186.176 363.802 185.989 363.192 185.614C362.582 185.239 362.108 184.714 361.771 184.04C361.434 183.366 361.266 182.578 361.266 181.676C361.266 180.771 361.434 179.979 361.771 179.301C362.108 178.623 362.582 178.097 363.192 177.722C363.802 177.347 364.516 177.159 365.334 177.159C366.152 177.159 366.866 177.347 367.476 177.722C368.086 178.097 368.559 178.623 368.896 179.301C369.233 179.979 369.402 180.771 369.402 181.676C369.402 182.578 369.233 183.366 368.896 184.04C368.559 184.714 368.086 185.239 367.476 185.614C366.866 185.989 366.152 186.176 365.334 186.176ZM365.339 184.75C365.87 184.75 366.309 184.61 366.658 184.33C367.006 184.049 367.264 183.676 367.43 183.21C367.601 182.744 367.686 182.231 367.686 181.67C367.686 181.114 367.601 180.602 367.43 180.136C367.264 179.667 367.006 179.29 366.658 179.006C366.309 178.722 365.87 178.58 365.339 178.58C364.805 178.58 364.362 178.722 364.01 179.006C363.661 179.29 363.402 179.667 363.232 180.136C363.065 180.602 362.982 181.114 362.982 181.67C362.982 182.231 363.065 182.744 363.232 183.21C363.402 183.676 363.661 184.049 364.01 184.33C364.362 184.61 364.805 184.75 365.339 184.75ZM372.821 174.364V186H371.122V174.364H372.821ZM376.63 174.364V186H374.931V174.364H376.63ZM382.5 186.176C381.641 186.176 380.9 185.992 380.279 185.625C379.661 185.254 379.184 184.733 378.847 184.062C378.514 183.388 378.347 182.598 378.347 181.693C378.347 180.799 378.514 180.011 378.847 179.33C379.184 178.648 379.654 178.116 380.256 177.733C380.862 177.35 381.57 177.159 382.381 177.159C382.874 177.159 383.351 177.241 383.813 177.403C384.275 177.566 384.69 177.822 385.057 178.17C385.425 178.519 385.714 178.972 385.927 179.528C386.139 180.081 386.245 180.754 386.245 181.545V182.148H379.307V180.875H384.58C384.58 180.428 384.489 180.032 384.307 179.688C384.125 179.339 383.87 179.064 383.54 178.864C383.214 178.663 382.832 178.562 382.392 178.562C381.915 178.562 381.499 178.68 381.142 178.915C380.79 179.146 380.517 179.449 380.324 179.824C380.135 180.195 380.04 180.598 380.04 181.034V182.028C380.04 182.612 380.142 183.108 380.347 183.517C380.555 183.926 380.845 184.239 381.216 184.455C381.588 184.667 382.021 184.773 382.517 184.773C382.839 184.773 383.133 184.727 383.398 184.636C383.663 184.542 383.892 184.402 384.086 184.216C384.279 184.03 384.427 183.801 384.529 183.528L386.137 183.818C386.008 184.292 385.777 184.706 385.444 185.062C385.114 185.415 384.699 185.689 384.199 185.886C383.703 186.08 383.137 186.176 382.5 186.176ZM387.954 186V177.273H389.596V178.659H389.687C389.846 178.189 390.126 177.82 390.528 177.551C390.933 177.278 391.391 177.142 391.903 177.142C392.009 177.142 392.134 177.146 392.278 177.153C392.425 177.161 392.541 177.17 392.624 177.182V178.807C392.556 178.788 392.435 178.767 392.26 178.744C392.086 178.718 391.912 178.705 391.738 178.705C391.336 178.705 390.978 178.79 390.664 178.96C390.353 179.127 390.107 179.36 389.925 179.659C389.743 179.955 389.653 180.292 389.653 180.67V186H387.954ZM400.458 179.403L398.918 179.676C398.854 179.479 398.752 179.292 398.611 179.114C398.475 178.936 398.29 178.79 398.055 178.676C397.82 178.562 397.526 178.506 397.174 178.506C396.693 178.506 396.291 178.614 395.969 178.83C395.647 179.042 395.486 179.316 395.486 179.653C395.486 179.945 395.594 180.18 395.81 180.358C396.026 180.536 396.375 180.682 396.856 180.795L398.242 181.114C399.045 181.299 399.644 181.585 400.038 181.972C400.432 182.358 400.629 182.86 400.629 183.477C400.629 184 400.477 184.466 400.174 184.875C399.875 185.28 399.456 185.598 398.918 185.83C398.384 186.061 397.765 186.176 397.06 186.176C396.083 186.176 395.286 185.968 394.668 185.551C394.051 185.131 393.672 184.534 393.532 183.761L395.174 183.511C395.276 183.939 395.486 184.263 395.805 184.483C396.123 184.699 396.538 184.807 397.049 184.807C397.606 184.807 398.051 184.691 398.384 184.46C398.718 184.225 398.884 183.939 398.884 183.602C398.884 183.33 398.782 183.1 398.577 182.915C398.377 182.729 398.068 182.589 397.651 182.494L396.174 182.17C395.36 181.985 394.757 181.689 394.367 181.284C393.981 180.879 393.788 180.366 393.788 179.744C393.788 179.229 393.932 178.778 394.219 178.392C394.507 178.006 394.905 177.705 395.413 177.489C395.92 177.269 396.502 177.159 397.157 177.159C398.1 177.159 398.843 177.364 399.384 177.773C399.926 178.178 400.284 178.722 400.458 179.403Z"
        fill="black" fill-opacity="0.8" />
    <rect width="208" height="80" rx="6" fill="#E4CCFF" />
    <path
        d="M95.5231 37.2216H92.864C92.7618 36.6534 92.5714 36.1534 92.293 35.7216C92.0146 35.2898 91.6737 34.9233 91.2703 34.6222C90.8669 34.321 90.4152 34.0937 89.9152 33.9403C89.4208 33.7869 88.8953 33.7102 88.3385 33.7102C87.3328 33.7102 86.4322 33.9631 85.6368 34.4688C84.847 34.9744 84.222 35.7159 83.7618 36.6932C83.3072 37.6705 83.0799 38.8636 83.0799 40.2727C83.0799 41.6932 83.3072 42.892 83.7618 43.8693C84.222 44.8466 84.8498 45.5852 85.6453 46.0852C86.4407 46.5852 87.3356 46.8352 88.3299 46.8352C88.8811 46.8352 89.4038 46.7614 89.8981 46.6136C90.3981 46.4602 90.8498 46.2358 91.2532 45.9403C91.6566 45.6449 91.9975 45.2841 92.276 44.858C92.56 44.4261 92.7561 43.9318 92.864 43.375L95.5231 43.3835C95.3811 44.2415 95.1055 45.0312 94.6964 45.7528C94.293 46.4688 93.7731 47.0881 93.1368 47.6108C92.5061 48.1278 91.7845 48.5284 90.972 48.8125C90.1595 49.0966 89.2731 49.2386 88.3129 49.2386C86.8015 49.2386 85.4549 48.8807 84.2731 48.1648C83.0913 47.4432 82.1595 46.4119 81.4777 45.071C80.8015 43.7301 80.4635 42.1307 80.4635 40.2727C80.4635 38.4091 80.8044 36.8097 81.4862 35.4744C82.168 34.1335 83.0998 33.1051 84.2816 32.3892C85.4635 31.6676 86.8072 31.3068 88.3129 31.3068C89.239 31.3068 90.1027 31.4403 90.9038 31.7074C91.7106 31.9687 92.4351 32.3551 93.0771 32.8665C93.7191 33.3722 94.2504 33.9915 94.6708 34.7244C95.0913 35.4517 95.3754 36.2841 95.5231 37.2216ZM98.2184 49V31.5455H104.44C105.798 31.5455 106.923 31.7926 107.815 32.2869C108.707 32.7812 109.375 33.4574 109.818 34.3153C110.261 35.1676 110.483 36.1278 110.483 37.196C110.483 38.2699 110.258 39.2358 109.809 40.0938C109.366 40.946 108.696 41.6222 107.798 42.1222C106.906 42.6165 105.784 42.8636 104.431 42.8636H100.153V40.6307H104.193C105.051 40.6307 105.747 40.483 106.281 40.1875C106.815 39.8864 107.207 39.4773 107.457 38.9602C107.707 38.4432 107.832 37.8551 107.832 37.196C107.832 36.5369 107.707 35.9517 107.457 35.4403C107.207 34.929 106.812 34.5284 106.272 34.2386C105.738 33.9489 105.034 33.804 104.159 33.804H100.852V49H98.2184ZM124.338 31.5455H126.98V43.0256C126.98 44.2472 126.694 45.3295 126.12 46.2727C125.546 47.2102 124.739 47.9489 123.699 48.4886C122.659 49.0227 121.441 49.2898 120.043 49.2898C118.651 49.2898 117.435 49.0227 116.395 48.4886C115.355 47.9489 114.549 47.2102 113.975 46.2727C113.401 45.3295 113.114 44.2472 113.114 43.0256V31.5455H115.747V42.8125C115.747 43.6023 115.921 44.304 116.267 44.9176C116.62 45.5312 117.117 46.0142 117.759 46.3665C118.401 46.7131 119.162 46.8864 120.043 46.8864C120.929 46.8864 121.694 46.7131 122.336 46.3665C122.983 46.0142 123.478 45.5312 123.819 44.9176C124.165 44.304 124.338 43.6023 124.338 42.8125V31.5455Z"
        fill="black" fill-opacity="0.8" />
    <path
        d="M361.5 84C361.5 83.1716 360.828 82.5 360 82.5C359.172 82.5 358.5 83.1716 358.5 84H361.5ZM358.939 125.061C359.525 125.646 360.475 125.646 361.061 125.061L370.607 115.515C371.192 114.929 371.192 113.979 370.607 113.393C370.021 112.808 369.071 112.808 368.485 113.393L360 121.879L351.515 113.393C350.929 112.808 349.979 112.808 349.393 113.393C348.808 113.979 348.808 114.929 349.393 115.515L358.939 125.061ZM358.5 84V124H361.5V84H358.5Z"
        fill="#B3B3B3" />
    <path
        d="M252 41.5C252.828 41.5 253.5 40.8284 253.5 40C253.5 39.1716 252.828 38.5 252 38.5V41.5ZM210.939 38.9393C210.354 39.5251 210.354 40.4749 210.939 41.0607L220.485 50.6066C221.071 51.1924 222.021 51.1924 222.607 50.6066C223.192 50.0208 223.192 49.0711 222.607 48.4853L214.121 40L222.607 31.5147C223.192 30.9289 223.192 29.9792 222.607 29.3934C222.021 28.8076 221.071 28.8076 220.485 29.3934L210.939 38.9393ZM252 38.5H212V41.5H252V38.5Z"
        fill="#B3B3B3" />
    <path
        d="M361.5 84C361.5 83.1716 360.828 82.5 360 82.5C359.172 82.5 358.5 83.1716 358.5 84H361.5ZM102.939 125.061C103.525 125.646 104.475 125.646 105.061 125.061L114.607 115.515C115.192 114.929 115.192 113.979 114.607 113.393C114.021 112.808 113.071 112.808 112.485 113.393L104 121.879L95.5147 113.393C94.9289 112.808 93.9792 112.808 93.3934 113.393C92.8076 113.979 92.8076 114.929 93.3934 115.515L102.939 125.061ZM104 124H105.5H104ZM360 84H361.5H360ZM340 102.5H124V105.5H340V102.5ZM124 102.5C112.126 102.5 102.5 112.126 102.5 124H105.5C105.5 113.783 113.783 105.5 124 105.5V102.5ZM358.5 84C358.5 94.2173 350.217 102.5 340 102.5V105.5C351.874 105.5 361.5 95.8741 361.5 84H358.5Z"
        fill="#B3B3B3" />
    <path
        d="M361.5 84C361.5 83.1716 360.828 82.5 360 82.5C359.172 82.5 358.5 83.1716 358.5 84H361.5ZM614.939 125.061C615.525 125.646 616.475 125.646 617.061 125.061L626.607 115.515C627.192 114.929 627.192 113.979 626.607 113.393C626.021 112.808 625.071 112.808 624.485 113.393L616 121.879L607.515 113.393C606.929 112.808 605.979 112.808 605.393 113.393C604.808 113.979 604.808 114.929 605.393 115.515L614.939 125.061ZM616 124H617.5H616ZM360 84H361.5H360ZM380 105.5H596V102.5H380V105.5ZM596 105.5C606.217 105.5 614.5 113.783 614.5 124H617.5C617.5 112.126 607.874 102.5 596 102.5V105.5ZM358.5 84C358.5 95.8741 368.126 105.5 380 105.5V102.5C369.783 102.5 361.5 94.2173 361.5 84H358.5Z"
        fill="#B3B3B3" />
    <path
        d="M468 38.5C467.172 38.5 466.5 39.1716 466.5 40C466.5 40.8284 467.172 41.5 468 41.5V38.5ZM509.061 41.0607C509.646 40.4749 509.646 39.5251 509.061 38.9393L499.515 29.3934C498.929 28.8076 497.979 28.8076 497.393 29.3934C496.808 29.9792 496.808 30.9289 497.393 31.5147L505.879 40L497.393 48.4853C496.808 49.0711 496.808 50.0208 497.393 50.6066C497.979 51.1924 498.929 51.1924 499.515 50.6066L509.061 41.0607ZM468 41.5H508V38.5H468V41.5Z"
        fill="#B3B3B3" />
</svg>