<svg width="443" height="206" viewBox="0 0 443 206" fill="none" xmlns="http://www.w3.org/2000/svg">
    <rect x="132" y="78" width="176" height="50" rx="3" fill="#FFE8A3" />
    <path
        d="M185.45 99.1307C185.359 98.3239 184.984 97.6989 184.325 97.2557C183.666 96.8068 182.836 96.5824 181.836 96.5824C181.12 96.5824 180.501 96.696 179.978 96.9233C179.456 97.1449 179.049 97.4517 178.76 97.8438C178.476 98.2301 178.334 98.6705 178.334 99.1648C178.334 99.5795 178.43 99.9375 178.623 100.239C178.822 100.54 179.081 100.793 179.399 100.997C179.723 101.196 180.069 101.364 180.439 101.5C180.808 101.631 181.163 101.739 181.504 101.824L183.209 102.267C183.765 102.403 184.336 102.588 184.922 102.821C185.507 103.054 186.049 103.361 186.549 103.741C187.049 104.122 187.453 104.594 187.76 105.156C188.072 105.719 188.228 106.392 188.228 107.176C188.228 108.165 187.973 109.043 187.461 109.81C186.956 110.577 186.22 111.182 185.254 111.625C184.294 112.068 183.132 112.29 181.768 112.29C180.461 112.29 179.331 112.082 178.376 111.668C177.422 111.253 176.674 110.665 176.135 109.903C175.595 109.136 175.297 108.227 175.24 107.176H177.882C177.933 107.807 178.138 108.332 178.495 108.753C178.859 109.168 179.322 109.477 179.885 109.682C180.453 109.881 181.075 109.98 181.751 109.98C182.495 109.98 183.157 109.864 183.737 109.631C184.322 109.392 184.782 109.062 185.118 108.642C185.453 108.216 185.62 107.719 185.62 107.151C185.62 106.634 185.473 106.21 185.177 105.881C184.888 105.551 184.493 105.278 183.993 105.062C183.498 104.847 182.939 104.656 182.314 104.491L180.251 103.929C178.853 103.548 177.745 102.989 176.927 102.25C176.115 101.511 175.709 100.534 175.709 99.3182C175.709 98.3125 175.981 97.4347 176.527 96.6847C177.072 95.9347 177.811 95.3523 178.743 94.9375C179.674 94.517 180.726 94.3068 181.896 94.3068C183.078 94.3068 184.12 94.5142 185.024 94.929C185.933 95.3438 186.649 95.9148 187.172 96.642C187.694 97.3636 187.967 98.1932 187.99 99.1307H185.45ZM196.229 112.264C194.962 112.264 193.871 111.977 192.956 111.403C192.047 110.824 191.348 110.026 190.86 109.009C190.371 107.991 190.127 106.827 190.127 105.514C190.127 104.185 190.377 103.011 190.877 101.994C191.377 100.972 192.081 100.173 192.99 99.5994C193.9 99.0256 194.971 98.7386 196.204 98.7386C197.198 98.7386 198.084 98.9233 198.863 99.2926C199.641 99.6562 200.269 100.168 200.746 100.827C201.229 101.486 201.516 102.256 201.607 103.136H199.127C198.99 102.523 198.678 101.994 198.189 101.551C197.706 101.108 197.059 100.886 196.246 100.886C195.536 100.886 194.914 101.074 194.38 101.449C193.851 101.818 193.439 102.347 193.144 103.034C192.848 103.716 192.701 104.523 192.701 105.455C192.701 106.409 192.846 107.233 193.135 107.926C193.425 108.619 193.834 109.156 194.363 109.537C194.897 109.918 195.525 110.108 196.246 110.108C196.729 110.108 197.167 110.02 197.559 109.844C197.956 109.662 198.289 109.403 198.556 109.068C198.829 108.733 199.019 108.33 199.127 107.858H201.607C201.516 108.705 201.24 109.46 200.78 110.125C200.32 110.79 199.704 111.312 198.931 111.693C198.164 112.074 197.263 112.264 196.229 112.264ZM207.686 112.29C206.856 112.29 206.106 112.136 205.436 111.83C204.765 111.517 204.234 111.065 203.842 110.474C203.456 109.884 203.262 109.159 203.262 108.301C203.262 107.562 203.405 106.955 203.689 106.477C203.973 106 204.356 105.622 204.839 105.344C205.322 105.065 205.862 104.855 206.458 104.713C207.055 104.571 207.663 104.463 208.282 104.389C209.066 104.298 209.703 104.224 210.191 104.168C210.68 104.105 211.035 104.006 211.257 103.869C211.478 103.733 211.589 103.511 211.589 103.205V103.145C211.589 102.401 211.379 101.824 210.958 101.415C210.544 101.006 209.924 100.801 209.101 100.801C208.243 100.801 207.566 100.991 207.072 101.372C206.583 101.747 206.245 102.165 206.058 102.625L203.663 102.08C203.947 101.284 204.362 100.642 204.907 100.153C205.458 99.6591 206.092 99.3011 206.808 99.0795C207.524 98.8523 208.277 98.7386 209.066 98.7386C209.589 98.7386 210.143 98.8011 210.728 98.9261C211.319 99.0455 211.87 99.267 212.382 99.5909C212.899 99.9148 213.322 100.378 213.652 100.98C213.981 101.577 214.146 102.352 214.146 103.307V112H211.657V110.21H211.555C211.39 110.54 211.143 110.864 210.814 111.182C210.484 111.5 210.061 111.764 209.544 111.974C209.027 112.185 208.407 112.29 207.686 112.29ZM208.24 110.244C208.944 110.244 209.547 110.105 210.047 109.827C210.552 109.548 210.936 109.185 211.197 108.736C211.464 108.281 211.598 107.795 211.598 107.278V105.591C211.507 105.682 211.331 105.767 211.069 105.847C210.814 105.92 210.521 105.986 210.191 106.043C209.862 106.094 209.541 106.142 209.228 106.188C208.916 106.227 208.655 106.261 208.444 106.29C207.95 106.352 207.498 106.457 207.089 106.605C206.686 106.753 206.362 106.966 206.118 107.244C205.879 107.517 205.76 107.881 205.76 108.335C205.76 108.966 205.993 109.443 206.458 109.767C206.924 110.085 207.518 110.244 208.24 110.244ZM219.632 104.227V112H217.084V98.9091H219.53V101.04H219.692C219.993 100.347 220.465 99.7898 221.107 99.3693C221.755 98.9489 222.57 98.7386 223.553 98.7386C224.445 98.7386 225.226 98.9261 225.897 99.3011C226.567 99.6705 227.087 100.222 227.456 100.955C227.826 101.687 228.01 102.594 228.01 103.673V112H225.462V103.98C225.462 103.031 225.215 102.29 224.721 101.756C224.226 101.216 223.547 100.946 222.684 100.946C222.093 100.946 221.567 101.074 221.107 101.33C220.652 101.585 220.292 101.96 220.025 102.455C219.763 102.943 219.632 103.534 219.632 104.227ZM233.52 104.227V112H230.972V98.9091H233.418V101.04H233.58C233.881 100.347 234.353 99.7898 234.995 99.3693C235.642 98.9489 236.458 98.7386 237.441 98.7386C238.333 98.7386 239.114 98.9261 239.784 99.3011C240.455 99.6705 240.975 100.222 241.344 100.955C241.713 101.687 241.898 102.594 241.898 103.673V112H239.35V103.98C239.35 103.031 239.103 102.29 238.608 101.756C238.114 101.216 237.435 100.946 236.571 100.946C235.98 100.946 235.455 101.074 234.995 101.33C234.54 101.585 234.179 101.96 233.912 102.455C233.651 102.943 233.52 103.534 233.52 104.227ZM250.502 112.264C249.212 112.264 248.101 111.989 247.169 111.438C246.243 110.881 245.527 110.099 245.022 109.094C244.522 108.082 244.272 106.898 244.272 105.54C244.272 104.199 244.522 103.017 245.022 101.994C245.527 100.972 246.232 100.173 247.135 99.5994C248.044 99.0256 249.107 98.7386 250.323 98.7386C251.061 98.7386 251.777 98.8608 252.47 99.1051C253.164 99.3494 253.786 99.733 254.337 100.256C254.888 100.778 255.323 101.457 255.641 102.293C255.959 103.122 256.118 104.131 256.118 105.318V106.222H245.712V104.312H253.621C253.621 103.642 253.485 103.048 253.212 102.531C252.939 102.009 252.556 101.597 252.061 101.295C251.573 100.994 250.999 100.844 250.34 100.844C249.624 100.844 248.999 101.02 248.465 101.372C247.936 101.719 247.527 102.173 247.238 102.736C246.953 103.293 246.811 103.898 246.811 104.551V106.043C246.811 106.918 246.965 107.662 247.272 108.276C247.584 108.889 248.019 109.358 248.576 109.682C249.132 110 249.783 110.159 250.527 110.159C251.01 110.159 251.451 110.091 251.848 109.955C252.246 109.812 252.59 109.602 252.88 109.324C253.169 109.045 253.391 108.702 253.544 108.293L255.956 108.727C255.763 109.437 255.416 110.06 254.916 110.594C254.422 111.122 253.8 111.534 253.05 111.83C252.306 112.119 251.456 112.264 250.502 112.264ZM258.49 112V98.9091H260.953V100.989H261.089C261.328 100.284 261.748 99.7301 262.35 99.3267C262.958 98.9176 263.646 98.7131 264.413 98.7131C264.572 98.7131 264.759 98.7187 264.975 98.7301C265.197 98.7415 265.37 98.7557 265.495 98.7727V101.21C265.393 101.182 265.211 101.151 264.95 101.116C264.688 101.077 264.427 101.057 264.166 101.057C263.563 101.057 263.027 101.185 262.555 101.44C262.089 101.69 261.72 102.04 261.447 102.489C261.174 102.932 261.038 103.437 261.038 104.006V112H258.49Z"
        fill="black" fill-opacity="0.8" />
    <rect width="176" height="50" rx="3" fill="#AFF4C6" />
    <path
        d="M39.6541 31H35.887V19.3636H39.7734C40.9135 19.3636 41.8927 19.5966 42.7109 20.0625C43.5291 20.5246 44.156 21.1894 44.5916 22.0568C45.031 22.9205 45.2507 23.9564 45.2507 25.1648C45.2507 26.3769 45.0291 27.4186 44.5859 28.2898C44.1465 29.161 43.5101 29.8314 42.6768 30.3011C41.8435 30.767 40.8359 31 39.6541 31ZM37.6427 29.4659H39.5575C40.4439 29.4659 41.1806 29.2992 41.7677 28.9659C42.3548 28.6288 42.7942 28.142 43.0859 27.5057C43.3776 26.8655 43.5234 26.0852 43.5234 25.1648C43.5234 24.2519 43.3776 23.4773 43.0859 22.8409C42.798 22.2045 42.3681 21.7216 41.7961 21.392C41.2242 21.0625 40.5139 20.8977 39.6654 20.8977H37.6427V29.4659ZM47.1215 31V22.2727H48.7636V23.6591H48.8545C49.0136 23.1894 49.2939 22.8201 49.6954 22.5511C50.1007 22.2784 50.559 22.142 51.0704 22.142C51.1765 22.142 51.3015 22.1458 51.4454 22.1534C51.5931 22.161 51.7087 22.1705 51.792 22.1818V23.8068C51.7238 23.7879 51.6026 23.767 51.4284 23.7443C51.2541 23.7178 51.0799 23.7045 50.9056 23.7045C50.5041 23.7045 50.1462 23.7898 49.8318 23.9602C49.5212 24.1269 49.275 24.3598 49.0931 24.6591C48.9113 24.9545 48.8204 25.2917 48.8204 25.6705V31H47.1215ZM58.6146 27.3807V22.2727H60.3191V31H58.6487V29.4886H58.5578C58.357 29.9545 58.035 30.3428 57.5918 30.6534C57.1525 30.9602 56.6051 31.1136 55.9498 31.1136C55.3892 31.1136 54.893 30.9905 54.4612 30.7443C54.0331 30.4943 53.696 30.125 53.4498 29.6364C53.2074 29.1477 53.0862 28.5436 53.0862 27.8239V22.2727H54.785V27.6193C54.785 28.214 54.9498 28.6875 55.2793 29.0398C55.6089 29.392 56.0369 29.5682 56.5634 29.5682C56.8816 29.5682 57.1979 29.4886 57.5123 29.3295C57.8305 29.1705 58.0937 28.9299 58.3021 28.608C58.5142 28.286 58.6184 27.8769 58.6146 27.3807ZM62.4258 31V22.2727H64.0565V23.6932H64.1644C64.3462 23.2121 64.6436 22.8371 65.0565 22.5682C65.4694 22.2955 65.9637 22.1591 66.5394 22.1591C67.1228 22.1591 67.6114 22.2955 68.0053 22.5682C68.4031 22.8409 68.6966 23.2159 68.886 23.6932H68.9769C69.1853 23.2273 69.5167 22.8561 69.9712 22.5795C70.4258 22.2992 70.9675 22.1591 71.5962 22.1591C72.3879 22.1591 73.0337 22.4072 73.5337 22.9034C74.0375 23.3996 74.2894 24.1477 74.2894 25.1477V31H72.5906V25.3068C72.5906 24.7159 72.4296 24.2879 72.1076 24.0227C71.7856 23.7576 71.4012 23.625 70.9542 23.625C70.4012 23.625 69.9712 23.7955 69.6644 24.1364C69.3576 24.4735 69.2042 24.9072 69.2042 25.4375V31H67.511V25.1989C67.511 24.7254 67.3633 24.3447 67.0678 24.0568C66.7724 23.7689 66.3879 23.625 65.9144 23.625C65.5925 23.625 65.2951 23.7102 65.0224 23.8807C64.7534 24.0473 64.5356 24.2803 64.369 24.5795C64.2061 24.8788 64.1247 25.2254 64.1247 25.6193V31H62.4258ZM86.9317 22.4205C86.8711 21.8826 86.6211 21.4659 86.1817 21.1705C85.7424 20.8712 85.1893 20.7216 84.5227 20.7216C84.0454 20.7216 83.6325 20.7973 83.284 20.9489C82.9355 21.0966 82.6647 21.3011 82.4715 21.5625C82.2821 21.8201 82.1874 22.1136 82.1874 22.4432C82.1874 22.7197 82.2518 22.9583 82.3806 23.1591C82.5132 23.3598 82.6855 23.5284 82.8977 23.6648C83.1136 23.7973 83.3446 23.9091 83.5908 24C83.8371 24.0871 84.0738 24.1591 84.3011 24.2159L85.4374 24.5114C85.8086 24.6023 86.1893 24.7254 86.5795 24.8807C86.9696 25.036 87.3314 25.2405 87.6647 25.4943C87.998 25.7481 88.267 26.0625 88.4715 26.4375C88.6799 26.8125 88.784 27.2614 88.784 27.7841C88.784 28.4432 88.6136 29.0284 88.2727 29.5398C87.9355 30.0511 87.445 30.4545 86.8011 30.75C86.1609 31.0455 85.3863 31.1932 84.4772 31.1932C83.606 31.1932 82.8522 31.0549 82.2158 30.7784C81.5795 30.5019 81.0814 30.1098 80.7215 29.6023C80.3617 29.0909 80.1628 28.4848 80.1249 27.7841H81.8863C81.9204 28.2045 82.0567 28.5549 82.2954 28.8352C82.5378 29.1117 82.8465 29.3182 83.2215 29.4545C83.6003 29.5871 84.0151 29.6534 84.4658 29.6534C84.9621 29.6534 85.4033 29.5758 85.7897 29.4205C86.1799 29.2614 86.4867 29.0417 86.7102 28.7614C86.9336 28.4773 87.0454 28.1458 87.0454 27.767C87.0454 27.4223 86.9469 27.1402 86.7499 26.9205C86.5567 26.7008 86.2935 26.5189 85.9602 26.375C85.6306 26.2311 85.2575 26.1042 84.8408 25.9943L83.4658 25.6193C82.534 25.3655 81.7954 24.9924 81.2499 24.5C80.7083 24.0076 80.4374 23.3561 80.4374 22.5455C80.4374 21.875 80.6192 21.2898 80.9829 20.7898C81.3465 20.2898 81.8389 19.9015 82.4602 19.625C83.0814 19.3447 83.7821 19.2045 84.5624 19.2045C85.3503 19.2045 86.0454 19.3428 86.6477 19.6193C87.2537 19.8958 87.731 20.2765 88.0795 20.7614C88.428 21.2424 88.6098 21.7955 88.6249 22.4205H86.9317ZM94.2458 31.1761C93.4011 31.1761 92.6738 30.9848 92.064 30.6023C91.4579 30.2159 90.992 29.6837 90.6663 29.0057C90.3405 28.3277 90.1776 27.5511 90.1776 26.6761C90.1776 25.7898 90.3443 25.0076 90.6776 24.3295C91.011 23.6477 91.4807 23.1155 92.0867 22.733C92.6928 22.3504 93.4068 22.1591 94.2288 22.1591C94.8916 22.1591 95.4826 22.2822 96.0015 22.5284C96.5204 22.7708 96.939 23.1117 97.2572 23.5511C97.5791 23.9905 97.7704 24.5038 97.831 25.0909H96.1776C96.0867 24.6818 95.8784 24.3295 95.5526 24.0341C95.2307 23.7386 94.7988 23.5909 94.2572 23.5909C93.7837 23.5909 93.3689 23.7159 93.0129 23.9659C92.6606 24.2121 92.386 24.5644 92.189 25.0227C91.992 25.4773 91.8935 26.0152 91.8935 26.6364C91.8935 27.2727 91.9901 27.822 92.1833 28.2841C92.3765 28.7462 92.6492 29.1042 93.0015 29.358C93.3576 29.6117 93.7761 29.7386 94.2572 29.7386C94.5791 29.7386 94.8708 29.6799 95.1322 29.5625C95.3973 29.4413 95.6189 29.2689 95.7969 29.0455C95.9788 28.822 96.1057 28.553 96.1776 28.2386H97.831C97.7704 28.803 97.5867 29.3068 97.2799 29.75C96.9731 30.1932 96.5621 30.5417 96.0469 30.7955C95.5356 31.0492 94.9352 31.1761 94.2458 31.1761ZM102.012 31.1932C101.459 31.1932 100.959 31.0909 100.512 30.8864C100.065 30.678 99.7104 30.3769 99.4491 29.983C99.1915 29.589 99.0627 29.1061 99.0627 28.5341C99.0627 28.0417 99.1574 27.6364 99.3468 27.3182C99.5362 27 99.7919 26.7481 100.114 26.5625C100.436 26.3769 100.796 26.2367 101.193 26.142C101.591 26.0473 101.996 25.9754 102.409 25.9261C102.932 25.8655 103.356 25.8163 103.682 25.7784C104.008 25.7367 104.245 25.6705 104.392 25.5795C104.54 25.4886 104.614 25.3409 104.614 25.1364V25.0966C104.614 24.6004 104.474 24.2159 104.193 23.9432C103.917 23.6705 103.504 23.5341 102.955 23.5341C102.383 23.5341 101.932 23.661 101.602 23.9148C101.277 24.1648 101.051 24.4432 100.926 24.75L99.3298 24.3864C99.5191 23.8561 99.7957 23.428 100.159 23.1023C100.527 22.7727 100.949 22.5341 101.426 22.3864C101.904 22.2348 102.406 22.1591 102.932 22.1591C103.281 22.1591 103.65 22.2008 104.04 22.2841C104.434 22.3636 104.801 22.5114 105.142 22.7273C105.487 22.9432 105.769 23.2519 105.989 23.6534C106.209 24.0511 106.318 24.5682 106.318 25.2045V31H104.659V29.8068H104.591C104.481 30.0265 104.316 30.2424 104.097 30.4545C103.877 30.6667 103.595 30.8428 103.25 30.983C102.906 31.1231 102.493 31.1932 102.012 31.1932ZM102.381 29.8295C102.851 29.8295 103.252 29.7367 103.585 29.5511C103.923 29.3655 104.178 29.1231 104.352 28.8239C104.531 28.5208 104.62 28.197 104.62 27.8523V26.7273C104.559 26.7879 104.441 26.8447 104.267 26.8977C104.097 26.947 103.902 26.9905 103.682 27.0284C103.462 27.0625 103.248 27.0947 103.04 27.125C102.832 27.1515 102.657 27.1742 102.517 27.1932C102.188 27.2348 101.887 27.3049 101.614 27.4034C101.345 27.5019 101.129 27.6439 100.966 27.8295C100.807 28.0114 100.727 28.2538 100.727 28.5568C100.727 28.9773 100.883 29.2955 101.193 29.5114C101.504 29.7235 101.9 29.8295 102.381 29.8295ZM110.104 25.8182V31H108.405V22.2727H110.036V23.6932H110.144C110.345 23.2311 110.659 22.8598 111.087 22.5795C111.519 22.2992 112.062 22.1591 112.718 22.1591C113.312 22.1591 113.833 22.2841 114.28 22.5341C114.727 22.7803 115.074 23.1477 115.32 23.6364C115.566 24.125 115.689 24.7292 115.689 25.4489V31H113.99V25.6534C113.99 25.0208 113.826 24.5265 113.496 24.1705C113.167 23.8106 112.714 23.6307 112.138 23.6307C111.744 23.6307 111.394 23.7159 111.087 23.8864C110.784 24.0568 110.543 24.3068 110.365 24.6364C110.191 24.9621 110.104 25.3561 110.104 25.8182ZM119.491 25.8182V31H117.792V22.2727H119.422V23.6932H119.53C119.731 23.2311 120.045 22.8598 120.473 22.5795C120.905 22.2992 121.449 22.1591 122.104 22.1591C122.699 22.1591 123.22 22.2841 123.667 22.5341C124.114 22.7803 124.46 23.1477 124.706 23.6364C124.953 24.125 125.076 24.7292 125.076 25.4489V31H123.377V25.6534C123.377 25.0208 123.212 24.5265 122.883 24.1705C122.553 23.8106 122.1 23.6307 121.525 23.6307C121.131 23.6307 120.78 23.7159 120.473 23.8864C120.17 24.0568 119.93 24.3068 119.752 24.6364C119.578 24.9621 119.491 25.3561 119.491 25.8182ZM130.94 31.1761C130.08 31.1761 129.339 30.9924 128.718 30.625C128.101 30.2538 127.623 29.733 127.286 29.0625C126.953 28.3883 126.786 27.5985 126.786 26.6932C126.786 25.7992 126.953 25.0114 127.286 24.3295C127.623 23.6477 128.093 23.1155 128.695 22.733C129.301 22.3504 130.01 22.1591 130.82 22.1591C131.313 22.1591 131.79 22.2405 132.252 22.4034C132.714 22.5663 133.129 22.822 133.496 23.1705C133.864 23.5189 134.154 23.9716 134.366 24.5284C134.578 25.0814 134.684 25.7538 134.684 26.5455V27.1477H127.746V25.875H133.019C133.019 25.428 132.928 25.0322 132.746 24.6875C132.565 24.339 132.309 24.0644 131.979 23.8636C131.654 23.6629 131.271 23.5625 130.832 23.5625C130.354 23.5625 129.938 23.6799 129.582 23.9148C129.229 24.1458 128.957 24.4489 128.763 24.8239C128.574 25.1951 128.479 25.5985 128.479 26.0341V27.0284C128.479 27.6117 128.582 28.108 128.786 28.517C128.994 28.9261 129.284 29.2386 129.655 29.4545C130.027 29.6667 130.46 29.7727 130.957 29.7727C131.279 29.7727 131.572 29.7273 131.837 29.6364C132.102 29.5417 132.332 29.4015 132.525 29.2159C132.718 29.0303 132.866 28.8011 132.968 28.5284L134.576 28.8182C134.447 29.2917 134.216 29.7064 133.883 30.0625C133.553 30.4148 133.138 30.6894 132.638 30.8864C132.142 31.0795 131.576 31.1761 130.94 31.1761ZM136.393 31V22.2727H138.035V23.6591H138.126C138.285 23.1894 138.565 22.8201 138.967 22.5511C139.372 22.2784 139.83 22.142 140.342 22.142C140.448 22.142 140.573 22.1458 140.717 22.1534C140.864 22.161 140.98 22.1705 141.063 22.1818V23.8068C140.995 23.7879 140.874 23.767 140.7 23.7443C140.525 23.7178 140.351 23.7045 140.177 23.7045C139.775 23.7045 139.417 23.7898 139.103 23.9602C138.792 24.1269 138.546 24.3598 138.364 24.6591C138.183 24.9545 138.092 25.2917 138.092 25.6705V31H136.393Z"
        fill="black" fill-opacity="0.8" />
    <rect x="267" width="176" height="50" rx="3" fill="#AFF4C6" />
    <path
        d="M294.807 31V19.3636H302.023V20.875H296.563V24.4205H301.506V25.9261H296.563V31H294.807ZM305.569 19.3636V31H303.87V19.3636H305.569ZM310.218 31.1932C309.665 31.1932 309.165 31.0909 308.718 30.8864C308.271 30.678 307.917 30.3769 307.656 29.983C307.398 29.589 307.269 29.1061 307.269 28.5341C307.269 28.0417 307.364 27.6364 307.553 27.3182C307.743 27 307.998 26.7481 308.32 26.5625C308.642 26.3769 309.002 26.2367 309.4 26.142C309.798 26.0473 310.203 25.9754 310.616 25.9261C311.139 25.8655 311.563 25.8163 311.889 25.7784C312.214 25.7367 312.451 25.6705 312.599 25.5795C312.746 25.4886 312.82 25.3409 312.82 25.1364V25.0966C312.82 24.6004 312.68 24.2159 312.4 23.9432C312.123 23.6705 311.71 23.5341 311.161 23.5341C310.589 23.5341 310.139 23.661 309.809 23.9148C309.483 24.1648 309.258 24.4432 309.133 24.75L307.536 24.3864C307.726 23.8561 308.002 23.428 308.366 23.1023C308.733 22.7727 309.156 22.5341 309.633 22.3864C310.11 22.2348 310.612 22.1591 311.139 22.1591C311.487 22.1591 311.856 22.2008 312.246 22.2841C312.64 22.3636 313.008 22.5114 313.349 22.7273C313.693 22.9432 313.976 23.2519 314.195 23.6534C314.415 24.0511 314.525 24.5682 314.525 25.2045V31H312.866V29.8068H312.798C312.688 30.0265 312.523 30.2424 312.303 30.4545C312.084 30.6667 311.801 30.8428 311.457 30.983C311.112 31.1231 310.699 31.1932 310.218 31.1932ZM310.587 29.8295C311.057 29.8295 311.459 29.7367 311.792 29.5511C312.129 29.3655 312.385 29.1231 312.559 28.8239C312.737 28.5208 312.826 28.197 312.826 27.8523V26.7273C312.765 26.7879 312.648 26.8447 312.474 26.8977C312.303 26.947 312.108 26.9905 311.889 27.0284C311.669 27.0625 311.455 27.0947 311.246 27.125C311.038 27.1515 310.864 27.1742 310.724 27.1932C310.394 27.2348 310.093 27.3049 309.82 27.4034C309.551 27.5019 309.335 27.6439 309.173 27.8295C309.014 28.0114 308.934 28.2538 308.934 28.5568C308.934 28.9773 309.089 29.2955 309.4 29.5114C309.71 29.7235 310.106 29.8295 310.587 29.8295ZM320.686 22.2727V23.6364H315.918V22.2727H320.686ZM317.197 20.1818H318.896V28.4375C318.896 28.767 318.945 29.0152 319.043 29.1818C319.142 29.3447 319.269 29.4564 319.424 29.517C319.583 29.5739 319.756 29.6023 319.941 29.6023C320.078 29.6023 320.197 29.5928 320.299 29.5739C320.401 29.5549 320.481 29.5398 320.538 29.5284L320.845 30.9318C320.746 30.9697 320.606 31.0076 320.424 31.0455C320.242 31.0871 320.015 31.1098 319.742 31.1136C319.295 31.1212 318.879 31.0417 318.492 30.875C318.106 30.7083 317.793 30.4508 317.555 30.1023C317.316 29.7538 317.197 29.3163 317.197 28.7898V20.1818ZM322.713 31V19.3636H324.412V23.6875H324.514C324.612 23.5057 324.754 23.2955 324.94 23.0568C325.126 22.8182 325.383 22.6098 325.713 22.4318C326.042 22.25 326.478 22.1591 327.019 22.1591C327.724 22.1591 328.353 22.3371 328.906 22.6932C329.459 23.0492 329.893 23.5625 330.207 24.233C330.525 24.9034 330.684 25.7102 330.684 26.6534C330.684 27.5966 330.527 28.4053 330.213 29.0795C329.898 29.75 329.466 30.267 328.917 30.6307C328.368 30.9905 327.741 31.1705 327.037 31.1705C326.506 31.1705 326.073 31.0814 325.735 30.9034C325.402 30.7254 325.141 30.517 324.951 30.2784C324.762 30.0398 324.616 29.8277 324.514 29.642H324.372V31H322.713ZM324.377 26.6364C324.377 27.25 324.466 27.7879 324.644 28.25C324.823 28.7121 325.08 29.0739 325.417 29.3352C325.754 29.5928 326.167 29.7216 326.656 29.7216C327.163 29.7216 327.588 29.5871 327.929 29.3182C328.269 29.0455 328.527 28.6761 328.701 28.2102C328.879 27.7443 328.968 27.2197 328.968 26.6364C328.968 26.0606 328.881 25.5436 328.707 25.0852C328.537 24.6269 328.279 24.2652 327.934 24C327.593 23.7348 327.167 23.6023 326.656 23.6023C326.163 23.6023 325.747 23.7292 325.406 23.983C325.069 24.2367 324.813 24.5909 324.639 25.0455C324.465 25.5 324.377 26.0303 324.377 26.6364ZM336.177 31.1761C335.317 31.1761 334.577 30.9924 333.956 30.625C333.338 30.2538 332.861 29.733 332.524 29.0625C332.191 28.3883 332.024 27.5985 332.024 26.6932C332.024 25.7992 332.191 25.0114 332.524 24.3295C332.861 23.6477 333.331 23.1155 333.933 22.733C334.539 22.3504 335.247 22.1591 336.058 22.1591C336.55 22.1591 337.028 22.2405 337.49 22.4034C337.952 22.5663 338.367 22.822 338.734 23.1705C339.102 23.5189 339.391 23.9716 339.603 24.5284C339.816 25.0814 339.922 25.7538 339.922 26.5455V27.1477H332.984V25.875H338.257C338.257 25.428 338.166 25.0322 337.984 24.6875C337.802 24.339 337.547 24.0644 337.217 23.8636C336.891 23.6629 336.509 23.5625 336.069 23.5625C335.592 23.5625 335.175 23.6799 334.819 23.9148C334.467 24.1458 334.194 24.4489 334.001 24.8239C333.812 25.1951 333.717 25.5985 333.717 26.0341V27.0284C333.717 27.6117 333.819 28.108 334.024 28.517C334.232 28.9261 334.522 29.2386 334.893 29.4545C335.264 29.6667 335.698 29.7727 336.194 29.7727C336.516 29.7727 336.81 29.7273 337.075 29.6364C337.34 29.5417 337.569 29.4015 337.763 29.2159C337.956 29.0303 338.103 28.8011 338.206 28.5284L339.814 28.8182C339.685 29.2917 339.454 29.7064 339.12 30.0625C338.791 30.4148 338.376 30.6894 337.876 30.8864C337.38 31.0795 336.814 31.1761 336.177 31.1761ZM344.898 31.1705C344.193 31.1705 343.564 30.9905 343.011 30.6307C342.462 30.267 342.03 29.75 341.716 29.0795C341.405 28.4053 341.25 27.5966 341.25 26.6534C341.25 25.7102 341.407 24.9034 341.721 24.233C342.04 23.5625 342.475 23.0492 343.028 22.6932C343.581 22.3371 344.208 22.1591 344.909 22.1591C345.451 22.1591 345.886 22.25 346.216 22.4318C346.549 22.6098 346.807 22.8182 346.988 23.0568C347.174 23.2955 347.318 23.5057 347.42 23.6875H347.523V19.3636H349.221V31H347.562V29.642H347.42C347.318 29.8277 347.17 30.0398 346.977 30.2784C346.788 30.517 346.526 30.7254 346.193 30.9034C345.86 31.0814 345.428 31.1705 344.898 31.1705ZM345.273 29.7216C345.761 29.7216 346.174 29.5928 346.511 29.3352C346.852 29.0739 347.11 28.7121 347.284 28.25C347.462 27.7879 347.551 27.25 347.551 26.6364C347.551 26.0303 347.464 25.5 347.29 25.0455C347.115 24.5909 346.86 24.2367 346.523 23.983C346.185 23.7292 345.769 23.6023 345.273 23.6023C344.761 23.6023 344.335 23.7348 343.994 24C343.653 24.2652 343.396 24.6269 343.221 25.0852C343.051 25.5436 342.966 26.0606 342.966 26.6364C342.966 27.2197 343.053 27.7443 343.227 28.2102C343.401 28.6761 343.659 29.0455 344 29.3182C344.345 29.5871 344.769 29.7216 345.273 29.7216ZM362.011 22.4205C361.951 21.8826 361.701 21.4659 361.261 21.1705C360.822 20.8712 360.269 20.7216 359.602 20.7216C359.125 20.7216 358.712 20.7973 358.364 20.9489C358.015 21.0966 357.744 21.3011 357.551 21.5625C357.362 21.8201 357.267 22.1136 357.267 22.4432C357.267 22.7197 357.332 22.9583 357.46 23.1591C357.593 23.3598 357.765 23.5284 357.977 23.6648C358.193 23.7973 358.424 23.9091 358.671 24C358.917 24.0871 359.154 24.1591 359.381 24.2159L360.517 24.5114C360.888 24.6023 361.269 24.7254 361.659 24.8807C362.049 25.036 362.411 25.2405 362.744 25.4943C363.078 25.7481 363.347 26.0625 363.551 26.4375C363.76 26.8125 363.864 27.2614 363.864 27.7841C363.864 28.4432 363.693 29.0284 363.352 29.5398C363.015 30.0511 362.525 30.4545 361.881 30.75C361.241 31.0455 360.466 31.1932 359.557 31.1932C358.686 31.1932 357.932 31.0549 357.296 30.7784C356.659 30.5019 356.161 30.1098 355.801 29.6023C355.441 29.0909 355.243 28.4848 355.205 27.7841H356.966C357 28.2045 357.136 28.5549 357.375 28.8352C357.618 29.1117 357.926 29.3182 358.301 29.4545C358.68 29.5871 359.095 29.6534 359.546 29.6534C360.042 29.6534 360.483 29.5758 360.869 29.4205C361.26 29.2614 361.566 29.0417 361.79 28.7614C362.013 28.4773 362.125 28.1458 362.125 27.767C362.125 27.4223 362.027 27.1402 361.83 26.9205C361.636 26.7008 361.373 26.5189 361.04 26.375C360.71 26.2311 360.337 26.1042 359.921 25.9943L358.546 25.6193C357.614 25.3655 356.875 24.9924 356.33 24.5C355.788 24.0076 355.517 23.3561 355.517 22.5455C355.517 21.875 355.699 21.2898 356.063 20.7898C356.426 20.2898 356.919 19.9015 357.54 19.625C358.161 19.3447 358.862 19.2045 359.642 19.2045C360.43 19.2045 361.125 19.3428 361.727 19.6193C362.333 19.8958 362.811 20.2765 363.159 20.7614C363.508 21.2424 363.69 21.7955 363.705 22.4205H362.011ZM369.326 31.1761C368.481 31.1761 367.754 30.9848 367.144 30.6023C366.538 30.2159 366.072 29.6837 365.746 29.0057C365.42 28.3277 365.257 27.5511 365.257 26.6761C365.257 25.7898 365.424 25.0076 365.757 24.3295C366.091 23.6477 366.56 23.1155 367.166 22.733C367.773 22.3504 368.487 22.1591 369.309 22.1591C369.971 22.1591 370.562 22.2822 371.081 22.5284C371.6 22.7708 372.019 23.1117 372.337 23.5511C372.659 23.9905 372.85 24.5038 372.911 25.0909H371.257C371.166 24.6818 370.958 24.3295 370.632 24.0341C370.31 23.7386 369.879 23.5909 369.337 23.5909C368.863 23.5909 368.449 23.7159 368.093 23.9659C367.74 24.2121 367.466 24.5644 367.269 25.0227C367.072 25.4773 366.973 26.0152 366.973 26.6364C366.973 27.2727 367.07 27.822 367.263 28.2841C367.456 28.7462 367.729 29.1042 368.081 29.358C368.437 29.6117 368.856 29.7386 369.337 29.7386C369.659 29.7386 369.951 29.6799 370.212 29.5625C370.477 29.4413 370.699 29.2689 370.877 29.0455C371.059 28.822 371.185 28.553 371.257 28.2386H372.911C372.85 28.803 372.666 29.3068 372.36 29.75C372.053 30.1932 371.642 30.5417 371.127 30.7955C370.615 31.0492 370.015 31.1761 369.326 31.1761ZM377.091 31.1932C376.538 31.1932 376.038 31.0909 375.591 30.8864C375.144 30.678 374.79 30.3769 374.529 29.983C374.271 29.589 374.142 29.1061 374.142 28.5341C374.142 28.0417 374.237 27.6364 374.427 27.3182C374.616 27 374.872 26.7481 375.194 26.5625C375.516 26.3769 375.875 26.2367 376.273 26.142C376.671 26.0473 377.076 25.9754 377.489 25.9261C378.012 25.8655 378.436 25.8163 378.762 25.7784C379.088 25.7367 379.324 25.6705 379.472 25.5795C379.62 25.4886 379.694 25.3409 379.694 25.1364V25.0966C379.694 24.6004 379.553 24.2159 379.273 23.9432C378.997 23.6705 378.584 23.5341 378.035 23.5341C377.463 23.5341 377.012 23.661 376.682 23.9148C376.356 24.1648 376.131 24.4432 376.006 24.75L374.41 24.3864C374.599 23.8561 374.875 23.428 375.239 23.1023C375.606 22.7727 376.029 22.5341 376.506 22.3864C376.983 22.2348 377.485 22.1591 378.012 22.1591C378.36 22.1591 378.73 22.2008 379.12 22.2841C379.514 22.3636 379.881 22.5114 380.222 22.7273C380.567 22.9432 380.849 23.2519 381.069 23.6534C381.288 24.0511 381.398 24.5682 381.398 25.2045V31H379.739V29.8068H379.671C379.561 30.0265 379.396 30.2424 379.177 30.4545C378.957 30.6667 378.675 30.8428 378.33 30.983C377.985 31.1231 377.572 31.1932 377.091 31.1932ZM377.461 29.8295C377.93 29.8295 378.332 29.7367 378.665 29.5511C379.002 29.3655 379.258 29.1231 379.432 28.8239C379.61 28.5208 379.699 28.197 379.699 27.8523V26.7273C379.639 26.7879 379.521 26.8447 379.347 26.8977C379.177 26.947 378.981 26.9905 378.762 27.0284C378.542 27.0625 378.328 27.0947 378.12 27.125C377.911 27.1515 377.737 27.1742 377.597 27.1932C377.267 27.2348 376.966 27.3049 376.694 27.4034C376.425 27.5019 376.209 27.6439 376.046 27.8295C375.887 28.0114 375.807 28.2538 375.807 28.5568C375.807 28.9773 375.963 29.2955 376.273 29.5114C376.584 29.7235 376.98 29.8295 377.461 29.8295ZM385.184 25.8182V31H383.485V22.2727H385.116V23.6932H385.224C385.424 23.2311 385.739 22.8598 386.167 22.5795C386.599 22.2992 387.142 22.1591 387.797 22.1591C388.392 22.1591 388.913 22.2841 389.36 22.5341C389.807 22.7803 390.153 23.1477 390.4 23.6364C390.646 24.125 390.769 24.7292 390.769 25.4489V31H389.07V25.6534C389.07 25.0208 388.905 24.5265 388.576 24.1705C388.246 23.8106 387.794 23.6307 387.218 23.6307C386.824 23.6307 386.474 23.7159 386.167 23.8864C385.864 24.0568 385.623 24.3068 385.445 24.6364C385.271 24.9621 385.184 25.3561 385.184 25.8182ZM394.57 25.8182V31H392.871V22.2727H394.502V23.6932H394.61C394.811 23.2311 395.125 22.8598 395.553 22.5795C395.985 22.2992 396.529 22.1591 397.184 22.1591C397.779 22.1591 398.299 22.2841 398.746 22.5341C399.193 22.7803 399.54 23.1477 399.786 23.6364C400.032 24.125 400.156 24.7292 400.156 25.4489V31H398.457V25.6534C398.457 25.0208 398.292 24.5265 397.962 24.1705C397.633 23.8106 397.18 23.6307 396.604 23.6307C396.21 23.6307 395.86 23.7159 395.553 23.8864C395.25 24.0568 395.01 24.3068 394.832 24.6364C394.657 24.9621 394.57 25.3561 394.57 25.8182ZM406.019 31.1761C405.159 31.1761 404.419 30.9924 403.798 30.625C403.18 30.2538 402.703 29.733 402.366 29.0625C402.033 28.3883 401.866 27.5985 401.866 26.6932C401.866 25.7992 402.033 25.0114 402.366 24.3295C402.703 23.6477 403.173 23.1155 403.775 22.733C404.381 22.3504 405.089 22.1591 405.9 22.1591C406.392 22.1591 406.87 22.2405 407.332 22.4034C407.794 22.5663 408.209 22.822 408.576 23.1705C408.944 23.5189 409.233 23.9716 409.445 24.5284C409.658 25.0814 409.764 25.7538 409.764 26.5455V27.1477H402.826V25.875H408.099C408.099 25.428 408.008 25.0322 407.826 24.6875C407.644 24.339 407.389 24.0644 407.059 23.8636C406.733 23.6629 406.351 23.5625 405.911 23.5625C405.434 23.5625 405.017 23.6799 404.661 23.9148C404.309 24.1458 404.036 24.4489 403.843 24.8239C403.654 25.1951 403.559 25.5985 403.559 26.0341V27.0284C403.559 27.6117 403.661 28.108 403.866 28.517C404.074 28.9261 404.364 29.2386 404.735 29.4545C405.106 29.6667 405.54 29.7727 406.036 29.7727C406.358 29.7727 406.652 29.7273 406.917 29.6364C407.182 29.5417 407.411 29.4015 407.605 29.2159C407.798 29.0303 407.945 28.8011 408.048 28.5284L409.656 28.8182C409.527 29.2917 409.296 29.7064 408.962 30.0625C408.633 30.4148 408.218 30.6894 407.718 30.8864C407.222 31.0795 406.656 31.1761 406.019 31.1761ZM411.473 31V22.2727H413.115V23.6591H413.206C413.365 23.1894 413.645 22.8201 414.046 22.5511C414.452 22.2784 414.91 22.142 415.421 22.142C415.527 22.142 415.652 22.1458 415.796 22.1534C415.944 22.161 416.06 22.1705 416.143 22.1818V23.8068C416.075 23.7879 415.954 23.767 415.779 23.7443C415.605 23.7178 415.431 23.7045 415.257 23.7045C414.855 23.7045 414.497 23.7898 414.183 23.9602C413.872 24.1269 413.626 24.3598 413.444 24.6591C413.262 24.9545 413.171 25.2917 413.171 25.6705V31H411.473Z"
        fill="black" fill-opacity="0.8" />
    <rect x="267" y="156" width="176" height="50" rx="3" fill="#AFF4C6" />
    <path
        d="M287.122 187V175.364H288.878V180.42H294.679V175.364H296.44V187H294.679V181.926H288.878V187H287.122ZM301.224 187.193C300.671 187.193 300.171 187.091 299.724 186.886C299.277 186.678 298.923 186.377 298.662 185.983C298.404 185.589 298.275 185.106 298.275 184.534C298.275 184.042 298.37 183.636 298.559 183.318C298.749 183 299.005 182.748 299.327 182.562C299.648 182.377 300.008 182.237 300.406 182.142C300.804 182.047 301.209 181.975 301.622 181.926C302.145 181.866 302.569 181.816 302.895 181.778C303.22 181.737 303.457 181.67 303.605 181.58C303.753 181.489 303.827 181.341 303.827 181.136V181.097C303.827 180.6 303.686 180.216 303.406 179.943C303.13 179.67 302.717 179.534 302.167 179.534C301.595 179.534 301.145 179.661 300.815 179.915C300.489 180.165 300.264 180.443 300.139 180.75L298.542 180.386C298.732 179.856 299.008 179.428 299.372 179.102C299.739 178.773 300.162 178.534 300.639 178.386C301.116 178.235 301.618 178.159 302.145 178.159C302.493 178.159 302.863 178.201 303.253 178.284C303.647 178.364 304.014 178.511 304.355 178.727C304.7 178.943 304.982 179.252 305.202 179.653C305.421 180.051 305.531 180.568 305.531 181.205V187H303.872V185.807H303.804C303.694 186.027 303.529 186.242 303.309 186.455C303.09 186.667 302.808 186.843 302.463 186.983C302.118 187.123 301.705 187.193 301.224 187.193ZM301.594 185.83C302.063 185.83 302.465 185.737 302.798 185.551C303.135 185.366 303.391 185.123 303.565 184.824C303.743 184.521 303.832 184.197 303.832 183.852V182.727C303.772 182.788 303.654 182.845 303.48 182.898C303.309 182.947 303.114 182.991 302.895 183.028C302.675 183.062 302.461 183.095 302.253 183.125C302.044 183.152 301.87 183.174 301.73 183.193C301.4 183.235 301.099 183.305 300.827 183.403C300.558 183.502 300.342 183.644 300.179 183.83C300.02 184.011 299.94 184.254 299.94 184.557C299.94 184.977 300.095 185.295 300.406 185.511C300.717 185.723 301.113 185.83 301.594 185.83ZM309.317 181.818V187H307.618V178.273H309.249V179.693H309.356C309.557 179.231 309.872 178.86 310.3 178.58C310.731 178.299 311.275 178.159 311.93 178.159C312.525 178.159 313.046 178.284 313.493 178.534C313.94 178.78 314.286 179.148 314.533 179.636C314.779 180.125 314.902 180.729 314.902 181.449V187H313.203V181.653C313.203 181.021 313.038 180.527 312.709 180.17C312.379 179.811 311.927 179.631 311.351 179.631C310.957 179.631 310.606 179.716 310.3 179.886C309.997 180.057 309.756 180.307 309.578 180.636C309.404 180.962 309.317 181.356 309.317 181.818ZM320.271 187.17C319.567 187.17 318.938 186.991 318.385 186.631C317.836 186.267 317.404 185.75 317.09 185.08C316.779 184.405 316.624 183.597 316.624 182.653C316.624 181.71 316.781 180.903 317.095 180.233C317.413 179.562 317.849 179.049 318.402 178.693C318.955 178.337 319.582 178.159 320.283 178.159C320.824 178.159 321.26 178.25 321.59 178.432C321.923 178.61 322.18 178.818 322.362 179.057C322.548 179.295 322.692 179.506 322.794 179.688H322.896V175.364H324.595V187H322.936V185.642H322.794C322.692 185.828 322.544 186.04 322.351 186.278C322.162 186.517 321.9 186.725 321.567 186.903C321.234 187.081 320.802 187.17 320.271 187.17ZM320.646 185.722C321.135 185.722 321.548 185.593 321.885 185.335C322.226 185.074 322.484 184.712 322.658 184.25C322.836 183.788 322.925 183.25 322.925 182.636C322.925 182.03 322.838 181.5 322.663 181.045C322.489 180.591 322.234 180.237 321.896 179.983C321.559 179.729 321.143 179.602 320.646 179.602C320.135 179.602 319.709 179.735 319.368 180C319.027 180.265 318.77 180.627 318.595 181.085C318.425 181.544 318.34 182.061 318.34 182.636C318.34 183.22 318.427 183.744 318.601 184.21C318.775 184.676 319.033 185.045 319.374 185.318C319.718 185.587 320.143 185.722 320.646 185.722ZM328.543 181.818V187H326.844V175.364H328.52V179.693H328.628C328.833 179.223 329.145 178.85 329.566 178.574C329.986 178.297 330.535 178.159 331.213 178.159C331.812 178.159 332.335 178.282 332.781 178.528C333.232 178.775 333.581 179.142 333.827 179.631C334.077 180.116 334.202 180.722 334.202 181.449V187H332.503V181.653C332.503 181.013 332.338 180.517 332.009 180.165C331.679 179.809 331.221 179.631 330.634 179.631C330.232 179.631 329.872 179.716 329.554 179.886C329.24 180.057 328.992 180.307 328.81 180.636C328.632 180.962 328.543 181.356 328.543 181.818ZM340.054 187.176C339.194 187.176 338.454 186.992 337.833 186.625C337.215 186.254 336.738 185.733 336.401 185.062C336.068 184.388 335.901 183.598 335.901 182.693C335.901 181.799 336.068 181.011 336.401 180.33C336.738 179.648 337.208 179.116 337.81 178.733C338.416 178.35 339.124 178.159 339.935 178.159C340.427 178.159 340.905 178.241 341.367 178.403C341.829 178.566 342.244 178.822 342.611 179.17C342.979 179.519 343.268 179.972 343.48 180.528C343.693 181.081 343.799 181.754 343.799 182.545V183.148H336.861V181.875H342.134C342.134 181.428 342.043 181.032 341.861 180.688C341.679 180.339 341.424 180.064 341.094 179.864C340.768 179.663 340.386 179.562 339.946 179.562C339.469 179.562 339.052 179.68 338.696 179.915C338.344 180.146 338.071 180.449 337.878 180.824C337.689 181.195 337.594 181.598 337.594 182.034V183.028C337.594 183.612 337.696 184.108 337.901 184.517C338.109 184.926 338.399 185.239 338.77 185.455C339.141 185.667 339.575 185.773 340.071 185.773C340.393 185.773 340.687 185.727 340.952 185.636C341.217 185.542 341.446 185.402 341.64 185.216C341.833 185.03 341.98 184.801 342.083 184.528L343.691 184.818C343.562 185.292 343.331 185.706 342.998 186.062C342.668 186.415 342.253 186.689 341.753 186.886C341.257 187.08 340.691 187.176 340.054 187.176ZM347.206 175.364V187H345.508V175.364H347.206ZM352.583 187.17C351.878 187.17 351.25 186.991 350.697 186.631C350.147 186.267 349.716 185.75 349.401 185.08C349.091 184.405 348.935 183.597 348.935 182.653C348.935 181.71 349.092 180.903 349.407 180.233C349.725 179.562 350.161 179.049 350.714 178.693C351.267 178.337 351.894 178.159 352.594 178.159C353.136 178.159 353.572 178.25 353.901 178.432C354.235 178.61 354.492 178.818 354.674 179.057C354.86 179.295 355.003 179.506 355.106 179.688H355.208V175.364H356.907V187H355.248V185.642H355.106C355.003 185.828 354.856 186.04 354.663 186.278C354.473 186.517 354.212 186.725 353.878 186.903C353.545 187.081 353.113 187.17 352.583 187.17ZM352.958 185.722C353.447 185.722 353.86 185.593 354.197 185.335C354.538 185.074 354.795 184.712 354.969 184.25C355.147 183.788 355.236 183.25 355.236 182.636C355.236 182.03 355.149 181.5 354.975 181.045C354.801 180.591 354.545 180.237 354.208 179.983C353.871 179.729 353.454 179.602 352.958 179.602C352.447 179.602 352.021 179.735 351.68 180C351.339 180.265 351.081 180.627 350.907 181.085C350.736 181.544 350.651 182.061 350.651 182.636C350.651 183.22 350.738 183.744 350.913 184.21C351.087 184.676 351.344 185.045 351.685 185.318C352.03 185.587 352.454 185.722 352.958 185.722ZM369.697 178.42C369.636 177.883 369.386 177.466 368.947 177.17C368.508 176.871 367.955 176.722 367.288 176.722C366.811 176.722 366.398 176.797 366.049 176.949C365.701 177.097 365.43 177.301 365.237 177.562C365.047 177.82 364.953 178.114 364.953 178.443C364.953 178.72 365.017 178.958 365.146 179.159C365.278 179.36 365.451 179.528 365.663 179.665C365.879 179.797 366.11 179.909 366.356 180C366.602 180.087 366.839 180.159 367.066 180.216L368.203 180.511C368.574 180.602 368.955 180.725 369.345 180.881C369.735 181.036 370.097 181.241 370.43 181.494C370.763 181.748 371.032 182.062 371.237 182.438C371.445 182.812 371.549 183.261 371.549 183.784C371.549 184.443 371.379 185.028 371.038 185.54C370.701 186.051 370.21 186.455 369.566 186.75C368.926 187.045 368.151 187.193 367.242 187.193C366.371 187.193 365.617 187.055 364.981 186.778C364.345 186.502 363.847 186.11 363.487 185.602C363.127 185.091 362.928 184.485 362.89 183.784H364.651C364.686 184.205 364.822 184.555 365.061 184.835C365.303 185.112 365.612 185.318 365.987 185.455C366.365 185.587 366.78 185.653 367.231 185.653C367.727 185.653 368.169 185.576 368.555 185.42C368.945 185.261 369.252 185.042 369.475 184.761C369.699 184.477 369.811 184.146 369.811 183.767C369.811 183.422 369.712 183.14 369.515 182.92C369.322 182.701 369.059 182.519 368.725 182.375C368.396 182.231 368.023 182.104 367.606 181.994L366.231 181.619C365.299 181.366 364.561 180.992 364.015 180.5C363.473 180.008 363.203 179.356 363.203 178.545C363.203 177.875 363.384 177.29 363.748 176.79C364.112 176.29 364.604 175.902 365.225 175.625C365.847 175.345 366.547 175.205 367.328 175.205C368.115 175.205 368.811 175.343 369.413 175.619C370.019 175.896 370.496 176.277 370.845 176.761C371.193 177.242 371.375 177.795 371.39 178.42H369.697ZM377.011 187.176C376.166 187.176 375.439 186.985 374.829 186.602C374.223 186.216 373.757 185.684 373.431 185.006C373.106 184.328 372.943 183.551 372.943 182.676C372.943 181.79 373.109 181.008 373.443 180.33C373.776 179.648 374.246 179.116 374.852 178.733C375.458 178.35 376.172 178.159 376.994 178.159C377.657 178.159 378.248 178.282 378.767 178.528C379.286 178.771 379.704 179.112 380.022 179.551C380.344 179.991 380.536 180.504 380.596 181.091H378.943C378.852 180.682 378.644 180.33 378.318 180.034C377.996 179.739 377.564 179.591 377.022 179.591C376.549 179.591 376.134 179.716 375.778 179.966C375.426 180.212 375.151 180.564 374.954 181.023C374.757 181.477 374.659 182.015 374.659 182.636C374.659 183.273 374.755 183.822 374.948 184.284C375.142 184.746 375.414 185.104 375.767 185.358C376.123 185.612 376.541 185.739 377.022 185.739C377.344 185.739 377.636 185.68 377.897 185.562C378.163 185.441 378.384 185.269 378.562 185.045C378.744 184.822 378.871 184.553 378.943 184.239H380.596C380.536 184.803 380.352 185.307 380.045 185.75C379.738 186.193 379.327 186.542 378.812 186.795C378.301 187.049 377.7 187.176 377.011 187.176ZM384.777 187.193C384.224 187.193 383.724 187.091 383.277 186.886C382.83 186.678 382.476 186.377 382.214 185.983C381.957 185.589 381.828 185.106 381.828 184.534C381.828 184.042 381.923 183.636 382.112 183.318C382.301 183 382.557 182.748 382.879 182.562C383.201 182.377 383.561 182.237 383.959 182.142C384.356 182.047 384.762 181.975 385.174 181.926C385.697 181.866 386.121 181.816 386.447 181.778C386.773 181.737 387.01 181.67 387.157 181.58C387.305 181.489 387.379 181.341 387.379 181.136V181.097C387.379 180.6 387.239 180.216 386.959 179.943C386.682 179.67 386.269 179.534 385.72 179.534C385.148 179.534 384.697 179.661 384.368 179.915C384.042 180.165 383.817 180.443 383.692 180.75L382.095 180.386C382.284 179.856 382.561 179.428 382.924 179.102C383.292 178.773 383.714 178.534 384.192 178.386C384.669 178.235 385.171 178.159 385.697 178.159C386.046 178.159 386.415 178.201 386.805 178.284C387.199 178.364 387.567 178.511 387.907 178.727C388.252 178.943 388.534 179.252 388.754 179.653C388.974 180.051 389.084 180.568 389.084 181.205V187H387.424V185.807H387.356C387.246 186.027 387.082 186.242 386.862 186.455C386.642 186.667 386.36 186.843 386.015 186.983C385.671 187.123 385.258 187.193 384.777 187.193ZM385.146 185.83C385.616 185.83 386.017 185.737 386.351 185.551C386.688 185.366 386.943 185.123 387.118 184.824C387.296 184.521 387.385 184.197 387.385 183.852V182.727C387.324 182.788 387.207 182.845 387.032 182.898C386.862 182.947 386.667 182.991 386.447 183.028C386.228 183.062 386.014 183.095 385.805 183.125C385.597 183.152 385.423 183.174 385.282 183.193C384.953 183.235 384.652 183.305 384.379 183.403C384.11 183.502 383.894 183.644 383.731 183.83C383.572 184.011 383.493 184.254 383.493 184.557C383.493 184.977 383.648 185.295 383.959 185.511C384.269 185.723 384.665 185.83 385.146 185.83ZM392.869 181.818V187H391.17V178.273H392.801V179.693H392.909C393.11 179.231 393.424 178.86 393.852 178.58C394.284 178.299 394.828 178.159 395.483 178.159C396.078 178.159 396.598 178.284 397.045 178.534C397.492 178.78 397.839 179.148 398.085 179.636C398.331 180.125 398.454 180.729 398.454 181.449V187H396.756V181.653C396.756 181.021 396.591 180.527 396.261 180.17C395.932 179.811 395.479 179.631 394.903 179.631C394.509 179.631 394.159 179.716 393.852 179.886C393.549 180.057 393.309 180.307 393.131 180.636C392.956 180.962 392.869 181.356 392.869 181.818ZM402.256 181.818V187H400.557V178.273H402.188V179.693H402.295C402.496 179.231 402.811 178.86 403.239 178.58C403.67 178.299 404.214 178.159 404.869 178.159C405.464 178.159 405.985 178.284 406.432 178.534C406.879 178.78 407.225 179.148 407.472 179.636C407.718 180.125 407.841 180.729 407.841 181.449V187H406.142V181.653C406.142 181.021 405.977 180.527 405.648 180.17C405.318 179.811 404.866 179.631 404.29 179.631C403.896 179.631 403.545 179.716 403.239 179.886C402.936 180.057 402.695 180.307 402.517 180.636C402.343 180.962 402.256 181.356 402.256 181.818ZM413.705 187.176C412.845 187.176 412.104 186.992 411.483 186.625C410.866 186.254 410.388 185.733 410.051 185.062C409.718 184.388 409.551 183.598 409.551 182.693C409.551 181.799 409.718 181.011 410.051 180.33C410.388 179.648 410.858 179.116 411.46 178.733C412.066 178.35 412.775 178.159 413.585 178.159C414.078 178.159 414.555 178.241 415.017 178.403C415.479 178.566 415.894 178.822 416.262 179.17C416.629 179.519 416.919 179.972 417.131 180.528C417.343 181.081 417.449 181.754 417.449 182.545V183.148H410.512V181.875H415.784C415.784 181.428 415.693 181.032 415.512 180.688C415.33 180.339 415.074 180.064 414.744 179.864C414.419 179.663 414.036 179.562 413.597 179.562C413.119 179.562 412.703 179.68 412.347 179.915C411.994 180.146 411.722 180.449 411.529 180.824C411.339 181.195 411.244 181.598 411.244 182.034V183.028C411.244 183.612 411.347 184.108 411.551 184.517C411.76 184.926 412.049 185.239 412.421 185.455C412.792 185.667 413.226 185.773 413.722 185.773C414.044 185.773 414.337 185.727 414.602 185.636C414.868 185.542 415.097 185.402 415.29 185.216C415.483 185.03 415.631 184.801 415.733 184.528L417.341 184.818C417.212 185.292 416.981 185.706 416.648 186.062C416.318 186.415 415.904 186.689 415.404 186.886C414.907 187.08 414.341 187.176 413.705 187.176ZM419.158 187V178.273H420.8V179.659H420.891C421.05 179.189 421.33 178.82 421.732 178.551C422.137 178.278 422.595 178.142 423.107 178.142C423.213 178.142 423.338 178.146 423.482 178.153C423.63 178.161 423.745 178.17 423.828 178.182V179.807C423.76 179.788 423.639 179.767 423.465 179.744C423.291 179.718 423.116 179.705 422.942 179.705C422.541 179.705 422.183 179.79 421.868 179.96C421.558 180.127 421.311 180.36 421.13 180.659C420.948 180.955 420.857 181.292 420.857 181.67V187H419.158Z"
        fill="black" fill-opacity="0.8" />
    <rect y="156" width="176" height="50" rx="3" fill="#AFF4C6" />
    <path
        d="M28.445 178.42C28.3844 177.883 28.1344 177.466 27.695 177.17C27.2556 176.871 26.7026 176.722 26.0359 176.722C25.5586 176.722 25.1458 176.797 24.7973 176.949C24.4488 177.097 24.178 177.301 23.9848 177.562C23.7954 177.82 23.7007 178.114 23.7007 178.443C23.7007 178.72 23.7651 178.958 23.8939 179.159C24.0264 179.36 24.1988 179.528 24.4109 179.665C24.6268 179.797 24.8579 179.909 25.1041 180C25.3503 180.087 25.587 180.159 25.8143 180.216L26.9507 180.511C27.3219 180.602 27.7026 180.725 28.0927 180.881C28.4829 181.036 28.8446 181.241 29.178 181.494C29.5113 181.748 29.7802 182.062 29.9848 182.438C30.1931 182.812 30.2973 183.261 30.2973 183.784C30.2973 184.443 30.1268 185.028 29.7859 185.54C29.4488 186.051 28.9583 186.455 28.3143 186.75C27.6742 187.045 26.8995 187.193 25.9905 187.193C25.1192 187.193 24.3655 187.055 23.7291 186.778C23.0927 186.502 22.5946 186.11 22.2348 185.602C21.8749 185.091 21.6761 184.485 21.6382 183.784H23.3995C23.4336 184.205 23.57 184.555 23.8086 184.835C24.0511 185.112 24.3598 185.318 24.7348 185.455C25.1136 185.587 25.5283 185.653 25.9791 185.653C26.4753 185.653 26.9166 185.576 27.303 185.42C27.6931 185.261 27.9999 185.042 28.2234 184.761C28.4469 184.477 28.5586 184.146 28.5586 183.767C28.5586 183.422 28.4602 183.14 28.2632 182.92C28.07 182.701 27.8067 182.519 27.4734 182.375C27.1439 182.231 26.7708 182.104 26.3541 181.994L24.9791 181.619C24.0473 181.366 23.3086 180.992 22.7632 180.5C22.2215 180.008 21.9507 179.356 21.9507 178.545C21.9507 177.875 22.1325 177.29 22.4961 176.79C22.8598 176.29 23.3522 175.902 23.9734 175.625C24.5946 175.345 25.2954 175.205 26.0757 175.205C26.8636 175.205 27.5586 175.343 28.1609 175.619C28.767 175.896 29.2442 176.277 29.5927 176.761C29.9412 177.242 30.123 177.795 30.1382 178.42H28.445ZM33.7818 181.818V187H32.0829V175.364H33.7591V179.693H33.867C34.0716 179.223 34.3841 178.85 34.8045 178.574C35.225 178.297 35.7742 178.159 36.4522 178.159C37.0507 178.159 37.5735 178.282 38.0204 178.528C38.4712 178.775 38.8197 179.142 39.0659 179.631C39.3159 180.116 39.4409 180.722 39.4409 181.449V187H37.742V181.653C37.742 181.013 37.5772 180.517 37.2477 180.165C36.9181 179.809 36.4598 179.631 35.8727 179.631C35.4712 179.631 35.1113 179.716 34.7931 179.886C34.4788 180.057 34.2306 180.307 34.0488 180.636C33.8708 180.962 33.7818 181.356 33.7818 181.818ZM45.2933 187.176C44.4334 187.176 43.6929 186.992 43.0717 186.625C42.4543 186.254 41.977 185.733 41.6399 185.062C41.3065 184.388 41.1399 183.598 41.1399 182.693C41.1399 181.799 41.3065 181.011 41.6399 180.33C41.977 179.648 42.4467 179.116 43.049 178.733C43.655 178.35 44.3634 178.159 45.174 178.159C45.6664 178.159 46.1437 178.241 46.6058 178.403C47.0679 178.566 47.4827 178.822 47.8501 179.17C48.2175 179.519 48.5073 179.972 48.7194 180.528C48.9315 181.081 49.0376 181.754 49.0376 182.545V183.148H42.1001V181.875H47.3728C47.3728 181.428 47.2819 181.032 47.1001 180.688C46.9183 180.339 46.6626 180.064 46.3331 179.864C46.0073 179.663 45.6247 179.562 45.1853 179.562C44.7081 179.562 44.2914 179.68 43.9353 179.915C43.5831 180.146 43.3103 180.449 43.1171 180.824C42.9278 181.195 42.8331 181.598 42.8331 182.034V183.028C42.8331 183.612 42.9353 184.108 43.1399 184.517C43.3482 184.926 43.638 185.239 44.0092 185.455C44.3804 185.667 44.8141 185.773 45.3103 185.773C45.6323 185.773 45.9259 185.727 46.191 185.636C46.4562 185.542 46.6853 185.402 46.8785 185.216C47.0717 185.03 47.2194 184.801 47.3217 184.528L48.9296 184.818C48.8009 185.292 48.5698 185.706 48.2365 186.062C47.9069 186.415 47.4921 186.689 46.9921 186.886C46.4959 187.08 45.9296 187.176 45.2933 187.176ZM54.5079 187.176C53.6481 187.176 52.9075 186.992 52.2863 186.625C51.6689 186.254 51.1916 185.733 50.8545 185.062C50.5212 184.388 50.3545 183.598 50.3545 182.693C50.3545 181.799 50.5212 181.011 50.8545 180.33C51.1916 179.648 51.6613 179.116 52.2636 178.733C52.8697 178.35 53.578 178.159 54.3886 178.159C54.881 178.159 55.3583 178.241 55.8204 178.403C56.2825 178.566 56.6973 178.822 57.0647 179.17C57.4322 179.519 57.7219 179.972 57.934 180.528C58.1462 181.081 58.2522 181.754 58.2522 182.545V183.148H51.3147V181.875H56.5875C56.5875 181.428 56.4965 181.032 56.3147 180.688C56.1329 180.339 55.8772 180.064 55.5477 179.864C55.2219 179.663 54.8393 179.562 54.4 179.562C53.9227 179.562 53.506 179.68 53.15 179.915C52.7977 180.146 52.525 180.449 52.3318 180.824C52.1424 181.195 52.0477 181.598 52.0477 182.034V183.028C52.0477 183.612 52.15 184.108 52.3545 184.517C52.5628 184.926 52.8526 185.239 53.2238 185.455C53.595 185.667 54.0287 185.773 54.525 185.773C54.8469 185.773 55.1405 185.727 55.4056 185.636C55.6708 185.542 55.9 185.402 56.0931 185.216C56.2863 185.03 56.434 184.801 56.5363 184.528L58.1443 184.818C58.0155 185.292 57.7844 185.706 57.4511 186.062C57.1215 186.415 56.7068 186.689 56.2068 186.886C55.7106 187.08 55.1443 187.176 54.5079 187.176ZM64.035 178.273V179.636H59.268V178.273H64.035ZM60.5464 176.182H62.2453V184.438C62.2453 184.767 62.2945 185.015 62.393 185.182C62.4915 185.345 62.6184 185.456 62.7737 185.517C62.9328 185.574 63.1051 185.602 63.2907 185.602C63.4271 185.602 63.5464 185.593 63.6487 185.574C63.7509 185.555 63.8305 185.54 63.8873 185.528L64.1941 186.932C64.0956 186.97 63.9555 187.008 63.7737 187.045C63.5919 187.087 63.3646 187.11 63.0919 187.114C62.6449 187.121 62.2282 187.042 61.8419 186.875C61.4555 186.708 61.143 186.451 60.9044 186.102C60.6657 185.754 60.5464 185.316 60.5464 184.79V176.182ZM69.8917 178.273V179.636H64.9599V178.273H69.8917ZM66.3122 187V177.261C66.3122 176.716 66.4315 176.263 66.6701 175.903C66.9087 175.54 67.225 175.269 67.619 175.091C68.0129 174.909 68.4409 174.818 68.9031 174.818C69.244 174.818 69.5356 174.847 69.7781 174.903C70.0205 174.956 70.2004 175.006 70.3178 175.051L69.9201 176.426C69.8406 176.403 69.7383 176.377 69.6133 176.347C69.4883 176.312 69.3368 176.295 69.1587 176.295C68.7459 176.295 68.4504 176.398 68.2724 176.602C68.0981 176.807 68.011 177.102 68.011 177.489V187H66.3122ZM74.8862 187.176C74.0263 187.176 73.2858 186.992 72.6646 186.625C72.0471 186.254 71.5699 185.733 71.2327 185.062C70.8994 184.388 70.7327 183.598 70.7327 182.693C70.7327 181.799 70.8994 181.011 71.2327 180.33C71.5699 179.648 72.0396 179.116 72.6418 178.733C73.2479 178.35 73.9562 178.159 74.7668 178.159C75.2593 178.159 75.7365 178.241 76.1987 178.403C76.6608 178.566 77.0756 178.822 77.443 179.17C77.8104 179.519 78.1002 179.972 78.3123 180.528C78.5244 181.081 78.6305 181.754 78.6305 182.545V183.148H71.693V181.875H76.9657C76.9657 181.428 76.8748 181.032 76.693 180.688C76.5112 180.339 76.2555 180.064 75.9259 179.864C75.6002 179.663 75.2176 179.562 74.7782 179.562C74.3009 179.562 73.8843 179.68 73.5282 179.915C73.1759 180.146 72.9032 180.449 72.71 180.824C72.5206 181.195 72.4259 181.598 72.4259 182.034V183.028C72.4259 183.612 72.5282 184.108 72.7327 184.517C72.9411 184.926 73.2309 185.239 73.6021 185.455C73.9733 185.667 74.407 185.773 74.9032 185.773C75.2252 185.773 75.5187 185.727 75.7839 185.636C76.049 185.542 76.2782 185.402 76.4714 185.216C76.6646 185.03 76.8123 184.801 76.9146 184.528L78.5225 184.818C78.3937 185.292 78.1627 185.706 77.8293 186.062C77.4998 186.415 77.085 186.689 76.585 186.886C76.0888 187.08 75.5225 187.176 74.8862 187.176ZM83.6065 187.17C82.9019 187.17 82.2731 186.991 81.7201 186.631C81.1709 186.267 80.739 185.75 80.4246 185.08C80.114 184.405 79.9587 183.597 79.9587 182.653C79.9587 181.71 80.1159 180.903 80.4303 180.233C80.7485 179.562 81.1841 179.049 81.7371 178.693C82.2902 178.337 82.9171 178.159 83.6178 178.159C84.1595 178.159 84.5951 178.25 84.9246 178.432C85.258 178.61 85.5156 178.818 85.6974 179.057C85.883 179.295 86.0269 179.506 86.1292 179.688H86.2315V175.364H87.9303V187H86.2712V185.642H86.1292C86.0269 185.828 85.8792 186.04 85.686 186.278C85.4966 186.517 85.2353 186.725 84.9019 186.903C84.5686 187.081 84.1368 187.17 83.6065 187.17ZM83.9815 185.722C84.4701 185.722 84.883 185.593 85.2201 185.335C85.561 185.074 85.8186 184.712 85.9928 184.25C86.1709 183.788 86.2599 183.25 86.2599 182.636C86.2599 182.03 86.1728 181.5 85.9985 181.045C85.8243 180.591 85.5686 180.237 85.2315 179.983C84.8943 179.729 84.4777 179.602 83.9815 179.602C83.4701 179.602 83.044 179.735 82.7031 180C82.3621 180.265 82.1046 180.627 81.9303 181.085C81.7599 181.544 81.6746 182.061 81.6746 182.636C81.6746 183.22 81.7618 183.744 81.936 184.21C82.1103 184.676 82.3678 185.045 82.7087 185.318C83.0534 185.587 83.4777 185.722 83.9815 185.722ZM100.72 178.42C100.66 177.883 100.41 177.466 99.9704 177.17C99.531 176.871 98.978 176.722 98.3113 176.722C97.834 176.722 97.4211 176.797 97.0726 176.949C96.7242 177.097 96.4533 177.301 96.2601 177.562C96.0708 177.82 95.9761 178.114 95.9761 178.443C95.9761 178.72 96.0405 178.958 96.1692 179.159C96.3018 179.36 96.4742 179.528 96.6863 179.665C96.9022 179.797 97.1333 179.909 97.3795 180C97.6257 180.087 97.8624 180.159 98.0897 180.216L99.2261 180.511C99.5973 180.602 99.978 180.725 100.368 180.881C100.758 181.036 101.12 181.241 101.453 181.494C101.787 181.748 102.056 182.062 102.26 182.438C102.468 182.812 102.573 183.261 102.573 183.784C102.573 184.443 102.402 185.028 102.061 185.54C101.724 186.051 101.234 186.455 100.59 186.75C99.9495 187.045 99.1749 187.193 98.2658 187.193C97.3946 187.193 96.6408 187.055 96.0045 186.778C95.3681 186.502 94.87 186.11 94.5101 185.602C94.1503 185.091 93.9514 184.485 93.9136 183.784H95.6749C95.709 184.205 95.8454 184.555 96.084 184.835C96.3264 185.112 96.6351 185.318 97.0101 185.455C97.3889 185.587 97.8037 185.653 98.2545 185.653C98.7507 185.653 99.192 185.576 99.5783 185.42C99.9685 185.261 100.275 185.042 100.499 184.761C100.722 184.477 100.834 184.146 100.834 183.767C100.834 183.422 100.736 183.14 100.539 182.92C100.345 182.701 100.082 182.519 99.7488 182.375C99.4192 182.231 99.0461 182.104 98.6295 181.994L97.2545 181.619C96.3226 181.366 95.584 180.992 95.0386 180.5C94.4969 180.008 94.2261 179.356 94.2261 178.545C94.2261 177.875 94.4079 177.29 94.7715 176.79C95.1351 176.29 95.6276 175.902 96.2488 175.625C96.87 175.345 97.5708 175.205 98.3511 175.205C99.1389 175.205 99.834 175.343 100.436 175.619C101.042 175.896 101.52 176.277 101.868 176.761C102.217 177.242 102.398 177.795 102.414 178.42H100.72ZM108.034 187.176C107.19 187.176 106.462 186.985 105.853 186.602C105.247 186.216 104.781 185.684 104.455 185.006C104.129 184.328 103.966 183.551 103.966 182.676C103.966 181.79 104.133 181.008 104.466 180.33C104.8 179.648 105.269 179.116 105.875 178.733C106.481 178.35 107.195 178.159 108.017 178.159C108.68 178.159 109.271 178.282 109.79 178.528C110.309 178.771 110.728 179.112 111.046 179.551C111.368 179.991 111.559 180.504 111.62 181.091H109.966C109.875 180.682 109.667 180.33 109.341 180.034C109.019 179.739 108.587 179.591 108.046 179.591C107.572 179.591 107.158 179.716 106.801 179.966C106.449 180.212 106.175 180.564 105.978 181.023C105.781 181.477 105.682 182.015 105.682 182.636C105.682 183.273 105.779 183.822 105.972 184.284C106.165 184.746 106.438 185.104 106.79 185.358C107.146 185.612 107.565 185.739 108.046 185.739C108.368 185.739 108.659 185.68 108.921 185.562C109.186 185.441 109.408 185.269 109.586 185.045C109.767 184.822 109.894 184.553 109.966 184.239H111.62C111.559 184.803 111.375 185.307 111.069 185.75C110.762 186.193 110.351 186.542 109.836 186.795C109.324 187.049 108.724 187.176 108.034 187.176ZM115.8 187.193C115.247 187.193 114.747 187.091 114.3 186.886C113.853 186.678 113.499 186.377 113.238 185.983C112.98 185.589 112.851 185.106 112.851 184.534C112.851 184.042 112.946 183.636 113.135 183.318C113.325 183 113.58 182.748 113.902 182.562C114.224 182.377 114.584 182.237 114.982 182.142C115.38 182.047 115.785 181.975 116.198 181.926C116.721 181.866 117.145 181.816 117.471 181.778C117.796 181.737 118.033 181.67 118.181 181.58C118.329 181.489 118.402 181.341 118.402 181.136V181.097C118.402 180.6 118.262 180.216 117.982 179.943C117.705 179.67 117.293 179.534 116.743 179.534C116.171 179.534 115.721 179.661 115.391 179.915C115.065 180.165 114.84 180.443 114.715 180.75L113.118 180.386C113.308 179.856 113.584 179.428 113.948 179.102C114.315 178.773 114.738 178.534 115.215 178.386C115.692 178.235 116.194 178.159 116.721 178.159C117.069 178.159 117.438 178.201 117.829 178.284C118.223 178.364 118.59 178.511 118.931 178.727C119.276 178.943 119.558 179.252 119.777 179.653C119.997 180.051 120.107 180.568 120.107 181.205V187H118.448V185.807H118.38C118.27 186.027 118.105 186.242 117.885 186.455C117.666 186.667 117.384 186.843 117.039 186.983C116.694 187.123 116.281 187.193 115.8 187.193ZM116.17 185.83C116.639 185.83 117.041 185.737 117.374 185.551C117.711 185.366 117.967 185.123 118.141 184.824C118.319 184.521 118.408 184.197 118.408 183.852V182.727C118.348 182.788 118.23 182.845 118.056 182.898C117.885 182.947 117.69 182.991 117.471 183.028C117.251 183.062 117.037 183.095 116.829 183.125C116.62 183.152 116.446 183.174 116.306 183.193C115.976 183.235 115.675 183.305 115.402 183.403C115.134 183.502 114.918 183.644 114.755 183.83C114.596 184.011 114.516 184.254 114.516 184.557C114.516 184.977 114.671 185.295 114.982 185.511C115.293 185.723 115.688 185.83 116.17 185.83ZM123.893 181.818V187H122.194V178.273H123.824V179.693H123.932C124.133 179.231 124.448 178.86 124.876 178.58C125.307 178.299 125.851 178.159 126.506 178.159C127.101 178.159 127.622 178.284 128.069 178.534C128.516 178.78 128.862 179.148 129.109 179.636C129.355 180.125 129.478 180.729 129.478 181.449V187H127.779V181.653C127.779 181.021 127.614 180.527 127.285 180.17C126.955 179.811 126.503 179.631 125.927 179.631C125.533 179.631 125.182 179.716 124.876 179.886C124.573 180.057 124.332 180.307 124.154 180.636C123.98 180.962 123.893 181.356 123.893 181.818ZM133.279 181.818V187H131.58V178.273H133.211V179.693H133.319C133.52 179.231 133.834 178.86 134.262 178.58C134.694 178.299 135.237 178.159 135.893 178.159C136.487 178.159 137.008 178.284 137.455 178.534C137.902 178.78 138.249 179.148 138.495 179.636C138.741 180.125 138.864 180.729 138.864 181.449V187H137.166V181.653C137.166 181.021 137.001 180.527 136.671 180.17C136.342 179.811 135.889 179.631 135.313 179.631C134.919 179.631 134.569 179.716 134.262 179.886C133.959 180.057 133.719 180.307 133.541 180.636C133.366 180.962 133.279 181.356 133.279 181.818ZM144.728 187.176C143.868 187.176 143.128 186.992 142.507 186.625C141.889 186.254 141.412 185.733 141.075 185.062C140.741 184.388 140.575 183.598 140.575 182.693C140.575 181.799 140.741 181.011 141.075 180.33C141.412 179.648 141.882 179.116 142.484 178.733C143.09 178.35 143.798 178.159 144.609 178.159C145.101 178.159 145.579 178.241 146.041 178.403C146.503 178.566 146.918 178.822 147.285 179.17C147.652 179.519 147.942 179.972 148.154 180.528C148.366 181.081 148.472 181.754 148.472 182.545V183.148H141.535V181.875H146.808C146.808 181.428 146.717 181.032 146.535 180.688C146.353 180.339 146.097 180.064 145.768 179.864C145.442 179.663 145.06 179.562 144.62 179.562C144.143 179.562 143.726 179.68 143.37 179.915C143.018 180.146 142.745 180.449 142.552 180.824C142.363 181.195 142.268 181.598 142.268 182.034V183.028C142.268 183.612 142.37 184.108 142.575 184.517C142.783 184.926 143.073 185.239 143.444 185.455C143.815 185.667 144.249 185.773 144.745 185.773C145.067 185.773 145.361 185.727 145.626 185.636C145.891 185.542 146.12 185.402 146.313 185.216C146.507 185.03 146.654 184.801 146.757 184.528L148.365 184.818C148.236 185.292 148.005 185.706 147.671 186.062C147.342 186.415 146.927 186.689 146.427 186.886C145.931 187.08 145.365 187.176 144.728 187.176ZM150.181 187V178.273H151.823V179.659H151.914C152.073 179.189 152.354 178.82 152.755 178.551C153.161 178.278 153.619 178.142 154.13 178.142C154.236 178.142 154.361 178.146 154.505 178.153C154.653 178.161 154.769 178.17 154.852 178.182V179.807C154.784 179.788 154.662 179.767 154.488 179.744C154.314 179.718 154.14 179.705 153.966 179.705C153.564 179.705 153.206 179.79 152.892 179.96C152.581 180.127 152.335 180.36 152.153 180.659C151.971 180.955 151.88 181.292 151.88 181.67V187H150.181Z"
        fill="black" fill-opacity="0.8" />
    <path
        d="M132 101.5C131.167 101.5 130.5 102.167 130.5 103C130.5 103.833 131.167 104.5 132 104.5C132.833 104.5 133.5 103.833 133.5 103C133.5 102.167 132.833 101.5 132 101.5Z"
        fill="white" />
    <path
        d="M88.3536 49.6464C88.1583 49.4512 87.8417 49.4512 87.6464 49.6464L84.4645 52.8284C84.2692 53.0237 84.2692 53.3403 84.4645 53.5355C84.6597 53.7308 84.9763 53.7308 85.1716 53.5355L88 50.7071L90.8284 53.5355C91.0237 53.7308 91.3403 53.7308 91.5355 53.5355C91.7308 53.3403 91.7308 53.0237 91.5355 52.8284L88.3536 49.6464ZM131 103C131 102.443 131.443 102 132 102V101C130.891 101 130 101.891 130 103H131ZM132 102C132.557 102 133 102.443 133 103H134C134 101.891 133.109 101 132 101V102ZM133 103C133 103.557 132.557 104 132 104V105C133.109 105 134 104.109 134 103H133ZM132 104C131.443 104 131 103.557 131 103H130C130 104.109 130.891 105 132 105V104ZM130.5 102.5H108V103.5H130.5V102.5ZM88.5 83V50H87.5V83H88.5ZM108 102.5C97.2304 102.5 88.5 93.7696 88.5 83H87.5C87.5 94.3218 96.6782 103.5 108 103.5V102.5Z"
        fill="black" />
    <path
        d="M132 101.5C131.167 101.5 130.5 102.167 130.5 103C130.5 103.833 131.167 104.5 132 104.5C132.833 104.5 133.5 103.833 133.5 103C133.5 102.167 132.833 101.5 132 101.5Z"
        fill="white" />
    <path
        d="M87.6464 156.354C87.8417 156.549 88.1583 156.549 88.3536 156.354L91.5355 153.172C91.7308 152.976 91.7308 152.66 91.5355 152.464C91.3403 152.269 91.0237 152.269 90.8284 152.464L88 155.293L85.1716 152.464C84.9763 152.269 84.6597 152.269 84.4645 152.464C84.2692 152.66 84.2692 152.976 84.4645 153.172L87.6464 156.354ZM131 103C131 102.443 131.443 102 132 102V101C130.891 101 130 101.891 130 103H131ZM132 102C132.557 102 133 102.443 133 103H134C134 101.891 133.109 101 132 101V102ZM133 103C133 103.557 132.557 104 132 104V105C133.109 105 134 104.109 134 103H133ZM132 104C131.443 104 131 103.557 131 103H130C130 104.109 130.891 105 132 105V104ZM130.5 102.5H108V103.5H130.5V102.5ZM87.5 123V156H88.5V123H87.5ZM108 102.5C96.6782 102.5 87.5 111.678 87.5 123H88.5C88.5 112.23 97.2304 103.5 108 103.5V102.5Z"
        fill="black" />
    <path
        d="M308 101.5C307.167 101.5 306.5 102.167 306.5 103C306.5 103.833 307.167 104.5 308 104.5C308.833 104.5 309.5 103.833 309.5 103C309.5 102.167 308.833 101.5 308 101.5Z"
        fill="white" />
    <path
        d="M355.354 49.6464C355.158 49.4512 354.842 49.4512 354.646 49.6464L351.464 52.8284C351.269 53.0237 351.269 53.3403 351.464 53.5355C351.66 53.7308 351.976 53.7308 352.172 53.5355L355 50.7071L357.828 53.5355C358.024 53.7308 358.34 53.7308 358.536 53.5355C358.731 53.3403 358.731 53.0237 358.536 52.8284L355.354 49.6464ZM307 103C307 102.443 307.443 102 308 102V101C306.891 101 306 101.891 306 103H307ZM308 102C308.557 102 309 102.443 309 103H310C310 101.891 309.109 101 308 101V102ZM309 103C309 103.557 308.557 104 308 104V105C309.109 105 310 104.109 310 103H309ZM308 104C307.443 104 307 103.557 307 103H306C306 104.109 306.891 105 308 105V104ZM309.5 103.5H335V102.5H309.5V103.5ZM355.5 83V50H354.5V83H355.5ZM335 103.5C346.322 103.5 355.5 94.3218 355.5 83H354.5C354.5 93.7696 345.77 102.5 335 102.5V103.5Z"
        fill="black" />
    <path
        d="M308 101.5C307.167 101.5 306.5 102.167 306.5 103C306.5 103.833 307.167 104.5 308 104.5C308.833 104.5 309.5 103.833 309.5 103C309.5 102.167 308.833 101.5 308 101.5Z"
        fill="white" />
    <path
        d="M354.646 156.354C354.842 156.549 355.158 156.549 355.354 156.354L358.536 153.172C358.731 152.976 358.731 152.66 358.536 152.464C358.34 152.269 358.024 152.269 357.828 152.464L355 155.293L352.172 152.464C351.976 152.269 351.66 152.269 351.464 152.464C351.269 152.66 351.269 152.976 351.464 153.172L354.646 156.354ZM307 103C307 102.443 307.443 102 308 102V101C306.891 101 306 101.891 306 103H307ZM308 102C308.557 102 309 102.443 309 103H310C310 101.891 309.109 101 308 101V102ZM309 103C309 103.557 308.557 104 308 104V105C309.109 105 310 104.109 310 103H309ZM308 104C307.443 104 307 103.557 307 103H306C306 104.109 306.891 105 308 105V104ZM309.5 103.5H335V102.5H309.5V103.5ZM354.5 123V156H355.5V123H354.5ZM335 103.5C345.77 103.5 354.5 112.23 354.5 123H355.5C355.5 111.678 346.322 102.5 335 102.5V103.5Z"
        fill="black" />
</svg>