<svg width="704" height="608" viewBox="0 0 704 608" fill="none" xmlns="http://www.w3.org/2000/svg">
<path d="M40 52C40 45.3726 45.3726 40 52 40H652C658.627 40 664 45.3726 664 52V556C664 562.627 658.627 568 652 568H52C45.3726 568 40 562.627 40 556V52Z" fill="#FFF8F0"/>
<rect x="216" y="56" width="272" height="176" rx="6" fill="#FFA629" stroke="#CC8521" stroke-width="4" stroke-miterlimit="0" stroke-linecap="round" stroke-dasharray="16 10"/>
<path d="M282.175 109.369H277.743C277.573 108.422 277.255 107.589 276.791 106.869C276.327 106.15 275.759 105.539 275.087 105.037C274.414 104.535 273.662 104.156 272.828 103.901C272.004 103.645 271.128 103.517 270.2 103.517C268.524 103.517 267.023 103.938 265.698 104.781C264.381 105.624 263.34 106.86 262.573 108.489C261.815 110.117 261.436 112.106 261.436 114.455C261.436 116.822 261.815 118.82 262.573 120.449C263.34 122.078 264.386 123.309 265.712 124.142C267.038 124.975 268.529 125.392 270.186 125.392C271.105 125.392 271.976 125.269 272.8 125.023C273.633 124.767 274.386 124.393 275.058 123.901C275.731 123.408 276.299 122.807 276.763 122.097C277.236 121.377 277.563 120.553 277.743 119.625L282.175 119.639C281.938 121.069 281.479 122.385 280.797 123.588C280.125 124.781 279.258 125.813 278.198 126.685C277.146 127.546 275.944 128.214 274.59 128.688C273.235 129.161 271.758 129.398 270.158 129.398C267.639 129.398 265.395 128.801 263.425 127.608C261.455 126.405 259.902 124.687 258.766 122.452C257.639 120.217 257.075 117.551 257.075 114.455C257.075 111.348 257.644 108.683 258.78 106.457C259.916 104.223 261.469 102.509 263.439 101.315C265.409 100.113 267.648 99.5114 270.158 99.5114C271.701 99.5114 273.141 99.7339 274.476 100.179C275.821 100.615 277.028 101.259 278.098 102.111C279.168 102.954 280.054 103.986 280.754 105.207C281.455 106.42 281.929 107.807 282.175 109.369ZM295.396 129.44C293.351 129.44 291.566 128.972 290.041 128.034C288.517 127.097 287.333 125.785 286.49 124.099C285.647 122.414 285.226 120.444 285.226 118.19C285.226 115.927 285.647 113.948 286.49 112.253C287.333 110.558 288.517 109.241 290.041 108.304C291.566 107.366 293.351 106.898 295.396 106.898C297.442 106.898 299.227 107.366 300.752 108.304C302.276 109.241 303.46 110.558 304.303 112.253C305.145 113.948 305.567 115.927 305.567 118.19C305.567 120.444 305.145 122.414 304.303 124.099C303.46 125.785 302.276 127.097 300.752 128.034C299.227 128.972 297.442 129.44 295.396 129.44ZM295.411 125.875C296.736 125.875 297.835 125.525 298.706 124.824C299.577 124.123 300.221 123.19 300.638 122.026C301.064 120.861 301.277 119.578 301.277 118.176C301.277 116.784 301.064 115.506 300.638 114.341C300.221 113.167 299.577 112.224 298.706 111.514C297.835 110.804 296.736 110.449 295.411 110.449C294.075 110.449 292.967 110.804 292.087 111.514C291.216 112.224 290.567 113.167 290.141 114.341C289.724 115.506 289.516 116.784 289.516 118.176C289.516 119.578 289.724 120.861 290.141 122.026C290.567 123.19 291.216 124.123 292.087 124.824C292.967 125.525 294.075 125.875 295.411 125.875ZM309.428 129V107.182H313.504V110.733H313.774C314.229 109.53 314.972 108.593 316.004 107.92C317.037 107.239 318.272 106.898 319.712 106.898C321.17 106.898 322.392 107.239 323.376 107.92C324.371 108.602 325.105 109.54 325.578 110.733H325.805C326.326 109.568 327.155 108.64 328.291 107.949C329.428 107.248 330.782 106.898 332.354 106.898C334.333 106.898 335.947 107.518 337.197 108.759C338.457 109.999 339.087 111.869 339.087 114.369V129H334.84V114.767C334.84 113.29 334.437 112.22 333.632 111.557C332.827 110.894 331.866 110.562 330.749 110.562C329.366 110.562 328.291 110.989 327.524 111.841C326.757 112.684 326.374 113.768 326.374 115.094V129H322.141V114.497C322.141 113.313 321.771 112.362 321.033 111.642C320.294 110.922 319.333 110.562 318.149 110.562C317.344 110.562 316.601 110.776 315.919 111.202C315.247 111.618 314.702 112.201 314.286 112.949C313.878 113.697 313.675 114.563 313.675 115.548V129H309.428ZM343.899 137.182V107.182H348.047V110.719H348.402C348.648 110.264 349.003 109.739 349.467 109.142C349.931 108.545 350.575 108.025 351.399 107.58C352.223 107.125 353.312 106.898 354.666 106.898C356.428 106.898 358 107.343 359.382 108.233C360.765 109.123 361.849 110.406 362.635 112.082C363.43 113.759 363.828 115.776 363.828 118.134C363.828 120.491 363.435 122.513 362.649 124.199C361.863 125.875 360.784 127.168 359.411 128.077C358.037 128.976 356.47 129.426 354.709 129.426C353.383 129.426 352.299 129.204 351.456 128.759C350.623 128.313 349.969 127.793 349.496 127.196C349.022 126.599 348.658 126.069 348.402 125.605H348.146V137.182H343.899ZM348.061 118.091C348.061 119.625 348.284 120.97 348.729 122.125C349.174 123.28 349.818 124.185 350.661 124.838C351.503 125.482 352.536 125.804 353.757 125.804C355.026 125.804 356.087 125.468 356.939 124.795C357.791 124.114 358.435 123.19 358.871 122.026C359.316 120.861 359.538 119.549 359.538 118.091C359.538 116.652 359.321 115.359 358.885 114.213C358.459 113.067 357.815 112.163 356.953 111.5C356.101 110.837 355.036 110.506 353.757 110.506C352.526 110.506 351.484 110.823 350.632 111.457C349.789 112.092 349.15 112.977 348.715 114.114C348.279 115.25 348.061 116.576 348.061 118.091ZM381.528 119.952V107.182H385.789V129H381.613V125.222H381.386C380.884 126.386 380.079 127.357 378.971 128.134C377.872 128.901 376.504 129.284 374.866 129.284C373.464 129.284 372.224 128.976 371.144 128.361C370.074 127.736 369.231 126.812 368.616 125.591C368.01 124.369 367.707 122.859 367.707 121.06V107.182H371.954V120.548C371.954 122.035 372.366 123.219 373.19 124.099C374.013 124.98 375.084 125.42 376.4 125.42C377.195 125.42 377.986 125.222 378.772 124.824C379.567 124.426 380.226 123.825 380.746 123.02C381.277 122.215 381.537 121.192 381.528 119.952ZM400.8 107.182V110.591H388.883V107.182H400.8ZM392.079 101.955H396.326V122.594C396.326 123.418 396.449 124.038 396.695 124.455C396.941 124.862 397.259 125.141 397.647 125.293C398.045 125.435 398.476 125.506 398.94 125.506C399.281 125.506 399.579 125.482 399.834 125.435C400.09 125.387 400.289 125.349 400.431 125.321L401.198 128.83C400.952 128.924 400.602 129.019 400.147 129.114C399.692 129.218 399.124 129.275 398.442 129.284C397.325 129.303 396.283 129.104 395.317 128.688C394.352 128.271 393.57 127.627 392.974 126.756C392.377 125.884 392.079 124.791 392.079 123.474V101.955ZM413.788 129.44C411.638 129.44 409.787 128.981 408.234 128.062C406.69 127.134 405.497 125.832 404.654 124.156C403.821 122.471 403.404 120.496 403.404 118.233C403.404 115.998 403.821 114.028 404.654 112.324C405.497 110.619 406.671 109.289 408.177 108.332C409.692 107.376 411.463 106.898 413.489 106.898C414.72 106.898 415.914 107.101 417.069 107.509C418.224 107.916 419.261 108.555 420.18 109.426C421.098 110.297 421.823 111.429 422.353 112.821C422.883 114.204 423.148 115.884 423.148 117.864V119.369H405.805V116.188H418.986C418.986 115.07 418.759 114.08 418.305 113.219C417.85 112.348 417.211 111.661 416.387 111.159C415.573 110.657 414.616 110.406 413.518 110.406C412.325 110.406 411.283 110.7 410.393 111.287C409.512 111.865 408.83 112.622 408.347 113.56C407.874 114.488 407.637 115.496 407.637 116.585V119.071C407.637 120.529 407.893 121.77 408.404 122.793C408.925 123.815 409.649 124.597 410.577 125.136C411.505 125.667 412.59 125.932 413.83 125.932C414.635 125.932 415.369 125.818 416.032 125.591C416.695 125.354 417.268 125.004 417.751 124.54C418.234 124.076 418.603 123.503 418.859 122.821L422.878 123.545C422.557 124.729 421.979 125.766 421.146 126.656C420.322 127.537 419.285 128.223 418.035 128.716C416.794 129.199 415.378 129.44 413.788 129.44ZM426.981 129V107.182H431.086V110.648H431.313C431.711 109.473 432.412 108.55 433.415 107.878C434.429 107.196 435.574 106.855 436.853 106.855C437.118 106.855 437.431 106.865 437.79 106.884C438.16 106.902 438.449 106.926 438.657 106.955V111.017C438.486 110.97 438.183 110.918 437.748 110.861C437.312 110.795 436.877 110.761 436.441 110.761C435.437 110.761 434.542 110.974 433.756 111.401C432.98 111.817 432.364 112.4 431.91 113.148C431.455 113.886 431.228 114.729 431.228 115.676V129H426.981ZM313.226 167.182V170.591H301.308V167.182H313.226ZM304.504 161.955H308.751V182.594C308.751 183.418 308.874 184.038 309.12 184.455C309.367 184.862 309.684 185.141 310.072 185.293C310.47 185.435 310.901 185.506 311.365 185.506C311.706 185.506 312.004 185.482 312.26 185.435C312.515 185.387 312.714 185.349 312.856 185.321L313.623 188.83C313.377 188.924 313.027 189.019 312.572 189.114C312.118 189.218 311.549 189.275 310.868 189.284C309.75 189.303 308.709 189.104 307.743 188.688C306.777 188.271 305.995 187.627 305.399 186.756C304.802 185.884 304.504 184.791 304.504 183.474V161.955ZM319.728 197.182C319.094 197.182 318.516 197.13 317.995 197.026C317.475 196.931 317.086 196.827 316.831 196.713L317.853 193.233C318.63 193.441 319.321 193.531 319.927 193.503C320.533 193.474 321.068 193.247 321.532 192.821C322.006 192.395 322.422 191.699 322.782 190.733L323.308 189.284L315.325 167.182H319.87L325.396 184.114H325.623L331.149 167.182H335.708L326.717 191.912C326.3 193.048 325.77 194.009 325.126 194.795C324.482 195.591 323.715 196.188 322.825 196.585C321.935 196.983 320.903 197.182 319.728 197.182ZM338.82 197.182V167.182H342.968V170.719H343.323C343.569 170.264 343.924 169.739 344.388 169.142C344.852 168.545 345.496 168.025 346.32 167.58C347.144 167.125 348.233 166.898 349.587 166.898C351.348 166.898 352.92 167.343 354.303 168.233C355.685 169.123 356.77 170.406 357.556 172.082C358.351 173.759 358.749 175.776 358.749 178.134C358.749 180.491 358.356 182.513 357.57 184.199C356.784 185.875 355.704 187.168 354.331 188.077C352.958 188.976 351.391 189.426 349.63 189.426C348.304 189.426 347.22 189.204 346.377 188.759C345.543 188.313 344.89 187.793 344.417 187.196C343.943 186.599 343.578 186.069 343.323 185.605H343.067V197.182H338.82ZM342.982 178.091C342.982 179.625 343.204 180.97 343.65 182.125C344.095 183.28 344.739 184.185 345.581 184.838C346.424 185.482 347.456 185.804 348.678 185.804C349.947 185.804 351.007 185.468 351.86 184.795C352.712 184.114 353.356 183.19 353.792 182.026C354.237 180.861 354.459 179.549 354.459 178.091C354.459 176.652 354.241 175.359 353.806 174.213C353.38 173.067 352.736 172.163 351.874 171.5C351.022 170.837 349.956 170.506 348.678 170.506C347.447 170.506 346.405 170.823 345.553 171.457C344.71 172.092 344.071 172.977 343.635 174.114C343.2 175.25 342.982 176.576 342.982 178.091ZM372.031 189.44C369.881 189.44 368.03 188.981 366.477 188.062C364.933 187.134 363.74 185.832 362.897 184.156C362.064 182.471 361.647 180.496 361.647 178.233C361.647 175.998 362.064 174.028 362.897 172.324C363.74 170.619 364.914 169.289 366.42 168.332C367.935 167.376 369.706 166.898 371.733 166.898C372.964 166.898 374.157 167.101 375.312 167.509C376.467 167.916 377.504 168.555 378.423 169.426C379.341 170.297 380.066 171.429 380.596 172.821C381.127 174.204 381.392 175.884 381.392 177.864V179.369H364.048V176.188H377.23C377.23 175.07 377.002 174.08 376.548 173.219C376.093 172.348 375.454 171.661 374.63 171.159C373.816 170.657 372.859 170.406 371.761 170.406C370.568 170.406 369.526 170.7 368.636 171.287C367.755 171.865 367.073 172.622 366.591 173.56C366.117 174.488 365.88 175.496 365.88 176.585V179.071C365.88 180.529 366.136 181.77 366.647 182.793C367.168 183.815 367.893 184.597 368.821 185.136C369.749 185.667 370.833 185.932 372.073 185.932C372.878 185.932 373.612 185.818 374.275 185.591C374.938 185.354 375.511 185.004 375.994 184.54C376.477 184.076 376.846 183.503 377.102 182.821L381.122 183.545C380.8 184.729 380.222 185.766 379.389 186.656C378.565 187.537 377.528 188.223 376.278 188.716C375.037 189.199 373.622 189.44 372.031 189.44ZM401.573 172.509L397.724 173.19C397.563 172.698 397.307 172.229 396.957 171.784C396.616 171.339 396.152 170.974 395.565 170.69C394.978 170.406 394.244 170.264 393.363 170.264C392.161 170.264 391.157 170.534 390.352 171.074C389.547 171.604 389.144 172.291 389.144 173.134C389.144 173.863 389.414 174.45 389.954 174.895C390.494 175.34 391.365 175.705 392.568 175.989L396.034 176.784C398.041 177.248 399.537 177.963 400.522 178.929C401.507 179.895 402 181.15 402 182.693C402 184 401.621 185.165 400.863 186.188C400.115 187.201 399.069 187.996 397.724 188.574C396.389 189.152 394.84 189.44 393.079 189.44C390.636 189.44 388.643 188.92 387.099 187.878C385.555 186.827 384.608 185.335 384.258 183.403L388.363 182.778C388.619 183.848 389.144 184.658 389.94 185.207C390.735 185.747 391.772 186.017 393.051 186.017C394.443 186.017 395.555 185.728 396.389 185.151C397.222 184.563 397.639 183.848 397.639 183.006C397.639 182.324 397.383 181.751 396.872 181.287C396.37 180.823 395.598 180.473 394.556 180.236L390.863 179.426C388.827 178.962 387.322 178.223 386.346 177.21C385.38 176.197 384.897 174.914 384.897 173.361C384.897 172.073 385.257 170.946 385.977 169.98C386.697 169.014 387.691 168.261 388.96 167.722C390.229 167.172 391.682 166.898 393.321 166.898C395.679 166.898 397.535 167.409 398.889 168.432C400.243 169.445 401.138 170.804 401.573 172.509Z" fill="black" fill-opacity="0.8"/>
<rect x="56" y="376" width="272" height="176" rx="6" fill="#FFCD29" stroke="#CCA421" stroke-width="4" stroke-miterlimit="0" stroke-linecap="round" stroke-dasharray="16 10"/>
<path d="M144.054 427.551C143.903 426.206 143.278 425.165 142.179 424.426C141.081 423.678 139.698 423.304 138.031 423.304C136.838 423.304 135.806 423.493 134.935 423.872C134.064 424.241 133.386 424.753 132.903 425.406C132.43 426.05 132.193 426.784 132.193 427.608C132.193 428.299 132.354 428.896 132.676 429.398C133.008 429.9 133.439 430.321 133.969 430.662C134.509 430.993 135.086 431.273 135.702 431.5C136.317 431.718 136.909 431.898 137.477 432.04L140.318 432.778C141.246 433.006 142.198 433.313 143.173 433.702C144.149 434.09 145.053 434.601 145.886 435.236C146.72 435.87 147.392 436.656 147.903 437.594C148.424 438.531 148.685 439.653 148.685 440.96C148.685 442.608 148.259 444.071 147.406 445.349C146.564 446.628 145.337 447.636 143.727 448.375C142.127 449.114 140.19 449.483 137.918 449.483C135.74 449.483 133.855 449.137 132.264 448.446C130.673 447.755 129.428 446.775 128.528 445.506C127.629 444.227 127.132 442.712 127.037 440.96H131.44C131.526 442.011 131.867 442.887 132.463 443.588C133.069 444.279 133.841 444.795 134.778 445.136C135.725 445.468 136.762 445.634 137.889 445.634C139.13 445.634 140.233 445.439 141.199 445.051C142.174 444.653 142.941 444.104 143.5 443.403C144.059 442.693 144.338 441.865 144.338 440.918C144.338 440.056 144.092 439.35 143.6 438.801C143.117 438.252 142.458 437.797 141.625 437.438C140.801 437.078 139.868 436.76 138.827 436.486L135.389 435.548C133.06 434.914 131.213 433.981 129.85 432.75C128.495 431.519 127.818 429.89 127.818 427.864C127.818 426.187 128.273 424.724 129.182 423.474C130.091 422.224 131.322 421.254 132.875 420.562C134.428 419.862 136.18 419.511 138.131 419.511C140.1 419.511 141.838 419.857 143.344 420.548C144.859 421.24 146.052 422.191 146.923 423.403C147.795 424.606 148.249 425.989 148.287 427.551H144.054ZM152.709 457.182V427.182H156.857V430.719H157.212C157.458 430.264 157.813 429.739 158.277 429.142C158.741 428.545 159.385 428.025 160.209 427.58C161.033 427.125 162.122 426.898 163.476 426.898C165.237 426.898 166.809 427.343 168.192 428.233C169.574 429.123 170.659 430.406 171.445 432.082C172.24 433.759 172.638 435.776 172.638 438.134C172.638 440.491 172.245 442.513 171.459 444.199C170.673 445.875 169.593 447.168 168.22 448.077C166.847 448.976 165.28 449.426 163.519 449.426C162.193 449.426 161.108 449.204 160.266 448.759C159.432 448.313 158.779 447.793 158.305 447.196C157.832 446.599 157.467 446.069 157.212 445.605H156.956V457.182H152.709ZM156.871 438.091C156.871 439.625 157.093 440.97 157.538 442.125C157.983 443.28 158.627 444.185 159.47 444.838C160.313 445.482 161.345 445.804 162.567 445.804C163.836 445.804 164.896 445.468 165.749 444.795C166.601 444.114 167.245 443.19 167.68 442.026C168.126 440.861 168.348 439.549 168.348 438.091C168.348 436.652 168.13 435.359 167.695 434.213C167.269 433.067 166.625 432.163 165.763 431.5C164.911 430.837 163.845 430.506 162.567 430.506C161.336 430.506 160.294 430.823 159.442 431.457C158.599 432.092 157.96 432.977 157.524 434.114C157.089 435.25 156.871 436.576 156.871 438.091ZM185.92 449.44C183.77 449.44 181.919 448.981 180.366 448.062C178.822 447.134 177.629 445.832 176.786 444.156C175.953 442.471 175.536 440.496 175.536 438.233C175.536 435.998 175.953 434.028 176.786 432.324C177.629 430.619 178.803 429.289 180.309 428.332C181.824 427.376 183.595 426.898 185.621 426.898C186.853 426.898 188.046 427.101 189.201 427.509C190.356 427.916 191.393 428.555 192.312 429.426C193.23 430.297 193.955 431.429 194.485 432.821C195.015 434.204 195.281 435.884 195.281 437.864V439.369H177.937V436.188H191.119C191.119 435.07 190.891 434.08 190.437 433.219C189.982 432.348 189.343 431.661 188.519 431.159C187.705 430.657 186.748 430.406 185.65 430.406C184.457 430.406 183.415 430.7 182.525 431.287C181.644 431.865 180.962 432.622 180.479 433.56C180.006 434.488 179.769 435.496 179.769 436.585V439.071C179.769 440.529 180.025 441.77 180.536 442.793C181.057 443.815 181.782 444.597 182.71 445.136C183.638 445.667 184.722 445.932 185.962 445.932C186.767 445.932 187.501 445.818 188.164 445.591C188.827 445.354 189.4 445.004 189.883 444.54C190.366 444.076 190.735 443.503 190.991 442.821L195.011 443.545C194.689 444.729 194.111 445.766 193.278 446.656C192.454 447.537 191.417 448.223 190.167 448.716C188.926 449.199 187.511 449.44 185.92 449.44ZM208.303 449.44C206.192 449.44 204.373 448.962 202.849 448.006C201.334 447.04 200.169 445.709 199.354 444.014C198.54 442.319 198.133 440.378 198.133 438.19C198.133 435.974 198.549 434.019 199.383 432.324C200.216 430.619 201.39 429.289 202.906 428.332C204.421 427.376 206.206 426.898 208.261 426.898C209.918 426.898 211.395 427.205 212.692 427.821C213.99 428.427 215.036 429.279 215.832 430.378C216.637 431.476 217.115 432.759 217.266 434.227H213.133C212.906 433.205 212.385 432.324 211.57 431.585C210.765 430.847 209.686 430.477 208.332 430.477C207.148 430.477 206.111 430.79 205.221 431.415C204.34 432.03 203.654 432.911 203.161 434.057C202.669 435.193 202.423 436.538 202.423 438.091C202.423 439.682 202.664 441.055 203.147 442.21C203.63 443.366 204.312 444.26 205.192 444.895C206.083 445.529 207.129 445.847 208.332 445.847C209.137 445.847 209.866 445.7 210.519 445.406C211.182 445.103 211.736 444.672 212.181 444.114C212.636 443.555 212.953 442.883 213.133 442.097H217.266C217.115 443.508 216.656 444.767 215.888 445.875C215.121 446.983 214.094 447.854 212.806 448.489C211.528 449.123 210.027 449.44 208.303 449.44ZM220.928 449V427.182H225.175V449H220.928ZM223.073 423.815C222.334 423.815 221.7 423.569 221.17 423.077C220.649 422.575 220.388 421.978 220.388 421.287C220.388 420.586 220.649 419.99 221.17 419.497C221.7 418.995 222.334 418.744 223.073 418.744C223.812 418.744 224.441 418.995 224.962 419.497C225.493 419.99 225.758 420.586 225.758 421.287C225.758 421.978 225.493 422.575 224.962 423.077C224.441 423.569 223.812 423.815 223.073 423.815ZM236.359 449.483C234.976 449.483 233.726 449.227 232.609 448.716C231.491 448.195 230.606 447.442 229.952 446.457C229.308 445.473 228.986 444.265 228.986 442.835C228.986 441.604 229.223 440.591 229.697 439.795C230.17 439 230.809 438.37 231.614 437.906C232.419 437.442 233.319 437.092 234.313 436.855C235.307 436.618 236.321 436.438 237.353 436.315C238.66 436.164 239.72 436.041 240.535 435.946C241.349 435.842 241.941 435.676 242.31 435.449C242.68 435.222 242.864 434.852 242.864 434.341V434.241C242.864 433.001 242.514 432.04 241.813 431.358C241.122 430.676 240.09 430.335 238.717 430.335C237.287 430.335 236.16 430.652 235.336 431.287C234.521 431.912 233.958 432.608 233.646 433.375L229.654 432.466C230.128 431.14 230.819 430.07 231.728 429.256C232.646 428.432 233.702 427.835 234.896 427.466C236.089 427.087 237.343 426.898 238.66 426.898C239.531 426.898 240.454 427.002 241.43 427.21C242.414 427.409 243.333 427.778 244.185 428.318C245.047 428.858 245.753 429.63 246.302 430.634C246.851 431.628 247.126 432.92 247.126 434.511V449H242.978V446.017H242.807C242.533 446.566 242.121 447.106 241.572 447.636C241.022 448.167 240.317 448.607 239.455 448.957C238.593 449.308 237.561 449.483 236.359 449.483ZM237.282 446.074C238.456 446.074 239.46 445.842 240.293 445.378C241.136 444.914 241.775 444.308 242.211 443.56C242.656 442.802 242.878 441.992 242.878 441.131V438.318C242.727 438.47 242.433 438.612 241.998 438.744C241.572 438.867 241.084 438.976 240.535 439.071C239.985 439.156 239.45 439.237 238.93 439.312C238.409 439.379 237.973 439.436 237.623 439.483C236.799 439.587 236.046 439.762 235.364 440.009C234.692 440.255 234.152 440.61 233.745 441.074C233.347 441.528 233.148 442.134 233.148 442.892C233.148 443.943 233.537 444.739 234.313 445.278C235.09 445.809 236.079 446.074 237.282 446.074ZM256.15 419.909V449H251.903V419.909H256.15ZM118.617 509V479.909H128.987C131.25 479.909 133.125 480.321 134.612 481.145C136.098 481.969 137.211 483.096 137.95 484.526C138.688 485.946 139.058 487.546 139.058 489.327C139.058 491.116 138.684 492.726 137.935 494.156C137.197 495.577 136.079 496.704 134.583 497.537C133.096 498.361 131.226 498.773 128.972 498.773H121.842V495.051H128.575C130.005 495.051 131.165 494.805 132.055 494.312C132.945 493.811 133.598 493.129 134.015 492.267C134.432 491.405 134.64 490.425 134.64 489.327C134.64 488.228 134.432 487.253 134.015 486.401C133.598 485.548 132.94 484.881 132.041 484.398C131.15 483.915 129.976 483.673 128.518 483.673H123.006V509H118.617ZM156.803 499.952V487.182H161.065V509H156.889V505.222H156.661C156.159 506.386 155.354 507.357 154.247 508.134C153.148 508.901 151.78 509.284 150.141 509.284C148.74 509.284 147.499 508.976 146.42 508.361C145.35 507.736 144.507 506.812 143.891 505.591C143.285 504.369 142.982 502.859 142.982 501.06V487.182H147.229V500.548C147.229 502.035 147.641 503.219 148.465 504.099C149.289 504.98 150.359 505.42 151.675 505.42C152.471 505.42 153.262 505.222 154.048 504.824C154.843 504.426 155.501 503.825 156.022 503.02C156.552 502.215 156.813 501.192 156.803 499.952ZM165.891 509V487.182H169.996V490.648H170.224C170.621 489.473 171.322 488.55 172.326 487.878C173.339 487.196 174.485 486.855 175.764 486.855C176.029 486.855 176.341 486.865 176.701 486.884C177.07 486.902 177.359 486.926 177.568 486.955V491.017C177.397 490.97 177.094 490.918 176.658 490.861C176.223 490.795 175.787 490.761 175.352 490.761C174.348 490.761 173.453 490.974 172.667 491.401C171.89 491.817 171.275 492.4 170.82 493.148C170.366 493.886 170.139 494.729 170.139 495.676V509H165.891ZM180.363 517.182V487.182H184.511V490.719H184.866C185.112 490.264 185.467 489.739 185.931 489.142C186.395 488.545 187.039 488.025 187.863 487.58C188.687 487.125 189.776 486.898 191.13 486.898C192.891 486.898 194.463 487.343 195.846 488.233C197.228 489.123 198.313 490.406 199.099 492.082C199.894 493.759 200.292 495.776 200.292 498.134C200.292 500.491 199.899 502.513 199.113 504.199C198.327 505.875 197.247 507.168 195.874 508.077C194.501 508.976 192.934 509.426 191.173 509.426C189.847 509.426 188.763 509.204 187.92 508.759C187.086 508.313 186.433 507.793 185.96 507.196C185.486 506.599 185.121 506.069 184.866 505.605H184.61V517.182H180.363ZM184.525 498.091C184.525 499.625 184.747 500.97 185.192 502.125C185.638 503.28 186.281 504.185 187.124 504.838C187.967 505.482 188.999 505.804 190.221 505.804C191.49 505.804 192.55 505.468 193.403 504.795C194.255 504.114 194.899 503.19 195.335 502.026C195.78 500.861 196.002 499.549 196.002 498.091C196.002 496.652 195.784 495.359 195.349 494.213C194.923 493.067 194.279 492.163 193.417 491.5C192.565 490.837 191.499 490.506 190.221 490.506C188.99 490.506 187.948 490.823 187.096 491.457C186.253 492.092 185.614 492.977 185.178 494.114C184.743 495.25 184.525 496.576 184.525 498.091ZM213.361 509.44C211.315 509.44 209.53 508.972 208.006 508.034C206.481 507.097 205.297 505.785 204.455 504.099C203.612 502.414 203.19 500.444 203.19 498.19C203.19 495.927 203.612 493.948 204.455 492.253C205.297 490.558 206.481 489.241 208.006 488.304C209.53 487.366 211.315 486.898 213.361 486.898C215.406 486.898 217.191 487.366 218.716 488.304C220.24 489.241 221.424 490.558 222.267 492.253C223.11 493.948 223.531 495.927 223.531 498.19C223.531 500.444 223.11 502.414 222.267 504.099C221.424 505.785 220.24 507.097 218.716 508.034C217.191 508.972 215.406 509.44 213.361 509.44ZM213.375 505.875C214.701 505.875 215.799 505.525 216.67 504.824C217.542 504.123 218.186 503.19 218.602 502.026C219.028 500.861 219.241 499.578 219.241 498.176C219.241 496.784 219.028 495.506 218.602 494.341C218.186 493.167 217.542 492.224 216.67 491.514C215.799 490.804 214.701 490.449 213.375 490.449C212.04 490.449 210.932 490.804 210.051 491.514C209.18 492.224 208.531 493.167 208.105 494.341C207.688 495.506 207.48 496.784 207.48 498.176C207.48 499.578 207.688 500.861 208.105 502.026C208.531 503.19 209.18 504.123 210.051 504.824C210.932 505.525 212.04 505.875 213.375 505.875ZM243.741 492.509L239.892 493.19C239.731 492.698 239.475 492.229 239.125 491.784C238.784 491.339 238.32 490.974 237.733 490.69C237.146 490.406 236.412 490.264 235.531 490.264C234.329 490.264 233.325 490.534 232.52 491.074C231.715 491.604 231.312 492.291 231.312 493.134C231.312 493.863 231.582 494.45 232.122 494.895C232.662 495.34 233.533 495.705 234.736 495.989L238.202 496.784C240.209 497.248 241.705 497.963 242.69 498.929C243.675 499.895 244.168 501.15 244.168 502.693C244.168 504 243.789 505.165 243.031 506.188C242.283 507.201 241.237 507.996 239.892 508.574C238.557 509.152 237.008 509.44 235.247 509.44C232.804 509.44 230.811 508.92 229.267 507.878C227.723 506.827 226.776 505.335 226.426 503.403L230.531 502.778C230.787 503.848 231.312 504.658 232.108 505.207C232.903 505.747 233.94 506.017 235.219 506.017C236.611 506.017 237.723 505.728 238.557 505.151C239.39 504.563 239.807 503.848 239.807 503.006C239.807 502.324 239.551 501.751 239.04 501.287C238.538 500.823 237.766 500.473 236.724 500.236L233.031 499.426C230.995 498.962 229.49 498.223 228.514 497.21C227.548 496.197 227.065 494.914 227.065 493.361C227.065 492.073 227.425 490.946 228.145 489.98C228.865 489.014 229.859 488.261 231.128 487.722C232.397 487.172 233.85 486.898 235.489 486.898C237.847 486.898 239.703 487.409 241.057 488.432C242.411 489.445 243.306 490.804 243.741 492.509ZM257.361 509.44C255.211 509.44 253.36 508.981 251.807 508.062C250.263 507.134 249.07 505.832 248.227 504.156C247.394 502.471 246.977 500.496 246.977 498.233C246.977 495.998 247.394 494.028 248.227 492.324C249.07 490.619 250.244 489.289 251.75 488.332C253.265 487.376 255.036 486.898 257.062 486.898C258.293 486.898 259.487 487.101 260.642 487.509C261.797 487.916 262.834 488.555 263.753 489.426C264.671 490.297 265.396 491.429 265.926 492.821C266.456 494.204 266.722 495.884 266.722 497.864V499.369H249.378V496.188H262.56C262.56 495.07 262.332 494.08 261.878 493.219C261.423 492.348 260.784 491.661 259.96 491.159C259.146 490.657 258.189 490.406 257.091 490.406C255.898 490.406 254.856 490.7 253.966 491.287C253.085 491.865 252.403 492.622 251.92 493.56C251.447 494.488 251.21 495.496 251.21 496.585V499.071C251.21 500.529 251.466 501.77 251.977 502.793C252.498 503.815 253.222 504.597 254.15 505.136C255.079 505.667 256.163 505.932 257.403 505.932C258.208 505.932 258.942 505.818 259.605 505.591C260.268 505.354 260.841 505.004 261.324 504.54C261.807 504.076 262.176 503.503 262.432 502.821L266.452 503.545C266.13 504.729 265.552 505.766 264.719 506.656C263.895 507.537 262.858 508.223 261.608 508.716C260.367 509.199 258.952 509.44 257.361 509.44Z" fill="black" fill-opacity="0.8"/>
<path d="M353.5 236C353.5 235.172 352.828 234.5 352 234.5C351.172 234.5 350.5 235.172 350.5 236H353.5ZM190.939 373.061C191.525 373.646 192.475 373.646 193.061 373.061L202.607 363.515C203.192 362.929 203.192 361.979 202.607 361.393C202.021 360.808 201.071 360.808 200.485 361.393L192 369.879L183.515 361.393C182.929 360.808 181.979 360.808 181.393 361.393C180.808 361.979 180.808 362.929 181.393 363.515L190.939 373.061ZM350.5 236V280H353.5V236H350.5ZM328 302.5H216V305.5H328V302.5ZM190.5 328V372H193.5V328H190.5ZM216 302.5C201.917 302.5 190.5 313.917 190.5 328H193.5C193.5 315.574 203.574 305.5 216 305.5V302.5ZM350.5 280C350.5 292.426 340.426 302.5 328 302.5V305.5C342.083 305.5 353.5 294.083 353.5 280H350.5Z" fill="#B3B3B3"/>
<rect x="376" y="376" width="272" height="176" rx="6" fill="#14AE5C" stroke="#108B4A" stroke-width="4" stroke-miterlimit="0" stroke-linecap="round" stroke-dasharray="16 10"/>
<path d="M463.168 429.099C462.893 428.238 462.524 427.466 462.06 426.784C461.606 426.093 461.061 425.506 460.427 425.023C459.792 424.53 459.068 424.156 458.253 423.901C457.448 423.645 456.563 423.517 455.597 423.517C453.959 423.517 452.482 423.938 451.165 424.781C449.849 425.624 448.807 426.86 448.04 428.489C447.283 430.108 446.904 432.092 446.904 434.44C446.904 436.798 447.287 438.792 448.054 440.42C448.821 442.049 449.873 443.285 451.208 444.128C452.543 444.971 454.063 445.392 455.767 445.392C457.349 445.392 458.727 445.07 459.901 444.426C461.085 443.782 461.999 442.873 462.642 441.699C463.296 440.515 463.623 439.123 463.623 437.523L464.759 437.736H456.435V434.114H467.87V437.423C467.87 439.866 467.349 441.988 466.307 443.787C465.275 445.577 463.845 446.959 462.017 447.935C460.199 448.91 458.116 449.398 455.767 449.398C453.135 449.398 450.824 448.792 448.836 447.58C446.857 446.367 445.313 444.649 444.205 442.423C443.097 440.188 442.543 437.537 442.543 434.469C442.543 432.149 442.865 430.065 443.509 428.219C444.153 426.372 445.057 424.805 446.222 423.517C447.396 422.22 448.774 421.23 450.356 420.548C451.946 419.857 453.684 419.511 455.569 419.511C457.141 419.511 458.604 419.743 459.958 420.207C461.321 420.671 462.534 421.33 463.594 422.182C464.664 423.034 465.55 424.047 466.25 425.222C466.951 426.386 467.425 427.679 467.671 429.099H463.168ZM481.624 449.44C479.474 449.44 477.623 448.981 476.07 448.062C474.526 447.134 473.333 445.832 472.49 444.156C471.657 442.471 471.24 440.496 471.24 438.233C471.24 435.998 471.657 434.028 472.49 432.324C473.333 430.619 474.508 429.289 476.013 428.332C477.528 427.376 479.299 426.898 481.326 426.898C482.557 426.898 483.75 427.101 484.905 427.509C486.061 427.916 487.097 428.555 488.016 429.426C488.935 430.297 489.659 431.429 490.189 432.821C490.72 434.204 490.985 435.884 490.985 437.864V439.369H473.641V436.188H486.823C486.823 435.07 486.596 434.08 486.141 433.219C485.686 432.348 485.047 431.661 484.223 431.159C483.409 430.657 482.453 430.406 481.354 430.406C480.161 430.406 479.119 430.7 478.229 431.287C477.348 431.865 476.667 432.622 476.184 433.56C475.71 434.488 475.473 435.496 475.473 436.585V439.071C475.473 440.529 475.729 441.77 476.24 442.793C476.761 443.815 477.486 444.597 478.414 445.136C479.342 445.667 480.426 445.932 481.667 445.932C482.472 445.932 483.205 445.818 483.868 445.591C484.531 445.354 485.104 445.004 485.587 444.54C486.07 444.076 486.439 443.503 486.695 442.821L490.715 443.545C490.393 444.729 489.815 445.766 488.982 446.656C488.158 447.537 487.121 448.223 485.871 448.716C484.631 449.199 483.215 449.44 481.624 449.44ZM499.064 436.045V449H494.817V427.182H498.894V430.733H499.164C499.666 429.578 500.452 428.65 501.522 427.949C502.601 427.248 503.96 426.898 505.598 426.898C507.085 426.898 508.387 427.21 509.505 427.835C510.622 428.451 511.489 429.369 512.104 430.591C512.72 431.812 513.027 433.323 513.027 435.122V449H508.78V435.634C508.78 434.052 508.368 432.816 507.544 431.926C506.721 431.027 505.589 430.577 504.15 430.577C503.165 430.577 502.289 430.79 501.522 431.216C500.764 431.642 500.163 432.267 499.718 433.091C499.282 433.905 499.064 434.89 499.064 436.045ZM527.247 449.44C525.097 449.44 523.246 448.981 521.693 448.062C520.149 447.134 518.956 445.832 518.113 444.156C517.28 442.471 516.863 440.496 516.863 438.233C516.863 435.998 517.28 434.028 518.113 432.324C518.956 430.619 520.13 429.289 521.636 428.332C523.151 427.376 524.922 426.898 526.949 426.898C528.18 426.898 529.373 427.101 530.528 427.509C531.683 427.916 532.72 428.555 533.639 429.426C534.557 430.297 535.282 431.429 535.812 432.821C536.342 434.204 536.608 435.884 536.608 437.864V439.369H519.264V436.188H532.446C532.446 435.07 532.218 434.08 531.764 433.219C531.309 432.348 530.67 431.661 529.846 431.159C529.032 430.657 528.075 430.406 526.977 430.406C525.784 430.406 524.742 430.7 523.852 431.287C522.971 431.865 522.289 432.622 521.806 433.56C521.333 434.488 521.096 435.496 521.096 436.585V439.071C521.096 440.529 521.352 441.77 521.863 442.793C522.384 443.815 523.109 444.597 524.037 445.136C524.965 445.667 526.049 445.932 527.289 445.932C528.094 445.932 528.828 445.818 529.491 445.591C530.154 445.354 530.727 445.004 531.21 444.54C531.693 444.076 532.062 443.503 532.318 442.821L536.338 443.545C536.016 444.729 535.438 445.766 534.605 446.656C533.781 447.537 532.744 448.223 531.494 448.716C530.253 449.199 528.838 449.44 527.247 449.44ZM540.44 449V427.182H544.545V430.648H544.772C545.17 429.473 545.871 428.55 546.875 427.878C547.888 427.196 549.034 426.855 550.312 426.855C550.577 426.855 550.89 426.865 551.25 426.884C551.619 426.902 551.908 426.926 552.116 426.955V431.017C551.946 430.97 551.643 430.918 551.207 430.861C550.771 430.795 550.336 430.761 549.9 430.761C548.896 430.761 548.002 430.974 547.216 431.401C546.439 431.817 545.823 432.4 545.369 433.148C544.914 433.886 544.687 434.729 544.687 435.676V449H540.44ZM561.066 449.483C559.683 449.483 558.433 449.227 557.316 448.716C556.198 448.195 555.313 447.442 554.659 446.457C554.015 445.473 553.693 444.265 553.693 442.835C553.693 441.604 553.93 440.591 554.404 439.795C554.877 439 555.516 438.37 556.321 437.906C557.126 437.442 558.026 437.092 559.02 436.855C560.014 436.618 561.028 436.438 562.06 436.315C563.367 436.164 564.427 436.041 565.242 435.946C566.056 435.842 566.648 435.676 567.017 435.449C567.387 435.222 567.571 434.852 567.571 434.341V434.241C567.571 433.001 567.221 432.04 566.52 431.358C565.829 430.676 564.797 430.335 563.424 430.335C561.994 430.335 560.867 430.652 560.043 431.287C559.229 431.912 558.665 432.608 558.353 433.375L554.361 432.466C554.835 431.14 555.526 430.07 556.435 429.256C557.354 428.432 558.409 427.835 559.603 427.466C560.796 427.087 562.05 426.898 563.367 426.898C564.238 426.898 565.161 427.002 566.137 427.21C567.122 427.409 568.04 427.778 568.892 428.318C569.754 428.858 570.46 429.63 571.009 430.634C571.558 431.628 571.833 432.92 571.833 434.511V449H567.685V446.017H567.514C567.24 446.566 566.828 447.106 566.279 447.636C565.729 448.167 565.024 448.607 564.162 448.957C563.3 449.308 562.268 449.483 561.066 449.483ZM561.989 446.074C563.163 446.074 564.167 445.842 565 445.378C565.843 444.914 566.482 444.308 566.918 443.56C567.363 442.802 567.586 441.992 567.586 441.131V438.318C567.434 438.47 567.14 438.612 566.705 438.744C566.279 438.867 565.791 438.976 565.242 439.071C564.693 439.156 564.157 439.237 563.637 439.312C563.116 439.379 562.68 439.436 562.33 439.483C561.506 439.587 560.753 439.762 560.071 440.009C559.399 440.255 558.859 440.61 558.452 441.074C558.054 441.528 557.855 442.134 557.855 442.892C557.855 443.943 558.244 444.739 559.02 445.278C559.797 445.809 560.786 446.074 561.989 446.074ZM580.857 419.909V449H576.61V419.909H580.857ZM438.617 509V479.909H448.987C451.25 479.909 453.125 480.321 454.612 481.145C456.098 481.969 457.211 483.096 457.95 484.526C458.688 485.946 459.058 487.546 459.058 489.327C459.058 491.116 458.684 492.726 457.935 494.156C457.197 495.577 456.079 496.704 454.583 497.537C453.096 498.361 451.226 498.773 448.972 498.773H441.842V495.051H448.575C450.005 495.051 451.165 494.805 452.055 494.312C452.945 493.811 453.598 493.129 454.015 492.267C454.432 491.405 454.64 490.425 454.64 489.327C454.64 488.228 454.432 487.253 454.015 486.401C453.598 485.548 452.94 484.881 452.041 484.398C451.15 483.915 449.976 483.673 448.518 483.673H443.006V509H438.617ZM476.803 499.952V487.182H481.065V509H476.889V505.222H476.661C476.159 506.386 475.354 507.357 474.247 508.134C473.148 508.901 471.78 509.284 470.141 509.284C468.74 509.284 467.499 508.976 466.42 508.361C465.35 507.736 464.507 506.812 463.891 505.591C463.285 504.369 462.982 502.859 462.982 501.06V487.182H467.229V500.548C467.229 502.035 467.641 503.219 468.465 504.099C469.289 504.98 470.359 505.42 471.675 505.42C472.471 505.42 473.262 505.222 474.048 504.824C474.843 504.426 475.501 503.825 476.022 503.02C476.552 502.215 476.813 501.192 476.803 499.952ZM485.891 509V487.182H489.996V490.648H490.224C490.621 489.473 491.322 488.55 492.326 487.878C493.339 487.196 494.485 486.855 495.764 486.855C496.029 486.855 496.341 486.865 496.701 486.884C497.07 486.902 497.359 486.926 497.568 486.955V491.017C497.397 490.97 497.094 490.918 496.658 490.861C496.223 490.795 495.787 490.761 495.352 490.761C494.348 490.761 493.453 490.974 492.667 491.401C491.89 491.817 491.275 492.4 490.82 493.148C490.366 493.886 490.139 494.729 490.139 495.676V509H485.891ZM500.363 517.182V487.182H504.511V490.719H504.866C505.112 490.264 505.467 489.739 505.931 489.142C506.395 488.545 507.039 488.025 507.863 487.58C508.687 487.125 509.776 486.898 511.13 486.898C512.891 486.898 514.463 487.343 515.846 488.233C517.228 489.123 518.313 490.406 519.099 492.082C519.894 493.759 520.292 495.776 520.292 498.134C520.292 500.491 519.899 502.513 519.113 504.199C518.327 505.875 517.247 507.168 515.874 508.077C514.501 508.976 512.934 509.426 511.173 509.426C509.847 509.426 508.763 509.204 507.92 508.759C507.086 508.313 506.433 507.793 505.96 507.196C505.486 506.599 505.121 506.069 504.866 505.605H504.61V517.182H500.363ZM504.525 498.091C504.525 499.625 504.747 500.97 505.192 502.125C505.638 503.28 506.281 504.185 507.124 504.838C507.967 505.482 508.999 505.804 510.221 505.804C511.49 505.804 512.55 505.468 513.403 504.795C514.255 504.114 514.899 503.19 515.335 502.026C515.78 500.861 516.002 499.549 516.002 498.091C516.002 496.652 515.784 495.359 515.349 494.213C514.923 493.067 514.279 492.163 513.417 491.5C512.565 490.837 511.499 490.506 510.221 490.506C508.99 490.506 507.948 490.823 507.096 491.457C506.253 492.092 505.614 492.977 505.178 494.114C504.743 495.25 504.525 496.576 504.525 498.091ZM533.361 509.44C531.315 509.44 529.53 508.972 528.006 508.034C526.481 507.097 525.297 505.785 524.455 504.099C523.612 502.414 523.19 500.444 523.19 498.19C523.19 495.927 523.612 493.948 524.455 492.253C525.297 490.558 526.481 489.241 528.006 488.304C529.53 487.366 531.315 486.898 533.361 486.898C535.406 486.898 537.191 487.366 538.716 488.304C540.24 489.241 541.424 490.558 542.267 492.253C543.11 493.948 543.531 495.927 543.531 498.19C543.531 500.444 543.11 502.414 542.267 504.099C541.424 505.785 540.24 507.097 538.716 508.034C537.191 508.972 535.406 509.44 533.361 509.44ZM533.375 505.875C534.701 505.875 535.799 505.525 536.67 504.824C537.542 504.123 538.186 503.19 538.602 502.026C539.028 500.861 539.241 499.578 539.241 498.176C539.241 496.784 539.028 495.506 538.602 494.341C538.186 493.167 537.542 492.224 536.67 491.514C535.799 490.804 534.701 490.449 533.375 490.449C532.04 490.449 530.932 490.804 530.051 491.514C529.18 492.224 528.531 493.167 528.105 494.341C527.688 495.506 527.48 496.784 527.48 498.176C527.48 499.578 527.688 500.861 528.105 502.026C528.531 503.19 529.18 504.123 530.051 504.824C530.932 505.525 532.04 505.875 533.375 505.875ZM563.741 492.509L559.892 493.19C559.731 492.698 559.475 492.229 559.125 491.784C558.784 491.339 558.32 490.974 557.733 490.69C557.146 490.406 556.412 490.264 555.531 490.264C554.329 490.264 553.325 490.534 552.52 491.074C551.715 491.604 551.312 492.291 551.312 493.134C551.312 493.863 551.582 494.45 552.122 494.895C552.662 495.34 553.533 495.705 554.736 495.989L558.202 496.784C560.209 497.248 561.705 497.963 562.69 498.929C563.675 499.895 564.168 501.15 564.168 502.693C564.168 504 563.789 505.165 563.031 506.188C562.283 507.201 561.237 507.996 559.892 508.574C558.557 509.152 557.008 509.44 555.247 509.44C552.804 509.44 550.811 508.92 549.267 507.878C547.723 506.827 546.776 505.335 546.426 503.403L550.531 502.778C550.787 503.848 551.312 504.658 552.108 505.207C552.903 505.747 553.94 506.017 555.219 506.017C556.611 506.017 557.723 505.728 558.557 505.151C559.39 504.563 559.807 503.848 559.807 503.006C559.807 502.324 559.551 501.751 559.04 501.287C558.538 500.823 557.766 500.473 556.724 500.236L553.031 499.426C550.995 498.962 549.49 498.223 548.514 497.21C547.548 496.197 547.065 494.914 547.065 493.361C547.065 492.073 547.425 490.946 548.145 489.98C548.865 489.014 549.859 488.261 551.128 487.722C552.397 487.172 553.85 486.898 555.489 486.898C557.847 486.898 559.703 487.409 561.057 488.432C562.411 489.445 563.306 490.804 563.741 492.509ZM577.361 509.44C575.211 509.44 573.36 508.981 571.807 508.062C570.263 507.134 569.07 505.832 568.227 504.156C567.394 502.471 566.977 500.496 566.977 498.233C566.977 495.998 567.394 494.028 568.227 492.324C569.07 490.619 570.244 489.289 571.75 488.332C573.265 487.376 575.036 486.898 577.062 486.898C578.293 486.898 579.487 487.101 580.642 487.509C581.797 487.916 582.834 488.555 583.753 489.426C584.671 490.297 585.396 491.429 585.926 492.821C586.456 494.204 586.722 495.884 586.722 497.864V499.369H569.378V496.188H582.56C582.56 495.07 582.332 494.08 581.878 493.219C581.423 492.348 580.784 491.661 579.96 491.159C579.146 490.657 578.189 490.406 577.091 490.406C575.898 490.406 574.856 490.7 573.966 491.287C573.085 491.865 572.403 492.622 571.92 493.56C571.447 494.488 571.21 495.496 571.21 496.585V499.071C571.21 500.529 571.466 501.77 571.977 502.793C572.498 503.815 573.222 504.597 574.15 505.136C575.079 505.667 576.163 505.932 577.403 505.932C578.208 505.932 578.942 505.818 579.605 505.591C580.268 505.354 580.841 505.004 581.324 504.54C581.807 504.076 582.176 503.503 582.432 502.821L586.452 503.545C586.13 504.729 585.552 505.766 584.719 506.656C583.895 507.537 582.858 508.223 581.608 508.716C580.367 509.199 578.952 509.44 577.361 509.44Z" fill="white"/>
<path d="M353.5 236C353.5 235.172 352.828 234.5 352 234.5C351.172 234.5 350.5 235.172 350.5 236H353.5ZM510.939 373.061C511.525 373.646 512.475 373.646 513.061 373.061L522.607 363.515C523.192 362.929 523.192 361.979 522.607 361.393C522.021 360.808 521.071 360.808 520.485 361.393L512 369.879L503.515 361.393C502.929 360.808 501.979 360.808 501.393 361.393C500.808 361.979 500.808 362.929 501.393 363.515L510.939 373.061ZM350.5 236V280H353.5V236H350.5ZM376 305.5H488V302.5H376V305.5ZM510.5 328V372H513.5V328H510.5ZM488 305.5C500.426 305.5 510.5 315.574 510.5 328H513.5C513.5 313.917 502.083 302.5 488 302.5V305.5ZM350.5 280C350.5 294.083 361.917 305.5 376 305.5V302.5C363.574 302.5 353.5 292.426 353.5 280H350.5Z" fill="#B3B3B3"/>
<path d="M52 41H652V39H52V41ZM663 52V556H665V52H663ZM652 567H52V569H652V567ZM41 556V52H39V556H41ZM52 567C45.9249 567 41 562.075 41 556H39C39 563.18 44.8203 569 52 569V567ZM663 556C663 562.075 658.075 567 652 567V569C659.18 569 665 563.18 665 556H663ZM652 41C658.075 41 663 45.9249 663 52H665C665 44.8203 659.18 39 652 39V41ZM52 39C44.8203 39 39 44.8203 39 52H41C41 45.9249 45.9249 41 52 41V39Z" fill="#FCD19C"/>
<rect x="40" y="8" width="89.8828" height="26" rx="2" fill="#FFF8F0"/>
<rect x="40.5" y="8.5" width="88.8828" height="25" rx="1.5" stroke="black" stroke-opacity="0.14902"/>
<path d="M47.2813 24.125C46.7188 24.125 46.2344 23.9922 45.8281 23.7266C45.4219 23.4609 45.1094 23.0951 44.8906 22.6289C44.6719 22.1628 44.5625 21.6302 44.5625 21.0312C44.5625 20.4219 44.6745 19.8841 44.8984 19.418C45.125 18.9492 45.4401 18.5833 45.8438 18.3203C46.25 18.0547 46.724 17.9219 47.2656 17.9219C47.6875 17.9219 48.0677 18 48.4063 18.1562C48.7448 18.3125 49.0221 18.5312 49.2383 18.8125C49.4544 19.0937 49.5885 19.4219 49.6406 19.7969H48.7188C48.6484 19.5234 48.4922 19.2812 48.25 19.0703C48.0104 18.8568 47.6875 18.75 47.2813 18.75C46.9219 18.75 46.6068 18.8437 46.3359 19.0312C46.0677 19.2161 45.8581 19.4779 45.707 19.8164C45.5586 20.1523 45.4844 20.5469 45.4844 21C45.4844 21.4635 45.5573 21.8672 45.7031 22.2109C45.8516 22.5547 46.0599 22.8216 46.3281 23.0117C46.599 23.2018 46.9167 23.2969 47.2813 23.2969C47.5208 23.2969 47.7383 23.2552 47.9336 23.1719C48.1289 23.0885 48.2943 22.9688 48.4297 22.8125C48.5651 22.6562 48.6615 22.4687 48.7188 22.25H49.6406C49.5885 22.6042 49.4596 22.9232 49.2539 23.207C49.0508 23.4883 48.7813 23.7122 48.4453 23.8789C48.112 24.043 47.724 24.125 47.2813 24.125ZM53.4258 24.125C52.8841 24.125 52.4089 23.9961 52 23.7383C51.5938 23.4805 51.276 23.1198 51.0469 22.6562C50.8203 22.1927 50.707 21.651 50.707 21.0312C50.707 20.4062 50.8203 19.8607 51.0469 19.3945C51.276 18.9284 51.5938 18.5664 52 18.3086C52.4089 18.0508 52.8841 17.9219 53.4258 17.9219C53.9674 17.9219 54.4414 18.0508 54.8477 18.3086C55.2565 18.5664 55.5742 18.9284 55.8008 19.3945C56.0299 19.8607 56.1445 20.4062 56.1445 21.0312C56.1445 21.651 56.0299 22.1927 55.8008 22.6562C55.5742 23.1198 55.2565 23.4805 54.8477 23.7383C54.4414 23.9961 53.9674 24.125 53.4258 24.125ZM53.4258 23.2969C53.8372 23.2969 54.1758 23.1914 54.4414 22.9805C54.707 22.7695 54.9036 22.4922 55.0313 22.1484C55.1589 21.8047 55.2227 21.4323 55.2227 21.0312C55.2227 20.6302 55.1589 20.2565 55.0313 19.9102C54.9036 19.5638 54.707 19.2839 54.4414 19.0703C54.1758 18.8568 53.8372 18.75 53.4258 18.75C53.0143 18.75 52.6758 18.8568 52.4102 19.0703C52.1445 19.2839 51.9479 19.5638 51.8203 19.9102C51.6927 20.2565 51.6289 20.6302 51.6289 21.0312C51.6289 21.4323 51.6927 21.8047 51.8203 22.1484C51.9479 22.4922 52.1445 22.7695 52.4102 22.9805C52.6758 23.1914 53.0143 23.2969 53.4258 23.2969ZM57.5518 24V18H58.4424V18.9375H58.5205C58.6455 18.6172 58.8473 18.3685 59.126 18.1914C59.4046 18.0117 59.7393 17.9219 60.1299 17.9219C60.5257 17.9219 60.8551 18.0117 61.1182 18.1914C61.3838 18.3685 61.5908 18.6172 61.7393 18.9375H61.8018C61.9554 18.6276 62.1859 18.3815 62.4932 18.1992C62.8005 18.0143 63.1689 17.9219 63.5986 17.9219C64.1351 17.9219 64.5739 18.0898 64.915 18.4258C65.2562 18.7591 65.4268 19.2786 65.4268 19.9844V24H64.5049V19.9844C64.5049 19.5417 64.3838 19.2253 64.1416 19.0352C63.8994 18.8451 63.6143 18.75 63.2861 18.75C62.8643 18.75 62.5374 18.8776 62.3057 19.1328C62.0739 19.3854 61.958 19.7057 61.958 20.0937V24H61.0205V19.8906C61.0205 19.5495 60.9098 19.2747 60.6885 19.0664C60.4671 18.8555 60.182 18.75 59.833 18.75C59.5934 18.75 59.3695 18.8138 59.1611 18.9414C58.9554 19.069 58.7887 19.2461 58.6611 19.4727C58.5361 19.6966 58.4736 19.9557 58.4736 20.25V24H57.5518ZM67.1123 26.25V18H68.0029V18.9531H68.1123C68.18 18.849 68.2738 18.7161 68.3936 18.5547C68.516 18.3906 68.6904 18.2448 68.917 18.1172C69.1462 17.987 69.4561 17.9219 69.8467 17.9219C70.3519 17.9219 70.7972 18.0482 71.1826 18.3008C71.568 18.5534 71.8688 18.9115 72.085 19.375C72.3011 19.8385 72.4092 20.3854 72.4092 21.0156C72.4092 21.651 72.3011 22.2018 72.085 22.668C71.8688 23.1315 71.5693 23.4909 71.1865 23.7461C70.8037 23.9987 70.3623 24.125 69.8623 24.125C69.4769 24.125 69.1683 24.0612 68.9365 23.9336C68.7048 23.8034 68.5264 23.6562 68.4014 23.4922C68.2764 23.3255 68.18 23.1875 68.1123 23.0781H68.0342V26.25H67.1123ZM68.0186 21C68.0186 21.4531 68.085 21.8529 68.2178 22.1992C68.3506 22.543 68.5446 22.8125 68.7998 23.0078C69.055 23.2005 69.3675 23.2969 69.7373 23.2969C70.1227 23.2969 70.4443 23.1953 70.7021 22.9922C70.9626 22.7865 71.1579 22.5104 71.2881 22.1641C71.4209 21.8151 71.4873 21.4271 71.4873 21C71.4873 20.5781 71.4222 20.1979 71.292 19.8594C71.1644 19.5182 70.9704 19.2487 70.71 19.0508C70.4521 18.8503 70.1279 18.75 69.7373 18.75C69.3623 18.75 69.0472 18.8451 68.792 19.0352C68.5368 19.2227 68.3441 19.4857 68.2139 19.8242C68.0837 20.1602 68.0186 20.5521 68.0186 21ZM77.5967 21.5469V18H78.5186V24H77.5967V22.9844H77.5342C77.3936 23.2891 77.1748 23.5482 76.8779 23.7617C76.5811 23.9727 76.2061 24.0781 75.7529 24.0781C75.3779 24.0781 75.0446 23.9961 74.7529 23.832C74.4613 23.6654 74.2321 23.4154 74.0654 23.082C73.8988 22.7461 73.8154 22.3229 73.8154 21.8125V18H74.7373V21.75C74.7373 22.1875 74.8597 22.5365 75.1045 22.7969C75.3519 23.0573 75.667 23.1875 76.0498 23.1875C76.279 23.1875 76.512 23.1289 76.749 23.0117C76.9886 22.8945 77.1891 22.7148 77.3506 22.4727C77.5146 22.2305 77.5967 21.9219 77.5967 21.5469ZM82.8164 18V18.7812H79.707V18H82.8164ZM80.6133 16.5625H81.5352V22.2812C81.5352 22.5417 81.5729 22.737 81.6484 22.8672C81.7266 22.9948 81.8255 23.0807 81.9453 23.125C82.0677 23.1667 82.1966 23.1875 82.332 23.1875C82.4336 23.1875 82.5169 23.1823 82.582 23.1719C82.6471 23.1589 82.6992 23.1484 82.7383 23.1406L82.9258 23.9687C82.8633 23.9922 82.776 24.0156 82.6641 24.0391C82.5521 24.0651 82.4102 24.0781 82.2383 24.0781C81.9779 24.0781 81.7227 24.0221 81.4727 23.9102C81.2253 23.7982 81.0195 23.6276 80.8555 23.3984C80.694 23.1693 80.6133 22.8802 80.6133 22.5312V16.5625ZM86.6543 24.125C86.0762 24.125 85.5775 23.9974 85.1582 23.7422C84.7415 23.4844 84.4199 23.125 84.1934 22.6641C83.9694 22.2005 83.8574 21.6615 83.8574 21.0469C83.8574 20.4323 83.9694 19.8906 84.1934 19.4219C84.4199 18.9505 84.735 18.5833 85.1387 18.3203C85.5449 18.0547 86.0189 17.9219 86.5605 17.9219C86.873 17.9219 87.1816 17.974 87.4863 18.0781C87.791 18.1823 88.0684 18.3516 88.3184 18.5859C88.5684 18.8177 88.7676 19.125 88.916 19.5078C89.0645 19.8906 89.1387 20.362 89.1387 20.9219V21.3125H84.5137V20.5156H88.2012C88.2012 20.1771 88.1335 19.875 87.998 19.6094C87.8652 19.3437 87.6751 19.1341 87.4277 18.9805C87.1829 18.8268 86.8939 18.75 86.5605 18.75C86.1934 18.75 85.8757 18.8411 85.6074 19.0234C85.3418 19.2031 85.1374 19.4375 84.9941 19.7266C84.8509 20.0156 84.7793 20.3255 84.7793 20.6562V21.1875C84.7793 21.6406 84.8574 22.0247 85.0137 22.3398C85.1725 22.6523 85.3926 22.8906 85.6738 23.0547C85.9551 23.2161 86.2819 23.2969 86.6543 23.2969C86.8965 23.2969 87.1152 23.263 87.3105 23.1953C87.5085 23.125 87.679 23.0208 87.8223 22.8828C87.9655 22.7422 88.0762 22.5677 88.1543 22.3594L89.0449 22.6094C88.9512 22.9115 88.7936 23.1771 88.5723 23.4062C88.3509 23.6328 88.0775 23.8099 87.752 23.9375C87.4264 24.0625 87.0605 24.125 86.6543 24.125ZM90.541 24V18H91.4316V18.9062H91.4941C91.6035 18.6094 91.8014 18.3685 92.0879 18.1836C92.3743 17.9987 92.6973 17.9062 93.0566 17.9062C93.1243 17.9062 93.209 17.9076 93.3105 17.9102C93.4121 17.9128 93.4889 17.9167 93.541 17.9219V18.8594C93.5098 18.8516 93.4382 18.8398 93.3262 18.8242C93.2168 18.806 93.1009 18.7969 92.9785 18.7969C92.6868 18.7969 92.4264 18.8581 92.1973 18.9805C91.9707 19.1003 91.791 19.2669 91.6582 19.4805C91.528 19.6914 91.4629 19.9323 91.4629 20.2031V24H90.541ZM100.337 18V18.7812H97.2275V18H100.337ZM98.1338 16.5625H99.0557V22.2812C99.0557 22.5417 99.0934 22.737 99.1689 22.8672C99.2471 22.9948 99.346 23.0807 99.4658 23.125C99.5882 23.1667 99.7171 23.1875 99.8525 23.1875C99.9541 23.1875 100.037 23.1823 100.103 23.1719C100.168 23.1589 100.22 23.1484 100.259 23.1406L100.446 23.9687C100.384 23.9922 100.297 24.0156 100.185 24.0391C100.073 24.0651 99.9307 24.0781 99.7588 24.0781C99.4984 24.0781 99.2432 24.0221 98.9932 23.9102C98.7458 23.7982 98.54 23.6276 98.376 23.3984C98.2145 23.1693 98.1338 22.8802 98.1338 22.5312V16.5625ZM102.317 26.25C102.161 26.25 102.022 26.237 101.899 26.2109C101.777 26.1875 101.692 26.1641 101.646 26.1406L101.88 25.3281C102.104 25.3854 102.302 25.4063 102.474 25.3906C102.646 25.375 102.798 25.2982 102.931 25.1602C103.066 25.0247 103.19 24.8047 103.302 24.5L103.474 24.0313L101.255 18H102.255L103.911 22.7812H103.974L105.63 18H106.63L104.083 24.875C103.968 25.1849 103.826 25.4414 103.657 25.6445C103.488 25.8503 103.291 26.0026 103.067 26.1016C102.846 26.2005 102.596 26.25 102.317 26.25ZM107.847 26.25V18H108.737V18.9531H108.847C108.914 18.849 109.008 18.7161 109.128 18.5547C109.25 18.3906 109.425 18.2448 109.651 18.1172C109.881 17.987 110.19 17.9219 110.581 17.9219C111.086 17.9219 111.532 18.0482 111.917 18.3008C112.302 18.5534 112.603 18.9115 112.819 19.375C113.035 19.8385 113.144 20.3854 113.144 21.0156C113.144 21.651 113.035 22.2018 112.819 22.668C112.603 23.1315 112.304 23.4909 111.921 23.7461C111.538 23.9987 111.097 24.125 110.597 24.125C110.211 24.125 109.903 24.0612 109.671 23.9336C109.439 23.8034 109.261 23.6562 109.136 23.4922C109.011 23.3255 108.914 23.1875 108.847 23.0781H108.769V26.25H107.847ZM108.753 21C108.753 21.4531 108.819 21.8529 108.952 22.1992C109.085 22.543 109.279 22.8125 109.534 23.0078C109.789 23.2005 110.102 23.2969 110.472 23.2969C110.857 23.2969 111.179 23.1953 111.437 22.9922C111.697 22.7865 111.892 22.5104 112.022 22.1641C112.155 21.8151 112.222 21.4271 112.222 21C112.222 20.5781 112.157 20.1979 112.026 19.8594C111.899 19.5182 111.705 19.2487 111.444 19.0508C111.187 18.8503 110.862 18.75 110.472 18.75C110.097 18.75 109.782 18.8451 109.526 19.0352C109.271 19.2227 109.078 19.4857 108.948 19.8242C108.818 20.1602 108.753 20.5521 108.753 21ZM117.065 24.125C116.487 24.125 115.989 23.9974 115.569 23.7422C115.153 23.4844 114.831 23.125 114.604 22.6641C114.381 22.2005 114.269 21.6615 114.269 21.0469C114.269 20.4323 114.381 19.8906 114.604 19.4219C114.831 18.9505 115.146 18.5833 115.55 18.3203C115.956 18.0547 116.43 17.9219 116.972 17.9219C117.284 17.9219 117.593 17.974 117.897 18.0781C118.202 18.1823 118.479 18.3516 118.729 18.5859C118.979 18.8177 119.179 19.125 119.327 19.5078C119.476 19.8906 119.55 20.362 119.55 20.9219V21.3125H114.925V20.5156H118.612C118.612 20.1771 118.545 19.875 118.409 19.6094C118.276 19.3437 118.086 19.1341 117.839 18.9805C117.594 18.8268 117.305 18.75 116.972 18.75C116.604 18.75 116.287 18.8411 116.019 19.0234C115.753 19.2031 115.549 19.4375 115.405 19.7266C115.262 20.0156 115.19 20.3255 115.19 20.6562V21.1875C115.19 21.6406 115.269 22.0247 115.425 22.3398C115.584 22.6523 115.804 22.8906 116.085 23.0547C116.366 23.2161 116.693 23.2969 117.065 23.2969C117.308 23.2969 117.526 23.263 117.722 23.1953C117.92 23.125 118.09 23.0208 118.233 22.8828C118.377 22.7422 118.487 22.5677 118.565 22.3594L119.456 22.6094C119.362 22.9115 119.205 23.1771 118.983 23.4062C118.762 23.6328 118.489 23.8099 118.163 23.9375C117.838 24.0625 117.472 24.125 117.065 24.125ZM125.202 19.3437L124.374 19.5781C124.322 19.4401 124.245 19.306 124.144 19.1758C124.045 19.043 123.909 18.9336 123.737 18.8477C123.565 18.7617 123.345 18.7187 123.077 18.7187C122.71 18.7187 122.404 18.8034 122.159 18.9727C121.917 19.1393 121.796 19.3516 121.796 19.6094C121.796 19.8385 121.879 20.0195 122.046 20.1523C122.213 20.2852 122.473 20.3958 122.827 20.4844L123.718 20.7031C124.254 20.8333 124.654 21.0326 124.917 21.3008C125.18 21.5664 125.312 21.9089 125.312 22.3281C125.312 22.6719 125.213 22.9792 125.015 23.25C124.819 23.5208 124.546 23.7344 124.194 23.8906C123.843 24.0469 123.434 24.125 122.968 24.125C122.356 24.125 121.849 23.9922 121.448 23.7266C121.047 23.4609 120.793 23.0729 120.687 22.5625L121.562 22.3437C121.645 22.6667 121.802 22.9089 122.034 23.0703C122.269 23.2318 122.575 23.3125 122.952 23.3125C123.382 23.3125 123.723 23.2214 123.976 23.0391C124.231 22.8542 124.358 22.6328 124.358 22.375C124.358 22.1667 124.285 21.9922 124.14 21.8516C123.994 21.7083 123.77 21.6016 123.468 21.5312L122.468 21.2969C121.918 21.1667 121.515 20.9648 121.257 20.6914C121.002 20.4154 120.874 20.0703 120.874 19.6562C120.874 19.3177 120.969 19.0182 121.159 18.7578C121.352 18.4974 121.614 18.293 121.944 18.1445C122.278 17.9961 122.655 17.9219 123.077 17.9219C123.671 17.9219 124.137 18.0521 124.476 18.3125C124.817 18.5729 125.059 18.9167 125.202 19.3437Z" fill="black"/>
</svg>
