<svg width="1044" height="660" viewBox="0 0 1044 660" fill="none" xmlns="http://www.w3.org/2000/svg">
<rect x="434" y="242" width="176" height="176" rx="6" fill="#FFA629" stroke="#CC8521" stroke-width="4" stroke-miterlimit="0" stroke-linecap="round" stroke-dasharray="16 10"/>
<path d="M522.664 330.455C522.664 333.561 522.096 336.231 520.959 338.466C519.823 340.691 518.265 342.405 516.286 343.608C514.316 344.801 512.077 345.398 509.567 345.398C507.048 345.398 504.799 344.801 502.82 343.608C500.85 342.405 499.297 340.687 498.161 338.452C497.025 336.217 496.456 333.551 496.456 330.455C496.456 327.348 497.025 324.683 498.161 322.457C499.297 320.223 500.85 318.509 502.82 317.315C504.799 316.113 507.048 315.511 509.567 315.511C512.077 315.511 514.316 316.113 516.286 317.315C518.265 318.509 519.823 320.223 520.959 322.457C522.096 324.683 522.664 327.348 522.664 330.455ZM518.317 330.455C518.317 328.087 517.934 326.094 517.167 324.474C516.409 322.846 515.367 321.615 514.042 320.781C512.725 319.938 511.234 319.517 509.567 319.517C507.891 319.517 506.395 319.938 505.078 320.781C503.762 321.615 502.721 322.846 501.953 324.474C501.196 326.094 500.817 328.087 500.817 330.455C500.817 332.822 501.196 334.82 501.953 336.449C502.721 338.068 503.762 339.299 505.078 340.142C506.395 340.975 507.891 341.392 509.567 341.392C511.234 341.392 512.725 340.975 514.042 340.142C515.367 339.299 516.409 338.068 517.167 336.449C517.934 334.82 518.317 332.822 518.317 330.455ZM543.123 323.551C542.971 322.206 542.346 321.165 541.248 320.426C540.149 319.678 538.766 319.304 537.1 319.304C535.907 319.304 534.874 319.493 534.003 319.872C533.132 320.241 532.455 320.753 531.972 321.406C531.498 322.05 531.262 322.784 531.262 323.608C531.262 324.299 531.423 324.896 531.745 325.398C532.076 325.9 532.507 326.321 533.037 326.662C533.577 326.993 534.155 327.273 534.77 327.5C535.386 327.718 535.978 327.898 536.546 328.04L539.387 328.778C540.315 329.006 541.266 329.313 542.242 329.702C543.217 330.09 544.122 330.601 544.955 331.236C545.788 331.87 546.461 332.656 546.972 333.594C547.493 334.531 547.753 335.653 547.753 336.96C547.753 338.608 547.327 340.071 546.475 341.349C545.632 342.628 544.406 343.636 542.796 344.375C541.195 345.114 539.259 345.483 536.986 345.483C534.808 345.483 532.924 345.137 531.333 344.446C529.742 343.755 528.497 342.775 527.597 341.506C526.697 340.227 526.2 338.712 526.105 336.96H530.509C530.594 338.011 530.935 338.887 531.532 339.588C532.138 340.279 532.909 340.795 533.847 341.136C534.794 341.468 535.831 341.634 536.958 341.634C538.198 341.634 539.301 341.439 540.267 341.051C541.243 340.653 542.01 340.104 542.569 339.403C543.127 338.693 543.407 337.865 543.407 336.918C543.407 336.056 543.16 335.35 542.668 334.801C542.185 334.252 541.527 333.797 540.694 333.438C539.87 333.078 538.937 332.76 537.895 332.486L534.458 331.548C532.128 330.914 530.282 329.981 528.918 328.75C527.564 327.519 526.887 325.89 526.887 323.864C526.887 322.187 527.341 320.724 528.25 319.474C529.159 318.224 530.39 317.254 531.944 316.562C533.497 315.862 535.248 315.511 537.199 315.511C539.169 315.511 540.907 315.857 542.412 316.548C543.927 317.24 545.121 318.191 545.992 319.403C546.863 320.606 547.318 321.989 547.355 323.551H543.123Z" fill="black" fill-opacity="0.8"/>
<rect x="770" y="2" width="272" height="176" rx="6" fill="#BDE3FF" stroke="#97B6CC" stroke-width="4" stroke-miterlimit="0" stroke-linecap="round" stroke-dasharray="16 10"/>
<path d="M827.793 45.9091H833.12L842.381 68.5227H842.722L851.983 45.9091H857.31V75H853.134V53.9489H852.864L844.285 74.9574H840.819L832.239 53.9347H831.969V75H827.793V45.9091ZM871.874 75.4403C869.724 75.4403 867.873 74.9811 866.32 74.0625C864.776 73.1345 863.583 71.8324 862.74 70.1562C861.907 68.4706 861.49 66.4962 861.49 64.233C861.49 61.9981 861.907 60.0284 862.74 58.3239C863.583 56.6193 864.758 55.2888 866.263 54.3324C867.778 53.3759 869.549 52.8977 871.576 52.8977C872.807 52.8977 874 53.1013 875.155 53.5085C876.311 53.9157 877.347 54.5549 878.266 55.4261C879.185 56.2973 879.909 57.429 880.439 58.821C880.97 60.2036 881.235 61.8845 881.235 63.8636V65.3693H863.891V62.1875H877.073C877.073 61.0701 876.846 60.0805 876.391 59.2188C875.936 58.3475 875.297 57.661 874.473 57.1591C873.659 56.6572 872.703 56.4062 871.604 56.4062C870.411 56.4062 869.369 56.6998 868.479 57.2869C867.598 57.8646 866.917 58.6222 866.434 59.5597C865.96 60.4877 865.723 61.4962 865.723 62.5852V65.071C865.723 66.5294 865.979 67.7699 866.49 68.7926C867.011 69.8153 867.736 70.5966 868.664 71.1364C869.592 71.6667 870.676 71.9318 871.917 71.9318C872.722 71.9318 873.455 71.8182 874.118 71.5909C874.781 71.3542 875.354 71.0038 875.837 70.5398C876.32 70.0758 876.689 69.5028 876.945 68.821L880.965 69.5455C880.643 70.7292 880.065 71.7661 879.232 72.6562C878.408 73.5369 877.371 74.2235 876.121 74.7159C874.881 75.1989 873.465 75.4403 871.874 75.4403ZM885.067 75V53.1818H889.144V56.733H889.414C889.868 55.5303 890.612 54.5928 891.644 53.9205C892.676 53.2386 893.912 52.8977 895.351 52.8977C896.81 52.8977 898.031 53.2386 899.016 53.9205C900.01 54.6023 900.744 55.5398 901.218 56.733H901.445C901.966 55.5682 902.794 54.6402 903.931 53.9489C905.067 53.2481 906.421 52.8977 907.993 52.8977C909.972 52.8977 911.587 53.518 912.837 54.7585C914.097 55.9991 914.726 57.8693 914.726 60.3693V75H910.479V60.767C910.479 59.2898 910.077 58.2197 909.272 57.5568C908.467 56.8939 907.506 56.5625 906.388 56.5625C905.006 56.5625 903.931 56.9886 903.164 57.8409C902.397 58.6837 902.013 59.768 902.013 61.0938V75H897.78V60.4972C897.78 59.3134 897.411 58.3617 896.672 57.642C895.934 56.9223 894.972 56.5625 893.789 56.5625C892.984 56.5625 892.24 56.7756 891.559 57.2017C890.886 57.6184 890.342 58.2008 889.925 58.9489C889.518 59.697 889.314 60.5634 889.314 61.5483V75H885.067ZM928.729 75.4403C926.684 75.4403 924.899 74.9716 923.374 74.0341C921.849 73.0966 920.666 71.785 919.823 70.0994C918.98 68.4138 918.559 66.4441 918.559 64.1903C918.559 61.9271 918.98 59.9479 919.823 58.2528C920.666 56.5578 921.849 55.2415 923.374 54.304C924.899 53.3665 926.684 52.8977 928.729 52.8977C930.775 52.8977 932.56 53.3665 934.084 54.304C935.609 55.2415 936.792 56.5578 937.635 58.2528C938.478 59.9479 938.9 61.9271 938.9 64.1903C938.9 66.4441 938.478 68.4138 937.635 70.0994C936.792 71.785 935.609 73.0966 934.084 74.0341C932.56 74.9716 930.775 75.4403 928.729 75.4403ZM928.743 71.875C930.069 71.875 931.167 71.5246 932.039 70.8239C932.91 70.1231 933.554 69.1903 933.971 68.0256C934.397 66.8608 934.61 65.5777 934.61 64.1761C934.61 62.7841 934.397 61.5057 933.971 60.3409C933.554 59.1667 932.91 58.2244 932.039 57.5142C931.167 56.804 930.069 56.4489 928.743 56.4489C927.408 56.4489 926.3 56.804 925.419 57.5142C924.548 58.2244 923.9 59.1667 923.473 60.3409C923.057 61.5057 922.848 62.7841 922.848 64.1761C922.848 65.5777 923.057 66.8608 923.473 68.0256C923.9 69.1903 924.548 70.1231 925.419 70.8239C926.3 71.5246 927.408 71.875 928.743 71.875ZM942.76 75V53.1818H946.865V56.6477H947.093C947.49 55.4735 948.191 54.5502 949.195 53.8778C950.208 53.196 951.354 52.8551 952.632 52.8551C952.898 52.8551 953.21 52.8646 953.57 52.8835C953.939 52.9025 954.228 52.9261 954.436 52.9545V57.017C954.266 56.9697 953.963 56.9176 953.527 56.8608C953.092 56.7945 952.656 56.7614 952.22 56.7614C951.217 56.7614 950.322 56.9744 949.536 57.4006C948.759 57.8172 948.144 58.3996 947.689 59.1477C947.235 59.8864 947.007 60.7292 947.007 61.6761V75H942.76ZM960.581 83.1818C959.946 83.1818 959.368 83.1297 958.848 83.0256C958.327 82.9309 957.939 82.8267 957.683 82.7131L958.706 79.233C959.482 79.4413 960.173 79.5313 960.779 79.5028C961.385 79.4744 961.921 79.2472 962.385 78.821C962.858 78.3949 963.275 77.6989 963.635 76.733L964.16 75.2841L956.177 53.1818H960.723L966.248 70.1136H966.475L972.001 53.1818H976.561L967.569 77.9119C967.153 79.0483 966.622 80.0095 965.978 80.7955C965.334 81.5909 964.567 82.1875 963.677 82.5852C962.787 82.983 961.755 83.1818 960.581 83.1818ZM798.888 105.909H804.215L813.476 128.523H813.817L823.078 105.909H828.405V135H824.229V113.949H823.959L815.379 134.957H811.913L803.334 113.935H803.064V135H798.888V105.909ZM839.915 135.483C838.532 135.483 837.282 135.227 836.165 134.716C835.047 134.195 834.162 133.442 833.509 132.457C832.865 131.473 832.543 130.265 832.543 128.835C832.543 127.604 832.779 126.591 833.253 125.795C833.726 125 834.366 124.37 835.171 123.906C835.975 123.442 836.875 123.092 837.869 122.855C838.864 122.618 839.877 122.438 840.909 122.315C842.216 122.164 843.277 122.041 844.091 121.946C844.905 121.842 845.497 121.676 845.867 121.449C846.236 121.222 846.421 120.852 846.421 120.341V120.241C846.421 119.001 846.07 118.04 845.369 117.358C844.678 116.676 843.646 116.335 842.273 116.335C840.843 116.335 839.716 116.652 838.892 117.287C838.078 117.912 837.514 118.608 837.202 119.375L833.21 118.466C833.684 117.14 834.375 116.07 835.284 115.256C836.203 114.432 837.259 113.835 838.452 113.466C839.645 113.087 840.9 112.898 842.216 112.898C843.087 112.898 844.01 113.002 844.986 113.21C845.971 113.409 846.889 113.778 847.742 114.318C848.603 114.858 849.309 115.63 849.858 116.634C850.407 117.628 850.682 118.92 850.682 120.511V135H846.534V132.017H846.364C846.089 132.566 845.677 133.106 845.128 133.636C844.579 134.167 843.873 134.607 843.011 134.957C842.15 135.308 841.118 135.483 839.915 135.483ZM840.838 132.074C842.012 132.074 843.016 131.842 843.85 131.378C844.692 130.914 845.332 130.308 845.767 129.56C846.212 128.802 846.435 127.992 846.435 127.131V124.318C846.283 124.47 845.99 124.612 845.554 124.744C845.128 124.867 844.64 124.976 844.091 125.071C843.542 125.156 843.007 125.237 842.486 125.312C841.965 125.379 841.529 125.436 841.179 125.483C840.355 125.587 839.602 125.762 838.921 126.009C838.248 126.255 837.708 126.61 837.301 127.074C836.903 127.528 836.705 128.134 836.705 128.892C836.705 129.943 837.093 130.739 837.869 131.278C838.646 131.809 839.635 132.074 840.838 132.074ZM859.706 122.045V135H855.459V113.182H859.536V116.733H859.805C860.307 115.578 861.093 114.65 862.163 113.949C863.243 113.248 864.602 112.898 866.24 112.898C867.727 112.898 869.029 113.21 870.146 113.835C871.264 114.451 872.13 115.369 872.746 116.591C873.361 117.812 873.669 119.323 873.669 121.122V135H869.422V121.634C869.422 120.052 869.01 118.816 868.186 117.926C867.362 117.027 866.231 116.577 864.791 116.577C863.806 116.577 862.93 116.79 862.163 117.216C861.406 117.642 860.805 118.267 860.359 119.091C859.924 119.905 859.706 120.89 859.706 122.045ZM884.835 135.483C883.452 135.483 882.202 135.227 881.085 134.716C879.967 134.195 879.082 133.442 878.428 132.457C877.784 131.473 877.462 130.265 877.462 128.835C877.462 127.604 877.699 126.591 878.173 125.795C878.646 125 879.285 124.37 880.09 123.906C880.895 123.442 881.795 123.092 882.789 122.855C883.783 122.618 884.797 122.438 885.829 122.315C887.136 122.164 888.196 122.041 889.011 121.946C889.825 121.842 890.417 121.676 890.786 121.449C891.156 121.222 891.34 120.852 891.34 120.341V120.241C891.34 119.001 890.99 118.04 890.289 117.358C889.598 116.676 888.566 116.335 887.192 116.335C885.763 116.335 884.636 116.652 883.812 117.287C882.997 117.912 882.434 118.608 882.121 119.375L878.13 118.466C878.603 117.14 879.295 116.07 880.204 115.256C881.122 114.432 882.178 113.835 883.371 113.466C884.565 113.087 885.819 112.898 887.136 112.898C888.007 112.898 888.93 113.002 889.906 113.21C890.89 113.409 891.809 113.778 892.661 114.318C893.523 114.858 894.228 115.63 894.778 116.634C895.327 117.628 895.602 118.92 895.602 120.511V135H891.454V132.017H891.283C891.009 132.566 890.597 133.106 890.048 133.636C889.498 134.167 888.793 134.607 887.931 134.957C887.069 135.308 886.037 135.483 884.835 135.483ZM885.758 132.074C886.932 132.074 887.936 131.842 888.769 131.378C889.612 130.914 890.251 130.308 890.687 129.56C891.132 128.802 891.354 127.992 891.354 127.131V124.318C891.203 124.47 890.909 124.612 890.474 124.744C890.048 124.867 889.56 124.976 889.011 125.071C888.461 125.156 887.926 125.237 887.406 125.312C886.885 125.379 886.449 125.436 886.099 125.483C885.275 125.587 884.522 125.762 883.84 126.009C883.168 126.255 882.628 126.61 882.221 127.074C881.823 127.528 881.624 128.134 881.624 128.892C881.624 129.943 882.013 130.739 882.789 131.278C883.566 131.809 884.555 132.074 885.758 132.074ZM909.526 143.636C907.793 143.636 906.302 143.409 905.052 142.955C903.811 142.5 902.798 141.899 902.012 141.151C901.226 140.402 900.639 139.583 900.251 138.693L903.901 137.188C904.157 137.604 904.498 138.045 904.924 138.509C905.36 138.982 905.947 139.384 906.685 139.716C907.433 140.047 908.395 140.213 909.569 140.213C911.179 140.213 912.509 139.82 913.56 139.034C914.612 138.258 915.137 137.017 915.137 135.312V131.023H914.867C914.612 131.487 914.242 132.003 913.759 132.571C913.286 133.139 912.632 133.632 911.799 134.048C910.966 134.465 909.881 134.673 908.546 134.673C906.823 134.673 905.27 134.271 903.887 133.466C902.514 132.652 901.425 131.454 900.62 129.872C899.825 128.281 899.427 126.326 899.427 124.006C899.427 121.686 899.82 119.697 900.606 118.04C901.401 116.383 902.49 115.114 903.873 114.233C905.255 113.343 906.823 112.898 908.575 112.898C909.929 112.898 911.022 113.125 911.856 113.58C912.689 114.025 913.338 114.545 913.802 115.142C914.275 115.739 914.64 116.264 914.896 116.719H915.208V113.182H919.37V135.483C919.37 137.358 918.934 138.897 918.063 140.099C917.192 141.302 916.013 142.192 914.526 142.77C913.049 143.348 911.382 143.636 909.526 143.636ZM909.484 131.151C910.705 131.151 911.737 130.866 912.58 130.298C913.433 129.721 914.076 128.897 914.512 127.827C914.957 126.747 915.18 125.455 915.18 123.949C915.18 122.481 914.962 121.188 914.526 120.071C914.091 118.954 913.451 118.082 912.609 117.457C911.766 116.823 910.724 116.506 909.484 116.506C908.205 116.506 907.14 116.837 906.288 117.5C905.435 118.153 904.791 119.044 904.356 120.17C903.93 121.297 903.717 122.557 903.717 123.949C903.717 125.379 903.934 126.634 904.37 127.713C904.806 128.793 905.45 129.635 906.302 130.241C907.164 130.848 908.224 131.151 909.484 131.151ZM924.186 135V113.182H928.263V116.733H928.533C928.987 115.53 929.731 114.593 930.763 113.92C931.795 113.239 933.031 112.898 934.47 112.898C935.928 112.898 937.15 113.239 938.135 113.92C939.129 114.602 939.863 115.54 940.337 116.733H940.564C941.085 115.568 941.913 114.64 943.05 113.949C944.186 113.248 945.54 112.898 947.112 112.898C949.091 112.898 950.706 113.518 951.956 114.759C953.215 115.999 953.845 117.869 953.845 120.369V135H949.598V120.767C949.598 119.29 949.196 118.22 948.391 117.557C947.586 116.894 946.624 116.562 945.507 116.562C944.124 116.562 943.05 116.989 942.283 117.841C941.516 118.684 941.132 119.768 941.132 121.094V135H936.899V120.497C936.899 119.313 936.53 118.362 935.791 117.642C935.053 116.922 934.091 116.562 932.908 116.562C932.103 116.562 931.359 116.776 930.678 117.202C930.005 117.618 929.461 118.201 929.044 118.949C928.637 119.697 928.433 120.563 928.433 121.548V135H924.186ZM968.061 135.44C965.911 135.44 964.06 134.981 962.507 134.062C960.963 133.134 959.77 131.832 958.927 130.156C958.094 128.471 957.677 126.496 957.677 124.233C957.677 121.998 958.094 120.028 958.927 118.324C959.77 116.619 960.945 115.289 962.45 114.332C963.965 113.376 965.736 112.898 967.763 112.898C968.994 112.898 970.187 113.101 971.342 113.509C972.498 113.916 973.534 114.555 974.453 115.426C975.372 116.297 976.096 117.429 976.626 118.821C977.157 120.204 977.422 121.884 977.422 123.864V125.369H960.078V122.188H973.26C973.26 121.07 973.033 120.08 972.578 119.219C972.124 118.348 971.484 117.661 970.66 117.159C969.846 116.657 968.89 116.406 967.791 116.406C966.598 116.406 965.556 116.7 964.666 117.287C963.785 117.865 963.104 118.622 962.621 119.56C962.147 120.488 961.91 121.496 961.91 122.585V125.071C961.91 126.529 962.166 127.77 962.677 128.793C963.198 129.815 963.923 130.597 964.851 131.136C965.779 131.667 966.863 131.932 968.104 131.932C968.909 131.932 969.642 131.818 970.305 131.591C970.968 131.354 971.541 131.004 972.024 130.54C972.507 130.076 972.876 129.503 973.132 128.821L977.152 129.545C976.83 130.729 976.252 131.766 975.419 132.656C974.595 133.537 973.558 134.223 972.308 134.716C971.068 135.199 969.652 135.44 968.061 135.44ZM985.501 122.045V135H981.254V113.182H985.331V116.733H985.601C986.103 115.578 986.889 114.65 987.959 113.949C989.038 113.248 990.397 112.898 992.035 112.898C993.522 112.898 994.824 113.21 995.942 113.835C997.059 114.451 997.926 115.369 998.541 116.591C999.157 117.812 999.464 119.323 999.464 121.122V135H995.217V121.634C995.217 120.052 994.805 118.816 993.981 117.926C993.158 117.027 992.026 116.577 990.587 116.577C989.602 116.577 988.726 116.79 987.959 117.216C987.201 117.642 986.6 118.267 986.155 119.091C985.719 119.905 985.501 120.89 985.501 122.045ZM1014.47 113.182V116.591H1002.55V113.182H1014.47ZM1005.74 107.955H1009.99V128.594C1009.99 129.418 1010.11 130.038 1010.36 130.455C1010.61 130.862 1010.92 131.141 1011.31 131.293C1011.71 131.435 1012.14 131.506 1012.6 131.506C1012.95 131.506 1013.24 131.482 1013.5 131.435C1013.75 131.387 1013.95 131.349 1014.1 131.321L1014.86 134.83C1014.62 134.924 1014.27 135.019 1013.81 135.114C1013.36 135.218 1012.79 135.275 1012.11 135.284C1010.99 135.303 1009.95 135.104 1008.98 134.688C1008.02 134.271 1007.23 133.627 1006.64 132.756C1006.04 131.884 1005.74 130.791 1005.74 129.474V107.955Z" fill="black" fill-opacity="0.8"/>
<rect x="2" y="2" width="288" height="176" rx="6" fill="#FFC7C2" stroke="#CC9F9B" stroke-width="4" stroke-miterlimit="0" stroke-linecap="round" stroke-dasharray="16 10"/>
<path d="M112.245 75V45.9091H130.285V49.6875H116.634V58.5511H128.992V62.3153H116.634V75H112.245ZM134.462 75V53.1818H138.709V75H134.462ZM136.607 49.8153C135.868 49.8153 135.233 49.5691 134.703 49.0767C134.182 48.5748 133.922 47.9782 133.922 47.2869C133.922 46.5862 134.182 45.9896 134.703 45.4972C135.233 44.9953 135.868 44.7443 136.607 44.7443C137.345 44.7443 137.975 44.9953 138.496 45.4972C139.026 45.9896 139.291 46.5862 139.291 47.2869C139.291 47.9782 139.026 48.5748 138.496 49.0767C137.975 49.5691 137.345 49.8153 136.607 49.8153ZM147.79 45.9091V75H143.543V45.9091H147.79ZM162.027 75.4403C159.877 75.4403 158.026 74.9811 156.473 74.0625C154.929 73.1345 153.736 71.8324 152.893 70.1562C152.06 68.4706 151.643 66.4962 151.643 64.233C151.643 61.9981 152.06 60.0284 152.893 58.3239C153.736 56.6193 154.91 55.2888 156.416 54.3324C157.931 53.3759 159.702 52.8977 161.729 52.8977C162.96 52.8977 164.153 53.1013 165.308 53.5085C166.464 53.9157 167.5 54.5549 168.419 55.4261C169.338 56.2973 170.062 57.429 170.592 58.821C171.123 60.2036 171.388 61.8845 171.388 63.8636V65.3693H154.044V62.1875H167.226C167.226 61.0701 166.999 60.0805 166.544 59.2188C166.089 58.3475 165.45 57.661 164.626 57.1591C163.812 56.6572 162.856 56.4062 161.757 56.4062C160.564 56.4062 159.522 56.6998 158.632 57.2869C157.751 57.8646 157.07 58.6222 156.587 59.5597C156.113 60.4877 155.876 61.4962 155.876 62.5852V65.071C155.876 66.5294 156.132 67.7699 156.643 68.7926C157.164 69.8153 157.889 70.5966 158.817 71.1364C159.745 71.6667 160.829 71.9318 162.07 71.9318C162.874 71.9318 163.608 71.8182 164.271 71.5909C164.934 71.3542 165.507 71.0038 165.99 70.5398C166.473 70.0758 166.842 69.5028 167.098 68.821L171.118 69.5455C170.796 70.7292 170.218 71.7661 169.385 72.6562C168.561 73.5369 167.524 74.2235 166.274 74.7159C165.034 75.1989 163.618 75.4403 162.027 75.4403ZM27.5896 105.909H32.9163L42.1777 128.523H42.5186L51.78 105.909H57.1067V135H52.9305V113.949H52.6606L44.0811 134.957H40.6152L32.0356 113.935H31.7658V135H27.5896V105.909ZM68.6166 135.483C67.234 135.483 65.984 135.227 64.8666 134.716C63.7492 134.195 62.8637 133.442 62.2103 132.457C61.5664 131.473 61.2444 130.265 61.2444 128.835C61.2444 127.604 61.4812 126.591 61.9546 125.795C62.4281 125 63.0673 124.37 63.8723 123.906C64.6772 123.442 65.5768 123.092 66.5711 122.855C67.5654 122.618 68.5787 122.438 69.6109 122.315C70.9177 122.164 71.9783 122.041 72.7927 121.946C73.6071 121.842 74.199 121.676 74.5683 121.449C74.9376 121.222 75.1223 120.852 75.1223 120.341V120.241C75.1223 119.001 74.7719 118.04 74.0711 117.358C73.3798 116.676 72.3476 116.335 70.9745 116.335C69.5446 116.335 68.4177 116.652 67.5938 117.287C66.7795 117.912 66.216 118.608 65.9035 119.375L61.912 118.466C62.3855 117.14 63.0768 116.07 63.9859 115.256C64.9045 114.432 65.9603 113.835 67.1535 113.466C68.3467 113.087 69.6014 112.898 70.9177 112.898C71.7889 112.898 72.7122 113.002 73.6876 113.21C74.6724 113.409 75.591 113.778 76.4433 114.318C77.305 114.858 78.0105 115.63 78.5598 116.634C79.109 117.628 79.3836 118.92 79.3836 120.511V135H75.2359V132.017H75.0654C74.7908 132.566 74.3789 133.106 73.8296 133.636C73.2804 134.167 72.5749 134.607 71.7132 134.957C70.8514 135.308 69.8192 135.483 68.6166 135.483ZM69.5399 132.074C70.7141 132.074 71.7179 131.842 72.5512 131.378C73.394 130.914 74.0332 130.308 74.4688 129.56C74.9139 128.802 75.1365 127.992 75.1365 127.131V124.318C74.9849 124.47 74.6914 124.612 74.2558 124.744C73.8296 124.867 73.342 124.976 72.7927 125.071C72.2435 125.156 71.7084 125.237 71.1876 125.312C70.6668 125.379 70.2312 125.436 69.8808 125.483C69.0569 125.587 68.3041 125.762 67.6223 126.009C66.9499 126.255 66.4101 126.61 66.0029 127.074C65.6052 127.528 65.4063 128.134 65.4063 128.892C65.4063 129.943 65.7946 130.739 66.5711 131.278C67.3476 131.809 68.3372 132.074 69.5399 132.074ZM88.4077 122.045V135H84.1606V113.182H88.2373V116.733H88.5072C89.0091 115.578 89.7951 114.65 90.8651 113.949C91.9447 113.248 93.3036 112.898 94.9418 112.898C96.4286 112.898 97.7307 113.21 98.8481 113.835C99.9655 114.451 100.832 115.369 101.448 116.591C102.063 117.812 102.371 119.323 102.371 121.122V135H98.1237V121.634C98.1237 120.052 97.7117 118.816 96.8879 117.926C96.064 117.027 94.9324 116.577 93.493 116.577C92.5081 116.577 91.6322 116.79 90.8651 117.216C90.1076 117.642 89.5062 118.267 89.0612 119.091C88.6255 119.905 88.4077 120.89 88.4077 122.045ZM113.536 135.483C112.154 135.483 110.904 135.227 109.786 134.716C108.669 134.195 107.783 133.442 107.13 132.457C106.486 131.473 106.164 130.265 106.164 128.835C106.164 127.604 106.401 126.591 106.874 125.795C107.348 125 107.987 124.37 108.792 123.906C109.597 123.442 110.496 123.092 111.491 122.855C112.485 122.618 113.498 122.438 114.531 122.315C115.837 122.164 116.898 122.041 117.712 121.946C118.527 121.842 119.119 121.676 119.488 121.449C119.857 121.222 120.042 120.852 120.042 120.341V120.241C120.042 119.001 119.692 118.04 118.991 117.358C118.3 116.676 117.267 116.335 115.894 116.335C114.464 116.335 113.337 116.652 112.514 117.287C111.699 117.912 111.136 118.608 110.823 119.375L106.832 118.466C107.305 117.14 107.996 116.07 108.906 115.256C109.824 114.432 110.88 113.835 112.073 113.466C113.266 113.087 114.521 112.898 115.837 112.898C116.709 112.898 117.632 113.002 118.607 113.21C119.592 113.409 120.511 113.778 121.363 114.318C122.225 114.858 122.93 115.63 123.479 116.634C124.029 117.628 124.303 118.92 124.303 120.511V135H120.156V132.017H119.985C119.711 132.566 119.299 133.106 118.749 133.636C118.2 134.167 117.495 134.607 116.633 134.957C115.771 135.308 114.739 135.483 113.536 135.483ZM114.46 132.074C115.634 132.074 116.638 131.842 117.471 131.378C118.314 130.914 118.953 130.308 119.389 129.56C119.834 128.802 120.056 127.992 120.056 127.131V124.318C119.905 124.47 119.611 124.612 119.175 124.744C118.749 124.867 118.262 124.976 117.712 125.071C117.163 125.156 116.628 125.237 116.107 125.312C115.586 125.379 115.151 125.436 114.8 125.483C113.977 125.587 113.224 125.762 112.542 126.009C111.87 126.255 111.33 126.61 110.923 127.074C110.525 127.528 110.326 128.134 110.326 128.892C110.326 129.943 110.714 130.739 111.491 131.278C112.267 131.809 113.257 132.074 114.46 132.074ZM138.228 143.636C136.495 143.636 135.004 143.409 133.754 142.955C132.513 142.5 131.5 141.899 130.714 141.151C129.928 140.402 129.341 139.583 128.952 138.693L132.603 137.188C132.859 137.604 133.2 138.045 133.626 138.509C134.061 138.982 134.648 139.384 135.387 139.716C136.135 140.047 137.096 140.213 138.271 140.213C139.88 140.213 141.211 139.82 142.262 139.034C143.313 138.258 143.839 137.017 143.839 135.312V131.023H143.569C143.313 131.487 142.944 132.003 142.461 132.571C141.987 133.139 141.334 133.632 140.501 134.048C139.667 134.465 138.583 134.673 137.248 134.673C135.524 134.673 133.971 134.271 132.589 133.466C131.216 132.652 130.127 131.454 129.322 129.872C128.526 128.281 128.129 126.326 128.129 124.006C128.129 121.686 128.522 119.697 129.308 118.04C130.103 116.383 131.192 115.114 132.575 114.233C133.957 113.343 135.524 112.898 137.276 112.898C138.63 112.898 139.724 113.125 140.558 113.58C141.391 114.025 142.04 114.545 142.504 115.142C142.977 115.739 143.342 116.264 143.597 116.719H143.91V113.182H148.072V135.483C148.072 137.358 147.636 138.897 146.765 140.099C145.894 141.302 144.715 142.192 143.228 142.77C141.751 143.348 140.084 143.636 138.228 143.636ZM138.185 131.151C139.407 131.151 140.439 130.866 141.282 130.298C142.134 129.721 142.778 128.897 143.214 127.827C143.659 126.747 143.881 125.455 143.881 123.949C143.881 122.481 143.664 121.188 143.228 120.071C142.792 118.954 142.153 118.082 141.31 117.457C140.468 116.823 139.426 116.506 138.185 116.506C136.907 116.506 135.842 116.837 134.989 117.5C134.137 118.153 133.493 119.044 133.058 120.17C132.631 121.297 132.418 122.557 132.418 123.949C132.418 125.379 132.636 126.634 133.072 127.713C133.507 128.793 134.151 129.635 135.004 130.241C135.865 130.848 136.926 131.151 138.185 131.151ZM162.291 135.44C160.142 135.44 158.29 134.981 156.737 134.062C155.194 133.134 154 131.832 153.158 130.156C152.324 128.471 151.908 126.496 151.908 124.233C151.908 121.998 152.324 120.028 153.158 118.324C154 116.619 155.175 115.289 156.68 114.332C158.196 113.376 159.966 112.898 161.993 112.898C163.224 112.898 164.417 113.101 165.572 113.509C166.728 113.916 167.765 114.555 168.683 115.426C169.602 116.297 170.326 117.429 170.857 118.821C171.387 120.204 171.652 121.884 171.652 123.864V125.369H154.308V122.188H167.49C167.49 121.07 167.263 120.08 166.808 119.219C166.354 118.348 165.714 117.661 164.891 117.159C164.076 116.657 163.12 116.406 162.021 116.406C160.828 116.406 159.786 116.7 158.896 117.287C158.016 117.865 157.334 118.622 156.851 119.56C156.377 120.488 156.141 121.496 156.141 122.585V125.071C156.141 126.529 156.396 127.77 156.908 128.793C157.428 129.815 158.153 130.597 159.081 131.136C160.009 131.667 161.093 131.932 162.334 131.932C163.139 131.932 163.873 131.818 164.535 131.591C165.198 131.354 165.771 131.004 166.254 130.54C166.737 130.076 167.107 129.503 167.362 128.821L171.382 129.545C171.06 130.729 170.482 131.766 169.649 132.656C168.825 133.537 167.788 134.223 166.538 134.716C165.298 135.199 163.882 135.44 162.291 135.44ZM175.484 135V113.182H179.561V116.733H179.831C180.285 115.53 181.029 114.593 182.061 113.92C183.093 113.239 184.329 112.898 185.768 112.898C187.227 112.898 188.448 113.239 189.433 113.92C190.428 114.602 191.161 115.54 191.635 116.733H191.862C192.383 115.568 193.212 114.64 194.348 113.949C195.484 113.248 196.838 112.898 198.41 112.898C200.39 112.898 202.004 113.518 203.254 114.759C204.514 115.999 205.143 117.869 205.143 120.369V135H200.896V120.767C200.896 119.29 200.494 118.22 199.689 117.557C198.884 116.894 197.923 116.562 196.805 116.562C195.423 116.562 194.348 116.989 193.581 117.841C192.814 118.684 192.43 119.768 192.43 121.094V135H188.197V120.497C188.197 119.313 187.828 118.362 187.089 117.642C186.351 116.922 185.39 116.562 184.206 116.562C183.401 116.562 182.658 116.776 181.976 117.202C181.303 117.618 180.759 118.201 180.342 118.949C179.935 119.697 179.731 120.563 179.731 121.548V135H175.484ZM219.359 135.44C217.21 135.44 215.358 134.981 213.805 134.062C212.262 133.134 211.069 131.832 210.226 130.156C209.392 128.471 208.976 126.496 208.976 124.233C208.976 121.998 209.392 120.028 210.226 118.324C211.069 116.619 212.243 115.289 213.748 114.332C215.264 113.376 217.034 112.898 219.061 112.898C220.292 112.898 221.485 113.101 222.641 113.509C223.796 113.916 224.833 114.555 225.751 115.426C226.67 116.297 227.394 117.429 227.925 118.821C228.455 120.204 228.72 121.884 228.72 123.864V125.369H211.376V122.188H224.558C224.558 121.07 224.331 120.08 223.876 119.219C223.422 118.348 222.783 117.661 221.959 117.159C221.144 116.657 220.188 116.406 219.089 116.406C217.896 116.406 216.855 116.7 215.964 117.287C215.084 117.865 214.402 118.622 213.919 119.56C213.445 120.488 213.209 121.496 213.209 122.585V125.071C213.209 126.529 213.464 127.77 213.976 128.793C214.497 129.815 215.221 130.597 216.149 131.136C217.077 131.667 218.161 131.932 219.402 131.932C220.207 131.932 220.941 131.818 221.604 131.591C222.266 131.354 222.839 131.004 223.322 130.54C223.805 130.076 224.175 129.503 224.43 128.821L228.45 129.545C228.128 130.729 227.551 131.766 226.717 132.656C225.893 133.537 224.856 134.223 223.606 134.716C222.366 135.199 220.95 135.44 219.359 135.44ZM236.8 122.045V135H232.552V113.182H236.629V116.733H236.899C237.401 115.578 238.187 114.65 239.257 113.949C240.337 113.248 241.695 112.898 243.334 112.898C244.82 112.898 246.123 113.21 247.24 113.835C248.357 114.451 249.224 115.369 249.839 116.591C250.455 117.812 250.763 119.323 250.763 121.122V135H246.516V121.634C246.516 120.052 246.104 118.816 245.28 117.926C244.456 117.027 243.324 116.577 241.885 116.577C240.9 116.577 240.024 116.79 239.257 117.216C238.499 117.642 237.898 118.267 237.453 119.091C237.017 119.905 236.8 120.89 236.8 122.045ZM265.763 113.182V116.591H253.846V113.182H265.763ZM257.042 107.955H261.289V128.594C261.289 129.418 261.412 130.038 261.658 130.455C261.904 130.862 262.222 131.141 262.61 131.293C263.008 131.435 263.439 131.506 263.903 131.506C264.243 131.506 264.542 131.482 264.797 131.435C265.053 131.387 265.252 131.349 265.394 131.321L266.161 134.83C265.915 134.924 265.565 135.019 265.11 135.114C264.655 135.218 264.087 135.275 263.405 135.284C262.288 135.303 261.246 135.104 260.28 134.688C259.315 134.271 258.533 133.627 257.937 132.756C257.34 131.884 257.042 130.791 257.042 129.474V107.955Z" fill="black" fill-opacity="0.8"/>
<path d="M520.5 238C520.5 238.828 521.172 239.5 522 239.5C522.828 239.5 523.5 238.828 523.5 238H520.5ZM147.061 180.939C146.475 180.354 145.525 180.354 144.939 180.939L135.393 190.485C134.808 191.071 134.808 192.021 135.393 192.607C135.979 193.192 136.929 193.192 137.515 192.607L146 184.121L154.485 192.607C155.071 193.192 156.021 193.192 156.607 192.607C157.192 192.021 157.192 191.071 156.607 190.485L147.061 180.939ZM523.5 238V234H520.5V238H523.5ZM498 208.5H170V211.5H498V208.5ZM147.5 186V182H144.5V186H147.5ZM170 208.5C157.574 208.5 147.5 198.426 147.5 186H144.5C144.5 200.083 155.917 211.5 170 211.5V208.5ZM523.5 234C523.5 219.917 512.083 208.5 498 208.5V211.5C510.426 211.5 520.5 221.574 520.5 234H523.5Z" fill="#B3B3B3"/>
<rect x="2" y="242" width="288" height="176" rx="6" fill="#FCD19C" stroke="#CAA77D" stroke-width="4" stroke-miterlimit="0" stroke-linecap="round" stroke-dasharray="16 10"/>
<path d="M90.7068 315H81.2891V285.909H91.0051C93.8554 285.909 96.3034 286.491 98.3488 287.656C100.394 288.812 101.961 290.473 103.051 292.642C104.149 294.801 104.698 297.391 104.698 300.412C104.698 303.442 104.144 306.046 103.036 308.224C101.938 310.402 100.347 312.079 98.2636 313.253C96.1802 314.418 93.6613 315 90.7068 315ZM85.6784 311.165H90.4653C92.6812 311.165 94.523 310.748 95.9909 309.915C97.4587 309.072 98.5571 307.855 99.2863 306.264C100.015 304.664 100.38 302.713 100.38 300.412C100.38 298.13 100.015 296.193 99.2863 294.602C98.5666 293.011 97.4918 291.804 96.0619 290.98C94.632 290.156 92.8564 289.744 90.7352 289.744H85.6784V311.165ZM118.339 315.44C116.189 315.44 114.338 314.981 112.785 314.062C111.241 313.134 110.048 311.832 109.205 310.156C108.372 308.471 107.955 306.496 107.955 304.233C107.955 301.998 108.372 300.028 109.205 298.324C110.048 296.619 111.222 295.289 112.728 294.332C114.243 293.376 116.014 292.898 118.041 292.898C119.272 292.898 120.465 293.101 121.62 293.509C122.775 293.916 123.812 294.555 124.731 295.426C125.649 296.297 126.374 297.429 126.904 298.821C127.434 300.204 127.7 301.884 127.7 303.864V305.369H110.356V302.188H123.538C123.538 301.07 123.31 300.08 122.856 299.219C122.401 298.348 121.762 297.661 120.938 297.159C120.124 296.657 119.167 296.406 118.069 296.406C116.876 296.406 115.834 296.7 114.944 297.287C114.063 297.865 113.381 298.622 112.898 299.56C112.425 300.488 112.188 301.496 112.188 302.585V305.071C112.188 306.529 112.444 307.77 112.955 308.793C113.476 309.815 114.201 310.597 115.129 311.136C116.057 311.667 117.141 311.932 118.381 311.932C119.186 311.932 119.92 311.818 120.583 311.591C121.246 311.354 121.819 311.004 122.302 310.54C122.785 310.076 123.154 309.503 123.41 308.821L127.43 309.545C127.108 310.729 126.53 311.766 125.697 312.656C124.873 313.537 123.836 314.223 122.586 314.716C121.345 315.199 119.93 315.44 118.339 315.44ZM149.572 293.182L141.66 315H137.114L129.188 293.182H133.748L139.273 309.972H139.501L145.012 293.182H149.572ZM152.683 315V293.182H156.93V315H152.683ZM154.828 289.815C154.089 289.815 153.455 289.569 152.925 289.077C152.404 288.575 152.143 287.978 152.143 287.287C152.143 286.586 152.404 285.99 152.925 285.497C153.455 284.995 154.089 284.744 154.828 284.744C155.567 284.744 156.196 284.995 156.717 285.497C157.248 285.99 157.513 286.586 157.513 287.287C157.513 287.978 157.248 288.575 156.717 289.077C156.196 289.569 155.567 289.815 154.828 289.815ZM170.955 315.44C168.843 315.44 167.025 314.962 165.5 314.006C163.985 313.04 162.82 311.709 162.006 310.014C161.191 308.319 160.784 306.378 160.784 304.19C160.784 301.974 161.201 300.019 162.034 298.324C162.867 296.619 164.042 295.289 165.557 294.332C167.072 293.376 168.857 292.898 170.912 292.898C172.569 292.898 174.046 293.205 175.344 293.821C176.641 294.427 177.687 295.279 178.483 296.378C179.288 297.476 179.766 298.759 179.918 300.227H175.784C175.557 299.205 175.036 298.324 174.222 297.585C173.417 296.847 172.337 296.477 170.983 296.477C169.799 296.477 168.762 296.79 167.872 297.415C166.991 298.03 166.305 298.911 165.812 300.057C165.32 301.193 165.074 302.538 165.074 304.091C165.074 305.682 165.315 307.055 165.798 308.21C166.281 309.366 166.963 310.26 167.844 310.895C168.734 311.529 169.78 311.847 170.983 311.847C171.788 311.847 172.517 311.7 173.17 311.406C173.833 311.103 174.387 310.672 174.832 310.114C175.287 309.555 175.604 308.883 175.784 308.097H179.918C179.766 309.508 179.307 310.767 178.54 311.875C177.773 312.983 176.745 313.854 175.457 314.489C174.179 315.123 172.678 315.44 170.955 315.44ZM192.983 315.44C190.833 315.44 188.982 314.981 187.429 314.062C185.885 313.134 184.692 311.832 183.849 310.156C183.016 308.471 182.599 306.496 182.599 304.233C182.599 301.998 183.016 300.028 183.849 298.324C184.692 296.619 185.866 295.289 187.372 294.332C188.887 293.376 190.658 292.898 192.685 292.898C193.916 292.898 195.109 293.101 196.264 293.509C197.419 293.916 198.456 294.555 199.375 295.426C200.293 296.297 201.018 297.429 201.548 298.821C202.079 300.204 202.344 301.884 202.344 303.864V305.369H185V302.188H198.182C198.182 301.07 197.954 300.08 197.5 299.219C197.045 298.348 196.406 297.661 195.582 297.159C194.768 296.657 193.811 296.406 192.713 296.406C191.52 296.406 190.478 296.7 189.588 297.287C188.707 297.865 188.026 298.622 187.543 299.56C187.069 300.488 186.832 301.496 186.832 302.585V305.071C186.832 306.529 187.088 307.77 187.599 308.793C188.12 309.815 188.845 310.597 189.773 311.136C190.701 311.667 191.785 311.932 193.026 311.932C193.83 311.932 194.564 311.818 195.227 311.591C195.89 311.354 196.463 311.004 196.946 310.54C197.429 310.076 197.798 309.503 198.054 308.821L202.074 309.545C201.752 310.729 201.174 311.766 200.341 312.656C199.517 313.537 198.48 314.223 197.23 314.716C195.99 315.199 194.574 315.44 192.983 315.44ZM27.5896 345.909H32.9163L42.1777 368.523H42.5186L51.78 345.909H57.1067V375H52.9305V353.949H52.6606L44.0811 374.957H40.6152L32.0356 353.935H31.7658V375H27.5896V345.909ZM68.6166 375.483C67.234 375.483 65.984 375.227 64.8666 374.716C63.7492 374.195 62.8637 373.442 62.2103 372.457C61.5664 371.473 61.2444 370.265 61.2444 368.835C61.2444 367.604 61.4812 366.591 61.9546 365.795C62.4281 365 63.0673 364.37 63.8723 363.906C64.6772 363.442 65.5768 363.092 66.5711 362.855C67.5654 362.618 68.5787 362.438 69.6109 362.315C70.9177 362.164 71.9783 362.041 72.7927 361.946C73.6071 361.842 74.199 361.676 74.5683 361.449C74.9376 361.222 75.1223 360.852 75.1223 360.341V360.241C75.1223 359.001 74.7719 358.04 74.0711 357.358C73.3798 356.676 72.3476 356.335 70.9745 356.335C69.5446 356.335 68.4177 356.652 67.5938 357.287C66.7795 357.912 66.216 358.608 65.9035 359.375L61.912 358.466C62.3855 357.14 63.0768 356.07 63.9859 355.256C64.9045 354.432 65.9603 353.835 67.1535 353.466C68.3467 353.087 69.6014 352.898 70.9177 352.898C71.7889 352.898 72.7122 353.002 73.6876 353.21C74.6724 353.409 75.591 353.778 76.4433 354.318C77.305 354.858 78.0105 355.63 78.5598 356.634C79.109 357.628 79.3836 358.92 79.3836 360.511V375H75.2359V372.017H75.0654C74.7908 372.566 74.3789 373.106 73.8296 373.636C73.2804 374.167 72.5749 374.607 71.7132 374.957C70.8514 375.308 69.8192 375.483 68.6166 375.483ZM69.5399 372.074C70.7141 372.074 71.7179 371.842 72.5512 371.378C73.394 370.914 74.0332 370.308 74.4688 369.56C74.9139 368.802 75.1365 367.992 75.1365 367.131V364.318C74.9849 364.47 74.6914 364.612 74.2558 364.744C73.8296 364.867 73.342 364.976 72.7927 365.071C72.2435 365.156 71.7084 365.237 71.1876 365.312C70.6668 365.379 70.2312 365.436 69.8808 365.483C69.0569 365.587 68.3041 365.762 67.6223 366.009C66.9499 366.255 66.4101 366.61 66.0029 367.074C65.6052 367.528 65.4063 368.134 65.4063 368.892C65.4063 369.943 65.7946 370.739 66.5711 371.278C67.3476 371.809 68.3372 372.074 69.5399 372.074ZM88.4077 362.045V375H84.1606V353.182H88.2373V356.733H88.5072C89.0091 355.578 89.7951 354.65 90.8651 353.949C91.9447 353.248 93.3036 352.898 94.9418 352.898C96.4286 352.898 97.7307 353.21 98.8481 353.835C99.9655 354.451 100.832 355.369 101.448 356.591C102.063 357.812 102.371 359.323 102.371 361.122V375H98.1237V361.634C98.1237 360.052 97.7117 358.816 96.8879 357.926C96.064 357.027 94.9324 356.577 93.493 356.577C92.5081 356.577 91.6322 356.79 90.8651 357.216C90.1076 357.642 89.5062 358.267 89.0612 359.091C88.6255 359.905 88.4077 360.89 88.4077 362.045ZM113.536 375.483C112.154 375.483 110.904 375.227 109.786 374.716C108.669 374.195 107.783 373.442 107.13 372.457C106.486 371.473 106.164 370.265 106.164 368.835C106.164 367.604 106.401 366.591 106.874 365.795C107.348 365 107.987 364.37 108.792 363.906C109.597 363.442 110.496 363.092 111.491 362.855C112.485 362.618 113.498 362.438 114.531 362.315C115.837 362.164 116.898 362.041 117.712 361.946C118.527 361.842 119.119 361.676 119.488 361.449C119.857 361.222 120.042 360.852 120.042 360.341V360.241C120.042 359.001 119.692 358.04 118.991 357.358C118.3 356.676 117.267 356.335 115.894 356.335C114.464 356.335 113.337 356.652 112.514 357.287C111.699 357.912 111.136 358.608 110.823 359.375L106.832 358.466C107.305 357.14 107.996 356.07 108.906 355.256C109.824 354.432 110.88 353.835 112.073 353.466C113.266 353.087 114.521 352.898 115.837 352.898C116.709 352.898 117.632 353.002 118.607 353.21C119.592 353.409 120.511 353.778 121.363 354.318C122.225 354.858 122.93 355.63 123.479 356.634C124.029 357.628 124.303 358.92 124.303 360.511V375H120.156V372.017H119.985C119.711 372.566 119.299 373.106 118.749 373.636C118.2 374.167 117.495 374.607 116.633 374.957C115.771 375.308 114.739 375.483 113.536 375.483ZM114.46 372.074C115.634 372.074 116.638 371.842 117.471 371.378C118.314 370.914 118.953 370.308 119.389 369.56C119.834 368.802 120.056 367.992 120.056 367.131V364.318C119.905 364.47 119.611 364.612 119.175 364.744C118.749 364.867 118.262 364.976 117.712 365.071C117.163 365.156 116.628 365.237 116.107 365.312C115.586 365.379 115.151 365.436 114.8 365.483C113.977 365.587 113.224 365.762 112.542 366.009C111.87 366.255 111.33 366.61 110.923 367.074C110.525 367.528 110.326 368.134 110.326 368.892C110.326 369.943 110.714 370.739 111.491 371.278C112.267 371.809 113.257 372.074 114.46 372.074ZM138.228 383.636C136.495 383.636 135.004 383.409 133.754 382.955C132.513 382.5 131.5 381.899 130.714 381.151C129.928 380.402 129.341 379.583 128.952 378.693L132.603 377.188C132.859 377.604 133.2 378.045 133.626 378.509C134.061 378.982 134.648 379.384 135.387 379.716C136.135 380.047 137.096 380.213 138.271 380.213C139.88 380.213 141.211 379.82 142.262 379.034C143.313 378.258 143.839 377.017 143.839 375.312V371.023H143.569C143.313 371.487 142.944 372.003 142.461 372.571C141.987 373.139 141.334 373.632 140.501 374.048C139.667 374.465 138.583 374.673 137.248 374.673C135.524 374.673 133.971 374.271 132.589 373.466C131.216 372.652 130.127 371.454 129.322 369.872C128.526 368.281 128.129 366.326 128.129 364.006C128.129 361.686 128.522 359.697 129.308 358.04C130.103 356.383 131.192 355.114 132.575 354.233C133.957 353.343 135.524 352.898 137.276 352.898C138.63 352.898 139.724 353.125 140.558 353.58C141.391 354.025 142.04 354.545 142.504 355.142C142.977 355.739 143.342 356.264 143.597 356.719H143.91V353.182H148.072V375.483C148.072 377.358 147.636 378.897 146.765 380.099C145.894 381.302 144.715 382.192 143.228 382.77C141.751 383.348 140.084 383.636 138.228 383.636ZM138.185 371.151C139.407 371.151 140.439 370.866 141.282 370.298C142.134 369.721 142.778 368.897 143.214 367.827C143.659 366.747 143.881 365.455 143.881 363.949C143.881 362.481 143.664 361.188 143.228 360.071C142.792 358.954 142.153 358.082 141.31 357.457C140.468 356.823 139.426 356.506 138.185 356.506C136.907 356.506 135.842 356.837 134.989 357.5C134.137 358.153 133.493 359.044 133.058 360.17C132.631 361.297 132.418 362.557 132.418 363.949C132.418 365.379 132.636 366.634 133.072 367.713C133.507 368.793 134.151 369.635 135.004 370.241C135.865 370.848 136.926 371.151 138.185 371.151ZM162.291 375.44C160.142 375.44 158.29 374.981 156.737 374.062C155.194 373.134 154 371.832 153.158 370.156C152.324 368.471 151.908 366.496 151.908 364.233C151.908 361.998 152.324 360.028 153.158 358.324C154 356.619 155.175 355.289 156.68 354.332C158.196 353.376 159.966 352.898 161.993 352.898C163.224 352.898 164.417 353.101 165.572 353.509C166.728 353.916 167.765 354.555 168.683 355.426C169.602 356.297 170.326 357.429 170.857 358.821C171.387 360.204 171.652 361.884 171.652 363.864V365.369H154.308V362.188H167.49C167.49 361.07 167.263 360.08 166.808 359.219C166.354 358.348 165.714 357.661 164.891 357.159C164.076 356.657 163.12 356.406 162.021 356.406C160.828 356.406 159.786 356.7 158.896 357.287C158.016 357.865 157.334 358.622 156.851 359.56C156.377 360.488 156.141 361.496 156.141 362.585V365.071C156.141 366.529 156.396 367.77 156.908 368.793C157.428 369.815 158.153 370.597 159.081 371.136C160.009 371.667 161.093 371.932 162.334 371.932C163.139 371.932 163.873 371.818 164.535 371.591C165.198 371.354 165.771 371.004 166.254 370.54C166.737 370.076 167.107 369.503 167.362 368.821L171.382 369.545C171.06 370.729 170.482 371.766 169.649 372.656C168.825 373.537 167.788 374.223 166.538 374.716C165.298 375.199 163.882 375.44 162.291 375.44ZM175.484 375V353.182H179.561V356.733H179.831C180.285 355.53 181.029 354.593 182.061 353.92C183.093 353.239 184.329 352.898 185.768 352.898C187.227 352.898 188.448 353.239 189.433 353.92C190.428 354.602 191.161 355.54 191.635 356.733H191.862C192.383 355.568 193.212 354.64 194.348 353.949C195.484 353.248 196.838 352.898 198.41 352.898C200.39 352.898 202.004 353.518 203.254 354.759C204.514 355.999 205.143 357.869 205.143 360.369V375H200.896V360.767C200.896 359.29 200.494 358.22 199.689 357.557C198.884 356.894 197.923 356.562 196.805 356.562C195.423 356.562 194.348 356.989 193.581 357.841C192.814 358.684 192.43 359.768 192.43 361.094V375H188.197V360.497C188.197 359.313 187.828 358.362 187.089 357.642C186.351 356.922 185.39 356.562 184.206 356.562C183.401 356.562 182.658 356.776 181.976 357.202C181.303 357.618 180.759 358.201 180.342 358.949C179.935 359.697 179.731 360.563 179.731 361.548V375H175.484ZM219.359 375.44C217.21 375.44 215.358 374.981 213.805 374.062C212.262 373.134 211.069 371.832 210.226 370.156C209.392 368.471 208.976 366.496 208.976 364.233C208.976 361.998 209.392 360.028 210.226 358.324C211.069 356.619 212.243 355.289 213.748 354.332C215.264 353.376 217.034 352.898 219.061 352.898C220.292 352.898 221.485 353.101 222.641 353.509C223.796 353.916 224.833 354.555 225.751 355.426C226.67 356.297 227.394 357.429 227.925 358.821C228.455 360.204 228.72 361.884 228.72 363.864V365.369H211.376V362.188H224.558C224.558 361.07 224.331 360.08 223.876 359.219C223.422 358.348 222.783 357.661 221.959 357.159C221.144 356.657 220.188 356.406 219.089 356.406C217.896 356.406 216.855 356.7 215.964 357.287C215.084 357.865 214.402 358.622 213.919 359.56C213.445 360.488 213.209 361.496 213.209 362.585V365.071C213.209 366.529 213.464 367.77 213.976 368.793C214.497 369.815 215.221 370.597 216.149 371.136C217.077 371.667 218.161 371.932 219.402 371.932C220.207 371.932 220.941 371.818 221.604 371.591C222.266 371.354 222.839 371.004 223.322 370.54C223.805 370.076 224.175 369.503 224.43 368.821L228.45 369.545C228.128 370.729 227.551 371.766 226.717 372.656C225.893 373.537 224.856 374.223 223.606 374.716C222.366 375.199 220.95 375.44 219.359 375.44ZM236.8 362.045V375H232.552V353.182H236.629V356.733H236.899C237.401 355.578 238.187 354.65 239.257 353.949C240.337 353.248 241.695 352.898 243.334 352.898C244.82 352.898 246.123 353.21 247.24 353.835C248.357 354.451 249.224 355.369 249.839 356.591C250.455 357.812 250.763 359.323 250.763 361.122V375H246.516V361.634C246.516 360.052 246.104 358.816 245.28 357.926C244.456 357.027 243.324 356.577 241.885 356.577C240.9 356.577 240.024 356.79 239.257 357.216C238.499 357.642 237.898 358.267 237.453 359.091C237.017 359.905 236.8 360.89 236.8 362.045ZM265.763 353.182V356.591H253.846V353.182H265.763ZM257.042 347.955H261.289V368.594C261.289 369.418 261.412 370.038 261.658 370.455C261.904 370.862 262.222 371.141 262.61 371.293C263.008 371.435 263.439 371.506 263.903 371.506C264.243 371.506 264.542 371.482 264.797 371.435C265.053 371.387 265.252 371.349 265.394 371.321L266.161 374.83C265.915 374.924 265.565 375.019 265.11 375.114C264.655 375.218 264.087 375.275 263.405 375.284C262.288 375.303 261.246 375.104 260.28 374.688C259.315 374.271 258.533 373.627 257.937 372.756C257.34 371.884 257.042 370.791 257.042 369.474V347.955Z" fill="black" fill-opacity="0.8"/>
<path d="M430 331.5C430.828 331.5 431.5 330.828 431.5 330C431.5 329.172 430.828 328.5 430 328.5V331.5ZM292.939 328.939C292.354 329.525 292.354 330.475 292.939 331.061L302.485 340.607C303.071 341.192 304.021 341.192 304.607 340.607C305.192 340.021 305.192 339.071 304.607 338.485L296.121 330L304.607 321.515C305.192 320.929 305.192 319.979 304.607 319.393C304.021 318.808 303.071 318.808 302.485 319.393L292.939 328.939ZM430 328.5H294V331.5H430V328.5Z" fill="#B3B3B3"/>
<rect x="770" y="482" width="272" height="176" rx="6" fill="#E6E6E6" stroke="#B8B8B8" stroke-width="4" stroke-miterlimit="0" stroke-linecap="round" stroke-dasharray="16 10"/>
<path d="M804.62 533.551C804.468 532.206 803.843 531.165 802.745 530.426C801.646 529.678 800.264 529.304 798.597 529.304C797.404 529.304 796.372 529.493 795.501 529.872C794.629 530.241 793.952 530.753 793.469 531.406C792.996 532.05 792.759 532.784 792.759 533.608C792.759 534.299 792.92 534.896 793.242 535.398C793.573 535.9 794.004 536.321 794.535 536.662C795.074 536.993 795.652 537.273 796.268 537.5C796.883 537.718 797.475 537.898 798.043 538.04L800.884 538.778C801.812 539.006 802.764 539.313 803.739 539.702C804.715 540.09 805.619 540.601 806.452 541.236C807.286 541.87 807.958 542.656 808.469 543.594C808.99 544.531 809.251 545.653 809.251 546.96C809.251 548.608 808.824 550.071 807.972 551.349C807.129 552.628 805.903 553.636 804.293 554.375C802.693 555.114 800.756 555.483 798.483 555.483C796.305 555.483 794.421 555.137 792.83 554.446C791.239 553.755 789.994 552.775 789.094 551.506C788.195 550.227 787.697 548.712 787.603 546.96H792.006C792.091 548.011 792.432 548.887 793.029 549.588C793.635 550.279 794.407 550.795 795.344 551.136C796.291 551.468 797.328 551.634 798.455 551.634C799.696 551.634 800.799 551.439 801.765 551.051C802.74 550.653 803.507 550.104 804.066 549.403C804.625 548.693 804.904 547.865 804.904 546.918C804.904 546.056 804.658 545.35 804.165 544.801C803.682 544.252 803.024 543.797 802.191 543.438C801.367 543.078 800.434 542.76 799.393 542.486L795.955 541.548C793.626 540.914 791.779 539.981 790.415 538.75C789.061 537.519 788.384 535.89 788.384 533.864C788.384 532.187 788.839 530.724 789.748 529.474C790.657 528.224 791.888 527.254 793.441 526.562C794.994 525.862 796.746 525.511 798.697 525.511C800.666 525.511 802.404 525.857 803.91 526.548C805.425 527.24 806.618 528.191 807.489 529.403C808.36 530.606 808.815 531.989 808.853 533.551H804.62ZM822.678 555.44C820.528 555.44 818.677 554.981 817.124 554.062C815.581 553.134 814.387 551.832 813.545 550.156C812.711 548.471 812.295 546.496 812.295 544.233C812.295 541.998 812.711 540.028 813.545 538.324C814.387 536.619 815.562 535.289 817.067 534.332C818.582 533.376 820.353 532.898 822.38 532.898C823.611 532.898 824.804 533.101 825.959 533.509C827.115 533.916 828.152 534.555 829.07 535.426C829.989 536.297 830.713 537.429 831.243 538.821C831.774 540.204 832.039 541.884 832.039 543.864V545.369H814.695V542.188H827.877C827.877 541.07 827.65 540.08 827.195 539.219C826.741 538.348 826.101 537.661 825.277 537.159C824.463 536.657 823.507 536.406 822.408 536.406C821.215 536.406 820.173 536.7 819.283 537.287C818.402 537.865 817.721 538.622 817.238 539.56C816.764 540.488 816.527 541.496 816.527 542.585V545.071C816.527 546.529 816.783 547.77 817.295 548.793C817.815 549.815 818.54 550.597 819.468 551.136C820.396 551.667 821.48 551.932 822.721 551.932C823.526 551.932 824.259 551.818 824.922 551.591C825.585 551.354 826.158 551.004 826.641 550.54C827.124 550.076 827.493 549.503 827.749 548.821L831.769 549.545C831.447 550.729 830.869 551.766 830.036 552.656C829.212 553.537 828.175 554.223 826.925 554.716C825.685 555.199 824.269 555.44 822.678 555.44ZM845.062 555.44C842.95 555.44 841.132 554.962 839.607 554.006C838.092 553.04 836.927 551.709 836.113 550.014C835.298 548.319 834.891 546.378 834.891 544.19C834.891 541.974 835.308 540.019 836.141 538.324C836.974 536.619 838.149 535.289 839.664 534.332C841.179 533.376 842.964 532.898 845.019 532.898C846.676 532.898 848.153 533.205 849.451 533.821C850.748 534.427 851.795 535.279 852.59 536.378C853.395 537.476 853.873 538.759 854.025 540.227H849.891C849.664 539.205 849.143 538.324 848.329 537.585C847.524 536.847 846.444 536.477 845.09 536.477C843.906 536.477 842.869 536.79 841.979 537.415C841.098 538.03 840.412 538.911 839.92 540.057C839.427 541.193 839.181 542.538 839.181 544.091C839.181 545.682 839.422 547.055 839.905 548.21C840.388 549.366 841.07 550.26 841.951 550.895C842.841 551.529 843.887 551.847 845.09 551.847C845.895 551.847 846.624 551.7 847.277 551.406C847.94 551.103 848.494 550.672 848.939 550.114C849.394 549.555 849.711 548.883 849.891 548.097H854.025C853.873 549.508 853.414 550.767 852.647 551.875C851.88 552.983 850.852 553.854 849.564 554.489C848.286 555.123 846.785 555.44 845.062 555.44ZM871.508 545.952V533.182H875.769V555H871.593V551.222H871.365C870.864 552.386 870.059 553.357 868.951 554.134C867.852 554.901 866.484 555.284 864.846 555.284C863.444 555.284 862.204 554.976 861.124 554.361C860.054 553.736 859.211 552.812 858.596 551.591C857.99 550.369 857.687 548.859 857.687 547.06V533.182H861.934V546.548C861.934 548.035 862.346 549.219 863.169 550.099C863.993 550.98 865.063 551.42 866.38 551.42C867.175 551.42 867.966 551.222 868.752 550.824C869.547 550.426 870.205 549.825 870.726 549.02C871.257 548.215 871.517 547.192 871.508 545.952ZM880.596 555V533.182H884.701V536.648H884.928C885.326 535.473 886.026 534.55 887.03 533.878C888.044 533.196 889.189 532.855 890.468 532.855C890.733 532.855 891.045 532.865 891.405 532.884C891.775 532.902 892.063 532.926 892.272 532.955V537.017C892.101 536.97 891.798 536.918 891.363 536.861C890.927 536.795 890.491 536.761 890.056 536.761C889.052 536.761 888.157 536.974 887.371 537.401C886.595 537.817 885.979 538.4 885.525 539.148C885.07 539.886 884.843 540.729 884.843 541.676V555H880.596ZM895.067 555V533.182H899.314V555H895.067ZM897.212 529.815C896.473 529.815 895.839 529.569 895.309 529.077C894.788 528.575 894.527 527.978 894.527 527.287C894.527 526.586 894.788 525.99 895.309 525.497C895.839 524.995 896.473 524.744 897.212 524.744C897.951 524.744 898.58 524.995 899.101 525.497C899.632 525.99 899.897 526.586 899.897 527.287C899.897 527.978 899.632 528.575 899.101 529.077C898.58 529.569 897.951 529.815 897.212 529.815ZM914.333 533.182V536.591H902.415V533.182H914.333ZM905.611 527.955H909.858V548.594C909.858 549.418 909.981 550.038 910.228 550.455C910.474 550.862 910.791 551.141 911.179 551.293C911.577 551.435 912.008 551.506 912.472 551.506C912.813 551.506 913.111 551.482 913.367 551.435C913.623 551.387 913.821 551.349 913.963 551.321L914.73 554.83C914.484 554.924 914.134 555.019 913.679 555.114C913.225 555.218 912.657 555.275 911.975 555.284C910.857 555.303 909.816 555.104 908.85 554.688C907.884 554.271 907.103 553.627 906.506 552.756C905.909 551.884 905.611 550.791 905.611 549.474V527.955ZM920.836 563.182C920.201 563.182 919.623 563.13 919.103 563.026C918.582 562.931 918.194 562.827 917.938 562.713L918.961 559.233C919.737 559.441 920.428 559.531 921.034 559.503C921.64 559.474 922.176 559.247 922.64 558.821C923.113 558.395 923.53 557.699 923.89 556.733L924.415 555.284L916.432 533.182H920.978L926.503 550.114H926.73L932.256 533.182H936.816L927.824 557.912C927.408 559.048 926.877 560.009 926.233 560.795C925.589 561.591 924.822 562.188 923.932 562.585C923.042 562.983 922.01 563.182 920.836 563.182ZM955.983 555.483C954.6 555.483 953.35 555.227 952.233 554.716C951.115 554.195 950.23 553.442 949.576 552.457C948.932 551.473 948.61 550.265 948.61 548.835C948.61 547.604 948.847 546.591 949.321 545.795C949.794 545 950.433 544.37 951.238 543.906C952.043 543.442 952.943 543.092 953.937 542.855C954.931 542.618 955.945 542.438 956.977 542.315C958.284 542.164 959.344 542.041 960.159 541.946C960.973 541.842 961.565 541.676 961.934 541.449C962.304 541.222 962.488 540.852 962.488 540.341V540.241C962.488 539.001 962.138 538.04 961.437 537.358C960.746 536.676 959.714 536.335 958.34 536.335C956.911 536.335 955.784 536.652 954.96 537.287C954.145 537.912 953.582 538.608 953.269 539.375L949.278 538.466C949.751 537.14 950.443 536.07 951.352 535.256C952.27 534.432 953.326 533.835 954.519 533.466C955.713 533.087 956.967 532.898 958.284 532.898C959.155 532.898 960.078 533.002 961.054 533.21C962.038 533.409 962.957 533.778 963.809 534.318C964.671 534.858 965.376 535.63 965.926 536.634C966.475 537.628 966.75 538.92 966.75 540.511V555H962.602V552.017H962.431C962.157 552.566 961.745 553.106 961.196 553.636C960.646 554.167 959.941 554.607 959.079 554.957C958.217 555.308 957.185 555.483 955.983 555.483ZM956.906 552.074C958.08 552.074 959.084 551.842 959.917 551.378C960.76 550.914 961.399 550.308 961.835 549.56C962.28 548.802 962.502 547.992 962.502 547.131V544.318C962.351 544.47 962.057 544.612 961.622 544.744C961.196 544.867 960.708 544.976 960.159 545.071C959.609 545.156 959.074 545.237 958.554 545.312C958.033 545.379 957.597 545.436 957.247 545.483C956.423 545.587 955.67 545.762 954.988 546.009C954.316 546.255 953.776 546.61 953.369 547.074C952.971 547.528 952.772 548.134 952.772 548.892C952.772 549.943 953.161 550.739 953.937 551.278C954.714 551.809 955.703 552.074 956.906 552.074ZM975.774 542.045V555H971.527V533.182H975.603V536.733H975.873C976.375 535.578 977.161 534.65 978.231 533.949C979.311 533.248 980.67 532.898 982.308 532.898C983.795 532.898 985.097 533.21 986.214 533.835C987.331 534.451 988.198 535.369 988.813 536.591C989.429 537.812 989.737 539.323 989.737 541.122V555H985.49V541.634C985.49 540.052 985.078 538.816 984.254 537.926C983.43 537.027 982.298 536.577 980.859 536.577C979.874 536.577 978.998 536.79 978.231 537.216C977.473 537.642 976.872 538.267 976.427 539.091C975.991 539.905 975.774 540.89 975.774 542.045ZM1002.72 555.426C1000.96 555.426 999.387 554.976 998.004 554.077C996.631 553.168 995.552 551.875 994.766 550.199C993.989 548.513 993.601 546.491 993.601 544.134C993.601 541.776 993.994 539.759 994.78 538.082C995.576 536.406 996.665 535.123 998.047 534.233C999.43 533.343 1001 532.898 1002.75 532.898C1004.1 532.898 1005.19 533.125 1006.02 533.58C1006.85 534.025 1007.49 534.545 1007.95 535.142C1008.41 535.739 1008.77 536.264 1009.03 536.719H1009.28V525.909H1013.53V555H1009.38V551.605H1009.03C1008.77 552.069 1008.4 552.599 1007.92 553.196C1007.45 553.793 1006.79 554.313 1005.96 554.759C1005.13 555.204 1004.05 555.426 1002.72 555.426ZM1003.66 551.804C1004.88 551.804 1005.91 551.482 1006.75 550.838C1007.61 550.185 1008.25 549.28 1008.69 548.125C1009.13 546.97 1009.35 545.625 1009.35 544.091C1009.35 542.576 1009.14 541.25 1008.7 540.114C1008.26 538.977 1007.63 538.092 1006.78 537.457C1005.94 536.823 1004.9 536.506 1003.66 536.506C1002.38 536.506 1001.31 536.837 1000.46 537.5C999.61 538.163 998.966 539.067 998.53 540.213C998.104 541.359 997.891 542.652 997.891 544.091C997.891 545.549 998.109 546.861 998.544 548.026C998.98 549.19 999.624 550.114 1000.48 550.795C1001.34 551.468 1002.4 551.804 1003.66 551.804ZM814.191 615V585.909H824.56C826.824 585.909 828.699 586.321 830.185 587.145C831.672 587.969 832.785 589.096 833.524 590.526C834.262 591.946 834.632 593.546 834.632 595.327C834.632 597.116 834.257 598.726 833.509 600.156C832.771 601.577 831.653 602.704 830.157 603.537C828.67 604.361 826.8 604.773 824.546 604.773H817.416V601.051H824.149C825.578 601.051 826.739 600.805 827.629 600.312C828.519 599.811 829.172 599.129 829.589 598.267C830.006 597.405 830.214 596.425 830.214 595.327C830.214 594.228 830.006 593.253 829.589 592.401C829.172 591.548 828.514 590.881 827.614 590.398C826.724 589.915 825.55 589.673 824.092 589.673H818.58V615H814.191ZM838.556 615V593.182H842.661V596.648H842.889C843.286 595.473 843.987 594.55 844.991 593.878C846.004 593.196 847.15 592.855 848.428 592.855C848.694 592.855 849.006 592.865 849.366 592.884C849.735 592.902 850.024 592.926 850.232 592.955V597.017C850.062 596.97 849.759 596.918 849.323 596.861C848.888 596.795 848.452 596.761 848.016 596.761C847.013 596.761 846.118 596.974 845.332 597.401C844.555 597.817 843.94 598.4 843.485 599.148C843.031 599.886 842.803 600.729 842.803 601.676V615H838.556ZM861.437 615.44C859.391 615.44 857.606 614.972 856.082 614.034C854.557 613.097 853.373 611.785 852.531 610.099C851.688 608.414 851.266 606.444 851.266 604.19C851.266 601.927 851.688 599.948 852.531 598.253C853.373 596.558 854.557 595.241 856.082 594.304C857.606 593.366 859.391 592.898 861.437 592.898C863.482 592.898 865.267 593.366 866.792 594.304C868.317 595.241 869.5 596.558 870.343 598.253C871.186 599.948 871.607 601.927 871.607 604.19C871.607 606.444 871.186 608.414 870.343 610.099C869.5 611.785 868.317 613.097 866.792 614.034C865.267 614.972 863.482 615.44 861.437 615.44ZM861.451 611.875C862.777 611.875 863.875 611.525 864.747 610.824C865.618 610.123 866.262 609.19 866.678 608.026C867.104 606.861 867.318 605.578 867.318 604.176C867.318 602.784 867.104 601.506 866.678 600.341C866.262 599.167 865.618 598.224 864.747 597.514C863.875 596.804 862.777 596.449 861.451 596.449C860.116 596.449 859.008 596.804 858.127 597.514C857.256 598.224 856.607 599.167 856.181 600.341C855.765 601.506 855.556 602.784 855.556 604.176C855.556 605.578 855.765 606.861 856.181 608.026C856.607 609.19 857.256 610.123 858.127 610.824C859.008 611.525 860.116 611.875 861.451 611.875ZM885.653 593.182V596.591H873.735V593.182H885.653ZM876.931 587.955H881.178V608.594C881.178 609.418 881.301 610.038 881.548 610.455C881.794 610.862 882.111 611.141 882.499 611.293C882.897 611.435 883.328 611.506 883.792 611.506C884.133 611.506 884.431 611.482 884.687 611.435C884.943 611.387 885.141 611.349 885.283 611.321L886.05 614.83C885.804 614.924 885.454 615.019 884.999 615.114C884.545 615.218 883.977 615.275 883.295 615.284C882.177 615.303 881.136 615.104 880.17 614.688C879.204 614.271 878.423 613.627 877.826 612.756C877.229 611.884 876.931 610.791 876.931 609.474V587.955ZM898.64 615.44C896.49 615.44 894.639 614.981 893.086 614.062C891.542 613.134 890.349 611.832 889.506 610.156C888.673 608.471 888.256 606.496 888.256 604.233C888.256 601.998 888.673 600.028 889.506 598.324C890.349 596.619 891.523 595.289 893.029 594.332C894.544 593.376 896.315 592.898 898.342 592.898C899.573 592.898 900.766 593.101 901.921 593.509C903.076 593.916 904.113 594.555 905.032 595.426C905.951 596.297 906.675 597.429 907.205 598.821C907.736 600.204 908.001 601.884 908.001 603.864V605.369H890.657V602.188H903.839C903.839 601.07 903.612 600.08 903.157 599.219C902.702 598.348 902.063 597.661 901.239 597.159C900.425 596.657 899.469 596.406 898.37 596.406C897.177 596.406 896.135 596.7 895.245 597.287C894.364 597.865 893.683 598.622 893.2 599.56C892.726 600.488 892.489 601.496 892.489 602.585V605.071C892.489 606.529 892.745 607.77 893.256 608.793C893.777 609.815 894.502 610.597 895.43 611.136C896.358 611.667 897.442 611.932 898.683 611.932C899.487 611.932 900.221 611.818 900.884 611.591C901.547 611.354 902.12 611.004 902.603 610.54C903.086 610.076 903.455 609.503 903.711 608.821L907.731 609.545C907.409 610.729 906.831 611.766 905.998 612.656C905.174 613.537 904.137 614.223 902.887 614.716C901.647 615.199 900.231 615.44 898.64 615.44ZM921.023 615.44C918.912 615.44 917.093 614.962 915.569 614.006C914.054 613.04 912.889 611.709 912.075 610.014C911.26 608.319 910.853 606.378 910.853 604.19C910.853 601.974 911.27 600.019 912.103 598.324C912.936 596.619 914.111 595.289 915.626 594.332C917.141 593.376 918.926 592.898 920.981 592.898C922.638 592.898 924.115 593.205 925.413 593.821C926.71 594.427 927.756 595.279 928.552 596.378C929.357 597.476 929.835 598.759 929.986 600.227H925.853C925.626 599.205 925.105 598.324 924.29 597.585C923.486 596.847 922.406 596.477 921.052 596.477C919.868 596.477 918.831 596.79 917.941 597.415C917.06 598.03 916.374 598.911 915.881 600.057C915.389 601.193 915.143 602.538 915.143 604.091C915.143 605.682 915.384 607.055 915.867 608.21C916.35 609.366 917.032 610.26 917.913 610.895C918.803 611.529 919.849 611.847 921.052 611.847C921.857 611.847 922.586 611.7 923.239 611.406C923.902 611.103 924.456 610.672 924.901 610.114C925.356 609.555 925.673 608.883 925.853 608.097H929.986C929.835 609.508 929.376 610.767 928.609 611.875C927.842 612.983 926.814 613.854 925.526 614.489C924.248 615.123 922.747 615.44 921.023 615.44ZM943.833 593.182V596.591H931.915V593.182H943.833ZM935.111 587.955H939.359V608.594C939.359 609.418 939.482 610.038 939.728 610.455C939.974 610.862 940.291 611.141 940.68 611.293C941.077 611.435 941.508 611.506 941.972 611.506C942.313 611.506 942.611 611.482 942.867 611.435C943.123 611.387 943.322 611.349 943.464 611.321L944.231 614.83C943.985 614.924 943.634 615.019 943.18 615.114C942.725 615.218 942.157 615.275 941.475 615.284C940.358 615.303 939.316 615.104 938.35 614.688C937.384 614.271 936.603 613.627 936.006 612.756C935.41 611.884 935.111 610.791 935.111 609.474V587.955ZM947.651 615V593.182H951.898V615H947.651ZM949.796 589.815C949.057 589.815 948.423 589.569 947.893 589.077C947.372 588.575 947.111 587.978 947.111 587.287C947.111 586.586 947.372 585.99 947.893 585.497C948.423 584.995 949.057 584.744 949.796 584.744C950.535 584.744 951.164 584.995 951.685 585.497C952.216 585.99 952.481 586.586 952.481 587.287C952.481 587.978 952.216 588.575 951.685 589.077C951.164 589.569 950.535 589.815 949.796 589.815ZM965.922 615.44C963.877 615.44 962.092 614.972 960.567 614.034C959.043 613.097 957.859 611.785 957.016 610.099C956.173 608.414 955.752 606.444 955.752 604.19C955.752 601.927 956.173 599.948 957.016 598.253C957.859 596.558 959.043 595.241 960.567 594.304C962.092 593.366 963.877 592.898 965.922 592.898C967.968 592.898 969.753 593.366 971.278 594.304C972.802 595.241 973.986 596.558 974.829 598.253C975.672 599.948 976.093 601.927 976.093 604.19C976.093 606.444 975.672 608.414 974.829 610.099C973.986 611.785 972.802 613.097 971.278 614.034C969.753 614.972 967.968 615.44 965.922 615.44ZM965.937 611.875C967.262 611.875 968.361 611.525 969.232 610.824C970.103 610.123 970.747 609.19 971.164 608.026C971.59 606.861 971.803 605.578 971.803 604.176C971.803 602.784 971.59 601.506 971.164 600.341C970.747 599.167 970.103 598.224 969.232 597.514C968.361 596.804 967.262 596.449 965.937 596.449C964.601 596.449 963.494 596.804 962.613 597.514C961.742 598.224 961.093 599.167 960.667 600.341C960.25 601.506 960.042 602.784 960.042 604.176C960.042 605.578 960.25 606.861 960.667 608.026C961.093 609.19 961.742 610.123 962.613 610.824C963.494 611.525 964.601 611.875 965.937 611.875ZM984.201 602.045V615H979.954V593.182H984.03V596.733H984.3C984.802 595.578 985.588 594.65 986.658 593.949C987.738 593.248 989.097 592.898 990.735 592.898C992.222 592.898 993.524 593.21 994.641 593.835C995.759 594.451 996.625 595.369 997.241 596.591C997.856 597.812 998.164 599.323 998.164 601.122V615H993.917V601.634C993.917 600.052 993.505 598.816 992.681 597.926C991.857 597.027 990.725 596.577 989.286 596.577C988.301 596.577 987.425 596.79 986.658 597.216C985.901 597.642 985.299 598.267 984.854 599.091C984.419 599.905 984.201 600.89 984.201 602.045Z" fill="black" fill-opacity="0.8"/>
<path d="M523.5 422C523.5 421.172 522.828 420.5 522 420.5C521.172 420.5 520.5 421.172 520.5 422H523.5ZM904.939 479.061C905.525 479.646 906.475 479.646 907.061 479.061L916.607 469.515C917.192 468.929 917.192 467.979 916.607 467.393C916.021 466.808 915.071 466.808 914.485 467.393L906 475.879L897.515 467.393C896.929 466.808 895.979 466.808 895.393 467.393C894.808 467.979 894.808 468.929 895.393 469.515L904.939 479.061ZM520.5 422V426H523.5V422H520.5ZM546 451.5H882V448.5H546V451.5ZM904.5 474V478H907.5V474H904.5ZM882 451.5C894.426 451.5 904.5 461.574 904.5 474H907.5C907.5 459.917 896.083 448.5 882 448.5V451.5ZM520.5 426C520.5 440.083 531.917 451.5 546 451.5V448.5C533.574 448.5 523.5 438.426 523.5 426H520.5Z" fill="#B3B3B3"/>
<rect x="770" y="242" width="272" height="176" rx="6" fill="#E4CCFF" stroke="#B6A3CC" stroke-width="4" stroke-miterlimit="0" stroke-linecap="round" stroke-dasharray="16 10"/>
<path d="M880.924 285.909H885.299V306.534C885.299 308.4 884.93 309.995 884.191 311.321C883.462 312.647 882.435 313.66 881.109 314.361C879.783 315.052 878.23 315.398 876.45 315.398C874.812 315.398 873.339 315.099 872.032 314.503C870.735 313.906 869.708 313.04 868.95 311.903C868.202 310.758 867.828 309.366 867.828 307.727H872.189C872.189 308.532 872.373 309.228 872.743 309.815C873.121 310.402 873.637 310.862 874.291 311.193C874.954 311.515 875.711 311.676 876.564 311.676C877.492 311.676 878.278 311.482 878.922 311.094C879.575 310.696 880.072 310.114 880.413 309.347C880.754 308.58 880.924 307.642 880.924 306.534V285.909ZM899.657 315.44C897.612 315.44 895.827 314.972 894.302 314.034C892.778 313.097 891.594 311.785 890.751 310.099C889.908 308.414 889.487 306.444 889.487 304.19C889.487 301.927 889.908 299.948 890.751 298.253C891.594 296.558 892.778 295.241 894.302 294.304C895.827 293.366 897.612 292.898 899.657 292.898C901.703 292.898 903.488 293.366 905.012 294.304C906.537 295.241 907.721 296.558 908.564 298.253C909.406 299.948 909.828 301.927 909.828 304.19C909.828 306.444 909.406 308.414 908.564 310.099C907.721 311.785 906.537 313.097 905.012 314.034C903.488 314.972 901.703 315.44 899.657 315.44ZM899.672 311.875C900.997 311.875 902.096 311.525 902.967 310.824C903.838 310.123 904.482 309.19 904.899 308.026C905.325 306.861 905.538 305.578 905.538 304.176C905.538 302.784 905.325 301.506 904.899 300.341C904.482 299.167 903.838 298.224 902.967 297.514C902.096 296.804 900.997 296.449 899.672 296.449C898.336 296.449 897.228 296.804 896.348 297.514C895.476 298.224 894.828 299.167 894.402 300.341C893.985 301.506 893.777 302.784 893.777 304.176C893.777 305.578 893.985 306.861 894.402 308.026C894.828 309.19 895.476 310.123 896.348 310.824C897.228 311.525 898.336 311.875 899.672 311.875ZM914.029 315V285.909H918.277V296.719H918.532C918.779 296.264 919.134 295.739 919.598 295.142C920.062 294.545 920.706 294.025 921.529 293.58C922.353 293.125 923.442 292.898 924.797 292.898C926.558 292.898 928.13 293.343 929.512 294.233C930.895 295.123 931.979 296.406 932.765 298.082C933.561 299.759 933.958 301.776 933.958 304.134C933.958 306.491 933.565 308.513 932.779 310.199C931.993 311.875 930.914 313.168 929.541 314.077C928.168 314.976 926.6 315.426 924.839 315.426C923.513 315.426 922.429 315.204 921.586 314.759C920.753 314.313 920.1 313.793 919.626 313.196C919.153 312.599 918.788 312.069 918.532 311.605H918.177V315H914.029ZM918.191 304.091C918.191 305.625 918.414 306.97 918.859 308.125C919.304 309.28 919.948 310.185 920.791 310.838C921.634 311.482 922.666 311.804 923.887 311.804C925.156 311.804 926.217 311.468 927.069 310.795C927.922 310.114 928.565 309.19 929.001 308.026C929.446 306.861 929.669 305.549 929.669 304.091C929.669 302.652 929.451 301.359 929.015 300.213C928.589 299.067 927.945 298.163 927.083 297.5C926.231 296.837 925.166 296.506 923.887 296.506C922.656 296.506 921.615 296.823 920.762 297.457C919.92 298.092 919.28 298.977 918.845 300.114C918.409 301.25 918.191 302.576 918.191 304.091ZM822.362 353.551C822.211 352.206 821.586 351.165 820.487 350.426C819.389 349.678 818.006 349.304 816.34 349.304C815.146 349.304 814.114 349.493 813.243 349.872C812.372 350.241 811.695 350.753 811.212 351.406C810.738 352.05 810.502 352.784 810.502 353.608C810.502 354.299 810.663 354.896 810.985 355.398C811.316 355.9 811.747 356.321 812.277 356.662C812.817 356.993 813.395 357.273 814.01 357.5C814.626 357.718 815.217 357.898 815.786 358.04L818.627 358.778C819.555 359.006 820.506 359.313 821.482 359.702C822.457 360.09 823.361 360.601 824.195 361.236C825.028 361.87 825.7 362.656 826.212 363.594C826.733 364.531 826.993 365.653 826.993 366.96C826.993 368.608 826.567 370.071 825.715 371.349C824.872 372.628 823.645 373.636 822.036 374.375C820.435 375.114 818.499 375.483 816.226 375.483C814.048 375.483 812.163 375.137 810.573 374.446C808.982 373.755 807.736 372.775 806.837 371.506C805.937 370.227 805.44 368.712 805.345 366.96H809.749C809.834 368.011 810.175 368.887 810.771 369.588C811.377 370.279 812.149 370.795 813.087 371.136C814.034 371.468 815.071 371.634 816.198 371.634C817.438 371.634 818.541 371.439 819.507 371.051C820.483 370.653 821.25 370.104 821.808 369.403C822.367 368.693 822.646 367.865 822.646 366.918C822.646 366.056 822.4 365.35 821.908 364.801C821.425 364.252 820.767 363.797 819.933 363.438C819.11 363.078 818.177 362.76 817.135 362.486L813.698 361.548C811.368 360.914 809.521 359.981 808.158 358.75C806.804 357.519 806.127 355.89 806.127 353.864C806.127 352.187 806.581 350.724 807.49 349.474C808.399 348.224 809.63 347.254 811.183 346.562C812.736 345.862 814.488 345.511 816.439 345.511C818.409 345.511 820.146 345.857 821.652 346.548C823.167 347.24 824.36 348.191 825.232 349.403C826.103 350.606 826.557 351.989 826.595 353.551H822.362ZM840.207 375.44C838.096 375.44 836.278 374.962 834.753 374.006C833.238 373.04 832.073 371.709 831.259 370.014C830.444 368.319 830.037 366.378 830.037 364.19C830.037 361.974 830.454 360.019 831.287 358.324C832.12 356.619 833.295 355.289 834.81 354.332C836.325 353.376 838.11 352.898 840.165 352.898C841.822 352.898 843.299 353.205 844.597 353.821C845.894 354.427 846.94 355.279 847.736 356.378C848.541 357.476 849.019 358.759 849.171 360.227H845.037C844.81 359.205 844.289 358.324 843.475 357.585C842.67 356.847 841.59 356.477 840.236 356.477C839.052 356.477 838.015 356.79 837.125 357.415C836.244 358.03 835.558 358.911 835.065 360.057C834.573 361.193 834.327 362.538 834.327 364.091C834.327 365.682 834.568 367.055 835.051 368.21C835.534 369.366 836.216 370.26 837.097 370.895C837.987 371.529 839.033 371.847 840.236 371.847C841.041 371.847 841.77 371.7 842.423 371.406C843.086 371.103 843.64 370.672 844.085 370.114C844.54 369.555 844.857 368.883 845.037 368.097H849.171C849.019 369.508 848.56 370.767 847.793 371.875C847.026 372.983 845.998 373.854 844.71 374.489C843.432 375.123 841.931 375.44 840.207 375.44ZM857.08 362.045V375H852.832V345.909H857.023V356.733H857.293C857.804 355.559 858.585 354.626 859.636 353.935C860.688 353.243 862.061 352.898 863.756 352.898C865.252 352.898 866.559 353.205 867.676 353.821C868.803 354.437 869.674 355.355 870.29 356.577C870.915 357.789 871.227 359.304 871.227 361.122V375H866.98V361.634C866.98 360.033 866.568 358.793 865.744 357.912C864.921 357.022 863.775 356.577 862.307 356.577C861.303 356.577 860.403 356.79 859.608 357.216C858.822 357.642 858.202 358.267 857.747 359.091C857.302 359.905 857.08 360.89 857.08 362.045ZM885.418 375.44C883.269 375.44 881.417 374.981 879.864 374.062C878.321 373.134 877.128 371.832 876.285 370.156C875.452 368.471 875.035 366.496 875.035 364.233C875.035 361.998 875.452 360.028 876.285 358.324C877.128 356.619 878.302 355.289 879.808 354.332C881.323 353.376 883.094 352.898 885.12 352.898C886.351 352.898 887.544 353.101 888.7 353.509C889.855 353.916 890.892 354.555 891.81 355.426C892.729 356.297 893.453 357.429 893.984 358.821C894.514 360.204 894.779 361.884 894.779 363.864V365.369H877.435V362.188H890.617C890.617 361.07 890.39 360.08 889.935 359.219C889.481 358.348 888.842 357.661 888.018 357.159C887.203 356.657 886.247 356.406 885.148 356.406C883.955 356.406 882.914 356.7 882.023 357.287C881.143 357.865 880.461 358.622 879.978 359.56C879.505 360.488 879.268 361.496 879.268 362.585V365.071C879.268 366.529 879.523 367.77 880.035 368.793C880.556 369.815 881.28 370.597 882.208 371.136C883.136 371.667 884.22 371.932 885.461 371.932C886.266 371.932 887 371.818 887.663 371.591C888.326 371.354 888.898 371.004 889.381 370.54C889.864 370.076 890.234 369.503 890.489 368.821L894.509 369.545C894.187 370.729 893.61 371.766 892.776 372.656C891.952 373.537 890.916 374.223 889.666 374.716C888.425 375.199 887.009 375.44 885.418 375.44ZM906.779 375.426C905.018 375.426 903.446 374.976 902.063 374.077C900.69 373.168 899.611 371.875 898.825 370.199C898.048 368.513 897.66 366.491 897.66 364.134C897.66 361.776 898.053 359.759 898.839 358.082C899.634 356.406 900.723 355.123 902.106 354.233C903.488 353.343 905.056 352.898 906.808 352.898C908.162 352.898 909.251 353.125 910.075 353.58C910.908 354.025 911.552 354.545 912.006 355.142C912.47 355.739 912.83 356.264 913.086 356.719H913.342V345.909H917.589V375H913.441V371.605H913.086C912.83 372.069 912.461 372.599 911.978 373.196C911.505 373.793 910.851 374.313 910.018 374.759C909.184 375.204 908.105 375.426 906.779 375.426ZM907.717 371.804C908.938 371.804 909.97 371.482 910.813 370.838C911.665 370.185 912.309 369.28 912.745 368.125C913.19 366.97 913.413 365.625 913.413 364.091C913.413 362.576 913.195 361.25 912.759 360.114C912.324 358.977 911.684 358.092 910.842 357.457C909.999 356.823 908.957 356.506 907.717 356.506C906.438 356.506 905.373 356.837 904.521 357.5C903.668 358.163 903.024 359.067 902.589 360.213C902.163 361.359 901.95 362.652 901.95 364.091C901.95 365.549 902.167 366.861 902.603 368.026C903.039 369.19 903.683 370.114 904.535 370.795C905.397 371.468 906.457 371.804 907.717 371.804ZM936.592 365.952V353.182H940.853V375H936.677V371.222H936.45C935.948 372.386 935.143 373.357 934.035 374.134C932.936 374.901 931.568 375.284 929.93 375.284C928.528 375.284 927.288 374.976 926.208 374.361C925.138 373.736 924.295 372.812 923.68 371.591C923.074 370.369 922.771 368.859 922.771 367.06V353.182H927.018V366.548C927.018 368.035 927.43 369.219 928.254 370.099C929.077 370.98 930.147 371.42 931.464 371.42C932.259 371.42 933.05 371.222 933.836 370.824C934.631 370.426 935.29 369.825 935.81 369.02C936.341 368.215 936.601 367.192 936.592 365.952ZM949.927 345.909V375H945.68V345.909H949.927ZM954.761 375V353.182H959.008V375H954.761ZM956.905 349.815C956.167 349.815 955.532 349.569 955.002 349.077C954.481 348.575 954.221 347.978 954.221 347.287C954.221 346.586 954.481 345.99 955.002 345.497C955.532 344.995 956.167 344.744 956.905 344.744C957.644 344.744 958.274 344.995 958.795 345.497C959.325 345.99 959.59 346.586 959.59 347.287C959.59 347.978 959.325 348.575 958.795 349.077C958.274 349.569 957.644 349.815 956.905 349.815ZM968.089 362.045V375H963.842V353.182H967.918V356.733H968.188C968.69 355.578 969.476 354.65 970.546 353.949C971.626 353.248 972.985 352.898 974.623 352.898C976.11 352.898 977.412 353.21 978.529 353.835C979.646 354.451 980.513 355.369 981.128 356.591C981.744 357.812 982.052 359.323 982.052 361.122V375H977.805V361.634C977.805 360.052 977.393 358.816 976.569 357.926C975.745 357.027 974.613 356.577 973.174 356.577C972.189 356.577 971.313 356.79 970.546 357.216C969.789 357.642 969.187 358.267 968.742 359.091C968.306 359.905 968.089 360.89 968.089 362.045ZM996.016 383.636C994.283 383.636 992.791 383.409 991.541 382.955C990.301 382.5 989.287 381.899 988.501 381.151C987.715 380.402 987.128 379.583 986.74 378.693L990.391 377.188C990.646 377.604 990.987 378.045 991.413 378.509C991.849 378.982 992.436 379.384 993.175 379.716C993.923 380.047 994.884 380.213 996.058 380.213C997.668 380.213 998.998 379.82 1000.05 379.034C1001.1 378.258 1001.63 377.017 1001.63 375.312V371.023H1001.36C1001.1 371.487 1000.73 372.003 1000.25 372.571C999.775 373.139 999.122 373.632 998.288 374.048C997.455 374.465 996.371 374.673 995.035 374.673C993.312 374.673 991.759 374.271 990.376 373.466C989.003 372.652 987.914 371.454 987.109 369.872C986.314 368.281 985.916 366.326 985.916 364.006C985.916 361.686 986.309 359.697 987.095 358.04C987.891 356.383 988.98 355.114 990.362 354.233C991.745 353.343 993.312 352.898 995.064 352.898C996.418 352.898 997.512 353.125 998.345 353.58C999.178 354.025 999.827 354.545 1000.29 355.142C1000.76 355.739 1001.13 356.264 1001.38 356.719H1001.7V353.182H1005.86V375.483C1005.86 377.358 1005.42 378.897 1004.55 380.099C1003.68 381.302 1002.5 382.192 1001.02 382.77C999.538 383.348 997.872 383.636 996.016 383.636ZM995.973 371.151C997.194 371.151 998.227 370.866 999.069 370.298C999.922 369.721 1000.57 368.897 1001 367.827C1001.45 366.747 1001.67 365.455 1001.67 363.949C1001.67 362.481 1001.45 361.188 1001.02 360.071C1000.58 358.954 999.941 358.082 999.098 357.457C998.255 356.823 997.213 356.506 995.973 356.506C994.694 356.506 993.629 356.837 992.777 357.5C991.925 358.153 991.281 359.044 990.845 360.17C990.419 361.297 990.206 362.557 990.206 363.949C990.206 365.379 990.424 366.634 990.859 367.713C991.295 368.793 991.939 369.635 992.791 370.241C993.653 370.848 994.713 371.151 995.973 371.151Z" fill="black" fill-opacity="0.8"/>
<rect x="2" y="482" width="272" height="176" rx="6" fill="#FFE8A3" stroke="#CCBA82" stroke-width="4" stroke-miterlimit="0" stroke-linecap="round" stroke-dasharray="16 10"/>
<path d="M111.488 525.909H115.891V545.043C115.891 547.079 115.413 548.883 114.456 550.455C113.5 552.017 112.155 553.248 110.422 554.148C108.689 555.038 106.658 555.483 104.329 555.483C102.008 555.483 99.9819 555.038 98.249 554.148C96.516 553.248 95.1713 552.017 94.2149 550.455C93.2585 548.883 92.7802 547.079 92.7802 545.043V525.909H97.1694V544.688C97.1694 546.004 97.4583 547.173 98.0359 548.196C98.623 549.219 99.4516 550.024 100.522 550.611C101.592 551.188 102.861 551.477 104.329 551.477C105.806 551.477 107.079 551.188 108.15 550.611C109.229 550.024 110.053 549.219 110.621 548.196C111.199 547.173 111.488 546.004 111.488 544.688V525.909ZM137.401 538.509L133.552 539.19C133.391 538.698 133.135 538.229 132.784 537.784C132.444 537.339 131.98 536.974 131.392 536.69C130.805 536.406 130.071 536.264 129.191 536.264C127.988 536.264 126.984 536.534 126.179 537.074C125.374 537.604 124.972 538.291 124.972 539.134C124.972 539.863 125.242 540.45 125.782 540.895C126.321 541.34 127.193 541.705 128.395 541.989L131.861 542.784C133.869 543.248 135.365 543.963 136.35 544.929C137.335 545.895 137.827 547.15 137.827 548.693C137.827 550 137.448 551.165 136.691 552.188C135.943 553.201 134.896 553.996 133.552 554.574C132.216 555.152 130.668 555.44 128.907 555.44C126.463 555.44 124.47 554.92 122.927 553.878C121.383 552.827 120.436 551.335 120.086 549.403L124.191 548.778C124.446 549.848 124.972 550.658 125.767 551.207C126.563 551.747 127.6 552.017 128.878 552.017C130.27 552.017 131.383 551.728 132.216 551.151C133.05 550.563 133.466 549.848 133.466 549.006C133.466 548.324 133.211 547.751 132.699 547.287C132.197 546.823 131.426 546.473 130.384 546.236L126.691 545.426C124.655 544.962 123.149 544.223 122.174 543.21C121.208 542.197 120.725 540.914 120.725 539.361C120.725 538.073 121.085 536.946 121.804 535.98C122.524 535.014 123.518 534.261 124.787 533.722C126.056 533.172 127.51 532.898 129.148 532.898C131.506 532.898 133.362 533.409 134.716 534.432C136.07 535.445 136.965 536.804 137.401 538.509ZM151.02 555.44C148.871 555.44 147.019 554.981 145.466 554.062C143.923 553.134 142.73 551.832 141.887 550.156C141.053 548.471 140.637 546.496 140.637 544.233C140.637 541.998 141.053 540.028 141.887 538.324C142.73 536.619 143.904 535.289 145.409 534.332C146.925 533.376 148.695 532.898 150.722 532.898C151.953 532.898 153.146 533.101 154.301 533.509C155.457 533.916 156.494 534.555 157.412 535.426C158.331 536.297 159.055 537.429 159.586 538.821C160.116 540.204 160.381 541.884 160.381 543.864V545.369H143.037V542.188H156.219C156.219 541.07 155.992 540.08 155.537 539.219C155.083 538.348 154.444 537.661 153.62 537.159C152.805 536.657 151.849 536.406 150.75 536.406C149.557 536.406 148.516 536.7 147.625 537.287C146.745 537.865 146.063 538.622 145.58 539.56C145.106 540.488 144.87 541.496 144.87 542.585V545.071C144.87 546.529 145.125 547.77 145.637 548.793C146.158 549.815 146.882 550.597 147.81 551.136C148.738 551.667 149.822 551.932 151.063 551.932C151.868 551.932 152.602 551.818 153.265 551.591C153.927 551.354 154.5 551.004 154.983 550.54C155.466 550.076 155.836 549.503 156.091 548.821L160.111 549.545C159.789 550.729 159.212 551.766 158.378 552.656C157.554 553.537 156.517 554.223 155.267 554.716C154.027 555.199 152.611 555.44 151.02 555.44ZM164.213 555V533.182H168.319V536.648H168.546C168.944 535.473 169.644 534.55 170.648 533.878C171.661 533.196 172.807 532.855 174.086 532.855C174.351 532.855 174.663 532.865 175.023 532.884C175.392 532.902 175.681 532.926 175.89 532.955V537.017C175.719 536.97 175.416 536.918 174.98 536.861C174.545 536.795 174.109 536.761 173.674 536.761C172.67 536.761 171.775 536.974 170.989 537.401C170.212 537.817 169.597 538.4 169.142 539.148C168.688 539.886 168.461 540.729 168.461 541.676V555H164.213ZM62.8552 585.909V615H58.466V585.909H62.8552ZM72.2735 602.045V615H68.0264V593.182H72.1031V596.733H72.373C72.8748 595.578 73.6608 594.65 74.7309 593.949C75.8105 593.248 77.1694 592.898 78.8076 592.898C80.2944 592.898 81.5964 593.21 82.7139 593.835C83.8313 594.451 84.6978 595.369 85.3133 596.591C85.9288 597.812 86.2366 599.323 86.2366 601.122V615H81.9894V601.634C81.9894 600.052 81.5775 598.816 80.7536 597.926C79.9298 597.027 78.7981 596.577 77.3587 596.577C76.3739 596.577 75.498 596.79 74.7309 597.216C73.9733 597.642 73.372 598.267 72.9269 599.091C72.4913 599.905 72.2735 600.89 72.2735 602.045ZM101.237 593.182V596.591H89.3197V593.182H101.237ZM92.5157 587.955H96.7628V608.594C96.7628 609.418 96.8859 610.038 97.1322 610.455C97.3784 610.862 97.6956 611.141 98.0839 611.293C98.4816 611.435 98.9125 611.506 99.3765 611.506C99.7174 611.506 100.016 611.482 100.271 611.435C100.527 611.387 100.726 611.349 100.868 611.321L101.635 614.83C101.389 614.924 101.038 615.019 100.584 615.114C100.129 615.218 99.5611 615.275 98.8793 615.284C97.7619 615.303 96.7202 615.104 95.7543 614.688C94.7884 614.271 94.0072 613.627 93.4106 612.756C92.814 611.884 92.5157 610.791 92.5157 609.474V587.955ZM114.224 615.44C112.075 615.44 110.224 614.981 108.67 614.062C107.127 613.134 105.934 611.832 105.091 610.156C104.258 608.471 103.841 606.496 103.841 604.233C103.841 601.998 104.258 600.028 105.091 598.324C105.934 596.619 107.108 595.289 108.614 594.332C110.129 593.376 111.9 592.898 113.926 592.898C115.157 592.898 116.35 593.101 117.506 593.509C118.661 593.916 119.698 594.555 120.617 595.426C121.535 596.297 122.259 597.429 122.79 598.821C123.32 600.204 123.585 601.884 123.585 603.864V605.369H106.242V602.188H119.423C119.423 601.07 119.196 600.08 118.742 599.219C118.287 598.348 117.648 597.661 116.824 597.159C116.009 596.657 115.053 596.406 113.955 596.406C112.761 596.406 111.72 596.7 110.83 597.287C109.949 597.865 109.267 598.622 108.784 599.56C108.311 600.488 108.074 601.496 108.074 602.585V605.071C108.074 606.529 108.33 607.77 108.841 608.793C109.362 609.815 110.086 610.597 111.014 611.136C111.942 611.667 113.027 611.932 114.267 611.932C115.072 611.932 115.806 611.818 116.469 611.591C117.132 611.354 117.705 611.004 118.188 610.54C118.67 610.076 119.04 609.503 119.295 608.821L123.315 609.545C122.993 610.729 122.416 611.766 121.582 612.656C120.759 613.537 119.722 614.223 118.472 614.716C117.231 615.199 115.815 615.44 114.224 615.44ZM127.418 615V593.182H131.523V596.648H131.75C132.148 595.473 132.848 594.55 133.852 593.878C134.866 593.196 136.011 592.855 137.29 592.855C137.555 592.855 137.867 592.865 138.227 592.884C138.597 592.902 138.885 592.926 139.094 592.955V597.017C138.923 596.97 138.62 596.918 138.185 596.861C137.749 596.795 137.313 596.761 136.878 596.761C135.874 596.761 134.979 596.974 134.193 597.401C133.417 597.817 132.801 598.4 132.347 599.148C131.892 599.886 131.665 600.729 131.665 601.676V615H127.418ZM153.562 593.182V596.591H141.232V593.182H153.562ZM144.613 615V590.653C144.613 589.29 144.911 588.158 145.508 587.259C146.104 586.349 146.895 585.672 147.88 585.227C148.865 584.773 149.935 584.545 151.09 584.545C151.942 584.545 152.672 584.616 153.278 584.759C153.884 584.891 154.334 585.014 154.627 585.128L153.633 588.565C153.434 588.509 153.178 588.442 152.866 588.366C152.553 588.281 152.174 588.239 151.729 588.239C150.697 588.239 149.959 588.494 149.513 589.006C149.078 589.517 148.86 590.256 148.86 591.222V615H144.613ZM162.749 615.483C161.367 615.483 160.117 615.227 158.999 614.716C157.882 614.195 156.996 613.442 156.343 612.457C155.699 611.473 155.377 610.265 155.377 608.835C155.377 607.604 155.614 606.591 156.087 605.795C156.561 605 157.2 604.37 158.005 603.906C158.81 603.442 159.709 603.092 160.704 602.855C161.698 602.618 162.711 602.438 163.744 602.315C165.05 602.164 166.111 602.041 166.925 601.946C167.74 601.842 168.332 601.676 168.701 601.449C169.07 601.222 169.255 600.852 169.255 600.341V600.241C169.255 599.001 168.905 598.04 168.204 597.358C167.512 596.676 166.48 596.335 165.107 596.335C163.677 596.335 162.55 596.652 161.726 597.287C160.912 597.912 160.349 598.608 160.036 599.375L156.045 598.466C156.518 597.14 157.209 596.07 158.119 595.256C159.037 594.432 160.093 593.835 161.286 593.466C162.479 593.087 163.734 592.898 165.05 592.898C165.922 592.898 166.845 593.002 167.82 593.21C168.805 593.409 169.724 593.778 170.576 594.318C171.438 594.858 172.143 595.63 172.692 596.634C173.242 597.628 173.516 598.92 173.516 600.511V615H169.369V612.017H169.198C168.923 612.566 168.512 613.106 167.962 613.636C167.413 614.167 166.708 614.607 165.846 614.957C164.984 615.308 163.952 615.483 162.749 615.483ZM163.673 612.074C164.847 612.074 165.851 611.842 166.684 611.378C167.527 610.914 168.166 610.308 168.601 609.56C169.047 608.802 169.269 607.992 169.269 607.131V604.318C169.118 604.47 168.824 604.612 168.388 604.744C167.962 604.867 167.475 604.976 166.925 605.071C166.376 605.156 165.841 605.237 165.32 605.312C164.799 605.379 164.364 605.436 164.013 605.483C163.19 605.587 162.437 605.762 161.755 606.009C161.083 606.255 160.543 606.61 160.136 607.074C159.738 607.528 159.539 608.134 159.539 608.892C159.539 609.943 159.927 610.739 160.704 611.278C161.48 611.809 162.47 612.074 163.673 612.074ZM187.484 615.44C185.372 615.44 183.554 614.962 182.029 614.006C180.514 613.04 179.349 611.709 178.535 610.014C177.72 608.319 177.313 606.378 177.313 604.19C177.313 601.974 177.73 600.019 178.563 598.324C179.396 596.619 180.571 595.289 182.086 594.332C183.601 593.376 185.386 592.898 187.441 592.898C189.098 592.898 190.575 593.205 191.873 593.821C193.17 594.427 194.217 595.279 195.012 596.378C195.817 597.476 196.295 598.759 196.447 600.227H192.313C192.086 599.205 191.565 598.324 190.751 597.585C189.946 596.847 188.866 596.477 187.512 596.477C186.328 596.477 185.291 596.79 184.401 597.415C183.52 598.03 182.834 598.911 182.342 600.057C181.849 601.193 181.603 602.538 181.603 604.091C181.603 605.682 181.844 607.055 182.327 608.21C182.81 609.366 183.492 610.26 184.373 610.895C185.263 611.529 186.309 611.847 187.512 611.847C188.317 611.847 189.046 611.7 189.699 611.406C190.362 611.103 190.916 610.672 191.361 610.114C191.816 609.555 192.133 608.883 192.313 608.097H196.447C196.295 609.508 195.836 610.767 195.069 611.875C194.302 612.983 193.274 613.854 191.986 614.489C190.708 615.123 189.207 615.44 187.484 615.44ZM209.512 615.44C207.362 615.44 205.511 614.981 203.958 614.062C202.414 613.134 201.221 611.832 200.378 610.156C199.545 608.471 199.128 606.496 199.128 604.233C199.128 601.998 199.545 600.028 200.378 598.324C201.221 596.619 202.395 595.289 203.901 594.332C205.416 593.376 207.187 592.898 209.214 592.898C210.445 592.898 211.638 593.101 212.793 593.509C213.949 593.916 214.985 594.555 215.904 595.426C216.823 596.297 217.547 597.429 218.077 598.821C218.608 600.204 218.873 601.884 218.873 603.864V605.369H201.529V602.188H214.711C214.711 601.07 214.484 600.08 214.029 599.219C213.574 598.348 212.935 597.661 212.111 597.159C211.297 596.657 210.341 596.406 209.242 596.406C208.049 596.406 207.007 596.7 206.117 597.287C205.236 597.865 204.555 598.622 204.072 599.56C203.598 600.488 203.361 601.496 203.361 602.585V605.071C203.361 606.529 203.617 607.77 204.128 608.793C204.649 609.815 205.374 610.597 206.302 611.136C207.23 611.667 208.314 611.932 209.555 611.932C210.36 611.932 211.093 611.818 211.756 611.591C212.419 611.354 212.992 611.004 213.475 610.54C213.958 610.076 214.327 609.503 214.583 608.821L218.603 609.545C218.281 610.729 217.703 611.766 216.87 612.656C216.046 613.537 215.009 614.223 213.759 614.716C212.519 615.199 211.103 615.44 209.512 615.44Z" fill="black" fill-opacity="0.8"/>
<path d="M430 331.5C430.828 331.5 431.5 330.828 431.5 330C431.5 329.172 430.828 328.5 430 328.5V331.5ZM276.939 568.939C276.354 569.525 276.354 570.475 276.939 571.061L286.485 580.607C287.071 581.192 288.021 581.192 288.607 580.607C289.192 580.021 289.192 579.071 288.607 578.485L280.121 570L288.607 561.515C289.192 560.929 289.192 559.979 288.607 559.393C288.021 558.808 287.071 558.808 286.485 559.393L276.939 568.939ZM430 328.5H378V331.5H430V328.5ZM352.5 354V546H355.5V354H352.5ZM330 568.5H278V571.5H330V568.5ZM352.5 546C352.5 558.426 342.426 568.5 330 568.5V571.5C344.083 571.5 355.5 560.083 355.5 546H352.5ZM378 328.5C363.917 328.5 352.5 339.917 352.5 354H355.5C355.5 341.574 365.574 331.5 378 331.5V328.5Z" fill="#B3B3B3"/>
<path d="M520.5 238C520.5 238.828 521.172 239.5 522 239.5C522.828 239.5 523.5 238.828 523.5 238H520.5ZM767.061 91.0607C767.646 90.4749 767.646 89.5251 767.061 88.9393L757.515 79.3934C756.929 78.8076 755.979 78.8076 755.393 79.3934C754.808 79.9792 754.808 80.9289 755.393 81.5147L763.879 90L755.393 98.4853C754.808 99.0711 754.808 100.021 755.393 100.607C755.979 101.192 756.929 101.192 757.515 100.607L767.061 91.0607ZM523.5 238V114H520.5V238H523.5ZM546 91.5H766V88.5H546V91.5ZM523.5 114C523.5 101.574 533.574 91.5 546 91.5V88.5C531.917 88.5 520.5 99.9167 520.5 114H523.5Z" fill="#B3B3B3"/>
<path d="M614 328.5C613.172 328.5 612.5 329.172 612.5 330C612.5 330.828 613.172 331.5 614 331.5V328.5ZM767.061 331.061C767.646 330.475 767.646 329.525 767.061 328.939L757.515 319.393C756.929 318.808 755.979 318.808 755.393 319.393C754.808 319.979 754.808 320.929 755.393 321.515L763.879 330L755.393 338.485C754.808 339.071 754.808 340.021 755.393 340.607C755.979 341.192 756.929 341.192 757.515 340.607L767.061 331.061ZM614 331.5H766V328.5H614V331.5Z" fill="#B3B3B3"/>
</svg>
