<svg width="960" height="368" viewBox="0 0 960 368" fill="none" xmlns="http://www.w3.org/2000/svg">
<rect y="96" width="224" height="176" rx="80" fill="#9747FF"/>
<path d="M47.0278 179.369H42.596C42.4255 178.422 42.1083 177.589 41.6443 176.869C41.1803 176.15 40.6121 175.539 39.9397 175.037C39.2674 174.535 38.5145 174.156 37.6812 173.901C36.8573 173.645 35.9814 173.517 35.0534 173.517C33.3772 173.517 31.8763 173.938 30.5505 174.781C29.2342 175.624 28.1926 176.86 27.4255 178.489C26.668 180.117 26.2892 182.106 26.2892 184.455C26.2892 186.822 26.668 188.82 27.4255 190.449C28.1926 192.078 29.239 193.309 30.5647 194.142C31.8905 194.975 33.382 195.392 35.0392 195.392C35.9577 195.392 36.8289 195.269 37.6528 195.023C38.4861 194.767 39.239 194.393 39.9113 193.901C40.5837 193.408 41.1519 192.807 41.6159 192.097C42.0894 191.377 42.4161 190.553 42.596 189.625L47.0278 189.639C46.7911 191.069 46.3318 192.385 45.65 193.588C44.9776 194.781 44.1111 195.813 43.0505 196.685C41.9994 197.546 40.7967 198.214 39.4426 198.688C38.0884 199.161 36.6111 199.398 35.0108 199.398C32.4918 199.398 30.2475 198.801 28.2778 197.608C26.3081 196.405 24.7551 194.687 23.6187 192.452C22.4918 190.217 21.9284 187.551 21.9284 184.455C21.9284 181.348 22.4966 178.683 23.6329 176.457C24.7693 174.223 26.3223 172.509 28.292 171.315C30.2617 170.113 32.5013 169.511 35.0108 169.511C36.5543 169.511 37.9937 169.734 39.3289 170.179C40.6736 170.615 41.881 171.259 42.9511 172.111C44.0212 172.954 44.9066 173.986 45.6073 175.207C46.3081 176.42 46.7816 177.807 47.0278 179.369ZM60.2494 199.44C58.2039 199.44 56.4189 198.972 54.8943 198.034C53.3696 197.097 52.1859 195.785 51.3431 194.099C50.5003 192.414 50.0789 190.444 50.0789 188.19C50.0789 185.927 50.5003 183.948 51.3431 182.253C52.1859 180.558 53.3696 179.241 54.8943 178.304C56.4189 177.366 58.2039 176.898 60.2494 176.898C62.2948 176.898 64.0799 177.366 65.6045 178.304C67.1291 179.241 68.3128 180.558 69.1556 182.253C69.9984 183.948 70.4198 185.927 70.4198 188.19C70.4198 190.444 69.9984 192.414 69.1556 194.099C68.3128 195.785 67.1291 197.097 65.6045 198.034C64.0799 198.972 62.2948 199.44 60.2494 199.44ZM60.2636 195.875C61.5893 195.875 62.6878 195.525 63.559 194.824C64.4302 194.123 65.0742 193.19 65.4908 192.026C65.917 190.861 66.13 189.578 66.13 188.176C66.13 186.784 65.917 185.506 65.4908 184.341C65.0742 183.167 64.4302 182.224 63.559 181.514C62.6878 180.804 61.5893 180.449 60.2636 180.449C58.9283 180.449 57.8204 180.804 56.9397 181.514C56.0685 182.224 55.4198 183.167 54.9937 184.341C54.577 185.506 54.3687 186.784 54.3687 188.176C54.3687 189.578 54.577 190.861 54.9937 192.026C55.4198 193.19 56.0685 194.123 56.9397 194.824C57.8204 195.525 58.9283 195.875 60.2636 195.875ZM74.2806 199V177.182H78.3573V180.733H78.6272C79.0817 179.53 79.8251 178.593 80.8573 177.92C81.8895 177.239 83.1253 176.898 84.5647 176.898C86.023 176.898 87.2446 177.239 88.2294 177.92C89.2238 178.602 89.9577 179.54 90.4312 180.733H90.6584C91.1793 179.568 92.0079 178.64 93.1442 177.949C94.2806 177.248 95.6348 176.898 97.2067 176.898C99.1859 176.898 100.8 177.518 102.05 178.759C103.31 179.999 103.94 181.869 103.94 184.369V199H99.6925V184.767C99.6925 183.29 99.2901 182.22 98.4851 181.557C97.6802 180.894 96.719 180.562 95.6016 180.562C94.219 180.562 93.1442 180.989 92.3772 181.841C91.6101 182.684 91.2266 183.768 91.2266 185.094V199H86.9937V184.497C86.9937 183.313 86.6243 182.362 85.8857 181.642C85.1471 180.922 84.1859 180.562 83.0022 180.562C82.1973 180.562 81.4539 180.776 80.7721 181.202C80.0997 181.618 79.5552 182.201 79.1385 182.949C78.7313 183.697 78.5277 184.563 78.5277 185.548V199H74.2806ZM108.752 207.182V177.182H112.9V180.719H113.255C113.501 180.264 113.856 179.739 114.32 179.142C114.784 178.545 115.428 178.025 116.252 177.58C117.076 177.125 118.165 176.898 119.519 176.898C121.281 176.898 122.853 177.343 124.235 178.233C125.618 179.123 126.702 180.406 127.488 182.082C128.283 183.759 128.681 185.776 128.681 188.134C128.681 190.491 128.288 192.513 127.502 194.199C126.716 195.875 125.637 197.168 124.264 198.077C122.89 198.976 121.323 199.426 119.562 199.426C118.236 199.426 117.152 199.204 116.309 198.759C115.476 198.313 114.822 197.793 114.349 197.196C113.875 196.599 113.511 196.069 113.255 195.605H112.999V207.182H108.752ZM112.914 188.091C112.914 189.625 113.137 190.97 113.582 192.125C114.027 193.28 114.671 194.185 115.514 194.838C116.356 195.482 117.389 195.804 118.61 195.804C119.879 195.804 120.94 195.468 121.792 194.795C122.644 194.114 123.288 193.19 123.724 192.026C124.169 190.861 124.391 189.549 124.391 188.091C124.391 186.652 124.174 185.359 123.738 184.213C123.312 183.067 122.668 182.163 121.806 181.5C120.954 180.837 119.889 180.506 118.61 180.506C117.379 180.506 116.337 180.823 115.485 181.457C114.642 182.092 114.003 182.977 113.567 184.114C113.132 185.25 112.914 186.576 112.914 188.091ZM146.381 189.952V177.182H150.642V199H146.466V195.222H146.239C145.737 196.386 144.932 197.357 143.824 198.134C142.725 198.901 141.357 199.284 139.719 199.284C138.317 199.284 137.077 198.976 135.997 198.361C134.927 197.736 134.084 196.812 133.469 195.591C132.863 194.369 132.56 192.859 132.56 191.06V177.182H136.807V190.548C136.807 192.035 137.219 193.219 138.043 194.099C138.866 194.98 139.937 195.42 141.253 195.42C142.048 195.42 142.839 195.222 143.625 194.824C144.42 194.426 145.079 193.825 145.599 193.02C146.13 192.215 146.39 191.192 146.381 189.952ZM165.653 177.182V180.591H153.736V177.182H165.653ZM156.932 171.955H161.179V192.594C161.179 193.418 161.302 194.038 161.548 194.455C161.794 194.862 162.112 195.141 162.5 195.293C162.898 195.435 163.329 195.506 163.793 195.506C164.133 195.506 164.432 195.482 164.687 195.435C164.943 195.387 165.142 195.349 165.284 195.321L166.051 198.83C165.805 198.924 165.455 199.019 165 199.114C164.545 199.218 163.977 199.275 163.295 199.284C162.178 199.303 161.136 199.104 160.17 198.688C159.205 198.271 158.423 197.627 157.827 196.756C157.23 195.884 156.932 194.791 156.932 193.474V171.955ZM178.641 199.44C176.491 199.44 174.64 198.981 173.087 198.062C171.543 197.134 170.35 195.832 169.507 194.156C168.674 192.471 168.257 190.496 168.257 188.233C168.257 185.998 168.674 184.028 169.507 182.324C170.35 180.619 171.524 179.289 173.03 178.332C174.545 177.376 176.316 176.898 178.342 176.898C179.573 176.898 180.767 177.101 181.922 177.509C183.077 177.916 184.114 178.555 185.033 179.426C185.951 180.297 186.676 181.429 187.206 182.821C187.736 184.204 188.001 185.884 188.001 187.864V189.369H170.658V186.188H183.839C183.839 185.07 183.612 184.08 183.158 183.219C182.703 182.348 182.064 181.661 181.24 181.159C180.426 180.657 179.469 180.406 178.371 180.406C177.177 180.406 176.136 180.7 175.246 181.287C174.365 181.865 173.683 182.622 173.2 183.56C172.727 184.488 172.49 185.496 172.49 186.585V189.071C172.49 190.529 172.746 191.77 173.257 192.793C173.778 193.815 174.502 194.597 175.43 195.136C176.358 195.667 177.443 195.932 178.683 195.932C179.488 195.932 180.222 195.818 180.885 195.591C181.548 195.354 182.121 195.004 182.604 194.54C183.087 194.076 183.456 193.503 183.712 192.821L187.731 193.545C187.409 194.729 186.832 195.766 185.999 196.656C185.175 197.537 184.138 198.223 182.888 198.716C181.647 199.199 180.231 199.44 178.641 199.44ZM191.834 199V177.182H195.939V180.648H196.166C196.564 179.473 197.265 178.55 198.268 177.878C199.282 177.196 200.427 176.855 201.706 176.855C201.971 176.855 202.284 176.865 202.643 176.884C203.013 176.902 203.302 176.926 203.51 176.955V181.017C203.339 180.97 203.036 180.918 202.601 180.861C202.165 180.795 201.73 180.761 201.294 180.761C200.29 180.761 199.395 180.974 198.609 181.401C197.833 181.817 197.217 182.4 196.763 183.148C196.308 183.886 196.081 184.729 196.081 185.676V199H191.834Z" fill="white"/>
<rect x="368" width="224" height="368" rx="80" fill="#FFCD29"/>
<path d="M411.996 154.455C411.996 157.561 411.428 160.231 410.292 162.466C409.155 164.691 407.598 166.405 405.618 167.608C403.649 168.801 401.409 169.398 398.9 169.398C396.381 169.398 394.132 168.801 392.152 167.608C390.183 166.405 388.63 164.687 387.493 162.452C386.357 160.217 385.789 157.551 385.789 154.455C385.789 151.348 386.357 148.683 387.493 146.457C388.63 144.223 390.183 142.509 392.152 141.315C394.132 140.113 396.381 139.511 398.9 139.511C401.409 139.511 403.649 140.113 405.618 141.315C407.598 142.509 409.155 144.223 410.292 146.457C411.428 148.683 411.996 151.348 411.996 154.455ZM407.65 154.455C407.65 152.087 407.266 150.094 406.499 148.474C405.741 146.846 404.7 145.615 403.374 144.781C402.058 143.938 400.566 143.517 398.9 143.517C397.223 143.517 395.727 143.938 394.411 144.781C393.095 145.615 392.053 146.846 391.286 148.474C390.528 150.094 390.15 152.087 390.15 154.455C390.15 156.822 390.528 158.82 391.286 160.449C392.053 162.068 393.095 163.299 394.411 164.142C395.727 164.975 397.223 165.392 398.9 165.392C400.566 165.392 402.058 164.975 403.374 164.142C404.7 163.299 405.741 162.068 406.499 160.449C407.266 158.82 407.65 156.822 407.65 154.455ZM416.248 177.182V147.182H420.395V150.719H420.75C420.997 150.264 421.352 149.739 421.816 149.142C422.28 148.545 422.924 148.025 423.748 147.58C424.571 147.125 425.66 146.898 427.015 146.898C428.776 146.898 430.348 147.343 431.731 148.233C433.113 149.123 434.197 150.406 434.983 152.082C435.779 153.759 436.177 155.776 436.177 158.134C436.177 160.491 435.784 162.513 434.998 164.199C434.212 165.875 433.132 167.168 431.759 168.077C430.386 168.976 428.819 169.426 427.057 169.426C425.732 169.426 424.647 169.204 423.804 168.759C422.971 168.313 422.318 167.793 421.844 167.196C421.371 166.599 421.006 166.069 420.75 165.605H420.495V177.182H416.248ZM420.41 158.091C420.41 159.625 420.632 160.97 421.077 162.125C421.522 163.28 422.166 164.185 423.009 164.838C423.852 165.482 424.884 165.804 426.106 165.804C427.375 165.804 428.435 165.468 429.287 164.795C430.14 164.114 430.784 163.19 431.219 162.026C431.664 160.861 431.887 159.549 431.887 158.091C431.887 156.652 431.669 155.359 431.233 154.213C430.807 153.067 430.163 152.163 429.302 151.5C428.449 150.837 427.384 150.506 426.106 150.506C424.875 150.506 423.833 150.823 422.981 151.457C422.138 152.092 421.499 152.977 421.063 154.114C420.627 155.25 420.41 156.576 420.41 158.091ZM449.459 169.44C447.309 169.44 445.458 168.981 443.905 168.062C442.361 167.134 441.168 165.832 440.325 164.156C439.492 162.471 439.075 160.496 439.075 158.233C439.075 155.998 439.492 154.028 440.325 152.324C441.168 150.619 442.342 149.289 443.848 148.332C445.363 147.376 447.134 146.898 449.16 146.898C450.391 146.898 451.584 147.101 452.74 147.509C453.895 147.916 454.932 148.555 455.851 149.426C456.769 150.297 457.494 151.429 458.024 152.821C458.554 154.204 458.819 155.884 458.819 157.864V159.369H441.476V156.188H454.657C454.657 155.07 454.43 154.08 453.976 153.219C453.521 152.348 452.882 151.661 452.058 151.159C451.244 150.657 450.287 150.406 449.189 150.406C447.995 150.406 446.954 150.7 446.064 151.287C445.183 151.865 444.501 152.622 444.018 153.56C443.545 154.488 443.308 155.496 443.308 156.585V159.071C443.308 160.529 443.564 161.77 444.075 162.793C444.596 163.815 445.32 164.597 446.248 165.136C447.176 165.667 448.261 165.932 449.501 165.932C450.306 165.932 451.04 165.818 451.703 165.591C452.366 165.354 452.939 165.004 453.422 164.54C453.905 164.076 454.274 163.503 454.53 162.821L458.549 163.545C458.227 164.729 457.65 165.766 456.816 166.656C455.993 167.537 454.956 168.223 453.706 168.716C452.465 169.199 451.049 169.44 449.459 169.44ZM462.652 169V147.182H466.757V150.648H466.984C467.382 149.473 468.083 148.55 469.086 147.878C470.1 147.196 471.245 146.855 472.524 146.855C472.789 146.855 473.101 146.865 473.461 146.884C473.831 146.902 474.119 146.926 474.328 146.955V151.017C474.157 150.97 473.854 150.918 473.419 150.861C472.983 150.795 472.548 150.761 472.112 150.761C471.108 150.761 470.213 150.974 469.427 151.401C468.651 151.817 468.035 152.4 467.581 153.148C467.126 153.886 466.899 154.729 466.899 155.676V169H462.652ZM483.277 169.483C481.895 169.483 480.645 169.227 479.527 168.716C478.41 168.195 477.525 167.442 476.871 166.457C476.227 165.473 475.905 164.265 475.905 162.835C475.905 161.604 476.142 160.591 476.615 159.795C477.089 159 477.728 158.37 478.533 157.906C479.338 157.442 480.238 157.092 481.232 156.855C482.226 156.618 483.239 156.438 484.272 156.315C485.578 156.164 486.639 156.041 487.453 155.946C488.268 155.842 488.86 155.676 489.229 155.449C489.598 155.222 489.783 154.852 489.783 154.341V154.241C489.783 153.001 489.433 152.04 488.732 151.358C488.041 150.676 487.008 150.335 485.635 150.335C484.205 150.335 483.078 150.652 482.255 151.287C481.44 151.912 480.877 152.608 480.564 153.375L476.573 152.466C477.046 151.14 477.738 150.07 478.647 149.256C479.565 148.432 480.621 147.835 481.814 147.466C483.007 147.087 484.262 146.898 485.578 146.898C486.45 146.898 487.373 147.002 488.348 147.21C489.333 147.409 490.252 147.778 491.104 148.318C491.966 148.858 492.671 149.63 493.221 150.634C493.77 151.628 494.044 152.92 494.044 154.511V169H489.897V166.017H489.726C489.452 166.566 489.04 167.106 488.49 167.636C487.941 168.167 487.236 168.607 486.374 168.957C485.512 169.308 484.48 169.483 483.277 169.483ZM484.201 166.074C485.375 166.074 486.379 165.842 487.212 165.378C488.055 164.914 488.694 164.308 489.13 163.56C489.575 162.802 489.797 161.992 489.797 161.131V158.318C489.646 158.47 489.352 158.612 488.917 158.744C488.49 158.867 488.003 158.976 487.453 159.071C486.904 159.156 486.369 159.237 485.848 159.312C485.328 159.379 484.892 159.436 484.542 159.483C483.718 159.587 482.965 159.762 482.283 160.009C481.611 160.255 481.071 160.61 480.664 161.074C480.266 161.528 480.067 162.134 480.067 162.892C480.067 163.943 480.455 164.739 481.232 165.278C482.008 165.809 482.998 166.074 484.201 166.074ZM509.006 147.182V150.591H497.088V147.182H509.006ZM500.284 141.955H504.532V162.594C504.532 163.418 504.655 164.038 504.901 164.455C505.147 164.862 505.464 165.141 505.853 165.293C506.25 165.435 506.681 165.506 507.145 165.506C507.486 165.506 507.784 165.482 508.04 165.435C508.296 165.387 508.495 165.349 508.637 165.321L509.404 168.83C509.158 168.924 508.807 169.019 508.353 169.114C507.898 169.218 507.33 169.275 506.648 169.284C505.531 169.303 504.489 169.104 503.523 168.688C502.557 168.271 501.776 167.627 501.179 166.756C500.583 165.884 500.284 164.791 500.284 163.474V141.955ZM512.824 169V147.182H517.071V169H512.824ZM514.969 143.815C514.23 143.815 513.596 143.569 513.066 143.077C512.545 142.575 512.284 141.978 512.284 141.287C512.284 140.586 512.545 139.99 513.066 139.497C513.596 138.995 514.23 138.744 514.969 138.744C515.708 138.744 516.337 138.995 516.858 139.497C517.389 139.99 517.654 140.586 517.654 141.287C517.654 141.978 517.389 142.575 516.858 143.077C516.337 143.569 515.708 143.815 514.969 143.815ZM526.152 156.045V169H521.905V147.182H525.982V150.733H526.252C526.754 149.578 527.54 148.65 528.61 147.949C529.689 147.248 531.048 146.898 532.686 146.898C534.173 146.898 535.475 147.21 536.593 147.835C537.71 148.451 538.577 149.369 539.192 150.591C539.808 151.812 540.115 153.323 540.115 155.122V169H535.868V155.634C535.868 154.052 535.456 152.816 534.632 151.926C533.809 151.027 532.677 150.577 531.237 150.577C530.253 150.577 529.377 150.79 528.61 151.216C527.852 151.642 527.251 152.267 526.806 153.091C526.37 153.905 526.152 154.89 526.152 156.045ZM554.079 177.636C552.346 177.636 550.855 177.409 549.605 176.955C548.364 176.5 547.351 175.899 546.565 175.151C545.779 174.402 545.192 173.583 544.804 172.693L548.454 171.188C548.71 171.604 549.051 172.045 549.477 172.509C549.912 172.982 550.5 173.384 551.238 173.716C551.986 174.047 552.947 174.213 554.122 174.213C555.732 174.213 557.062 173.82 558.113 173.034C559.164 172.258 559.69 171.017 559.69 169.312V165.023H559.42C559.164 165.487 558.795 166.003 558.312 166.571C557.839 167.139 557.185 167.632 556.352 168.048C555.518 168.465 554.434 168.673 553.099 168.673C551.376 168.673 549.822 168.271 548.44 167.466C547.067 166.652 545.978 165.454 545.173 163.872C544.377 162.281 543.98 160.326 543.98 158.006C543.98 155.686 544.373 153.697 545.159 152.04C545.954 150.383 547.043 149.114 548.426 148.233C549.808 147.343 551.376 146.898 553.127 146.898C554.482 146.898 555.575 147.125 556.409 147.58C557.242 148.025 557.891 148.545 558.355 149.142C558.828 149.739 559.193 150.264 559.448 150.719H559.761V147.182H563.923V169.483C563.923 171.358 563.487 172.897 562.616 174.099C561.745 175.302 560.566 176.192 559.079 176.77C557.602 177.348 555.935 177.636 554.079 177.636ZM554.036 165.151C555.258 165.151 556.29 164.866 557.133 164.298C557.985 163.721 558.629 162.897 559.065 161.827C559.51 160.747 559.733 159.455 559.733 157.949C559.733 156.481 559.515 155.188 559.079 154.071C558.643 152.954 558.004 152.082 557.161 151.457C556.319 150.823 555.277 150.506 554.036 150.506C552.758 150.506 551.693 150.837 550.84 151.5C549.988 152.153 549.344 153.044 548.909 154.17C548.483 155.297 548.269 156.557 548.269 157.949C548.269 159.379 548.487 160.634 548.923 161.713C549.358 162.793 550.002 163.635 550.855 164.241C551.716 164.848 552.777 165.151 554.036 165.151ZM429.602 207.551C429.451 206.206 428.826 205.165 427.727 204.426C426.629 203.678 425.246 203.304 423.58 203.304C422.386 203.304 421.354 203.493 420.483 203.872C419.612 204.241 418.935 204.753 418.452 205.406C417.978 206.05 417.742 206.784 417.742 207.608C417.742 208.299 417.903 208.896 418.225 209.398C418.556 209.9 418.987 210.321 419.517 210.662C420.057 210.993 420.635 211.273 421.25 211.5C421.866 211.718 422.457 211.898 423.026 212.04L425.867 212.778C426.795 213.006 427.746 213.313 428.722 213.702C429.697 214.09 430.601 214.601 431.435 215.236C432.268 215.87 432.94 216.656 433.452 217.594C433.973 218.531 434.233 219.653 434.233 220.96C434.233 222.608 433.807 224.071 432.955 225.349C432.112 226.628 430.885 227.636 429.276 228.375C427.675 229.114 425.739 229.483 423.466 229.483C421.288 229.483 419.403 229.137 417.813 228.446C416.222 227.755 414.976 226.775 414.077 225.506C413.177 224.227 412.68 222.712 412.585 220.96H416.989C417.074 222.011 417.415 222.887 418.011 223.588C418.617 224.279 419.389 224.795 420.327 225.136C421.274 225.468 422.311 225.634 423.438 225.634C424.678 225.634 425.781 225.439 426.747 225.051C427.723 224.653 428.49 224.104 429.048 223.403C429.607 222.693 429.886 221.865 429.886 220.918C429.886 220.056 429.64 219.35 429.148 218.801C428.665 218.252 428.007 217.797 427.173 217.438C426.35 217.078 425.417 216.76 424.375 216.486L420.938 215.548C418.608 214.914 416.761 213.981 415.398 212.75C414.044 211.519 413.367 209.89 413.367 207.864C413.367 206.187 413.821 204.724 414.73 203.474C415.639 202.224 416.87 201.254 418.423 200.562C419.976 199.862 421.728 199.511 423.679 199.511C425.649 199.511 427.386 199.857 428.892 200.548C430.407 201.24 431.6 202.191 432.472 203.403C433.343 204.606 433.797 205.989 433.835 207.551H429.602ZM440.942 237.182C440.307 237.182 439.73 237.13 439.209 237.026C438.688 236.931 438.3 236.827 438.044 236.713L439.067 233.233C439.843 233.441 440.535 233.531 441.141 233.503C441.747 233.474 442.282 233.247 442.746 232.821C443.219 232.395 443.636 231.699 443.996 230.733L444.521 229.284L436.538 207.182H441.084L446.609 224.114H446.837L452.362 207.182H456.922L447.93 231.912C447.514 233.048 446.983 234.009 446.34 234.795C445.696 235.591 444.929 236.188 444.038 236.585C443.148 236.983 442.116 237.182 440.942 237.182ZM476.383 212.509L472.533 213.19C472.372 212.698 472.117 212.229 471.766 211.784C471.425 211.339 470.961 210.974 470.374 210.69C469.787 210.406 469.053 210.264 468.173 210.264C466.97 210.264 465.966 210.534 465.161 211.074C464.356 211.604 463.954 212.291 463.954 213.134C463.954 213.863 464.224 214.45 464.764 214.895C465.303 215.34 466.174 215.705 467.377 215.989L470.843 216.784C472.851 217.248 474.347 217.963 475.332 218.929C476.317 219.895 476.809 221.15 476.809 222.693C476.809 224 476.43 225.165 475.673 226.188C474.924 227.201 473.878 227.996 472.533 228.574C471.198 229.152 469.65 229.44 467.889 229.44C465.445 229.44 463.452 228.92 461.908 227.878C460.365 226.827 459.418 225.335 459.067 223.403L463.173 222.778C463.428 223.848 463.954 224.658 464.749 225.207C465.545 225.747 466.582 226.017 467.86 226.017C469.252 226.017 470.365 225.728 471.198 225.151C472.032 224.563 472.448 223.848 472.448 223.006C472.448 222.324 472.192 221.751 471.681 221.287C471.179 220.823 470.407 220.473 469.366 220.236L465.673 219.426C463.637 218.962 462.131 218.223 461.156 217.21C460.19 216.197 459.707 214.914 459.707 213.361C459.707 212.073 460.067 210.946 460.786 209.98C461.506 209.014 462.5 208.261 463.769 207.722C465.038 207.172 466.492 206.898 468.13 206.898C470.488 206.898 472.344 207.409 473.698 208.432C475.052 209.445 475.947 210.804 476.383 212.509ZM490.783 207.182V210.591H478.866V207.182H490.783ZM482.062 201.955H486.309V222.594C486.309 223.418 486.432 224.038 486.678 224.455C486.924 224.862 487.242 225.141 487.63 225.293C488.028 225.435 488.459 225.506 488.923 225.506C489.263 225.506 489.562 225.482 489.817 225.435C490.073 225.387 490.272 225.349 490.414 225.321L491.181 228.83C490.935 228.924 490.585 229.019 490.13 229.114C489.675 229.218 489.107 229.275 488.425 229.284C487.308 229.303 486.266 229.104 485.3 228.688C484.335 228.271 483.553 227.627 482.957 226.756C482.36 225.884 482.062 224.791 482.062 223.474V201.955ZM503.771 229.44C501.621 229.44 499.77 228.981 498.217 228.062C496.673 227.134 495.48 225.832 494.637 224.156C493.804 222.471 493.387 220.496 493.387 218.233C493.387 215.998 493.804 214.028 494.637 212.324C495.48 210.619 496.654 209.289 498.16 208.332C499.675 207.376 501.446 206.898 503.472 206.898C504.703 206.898 505.897 207.101 507.052 207.509C508.207 207.916 509.244 208.555 510.163 209.426C511.081 210.297 511.806 211.429 512.336 212.821C512.866 214.204 513.131 215.884 513.131 217.864V219.369H495.788V216.188H508.969C508.969 215.07 508.742 214.08 508.288 213.219C507.833 212.348 507.194 211.661 506.37 211.159C505.556 210.657 504.599 210.406 503.501 210.406C502.307 210.406 501.266 210.7 500.376 211.287C499.495 211.865 498.813 212.622 498.33 213.56C497.857 214.488 497.62 215.496 497.62 216.585V219.071C497.62 220.529 497.876 221.77 498.387 222.793C498.908 223.815 499.632 224.597 500.56 225.136C501.488 225.667 502.573 225.932 503.813 225.932C504.618 225.932 505.352 225.818 506.015 225.591C506.678 225.354 507.251 225.004 507.734 224.54C508.217 224.076 508.586 223.503 508.842 222.821L512.861 223.545C512.539 224.729 511.962 225.766 511.129 226.656C510.305 227.537 509.268 228.223 508.018 228.716C506.777 229.199 505.361 229.44 503.771 229.44ZM516.964 229V207.182H521.04V210.733H521.31C521.765 209.53 522.508 208.593 523.54 207.92C524.573 207.239 525.808 206.898 527.248 206.898C528.706 206.898 529.928 207.239 530.913 207.92C531.907 208.602 532.641 209.54 533.114 210.733H533.342C533.862 209.568 534.691 208.64 535.827 207.949C536.964 207.248 538.318 206.898 539.89 206.898C541.869 206.898 543.484 207.518 544.734 208.759C545.993 209.999 546.623 211.869 546.623 214.369V229H542.376V214.767C542.376 213.29 541.973 212.22 541.168 211.557C540.363 210.894 539.402 210.562 538.285 210.562C536.902 210.562 535.827 210.989 535.06 211.841C534.293 212.684 533.91 213.768 533.91 215.094V229H529.677V214.497C529.677 213.313 529.307 212.362 528.569 211.642C527.83 210.922 526.869 210.562 525.685 210.562C524.88 210.562 524.137 210.776 523.455 211.202C522.783 211.618 522.238 212.201 521.822 212.949C521.414 213.697 521.211 214.563 521.211 215.548V229H516.964Z" fill="black" fill-opacity="0.8"/>
<path d="M228 182.5C227.172 182.5 226.5 183.172 226.5 184C226.5 184.828 227.172 185.5 228 185.5V182.5ZM365.061 185.061C365.646 184.475 365.646 183.525 365.061 182.939L355.515 173.393C354.929 172.808 353.979 172.808 353.393 173.393C352.808 173.979 352.808 174.929 353.393 175.515L361.879 184L353.393 192.485C352.808 193.071 352.808 194.021 353.393 194.607C353.979 195.192 354.929 195.192 355.515 194.607L365.061 185.061ZM228 185.5H364V182.5H228V185.5Z" fill="#B3B3B3"/>
<rect x="736" y="96" width="224" height="176" rx="80" fill="#9747FF"/>
<path d="M826.341 169.909H830.744V189.043C830.744 191.079 830.266 192.883 829.309 194.455C828.353 196.017 827.008 197.248 825.275 198.148C823.542 199.038 821.511 199.483 819.182 199.483C816.861 199.483 814.835 199.038 813.102 198.148C811.369 197.248 810.024 196.017 809.068 194.455C808.111 192.883 807.633 191.079 807.633 189.043V169.909H812.022V188.688C812.022 190.004 812.311 191.173 812.889 192.196C813.476 193.219 814.305 194.024 815.375 194.611C816.445 195.188 817.714 195.477 819.182 195.477C820.659 195.477 821.932 195.188 823.003 194.611C824.082 194.024 824.906 193.219 825.474 192.196C826.052 191.173 826.341 190.004 826.341 188.688V169.909ZM852.254 182.509L848.404 183.19C848.244 182.698 847.988 182.229 847.637 181.784C847.297 181.339 846.833 180.974 846.245 180.69C845.658 180.406 844.924 180.264 844.044 180.264C842.841 180.264 841.837 180.534 841.032 181.074C840.227 181.604 839.825 182.291 839.825 183.134C839.825 183.863 840.095 184.45 840.635 184.895C841.174 185.34 842.046 185.705 843.248 185.989L846.714 186.784C848.722 187.248 850.218 187.963 851.203 188.929C852.188 189.895 852.68 191.15 852.68 192.693C852.68 194 852.301 195.165 851.544 196.188C850.796 197.201 849.749 197.996 848.404 198.574C847.069 199.152 845.521 199.44 843.76 199.44C841.316 199.44 839.323 198.92 837.779 197.878C836.236 196.827 835.289 195.335 834.939 193.403L839.044 192.778C839.299 193.848 839.825 194.658 840.62 195.207C841.416 195.747 842.453 196.017 843.731 196.017C845.123 196.017 846.236 195.728 847.069 195.151C847.903 194.563 848.319 193.848 848.319 193.006C848.319 192.324 848.064 191.751 847.552 191.287C847.05 190.823 846.279 190.473 845.237 190.236L841.544 189.426C839.508 188.962 838.002 188.223 837.027 187.21C836.061 186.197 835.578 184.914 835.578 183.361C835.578 182.073 835.938 180.946 836.657 179.98C837.377 179.014 838.371 178.261 839.64 177.722C840.909 177.172 842.363 176.898 844.001 176.898C846.359 176.898 848.215 177.409 849.569 178.432C850.923 179.445 851.818 180.804 852.254 182.509ZM865.873 199.44C863.724 199.44 861.872 198.981 860.319 198.062C858.776 197.134 857.582 195.832 856.74 194.156C855.906 192.471 855.49 190.496 855.49 188.233C855.49 185.998 855.906 184.028 856.74 182.324C857.582 180.619 858.757 179.289 860.262 178.332C861.778 177.376 863.548 176.898 865.575 176.898C866.806 176.898 867.999 177.101 869.154 177.509C870.31 177.916 871.347 178.555 872.265 179.426C873.184 180.297 873.908 181.429 874.439 182.821C874.969 184.204 875.234 185.884 875.234 187.864V189.369H857.89V186.188H871.072C871.072 185.07 870.845 184.08 870.39 183.219C869.936 182.348 869.297 181.661 868.473 181.159C867.658 180.657 866.702 180.406 865.603 180.406C864.41 180.406 863.368 180.7 862.478 181.287C861.598 181.865 860.916 182.622 860.433 183.56C859.959 184.488 859.723 185.496 859.723 186.585V189.071C859.723 190.529 859.978 191.77 860.49 192.793C861.011 193.815 861.735 194.597 862.663 195.136C863.591 195.667 864.675 195.932 865.916 195.932C866.721 195.932 867.455 195.818 868.118 195.591C868.78 195.354 869.353 195.004 869.836 194.54C870.319 194.076 870.689 193.503 870.944 192.821L874.964 193.545C874.642 194.729 874.064 195.766 873.231 196.656C872.407 197.537 871.37 198.223 870.12 198.716C868.88 199.199 867.464 199.44 865.873 199.44ZM879.066 199V177.182H883.171V180.648H883.399C883.796 179.473 884.497 178.55 885.501 177.878C886.514 177.196 887.66 176.855 888.939 176.855C889.204 176.855 889.516 176.865 889.876 176.884C890.245 176.902 890.534 176.926 890.743 176.955V181.017C890.572 180.97 890.269 180.918 889.833 180.861C889.398 180.795 888.962 180.761 888.527 180.761C887.523 180.761 886.628 180.974 885.842 181.401C885.065 181.817 884.45 182.4 883.995 183.148C883.541 183.886 883.314 184.729 883.314 185.676V199H879.066Z" fill="white"/>
<path d="M596 182.5C595.172 182.5 594.5 183.172 594.5 184C594.5 184.828 595.172 185.5 596 185.5V182.5ZM733.061 185.061C733.646 184.475 733.646 183.525 733.061 182.939L723.515 173.393C722.929 172.808 721.979 172.808 721.393 173.393C720.808 173.979 720.808 174.929 721.393 175.515L729.879 184L721.393 192.485C720.808 193.071 720.808 194.021 721.393 194.607C721.979 195.192 722.929 195.192 723.515 194.607L733.061 185.061ZM596 185.5H732V182.5H596V185.5Z" fill="#B3B3B3"/>
</svg>
