<svg width="500" height="400" viewBox="0 0 500 400" fill="none" xmlns="http://www.w3.org/2000/svg">
<rect width="500" height="400" rx="12" fill="#3AADB3"/>
<path d="M107.141 54L115.938 31.0938H119.203L128.578 54H125.125L122.453 47.0625H112.875L110.359 54H107.141ZM113.75 44.5938H121.516L119.125 38.25C118.396 36.3229 117.854 34.7396 117.5 33.5C117.208 34.9688 116.797 36.4271 116.266 37.875L113.75 44.5938ZM130.641 60.3594V37.4062H133.203V39.5625C133.807 38.7188 134.49 38.0885 135.25 37.6719C136.01 37.2448 136.932 37.0312 138.016 37.0312C139.432 37.0312 140.682 37.3958 141.766 38.125C142.849 38.8542 143.667 39.8854 144.219 41.2188C144.771 42.5417 145.047 43.9948 145.047 45.5781C145.047 47.276 144.74 48.8073 144.125 50.1719C143.521 51.526 142.635 52.5677 141.469 53.2969C140.312 54.0156 139.094 54.375 137.812 54.375C136.875 54.375 136.031 54.1771 135.281 53.7812C134.542 53.3854 133.932 52.8854 133.453 52.2812V60.3594H130.641ZM133.188 45.7969C133.188 47.9323 133.62 49.5104 134.484 50.5312C135.349 51.5521 136.396 52.0625 137.625 52.0625C138.875 52.0625 139.943 51.5365 140.828 50.4844C141.724 49.4219 142.172 47.7812 142.172 45.5625C142.172 43.4479 141.734 41.8646 140.859 40.8125C139.995 39.7604 138.958 39.2344 137.75 39.2344C136.552 39.2344 135.49 39.7969 134.562 40.9219C133.646 42.0365 133.188 43.6615 133.188 45.7969ZM148.453 60.3594V37.4062H151.016V39.5625C151.62 38.7188 152.302 38.0885 153.062 37.6719C153.823 37.2448 154.745 37.0312 155.828 37.0312C157.245 37.0312 158.495 37.3958 159.578 38.125C160.661 38.8542 161.479 39.8854 162.031 41.2188C162.583 42.5417 162.859 43.9948 162.859 45.5781C162.859 47.276 162.552 48.8073 161.938 50.1719C161.333 51.526 160.448 52.5677 159.281 53.2969C158.125 54.0156 156.906 54.375 155.625 54.375C154.688 54.375 153.844 54.1771 153.094 53.7812C152.354 53.3854 151.745 52.8854 151.266 52.2812V60.3594H148.453ZM151 45.7969C151 47.9323 151.432 49.5104 152.297 50.5312C153.161 51.5521 154.208 52.0625 155.438 52.0625C156.688 52.0625 157.755 51.5365 158.641 50.4844C159.536 49.4219 159.984 47.7812 159.984 45.5625C159.984 43.4479 159.547 41.8646 158.672 40.8125C157.807 39.7604 156.771 39.2344 155.562 39.2344C154.365 39.2344 153.302 39.7969 152.375 40.9219C151.458 42.0365 151 43.6615 151 45.7969ZM166.203 54V31.0938H169.016V54H166.203ZM173.406 34.3281V31.0938H176.219V34.3281H173.406ZM173.406 54V37.4062H176.219V54H173.406ZM191.344 47.9219L194.109 48.2812C193.807 50.1875 193.031 51.6823 191.781 52.7656C190.542 53.8385 189.016 54.375 187.203 54.375C184.932 54.375 183.104 53.6354 181.719 52.1562C180.344 50.6667 179.656 48.5365 179.656 45.7656C179.656 43.974 179.953 42.4062 180.547 41.0625C181.141 39.7188 182.042 38.7135 183.25 38.0469C184.469 37.3698 185.792 37.0312 187.219 37.0312C189.021 37.0312 190.495 37.4896 191.641 38.4062C192.786 39.3125 193.521 40.6042 193.844 42.2812L191.109 42.7031C190.849 41.5885 190.385 40.75 189.719 40.1875C189.062 39.625 188.266 39.3438 187.328 39.3438C185.911 39.3438 184.76 39.8542 183.875 40.875C182.99 41.8854 182.547 43.4896 182.547 45.6875C182.547 47.9167 182.974 49.5365 183.828 50.5469C184.682 51.5573 185.797 52.0625 187.172 52.0625C188.276 52.0625 189.198 51.724 189.938 51.0469C190.677 50.3698 191.146 49.3281 191.344 47.9219ZM207.344 51.9531C206.302 52.8385 205.297 53.4635 204.328 53.8281C203.37 54.1927 202.339 54.375 201.234 54.375C199.411 54.375 198.01 53.9323 197.031 53.0469C196.052 52.151 195.562 51.0104 195.562 49.625C195.562 48.8125 195.745 48.0729 196.109 47.4062C196.484 46.7292 196.969 46.1875 197.562 45.7812C198.167 45.375 198.844 45.0677 199.594 44.8594C200.146 44.7135 200.979 44.5729 202.094 44.4375C204.365 44.1667 206.036 43.8438 207.109 43.4688C207.12 43.0833 207.125 42.8385 207.125 42.7344C207.125 41.5885 206.859 40.7812 206.328 40.3125C205.609 39.6771 204.542 39.3594 203.125 39.3594C201.802 39.3594 200.823 39.5938 200.188 40.0625C199.562 40.5208 199.099 41.3385 198.797 42.5156L196.047 42.1406C196.297 40.9635 196.708 40.0156 197.281 39.2969C197.854 38.5677 198.682 38.0104 199.766 37.625C200.849 37.2292 202.104 37.0312 203.531 37.0312C204.948 37.0312 206.099 37.1979 206.984 37.5312C207.87 37.8646 208.521 38.2865 208.938 38.7969C209.354 39.2969 209.646 39.9323 209.812 40.7031C209.906 41.1823 209.953 42.0469 209.953 43.2969V47.0469C209.953 49.6615 210.01 51.3177 210.125 52.0156C210.25 52.7031 210.49 53.3646 210.844 54H207.906C207.615 53.4167 207.427 52.7344 207.344 51.9531ZM207.109 45.6719C206.089 46.0885 204.557 46.4427 202.516 46.7344C201.359 46.901 200.542 47.0885 200.062 47.2969C199.583 47.5052 199.214 47.8125 198.953 48.2188C198.693 48.6146 198.562 49.0573 198.562 49.5469C198.562 50.2969 198.844 50.9219 199.406 51.4219C199.979 51.9219 200.812 52.1719 201.906 52.1719C202.99 52.1719 203.953 51.9375 204.797 51.4688C205.641 50.9896 206.26 50.3385 206.656 49.5156C206.958 48.8802 207.109 47.9427 207.109 46.7031V45.6719ZM220.469 51.4844L220.875 53.9688C220.083 54.1354 219.375 54.2188 218.75 54.2188C217.729 54.2188 216.938 54.0573 216.375 53.7344C215.812 53.4115 215.417 52.9896 215.188 52.4688C214.958 51.9375 214.844 50.8281 214.844 49.1406V39.5938H212.781V37.4062H214.844V33.2969L217.641 31.6094V37.4062H220.469V39.5938H217.641V49.2969C217.641 50.099 217.688 50.6146 217.781 50.8438C217.885 51.0729 218.047 51.2552 218.266 51.3906C218.495 51.526 218.818 51.5938 219.234 51.5938C219.547 51.5938 219.958 51.5573 220.469 51.4844ZM223.25 34.3281V31.0938H226.062V34.3281H223.25ZM223.25 54V37.4062H226.062V54H223.25ZM229.312 45.7031C229.312 42.6302 230.167 40.3542 231.875 38.875C233.302 37.6458 235.042 37.0312 237.094 37.0312C239.375 37.0312 241.24 37.7812 242.688 39.2812C244.135 40.7708 244.859 42.8333 244.859 45.4688C244.859 47.6042 244.536 49.2865 243.891 50.5156C243.255 51.7344 242.323 52.6823 241.094 53.3594C239.875 54.0365 238.542 54.375 237.094 54.375C234.771 54.375 232.891 53.6302 231.453 52.1406C230.026 50.651 229.312 48.5052 229.312 45.7031ZM232.203 45.7031C232.203 47.8281 232.667 49.4219 233.594 50.4844C234.521 51.5365 235.688 52.0625 237.094 52.0625C238.49 52.0625 239.651 51.5312 240.578 50.4688C241.505 49.4062 241.969 47.7865 241.969 45.6094C241.969 43.5573 241.5 42.0052 240.562 40.9531C239.635 39.8906 238.479 39.3594 237.094 39.3594C235.688 39.3594 234.521 39.8854 233.594 40.9375C232.667 41.9896 232.203 43.5781 232.203 45.7031ZM248.172 54V37.4062H250.703V39.7656C251.922 37.9427 253.682 37.0312 255.984 37.0312C256.984 37.0312 257.901 37.2135 258.734 37.5781C259.578 37.9323 260.208 38.401 260.625 38.9844C261.042 39.5677 261.333 40.2604 261.5 41.0625C261.604 41.5833 261.656 42.4948 261.656 43.7969V54H258.844V43.9062C258.844 42.7604 258.734 41.9062 258.516 41.3438C258.297 40.7708 257.906 40.3177 257.344 39.9844C256.792 39.6406 256.141 39.4688 255.391 39.4688C254.193 39.4688 253.156 39.849 252.281 40.6094C251.417 41.3698 250.984 42.8125 250.984 44.9375V54H248.172ZM273.766 49.0469L276.547 48.6094C276.703 49.724 277.135 50.5781 277.844 51.1719C278.562 51.7656 279.562 52.0625 280.844 52.0625C282.135 52.0625 283.094 51.8021 283.719 51.2812C284.344 50.75 284.656 50.1302 284.656 49.4219C284.656 48.7865 284.38 48.2865 283.828 47.9219C283.443 47.6719 282.484 47.3542 280.953 46.9688C278.891 46.4479 277.458 46 276.656 45.625C275.865 45.2396 275.26 44.7135 274.844 44.0469C274.438 43.3698 274.234 42.625 274.234 41.8125C274.234 41.0729 274.401 40.3906 274.734 39.7656C275.078 39.1302 275.542 38.6042 276.125 38.1875C276.562 37.8646 277.156 37.5938 277.906 37.375C278.667 37.1458 279.479 37.0312 280.344 37.0312C281.646 37.0312 282.786 37.2188 283.766 37.5938C284.755 37.9688 285.484 38.4792 285.953 39.125C286.422 39.7604 286.745 40.6146 286.922 41.6875L284.172 42.0625C284.047 41.2083 283.682 40.5417 283.078 40.0625C282.484 39.5833 281.641 39.3438 280.547 39.3438C279.255 39.3438 278.333 39.5573 277.781 39.9844C277.229 40.4115 276.953 40.9115 276.953 41.4844C276.953 41.849 277.068 42.1771 277.297 42.4688C277.526 42.7708 277.885 43.0208 278.375 43.2188C278.656 43.3229 279.484 43.5625 280.859 43.9375C282.849 44.4688 284.234 44.9062 285.016 45.25C285.807 45.5833 286.427 46.0729 286.875 46.7188C287.323 47.3646 287.547 48.1667 287.547 49.125C287.547 50.0625 287.271 50.9479 286.719 51.7812C286.177 52.6042 285.391 53.2448 284.359 53.7031C283.328 54.151 282.161 54.375 280.859 54.375C278.703 54.375 277.057 53.9271 275.922 53.0312C274.797 52.1354 274.078 50.8073 273.766 49.0469ZM289.844 45.7031C289.844 42.6302 290.698 40.3542 292.406 38.875C293.833 37.6458 295.573 37.0312 297.625 37.0312C299.906 37.0312 301.771 37.7812 303.219 39.2812C304.667 40.7708 305.391 42.8333 305.391 45.4688C305.391 47.6042 305.068 49.2865 304.422 50.5156C303.786 51.7344 302.854 52.6823 301.625 53.3594C300.406 54.0365 299.073 54.375 297.625 54.375C295.302 54.375 293.422 53.6302 291.984 52.1406C290.557 50.651 289.844 48.5052 289.844 45.7031ZM292.734 45.7031C292.734 47.8281 293.198 49.4219 294.125 50.4844C295.052 51.5365 296.219 52.0625 297.625 52.0625C299.021 52.0625 300.182 51.5312 301.109 50.4688C302.036 49.4062 302.5 47.7865 302.5 45.6094C302.5 43.5573 302.031 42.0052 301.094 40.9531C300.167 39.8906 299.01 39.3594 297.625 39.3594C296.219 39.3594 295.052 39.8854 294.125 40.9375C293.198 41.9896 292.734 43.5781 292.734 45.7031ZM309.375 54V39.5938H306.891V37.4062H309.375V35.6406C309.375 34.526 309.474 33.6979 309.672 33.1562C309.943 32.4271 310.417 31.8385 311.094 31.3906C311.781 30.9323 312.74 30.7031 313.969 30.7031C314.76 30.7031 315.635 30.7969 316.594 30.9844L316.172 33.4375C315.589 33.3333 315.036 33.2812 314.516 33.2812C313.661 33.2812 313.057 33.4635 312.703 33.8281C312.349 34.1927 312.172 34.875 312.172 35.875V37.4062H315.406V39.5938H312.172V54H309.375ZM323.75 51.4844L324.156 53.9688C323.365 54.1354 322.656 54.2188 322.031 54.2188C321.01 54.2188 320.219 54.0573 319.656 53.7344C319.094 53.4115 318.698 52.9896 318.469 52.4688C318.24 51.9375 318.125 50.8281 318.125 49.1406V39.5938H316.062V37.4062H318.125V33.2969L320.922 31.6094V37.4062H323.75V39.5938H320.922V49.2969C320.922 50.099 320.969 50.6146 321.062 50.8438C321.167 51.0729 321.328 51.2552 321.547 51.3906C321.776 51.526 322.099 51.5938 322.516 51.5938C322.828 51.5938 323.24 51.5573 323.75 51.4844ZM329.578 54L324.5 37.4062H327.406L330.047 46.9844L331.031 50.5469C331.073 50.3698 331.359 49.2292 331.891 47.125L334.531 37.4062H337.422L339.906 47.0312L340.734 50.2031L341.688 47L344.531 37.4062H347.266L342.078 54H339.156L336.516 44.0625L335.875 41.2344L332.516 54H329.578ZM360.469 51.9531C359.427 52.8385 358.422 53.4635 357.453 53.8281C356.495 54.1927 355.464 54.375 354.359 54.375C352.536 54.375 351.135 53.9323 350.156 53.0469C349.177 52.151 348.688 51.0104 348.688 49.625C348.688 48.8125 348.87 48.0729 349.234 47.4062C349.609 46.7292 350.094 46.1875 350.688 45.7812C351.292 45.375 351.969 45.0677 352.719 44.8594C353.271 44.7135 354.104 44.5729 355.219 44.4375C357.49 44.1667 359.161 43.8438 360.234 43.4688C360.245 43.0833 360.25 42.8385 360.25 42.7344C360.25 41.5885 359.984 40.7812 359.453 40.3125C358.734 39.6771 357.667 39.3594 356.25 39.3594C354.927 39.3594 353.948 39.5938 353.312 40.0625C352.688 40.5208 352.224 41.3385 351.922 42.5156L349.172 42.1406C349.422 40.9635 349.833 40.0156 350.406 39.2969C350.979 38.5677 351.807 38.0104 352.891 37.625C353.974 37.2292 355.229 37.0312 356.656 37.0312C358.073 37.0312 359.224 37.1979 360.109 37.5312C360.995 37.8646 361.646 38.2865 362.062 38.7969C362.479 39.2969 362.771 39.9323 362.938 40.7031C363.031 41.1823 363.078 42.0469 363.078 43.2969V47.0469C363.078 49.6615 363.135 51.3177 363.25 52.0156C363.375 52.7031 363.615 53.3646 363.969 54H361.031C360.74 53.4167 360.552 52.7344 360.469 51.9531ZM360.234 45.6719C359.214 46.0885 357.682 46.4427 355.641 46.7344C354.484 46.901 353.667 47.0885 353.188 47.2969C352.708 47.5052 352.339 47.8125 352.078 48.2188C351.818 48.6146 351.688 49.0573 351.688 49.5469C351.688 50.2969 351.969 50.9219 352.531 51.4219C353.104 51.9219 353.938 52.1719 355.031 52.1719C356.115 52.1719 357.078 51.9375 357.922 51.4688C358.766 50.9896 359.385 50.3385 359.781 49.5156C360.083 48.8802 360.234 47.9427 360.234 46.7031V45.6719ZM367.422 54V37.4062H369.953V39.9219C370.599 38.7448 371.193 37.9688 371.734 37.5938C372.286 37.2188 372.891 37.0312 373.547 37.0312C374.495 37.0312 375.458 37.3333 376.438 37.9375L375.469 40.5469C374.781 40.1406 374.094 39.9375 373.406 39.9375C372.792 39.9375 372.24 40.125 371.75 40.5C371.26 40.8646 370.911 41.375 370.703 42.0312C370.391 43.0312 370.234 44.125 370.234 45.3125V54H367.422ZM389.469 48.6562L392.375 49.0156C391.917 50.7135 391.068 52.0312 389.828 52.9688C388.589 53.9062 387.005 54.375 385.078 54.375C382.651 54.375 380.724 53.6302 379.297 52.1406C377.88 50.6406 377.172 48.5417 377.172 45.8438C377.172 43.0521 377.891 40.8854 379.328 39.3438C380.766 37.8021 382.63 37.0312 384.922 37.0312C387.141 37.0312 388.953 37.7865 390.359 39.2969C391.766 40.8073 392.469 42.9323 392.469 45.6719C392.469 45.8385 392.464 46.0885 392.453 46.4219H380.078C380.182 48.2448 380.698 49.6406 381.625 50.6094C382.552 51.5781 383.708 52.0625 385.094 52.0625C386.125 52.0625 387.005 51.7917 387.734 51.25C388.464 50.7083 389.042 49.8438 389.469 48.6562ZM380.234 44.1094H389.5C389.375 42.7135 389.021 41.6667 388.438 40.9688C387.542 39.8854 386.38 39.3438 384.953 39.3438C383.661 39.3438 382.573 39.776 381.688 40.6406C380.812 41.5052 380.328 42.6615 380.234 44.1094Z" fill="white"/>
<rect x="85" y="81" width="330" height="245" rx="12" fill="#BDE3FF"/>
<path d="M122.906 127.694C122.906 123.892 123.927 120.918 125.969 118.772C128.01 116.616 130.646 115.537 133.875 115.537C135.99 115.537 137.896 116.043 139.594 117.053C141.292 118.064 142.583 119.475 143.469 121.287C144.365 123.09 144.812 125.136 144.812 127.428C144.812 129.751 144.344 131.829 143.406 133.662C142.469 135.496 141.141 136.886 139.422 137.834C137.703 138.772 135.849 139.241 133.859 139.241C131.703 139.241 129.776 138.72 128.078 137.678C126.38 136.636 125.094 135.215 124.219 133.412C123.344 131.61 122.906 129.704 122.906 127.694ZM126.031 127.741C126.031 130.501 126.771 132.678 128.25 134.272C129.74 135.855 131.604 136.647 133.844 136.647C136.125 136.647 138 135.845 139.469 134.241C140.948 132.636 141.688 130.36 141.688 127.412C141.688 125.548 141.37 123.923 140.734 122.537C140.109 121.142 139.188 120.064 137.969 119.303C136.76 118.532 135.401 118.147 133.891 118.147C131.745 118.147 129.896 118.886 128.344 120.366C126.802 121.834 126.031 124.293 126.031 127.741ZM148.375 145.209V122.256H150.938V124.412C151.542 123.569 152.224 122.939 152.984 122.522C153.745 122.095 154.667 121.881 155.75 121.881C157.167 121.881 158.417 122.246 159.5 122.975C160.583 123.704 161.401 124.735 161.953 126.069C162.505 127.392 162.781 128.845 162.781 130.428C162.781 132.126 162.474 133.657 161.859 135.022C161.255 136.376 160.37 137.418 159.203 138.147C158.047 138.866 156.828 139.225 155.547 139.225C154.609 139.225 153.766 139.027 153.016 138.631C152.276 138.235 151.667 137.735 151.188 137.131V145.209H148.375ZM150.922 130.647C150.922 132.782 151.354 134.36 152.219 135.381C153.083 136.402 154.13 136.912 155.359 136.912C156.609 136.912 157.677 136.386 158.562 135.334C159.458 134.272 159.906 132.631 159.906 130.412C159.906 128.298 159.469 126.715 158.594 125.662C157.729 124.61 156.693 124.084 155.484 124.084C154.286 124.084 153.224 124.647 152.297 125.772C151.38 126.886 150.922 128.511 150.922 130.647ZM177.547 133.506L180.453 133.866C179.995 135.564 179.146 136.881 177.906 137.819C176.667 138.756 175.083 139.225 173.156 139.225C170.729 139.225 168.802 138.48 167.375 136.991C165.958 135.491 165.25 133.392 165.25 130.694C165.25 127.902 165.969 125.735 167.406 124.194C168.844 122.652 170.708 121.881 173 121.881C175.219 121.881 177.031 122.636 178.438 124.147C179.844 125.657 180.547 127.782 180.547 130.522C180.547 130.689 180.542 130.939 180.531 131.272H168.156C168.26 133.095 168.776 134.491 169.703 135.459C170.63 136.428 171.786 136.912 173.172 136.912C174.203 136.912 175.083 136.642 175.812 136.1C176.542 135.558 177.12 134.694 177.547 133.506ZM168.312 128.959H177.578C177.453 127.564 177.099 126.517 176.516 125.819C175.62 124.735 174.458 124.194 173.031 124.194C171.74 124.194 170.651 124.626 169.766 125.491C168.891 126.355 168.406 127.511 168.312 128.959ZM183.969 138.85V122.256H186.5V124.772C187.146 123.595 187.74 122.819 188.281 122.444C188.833 122.069 189.438 121.881 190.094 121.881C191.042 121.881 192.005 122.183 192.984 122.787L192.016 125.397C191.328 124.991 190.641 124.787 189.953 124.787C189.339 124.787 188.786 124.975 188.297 125.35C187.807 125.715 187.458 126.225 187.25 126.881C186.938 127.881 186.781 128.975 186.781 130.162V138.85H183.969ZM205.484 136.803C204.443 137.689 203.438 138.314 202.469 138.678C201.51 139.043 200.479 139.225 199.375 139.225C197.552 139.225 196.151 138.782 195.172 137.897C194.193 137.001 193.703 135.86 193.703 134.475C193.703 133.662 193.885 132.923 194.25 132.256C194.625 131.579 195.109 131.037 195.703 130.631C196.307 130.225 196.984 129.918 197.734 129.709C198.286 129.564 199.12 129.423 200.234 129.287C202.505 129.017 204.177 128.694 205.25 128.319C205.26 127.933 205.266 127.689 205.266 127.584C205.266 126.439 205 125.631 204.469 125.162C203.75 124.527 202.682 124.209 201.266 124.209C199.943 124.209 198.964 124.444 198.328 124.912C197.703 125.371 197.24 126.189 196.938 127.366L194.188 126.991C194.438 125.814 194.849 124.866 195.422 124.147C195.995 123.418 196.823 122.86 197.906 122.475C198.99 122.079 200.245 121.881 201.672 121.881C203.089 121.881 204.24 122.048 205.125 122.381C206.01 122.715 206.661 123.136 207.078 123.647C207.495 124.147 207.786 124.782 207.953 125.553C208.047 126.032 208.094 126.897 208.094 128.147V131.897C208.094 134.511 208.151 136.168 208.266 136.866C208.391 137.553 208.63 138.215 208.984 138.85H206.047C205.755 138.267 205.568 137.584 205.484 136.803ZM205.25 130.522C204.229 130.939 202.698 131.293 200.656 131.584C199.5 131.751 198.682 131.939 198.203 132.147C197.724 132.355 197.354 132.662 197.094 133.069C196.833 133.465 196.703 133.907 196.703 134.397C196.703 135.147 196.984 135.772 197.547 136.272C198.12 136.772 198.953 137.022 200.047 137.022C201.13 137.022 202.094 136.787 202.938 136.319C203.781 135.84 204.401 135.189 204.797 134.366C205.099 133.73 205.25 132.793 205.25 131.553V130.522ZM218.609 136.334L219.016 138.819C218.224 138.985 217.516 139.069 216.891 139.069C215.87 139.069 215.078 138.907 214.516 138.584C213.953 138.261 213.557 137.84 213.328 137.319C213.099 136.787 212.984 135.678 212.984 133.991V124.444H210.922V122.256H212.984V118.147L215.781 116.459V122.256H218.609V124.444H215.781V134.147C215.781 134.949 215.828 135.465 215.922 135.694C216.026 135.923 216.188 136.105 216.406 136.241C216.635 136.376 216.958 136.444 217.375 136.444C217.688 136.444 218.099 136.407 218.609 136.334ZM221.391 119.178V115.944H224.203V119.178H221.391ZM221.391 138.85V122.256H224.203V138.85H221.391ZM228.5 138.85V122.256H231.031V124.616C232.25 122.793 234.01 121.881 236.312 121.881C237.312 121.881 238.229 122.064 239.062 122.428C239.906 122.782 240.536 123.251 240.953 123.834C241.37 124.418 241.661 125.11 241.828 125.912C241.932 126.433 241.984 127.345 241.984 128.647V138.85H239.172V128.756C239.172 127.61 239.062 126.756 238.844 126.194C238.625 125.621 238.234 125.168 237.672 124.834C237.12 124.491 236.469 124.319 235.719 124.319C234.521 124.319 233.484 124.699 232.609 125.459C231.745 126.22 231.312 127.662 231.312 129.787V138.85H228.5ZM245.797 140.225L248.531 140.631C248.646 141.475 248.964 142.09 249.484 142.475C250.182 142.996 251.135 143.256 252.344 143.256C253.646 143.256 254.651 142.996 255.359 142.475C256.068 141.954 256.547 141.225 256.797 140.287C256.943 139.715 257.01 138.511 257 136.678C255.771 138.126 254.24 138.85 252.406 138.85C250.125 138.85 248.359 138.027 247.109 136.381C245.859 134.735 245.234 132.761 245.234 130.459C245.234 128.876 245.521 127.418 246.094 126.084C246.667 124.741 247.495 123.704 248.578 122.975C249.672 122.246 250.953 121.881 252.422 121.881C254.38 121.881 255.995 122.673 257.266 124.256V122.256H259.859V136.6C259.859 139.183 259.594 141.011 259.062 142.084C258.542 143.168 257.708 144.022 256.562 144.647C255.427 145.272 254.026 145.584 252.359 145.584C250.38 145.584 248.781 145.136 247.562 144.241C246.344 143.355 245.755 142.017 245.797 140.225ZM248.125 130.256C248.125 132.433 248.557 134.022 249.422 135.022C250.286 136.022 251.37 136.522 252.672 136.522C253.964 136.522 255.047 136.027 255.922 135.037C256.797 134.037 257.234 132.475 257.234 130.35C257.234 128.319 256.781 126.787 255.875 125.756C254.979 124.725 253.896 124.209 252.625 124.209C251.375 124.209 250.312 124.72 249.438 125.741C248.562 126.751 248.125 128.256 248.125 130.256ZM272.359 131.491L275.219 131.241C275.354 132.386 275.667 133.329 276.156 134.069C276.656 134.798 277.427 135.392 278.469 135.85C279.51 136.298 280.682 136.522 281.984 136.522C283.141 136.522 284.161 136.35 285.047 136.006C285.932 135.662 286.589 135.194 287.016 134.6C287.453 133.996 287.672 133.34 287.672 132.631C287.672 131.912 287.464 131.287 287.047 130.756C286.63 130.215 285.943 129.761 284.984 129.397C284.37 129.157 283.01 128.787 280.906 128.287C278.802 127.777 277.328 127.298 276.484 126.85C275.391 126.277 274.573 125.569 274.031 124.725C273.5 123.871 273.234 122.918 273.234 121.866C273.234 120.709 273.562 119.631 274.219 118.631C274.875 117.621 275.833 116.855 277.094 116.334C278.354 115.814 279.755 115.553 281.297 115.553C282.995 115.553 284.49 115.829 285.781 116.381C287.083 116.923 288.083 117.725 288.781 118.787C289.479 119.85 289.854 121.053 289.906 122.397L287 122.616C286.844 121.168 286.312 120.074 285.406 119.334C284.51 118.595 283.182 118.225 281.422 118.225C279.589 118.225 278.25 118.564 277.406 119.241C276.573 119.907 276.156 120.715 276.156 121.662C276.156 122.485 276.453 123.162 277.047 123.694C277.63 124.225 279.151 124.772 281.609 125.334C284.078 125.886 285.771 126.371 286.688 126.787C288.021 127.402 289.005 128.183 289.641 129.131C290.276 130.069 290.594 131.152 290.594 132.381C290.594 133.6 290.245 134.751 289.547 135.834C288.849 136.907 287.844 137.746 286.531 138.35C285.229 138.944 283.76 139.241 282.125 139.241C280.052 139.241 278.312 138.939 276.906 138.334C275.51 137.73 274.411 136.824 273.609 135.616C272.818 134.397 272.401 133.022 272.359 131.491ZM294.25 145.241L293.938 142.6C294.552 142.767 295.089 142.85 295.547 142.85C296.172 142.85 296.672 142.746 297.047 142.537C297.422 142.329 297.729 142.037 297.969 141.662C298.146 141.381 298.432 140.683 298.828 139.569C298.88 139.412 298.964 139.183 299.078 138.881L292.781 122.256H295.812L299.266 131.866C299.714 133.084 300.115 134.366 300.469 135.709C300.792 134.418 301.177 133.157 301.625 131.928L305.172 122.256H307.984L301.672 139.131C300.995 140.954 300.469 142.209 300.094 142.897C299.594 143.824 299.021 144.501 298.375 144.928C297.729 145.366 296.958 145.584 296.062 145.584C295.521 145.584 294.917 145.47 294.25 145.241ZM309.25 133.897L312.031 133.459C312.188 134.574 312.62 135.428 313.328 136.022C314.047 136.616 315.047 136.912 316.328 136.912C317.62 136.912 318.578 136.652 319.203 136.131C319.828 135.6 320.141 134.98 320.141 134.272C320.141 133.636 319.865 133.136 319.312 132.772C318.927 132.522 317.969 132.204 316.438 131.819C314.375 131.298 312.943 130.85 312.141 130.475C311.349 130.09 310.745 129.564 310.328 128.897C309.922 128.22 309.719 127.475 309.719 126.662C309.719 125.923 309.885 125.241 310.219 124.616C310.562 123.98 311.026 123.454 311.609 123.037C312.047 122.715 312.641 122.444 313.391 122.225C314.151 121.996 314.964 121.881 315.828 121.881C317.13 121.881 318.271 122.069 319.25 122.444C320.24 122.819 320.969 123.329 321.438 123.975C321.906 124.61 322.229 125.465 322.406 126.537L319.656 126.912C319.531 126.058 319.167 125.392 318.562 124.912C317.969 124.433 317.125 124.194 316.031 124.194C314.74 124.194 313.818 124.407 313.266 124.834C312.714 125.261 312.438 125.761 312.438 126.334C312.438 126.699 312.552 127.027 312.781 127.319C313.01 127.621 313.37 127.871 313.859 128.069C314.141 128.173 314.969 128.412 316.344 128.787C318.333 129.319 319.719 129.756 320.5 130.1C321.292 130.433 321.911 130.923 322.359 131.569C322.807 132.215 323.031 133.017 323.031 133.975C323.031 134.912 322.755 135.798 322.203 136.631C321.661 137.454 320.875 138.095 319.844 138.553C318.812 139.001 317.646 139.225 316.344 139.225C314.188 139.225 312.542 138.777 311.406 137.881C310.281 136.985 309.562 135.657 309.25 133.897ZM332.516 136.334L332.922 138.819C332.13 138.985 331.422 139.069 330.797 139.069C329.776 139.069 328.984 138.907 328.422 138.584C327.859 138.261 327.464 137.84 327.234 137.319C327.005 136.787 326.891 135.678 326.891 133.991V124.444H324.828V122.256H326.891V118.147L329.688 116.459V122.256H332.516V124.444H329.688V134.147C329.688 134.949 329.734 135.465 329.828 135.694C329.932 135.923 330.094 136.105 330.312 136.241C330.542 136.376 330.865 136.444 331.281 136.444C331.594 136.444 332.005 136.407 332.516 136.334ZM346.641 133.506L349.547 133.866C349.089 135.564 348.24 136.881 347 137.819C345.76 138.756 344.177 139.225 342.25 139.225C339.823 139.225 337.896 138.48 336.469 136.991C335.052 135.491 334.344 133.392 334.344 130.694C334.344 127.902 335.062 125.735 336.5 124.194C337.938 122.652 339.802 121.881 342.094 121.881C344.312 121.881 346.125 122.636 347.531 124.147C348.938 125.657 349.641 127.782 349.641 130.522C349.641 130.689 349.635 130.939 349.625 131.272H337.25C337.354 133.095 337.87 134.491 338.797 135.459C339.724 136.428 340.88 136.912 342.266 136.912C343.297 136.912 344.177 136.642 344.906 136.1C345.635 135.558 346.214 134.694 346.641 133.506ZM337.406 128.959H346.672C346.547 127.564 346.193 126.517 345.609 125.819C344.714 124.735 343.552 124.194 342.125 124.194C340.833 124.194 339.745 124.626 338.859 125.491C337.984 126.355 337.5 127.511 337.406 128.959ZM353.094 138.85V122.256H355.609V124.584C356.13 123.772 356.823 123.121 357.688 122.631C358.552 122.131 359.536 121.881 360.641 121.881C361.87 121.881 362.875 122.136 363.656 122.647C364.448 123.157 365.005 123.871 365.328 124.787C366.641 122.85 368.349 121.881 370.453 121.881C372.099 121.881 373.365 122.34 374.25 123.256C375.135 124.162 375.578 125.564 375.578 127.459V138.85H372.781V128.397C372.781 127.272 372.688 126.465 372.5 125.975C372.323 125.475 371.995 125.074 371.516 124.772C371.036 124.47 370.474 124.319 369.828 124.319C368.661 124.319 367.693 124.709 366.922 125.491C366.151 126.261 365.766 127.501 365.766 129.209V138.85H362.953V128.069C362.953 126.819 362.724 125.881 362.266 125.256C361.807 124.631 361.057 124.319 360.016 124.319C359.224 124.319 358.49 124.527 357.812 124.944C357.146 125.36 356.661 125.97 356.359 126.772C356.057 127.574 355.906 128.73 355.906 130.241V138.85H353.094Z" fill="black"/>
<rect x="100" y="173" width="300" height="100" rx="12" fill="#6D8DCD"/>
<path d="M182.656 234V211.094H185.688V220.5H197.594V211.094H200.625V234H197.594V223.203H185.688V234H182.656ZM216.156 231.953C215.115 232.839 214.109 233.464 213.141 233.828C212.182 234.193 211.151 234.375 210.047 234.375C208.224 234.375 206.823 233.932 205.844 233.047C204.865 232.151 204.375 231.01 204.375 229.625C204.375 228.812 204.557 228.073 204.922 227.406C205.297 226.729 205.781 226.188 206.375 225.781C206.979 225.375 207.656 225.068 208.406 224.859C208.958 224.714 209.792 224.573 210.906 224.438C213.177 224.167 214.849 223.844 215.922 223.469C215.932 223.083 215.938 222.839 215.938 222.734C215.938 221.589 215.672 220.781 215.141 220.312C214.422 219.677 213.354 219.359 211.938 219.359C210.615 219.359 209.635 219.594 209 220.062C208.375 220.521 207.911 221.339 207.609 222.516L204.859 222.141C205.109 220.964 205.521 220.016 206.094 219.297C206.667 218.568 207.495 218.01 208.578 217.625C209.661 217.229 210.917 217.031 212.344 217.031C213.76 217.031 214.911 217.198 215.797 217.531C216.682 217.865 217.333 218.286 217.75 218.797C218.167 219.297 218.458 219.932 218.625 220.703C218.719 221.182 218.766 222.047 218.766 223.297V227.047C218.766 229.661 218.823 231.318 218.938 232.016C219.062 232.703 219.302 233.365 219.656 234H216.719C216.427 233.417 216.24 232.734 216.156 231.953ZM215.922 225.672C214.901 226.089 213.37 226.443 211.328 226.734C210.172 226.901 209.354 227.089 208.875 227.297C208.396 227.505 208.026 227.812 207.766 228.219C207.505 228.615 207.375 229.057 207.375 229.547C207.375 230.297 207.656 230.922 208.219 231.422C208.792 231.922 209.625 232.172 210.719 232.172C211.802 232.172 212.766 231.938 213.609 231.469C214.453 230.99 215.073 230.339 215.469 229.516C215.771 228.88 215.922 227.943 215.922 226.703V225.672ZM223.109 234V217.406H225.641V219.922C226.286 218.745 226.88 217.969 227.422 217.594C227.974 217.219 228.578 217.031 229.234 217.031C230.182 217.031 231.146 217.333 232.125 217.938L231.156 220.547C230.469 220.141 229.781 219.938 229.094 219.938C228.479 219.938 227.927 220.125 227.438 220.5C226.948 220.865 226.599 221.375 226.391 222.031C226.078 223.031 225.922 224.125 225.922 225.312V234H223.109ZM244.562 234V231.906C243.51 233.552 241.964 234.375 239.922 234.375C238.599 234.375 237.38 234.01 236.266 233.281C235.161 232.552 234.302 231.536 233.688 230.234C233.083 228.922 232.781 227.417 232.781 225.719C232.781 224.062 233.057 222.562 233.609 221.219C234.161 219.865 234.99 218.828 236.094 218.109C237.198 217.391 238.432 217.031 239.797 217.031C240.797 217.031 241.688 217.245 242.469 217.672C243.25 218.089 243.885 218.635 244.375 219.312V211.094H247.172V234H244.562ZM235.672 225.719C235.672 227.844 236.12 229.432 237.016 230.484C237.911 231.536 238.969 232.062 240.188 232.062C241.417 232.062 242.458 231.562 243.312 230.562C244.177 229.552 244.609 228.016 244.609 225.953C244.609 223.682 244.172 222.016 243.297 220.953C242.422 219.891 241.344 219.359 240.062 219.359C238.812 219.359 237.766 219.87 236.922 220.891C236.089 221.911 235.672 223.521 235.672 225.719ZM254.672 234L249.594 217.406H252.5L255.141 226.984L256.125 230.547C256.167 230.37 256.453 229.229 256.984 227.125L259.625 217.406H262.516L265 227.031L265.828 230.203L266.781 227L269.625 217.406H272.359L267.172 234H264.25L261.609 224.062L260.969 221.234L257.609 234H254.672ZM285.562 231.953C284.521 232.839 283.516 233.464 282.547 233.828C281.589 234.193 280.557 234.375 279.453 234.375C277.63 234.375 276.229 233.932 275.25 233.047C274.271 232.151 273.781 231.01 273.781 229.625C273.781 228.812 273.964 228.073 274.328 227.406C274.703 226.729 275.188 226.188 275.781 225.781C276.385 225.375 277.062 225.068 277.812 224.859C278.365 224.714 279.198 224.573 280.312 224.438C282.583 224.167 284.255 223.844 285.328 223.469C285.339 223.083 285.344 222.839 285.344 222.734C285.344 221.589 285.078 220.781 284.547 220.312C283.828 219.677 282.76 219.359 281.344 219.359C280.021 219.359 279.042 219.594 278.406 220.062C277.781 220.521 277.318 221.339 277.016 222.516L274.266 222.141C274.516 220.964 274.927 220.016 275.5 219.297C276.073 218.568 276.901 218.01 277.984 217.625C279.068 217.229 280.323 217.031 281.75 217.031C283.167 217.031 284.318 217.198 285.203 217.531C286.089 217.865 286.74 218.286 287.156 218.797C287.573 219.297 287.865 219.932 288.031 220.703C288.125 221.182 288.172 222.047 288.172 223.297V227.047C288.172 229.661 288.229 231.318 288.344 232.016C288.469 232.703 288.708 233.365 289.062 234H286.125C285.833 233.417 285.646 232.734 285.562 231.953ZM285.328 225.672C284.307 226.089 282.776 226.443 280.734 226.734C279.578 226.901 278.76 227.089 278.281 227.297C277.802 227.505 277.432 227.812 277.172 228.219C276.911 228.615 276.781 229.057 276.781 229.547C276.781 230.297 277.062 230.922 277.625 231.422C278.198 231.922 279.031 232.172 280.125 232.172C281.208 232.172 282.172 231.938 283.016 231.469C283.859 230.99 284.479 230.339 284.875 229.516C285.177 228.88 285.328 227.943 285.328 226.703V225.672ZM292.516 234V217.406H295.047V219.922C295.693 218.745 296.286 217.969 296.828 217.594C297.38 217.219 297.984 217.031 298.641 217.031C299.589 217.031 300.552 217.333 301.531 217.938L300.562 220.547C299.875 220.141 299.188 219.938 298.5 219.938C297.885 219.938 297.333 220.125 296.844 220.5C296.354 220.865 296.005 221.375 295.797 222.031C295.484 223.031 295.328 224.125 295.328 225.312V234H292.516ZM314.562 228.656L317.469 229.016C317.01 230.714 316.161 232.031 314.922 232.969C313.682 233.906 312.099 234.375 310.172 234.375C307.745 234.375 305.818 233.63 304.391 232.141C302.974 230.641 302.266 228.542 302.266 225.844C302.266 223.052 302.984 220.885 304.422 219.344C305.859 217.802 307.724 217.031 310.016 217.031C312.234 217.031 314.047 217.786 315.453 219.297C316.859 220.807 317.562 222.932 317.562 225.672C317.562 225.839 317.557 226.089 317.547 226.422H305.172C305.276 228.245 305.792 229.641 306.719 230.609C307.646 231.578 308.802 232.062 310.188 232.062C311.219 232.062 312.099 231.792 312.828 231.25C313.557 230.708 314.135 229.844 314.562 228.656ZM305.328 224.109H314.594C314.469 222.714 314.115 221.667 313.531 220.969C312.635 219.885 311.474 219.344 310.047 219.344C308.755 219.344 307.667 219.776 306.781 220.641C305.906 221.505 305.422 222.661 305.328 224.109Z" fill="black"/>
</svg>
