<svg width="269" height="402" viewBox="0 0 269 402" fill="none" xmlns="http://www.w3.org/2000/svg">
<rect x="21" y="20" width="206" height="52" rx="12" fill="#E4E75F" fill-opacity="0.9"/>
<path d="M49.1761 39.9091H50.7614V48.5767C50.7614 49.4716 50.5504 50.2706 50.1286 50.9737C49.7109 51.6726 49.1207 52.2244 48.358 52.6293C47.5952 53.0298 46.7003 53.2301 45.6733 53.2301C44.6463 53.2301 43.7514 53.0298 42.9886 52.6293C42.2259 52.2244 41.6335 51.6726 41.2116 50.9737C40.794 50.2706 40.5852 49.4716 40.5852 48.5767V39.9091H42.1705V48.4489C42.1705 49.0881 42.3111 49.657 42.5923 50.1555C42.8736 50.6499 43.2741 51.0398 43.794 51.3253C44.3182 51.6065 44.9446 51.7472 45.6733 51.7472C46.402 51.7472 47.0284 51.6065 47.5526 51.3253C48.0767 51.0398 48.4773 50.6499 48.7543 50.1555C49.0355 49.657 49.1761 49.0881 49.1761 48.4489V39.9091ZM60.677 45.3807L59.3219 45.7642C59.2367 45.5384 59.111 45.3189 58.9448 45.1058C58.7828 44.8885 58.5613 44.7095 58.28 44.5689C57.9988 44.4283 57.6387 44.358 57.1998 44.358C56.5989 44.358 56.0982 44.4964 55.6976 44.7734C55.3013 45.0462 55.1032 45.3935 55.1032 45.8153C55.1032 46.1903 55.2395 46.4865 55.5123 46.7038C55.785 46.9212 56.2111 47.1023 56.7907 47.2472L58.248 47.6051C59.1259 47.8182 59.78 48.1442 60.2104 48.5831C60.6408 49.0178 60.856 49.5781 60.856 50.2642C60.856 50.8267 60.6941 51.3295 60.3702 51.7727C60.0506 52.2159 59.6032 52.5653 59.0279 52.821C58.4526 53.0767 57.7836 53.2045 57.0208 53.2045C56.0194 53.2045 55.1905 52.9872 54.5343 52.5526C53.878 52.1179 53.4625 51.483 53.2878 50.6477L54.7196 50.2898C54.856 50.8182 55.1138 51.2145 55.4931 51.4787C55.8766 51.7429 56.3773 51.875 56.9952 51.875C57.6983 51.875 58.2566 51.7259 58.6699 51.4276C59.0875 51.125 59.2963 50.7628 59.2963 50.3409C59.2963 50 59.177 49.7145 58.9384 49.4844C58.6998 49.25 58.3333 49.0753 57.839 48.9602L56.2026 48.5767C55.3034 48.3636 54.6429 48.0334 54.2211 47.5859C53.8034 47.1342 53.5946 46.5696 53.5946 45.892C53.5946 45.3381 53.7502 44.848 54.0613 44.4219C54.3766 43.9957 54.8049 43.6612 55.3461 43.4183C55.8915 43.1754 56.5094 43.054 57.1998 43.054C58.1713 43.054 58.9341 43.267 59.4881 43.6932C60.0463 44.1193 60.4426 44.6818 60.677 45.3807ZM67.2433 53.2045C66.2972 53.2045 65.4812 52.9957 64.7951 52.5781C64.1133 52.1562 63.587 51.5682 63.2163 50.8139C62.8498 50.0554 62.6665 49.1733 62.6665 48.1676C62.6665 47.1619 62.8498 46.2756 63.2163 45.5085C63.587 44.7372 64.1026 44.1364 64.7631 43.706C65.4279 43.2713 66.2035 43.054 67.0898 43.054C67.6012 43.054 68.1062 43.1392 68.6048 43.3097C69.1033 43.4801 69.5572 43.7571 69.9663 44.1406C70.3754 44.5199 70.7013 45.0227 70.9442 45.6491C71.1871 46.2756 71.3086 47.0469 71.3086 47.9631V48.6023H63.7404V47.2983H69.7745C69.7745 46.7443 69.6637 46.25 69.4421 45.8153C69.2248 45.3807 68.9137 45.0376 68.5089 44.7862C68.1083 44.5348 67.6353 44.4091 67.0898 44.4091C66.489 44.4091 65.9691 44.5582 65.5302 44.8565C65.0955 45.1506 64.761 45.5341 64.5266 46.0071C64.2923 46.4801 64.1751 46.9872 64.1751 47.5284V48.3977C64.1751 49.1392 64.3029 49.7678 64.5586 50.2834C64.8185 50.7947 65.1786 51.1847 65.6388 51.4531C66.0991 51.7173 66.6339 51.8494 67.2433 51.8494C67.6396 51.8494 67.9975 51.794 68.3171 51.6832C68.641 51.5682 68.9201 51.3977 69.1545 51.1719C69.3888 50.9418 69.57 50.6562 69.6978 50.3153L71.1552 50.7244C71.0018 51.2188 70.744 51.6534 70.3817 52.0284C70.0195 52.3991 69.5721 52.6889 69.0394 52.8977C68.5067 53.1023 67.908 53.2045 67.2433 53.2045ZM73.6033 53V43.1818H75.0607V44.6648H75.163C75.342 44.179 75.6658 43.7848 76.1346 43.4822C76.6033 43.1797 77.1317 43.0284 77.7198 43.0284C77.8306 43.0284 77.9691 43.0305 78.1353 43.0348C78.3015 43.0391 78.4272 43.0455 78.5124 43.054V44.5881C78.4613 44.5753 78.3441 44.5561 78.1609 44.5305C77.9819 44.5007 77.7923 44.4858 77.592 44.4858C77.1147 44.4858 76.6886 44.5859 76.3136 44.7862C75.9428 44.9822 75.6488 45.255 75.4315 45.6044C75.2184 45.9496 75.1119 46.3437 75.1119 46.7869V53H73.6033ZM86.1046 53H84.4426L89.2495 39.9091H90.8858L95.6926 53H94.0307L90.1188 41.9801H90.0165L86.1046 53ZM86.7182 47.8864H93.4171V49.2926H86.7182V47.8864ZM103.715 48.9858V43.1818H105.223V53H103.715V51.3381H103.612C103.382 51.8366 103.024 52.2607 102.539 52.6101C102.053 52.9553 101.439 53.1278 100.698 53.1278C100.084 53.1278 99.5385 52.9936 99.0613 52.7251C98.584 52.4524 98.209 52.0433 97.9363 51.4979C97.6635 50.9482 97.5272 50.2557 97.5272 49.4205V43.1818H99.0357V49.3182C99.0357 50.0341 99.236 50.6051 99.6365 51.0312C100.041 51.4574 100.557 51.6705 101.183 51.6705C101.558 51.6705 101.94 51.5746 102.328 51.3828C102.72 51.1911 103.048 50.897 103.312 50.5007C103.58 50.1044 103.715 49.5994 103.715 48.9858ZM112.256 43.1818V44.4602H107.168V43.1818H112.256ZM108.651 40.8295H110.159V50.1875C110.159 50.6136 110.221 50.9332 110.345 51.1463C110.473 51.3551 110.635 51.4957 110.831 51.5682C111.031 51.6364 111.242 51.6705 111.463 51.6705C111.63 51.6705 111.766 51.6619 111.873 51.6449C111.979 51.6236 112.064 51.6065 112.128 51.5938L112.435 52.9489C112.333 52.9872 112.19 53.0256 112.007 53.0639C111.824 53.1065 111.591 53.1278 111.31 53.1278C110.884 53.1278 110.466 53.0362 110.057 52.853C109.652 52.6697 109.316 52.3906 109.047 52.0156C108.783 51.6406 108.651 51.1676 108.651 50.5966V40.8295ZM116.245 47.0938V53H114.736V39.9091H116.245V44.7159H116.373C116.603 44.2088 116.948 43.8061 117.408 43.5078C117.873 43.2053 118.49 43.054 119.262 43.054C119.931 43.054 120.517 43.1882 121.02 43.4567C121.522 43.7209 121.912 44.1278 122.189 44.6776C122.471 45.223 122.611 45.9176 122.611 46.7614V53H121.103V46.8636C121.103 46.0838 120.9 45.4808 120.495 45.0547C120.095 44.6243 119.539 44.4091 118.827 44.4091C118.333 44.4091 117.89 44.5135 117.498 44.7223C117.11 44.9311 116.803 45.2358 116.577 45.6364C116.355 46.0369 116.245 46.5227 116.245 47.0938ZM129.487 53.2045C128.541 53.2045 127.725 52.9957 127.039 52.5781C126.357 52.1562 125.831 51.5682 125.46 50.8139C125.094 50.0554 124.911 49.1733 124.911 48.1676C124.911 47.1619 125.094 46.2756 125.46 45.5085C125.831 44.7372 126.347 44.1364 127.007 43.706C127.672 43.2713 128.448 43.054 129.334 43.054C129.845 43.054 130.35 43.1392 130.849 43.3097C131.347 43.4801 131.801 43.7571 132.21 44.1406C132.619 44.5199 132.945 45.0227 133.188 45.6491C133.431 46.2756 133.553 47.0469 133.553 47.9631V48.6023H125.985V47.2983H132.019C132.019 46.7443 131.908 46.25 131.686 45.8153C131.469 45.3807 131.158 45.0376 130.753 44.7862C130.352 44.5348 129.879 44.4091 129.334 44.4091C128.733 44.4091 128.213 44.5582 127.774 44.8565C127.34 45.1506 127.005 45.5341 126.771 46.0071C126.536 46.4801 126.419 46.9872 126.419 47.5284V48.3977C126.419 49.1392 126.547 49.7678 126.803 50.2834C127.063 50.7947 127.423 51.1847 127.883 51.4531C128.343 51.7173 128.878 51.8494 129.487 51.8494C129.884 51.8494 130.242 51.794 130.561 51.6832C130.885 51.5682 131.164 51.3977 131.399 51.1719C131.633 50.9418 131.814 50.6562 131.942 50.3153L133.399 50.7244C133.246 51.2188 132.988 51.6534 132.626 52.0284C132.264 52.3991 131.816 52.6889 131.284 52.8977C130.751 53.1023 130.152 53.2045 129.487 53.2045ZM137.356 47.0938V53H135.847V43.1818H137.305V44.7159H137.433C137.663 44.2173 138.012 43.8168 138.481 43.5142C138.95 43.2074 139.555 43.054 140.296 43.054C140.961 43.054 141.543 43.1903 142.041 43.4631C142.54 43.7315 142.928 44.1406 143.205 44.6903C143.482 45.2358 143.62 45.9261 143.62 46.7614V53H142.112V46.8636C142.112 46.0923 141.911 45.4915 141.511 45.0611C141.11 44.6264 140.561 44.4091 139.862 44.4091C139.38 44.4091 138.95 44.5135 138.57 44.7223C138.195 44.9311 137.899 45.2358 137.682 45.6364C137.465 46.0369 137.356 46.5227 137.356 47.0938ZM150.647 43.1818V44.4602H145.559V43.1818H150.647ZM147.042 40.8295H148.55V50.1875C148.55 50.6136 148.612 50.9332 148.735 51.1463C148.863 51.3551 149.025 51.4957 149.221 51.5682C149.422 51.6364 149.632 51.6705 149.854 51.6705C150.02 51.6705 150.157 51.6619 150.263 51.6449C150.37 51.6236 150.455 51.6065 150.519 51.5938L150.826 52.9489C150.723 52.9872 150.581 53.0256 150.397 53.0639C150.214 53.1065 149.982 53.1278 149.701 53.1278C149.275 53.1278 148.857 53.0362 148.448 52.853C148.043 52.6697 147.706 52.3906 147.438 52.0156C147.174 51.6406 147.042 51.1676 147.042 50.5966V40.8295ZM152.916 53V43.1818H154.424V53H152.916ZM153.683 41.5455C153.389 41.5455 153.135 41.4453 152.922 41.245C152.713 41.0447 152.609 40.804 152.609 40.5227C152.609 40.2415 152.713 40.0007 152.922 39.8004C153.135 39.6001 153.389 39.5 153.683 39.5C153.977 39.5 154.228 39.6001 154.437 39.8004C154.65 40.0007 154.757 40.2415 154.757 40.5227C154.757 40.804 154.65 41.0447 154.437 41.245C154.228 41.4453 153.977 41.5455 153.683 41.5455ZM161.176 53.2045C160.256 53.2045 159.463 52.9872 158.798 52.5526C158.133 52.1179 157.622 51.5192 157.264 50.7564C156.906 49.9936 156.727 49.1222 156.727 48.142C156.727 47.1449 156.91 46.2649 157.277 45.5021C157.648 44.7351 158.163 44.1364 158.824 43.706C159.488 43.2713 160.264 43.054 161.15 43.054C161.841 43.054 162.463 43.1818 163.017 43.4375C163.571 43.6932 164.025 44.0511 164.378 44.5114C164.732 44.9716 164.952 45.5085 165.037 46.1222H163.528C163.413 45.6747 163.157 45.2784 162.761 44.9332C162.369 44.5838 161.841 44.4091 161.176 44.4091C160.588 44.4091 160.072 44.5625 159.629 44.8693C159.19 45.1719 158.847 45.6001 158.6 46.1541C158.357 46.7038 158.236 47.3494 158.236 48.0909C158.236 48.8494 158.355 49.5099 158.594 50.0724C158.836 50.6349 159.177 51.0717 159.616 51.3828C160.059 51.6939 160.579 51.8494 161.176 51.8494C161.568 51.8494 161.924 51.7812 162.243 51.6449C162.563 51.5085 162.834 51.3125 163.055 51.0568C163.277 50.8011 163.434 50.4943 163.528 50.1364H165.037C164.952 50.7159 164.741 51.2379 164.404 51.7024C164.072 52.1626 163.631 52.5291 163.081 52.8018C162.535 53.0703 161.9 53.2045 161.176 53.2045ZM170.131 53.2301C169.509 53.2301 168.944 53.1129 168.437 52.8786C167.93 52.6399 167.528 52.2969 167.229 51.8494C166.931 51.3977 166.782 50.8523 166.782 50.2131C166.782 49.6506 166.893 49.1946 167.114 48.8452C167.336 48.4915 167.632 48.2145 168.003 48.0142C168.373 47.8139 168.782 47.6648 169.23 47.5668C169.682 47.4645 170.135 47.3835 170.591 47.3239C171.188 47.2472 171.672 47.1896 172.042 47.1513C172.417 47.1087 172.69 47.0384 172.861 46.9403C173.035 46.8423 173.123 46.6719 173.123 46.429V46.3778C173.123 45.7472 172.95 45.2571 172.605 44.9077C172.264 44.5582 171.746 44.3835 171.052 44.3835C170.331 44.3835 169.767 44.5412 169.358 44.8565C168.949 45.1719 168.661 45.5085 168.495 45.8665L167.063 45.3551C167.319 44.7585 167.66 44.294 168.086 43.9616C168.516 43.625 168.985 43.3906 169.492 43.2585C170.003 43.1222 170.506 43.054 171.001 43.054C171.316 43.054 171.678 43.0923 172.087 43.169C172.501 43.2415 172.899 43.3928 173.282 43.6229C173.67 43.853 173.992 44.2003 174.248 44.6648C174.503 45.1293 174.631 45.7514 174.631 46.5312V53H173.123V51.6705H173.046C172.944 51.8835 172.773 52.1115 172.535 52.3544C172.296 52.5973 171.979 52.804 171.582 52.9744C171.186 53.1449 170.702 53.2301 170.131 53.2301ZM170.361 51.875C170.958 51.875 171.461 51.7578 171.87 51.5234C172.283 51.2891 172.594 50.9865 172.803 50.6158C173.016 50.245 173.123 49.8551 173.123 49.446V48.0653C173.059 48.142 172.918 48.2124 172.701 48.2763C172.488 48.3359 172.241 48.3892 171.959 48.4361C171.682 48.4787 171.412 48.517 171.148 48.5511C170.888 48.581 170.677 48.6065 170.515 48.6278C170.123 48.679 169.756 48.7621 169.415 48.8771C169.079 48.9879 168.806 49.1562 168.597 49.3821C168.393 49.6037 168.29 49.9062 168.29 50.2898C168.29 50.8139 168.484 51.2102 168.872 51.4787C169.264 51.7429 169.76 51.875 170.361 51.875ZM181.654 43.1818V44.4602H176.566V43.1818H181.654ZM178.049 40.8295H179.558V50.1875C179.558 50.6136 179.62 50.9332 179.743 51.1463C179.871 51.3551 180.033 51.4957 180.229 51.5682C180.429 51.6364 180.64 51.6705 180.862 51.6705C181.028 51.6705 181.164 51.6619 181.271 51.6449C181.377 51.6236 181.463 51.6065 181.527 51.5938L181.833 52.9489C181.731 52.9872 181.588 53.0256 181.405 53.0639C181.222 53.1065 180.99 53.1278 180.708 53.1278C180.282 53.1278 179.865 53.0362 179.456 52.853C179.051 52.6697 178.714 52.3906 178.446 52.0156C178.181 51.6406 178.049 51.1676 178.049 50.5966V40.8295ZM183.924 53V43.1818H185.432V53H183.924ZM184.691 41.5455C184.397 41.5455 184.143 41.4453 183.93 41.245C183.721 41.0447 183.617 40.804 183.617 40.5227C183.617 40.2415 183.721 40.0007 183.93 39.8004C184.143 39.6001 184.397 39.5 184.691 39.5C184.985 39.5 185.236 39.6001 185.445 39.8004C185.658 40.0007 185.765 40.2415 185.765 40.5227C185.765 40.804 185.658 41.0447 185.445 41.245C185.236 41.4453 184.985 41.5455 184.691 41.5455ZM192.184 53.2045C191.297 53.2045 190.52 52.9936 189.851 52.5717C189.186 52.1499 188.666 51.5597 188.291 50.8011C187.92 50.0426 187.735 49.1562 187.735 48.142C187.735 47.1193 187.92 46.2266 188.291 45.4638C188.666 44.701 189.186 44.1087 189.851 43.6868C190.52 43.2649 191.297 43.054 192.184 43.054C193.07 43.054 193.846 43.2649 194.51 43.6868C195.18 44.1087 195.699 44.701 196.07 45.4638C196.445 46.2266 196.633 47.1193 196.633 48.142C196.633 49.1562 196.445 50.0426 196.07 50.8011C195.699 51.5597 195.18 52.1499 194.51 52.5717C193.846 52.9936 193.07 53.2045 192.184 53.2045ZM192.184 51.8494C192.857 51.8494 193.411 51.6768 193.846 51.3317C194.28 50.9865 194.602 50.5327 194.811 49.9702C195.02 49.4077 195.124 48.7983 195.124 48.142C195.124 47.4858 195.02 46.8743 194.811 46.3075C194.602 45.7408 194.28 45.2827 193.846 44.9332C193.411 44.5838 192.857 44.4091 192.184 44.4091C191.51 44.4091 190.956 44.5838 190.522 44.9332C190.087 45.2827 189.765 45.7408 189.557 46.3075C189.348 46.8743 189.243 47.4858 189.243 48.142C189.243 48.7983 189.348 49.4077 189.557 49.9702C189.765 50.5327 190.087 50.9865 190.522 51.3317C190.956 51.6768 191.51 51.8494 192.184 51.8494ZM200.444 47.0938V53H198.935V43.1818H200.393V44.7159H200.521C200.751 44.2173 201.1 43.8168 201.569 43.5142C202.038 43.2074 202.643 43.054 203.384 43.054C204.049 43.054 204.631 43.1903 205.129 43.4631C205.628 43.7315 206.016 44.1406 206.293 44.6903C206.57 45.2358 206.708 45.9261 206.708 46.7614V53H205.2V46.8636C205.2 46.0923 204.999 45.4915 204.599 45.0611C204.198 44.6264 203.648 44.4091 202.95 44.4091C202.468 44.4091 202.038 44.5135 201.658 44.7223C201.283 44.9311 200.987 45.2358 200.77 45.6364C200.553 46.0369 200.444 46.5227 200.444 47.0938Z" fill="black"/>
<rect x="21" y="82" width="206" height="52" rx="12" fill="#A281C0" fill-opacity="0.8"/>
<path d="M65.1761 101.909H66.7614V110.577C66.7614 111.472 66.5504 112.271 66.1286 112.974C65.7109 113.673 65.1207 114.224 64.358 114.629C63.5952 115.03 62.7003 115.23 61.6733 115.23C60.6463 115.23 59.7514 115.03 58.9886 114.629C58.2259 114.224 57.6335 113.673 57.2116 112.974C56.794 112.271 56.5852 111.472 56.5852 110.577V101.909H58.1705V110.449C58.1705 111.088 58.3111 111.657 58.5923 112.156C58.8736 112.65 59.2741 113.04 59.794 113.325C60.3182 113.607 60.9446 113.747 61.6733 113.747C62.402 113.747 63.0284 113.607 63.5526 113.325C64.0767 113.04 64.4773 112.65 64.7543 112.156C65.0355 111.657 65.1761 111.088 65.1761 110.449V101.909ZM76.677 107.381L75.3219 107.764C75.2367 107.538 75.111 107.319 74.9448 107.106C74.7828 106.888 74.5613 106.71 74.28 106.569C73.9988 106.428 73.6387 106.358 73.1998 106.358C72.5989 106.358 72.0982 106.496 71.6976 106.773C71.3013 107.046 71.1032 107.393 71.1032 107.815C71.1032 108.19 71.2395 108.487 71.5123 108.704C71.785 108.921 72.2111 109.102 72.7907 109.247L74.248 109.605C75.1259 109.818 75.78 110.144 76.2104 110.583C76.6408 111.018 76.856 111.578 76.856 112.264C76.856 112.827 76.6941 113.33 76.3702 113.773C76.0506 114.216 75.6032 114.565 75.0279 114.821C74.4526 115.077 73.7836 115.205 73.0208 115.205C72.0194 115.205 71.1905 114.987 70.5343 114.553C69.878 114.118 69.4625 113.483 69.2878 112.648L70.7196 112.29C70.856 112.818 71.1138 113.214 71.4931 113.479C71.8766 113.743 72.3773 113.875 72.9952 113.875C73.6983 113.875 74.2566 113.726 74.6699 113.428C75.0875 113.125 75.2963 112.763 75.2963 112.341C75.2963 112 75.177 111.714 74.9384 111.484C74.6998 111.25 74.3333 111.075 73.839 110.96L72.2026 110.577C71.3034 110.364 70.6429 110.033 70.2211 109.586C69.8034 109.134 69.5946 108.57 69.5946 107.892C69.5946 107.338 69.7502 106.848 70.0613 106.422C70.3766 105.996 70.8049 105.661 71.3461 105.418C71.8915 105.175 72.5094 105.054 73.1998 105.054C74.1713 105.054 74.9341 105.267 75.4881 105.693C76.0463 106.119 76.4426 106.682 76.677 107.381ZM83.2433 115.205C82.2972 115.205 81.4812 114.996 80.7951 114.578C80.1133 114.156 79.587 113.568 79.2163 112.814C78.8498 112.055 78.6665 111.173 78.6665 110.168C78.6665 109.162 78.8498 108.276 79.2163 107.509C79.587 106.737 80.1026 106.136 80.7631 105.706C81.4279 105.271 82.2035 105.054 83.0898 105.054C83.6012 105.054 84.1062 105.139 84.6048 105.31C85.1033 105.48 85.5572 105.757 85.9663 106.141C86.3754 106.52 86.7013 107.023 86.9442 107.649C87.1871 108.276 87.3086 109.047 87.3086 109.963V110.602H79.7404V109.298H85.7745C85.7745 108.744 85.6637 108.25 85.4421 107.815C85.2248 107.381 84.9137 107.038 84.5089 106.786C84.1083 106.535 83.6353 106.409 83.0898 106.409C82.489 106.409 81.9691 106.558 81.5302 106.857C81.0955 107.151 80.761 107.534 80.5266 108.007C80.2923 108.48 80.1751 108.987 80.1751 109.528V110.398C80.1751 111.139 80.3029 111.768 80.5586 112.283C80.8185 112.795 81.1786 113.185 81.6388 113.453C82.0991 113.717 82.6339 113.849 83.2433 113.849C83.6396 113.849 83.9975 113.794 84.3171 113.683C84.641 113.568 84.9201 113.398 85.1545 113.172C85.3888 112.942 85.57 112.656 85.6978 112.315L87.1552 112.724C87.0018 113.219 86.744 113.653 86.3817 114.028C86.0195 114.399 85.5721 114.689 85.0394 114.898C84.5067 115.102 83.908 115.205 83.2433 115.205ZM89.6033 115V105.182H91.0607V106.665H91.163C91.342 106.179 91.6658 105.785 92.1346 105.482C92.6033 105.18 93.1317 105.028 93.7198 105.028C93.8306 105.028 93.9691 105.031 94.1353 105.035C94.3015 105.039 94.4272 105.045 94.5124 105.054V106.588C94.4613 106.575 94.3441 106.556 94.1609 106.531C93.9819 106.501 93.7923 106.486 93.592 106.486C93.1147 106.486 92.6886 106.586 92.3136 106.786C91.9428 106.982 91.6488 107.255 91.4315 107.604C91.2184 107.95 91.1119 108.344 91.1119 108.787V115H89.6033ZM103.153 101.909V115H101.568V101.909H103.153ZM107.635 109.094V115H106.127V105.182H107.584V106.716H107.712C107.942 106.217 108.292 105.817 108.76 105.514C109.229 105.207 109.834 105.054 110.576 105.054C111.24 105.054 111.822 105.19 112.321 105.463C112.819 105.732 113.207 106.141 113.484 106.69C113.761 107.236 113.9 107.926 113.9 108.761V115H112.391V108.864C112.391 108.092 112.191 107.491 111.79 107.061C111.39 106.626 110.84 106.409 110.141 106.409C109.659 106.409 109.229 106.513 108.85 106.722C108.475 106.931 108.179 107.236 107.961 107.636C107.744 108.037 107.635 108.523 107.635 109.094ZM120.926 105.182V106.46H115.838V105.182H120.926ZM117.321 102.83H118.829V112.188C118.829 112.614 118.891 112.933 119.015 113.146C119.143 113.355 119.305 113.496 119.501 113.568C119.701 113.636 119.912 113.67 120.133 113.67C120.3 113.67 120.436 113.662 120.542 113.645C120.649 113.624 120.734 113.607 120.798 113.594L121.105 114.949C121.003 114.987 120.86 115.026 120.677 115.064C120.493 115.107 120.261 115.128 119.98 115.128C119.554 115.128 119.136 115.036 118.727 114.853C118.322 114.67 117.986 114.391 117.717 114.016C117.453 113.641 117.321 113.168 117.321 112.597V102.83ZM127.206 115.205C126.26 115.205 125.444 114.996 124.758 114.578C124.076 114.156 123.55 113.568 123.179 112.814C122.813 112.055 122.629 111.173 122.629 110.168C122.629 109.162 122.813 108.276 123.179 107.509C123.55 106.737 124.066 106.136 124.726 105.706C125.391 105.271 126.166 105.054 127.053 105.054C127.564 105.054 128.069 105.139 128.568 105.31C129.066 105.48 129.52 105.757 129.929 106.141C130.338 106.52 130.664 107.023 130.907 107.649C131.15 108.276 131.271 109.047 131.271 109.963V110.602H123.703V109.298H129.737C129.737 108.744 129.627 108.25 129.405 107.815C129.188 107.381 128.877 107.038 128.472 106.786C128.071 106.535 127.598 106.409 127.053 106.409C126.452 106.409 125.932 106.558 125.493 106.857C125.058 107.151 124.724 107.534 124.49 108.007C124.255 108.48 124.138 108.987 124.138 109.528V110.398C124.138 111.139 124.266 111.768 124.521 112.283C124.781 112.795 125.142 113.185 125.602 113.453C126.062 113.717 126.597 113.849 127.206 113.849C127.602 113.849 127.96 113.794 128.28 113.683C128.604 113.568 128.883 113.398 129.117 113.172C129.352 112.942 129.533 112.656 129.661 112.315L131.118 112.724C130.965 113.219 130.707 113.653 130.345 114.028C129.982 114.399 129.535 114.689 129.002 114.898C128.47 115.102 127.871 115.205 127.206 115.205ZM133.566 115V105.182H135.024V106.665H135.126C135.305 106.179 135.629 105.785 136.097 105.482C136.566 105.18 137.095 105.028 137.683 105.028C137.794 105.028 137.932 105.031 138.098 105.035C138.264 105.039 138.39 105.045 138.475 105.054V106.588C138.424 106.575 138.307 106.556 138.124 106.531C137.945 106.501 137.755 106.486 137.555 106.486C137.078 106.486 136.651 106.586 136.276 106.786C135.906 106.982 135.612 107.255 135.394 107.604C135.181 107.95 135.075 108.344 135.075 108.787V115H133.566ZM145.251 105.182V106.46H139.958V105.182H145.251ZM141.544 115V103.827C141.544 103.264 141.676 102.795 141.94 102.42C142.204 102.045 142.547 101.764 142.969 101.577C143.391 101.389 143.836 101.295 144.305 101.295C144.676 101.295 144.978 101.325 145.213 101.385C145.447 101.445 145.622 101.5 145.737 101.551L145.302 102.855C145.225 102.83 145.119 102.798 144.982 102.759C144.85 102.721 144.676 102.702 144.458 102.702C143.96 102.702 143.6 102.827 143.378 103.079C143.161 103.33 143.052 103.699 143.052 104.185V115H141.544ZM149.973 115.23C149.351 115.23 148.786 115.113 148.279 114.879C147.772 114.64 147.369 114.297 147.071 113.849C146.773 113.398 146.624 112.852 146.624 112.213C146.624 111.651 146.734 111.195 146.956 110.845C147.178 110.491 147.474 110.214 147.844 110.014C148.215 109.814 148.624 109.665 149.072 109.567C149.523 109.464 149.977 109.384 150.433 109.324C151.03 109.247 151.513 109.19 151.884 109.151C152.259 109.109 152.532 109.038 152.702 108.94C152.877 108.842 152.964 108.672 152.964 108.429V108.378C152.964 107.747 152.792 107.257 152.447 106.908C152.106 106.558 151.588 106.384 150.893 106.384C150.173 106.384 149.609 106.541 149.2 106.857C148.79 107.172 148.503 107.509 148.337 107.866L146.905 107.355C147.161 106.759 147.501 106.294 147.928 105.962C148.358 105.625 148.827 105.391 149.334 105.259C149.845 105.122 150.348 105.054 150.842 105.054C151.158 105.054 151.52 105.092 151.929 105.169C152.342 105.241 152.741 105.393 153.124 105.623C153.512 105.853 153.834 106.2 154.089 106.665C154.345 107.129 154.473 107.751 154.473 108.531V115H152.964V113.67H152.888C152.786 113.884 152.615 114.112 152.376 114.354C152.138 114.597 151.82 114.804 151.424 114.974C151.028 115.145 150.544 115.23 149.973 115.23ZM150.203 113.875C150.8 113.875 151.303 113.758 151.712 113.523C152.125 113.289 152.436 112.987 152.645 112.616C152.858 112.245 152.964 111.855 152.964 111.446V110.065C152.901 110.142 152.76 110.212 152.543 110.276C152.33 110.336 152.082 110.389 151.801 110.436C151.524 110.479 151.254 110.517 150.989 110.551C150.729 110.581 150.518 110.607 150.357 110.628C149.964 110.679 149.598 110.762 149.257 110.877C148.92 110.988 148.648 111.156 148.439 111.382C148.234 111.604 148.132 111.906 148.132 112.29C148.132 112.814 148.326 113.21 148.714 113.479C149.106 113.743 149.602 113.875 150.203 113.875ZM161.215 115.205C160.295 115.205 159.502 114.987 158.837 114.553C158.172 114.118 157.661 113.519 157.303 112.756C156.945 111.994 156.766 111.122 156.766 110.142C156.766 109.145 156.949 108.265 157.316 107.502C157.687 106.735 158.202 106.136 158.863 105.706C159.528 105.271 160.303 105.054 161.189 105.054C161.88 105.054 162.502 105.182 163.056 105.438C163.61 105.693 164.064 106.051 164.417 106.511C164.771 106.972 164.991 107.509 165.076 108.122H163.567C163.452 107.675 163.197 107.278 162.8 106.933C162.408 106.584 161.88 106.409 161.215 106.409C160.627 106.409 160.111 106.562 159.668 106.869C159.229 107.172 158.886 107.6 158.639 108.154C158.396 108.704 158.275 109.349 158.275 110.091C158.275 110.849 158.394 111.51 158.633 112.072C158.876 112.635 159.216 113.072 159.655 113.383C160.099 113.694 160.618 113.849 161.215 113.849C161.607 113.849 161.963 113.781 162.282 113.645C162.602 113.509 162.873 113.312 163.094 113.057C163.316 112.801 163.474 112.494 163.567 112.136H165.076C164.991 112.716 164.78 113.238 164.443 113.702C164.111 114.163 163.67 114.529 163.12 114.802C162.574 115.07 161.939 115.205 161.215 115.205ZM171.398 115.205C170.452 115.205 169.635 114.996 168.949 114.578C168.268 114.156 167.741 113.568 167.371 112.814C167.004 112.055 166.821 111.173 166.821 110.168C166.821 109.162 167.004 108.276 167.371 107.509C167.741 106.737 168.257 106.136 168.917 105.706C169.582 105.271 170.358 105.054 171.244 105.054C171.756 105.054 172.26 105.139 172.759 105.31C173.258 105.48 173.711 105.757 174.121 106.141C174.53 106.52 174.856 107.023 175.099 107.649C175.341 108.276 175.463 109.047 175.463 109.963V110.602H167.895V109.298H173.929C173.929 108.744 173.818 108.25 173.596 107.815C173.379 107.381 173.068 107.038 172.663 106.786C172.263 106.535 171.79 106.409 171.244 106.409C170.643 106.409 170.123 106.558 169.684 106.857C169.25 107.151 168.915 107.534 168.681 108.007C168.447 108.48 168.329 108.987 168.329 109.528V110.398C168.329 111.139 168.457 111.768 168.713 112.283C168.973 112.795 169.333 113.185 169.793 113.453C170.253 113.717 170.788 113.849 171.398 113.849C171.794 113.849 172.152 113.794 172.471 113.683C172.795 113.568 173.074 113.398 173.309 113.172C173.543 112.942 173.724 112.656 173.852 112.315L175.309 112.724C175.156 113.219 174.898 113.653 174.536 114.028C174.174 114.399 173.726 114.689 173.194 114.898C172.661 115.102 172.062 115.205 171.398 115.205Z" fill="black"/>
<rect x="21" y="144" width="206" height="52" rx="12" fill="#83A9E4"/>
<path d="M90.5852 177V163.909H92.1705V170.403H92.3239L98.2045 163.909H100.276L94.7784 169.815L100.276 177H98.358L93.8068 170.915L92.1705 172.756V177H90.5852ZM105.519 177.205C104.573 177.205 103.757 176.996 103.07 176.578C102.389 176.156 101.862 175.568 101.492 174.814C101.125 174.055 100.942 173.173 100.942 172.168C100.942 171.162 101.125 170.276 101.492 169.509C101.862 168.737 102.378 168.136 103.039 167.706C103.703 167.271 104.479 167.054 105.365 167.054C105.877 167.054 106.382 167.139 106.88 167.31C107.379 167.48 107.833 167.757 108.242 168.141C108.651 168.52 108.977 169.023 109.22 169.649C109.463 170.276 109.584 171.047 109.584 171.963V172.602H102.016V171.298H108.05C108.05 170.744 107.939 170.25 107.718 169.815C107.5 169.381 107.189 169.038 106.784 168.786C106.384 168.535 105.911 168.409 105.365 168.409C104.764 168.409 104.244 168.558 103.806 168.857C103.371 169.151 103.036 169.534 102.802 170.007C102.568 170.48 102.45 170.987 102.45 171.528V172.398C102.45 173.139 102.578 173.768 102.834 174.283C103.094 174.795 103.454 175.185 103.914 175.453C104.374 175.717 104.909 175.849 105.519 175.849C105.915 175.849 106.273 175.794 106.593 175.683C106.916 175.568 107.195 175.398 107.43 175.172C107.664 174.942 107.845 174.656 107.973 174.315L109.431 174.724C109.277 175.219 109.019 175.653 108.657 176.028C108.295 176.399 107.847 176.689 107.315 176.898C106.782 177.102 106.183 177.205 105.519 177.205ZM111.879 177V167.182H113.336V168.665H113.438C113.617 168.179 113.941 167.785 114.41 167.482C114.879 167.18 115.407 167.028 115.995 167.028C116.106 167.028 116.244 167.031 116.411 167.035C116.577 167.039 116.703 167.045 116.788 167.054V168.588C116.737 168.575 116.619 168.556 116.436 168.531C116.257 168.501 116.068 168.486 115.867 168.486C115.39 168.486 114.964 168.586 114.589 168.786C114.218 168.982 113.924 169.255 113.707 169.604C113.494 169.95 113.387 170.344 113.387 170.787V177H111.879ZM120.085 171.094V177H118.576V167.182H120.033V168.716H120.161C120.391 168.217 120.741 167.817 121.21 167.514C121.678 167.207 122.283 167.054 123.025 167.054C123.69 167.054 124.271 167.19 124.77 167.463C125.268 167.732 125.656 168.141 125.933 168.69C126.21 169.236 126.349 169.926 126.349 170.761V177H124.84V170.864C124.84 170.092 124.64 169.491 124.239 169.061C123.839 168.626 123.289 168.409 122.59 168.409C122.109 168.409 121.678 168.513 121.299 168.722C120.924 168.931 120.628 169.236 120.411 169.636C120.193 170.037 120.085 170.523 120.085 171.094ZM133.222 177.205C132.276 177.205 131.46 176.996 130.774 176.578C130.092 176.156 129.566 175.568 129.195 174.814C128.828 174.055 128.645 173.173 128.645 172.168C128.645 171.162 128.828 170.276 129.195 169.509C129.566 168.737 130.081 168.136 130.742 167.706C131.406 167.271 132.182 167.054 133.068 167.054C133.58 167.054 134.085 167.139 134.583 167.31C135.082 167.48 135.536 167.757 135.945 168.141C136.354 168.52 136.68 169.023 136.923 169.649C137.166 170.276 137.287 171.047 137.287 171.963V172.602H129.719V171.298H135.753C135.753 170.744 135.642 170.25 135.421 169.815C135.203 169.381 134.892 169.038 134.487 168.786C134.087 168.535 133.614 168.409 133.068 168.409C132.468 168.409 131.948 168.558 131.509 168.857C131.074 169.151 130.74 169.534 130.505 170.007C130.271 170.48 130.154 170.987 130.154 171.528V172.398C130.154 173.139 130.281 173.768 130.537 174.283C130.797 174.795 131.157 175.185 131.617 175.453C132.078 175.717 132.612 175.849 133.222 175.849C133.618 175.849 133.976 175.794 134.296 175.683C134.619 175.568 134.899 175.398 135.133 175.172C135.367 174.942 135.548 174.656 135.676 174.315L137.134 174.724C136.98 175.219 136.722 175.653 136.36 176.028C135.998 176.399 135.551 176.689 135.018 176.898C134.485 177.102 133.887 177.205 133.222 177.205ZM141.09 163.909V177H139.582V163.909H141.09Z" fill="black"/>
<rect x="21" y="206" width="206" height="52" rx="12" fill="#E3F4AD"/>
<path d="M70.5852 239V225.909H75.1619C76.0739 225.909 76.826 226.067 77.4183 226.382C78.0107 226.693 78.4517 227.113 78.7415 227.641C79.0313 228.165 79.1761 228.747 79.1761 229.386C79.1761 229.949 79.076 230.413 78.8757 230.78C78.6797 231.146 78.4197 231.436 78.0959 231.649C77.7763 231.862 77.429 232.02 77.054 232.122V232.25C77.4545 232.276 77.8572 232.416 78.2621 232.672C78.6669 232.928 79.0057 233.294 79.2784 233.771C79.5511 234.249 79.6875 234.832 79.6875 235.523C79.6875 236.179 79.5384 236.769 79.2401 237.293C78.9418 237.817 78.4709 238.233 77.8274 238.54C77.1839 238.847 76.3466 239 75.3153 239H70.5852ZM72.1705 237.594H75.3153C76.3509 237.594 77.0859 237.393 77.5206 236.993C77.9595 236.588 78.179 236.098 78.179 235.523C78.179 235.08 78.0661 234.67 77.8402 234.295C77.6143 233.916 77.2926 233.614 76.875 233.388C76.4574 233.158 75.9631 233.043 75.392 233.043H72.1705V237.594ZM72.1705 231.662H75.1108C75.5881 231.662 76.0185 231.568 76.402 231.381C76.7898 231.193 77.0966 230.929 77.3224 230.588C77.5526 230.247 77.6676 229.847 77.6676 229.386C77.6676 228.811 77.4673 228.323 77.0668 227.923C76.6662 227.518 76.0313 227.315 75.1619 227.315H72.1705V231.662ZM86.0763 239.205C85.19 239.205 84.4123 238.994 83.7433 238.572C83.0785 238.15 82.5586 237.56 82.1836 236.801C81.8129 236.043 81.6275 235.156 81.6275 234.142C81.6275 233.119 81.8129 232.227 82.1836 231.464C82.5586 230.701 83.0785 230.109 83.7433 229.687C84.4123 229.265 85.19 229.054 86.0763 229.054C86.9627 229.054 87.7383 229.265 88.4031 229.687C89.0721 230.109 89.592 230.701 89.9627 231.464C90.3377 232.227 90.5252 233.119 90.5252 234.142C90.5252 235.156 90.3377 236.043 89.9627 236.801C89.592 237.56 89.0721 238.15 88.4031 238.572C87.7383 238.994 86.9627 239.205 86.0763 239.205ZM86.0763 237.849C86.7496 237.849 87.3036 237.677 87.7383 237.332C88.1729 236.987 88.4947 236.533 88.7035 235.97C88.9123 235.408 89.0167 234.798 89.0167 234.142C89.0167 233.486 88.9123 232.874 88.7035 232.308C88.4947 231.741 88.1729 231.283 87.7383 230.933C87.3036 230.584 86.7496 230.409 86.0763 230.409C85.4031 230.409 84.8491 230.584 84.4144 230.933C83.9798 231.283 83.658 231.741 83.4492 232.308C83.2404 232.874 83.136 233.486 83.136 234.142C83.136 234.798 83.2404 235.408 83.4492 235.97C83.658 236.533 83.9798 236.987 84.4144 237.332C84.8491 237.677 85.4031 237.849 86.0763 237.849ZM96.8166 239.205C95.9302 239.205 95.1525 238.994 94.4835 238.572C93.8187 238.15 93.2988 237.56 92.9238 236.801C92.5531 236.043 92.3677 235.156 92.3677 234.142C92.3677 233.119 92.5531 232.227 92.9238 231.464C93.2988 230.701 93.8187 230.109 94.4835 229.687C95.1525 229.265 95.9302 229.054 96.8166 229.054C97.7029 229.054 98.4785 229.265 99.1433 229.687C99.8123 230.109 100.332 230.701 100.703 231.464C101.078 232.227 101.265 233.119 101.265 234.142C101.265 235.156 101.078 236.043 100.703 236.801C100.332 237.56 99.8123 238.15 99.1433 238.572C98.4785 238.994 97.7029 239.205 96.8166 239.205ZM96.8166 237.849C97.4899 237.849 98.0439 237.677 98.4785 237.332C98.9132 236.987 99.2349 236.533 99.4437 235.97C99.6525 235.408 99.7569 234.798 99.7569 234.142C99.7569 233.486 99.6525 232.874 99.4437 232.308C99.2349 231.741 98.9132 231.283 98.4785 230.933C98.0439 230.584 97.4899 230.409 96.8166 230.409C96.1433 230.409 95.5893 230.584 95.1547 230.933C94.72 231.283 94.3983 231.741 94.1895 232.308C93.9806 232.874 93.8762 233.486 93.8762 234.142C93.8762 234.798 93.9806 235.408 94.1895 235.97C94.3983 236.533 94.72 236.987 95.1547 237.332C95.5893 237.677 96.1433 237.849 96.8166 237.849ZM107.838 229.182V230.46H102.75V229.182H107.838ZM104.233 226.83H105.741V236.188C105.741 236.614 105.803 236.933 105.927 237.146C106.055 237.355 106.217 237.496 106.413 237.568C106.613 237.636 106.824 237.67 107.045 237.67C107.212 237.67 107.348 237.662 107.455 237.645C107.561 237.624 107.646 237.607 107.71 237.594L108.017 238.949C107.915 238.987 107.772 239.026 107.589 239.064C107.406 239.107 107.173 239.128 106.892 239.128C106.466 239.128 106.048 239.036 105.639 238.853C105.234 238.67 104.898 238.391 104.629 238.016C104.365 237.641 104.233 237.168 104.233 236.597V226.83ZM111.827 225.909V239H110.318V225.909H111.827ZM118.578 239.205C117.692 239.205 116.914 238.994 116.245 238.572C115.58 238.15 115.061 237.56 114.686 236.801C114.315 236.043 114.129 235.156 114.129 234.142C114.129 233.119 114.315 232.227 114.686 231.464C115.061 230.701 115.58 230.109 116.245 229.687C116.914 229.265 117.692 229.054 118.578 229.054C119.465 229.054 120.24 229.265 120.905 229.687C121.574 230.109 122.094 230.701 122.465 231.464C122.84 232.227 123.027 233.119 123.027 234.142C123.027 235.156 122.84 236.043 122.465 236.801C122.094 237.56 121.574 238.15 120.905 238.572C120.24 238.994 119.465 239.205 118.578 239.205ZM118.578 237.849C119.252 237.849 119.806 237.677 120.24 237.332C120.675 236.987 120.997 236.533 121.205 235.97C121.414 235.408 121.519 234.798 121.519 234.142C121.519 233.486 121.414 232.874 121.205 232.308C120.997 231.741 120.675 231.283 120.24 230.933C119.806 230.584 119.252 230.409 118.578 230.409C117.905 230.409 117.351 230.584 116.916 230.933C116.482 231.283 116.16 231.741 115.951 232.308C115.742 232.874 115.638 233.486 115.638 234.142C115.638 234.798 115.742 235.408 115.951 235.97C116.16 236.533 116.482 236.987 116.916 237.332C117.351 237.677 117.905 237.849 118.578 237.849ZM128.219 239.23C127.597 239.23 127.032 239.113 126.525 238.879C126.018 238.64 125.615 238.297 125.317 237.849C125.019 237.398 124.87 236.852 124.87 236.213C124.87 235.651 124.98 235.195 125.202 234.845C125.424 234.491 125.72 234.214 126.091 234.014C126.461 233.814 126.87 233.665 127.318 233.567C127.77 233.464 128.223 233.384 128.679 233.324C129.276 233.247 129.76 233.19 130.13 233.151C130.505 233.109 130.778 233.038 130.949 232.94C131.123 232.842 131.211 232.672 131.211 232.429V232.378C131.211 231.747 131.038 231.257 130.693 230.908C130.352 230.558 129.834 230.384 129.14 230.384C128.419 230.384 127.855 230.541 127.446 230.857C127.037 231.172 126.749 231.509 126.583 231.866L125.151 231.355C125.407 230.759 125.748 230.294 126.174 229.962C126.604 229.625 127.073 229.391 127.58 229.259C128.091 229.122 128.594 229.054 129.088 229.054C129.404 229.054 129.766 229.092 130.175 229.169C130.588 229.241 130.987 229.393 131.37 229.623C131.758 229.853 132.08 230.2 132.336 230.665C132.591 231.129 132.719 231.751 132.719 232.531V239H131.211V237.67H131.134C131.032 237.884 130.861 238.112 130.623 238.354C130.384 238.597 130.066 238.804 129.67 238.974C129.274 239.145 128.79 239.23 128.219 239.23ZM128.449 237.875C129.046 237.875 129.549 237.758 129.958 237.523C130.371 237.289 130.682 236.987 130.891 236.616C131.104 236.245 131.211 235.855 131.211 235.446V234.065C131.147 234.142 131.006 234.212 130.789 234.276C130.576 234.336 130.328 234.389 130.047 234.436C129.77 234.479 129.5 234.517 129.235 234.551C128.975 234.581 128.765 234.607 128.603 234.628C128.211 234.679 127.844 234.762 127.503 234.877C127.167 234.988 126.894 235.156 126.685 235.382C126.48 235.604 126.378 235.906 126.378 236.29C126.378 236.814 126.572 237.21 126.96 237.479C127.352 237.743 127.848 237.875 128.449 237.875ZM139.18 239.205C138.362 239.205 137.639 238.998 137.013 238.585C136.387 238.167 135.896 237.579 135.543 236.82C135.189 236.058 135.012 235.156 135.012 234.116C135.012 233.085 135.189 232.19 135.543 231.432C135.896 230.673 136.389 230.087 137.019 229.674C137.65 229.261 138.379 229.054 139.205 229.054C139.845 229.054 140.35 229.161 140.72 229.374C141.095 229.582 141.381 229.821 141.577 230.089C141.777 230.354 141.933 230.571 142.044 230.741H142.171V225.909H143.68V239H142.222V237.491H142.044C141.933 237.67 141.775 237.896 141.57 238.169C141.366 238.437 141.074 238.678 140.695 238.891C140.316 239.1 139.811 239.205 139.18 239.205ZM139.384 237.849C139.99 237.849 140.501 237.692 140.919 237.376C141.336 237.057 141.654 236.616 141.871 236.053C142.088 235.487 142.197 234.832 142.197 234.091C142.197 233.358 142.09 232.717 141.877 232.167C141.664 231.613 141.349 231.183 140.931 230.876C140.514 230.565 139.998 230.409 139.384 230.409C138.745 230.409 138.213 230.573 137.786 230.901C137.365 231.225 137.047 231.666 136.834 232.224C136.625 232.778 136.521 233.401 136.521 234.091C136.521 234.79 136.627 235.425 136.84 235.996C137.058 236.562 137.377 237.014 137.799 237.351C138.225 237.683 138.754 237.849 139.384 237.849ZM150.769 239.205C149.823 239.205 149.007 238.996 148.32 238.578C147.639 238.156 147.112 237.568 146.742 236.814C146.375 236.055 146.192 235.173 146.192 234.168C146.192 233.162 146.375 232.276 146.742 231.509C147.112 230.737 147.628 230.136 148.289 229.706C148.953 229.271 149.729 229.054 150.615 229.054C151.127 229.054 151.632 229.139 152.13 229.31C152.629 229.48 153.083 229.757 153.492 230.141C153.901 230.52 154.227 231.023 154.47 231.649C154.713 232.276 154.834 233.047 154.834 233.963V234.602H147.266V233.298H153.3C153.3 232.744 153.189 232.25 152.968 231.815C152.75 231.381 152.439 231.038 152.034 230.786C151.634 230.535 151.161 230.409 150.615 230.409C150.014 230.409 149.494 230.558 149.056 230.857C148.621 231.151 148.286 231.534 148.052 232.007C147.818 232.48 147.7 232.987 147.7 233.528V234.398C147.7 235.139 147.828 235.768 148.084 236.283C148.344 236.795 148.704 237.185 149.164 237.453C149.624 237.717 150.159 237.849 150.769 237.849C151.165 237.849 151.523 237.794 151.843 237.683C152.166 237.568 152.445 237.398 152.68 237.172C152.914 236.942 153.095 236.656 153.223 236.315L154.681 236.724C154.527 237.219 154.269 237.653 153.907 238.028C153.545 238.399 153.097 238.689 152.565 238.898C152.032 239.102 151.433 239.205 150.769 239.205ZM157.129 239V229.182H158.586V230.665H158.688C158.867 230.179 159.191 229.785 159.66 229.482C160.129 229.18 160.657 229.028 161.245 229.028C161.356 229.028 161.494 229.031 161.661 229.035C161.827 229.039 161.953 229.045 162.038 229.054V230.588C161.987 230.575 161.869 230.556 161.686 230.531C161.507 230.501 161.318 230.486 161.117 230.486C160.64 230.486 160.214 230.586 159.839 230.786C159.468 230.982 159.174 231.255 158.957 231.604C158.744 231.95 158.637 232.344 158.637 232.787V239H157.129Z" fill="black"/>
<rect x="21" y="268" width="206" height="52" rx="12" fill="#CC5BBC"/>
<path d="M96.5852 301V287.909H101.162C102.074 287.909 102.826 288.067 103.418 288.382C104.011 288.693 104.452 289.113 104.741 289.641C105.031 290.165 105.176 290.747 105.176 291.386C105.176 291.949 105.076 292.413 104.876 292.78C104.68 293.146 104.42 293.436 104.096 293.649C103.776 293.862 103.429 294.02 103.054 294.122V294.25C103.455 294.276 103.857 294.416 104.262 294.672C104.667 294.928 105.006 295.294 105.278 295.771C105.551 296.249 105.688 296.832 105.688 297.523C105.688 298.179 105.538 298.769 105.24 299.293C104.942 299.817 104.471 300.233 103.827 300.54C103.184 300.847 102.347 301 101.315 301H96.5852ZM98.1705 299.594H101.315C102.351 299.594 103.086 299.393 103.521 298.993C103.96 298.588 104.179 298.098 104.179 297.523C104.179 297.08 104.066 296.67 103.84 296.295C103.614 295.916 103.293 295.614 102.875 295.388C102.457 295.158 101.963 295.043 101.392 295.043H98.1705V299.594ZM98.1705 293.662H101.111C101.588 293.662 102.018 293.568 102.402 293.381C102.79 293.193 103.097 292.929 103.322 292.588C103.553 292.247 103.668 291.847 103.668 291.386C103.668 290.811 103.467 290.323 103.067 289.923C102.666 289.518 102.031 289.315 101.162 289.315H98.1705V293.662ZM109.877 287.909V301H108.292V287.909H109.877ZM124.101 294.455C124.101 295.835 123.852 297.028 123.354 298.034C122.855 299.04 122.171 299.815 121.302 300.361C120.432 300.906 119.439 301.179 118.323 301.179C117.206 301.179 116.214 300.906 115.344 300.361C114.475 299.815 113.791 299.04 113.292 298.034C112.794 297.028 112.545 295.835 112.545 294.455C112.545 293.074 112.794 291.881 113.292 290.875C113.791 289.869 114.475 289.094 115.344 288.548C116.214 288.003 117.206 287.73 118.323 287.73C119.439 287.73 120.432 288.003 121.302 288.548C122.171 289.094 122.855 289.869 123.354 290.875C123.852 291.881 124.101 293.074 124.101 294.455ZM122.567 294.455C122.567 293.321 122.378 292.364 121.998 291.585C121.623 290.805 121.114 290.214 120.471 289.814C119.831 289.413 119.116 289.213 118.323 289.213C117.53 289.213 116.812 289.413 116.169 289.814C115.53 290.214 115.02 290.805 114.641 291.585C114.266 292.364 114.079 293.321 114.079 294.455C114.079 295.588 114.266 296.545 114.641 297.325C115.02 298.104 115.53 298.695 116.169 299.095C116.812 299.496 117.53 299.696 118.323 299.696C119.116 299.696 119.831 299.496 120.471 299.095C121.114 298.695 121.623 298.104 121.998 297.325C122.378 296.545 122.567 295.588 122.567 294.455ZM133.926 291.182C133.849 290.534 133.538 290.031 132.993 289.673C132.447 289.315 131.778 289.136 130.986 289.136C130.406 289.136 129.899 289.23 129.464 289.418C129.034 289.605 128.697 289.863 128.454 290.191C128.216 290.519 128.096 290.892 128.096 291.31C128.096 291.659 128.18 291.96 128.346 292.211C128.516 292.458 128.733 292.665 128.998 292.831C129.262 292.993 129.539 293.127 129.829 293.234C130.118 293.336 130.385 293.419 130.628 293.483L131.957 293.841C132.298 293.93 132.677 294.054 133.095 294.212C133.517 294.369 133.92 294.585 134.303 294.857C134.691 295.126 135.01 295.471 135.262 295.893C135.513 296.315 135.639 296.832 135.639 297.446C135.639 298.153 135.454 298.793 135.083 299.364C134.716 299.935 134.18 300.388 133.472 300.725C132.769 301.062 131.915 301.23 130.909 301.23C129.971 301.23 129.16 301.079 128.474 300.776C127.792 300.474 127.255 300.052 126.863 299.511C126.475 298.969 126.256 298.341 126.204 297.625H127.841C127.883 298.119 128.05 298.528 128.339 298.852C128.633 299.172 129.004 299.411 129.452 299.568C129.903 299.722 130.389 299.798 130.909 299.798C131.514 299.798 132.057 299.7 132.539 299.504C133.02 299.304 133.402 299.027 133.683 298.673C133.964 298.315 134.105 297.898 134.105 297.42C134.105 296.986 133.983 296.632 133.741 296.359C133.498 296.087 133.178 295.865 132.782 295.695C132.385 295.524 131.957 295.375 131.497 295.247L129.886 294.787C128.863 294.493 128.054 294.073 127.457 293.528C126.861 292.982 126.562 292.268 126.562 291.386C126.562 290.653 126.76 290.014 127.157 289.469C127.557 288.919 128.094 288.493 128.768 288.19C129.445 287.884 130.202 287.73 131.037 287.73C131.881 287.73 132.631 287.881 133.287 288.184C133.943 288.482 134.463 288.891 134.846 289.411C135.234 289.931 135.439 290.521 135.46 291.182H133.926Z" fill="black"/>
<rect x="21" y="330" width="206" height="52" rx="12" fill="#F0BF62"/>
<path d="M81.7443 352.182C81.6676 351.534 81.3565 351.031 80.8111 350.673C80.2656 350.315 79.5966 350.136 78.804 350.136C78.2244 350.136 77.7173 350.23 77.2827 350.418C76.8523 350.605 76.5156 350.863 76.2727 351.191C76.0341 351.519 75.9148 351.892 75.9148 352.31C75.9148 352.659 75.9979 352.96 76.1641 353.211C76.3345 353.458 76.5518 353.665 76.8161 353.831C77.0803 353.993 77.3572 354.127 77.647 354.234C77.9368 354.336 78.2031 354.419 78.446 354.483L79.7756 354.841C80.1165 354.93 80.4957 355.054 80.9134 355.212C81.3352 355.369 81.7379 355.585 82.1214 355.857C82.5092 356.126 82.8288 356.471 83.0803 356.893C83.3317 357.315 83.4574 357.832 83.4574 358.446C83.4574 359.153 83.272 359.793 82.9013 360.364C82.5348 360.935 81.9979 361.388 81.2905 361.725C80.5874 362.062 79.733 362.23 78.7273 362.23C77.7898 362.23 76.978 362.079 76.2919 361.776C75.6101 361.474 75.0732 361.052 74.6811 360.511C74.2933 359.969 74.0739 359.341 74.0227 358.625H75.6591C75.7017 359.119 75.8679 359.528 76.1577 359.852C76.4517 360.172 76.8224 360.411 77.2699 360.568C77.7216 360.722 78.2074 360.798 78.7273 360.798C79.3324 360.798 79.8757 360.7 80.3572 360.504C80.8388 360.304 81.2202 360.027 81.5014 359.673C81.7827 359.315 81.9233 358.898 81.9233 358.42C81.9233 357.986 81.8018 357.632 81.5589 357.359C81.3161 357.087 80.9964 356.865 80.6001 356.695C80.2038 356.524 79.7756 356.375 79.3153 356.247L77.7045 355.787C76.6818 355.493 75.8722 355.073 75.2756 354.528C74.679 353.982 74.3807 353.268 74.3807 352.386C74.3807 351.653 74.5788 351.014 74.9751 350.469C75.3757 349.919 75.9126 349.493 76.5859 349.19C77.2635 348.884 78.0199 348.73 78.8551 348.73C79.6989 348.73 80.4489 348.881 81.1051 349.184C81.7614 349.482 82.2813 349.891 82.6648 350.411C83.0526 350.931 83.2571 351.521 83.2784 352.182H81.7443ZM90.1291 352.182V353.46H85.041V352.182H90.1291ZM86.524 349.83H88.0325V359.188C88.0325 359.614 88.0943 359.933 88.2179 360.146C88.3457 360.355 88.5076 360.496 88.7037 360.568C88.9039 360.636 89.1149 360.67 89.3365 360.67C89.5027 360.67 89.639 360.662 89.7456 360.645C89.8521 360.624 89.9373 360.607 90.0012 360.594L90.3081 361.949C90.2058 361.987 90.063 362.026 89.8798 362.064C89.6966 362.107 89.4643 362.128 89.1831 362.128C88.7569 362.128 88.3393 362.036 87.9302 361.853C87.5254 361.67 87.1887 361.391 86.9203 361.016C86.6561 360.641 86.524 360.168 86.524 359.597V349.83ZM95.2875 362.23C94.6653 362.23 94.1007 362.113 93.5936 361.879C93.0865 361.64 92.6838 361.297 92.3855 360.849C92.0872 360.398 91.938 359.852 91.938 359.213C91.938 358.651 92.0488 358.195 92.2704 357.845C92.492 357.491 92.7882 357.214 93.1589 357.014C93.5297 356.814 93.9387 356.665 94.3862 356.567C94.8379 356.464 95.2917 356.384 95.7477 356.324C96.3443 356.247 96.8279 356.19 97.1987 356.151C97.5737 356.109 97.8464 356.038 98.0169 355.94C98.1916 355.842 98.2789 355.672 98.2789 355.429V355.378C98.2789 354.747 98.1064 354.257 97.7612 353.908C97.4203 353.558 96.9025 353.384 96.2079 353.384C95.4877 353.384 94.9231 353.541 94.514 353.857C94.1049 354.172 93.8173 354.509 93.6511 354.866L92.2193 354.355C92.475 353.759 92.8159 353.294 93.242 352.962C93.6724 352.625 94.1412 352.391 94.6483 352.259C95.1596 352.122 95.6625 352.054 96.1568 352.054C96.4721 352.054 96.8343 352.092 97.2434 352.169C97.6568 352.241 98.0552 352.393 98.4387 352.623C98.8265 352.853 99.1483 353.2 99.4039 353.665C99.6596 354.129 99.7875 354.751 99.7875 355.531V362H98.2789V360.67H98.2022C98.1 360.884 97.9295 361.112 97.6909 361.354C97.4522 361.597 97.1348 361.804 96.7385 361.974C96.3422 362.145 95.8585 362.23 95.2875 362.23ZM95.5176 360.875C96.1142 360.875 96.617 360.758 97.0261 360.523C97.4395 360.289 97.7505 359.987 97.9593 359.616C98.1724 359.245 98.2789 358.855 98.2789 358.446V357.065C98.215 357.142 98.0744 357.212 97.8571 357.276C97.644 357.336 97.3968 357.389 97.1156 357.436C96.8386 357.479 96.568 357.517 96.3038 357.551C96.0439 357.581 95.8329 357.607 95.671 357.628C95.2789 357.679 94.9125 357.762 94.5716 357.877C94.2349 357.988 93.9622 358.156 93.7534 358.382C93.5488 358.604 93.4466 358.906 93.4466 359.29C93.4466 359.814 93.6404 360.21 94.0282 360.479C94.4203 360.743 94.9167 360.875 95.5176 360.875ZM102.541 362V352.182H103.998V353.665H104.1C104.279 353.179 104.603 352.785 105.072 352.482C105.541 352.18 106.069 352.028 106.657 352.028C106.768 352.028 106.907 352.031 107.073 352.035C107.239 352.039 107.365 352.045 107.45 352.054V353.588C107.399 353.575 107.282 353.556 107.098 353.531C106.919 353.501 106.73 353.486 106.529 353.486C106.052 353.486 105.626 353.586 105.251 353.786C104.88 353.982 104.586 354.255 104.369 354.604C104.156 354.95 104.049 355.344 104.049 355.787V362H102.541ZM114.123 352.182V353.46H109.035V352.182H114.123ZM110.518 349.83H112.027V359.188C112.027 359.614 112.088 359.933 112.212 360.146C112.34 360.355 112.502 360.496 112.698 360.568C112.898 360.636 113.109 360.67 113.331 360.67C113.497 360.67 113.633 360.662 113.74 360.645C113.846 360.624 113.931 360.607 113.995 360.594L114.302 361.949C114.2 361.987 114.057 362.026 113.874 362.064C113.691 362.107 113.458 362.128 113.177 362.128C112.751 362.128 112.333 362.036 111.924 361.853C111.52 361.67 111.183 361.391 110.914 361.016C110.65 360.641 110.518 360.168 110.518 359.597V349.83ZM130.25 348.909H131.836V357.577C131.836 358.472 131.625 359.271 131.203 359.974C130.785 360.673 130.195 361.224 129.432 361.629C128.669 362.03 127.775 362.23 126.748 362.23C125.721 362.23 124.826 362.03 124.063 361.629C123.3 361.224 122.708 360.673 122.286 359.974C121.868 359.271 121.659 358.472 121.659 357.577V348.909H123.245V357.449C123.245 358.088 123.385 358.657 123.667 359.156C123.948 359.65 124.348 360.04 124.868 360.325C125.392 360.607 126.019 360.747 126.748 360.747C127.476 360.747 128.103 360.607 128.627 360.325C129.151 360.04 129.551 359.65 129.828 359.156C130.11 358.657 130.25 358.088 130.25 357.449V348.909ZM134.797 365.682V352.182H136.254V353.741H136.433C136.544 353.571 136.697 353.354 136.893 353.089C137.094 352.821 137.379 352.582 137.75 352.374C138.125 352.161 138.632 352.054 139.271 352.054C140.098 352.054 140.827 352.261 141.457 352.674C142.088 353.087 142.58 353.673 142.934 354.432C143.287 355.19 143.464 356.085 143.464 357.116C143.464 358.156 143.287 359.058 142.934 359.82C142.58 360.579 142.09 361.167 141.464 361.585C140.837 361.998 140.115 362.205 139.297 362.205C138.666 362.205 138.161 362.1 137.782 361.891C137.403 361.678 137.111 361.437 136.906 361.169C136.702 360.896 136.544 360.67 136.433 360.491H136.305V365.682H134.797ZM136.28 357.091C136.28 357.832 136.388 358.487 136.606 359.053C136.823 359.616 137.14 360.057 137.558 360.376C137.976 360.692 138.487 360.849 139.092 360.849C139.723 360.849 140.249 360.683 140.671 360.351C141.097 360.014 141.417 359.562 141.63 358.996C141.847 358.425 141.956 357.79 141.956 357.091C141.956 356.401 141.849 355.778 141.636 355.224C141.427 354.666 141.11 354.225 140.684 353.901C140.262 353.573 139.731 353.409 139.092 353.409C138.479 353.409 137.963 353.565 137.545 353.876C137.128 354.183 136.812 354.613 136.599 355.167C136.386 355.717 136.28 356.358 136.28 357.091Z" fill="black"/>
<path d="M258 29L267.5 38H258H248L258 29Z" fill="black"/>
<path d="M258 374V29M258 29L267.5 38H248L258 29Z" stroke="black"/>
</svg>
