<svg width="269" height="402" viewBox="0 0 269 402" fill="none" xmlns="http://www.w3.org/2000/svg">
<rect x="21" y="20" width="206" height="52" rx="12" fill="#09BC8A"/>
<path d="M74.1222 53H72.4602L77.267 39.9091H78.9034L83.7102 53H82.0483L78.1364 41.9801H78.0341L74.1222 53ZM74.7358 47.8864H81.4347V49.2926H74.7358V47.8864ZM85.5447 56.6818V43.1818H87.0021V44.7415H87.1811C87.2919 44.571 87.4453 44.3537 87.6413 44.0895C87.8416 43.821 88.1271 43.5824 88.4979 43.3736C88.8729 43.1605 89.38 43.054 90.0192 43.054C90.8459 43.054 91.5746 43.2607 92.2053 43.674C92.8359 44.0874 93.3281 44.6733 93.6818 45.4318C94.0355 46.1903 94.2124 47.0852 94.2124 48.1165C94.2124 49.1562 94.0355 50.0575 93.6818 50.8203C93.3281 51.5788 92.8381 52.1669 92.2116 52.5845C91.5852 52.9979 90.8629 53.2045 90.0447 53.2045C89.4141 53.2045 88.9091 53.1001 88.5298 52.8913C88.1506 52.6783 87.8587 52.4375 87.6541 52.169C87.4496 51.8963 87.2919 51.6705 87.1811 51.4915H87.0533V56.6818H85.5447ZM87.0277 48.0909C87.0277 48.8324 87.1364 49.4865 87.3537 50.0533C87.571 50.6158 87.8885 51.0568 88.3061 51.3764C88.7237 51.6918 89.2351 51.8494 89.8402 51.8494C90.4709 51.8494 90.9972 51.6832 91.419 51.3509C91.8452 51.0142 92.1648 50.5625 92.3778 49.9957C92.5952 49.4247 92.7038 48.7898 92.7038 48.0909C92.7038 47.4006 92.5973 46.7784 92.3842 46.2244C92.1754 45.6662 91.858 45.2251 91.4318 44.9013C91.0099 44.5732 90.4794 44.4091 89.8402 44.4091C89.2266 44.4091 88.7109 44.5646 88.2933 44.8757C87.8757 45.1825 87.5604 45.6129 87.3473 46.1669C87.1342 46.7166 87.0277 47.358 87.0277 48.0909ZM96.5135 56.6818V43.1818H97.9709V44.7415H98.1499C98.2607 44.571 98.4141 44.3537 98.6101 44.0895C98.8104 43.821 99.0959 43.5824 99.4666 43.3736C99.8416 43.1605 100.349 43.054 100.988 43.054C101.815 43.054 102.543 43.2607 103.174 43.674C103.805 44.0874 104.297 44.6733 104.651 45.4318C105.004 46.1903 105.181 47.0852 105.181 48.1165C105.181 49.1562 105.004 50.0575 104.651 50.8203C104.297 51.5788 103.807 52.1669 103.18 52.5845C102.554 52.9979 101.832 53.2045 101.013 53.2045C100.383 53.2045 99.8778 53.1001 99.4986 52.8913C99.1193 52.6783 98.8274 52.4375 98.6229 52.169C98.4183 51.8963 98.2607 51.6705 98.1499 51.4915H98.022V56.6818H96.5135ZM97.9964 48.0909C97.9964 48.8324 98.1051 49.4865 98.3224 50.0533C98.5398 50.6158 98.8572 51.0568 99.2749 51.3764C99.6925 51.6918 100.204 51.8494 100.809 51.8494C101.44 51.8494 101.966 51.6832 102.388 51.3509C102.814 51.0142 103.134 50.5625 103.347 49.9957C103.564 49.4247 103.673 48.7898 103.673 48.0909C103.673 47.4006 103.566 46.7784 103.353 46.2244C103.144 45.6662 102.827 45.2251 102.401 44.9013C101.979 44.5732 101.448 44.4091 100.809 44.4091C100.195 44.4091 99.6797 44.5646 99.2621 44.8757C98.8445 45.1825 98.5291 45.6129 98.3161 46.1669C98.103 46.7166 97.9964 47.358 97.9964 48.0909ZM108.991 39.9091V53H107.482V39.9091H108.991ZM111.754 53V43.1818H113.262V53H111.754ZM112.521 41.5455C112.227 41.5455 111.973 41.4453 111.76 41.245C111.551 41.0447 111.447 40.804 111.447 40.5227C111.447 40.2415 111.551 40.0007 111.76 39.8004C111.973 39.6001 112.227 39.5 112.521 39.5C112.815 39.5 113.066 39.6001 113.275 39.8004C113.488 40.0007 113.595 40.2415 113.595 40.5227C113.595 40.804 113.488 41.0447 113.275 41.245C113.066 41.4453 112.815 41.5455 112.521 41.5455ZM120.014 53.2045C119.093 53.2045 118.301 52.9872 117.636 52.5526C116.971 52.1179 116.46 51.5192 116.102 50.7564C115.744 49.9936 115.565 49.1222 115.565 48.142C115.565 47.1449 115.748 46.2649 116.115 45.5021C116.485 44.7351 117.001 44.1364 117.662 43.706C118.326 43.2713 119.102 43.054 119.988 43.054C120.679 43.054 121.301 43.1818 121.855 43.4375C122.409 43.6932 122.863 44.0511 123.216 44.5114C123.57 44.9716 123.789 45.5085 123.875 46.1222H122.366C122.251 45.6747 121.995 45.2784 121.599 44.9332C121.207 44.5838 120.679 44.4091 120.014 44.4091C119.426 44.4091 118.91 44.5625 118.467 44.8693C118.028 45.1719 117.685 45.6001 117.438 46.1541C117.195 46.7038 117.074 47.3494 117.074 48.0909C117.074 48.8494 117.193 49.5099 117.431 50.0724C117.674 50.6349 118.015 51.0717 118.454 51.3828C118.897 51.6939 119.417 51.8494 120.014 51.8494C120.406 51.8494 120.762 51.7812 121.081 51.6449C121.401 51.5085 121.672 51.3125 121.893 51.0568C122.115 50.8011 122.272 50.4943 122.366 50.1364H123.875C123.789 50.7159 123.578 51.2379 123.242 51.7024C122.909 52.1626 122.468 52.5291 121.919 52.8018C121.373 53.0703 120.738 53.2045 120.014 53.2045ZM128.969 53.2301C128.347 53.2301 127.782 53.1129 127.275 52.8786C126.768 52.6399 126.365 52.2969 126.067 51.8494C125.769 51.3977 125.62 50.8523 125.62 50.2131C125.62 49.6506 125.73 49.1946 125.952 48.8452C126.174 48.4915 126.47 48.2145 126.841 48.0142C127.211 47.8139 127.62 47.6648 128.068 47.5668C128.52 47.4645 128.973 47.3835 129.429 47.3239C130.026 47.2472 130.51 47.1896 130.88 47.1513C131.255 47.1087 131.528 47.0384 131.699 46.9403C131.873 46.8423 131.961 46.6719 131.961 46.429V46.3778C131.961 45.7472 131.788 45.2571 131.443 44.9077C131.102 44.5582 130.584 44.3835 129.89 44.3835C129.169 44.3835 128.605 44.5412 128.196 44.8565C127.787 45.1719 127.499 45.5085 127.333 45.8665L125.901 45.3551C126.157 44.7585 126.498 44.294 126.924 43.9616C127.354 43.625 127.823 43.3906 128.33 43.2585C128.841 43.1222 129.344 43.054 129.838 43.054C130.154 43.054 130.516 43.0923 130.925 43.169C131.338 43.2415 131.737 43.3928 132.12 43.6229C132.508 43.853 132.83 44.2003 133.086 44.6648C133.341 45.1293 133.469 45.7514 133.469 46.5312V53H131.961V51.6705H131.884C131.782 51.8835 131.611 52.1115 131.373 52.3544C131.134 52.5973 130.816 52.804 130.42 52.9744C130.024 53.1449 129.54 53.2301 128.969 53.2301ZM129.199 51.875C129.796 51.875 130.299 51.7578 130.708 51.5234C131.121 51.2891 131.432 50.9865 131.641 50.6158C131.854 50.245 131.961 49.8551 131.961 49.446V48.0653C131.897 48.142 131.756 48.2124 131.539 48.2763C131.326 48.3359 131.078 48.3892 130.797 48.4361C130.52 48.4787 130.25 48.517 129.985 48.5511C129.725 48.581 129.515 48.6065 129.353 48.6278C128.961 48.679 128.594 48.7621 128.253 48.8771C127.917 48.9879 127.644 49.1562 127.435 49.3821C127.23 49.6037 127.128 49.9062 127.128 50.2898C127.128 50.8139 127.322 51.2102 127.71 51.4787C128.102 51.7429 128.598 51.875 129.199 51.875ZM140.492 43.1818V44.4602H135.404V43.1818H140.492ZM136.887 40.8295H138.396V50.1875C138.396 50.6136 138.458 50.9332 138.581 51.1463C138.709 51.3551 138.871 51.4957 139.067 51.5682C139.267 51.6364 139.478 51.6705 139.7 51.6705C139.866 51.6705 140.002 51.6619 140.109 51.6449C140.215 51.6236 140.301 51.6065 140.365 51.5938L140.671 52.9489C140.569 52.9872 140.426 53.0256 140.243 53.0639C140.06 53.1065 139.828 53.1278 139.546 53.1278C139.12 53.1278 138.703 53.0362 138.294 52.853C137.889 52.6697 137.552 52.3906 137.284 52.0156C137.019 51.6406 136.887 51.1676 136.887 50.5966V40.8295ZM142.762 53V43.1818H144.27V53H142.762ZM143.529 41.5455C143.235 41.5455 142.981 41.4453 142.768 41.245C142.559 41.0447 142.455 40.804 142.455 40.5227C142.455 40.2415 142.559 40.0007 142.768 39.8004C142.981 39.6001 143.235 39.5 143.529 39.5C143.823 39.5 144.074 39.6001 144.283 39.8004C144.496 40.0007 144.602 40.2415 144.602 40.5227C144.602 40.804 144.496 41.0447 144.283 41.245C144.074 41.4453 143.823 41.5455 143.529 41.5455ZM151.022 53.2045C150.135 53.2045 149.358 52.9936 148.689 52.5717C148.024 52.1499 147.504 51.5597 147.129 50.8011C146.758 50.0426 146.573 49.1562 146.573 48.142C146.573 47.1193 146.758 46.2266 147.129 45.4638C147.504 44.701 148.024 44.1087 148.689 43.6868C149.358 43.2649 150.135 43.054 151.022 43.054C151.908 43.054 152.684 43.2649 153.348 43.6868C154.017 44.1087 154.537 44.701 154.908 45.4638C155.283 46.2266 155.471 47.1193 155.471 48.142C155.471 49.1562 155.283 50.0426 154.908 50.8011C154.537 51.5597 154.017 52.1499 153.348 52.5717C152.684 52.9936 151.908 53.2045 151.022 53.2045ZM151.022 51.8494C151.695 51.8494 152.249 51.6768 152.684 51.3317C153.118 50.9865 153.44 50.5327 153.649 49.9702C153.858 49.4077 153.962 48.7983 153.962 48.142C153.962 47.4858 153.858 46.8743 153.649 46.3075C153.44 45.7408 153.118 45.2827 152.684 44.9332C152.249 44.5838 151.695 44.4091 151.022 44.4091C150.348 44.4091 149.794 44.5838 149.36 44.9332C148.925 45.2827 148.603 45.7408 148.395 46.3075C148.186 46.8743 148.081 47.4858 148.081 48.142C148.081 48.7983 148.186 49.4077 148.395 49.9702C148.603 50.5327 148.925 50.9865 149.36 51.3317C149.794 51.6768 150.348 51.8494 151.022 51.8494ZM159.282 47.0938V53H157.773V43.1818H159.231V44.7159H159.358C159.589 44.2173 159.938 43.8168 160.407 43.5142C160.876 43.2074 161.481 43.054 162.222 43.054C162.887 43.054 163.469 43.1903 163.967 43.4631C164.466 43.7315 164.854 44.1406 165.131 44.6903C165.407 45.2358 165.546 45.9261 165.546 46.7614V53H164.037V46.8636C164.037 46.0923 163.837 45.4915 163.437 45.0611C163.036 44.6264 162.486 44.4091 161.787 44.4091C161.306 44.4091 160.876 44.5135 160.496 44.7223C160.121 44.9311 159.825 45.2358 159.608 45.6364C159.39 46.0369 159.282 46.5227 159.282 47.0938ZM175.257 45.3807L173.902 45.7642C173.817 45.5384 173.691 45.3189 173.525 45.1058C173.363 44.8885 173.141 44.7095 172.86 44.5689C172.579 44.4283 172.219 44.358 171.78 44.358C171.179 44.358 170.678 44.4964 170.278 44.7734C169.881 45.0462 169.683 45.3935 169.683 45.8153C169.683 46.1903 169.82 46.4865 170.092 46.7038C170.365 46.9212 170.791 47.1023 171.371 47.2472L172.828 47.6051C173.706 47.8182 174.36 48.1442 174.79 48.5831C175.221 49.0178 175.436 49.5781 175.436 50.2642C175.436 50.8267 175.274 51.3295 174.95 51.7727C174.631 52.2159 174.183 52.5653 173.608 52.821C173.033 53.0767 172.364 53.2045 171.601 53.2045C170.599 53.2045 169.771 52.9872 169.114 52.5526C168.458 52.1179 168.043 51.483 167.868 50.6477L169.3 50.2898C169.436 50.8182 169.694 51.2145 170.073 51.4787C170.457 51.7429 170.957 51.875 171.575 51.875C172.278 51.875 172.837 51.7259 173.25 51.4276C173.668 51.125 173.876 50.7628 173.876 50.3409C173.876 50 173.757 49.7145 173.518 49.4844C173.28 49.25 172.913 49.0753 172.419 48.9602L170.783 48.5767C169.884 48.3636 169.223 48.0334 168.801 47.5859C168.384 47.1342 168.175 46.5696 168.175 45.892C168.175 45.3381 168.33 44.848 168.641 44.4219C168.957 43.9957 169.385 43.6612 169.926 43.4183C170.472 43.1754 171.089 43.054 171.78 43.054C172.751 43.054 173.514 43.267 174.068 43.6932C174.626 44.1193 175.023 44.6818 175.257 45.3807Z" fill="black"/>
<rect x="21" y="82" width="206" height="52" rx="12" fill="#437AA8"/>
<path d="M56.1705 101.909V115H54.5852V101.909H56.1705ZM63.7722 101.295L59.5534 116.969H58.1728L62.3915 101.295H63.7722ZM76.8104 108.455C76.8104 109.835 76.5611 111.028 76.0625 112.034C75.5639 113.04 74.88 113.815 74.0107 114.361C73.1413 114.906 72.1484 115.179 71.032 115.179C69.9155 115.179 68.9226 114.906 68.0533 114.361C67.1839 113.815 66.5 113.04 66.0014 112.034C65.5028 111.028 65.2536 109.835 65.2536 108.455C65.2536 107.074 65.5028 105.881 66.0014 104.875C66.5 103.869 67.1839 103.094 68.0533 102.548C68.9226 102.003 69.9155 101.73 71.032 101.73C72.1484 101.73 73.1413 102.003 74.0107 102.548C74.88 103.094 75.5639 103.869 76.0625 104.875C76.5611 105.881 76.8104 107.074 76.8104 108.455ZM75.2763 108.455C75.2763 107.321 75.0866 106.364 74.7074 105.585C74.3324 104.805 73.8232 104.214 73.1797 103.814C72.5405 103.413 71.8246 103.213 71.032 103.213C70.2393 103.213 69.5213 103.413 68.8778 103.814C68.2386 104.214 67.7294 104.805 67.3501 105.585C66.9751 106.364 66.7876 107.321 66.7876 108.455C66.7876 109.588 66.9751 110.545 67.3501 111.325C67.7294 112.104 68.2386 112.695 68.8778 113.095C69.5213 113.496 70.2393 113.696 71.032 113.696C71.8246 113.696 72.5405 113.496 73.1797 113.095C73.8232 112.695 74.3324 112.104 74.7074 111.325C75.0866 110.545 75.2763 109.588 75.2763 108.455ZM84.5384 101.909H86.4304L90.8793 112.776H91.0327L95.4815 101.909H97.3736V115H95.8906V105.054H95.7628L91.6719 115H90.2401L86.1491 105.054H86.0213V115H84.5384V101.909ZM103.237 115.23C102.615 115.23 102.05 115.113 101.543 114.879C101.036 114.64 100.633 114.297 100.335 113.849C100.036 113.398 99.8873 112.852 99.8873 112.213C99.8873 111.651 99.998 111.195 100.22 110.845C100.441 110.491 100.737 110.214 101.108 110.014C101.479 109.814 101.888 109.665 102.335 109.567C102.787 109.464 103.241 109.384 103.697 109.324C104.294 109.247 104.777 109.19 105.148 109.151C105.523 109.109 105.796 109.038 105.966 108.94C106.141 108.842 106.228 108.672 106.228 108.429V108.378C106.228 107.747 106.056 107.257 105.71 106.908C105.369 106.558 104.852 106.384 104.157 106.384C103.437 106.384 102.872 106.541 102.463 106.857C102.054 107.172 101.767 107.509 101.6 107.866L100.169 107.355C100.424 106.759 100.765 106.294 101.191 105.962C101.622 105.625 102.09 105.391 102.597 105.259C103.109 105.122 103.612 105.054 104.106 105.054C104.421 105.054 104.784 105.092 105.193 105.169C105.606 105.241 106.004 105.393 106.388 105.623C106.776 105.853 107.097 106.2 107.353 106.665C107.609 107.129 107.737 107.751 107.737 108.531V115H106.228V113.67H106.151C106.049 113.884 105.879 114.112 105.64 114.354C105.401 114.597 105.084 114.804 104.688 114.974C104.291 115.145 103.808 115.23 103.237 115.23ZM103.467 113.875C104.063 113.875 104.566 113.758 104.975 113.523C105.389 113.289 105.7 112.987 105.909 112.616C106.122 112.245 106.228 111.855 106.228 111.446V110.065C106.164 110.142 106.024 110.212 105.806 110.276C105.593 110.336 105.346 110.389 105.065 110.436C104.788 110.479 104.517 110.517 104.253 110.551C103.993 110.581 103.782 110.607 103.62 110.628C103.228 110.679 102.862 110.762 102.521 110.877C102.184 110.988 101.911 111.156 101.703 111.382C101.498 111.604 101.396 111.906 101.396 112.29C101.396 112.814 101.59 113.21 101.977 113.479C102.369 113.743 102.866 113.875 103.467 113.875ZM111.999 109.094V115H110.49V105.182H111.947V106.716H112.075C112.305 106.217 112.655 105.817 113.124 105.514C113.592 105.207 114.197 105.054 114.939 105.054C115.604 105.054 116.185 105.19 116.684 105.463C117.183 105.732 117.57 106.141 117.847 106.69C118.124 107.236 118.263 107.926 118.263 108.761V115H116.754V108.864C116.754 108.092 116.554 107.491 116.153 107.061C115.753 106.626 115.203 106.409 114.504 106.409C114.023 106.409 113.592 106.513 113.213 106.722C112.838 106.931 112.542 107.236 112.325 107.636C112.107 108.037 111.999 108.523 111.999 109.094ZM123.909 115.23C123.286 115.23 122.722 115.113 122.215 114.879C121.708 114.64 121.305 114.297 121.007 113.849C120.708 113.398 120.559 112.852 120.559 112.213C120.559 111.651 120.67 111.195 120.892 110.845C121.113 110.491 121.409 110.214 121.78 110.014C122.151 109.814 122.56 109.665 123.007 109.567C123.459 109.464 123.913 109.384 124.369 109.324C124.965 109.247 125.449 109.19 125.82 109.151C126.195 109.109 126.468 109.038 126.638 108.94C126.813 108.842 126.9 108.672 126.9 108.429V108.378C126.9 107.747 126.727 107.257 126.382 106.908C126.041 106.558 125.524 106.384 124.829 106.384C124.109 106.384 123.544 106.541 123.135 106.857C122.726 107.172 122.438 107.509 122.272 107.866L120.84 107.355C121.096 106.759 121.437 106.294 121.863 105.962C122.294 105.625 122.762 105.391 123.269 105.259C123.781 105.122 124.284 105.054 124.778 105.054C125.093 105.054 125.455 105.092 125.865 105.169C126.278 105.241 126.676 105.393 127.06 105.623C127.448 105.853 127.769 106.2 128.025 106.665C128.281 107.129 128.409 107.751 128.409 108.531V115H126.9V113.67H126.823C126.721 113.884 126.551 114.112 126.312 114.354C126.073 114.597 125.756 114.804 125.36 114.974C124.963 115.145 124.48 115.23 123.909 115.23ZM124.139 113.875C124.735 113.875 125.238 113.758 125.647 113.523C126.061 113.289 126.372 112.987 126.58 112.616C126.794 112.245 126.9 111.855 126.9 111.446V110.065C126.836 110.142 126.695 110.212 126.478 110.276C126.265 110.336 126.018 110.389 125.737 110.436C125.46 110.479 125.189 110.517 124.925 110.551C124.665 110.581 124.454 110.607 124.292 110.628C123.9 110.679 123.534 110.762 123.193 110.877C122.856 110.988 122.583 111.156 122.374 111.382C122.17 111.604 122.068 111.906 122.068 112.29C122.068 112.814 122.262 113.21 122.649 113.479C123.041 113.743 123.538 113.875 124.139 113.875ZM135.125 118.886C134.396 118.886 133.77 118.793 133.246 118.605C132.722 118.422 132.285 118.179 131.935 117.876C131.59 117.578 131.315 117.259 131.111 116.918L132.312 116.074C132.449 116.253 132.621 116.457 132.83 116.688C133.039 116.922 133.325 117.124 133.687 117.295C134.053 117.469 134.533 117.557 135.125 117.557C135.918 117.557 136.572 117.365 137.087 116.982C137.603 116.598 137.861 115.997 137.861 115.179V113.185H137.733C137.622 113.364 137.464 113.585 137.26 113.849C137.06 114.109 136.77 114.342 136.391 114.546C136.016 114.746 135.509 114.847 134.869 114.847C134.077 114.847 133.365 114.659 132.734 114.284C132.108 113.909 131.612 113.364 131.245 112.648C130.883 111.932 130.702 111.062 130.702 110.04C130.702 109.034 130.879 108.158 131.232 107.413C131.586 106.663 132.078 106.083 132.709 105.674C133.339 105.261 134.068 105.054 134.895 105.054C135.534 105.054 136.041 105.161 136.416 105.374C136.795 105.582 137.085 105.821 137.286 106.089C137.49 106.354 137.648 106.571 137.759 106.741H137.912V105.182H139.369V115.281C139.369 116.125 139.178 116.811 138.794 117.339C138.415 117.872 137.903 118.262 137.26 118.509C136.621 118.761 135.909 118.886 135.125 118.886ZM135.074 113.491C135.679 113.491 136.19 113.353 136.608 113.076C137.026 112.799 137.343 112.401 137.56 111.881C137.778 111.361 137.886 110.739 137.886 110.014C137.886 109.307 137.78 108.683 137.567 108.141C137.354 107.6 137.038 107.176 136.621 106.869C136.203 106.562 135.688 106.409 135.074 106.409C134.435 106.409 133.902 106.571 133.476 106.895C133.054 107.219 132.737 107.653 132.523 108.199C132.315 108.744 132.21 109.349 132.21 110.014C132.21 110.696 132.317 111.299 132.53 111.823C132.747 112.343 133.067 112.752 133.489 113.05C133.915 113.344 134.443 113.491 135.074 113.491ZM146.247 115.205C145.301 115.205 144.485 114.996 143.799 114.578C143.117 114.156 142.591 113.568 142.22 112.814C141.854 112.055 141.67 111.173 141.67 110.168C141.67 109.162 141.854 108.276 142.22 107.509C142.591 106.737 143.107 106.136 143.767 105.706C144.432 105.271 145.207 105.054 146.094 105.054C146.605 105.054 147.11 105.139 147.609 105.31C148.107 105.48 148.561 105.757 148.97 106.141C149.379 106.52 149.705 107.023 149.948 107.649C150.191 108.276 150.312 109.047 150.312 109.963V110.602H142.744V109.298H148.778C148.778 108.744 148.668 108.25 148.446 107.815C148.229 107.381 147.918 107.038 147.513 106.786C147.112 106.535 146.639 106.409 146.094 106.409C145.493 106.409 144.973 106.558 144.534 106.857C144.099 107.151 143.765 107.534 143.531 108.007C143.296 108.48 143.179 108.987 143.179 109.528V110.398C143.179 111.139 143.307 111.768 143.562 112.283C143.822 112.795 144.183 113.185 144.643 113.453C145.103 113.717 145.638 113.849 146.247 113.849C146.643 113.849 147.001 113.794 147.321 113.683C147.645 113.568 147.924 113.398 148.158 113.172C148.393 112.942 148.574 112.656 148.702 112.315L150.159 112.724C150.006 113.219 149.748 113.653 149.386 114.028C149.023 114.399 148.576 114.689 148.043 114.898C147.511 115.102 146.912 115.205 146.247 115.205ZM152.607 115V105.182H154.065V106.716H154.192C154.397 106.192 154.727 105.785 155.183 105.495C155.639 105.201 156.187 105.054 156.826 105.054C157.474 105.054 158.013 105.201 158.443 105.495C158.878 105.785 159.217 106.192 159.46 106.716H159.562C159.813 106.209 160.19 105.806 160.693 105.508C161.196 105.205 161.799 105.054 162.502 105.054C163.38 105.054 164.098 105.329 164.656 105.879C165.214 106.424 165.494 107.274 165.494 108.429V115H163.985V108.429C163.985 107.705 163.787 107.187 163.391 106.876C162.994 106.565 162.528 106.409 161.991 106.409C161.3 106.409 160.766 106.618 160.386 107.036C160.007 107.449 159.817 107.973 159.817 108.608V115H158.283V108.276C158.283 107.717 158.102 107.268 157.74 106.927C157.378 106.582 156.911 106.409 156.34 106.409C155.948 106.409 155.582 106.513 155.241 106.722C154.904 106.931 154.631 107.221 154.423 107.592C154.218 107.958 154.116 108.382 154.116 108.864V115H152.607ZM172.368 115.205C171.422 115.205 170.606 114.996 169.92 114.578C169.238 114.156 168.712 113.568 168.341 112.814C167.975 112.055 167.792 111.173 167.792 110.168C167.792 109.162 167.975 108.276 168.341 107.509C168.712 106.737 169.228 106.136 169.888 105.706C170.553 105.271 171.328 105.054 172.215 105.054C172.726 105.054 173.231 105.139 173.73 105.31C174.228 105.48 174.682 105.757 175.091 106.141C175.5 106.52 175.826 107.023 176.069 107.649C176.312 108.276 176.434 109.047 176.434 109.963V110.602H168.865V109.298H174.9C174.9 108.744 174.789 108.25 174.567 107.815C174.35 107.381 174.039 107.038 173.634 106.786C173.233 106.535 172.76 106.409 172.215 106.409C171.614 106.409 171.094 106.558 170.655 106.857C170.221 107.151 169.886 107.534 169.652 108.007C169.417 108.48 169.3 108.987 169.3 109.528V110.398C169.3 111.139 169.428 111.768 169.684 112.283C169.944 112.795 170.304 113.185 170.764 113.453C171.224 113.717 171.759 113.849 172.368 113.849C172.765 113.849 173.123 113.794 173.442 113.683C173.766 113.568 174.045 113.398 174.279 113.172C174.514 112.942 174.695 112.656 174.823 112.315L176.28 112.724C176.127 113.219 175.869 113.653 175.507 114.028C175.145 114.399 174.697 114.689 174.164 114.898C173.632 115.102 173.033 115.205 172.368 115.205ZM180.237 109.094V115H178.728V105.182H180.186V106.716H180.314C180.544 106.217 180.893 105.817 181.362 105.514C181.831 105.207 182.436 105.054 183.177 105.054C183.842 105.054 184.424 105.19 184.922 105.463C185.421 105.732 185.809 106.141 186.086 106.69C186.363 107.236 186.501 107.926 186.501 108.761V115H184.993V108.864C184.993 108.092 184.792 107.491 184.392 107.061C183.991 106.626 183.441 106.409 182.743 106.409C182.261 106.409 181.831 106.513 181.451 106.722C181.076 106.931 180.78 107.236 180.563 107.636C180.346 108.037 180.237 108.523 180.237 109.094ZM193.528 105.182V106.46H188.439V105.182H193.528ZM189.922 102.83H191.431V112.188C191.431 112.614 191.493 112.933 191.616 113.146C191.744 113.355 191.906 113.496 192.102 113.568C192.302 113.636 192.513 113.67 192.735 113.67C192.901 113.67 193.037 113.662 193.144 113.645C193.251 113.624 193.336 113.607 193.4 113.594L193.706 114.949C193.604 114.987 193.461 115.026 193.278 115.064C193.095 115.107 192.863 115.128 192.581 115.128C192.155 115.128 191.738 115.036 191.329 114.853C190.924 114.67 190.587 114.391 190.319 114.016C190.055 113.641 189.922 113.168 189.922 112.597V102.83Z" fill="black"/>
<rect x="21" y="144" width="206" height="52" rx="12" fill="#508991"/>
<path d="M67.625 177H63.5852V163.909H67.804C69.0739 163.909 70.1605 164.171 71.0639 164.695C71.9673 165.215 72.6598 165.963 73.1413 166.939C73.6229 167.911 73.8636 169.074 73.8636 170.429C73.8636 171.793 73.6207 172.967 73.1349 173.951C72.6491 174.931 71.9418 175.685 71.0128 176.214C70.0838 176.738 68.9545 177 67.625 177ZM65.1705 175.594H67.5227C68.6051 175.594 69.5021 175.385 70.2138 174.967C70.9254 174.55 71.456 173.955 71.8054 173.184C72.1548 172.413 72.3295 171.494 72.3295 170.429C72.3295 169.372 72.157 168.462 71.8118 167.7C71.4666 166.933 70.951 166.344 70.2649 165.935C69.5788 165.522 68.7244 165.315 67.7017 165.315H65.1705V175.594ZM80.4347 177.205C79.4886 177.205 78.6726 176.996 77.9865 176.578C77.3047 176.156 76.7784 175.568 76.4077 174.814C76.0412 174.055 75.858 173.173 75.858 172.168C75.858 171.162 76.0412 170.276 76.4077 169.509C76.7784 168.737 77.294 168.136 77.9545 167.706C78.6193 167.271 79.3949 167.054 80.2812 167.054C80.7926 167.054 81.2976 167.139 81.7962 167.31C82.2947 167.48 82.7486 167.757 83.1577 168.141C83.5668 168.52 83.8928 169.023 84.1357 169.649C84.3786 170.276 84.5 171.047 84.5 171.963V172.602H76.9318V171.298H82.9659C82.9659 170.744 82.8551 170.25 82.6335 169.815C82.4162 169.381 82.1051 169.038 81.7003 168.786C81.2997 168.535 80.8267 168.409 80.2812 168.409C79.6804 168.409 79.1605 168.558 78.7216 168.857C78.2869 169.151 77.9524 169.534 77.718 170.007C77.4837 170.48 77.3665 170.987 77.3665 171.528V172.398C77.3665 173.139 77.4943 173.768 77.75 174.283C78.0099 174.795 78.37 175.185 78.8303 175.453C79.2905 175.717 79.8253 175.849 80.4347 175.849C80.831 175.849 81.1889 175.794 81.5085 175.683C81.8324 175.568 82.1115 175.398 82.3459 175.172C82.5803 174.942 82.7614 174.656 82.8892 174.315L84.3466 174.724C84.1932 175.219 83.9354 175.653 83.5732 176.028C83.2109 176.399 82.7635 176.689 82.2308 176.898C81.6982 177.102 81.0994 177.205 80.4347 177.205ZM94.5243 167.182L90.8936 177H89.3596L85.7289 167.182H87.3652L90.0755 175.006H90.1777L92.888 167.182H94.5243ZM96.5154 177V167.182H98.024V177H96.5154ZM97.2825 165.545C96.9885 165.545 96.7349 165.445 96.5218 165.245C96.313 165.045 96.2086 164.804 96.2086 164.523C96.2086 164.241 96.313 164.001 96.5218 163.8C96.7349 163.6 96.9885 163.5 97.2825 163.5C97.5765 163.5 97.8279 163.6 98.0368 163.8C98.2498 164.001 98.3564 164.241 98.3564 164.523C98.3564 164.804 98.2498 165.045 98.0368 165.245C97.8279 165.445 97.5765 165.545 97.2825 165.545ZM104.776 177.205C103.855 177.205 103.063 176.987 102.398 176.553C101.733 176.118 101.222 175.519 100.864 174.756C100.506 173.994 100.327 173.122 100.327 172.142C100.327 171.145 100.51 170.265 100.876 169.502C101.247 168.735 101.763 168.136 102.423 167.706C103.088 167.271 103.864 167.054 104.75 167.054C105.44 167.054 106.062 167.182 106.616 167.438C107.17 167.693 107.624 168.051 107.978 168.511C108.332 168.972 108.551 169.509 108.636 170.122H107.128C107.013 169.675 106.757 169.278 106.361 168.933C105.969 168.584 105.44 168.409 104.776 168.409C104.188 168.409 103.672 168.562 103.229 168.869C102.79 169.172 102.447 169.6 102.2 170.154C101.957 170.704 101.835 171.349 101.835 172.091C101.835 172.849 101.955 173.51 102.193 174.072C102.436 174.635 102.777 175.072 103.216 175.383C103.659 175.694 104.179 175.849 104.776 175.849C105.168 175.849 105.523 175.781 105.843 175.645C106.163 175.509 106.433 175.312 106.655 175.057C106.876 174.801 107.034 174.494 107.128 174.136H108.636C108.551 174.716 108.34 175.238 108.004 175.702C107.671 176.163 107.23 176.529 106.68 176.802C106.135 177.07 105.5 177.205 104.776 177.205ZM114.958 177.205C114.012 177.205 113.196 176.996 112.51 176.578C111.828 176.156 111.302 175.568 110.931 174.814C110.565 174.055 110.381 173.173 110.381 172.168C110.381 171.162 110.565 170.276 110.931 169.509C111.302 168.737 111.817 168.136 112.478 167.706C113.143 167.271 113.918 167.054 114.805 167.054C115.316 167.054 115.821 167.139 116.32 167.31C116.818 167.48 117.272 167.757 117.681 168.141C118.09 168.52 118.416 169.023 118.659 169.649C118.902 170.276 119.023 171.047 119.023 171.963V172.602H111.455V171.298H117.489C117.489 170.744 117.379 170.25 117.157 169.815C116.94 169.381 116.629 169.038 116.224 168.786C115.823 168.535 115.35 168.409 114.805 168.409C114.204 168.409 113.684 168.558 113.245 168.857C112.81 169.151 112.476 169.534 112.241 170.007C112.007 170.48 111.89 170.987 111.89 171.528V172.398C111.89 173.139 112.018 173.768 112.273 174.283C112.533 174.795 112.893 175.185 113.354 175.453C113.814 175.717 114.349 175.849 114.958 175.849C115.354 175.849 115.712 175.794 116.032 175.683C116.356 175.568 116.635 175.398 116.869 175.172C117.104 174.942 117.285 174.656 117.413 174.315L118.87 174.724C118.717 175.219 118.459 175.653 118.097 176.028C117.734 176.399 117.287 176.689 116.754 176.898C116.222 177.102 115.623 177.205 114.958 177.205ZM130.625 177H126.585V163.909H130.804C132.074 163.909 133.161 164.171 134.064 164.695C134.967 165.215 135.66 165.963 136.141 166.939C136.623 167.911 136.864 169.074 136.864 170.429C136.864 171.793 136.621 172.967 136.135 173.951C135.649 174.931 134.942 175.685 134.013 176.214C133.084 176.738 131.955 177 130.625 177ZM128.17 175.594H130.523C131.605 175.594 132.502 175.385 133.214 174.967C133.925 174.55 134.456 173.955 134.805 173.184C135.155 172.413 135.33 171.494 135.33 170.429C135.33 169.372 135.157 168.462 134.812 167.7C134.467 166.933 133.951 166.344 133.265 165.935C132.579 165.522 131.724 165.315 130.702 165.315H128.17V175.594ZM139.318 177V167.182H140.776V168.665H140.878C141.057 168.179 141.381 167.785 141.849 167.482C142.318 167.18 142.847 167.028 143.435 167.028C143.545 167.028 143.684 167.031 143.85 167.035C144.016 167.039 144.142 167.045 144.227 167.054V168.588C144.176 168.575 144.059 168.556 143.876 168.531C143.697 168.501 143.507 168.486 143.307 168.486C142.83 168.486 142.403 168.586 142.028 168.786C141.658 168.982 141.364 169.255 141.146 169.604C140.933 169.95 140.827 170.344 140.827 170.787V177H139.318ZM146.015 177V167.182H147.524V177H146.015ZM146.782 165.545C146.488 165.545 146.235 165.445 146.022 165.245C145.813 165.045 145.709 164.804 145.709 164.523C145.709 164.241 145.813 164.001 146.022 163.8C146.235 163.6 146.488 163.5 146.782 163.5C147.077 163.5 147.328 163.6 147.537 163.8C147.75 164.001 147.856 164.241 147.856 164.523C147.856 164.804 147.75 165.045 147.537 165.245C147.328 165.445 147.077 165.545 146.782 165.545ZM158.315 167.182L154.685 177H153.151L149.52 167.182H151.156L153.866 175.006H153.969L156.679 167.182H158.315ZM164.071 177.205C163.125 177.205 162.309 176.996 161.623 176.578C160.941 176.156 160.415 175.568 160.044 174.814C159.678 174.055 159.495 173.173 159.495 172.168C159.495 171.162 159.678 170.276 160.044 169.509C160.415 168.737 160.931 168.136 161.591 167.706C162.256 167.271 163.032 167.054 163.918 167.054C164.429 167.054 164.934 167.139 165.433 167.31C165.931 167.48 166.385 167.757 166.794 168.141C167.203 168.52 167.529 169.023 167.772 169.649C168.015 170.276 168.137 171.047 168.137 171.963V172.602H160.569V171.298H166.603C166.603 170.744 166.492 170.25 166.27 169.815C166.053 169.381 165.742 169.038 165.337 168.786C164.936 168.535 164.463 168.409 163.918 168.409C163.317 168.409 162.797 168.558 162.358 168.857C161.924 169.151 161.589 169.534 161.355 170.007C161.12 170.48 161.003 170.987 161.003 171.528V172.398C161.003 173.139 161.131 173.768 161.387 174.283C161.647 174.795 162.007 175.185 162.467 175.453C162.927 175.717 163.462 175.849 164.071 175.849C164.468 175.849 164.826 175.794 165.145 175.683C165.469 175.568 165.748 175.398 165.983 175.172C166.217 174.942 166.398 174.656 166.526 174.315L167.983 174.724C167.83 175.219 167.572 175.653 167.21 176.028C166.848 176.399 166.4 176.689 165.868 176.898C165.335 177.102 164.736 177.205 164.071 177.205ZM170.431 177V167.182H171.889V168.665H171.991C172.17 168.179 172.494 167.785 172.963 167.482C173.431 167.18 173.96 167.028 174.548 167.028C174.659 167.028 174.797 167.031 174.963 167.035C175.13 167.039 175.255 167.045 175.341 167.054V168.588C175.289 168.575 175.172 168.556 174.989 168.531C174.81 168.501 174.62 168.486 174.42 168.486C173.943 168.486 173.517 168.586 173.142 168.786C172.771 168.982 172.477 169.255 172.26 169.604C172.047 169.95 171.94 170.344 171.94 170.787V177H170.431ZM184.083 169.381L182.728 169.764C182.643 169.538 182.517 169.319 182.351 169.106C182.189 168.888 181.968 168.71 181.686 168.569C181.405 168.428 181.045 168.358 180.606 168.358C180.005 168.358 179.504 168.496 179.104 168.773C178.708 169.046 178.509 169.393 178.509 169.815C178.509 170.19 178.646 170.487 178.919 170.704C179.191 170.921 179.617 171.102 180.197 171.247L181.654 171.605C182.532 171.818 183.186 172.144 183.617 172.583C184.047 173.018 184.262 173.578 184.262 174.264C184.262 174.827 184.1 175.33 183.776 175.773C183.457 176.216 183.009 176.565 182.434 176.821C181.859 177.077 181.19 177.205 180.427 177.205C179.426 177.205 178.597 176.987 177.941 176.553C177.284 176.118 176.869 175.483 176.694 174.648L178.126 174.29C178.262 174.818 178.52 175.214 178.899 175.479C179.283 175.743 179.784 175.875 180.401 175.875C181.105 175.875 181.663 175.726 182.076 175.428C182.494 175.125 182.703 174.763 182.703 174.341C182.703 174 182.583 173.714 182.345 173.484C182.106 173.25 181.74 173.075 181.245 172.96L179.609 172.577C178.71 172.364 178.049 172.033 177.627 171.586C177.21 171.134 177.001 170.57 177.001 169.892C177.001 169.338 177.156 168.848 177.468 168.422C177.783 167.996 178.211 167.661 178.752 167.418C179.298 167.175 179.916 167.054 180.606 167.054C181.578 167.054 182.34 167.267 182.894 167.693C183.453 168.119 183.849 168.682 184.083 169.381Z" fill="black"/>
<rect x="21" y="206" width="206" height="52" rx="12" fill="#69BCBC"/>
<path d="M32.5852 225.909H34.4773L38.9261 236.776H39.0795L43.5284 225.909H45.4205V239H43.9375V229.054H43.8097L39.7188 239H38.2869L34.196 229.054H34.0682V239H32.5852V225.909ZM52.5108 239.205C51.5648 239.205 50.7488 238.996 50.0627 238.578C49.3809 238.156 48.8546 237.568 48.4838 236.814C48.1174 236.055 47.9341 235.173 47.9341 234.168C47.9341 233.162 48.1174 232.276 48.4838 231.509C48.8546 230.737 49.3702 230.136 50.0307 229.706C50.6955 229.271 51.4711 229.054 52.3574 229.054C52.8688 229.054 53.3738 229.139 53.8723 229.31C54.3709 229.48 54.8248 229.757 55.2338 230.141C55.6429 230.52 55.9689 231.023 56.2118 231.649C56.4547 232.276 56.5762 233.047 56.5762 233.963V234.602H49.008V233.298H55.0421C55.0421 232.744 54.9313 232.25 54.7097 231.815C54.4924 231.381 54.1813 231.038 53.7765 230.786C53.3759 230.535 52.9029 230.409 52.3574 230.409C51.7566 230.409 51.2367 230.558 50.7978 230.857C50.3631 231.151 50.0286 231.534 49.7942 232.007C49.5598 232.48 49.4426 232.987 49.4426 233.528V234.398C49.4426 235.139 49.5705 235.768 49.8262 236.283C50.0861 236.795 50.4462 237.185 50.9064 237.453C51.3667 237.717 51.9015 237.849 52.5108 237.849C52.9071 237.849 53.2651 237.794 53.5847 237.683C53.9086 237.568 54.1877 237.398 54.4221 237.172C54.6564 236.942 54.8375 236.656 54.9654 236.315L56.4228 236.724C56.2694 237.219 56.0115 237.653 55.6493 238.028C55.2871 238.399 54.8397 238.689 54.307 238.898C53.7743 239.102 53.1756 239.205 52.5108 239.205ZM58.8709 239V229.182H60.3283V230.716H60.4561C60.6607 230.192 60.9909 229.785 61.4469 229.495C61.9029 229.201 62.4505 229.054 63.0897 229.054C63.7374 229.054 64.2765 229.201 64.7069 229.495C65.1415 229.785 65.4803 230.192 65.7232 230.716H65.8255C66.0769 230.209 66.454 229.806 66.9569 229.508C67.4597 229.205 68.0627 229.054 68.7658 229.054C69.6436 229.054 70.3617 229.329 70.9199 229.879C71.4782 230.424 71.7573 231.274 71.7573 232.429V239H70.2488V232.429C70.2488 231.705 70.0506 231.187 69.6543 230.876C69.258 230.565 68.7914 230.409 68.2544 230.409C67.5641 230.409 67.0293 230.618 66.65 231.036C66.2708 231.449 66.0811 231.973 66.0811 232.608V239H64.5471V232.276C64.5471 231.717 64.3659 231.268 64.0037 230.927C63.6415 230.582 63.1749 230.409 62.6039 230.409C62.2118 230.409 61.8453 230.513 61.5044 230.722C61.1678 230.931 60.8951 231.221 60.6863 231.592C60.4817 231.958 60.3794 232.382 60.3794 232.864V239H58.8709ZM78.5041 239.205C77.6177 239.205 76.84 238.994 76.171 238.572C75.5062 238.15 74.9863 237.56 74.6113 236.801C74.2406 236.043 74.0552 235.156 74.0552 234.142C74.0552 233.119 74.2406 232.227 74.6113 231.464C74.9863 230.701 75.5062 230.109 76.171 229.687C76.84 229.265 77.6177 229.054 78.5041 229.054C79.3904 229.054 80.166 229.265 80.8308 229.687C81.4998 230.109 82.0197 230.701 82.3904 231.464C82.7654 232.227 82.9529 233.119 82.9529 234.142C82.9529 235.156 82.7654 236.043 82.3904 236.801C82.0197 237.56 81.4998 238.15 80.8308 238.572C80.166 238.994 79.3904 239.205 78.5041 239.205ZM78.5041 237.849C79.1774 237.849 79.7314 237.677 80.166 237.332C80.6007 236.987 80.9224 236.533 81.1312 235.97C81.34 235.408 81.4444 234.798 81.4444 234.142C81.4444 233.486 81.34 232.874 81.1312 232.308C80.9224 231.741 80.6007 231.283 80.166 230.933C79.7314 230.584 79.1774 230.409 78.5041 230.409C77.8308 230.409 77.2768 230.584 76.8422 230.933C76.4075 231.283 76.0858 231.741 75.877 232.308C75.6681 232.874 75.5637 233.486 75.5637 234.142C75.5637 234.798 75.6681 235.408 75.877 235.97C76.0858 236.533 76.4075 236.987 76.8422 237.332C77.2768 237.677 77.8308 237.849 78.5041 237.849ZM85.2557 239V229.182H86.7131V230.665H86.8153C86.9943 230.179 87.3182 229.785 87.7869 229.482C88.2557 229.18 88.7841 229.028 89.3722 229.028C89.483 229.028 89.6214 229.031 89.7876 229.035C89.9538 229.039 90.0795 229.045 90.1648 229.054V230.588C90.1136 230.575 89.9964 230.556 89.8132 230.531C89.6342 230.501 89.4446 230.486 89.2443 230.486C88.767 230.486 88.3409 230.586 87.9659 230.786C87.5952 230.982 87.3011 231.255 87.0838 231.604C86.8707 231.95 86.7642 232.344 86.7642 232.787V239H85.2557ZM93.2234 242.682C92.9677 242.682 92.7397 242.661 92.5394 242.618C92.3391 242.58 92.2006 242.541 92.1239 242.503L92.5075 241.173C92.8739 241.267 93.1978 241.301 93.479 241.276C93.7603 241.25 94.0096 241.124 94.2269 240.898C94.4485 240.677 94.6509 240.317 94.8342 239.818L95.1154 239.051L91.4847 229.182H93.1211L95.8313 237.006H95.9336L98.6438 229.182H100.28L96.1126 240.432C95.9251 240.939 95.6928 241.359 95.4158 241.691C95.1388 242.028 94.8171 242.277 94.4506 242.439C94.0884 242.601 93.6793 242.682 93.2234 242.682ZM107.538 225.909H109.43L113.879 236.776H114.033L118.482 225.909H120.374V239H118.891V229.054H118.763L114.672 239H113.24L109.149 229.054H109.021V239H107.538V225.909ZM126.237 239.23C125.615 239.23 125.05 239.113 124.543 238.879C124.036 238.64 123.633 238.297 123.335 237.849C123.036 237.398 122.887 236.852 122.887 236.213C122.887 235.651 122.998 235.195 123.22 234.845C123.441 234.491 123.737 234.214 124.108 234.014C124.479 233.814 124.888 233.665 125.335 233.567C125.787 233.464 126.241 233.384 126.697 233.324C127.294 233.247 127.777 233.19 128.148 233.151C128.523 233.109 128.796 233.038 128.966 232.94C129.141 232.842 129.228 232.672 129.228 232.429V232.378C129.228 231.747 129.056 231.257 128.71 230.908C128.369 230.558 127.852 230.384 127.157 230.384C126.437 230.384 125.872 230.541 125.463 230.857C125.054 231.172 124.767 231.509 124.6 231.866L123.169 231.355C123.424 230.759 123.765 230.294 124.191 229.962C124.622 229.625 125.09 229.391 125.597 229.259C126.109 229.122 126.612 229.054 127.106 229.054C127.421 229.054 127.784 229.092 128.193 229.169C128.606 229.241 129.004 229.393 129.388 229.623C129.776 229.853 130.097 230.2 130.353 230.665C130.609 231.129 130.737 231.751 130.737 232.531V239H129.228V237.67H129.151C129.049 237.884 128.879 238.112 128.64 238.354C128.401 238.597 128.084 238.804 127.688 238.974C127.291 239.145 126.808 239.23 126.237 239.23ZM126.467 237.875C127.063 237.875 127.566 237.758 127.975 237.523C128.389 237.289 128.7 236.987 128.909 236.616C129.122 236.245 129.228 235.855 129.228 235.446V234.065C129.164 234.142 129.024 234.212 128.806 234.276C128.593 234.336 128.346 234.389 128.065 234.436C127.788 234.479 127.517 234.517 127.253 234.551C126.993 234.581 126.782 234.607 126.62 234.628C126.228 234.679 125.862 234.762 125.521 234.877C125.184 234.988 124.911 235.156 124.703 235.382C124.498 235.604 124.396 235.906 124.396 236.29C124.396 236.814 124.59 237.21 124.977 237.479C125.369 237.743 125.866 237.875 126.467 237.875ZM134.999 233.094V239H133.49V229.182H134.947V230.716H135.075C135.305 230.217 135.655 229.817 136.124 229.514C136.592 229.207 137.197 229.054 137.939 229.054C138.604 229.054 139.185 229.19 139.684 229.463C140.183 229.732 140.57 230.141 140.847 230.69C141.124 231.236 141.263 231.926 141.263 232.761V239H139.754V232.864C139.754 232.092 139.554 231.491 139.153 231.061C138.753 230.626 138.203 230.409 137.504 230.409C137.023 230.409 136.592 230.513 136.213 230.722C135.838 230.931 135.542 231.236 135.325 231.636C135.107 232.037 134.999 232.523 134.999 233.094ZM146.909 239.23C146.286 239.23 145.722 239.113 145.215 238.879C144.708 238.64 144.305 238.297 144.007 237.849C143.708 237.398 143.559 236.852 143.559 236.213C143.559 235.651 143.67 235.195 143.892 234.845C144.113 234.491 144.409 234.214 144.78 234.014C145.151 233.814 145.56 233.665 146.007 233.567C146.459 233.464 146.913 233.384 147.369 233.324C147.965 233.247 148.449 233.19 148.82 233.151C149.195 233.109 149.468 233.038 149.638 232.94C149.813 232.842 149.9 232.672 149.9 232.429V232.378C149.9 231.747 149.727 231.257 149.382 230.908C149.041 230.558 148.524 230.384 147.829 230.384C147.109 230.384 146.544 230.541 146.135 230.857C145.726 231.172 145.438 231.509 145.272 231.866L143.84 231.355C144.096 230.759 144.437 230.294 144.863 229.962C145.294 229.625 145.762 229.391 146.269 229.259C146.781 229.122 147.284 229.054 147.778 229.054C148.093 229.054 148.455 229.092 148.865 229.169C149.278 229.241 149.676 229.393 150.06 229.623C150.448 229.853 150.769 230.2 151.025 230.665C151.281 231.129 151.409 231.751 151.409 232.531V239H149.9V237.67H149.823C149.721 237.884 149.551 238.112 149.312 238.354C149.073 238.597 148.756 238.804 148.36 238.974C147.963 239.145 147.48 239.23 146.909 239.23ZM147.139 237.875C147.735 237.875 148.238 237.758 148.647 237.523C149.061 237.289 149.372 236.987 149.58 236.616C149.794 236.245 149.9 235.855 149.9 235.446V234.065C149.836 234.142 149.695 234.212 149.478 234.276C149.265 234.336 149.018 234.389 148.737 234.436C148.46 234.479 148.189 234.517 147.925 234.551C147.665 234.581 147.454 234.607 147.292 234.628C146.9 234.679 146.534 234.762 146.193 234.877C145.856 234.988 145.583 235.156 145.374 235.382C145.17 235.604 145.068 235.906 145.068 236.29C145.068 236.814 145.262 237.21 145.649 237.479C146.041 237.743 146.538 237.875 147.139 237.875ZM158.125 242.886C157.396 242.886 156.77 242.793 156.246 242.605C155.722 242.422 155.285 242.179 154.935 241.876C154.59 241.578 154.315 241.259 154.111 240.918L155.312 240.074C155.449 240.253 155.621 240.457 155.83 240.688C156.039 240.922 156.325 241.124 156.687 241.295C157.053 241.469 157.533 241.557 158.125 241.557C158.918 241.557 159.572 241.365 160.087 240.982C160.603 240.598 160.861 239.997 160.861 239.179V237.185H160.733C160.622 237.364 160.464 237.585 160.26 237.849C160.06 238.109 159.77 238.342 159.391 238.546C159.016 238.746 158.509 238.847 157.869 238.847C157.077 238.847 156.365 238.659 155.734 238.284C155.108 237.909 154.612 237.364 154.245 236.648C153.883 235.932 153.702 235.062 153.702 234.04C153.702 233.034 153.879 232.158 154.232 231.413C154.586 230.663 155.078 230.083 155.709 229.674C156.339 229.261 157.068 229.054 157.895 229.054C158.534 229.054 159.041 229.161 159.416 229.374C159.795 229.582 160.085 229.821 160.286 230.089C160.49 230.354 160.648 230.571 160.759 230.741H160.912V229.182H162.369V239.281C162.369 240.125 162.178 240.811 161.794 241.339C161.415 241.872 160.903 242.262 160.26 242.509C159.621 242.761 158.909 242.886 158.125 242.886ZM158.074 237.491C158.679 237.491 159.19 237.353 159.608 237.076C160.026 236.799 160.343 236.401 160.56 235.881C160.778 235.361 160.886 234.739 160.886 234.014C160.886 233.307 160.78 232.683 160.567 232.141C160.354 231.6 160.038 231.176 159.621 230.869C159.203 230.562 158.688 230.409 158.074 230.409C157.435 230.409 156.902 230.571 156.476 230.895C156.054 231.219 155.737 231.653 155.523 232.199C155.315 232.744 155.21 233.349 155.21 234.014C155.21 234.696 155.317 235.299 155.53 235.823C155.747 236.343 156.067 236.752 156.489 237.05C156.915 237.344 157.443 237.491 158.074 237.491ZM169.247 239.205C168.301 239.205 167.485 238.996 166.799 238.578C166.117 238.156 165.591 237.568 165.22 236.814C164.854 236.055 164.67 235.173 164.67 234.168C164.67 233.162 164.854 232.276 165.22 231.509C165.591 230.737 166.107 230.136 166.767 229.706C167.432 229.271 168.207 229.054 169.094 229.054C169.605 229.054 170.11 229.139 170.609 229.31C171.107 229.48 171.561 229.757 171.97 230.141C172.379 230.52 172.705 231.023 172.948 231.649C173.191 232.276 173.312 233.047 173.312 233.963V234.602H165.744V233.298H171.778C171.778 232.744 171.668 232.25 171.446 231.815C171.229 231.381 170.918 231.038 170.513 230.786C170.112 230.535 169.639 230.409 169.094 230.409C168.493 230.409 167.973 230.558 167.534 230.857C167.099 231.151 166.765 231.534 166.531 232.007C166.296 232.48 166.179 232.987 166.179 233.528V234.398C166.179 235.139 166.307 235.768 166.562 236.283C166.822 236.795 167.183 237.185 167.643 237.453C168.103 237.717 168.638 237.849 169.247 237.849C169.643 237.849 170.001 237.794 170.321 237.683C170.645 237.568 170.924 237.398 171.158 237.172C171.393 236.942 171.574 236.656 171.702 236.315L173.159 236.724C173.006 237.219 172.748 237.653 172.386 238.028C172.023 238.399 171.576 238.689 171.043 238.898C170.511 239.102 169.912 239.205 169.247 239.205ZM175.607 239V229.182H177.065V230.716H177.192C177.397 230.192 177.727 229.785 178.183 229.495C178.639 229.201 179.187 229.054 179.826 229.054C180.474 229.054 181.013 229.201 181.443 229.495C181.878 229.785 182.217 230.192 182.46 230.716H182.562C182.813 230.209 183.19 229.806 183.693 229.508C184.196 229.205 184.799 229.054 185.502 229.054C186.38 229.054 187.098 229.329 187.656 229.879C188.214 230.424 188.494 231.274 188.494 232.429V239H186.985V232.429C186.985 231.705 186.787 231.187 186.391 230.876C185.994 230.565 185.528 230.409 184.991 230.409C184.3 230.409 183.766 230.618 183.386 231.036C183.007 231.449 182.817 231.973 182.817 232.608V239H181.283V232.276C181.283 231.717 181.102 231.268 180.74 230.927C180.378 230.582 179.911 230.409 179.34 230.409C178.948 230.409 178.582 230.513 178.241 230.722C177.904 230.931 177.631 231.221 177.423 231.592C177.218 231.958 177.116 232.382 177.116 232.864V239H175.607ZM195.368 239.205C194.422 239.205 193.606 238.996 192.92 238.578C192.238 238.156 191.712 237.568 191.341 236.814C190.975 236.055 190.792 235.173 190.792 234.168C190.792 233.162 190.975 232.276 191.341 231.509C191.712 230.737 192.228 230.136 192.888 229.706C193.553 229.271 194.328 229.054 195.215 229.054C195.726 229.054 196.231 229.139 196.73 229.31C197.228 229.48 197.682 229.757 198.091 230.141C198.5 230.52 198.826 231.023 199.069 231.649C199.312 232.276 199.434 233.047 199.434 233.963V234.602H191.865V233.298H197.9C197.9 232.744 197.789 232.25 197.567 231.815C197.35 231.381 197.039 231.038 196.634 230.786C196.233 230.535 195.76 230.409 195.215 230.409C194.614 230.409 194.094 230.558 193.655 230.857C193.221 231.151 192.886 231.534 192.652 232.007C192.417 232.48 192.3 232.987 192.3 233.528V234.398C192.3 235.139 192.428 235.768 192.684 236.283C192.944 236.795 193.304 237.185 193.764 237.453C194.224 237.717 194.759 237.849 195.368 237.849C195.765 237.849 196.123 237.794 196.442 237.683C196.766 237.568 197.045 237.398 197.279 237.172C197.514 236.942 197.695 236.656 197.823 236.315L199.28 236.724C199.127 237.219 198.869 237.653 198.507 238.028C198.145 238.399 197.697 238.689 197.164 238.898C196.632 239.102 196.033 239.205 195.368 239.205ZM203.237 233.094V239H201.728V229.182H203.186V230.716H203.314C203.544 230.217 203.893 229.817 204.362 229.514C204.831 229.207 205.436 229.054 206.177 229.054C206.842 229.054 207.424 229.19 207.922 229.463C208.421 229.732 208.809 230.141 209.086 230.69C209.363 231.236 209.501 231.926 209.501 232.761V239H207.993V232.864C207.993 232.092 207.792 231.491 207.392 231.061C206.991 230.626 206.441 230.409 205.743 230.409C205.261 230.409 204.831 230.513 204.451 230.722C204.076 230.931 203.78 231.236 203.563 231.636C203.346 232.037 203.237 232.523 203.237 233.094ZM216.528 229.182V230.46H211.439V229.182H216.528ZM212.922 226.83H214.431V236.188C214.431 236.614 214.493 236.933 214.616 237.146C214.744 237.355 214.906 237.496 215.102 237.568C215.302 237.636 215.513 237.67 215.735 237.67C215.901 237.67 216.037 237.662 216.144 237.645C216.251 237.624 216.336 237.607 216.4 237.594L216.706 238.949C216.604 238.987 216.461 239.026 216.278 239.064C216.095 239.107 215.863 239.128 215.581 239.128C215.155 239.128 214.738 239.036 214.329 238.853C213.924 238.67 213.587 238.391 213.319 238.016C213.055 237.641 212.922 237.168 212.922 236.597V226.83Z" fill="black"/>
<rect x="21" y="268" width="206" height="52" rx="12" fill="#B7A054"/>
<path d="M59.1193 292H57.5341C57.4403 291.544 57.2763 291.143 57.0419 290.798C56.8118 290.453 56.5305 290.163 56.1982 289.929C55.87 289.69 55.5057 289.511 55.1051 289.392C54.7045 289.273 54.2869 289.213 53.8523 289.213C53.0597 289.213 52.3416 289.413 51.6982 289.814C51.0589 290.214 50.5497 290.805 50.1705 291.585C49.7955 292.364 49.608 293.321 49.608 294.455C49.608 295.588 49.7955 296.545 50.1705 297.325C50.5497 298.104 51.0589 298.695 51.6982 299.095C52.3416 299.496 53.0597 299.696 53.8523 299.696C54.2869 299.696 54.7045 299.636 55.1051 299.517C55.5057 299.398 55.87 299.221 56.1982 298.987C56.5305 298.748 56.8118 298.456 57.0419 298.111C57.2763 297.761 57.4403 297.361 57.5341 296.909H59.1193C59 297.578 58.7827 298.177 58.4673 298.705C58.152 299.234 57.7599 299.683 57.2912 300.054C56.8224 300.42 56.2962 300.7 55.7124 300.891C55.1328 301.083 54.5128 301.179 53.8523 301.179C52.7358 301.179 51.7429 300.906 50.8736 300.361C50.0043 299.815 49.3203 299.04 48.8217 298.034C48.3232 297.028 48.0739 295.835 48.0739 294.455C48.0739 293.074 48.3232 291.881 48.8217 290.875C49.3203 289.869 50.0043 289.094 50.8736 288.548C51.7429 288.003 52.7358 287.73 53.8523 287.73C54.5128 287.73 55.1328 287.826 55.7124 288.018C56.2962 288.21 56.8224 288.491 57.2912 288.862C57.7599 289.228 58.152 289.675 58.4673 290.204C58.7827 290.728 59 291.327 59.1193 292ZM61.6809 301V287.909H66.1042C67.1312 287.909 67.9707 288.094 68.6227 288.465C69.2789 288.832 69.7647 289.328 70.0801 289.955C70.3954 290.581 70.5531 291.28 70.5531 292.051C70.5531 292.822 70.3954 293.523 70.0801 294.154C69.769 294.785 69.2875 295.288 68.6355 295.663C67.9835 296.033 67.1483 296.219 66.1298 296.219H62.9593V294.812H66.0787C66.7818 294.812 67.3464 294.691 67.7726 294.448C68.1987 294.205 68.5076 293.877 68.6994 293.464C68.8954 293.046 68.9934 292.575 68.9934 292.051C68.9934 291.527 68.8954 291.058 68.6994 290.645C68.5076 290.232 68.1966 289.908 67.7662 289.673C67.3358 289.435 66.7647 289.315 66.0531 289.315H63.2662V301H61.6809ZM81.6976 287.909H83.2828V296.577C83.2828 297.472 83.0719 298.271 82.65 298.974C82.2324 299.673 81.6422 300.224 80.8794 300.629C80.1167 301.03 79.2218 301.23 78.1948 301.23C77.1678 301.23 76.2729 301.03 75.5101 300.629C74.7473 300.224 74.155 299.673 73.7331 298.974C73.3155 298.271 73.1067 297.472 73.1067 296.577V287.909H74.6919V296.449C74.6919 297.088 74.8326 297.657 75.1138 298.156C75.3951 298.65 75.7956 299.04 76.3155 299.325C76.8397 299.607 77.4661 299.747 78.1948 299.747C78.9235 299.747 79.5499 299.607 80.074 299.325C80.5982 299.04 80.9988 298.65 81.2757 298.156C81.557 297.657 81.6976 297.088 81.6976 296.449V287.909ZM91.511 287.909H93.4031L97.8519 298.776H98.0053L102.454 287.909H104.346V301H102.863V291.054H102.735L98.6445 301H97.2127L93.1218 291.054H92.994V301H91.511V287.909ZM110.209 301.23C109.587 301.23 109.023 301.113 108.515 300.879C108.008 300.64 107.606 300.297 107.307 299.849C107.009 299.398 106.86 298.852 106.86 298.213C106.86 297.651 106.971 297.195 107.192 296.845C107.414 296.491 107.71 296.214 108.081 296.014C108.452 295.814 108.861 295.665 109.308 295.567C109.76 295.464 110.214 295.384 110.67 295.324C111.266 295.247 111.75 295.19 112.121 295.151C112.496 295.109 112.768 295.038 112.939 294.94C113.113 294.842 113.201 294.672 113.201 294.429V294.378C113.201 293.747 113.028 293.257 112.683 292.908C112.342 292.558 111.824 292.384 111.13 292.384C110.41 292.384 109.845 292.541 109.436 292.857C109.027 293.172 108.739 293.509 108.573 293.866L107.141 293.355C107.397 292.759 107.738 292.294 108.164 291.962C108.594 291.625 109.063 291.391 109.57 291.259C110.081 291.122 110.584 291.054 111.079 291.054C111.394 291.054 111.756 291.092 112.165 291.169C112.579 291.241 112.977 291.393 113.361 291.623C113.748 291.853 114.07 292.2 114.326 292.665C114.581 293.129 114.709 293.751 114.709 294.531V301H113.201V299.67H113.124C113.022 299.884 112.851 300.112 112.613 300.354C112.374 300.597 112.057 300.804 111.66 300.974C111.264 301.145 110.78 301.23 110.209 301.23ZM110.439 299.875C111.036 299.875 111.539 299.758 111.948 299.523C112.361 299.289 112.672 298.987 112.881 298.616C113.094 298.245 113.201 297.855 113.201 297.446V296.065C113.137 296.142 112.996 296.212 112.779 296.276C112.566 296.336 112.319 296.389 112.037 296.436C111.76 296.479 111.49 296.517 111.226 296.551C110.966 296.581 110.755 296.607 110.593 296.628C110.201 296.679 109.834 296.762 109.493 296.877C109.157 296.988 108.884 297.156 108.675 297.382C108.471 297.604 108.368 297.906 108.368 298.29C108.368 298.814 108.562 299.21 108.95 299.479C109.342 299.743 109.839 299.875 110.439 299.875ZM118.971 295.094V301H117.463V291.182H118.92V292.716H119.048C119.278 292.217 119.627 291.817 120.096 291.514C120.565 291.207 121.17 291.054 121.912 291.054C122.576 291.054 123.158 291.19 123.657 291.463C124.155 291.732 124.543 292.141 124.82 292.69C125.097 293.236 125.235 293.926 125.235 294.761V301H123.727V294.864C123.727 294.092 123.527 293.491 123.126 293.061C122.725 292.626 122.176 292.409 121.477 292.409C120.995 292.409 120.565 292.513 120.186 292.722C119.811 292.931 119.515 293.236 119.297 293.636C119.08 294.037 118.971 294.523 118.971 295.094ZM130.881 301.23C130.259 301.23 129.694 301.113 129.187 300.879C128.68 300.64 128.278 300.297 127.979 299.849C127.681 299.398 127.532 298.852 127.532 298.213C127.532 297.651 127.643 297.195 127.864 296.845C128.086 296.491 128.382 296.214 128.753 296.014C129.123 295.814 129.532 295.665 129.98 295.567C130.432 295.464 130.885 295.384 131.341 295.324C131.938 295.247 132.422 295.19 132.792 295.151C133.167 295.109 133.44 295.038 133.611 294.94C133.785 294.842 133.873 294.672 133.873 294.429V294.378C133.873 293.747 133.7 293.257 133.355 292.908C133.014 292.558 132.496 292.384 131.802 292.384C131.081 292.384 130.517 292.541 130.108 292.857C129.699 293.172 129.411 293.509 129.245 293.866L127.813 293.355C128.069 292.759 128.41 292.294 128.836 291.962C129.266 291.625 129.735 291.391 130.242 291.259C130.753 291.122 131.256 291.054 131.751 291.054C132.066 291.054 132.428 291.092 132.837 291.169C133.251 291.241 133.649 291.393 134.032 291.623C134.42 291.853 134.742 292.2 134.998 292.665C135.253 293.129 135.381 293.751 135.381 294.531V301H133.873V299.67H133.796C133.694 299.884 133.523 300.112 133.285 300.354C133.046 300.597 132.729 300.804 132.332 300.974C131.936 301.145 131.452 301.23 130.881 301.23ZM131.111 299.875C131.708 299.875 132.211 299.758 132.62 299.523C133.033 299.289 133.344 298.987 133.553 298.616C133.766 298.245 133.873 297.855 133.873 297.446V296.065C133.809 296.142 133.668 296.212 133.451 296.276C133.238 296.336 132.991 296.389 132.709 296.436C132.432 296.479 132.162 296.517 131.898 296.551C131.638 296.581 131.427 296.607 131.265 296.628C130.873 296.679 130.506 296.762 130.165 296.877C129.829 296.988 129.556 297.156 129.347 297.382C129.143 297.604 129.04 297.906 129.04 298.29C129.04 298.814 129.234 299.21 129.622 299.479C130.014 299.743 130.51 299.875 131.111 299.875ZM142.098 304.886C141.369 304.886 140.743 304.793 140.218 304.605C139.694 304.422 139.257 304.179 138.908 303.876C138.563 303.578 138.288 303.259 138.083 302.918L139.285 302.074C139.422 302.253 139.594 302.457 139.803 302.688C140.012 302.922 140.297 303.124 140.659 303.295C141.026 303.469 141.505 303.557 142.098 303.557C142.89 303.557 143.544 303.365 144.06 302.982C144.576 302.598 144.833 301.997 144.833 301.179V299.185H144.706C144.595 299.364 144.437 299.585 144.233 299.849C144.032 300.109 143.743 300.342 143.363 300.546C142.988 300.746 142.481 300.847 141.842 300.847C141.049 300.847 140.338 300.659 139.707 300.284C139.081 299.909 138.584 299.364 138.218 298.648C137.855 297.932 137.674 297.062 137.674 296.04C137.674 295.034 137.851 294.158 138.205 293.413C138.559 292.663 139.051 292.083 139.681 291.674C140.312 291.261 141.041 291.054 141.868 291.054C142.507 291.054 143.014 291.161 143.389 291.374C143.768 291.582 144.058 291.821 144.258 292.089C144.463 292.354 144.62 292.571 144.731 292.741H144.885V291.182H146.342V301.281C146.342 302.125 146.15 302.811 145.767 303.339C145.387 303.872 144.876 304.262 144.233 304.509C143.593 304.761 142.882 304.886 142.098 304.886ZM142.047 299.491C142.652 299.491 143.163 299.353 143.581 299.076C143.998 298.799 144.316 298.401 144.533 297.881C144.75 297.361 144.859 296.739 144.859 296.014C144.859 295.307 144.752 294.683 144.539 294.141C144.326 293.6 144.011 293.176 143.593 292.869C143.176 292.562 142.66 292.409 142.047 292.409C141.407 292.409 140.875 292.571 140.449 292.895C140.027 293.219 139.709 293.653 139.496 294.199C139.287 294.744 139.183 295.349 139.183 296.014C139.183 296.696 139.289 297.299 139.502 297.823C139.72 298.343 140.039 298.752 140.461 299.05C140.887 299.344 141.416 299.491 142.047 299.491ZM153.22 301.205C152.274 301.205 151.458 300.996 150.772 300.578C150.09 300.156 149.564 299.568 149.193 298.814C148.826 298.055 148.643 297.173 148.643 296.168C148.643 295.162 148.826 294.276 149.193 293.509C149.564 292.737 150.079 292.136 150.74 291.706C151.404 291.271 152.18 291.054 153.066 291.054C153.578 291.054 154.083 291.139 154.581 291.31C155.08 291.48 155.534 291.757 155.943 292.141C156.352 292.52 156.678 293.023 156.921 293.649C157.164 294.276 157.285 295.047 157.285 295.963V296.602H149.717V295.298H155.751C155.751 294.744 155.64 294.25 155.419 293.815C155.201 293.381 154.89 293.038 154.485 292.786C154.085 292.535 153.612 292.409 153.066 292.409C152.466 292.409 151.946 292.558 151.507 292.857C151.072 293.151 150.738 293.534 150.503 294.007C150.269 294.48 150.152 294.987 150.152 295.528V296.398C150.152 297.139 150.279 297.768 150.535 298.283C150.795 298.795 151.155 299.185 151.615 299.453C152.076 299.717 152.61 299.849 153.22 299.849C153.616 299.849 153.974 299.794 154.294 299.683C154.618 299.568 154.897 299.398 155.131 299.172C155.365 298.942 155.547 298.656 155.674 298.315L157.132 298.724C156.978 299.219 156.721 299.653 156.358 300.028C155.996 300.399 155.549 300.689 155.016 300.898C154.483 301.102 153.885 301.205 153.22 301.205ZM159.58 301V291.182H161.037V292.716H161.165C161.37 292.192 161.7 291.785 162.156 291.495C162.612 291.201 163.159 291.054 163.799 291.054C164.446 291.054 164.985 291.201 165.416 291.495C165.85 291.785 166.189 292.192 166.432 292.716H166.534C166.786 292.209 167.163 291.806 167.666 291.508C168.169 291.205 168.772 291.054 169.475 291.054C170.353 291.054 171.071 291.329 171.629 291.879C172.187 292.424 172.466 293.274 172.466 294.429V301H170.958V294.429C170.958 293.705 170.76 293.187 170.363 292.876C169.967 292.565 169.5 292.409 168.963 292.409C168.273 292.409 167.738 292.618 167.359 293.036C166.98 293.449 166.79 293.973 166.79 294.608V301H165.256V294.276C165.256 293.717 165.075 293.268 164.713 292.927C164.35 292.582 163.884 292.409 163.313 292.409C162.921 292.409 162.554 292.513 162.213 292.722C161.877 292.931 161.604 293.221 161.395 293.592C161.191 293.958 161.088 294.382 161.088 294.864V301H159.58ZM179.341 301.205C178.395 301.205 177.579 300.996 176.893 300.578C176.211 300.156 175.685 299.568 175.314 298.814C174.947 298.055 174.764 297.173 174.764 296.168C174.764 295.162 174.947 294.276 175.314 293.509C175.685 292.737 176.2 292.136 176.861 291.706C177.526 291.271 178.301 291.054 179.188 291.054C179.699 291.054 180.204 291.139 180.702 291.31C181.201 291.48 181.655 291.757 182.064 292.141C182.473 292.52 182.799 293.023 183.042 293.649C183.285 294.276 183.406 295.047 183.406 295.963V296.602H175.838V295.298H181.872C181.872 294.744 181.761 294.25 181.54 293.815C181.322 293.381 181.011 293.038 180.607 292.786C180.206 292.535 179.733 292.409 179.188 292.409C178.587 292.409 178.067 292.558 177.628 292.857C177.193 293.151 176.859 293.534 176.624 294.007C176.39 294.48 176.273 294.987 176.273 295.528V296.398C176.273 297.139 176.401 297.768 176.656 298.283C176.916 298.795 177.276 299.185 177.737 299.453C178.197 299.717 178.732 299.849 179.341 299.849C179.737 299.849 180.095 299.794 180.415 299.683C180.739 299.568 181.018 299.398 181.252 299.172C181.487 298.942 181.668 298.656 181.795 298.315L183.253 298.724C183.099 299.219 182.842 299.653 182.479 300.028C182.117 300.399 181.67 300.689 181.137 300.898C180.604 301.102 180.006 301.205 179.341 301.205ZM187.21 295.094V301H185.701V291.182H187.158V292.716H187.286C187.516 292.217 187.866 291.817 188.335 291.514C188.803 291.207 189.408 291.054 190.15 291.054C190.815 291.054 191.396 291.19 191.895 291.463C192.393 291.732 192.781 292.141 193.058 292.69C193.335 293.236 193.474 293.926 193.474 294.761V301H191.965V294.864C191.965 294.092 191.765 293.491 191.364 293.061C190.964 292.626 190.414 292.409 189.715 292.409C189.234 292.409 188.803 292.513 188.424 292.722C188.049 292.931 187.753 293.236 187.536 293.636C187.318 294.037 187.21 294.523 187.21 295.094ZM200.5 291.182V292.46H195.412V291.182H200.5ZM196.895 288.83H198.404V298.188C198.404 298.614 198.465 298.933 198.589 299.146C198.717 299.355 198.879 299.496 199.075 299.568C199.275 299.636 199.486 299.67 199.708 299.67C199.874 299.67 200.01 299.662 200.117 299.645C200.223 299.624 200.308 299.607 200.372 299.594L200.679 300.949C200.577 300.987 200.434 301.026 200.251 301.064C200.068 301.107 199.835 301.128 199.554 301.128C199.128 301.128 198.71 301.036 198.301 300.853C197.896 300.67 197.56 300.391 197.291 300.016C197.027 299.641 196.895 299.168 196.895 298.597V288.83Z" fill="black"/>
<rect x="21" y="330" width="206" height="52" rx="12" fill="#5B6B89"/>
<path d="M82.5852 362V348.909H84.1705V354.739H91.1506V348.909H92.7358V362H91.1506V356.145H84.1705V362H82.5852ZM98.5941 362.23C97.9719 362.23 97.4073 362.113 96.9002 361.879C96.3931 361.64 95.9904 361.297 95.6921 360.849C95.3938 360.398 95.2447 359.852 95.2447 359.213C95.2447 358.651 95.3555 358.195 95.5771 357.845C95.7987 357.491 96.0948 357.214 96.4656 357.014C96.8363 356.814 97.2454 356.665 97.6928 356.567C98.1445 356.464 98.5984 356.384 99.0543 356.324C99.6509 356.247 100.135 356.19 100.505 356.151C100.88 356.109 101.153 356.038 101.324 355.94C101.498 355.842 101.586 355.672 101.586 355.429V355.378C101.586 354.747 101.413 354.257 101.068 353.908C100.727 353.558 100.209 353.384 99.5146 353.384C98.7944 353.384 98.2298 353.541 97.8207 353.857C97.4116 354.172 97.1239 354.509 96.9577 354.866L95.5259 354.355C95.7816 353.759 96.1225 353.294 96.5487 352.962C96.979 352.625 97.4478 352.391 97.9549 352.259C98.4663 352.122 98.9691 352.054 99.4634 352.054C99.7788 352.054 100.141 352.092 100.55 352.169C100.963 352.241 101.362 352.393 101.745 352.623C102.133 352.853 102.455 353.2 102.711 353.665C102.966 354.129 103.094 354.751 103.094 355.531V362H101.586V360.67H101.509C101.407 360.884 101.236 361.112 100.998 361.354C100.759 361.597 100.441 361.804 100.045 361.974C99.6488 362.145 99.1651 362.23 98.5941 362.23ZM98.8242 360.875C99.4208 360.875 99.9237 360.758 100.333 360.523C100.746 360.289 101.057 359.987 101.266 359.616C101.479 359.245 101.586 358.855 101.586 358.446V357.065C101.522 357.142 101.381 357.212 101.164 357.276C100.951 357.336 100.703 357.389 100.422 357.436C100.145 357.479 99.8746 357.517 99.6104 357.551C99.3505 357.581 99.1396 357.607 98.9776 357.628C98.5856 357.679 98.2191 357.762 97.8782 357.877C97.5415 357.988 97.2688 358.156 97.06 358.382C96.8555 358.604 96.7532 358.906 96.7532 359.29C96.7532 359.814 96.9471 360.21 97.3349 360.479C97.7269 360.743 98.2234 360.875 98.8242 360.875ZM105.847 362V352.182H107.305V353.665H107.407C107.586 353.179 107.91 352.785 108.379 352.482C108.847 352.18 109.376 352.028 109.964 352.028C110.075 352.028 110.213 352.031 110.379 352.035C110.546 352.039 110.671 352.045 110.757 352.054V353.588C110.705 353.575 110.588 353.556 110.405 353.531C110.226 353.501 110.036 353.486 109.836 353.486C109.359 353.486 108.933 353.586 108.558 353.786C108.187 353.982 107.893 354.255 107.676 354.604C107.463 354.95 107.356 355.344 107.356 355.787V362H105.847ZM115.953 362.205C115.135 362.205 114.413 361.998 113.786 361.585C113.16 361.167 112.67 360.579 112.316 359.82C111.963 359.058 111.786 358.156 111.786 357.116C111.786 356.085 111.963 355.19 112.316 354.432C112.67 353.673 113.162 353.087 113.793 352.674C114.423 352.261 115.152 352.054 115.979 352.054C116.618 352.054 117.123 352.161 117.494 352.374C117.869 352.582 118.154 352.821 118.35 353.089C118.551 353.354 118.706 353.571 118.817 353.741H118.945V348.909H120.453V362H118.996V360.491H118.817C118.706 360.67 118.548 360.896 118.344 361.169C118.139 361.437 117.847 361.678 117.468 361.891C117.089 362.1 116.584 362.205 115.953 362.205ZM116.158 360.849C116.763 360.849 117.274 360.692 117.692 360.376C118.11 360.057 118.427 359.616 118.644 359.053C118.862 358.487 118.97 357.832 118.97 357.091C118.97 356.358 118.864 355.717 118.651 355.167C118.438 354.613 118.122 354.183 117.705 353.876C117.287 353.565 116.771 353.409 116.158 353.409C115.519 353.409 114.986 353.573 114.56 353.901C114.138 354.225 113.82 354.666 113.607 355.224C113.399 355.778 113.294 356.401 113.294 357.091C113.294 357.79 113.401 358.425 113.614 358.996C113.831 359.562 114.151 360.014 114.573 360.351C114.999 360.683 115.527 360.849 116.158 360.849ZM125.65 362L122.659 352.182H124.244L126.366 359.699H126.468L128.565 352.182H130.176L132.247 359.673H132.349L134.471 352.182H136.056L133.065 362H131.582L129.434 354.457H129.281L127.133 362H125.65ZM140.94 362.23C140.318 362.23 139.753 362.113 139.246 361.879C138.739 361.64 138.336 361.297 138.038 360.849C137.74 360.398 137.59 359.852 137.59 359.213C137.59 358.651 137.701 358.195 137.923 357.845C138.144 357.491 138.441 357.214 138.811 357.014C139.182 356.814 139.591 356.665 140.039 356.567C140.49 356.464 140.944 356.384 141.4 356.324C141.997 356.247 142.48 356.19 142.851 356.151C143.226 356.109 143.499 356.038 143.669 355.94C143.844 355.842 143.931 355.672 143.931 355.429V355.378C143.931 354.747 143.759 354.257 143.414 353.908C143.073 353.558 142.555 353.384 141.86 353.384C141.14 353.384 140.575 353.541 140.166 353.857C139.757 354.172 139.47 354.509 139.303 354.866L137.872 354.355C138.127 353.759 138.468 353.294 138.894 352.962C139.325 352.625 139.794 352.391 140.301 352.259C140.812 352.122 141.315 352.054 141.809 352.054C142.124 352.054 142.487 352.092 142.896 352.169C143.309 352.241 143.708 352.393 144.091 352.623C144.479 352.853 144.801 353.2 145.056 353.665C145.312 354.129 145.44 354.751 145.44 355.531V362H143.931V360.67H143.855C143.752 360.884 143.582 361.112 143.343 361.354C143.105 361.597 142.787 361.804 142.391 361.974C141.994 362.145 141.511 362.23 140.94 362.23ZM141.17 360.875C141.767 360.875 142.269 360.758 142.678 360.523C143.092 360.289 143.403 359.987 143.612 359.616C143.825 359.245 143.931 358.855 143.931 358.446V357.065C143.867 357.142 143.727 357.212 143.509 357.276C143.296 357.336 143.049 357.389 142.768 357.436C142.491 357.479 142.22 357.517 141.956 357.551C141.696 357.581 141.485 357.607 141.323 357.628C140.931 357.679 140.565 357.762 140.224 357.877C139.887 357.988 139.615 358.156 139.406 358.382C139.201 358.604 139.099 358.906 139.099 359.29C139.099 359.814 139.293 360.21 139.681 360.479C140.073 360.743 140.569 360.875 141.17 360.875ZM148.193 362V352.182H149.651V353.665H149.753C149.932 353.179 150.256 352.785 150.724 352.482C151.193 352.18 151.722 352.028 152.31 352.028C152.42 352.028 152.559 352.031 152.725 352.035C152.891 352.039 153.017 352.045 153.102 352.054V353.588C153.051 353.575 152.934 353.556 152.751 353.531C152.572 353.501 152.382 353.486 152.182 353.486C151.705 353.486 151.278 353.586 150.903 353.786C150.533 353.982 150.239 354.255 150.021 354.604C149.808 354.95 149.702 355.344 149.702 355.787V362H148.193ZM158.708 362.205C157.762 362.205 156.946 361.996 156.26 361.578C155.578 361.156 155.052 360.568 154.681 359.814C154.315 359.055 154.131 358.173 154.131 357.168C154.131 356.162 154.315 355.276 154.681 354.509C155.052 353.737 155.567 353.136 156.228 352.706C156.893 352.271 157.668 352.054 158.555 352.054C159.066 352.054 159.571 352.139 160.07 352.31C160.568 352.48 161.022 352.757 161.431 353.141C161.84 353.52 162.166 354.023 162.409 354.649C162.652 355.276 162.773 356.047 162.773 356.963V357.602H155.205V356.298H161.239C161.239 355.744 161.129 355.25 160.907 354.815C160.69 354.381 160.379 354.038 159.974 353.786C159.573 353.535 159.1 353.409 158.555 353.409C157.954 353.409 157.434 353.558 156.995 353.857C156.56 354.151 156.226 354.534 155.991 355.007C155.757 355.48 155.64 355.987 155.64 356.528V357.398C155.64 358.139 155.768 358.768 156.023 359.283C156.283 359.795 156.643 360.185 157.104 360.453C157.564 360.717 158.099 360.849 158.708 360.849C159.104 360.849 159.462 360.794 159.782 360.683C160.106 360.568 160.385 360.398 160.619 360.172C160.854 359.942 161.035 359.656 161.163 359.315L162.62 359.724C162.467 360.219 162.209 360.653 161.847 361.028C161.484 361.399 161.037 361.689 160.504 361.898C159.972 362.102 159.373 362.205 158.708 362.205Z" fill="black"/>
<path d="M258 29L267.5 38H258H248L258 29Z" fill="black"/>
<path d="M258 374V29M258 29L267.5 38H248L258 29Z" stroke="black"/>
</svg>
