<svg width="968" height="624" viewBox="0 0 968 624" fill="none" xmlns="http://www.w3.org/2000/svg">
<rect x="400" width="224" height="176" rx="70.4" fill="#BDE3FF"/>
<path d="M447.482 81.5511C447.331 80.2064 446.706 79.1648 445.607 78.4261C444.509 77.678 443.126 77.304 441.46 77.304C440.266 77.304 439.234 77.4934 438.363 77.8722C437.492 78.2415 436.815 78.7528 436.332 79.4062C435.858 80.0502 435.622 80.7841 435.622 81.608C435.622 82.2992 435.783 82.8958 436.105 83.3977C436.436 83.8996 436.867 84.321 437.397 84.6619C437.937 84.9934 438.515 85.2727 439.13 85.5C439.746 85.7178 440.337 85.8977 440.906 86.0398L443.747 86.7784C444.675 87.0057 445.626 87.3134 446.602 87.7017C447.577 88.09 448.481 88.6013 449.315 89.2358C450.148 89.8703 450.82 90.6562 451.332 91.5938C451.853 92.5312 452.113 93.6534 452.113 94.9602C452.113 96.608 451.687 98.071 450.835 99.3494C449.992 100.628 448.765 101.636 447.156 102.375C445.555 103.114 443.619 103.483 441.346 103.483C439.168 103.483 437.283 103.137 435.693 102.446C434.102 101.755 432.856 100.775 431.957 99.5057C431.057 98.2273 430.56 96.7121 430.465 94.9602H434.869C434.954 96.0114 435.295 96.8873 435.891 97.5881C436.497 98.2794 437.269 98.7955 438.207 99.1364C439.154 99.4678 440.191 99.6335 441.318 99.6335C442.558 99.6335 443.661 99.4394 444.627 99.0511C445.603 98.6534 446.37 98.1042 446.928 97.4034C447.487 96.6932 447.766 95.8646 447.766 94.9176C447.766 94.0559 447.52 93.3504 447.028 92.8011C446.545 92.2519 445.887 91.7973 445.053 91.4375C444.23 91.0777 443.297 90.7604 442.255 90.4858L438.818 89.5483C436.488 88.9138 434.641 87.9811 433.278 86.75C431.924 85.5189 431.247 83.8902 431.247 81.8636C431.247 80.1875 431.701 78.7244 432.61 77.4744C433.519 76.2244 434.75 75.2538 436.303 74.5625C437.856 73.8617 439.608 73.5114 441.559 73.5114C443.529 73.5114 445.266 73.857 446.772 74.5483C448.287 75.2396 449.48 76.1913 450.352 77.4034C451.223 78.6061 451.677 79.9886 451.715 81.5511H447.482ZM465.327 103.44C463.282 103.44 461.497 102.972 459.972 102.034C458.448 101.097 457.264 99.785 456.421 98.0994C455.578 96.4138 455.157 94.4441 455.157 92.1903C455.157 89.9271 455.578 87.9479 456.421 86.2528C457.264 84.5578 458.448 83.2415 459.972 82.304C461.497 81.3665 463.282 80.8977 465.327 80.8977C467.373 80.8977 469.158 81.3665 470.683 82.304C472.207 83.2415 473.391 84.5578 474.234 86.2528C475.077 87.9479 475.498 89.9271 475.498 92.1903C475.498 94.4441 475.077 96.4138 474.234 98.0994C473.391 99.785 472.207 101.097 470.683 102.034C469.158 102.972 467.373 103.44 465.327 103.44ZM465.342 99.875C466.667 99.875 467.766 99.5246 468.637 98.8239C469.508 98.1231 470.152 97.1903 470.569 96.0256C470.995 94.8608 471.208 93.5777 471.208 92.1761C471.208 90.7841 470.995 89.5057 470.569 88.3409C470.152 87.1667 469.508 86.2244 468.637 85.5142C467.766 84.804 466.667 84.4489 465.342 84.4489C464.006 84.4489 462.899 84.804 462.018 85.5142C461.147 86.2244 460.498 87.1667 460.072 88.3409C459.655 89.5057 459.447 90.7841 459.447 92.1761C459.447 93.5777 459.655 94.8608 460.072 96.0256C460.498 97.1903 461.147 98.1231 462.018 98.8239C462.899 99.5246 464.006 99.875 465.342 99.875ZM489.742 81.1818V84.5909H477.413V81.1818H489.742ZM480.793 103V78.6534C480.793 77.2898 481.092 76.1581 481.688 75.2585C482.285 74.3494 483.076 73.6723 484.06 73.2273C485.045 72.7727 486.115 72.5455 487.271 72.5455C488.123 72.5455 488.852 72.6165 489.458 72.7585C490.064 72.8911 490.514 73.0142 490.808 73.1278L489.813 76.5653C489.614 76.5085 489.359 76.4422 489.046 76.3665C488.734 76.2812 488.355 76.2386 487.91 76.2386C486.878 76.2386 486.139 76.4943 485.694 77.0057C485.258 77.517 485.041 78.2557 485.041 79.2216V103H480.793ZM503.429 81.1818V84.5909H491.511V81.1818H503.429ZM494.707 75.9545H498.955V96.5938C498.955 97.4176 499.078 98.0379 499.324 98.4545C499.57 98.8617 499.887 99.1411 500.276 99.2926C500.673 99.4347 501.104 99.5057 501.568 99.5057C501.909 99.5057 502.207 99.482 502.463 99.4347C502.719 99.3873 502.918 99.3494 503.06 99.321L503.827 102.83C503.581 102.924 503.23 103.019 502.776 103.114C502.321 103.218 501.753 103.275 501.071 103.284C499.954 103.303 498.912 103.104 497.946 102.688C496.98 102.271 496.199 101.627 495.602 100.756C495.006 99.8845 494.707 98.7907 494.707 97.4744V75.9545ZM511.977 103L505.557 81.1818H509.946L514.222 97.2045H514.435L518.724 81.1818H523.114L527.375 97.1335H527.588L531.835 81.1818H536.224L529.818 103H525.486L521.054 87.2472H520.727L516.295 103H511.977ZM545.724 103.483C544.342 103.483 543.092 103.227 541.974 102.716C540.857 102.195 539.972 101.442 539.318 100.457C538.674 99.4725 538.352 98.2652 538.352 96.8352C538.352 95.6042 538.589 94.5909 539.062 93.7955C539.536 93 540.175 92.3703 540.98 91.9062C541.785 91.4422 542.685 91.0919 543.679 90.8551C544.673 90.6184 545.687 90.4384 546.719 90.3153C548.026 90.1638 549.086 90.0407 549.901 89.946C550.715 89.8419 551.307 89.6761 551.676 89.4489C552.045 89.2216 552.23 88.8523 552.23 88.3409V88.2415C552.23 87.0009 551.88 86.0398 551.179 85.358C550.488 84.6761 549.455 84.3352 548.082 84.3352C546.652 84.3352 545.526 84.6525 544.702 85.2869C543.887 85.9119 543.324 86.608 543.011 87.375L539.02 86.4659C539.493 85.1402 540.185 84.0701 541.094 83.2557C542.012 82.4318 543.068 81.8352 544.261 81.4659C545.455 81.0871 546.709 80.8977 548.026 80.8977C548.897 80.8977 549.82 81.0019 550.795 81.2102C551.78 81.4091 552.699 81.7784 553.551 82.3182C554.413 82.858 555.118 83.6297 555.668 84.6335C556.217 85.6278 556.491 86.9205 556.491 88.5114V103H552.344V100.017H552.173C551.899 100.566 551.487 101.106 550.937 101.636C550.388 102.167 549.683 102.607 548.821 102.957C547.959 103.308 546.927 103.483 545.724 103.483ZM546.648 100.074C547.822 100.074 548.826 99.8419 549.659 99.3778C550.502 98.9138 551.141 98.3078 551.577 97.5597C552.022 96.8021 552.244 95.9924 552.244 95.1307V92.3182C552.093 92.4697 551.799 92.6117 551.364 92.7443C550.937 92.8674 550.45 92.9763 549.901 93.071C549.351 93.1562 548.816 93.2367 548.295 93.3125C547.775 93.3788 547.339 93.4356 546.989 93.483C546.165 93.5871 545.412 93.7623 544.73 94.0085C544.058 94.2547 543.518 94.6098 543.111 95.0739C542.713 95.5284 542.514 96.1345 542.514 96.892C542.514 97.9432 542.902 98.7386 543.679 99.2784C544.455 99.8087 545.445 100.074 546.648 100.074ZM561.268 103V81.1818H565.374V84.6477H565.601C565.999 83.4735 566.699 82.5502 567.703 81.8778C568.716 81.196 569.862 80.8551 571.141 80.8551C571.406 80.8551 571.718 80.8646 572.078 80.8835C572.447 80.9025 572.736 80.9261 572.945 80.9545V85.017C572.774 84.9697 572.471 84.9176 572.035 84.8608C571.6 84.7945 571.164 84.7614 570.729 84.7614C569.725 84.7614 568.83 84.9744 568.044 85.4006C567.267 85.8172 566.652 86.3996 566.197 87.1477C565.743 87.8864 565.516 88.7292 565.516 89.6761V103H561.268ZM584.362 103.44C582.212 103.44 580.361 102.981 578.808 102.062C577.265 101.134 576.071 99.8324 575.229 98.1562C574.395 96.4706 573.979 94.4962 573.979 92.233C573.979 89.9981 574.395 88.0284 575.229 86.3239C576.071 84.6193 577.246 83.2888 578.751 82.3324C580.266 81.3759 582.037 80.8977 584.064 80.8977C585.295 80.8977 586.488 81.1013 587.643 81.5085C588.799 81.9157 589.836 82.5549 590.754 83.4261C591.673 84.2973 592.397 85.429 592.927 86.821C593.458 88.2036 593.723 89.8845 593.723 91.8636V93.3693H576.379V90.1875H589.561C589.561 89.0701 589.334 88.0805 588.879 87.2188C588.425 86.3475 587.785 85.661 586.962 85.1591C586.147 84.6572 585.191 84.4062 584.092 84.4062C582.899 84.4062 581.857 84.6998 580.967 85.2869C580.087 85.8646 579.405 86.6222 578.922 87.5597C578.448 88.4877 578.212 89.4962 578.212 90.5852V93.071C578.212 94.5294 578.467 95.7699 578.979 96.7926C579.499 97.8153 580.224 98.5966 581.152 99.1364C582.08 99.6667 583.164 99.9318 584.405 99.9318C585.21 99.9318 585.944 99.8182 586.606 99.5909C587.269 99.3542 587.842 99.0038 588.325 98.5398C588.808 98.0758 589.177 97.5028 589.433 96.821L593.453 97.5455C593.131 98.7292 592.553 99.7661 591.72 100.656C590.896 101.537 589.859 102.223 588.609 102.716C587.369 103.199 585.953 103.44 584.362 103.44Z" fill="black" fill-opacity="0.8"/>
<rect x="272" y="224" width="224" height="176" rx="80" fill="#AFF4C6"/>
<path d="M338.714 278.696C338.578 277.486 338.015 276.548 337.027 275.884C336.038 275.21 334.794 274.874 333.294 274.874C332.22 274.874 331.291 275.044 330.507 275.385C329.723 275.717 329.113 276.178 328.679 276.766C328.252 277.345 328.039 278.006 328.039 278.747C328.039 279.369 328.184 279.906 328.474 280.358C328.772 280.81 329.16 281.189 329.637 281.496C330.123 281.794 330.643 282.045 331.197 282.25C331.751 282.446 332.284 282.608 332.795 282.736L335.352 283.401C336.187 283.605 337.044 283.882 337.921 284.232C338.799 284.581 339.613 285.041 340.363 285.612C341.113 286.183 341.718 286.891 342.179 287.734C342.647 288.578 342.882 289.588 342.882 290.764C342.882 292.247 342.498 293.564 341.731 294.714C340.973 295.865 339.869 296.773 338.42 297.438C336.98 298.102 335.237 298.435 333.191 298.435C331.231 298.435 329.535 298.124 328.103 297.501C326.671 296.879 325.551 295.997 324.741 294.855C323.931 293.705 323.484 292.341 323.399 290.764H327.362C327.439 291.71 327.745 292.499 328.282 293.129C328.828 293.751 329.522 294.216 330.366 294.523C331.218 294.821 332.152 294.97 333.166 294.97C334.282 294.97 335.275 294.795 336.145 294.446C337.022 294.088 337.713 293.594 338.216 292.963C338.718 292.324 338.97 291.578 338.97 290.726C338.97 289.95 338.748 289.315 338.305 288.821C337.87 288.327 337.278 287.918 336.528 287.594C335.787 287.27 334.947 286.984 334.01 286.737L330.916 285.893C328.819 285.322 327.157 284.483 325.93 283.375C324.711 282.267 324.102 280.801 324.102 278.977C324.102 277.469 324.511 276.152 325.329 275.027C326.147 273.902 327.255 273.028 328.653 272.406C330.051 271.776 331.627 271.46 333.383 271.46C335.156 271.46 336.72 271.771 338.075 272.393C339.439 273.016 340.512 273.872 341.296 274.963C342.081 276.045 342.49 277.29 342.524 278.696H338.714ZM349.028 305.364C348.457 305.364 347.937 305.317 347.468 305.223C346.999 305.138 346.65 305.044 346.42 304.942L347.34 301.81C348.039 301.997 348.661 302.078 349.207 302.053C349.752 302.027 350.234 301.822 350.651 301.439C351.077 301.055 351.452 300.429 351.776 299.56L352.249 298.256L345.065 278.364H349.155L354.128 293.602H354.333L359.306 278.364H363.41L355.317 300.621C354.942 301.643 354.465 302.509 353.886 303.216C353.306 303.932 352.616 304.469 351.815 304.827C351.013 305.185 350.084 305.364 349.028 305.364ZM381.033 283.158L377.568 283.771C377.423 283.328 377.193 282.906 376.878 282.506C376.571 282.105 376.153 281.777 375.625 281.521C375.096 281.266 374.436 281.138 373.643 281.138C372.561 281.138 371.658 281.381 370.933 281.866C370.209 282.344 369.846 282.962 369.846 283.72C369.846 284.376 370.089 284.905 370.575 285.305C371.061 285.706 371.845 286.034 372.927 286.29L376.047 287.006C377.854 287.423 379.2 288.067 380.087 288.936C380.973 289.805 381.416 290.935 381.416 292.324C381.416 293.5 381.075 294.548 380.393 295.469C379.72 296.381 378.778 297.097 377.568 297.616C376.366 298.136 374.973 298.396 373.388 298.396C371.189 298.396 369.395 297.928 368.006 296.99C366.616 296.044 365.764 294.702 365.449 292.963L369.143 292.401C369.373 293.364 369.846 294.092 370.562 294.587C371.278 295.072 372.212 295.315 373.362 295.315C374.615 295.315 375.616 295.055 376.366 294.536C377.116 294.007 377.491 293.364 377.491 292.605C377.491 291.991 377.261 291.476 376.801 291.058C376.349 290.641 375.655 290.325 374.717 290.112L371.393 289.384C369.561 288.966 368.206 288.301 367.328 287.389C366.459 286.477 366.024 285.322 366.024 283.925C366.024 282.766 366.348 281.751 366.996 280.882C367.643 280.013 368.538 279.335 369.68 278.849C370.822 278.355 372.131 278.108 373.605 278.108C375.727 278.108 377.398 278.568 378.616 279.489C379.835 280.401 380.641 281.624 381.033 283.158ZM394.101 278.364V281.432H383.375V278.364H394.101ZM386.252 273.659H390.074V292.234C390.074 292.976 390.185 293.534 390.406 293.909C390.628 294.276 390.914 294.527 391.263 294.663C391.621 294.791 392.009 294.855 392.426 294.855C392.733 294.855 393.002 294.834 393.232 294.791C393.462 294.749 393.641 294.714 393.769 294.689L394.459 297.847C394.237 297.932 393.922 298.017 393.513 298.102C393.104 298.196 392.593 298.247 391.979 298.256C390.973 298.273 390.036 298.094 389.166 297.719C388.297 297.344 387.594 296.764 387.057 295.98C386.52 295.196 386.252 294.212 386.252 293.027V273.659ZM405.898 298.396C403.963 298.396 402.297 297.983 400.899 297.156C399.51 296.321 398.436 295.149 397.677 293.641C396.927 292.124 396.552 290.347 396.552 288.31C396.552 286.298 396.927 284.526 397.677 282.991C398.436 281.457 399.493 280.26 400.848 279.399C402.211 278.538 403.805 278.108 405.629 278.108C406.737 278.108 407.811 278.291 408.851 278.658C409.89 279.024 410.824 279.599 411.65 280.384C412.477 281.168 413.129 282.186 413.606 283.439C414.084 284.683 414.322 286.196 414.322 287.977V289.332H398.713V286.469H410.576C410.576 285.463 410.372 284.572 409.963 283.797C409.554 283.013 408.978 282.395 408.237 281.943C407.504 281.491 406.643 281.266 405.655 281.266C404.581 281.266 403.643 281.53 402.842 282.058C402.049 282.578 401.436 283.26 401.001 284.104C400.575 284.939 400.362 285.847 400.362 286.827V289.064C400.362 290.376 400.592 291.493 401.052 292.413C401.521 293.334 402.173 294.037 403.008 294.523C403.844 295 404.819 295.239 405.936 295.239C406.66 295.239 407.321 295.136 407.917 294.932C408.514 294.719 409.03 294.403 409.464 293.986C409.899 293.568 410.231 293.053 410.461 292.439L414.079 293.091C413.79 294.156 413.27 295.089 412.52 295.891C411.778 296.683 410.845 297.301 409.72 297.744C408.603 298.179 407.329 298.396 405.898 298.396ZM417.879 298V278.364H421.548V281.56H421.791C422.2 280.477 422.869 279.634 423.798 279.028C424.727 278.415 425.84 278.108 427.135 278.108C428.448 278.108 429.547 278.415 430.433 279.028C431.328 279.642 431.989 280.486 432.415 281.56H432.619C433.088 280.511 433.834 279.676 434.857 279.054C435.879 278.423 437.098 278.108 438.513 278.108C440.294 278.108 441.747 278.666 442.872 279.783C444.006 280.899 444.573 282.582 444.573 284.832V298H440.75V285.19C440.75 283.861 440.388 282.898 439.663 282.301C438.939 281.705 438.074 281.406 437.068 281.406C435.824 281.406 434.857 281.79 434.166 282.557C433.476 283.315 433.131 284.291 433.131 285.484V298H429.321V284.947C429.321 283.882 428.989 283.026 428.324 282.378C427.659 281.73 426.794 281.406 425.729 281.406C425.004 281.406 424.335 281.598 423.722 281.982C423.117 282.357 422.626 282.881 422.251 283.554C421.885 284.227 421.702 285.007 421.702 285.893V298H417.879ZM325.556 332.696C325.42 331.486 324.857 330.548 323.869 329.884C322.88 329.21 321.636 328.874 320.136 328.874C319.062 328.874 318.133 329.044 317.349 329.385C316.565 329.717 315.955 330.178 315.521 330.766C315.094 331.345 314.881 332.006 314.881 332.747C314.881 333.369 315.026 333.906 315.316 334.358C315.614 334.81 316.002 335.189 316.479 335.496C316.965 335.794 317.485 336.045 318.039 336.25C318.593 336.446 319.126 336.608 319.637 336.736L322.194 337.401C323.029 337.605 323.886 337.882 324.763 338.232C325.641 338.581 326.455 339.041 327.205 339.612C327.955 340.183 328.56 340.891 329.021 341.734C329.489 342.578 329.724 343.588 329.724 344.764C329.724 346.247 329.34 347.564 328.573 348.714C327.815 349.865 326.711 350.773 325.262 351.438C323.822 352.102 322.079 352.435 320.033 352.435C318.073 352.435 316.377 352.124 314.945 351.501C313.513 350.879 312.393 349.997 311.583 348.855C310.773 347.705 310.326 346.341 310.241 344.764H314.204C314.281 345.71 314.587 346.499 315.124 347.129C315.67 347.751 316.364 348.216 317.208 348.523C318.06 348.821 318.994 348.97 320.008 348.97C321.124 348.97 322.117 348.795 322.987 348.446C323.864 348.088 324.555 347.594 325.058 346.963C325.56 346.324 325.812 345.578 325.812 344.726C325.812 343.95 325.59 343.315 325.147 342.821C324.712 342.327 324.12 341.918 323.37 341.594C322.629 341.27 321.789 340.984 320.852 340.737L317.758 339.893C315.661 339.322 313.999 338.483 312.772 337.375C311.553 336.267 310.944 334.801 310.944 332.977C310.944 331.469 311.353 330.152 312.171 329.027C312.989 327.902 314.097 327.028 315.495 326.406C316.893 325.776 318.469 325.46 320.225 325.46C321.998 325.46 323.562 325.771 324.917 326.393C326.281 327.016 327.354 327.872 328.138 328.963C328.923 330.045 329.332 331.29 329.366 332.696H325.556ZM341.725 352.396C339.884 352.396 338.277 351.974 336.905 351.131C335.533 350.287 334.468 349.107 333.709 347.589C332.951 346.072 332.571 344.3 332.571 342.271C332.571 340.234 332.951 338.453 333.709 336.928C334.468 335.402 335.533 334.217 336.905 333.374C338.277 332.53 339.884 332.108 341.725 332.108C343.566 332.108 345.172 332.53 346.544 333.374C347.916 334.217 348.982 335.402 349.74 336.928C350.499 338.453 350.878 340.234 350.878 342.271C350.878 344.3 350.499 346.072 349.74 347.589C348.982 349.107 347.916 350.287 346.544 351.131C345.172 351.974 343.566 352.396 341.725 352.396ZM341.738 349.188C342.931 349.188 343.919 348.872 344.703 348.241C345.488 347.611 346.067 346.771 346.442 345.723C346.826 344.675 347.017 343.52 347.017 342.259C347.017 341.006 346.826 339.855 346.442 338.807C346.067 337.75 345.488 336.902 344.703 336.263C343.919 335.624 342.931 335.304 341.738 335.304C340.536 335.304 339.539 335.624 338.746 336.263C337.962 336.902 337.378 337.75 336.995 338.807C336.62 339.855 336.432 341.006 336.432 342.259C336.432 343.52 336.62 344.675 336.995 345.723C337.378 346.771 337.962 347.611 338.746 348.241C339.539 348.872 340.536 349.188 341.738 349.188ZM363.806 332.364V335.432H352.709V332.364H363.806ZM355.752 352V330.088C355.752 328.861 356.02 327.842 356.557 327.033C357.094 326.214 357.806 325.605 358.692 325.205C359.579 324.795 360.542 324.591 361.582 324.591C362.349 324.591 363.005 324.655 363.55 324.783C364.096 324.902 364.501 325.013 364.765 325.115L363.87 328.209C363.691 328.158 363.461 328.098 363.18 328.03C362.898 327.953 362.557 327.915 362.157 327.915C361.228 327.915 360.563 328.145 360.163 328.605C359.77 329.065 359.574 329.73 359.574 330.599V352H355.752ZM376.232 332.364V335.432H365.506V332.364H376.232ZM368.383 327.659H372.205V346.234C372.205 346.976 372.316 347.534 372.537 347.909C372.759 348.276 373.045 348.527 373.394 348.663C373.752 348.791 374.14 348.855 374.557 348.855C374.864 348.855 375.133 348.834 375.363 348.791C375.593 348.749 375.772 348.714 375.9 348.689L376.59 351.847C376.368 351.932 376.053 352.017 375.644 352.102C375.235 352.196 374.724 352.247 374.11 352.256C373.104 352.273 372.167 352.094 371.297 351.719C370.428 351.344 369.725 350.764 369.188 349.98C368.651 349.196 368.383 348.212 368.383 347.027V327.659ZM384.034 352L378.255 332.364H382.205L386.053 346.784H386.245L390.106 332.364H394.056L397.891 346.72H398.083L401.906 332.364H405.856L400.09 352H396.191L392.203 337.822H391.909L387.92 352H384.034ZM414.514 352.435C413.27 352.435 412.145 352.205 411.139 351.744C410.133 351.276 409.336 350.598 408.748 349.712C408.169 348.825 407.879 347.739 407.879 346.452C407.879 345.344 408.092 344.432 408.518 343.716C408.944 343 409.52 342.433 410.244 342.016C410.968 341.598 411.778 341.283 412.673 341.07C413.568 340.857 414.48 340.695 415.409 340.584C416.585 340.447 417.54 340.337 418.272 340.251C419.005 340.158 419.538 340.009 419.87 339.804C420.203 339.599 420.369 339.267 420.369 338.807V338.717C420.369 337.601 420.054 336.736 419.423 336.122C418.801 335.509 417.872 335.202 416.636 335.202C415.349 335.202 414.335 335.487 413.593 336.058C412.861 336.621 412.353 337.247 412.072 337.938L408.48 337.119C408.906 335.926 409.528 334.963 410.346 334.23C411.173 333.489 412.123 332.952 413.197 332.619C414.271 332.278 415.4 332.108 416.585 332.108C417.369 332.108 418.2 332.202 419.078 332.389C419.964 332.568 420.791 332.901 421.558 333.386C422.334 333.872 422.968 334.567 423.463 335.47C423.957 336.365 424.204 337.528 424.204 338.96V352H420.471V349.315H420.318C420.071 349.81 419.7 350.295 419.206 350.773C418.711 351.25 418.076 351.646 417.301 351.962C416.525 352.277 415.596 352.435 414.514 352.435ZM415.345 349.366C416.402 349.366 417.305 349.158 418.055 348.74C418.814 348.322 419.389 347.777 419.781 347.104C420.182 346.422 420.382 345.693 420.382 344.918V342.386C420.245 342.523 419.981 342.651 419.589 342.77C419.206 342.881 418.767 342.979 418.272 343.064C417.778 343.141 417.297 343.213 416.828 343.281C416.359 343.341 415.967 343.392 415.652 343.435C414.91 343.528 414.233 343.686 413.619 343.908C413.014 344.129 412.528 344.449 412.162 344.866C411.804 345.276 411.625 345.821 411.625 346.503C411.625 347.449 411.974 348.165 412.673 348.651C413.372 349.128 414.263 349.366 415.345 349.366ZM428.612 352V332.364H432.306V335.483H432.511C432.869 334.426 433.499 333.595 434.403 332.99C435.315 332.376 436.346 332.07 437.496 332.07C437.735 332.07 438.016 332.078 438.34 332.095C438.673 332.112 438.933 332.134 439.12 332.159V335.815C438.967 335.773 438.694 335.726 438.302 335.675C437.91 335.615 437.518 335.585 437.126 335.585C436.222 335.585 435.417 335.777 434.71 336.161C434.011 336.536 433.457 337.06 433.048 337.733C432.639 338.398 432.434 339.156 432.434 340.009V352H428.612ZM449.504 352.396C447.569 352.396 445.903 351.983 444.505 351.156C443.116 350.321 442.042 349.149 441.284 347.641C440.534 346.124 440.159 344.347 440.159 342.31C440.159 340.298 440.534 338.526 441.284 336.991C442.042 335.457 443.099 334.26 444.454 333.399C445.818 332.538 447.412 332.108 449.235 332.108C450.343 332.108 451.417 332.291 452.457 332.658C453.497 333.024 454.43 333.599 455.257 334.384C456.083 335.168 456.735 336.186 457.213 337.439C457.69 338.683 457.929 340.196 457.929 341.977V343.332H442.319V340.469H454.183C454.183 339.463 453.978 338.572 453.569 337.797C453.16 337.013 452.585 336.395 451.843 335.943C451.11 335.491 450.25 335.266 449.261 335.266C448.187 335.266 447.25 335.53 446.449 336.058C445.656 336.578 445.042 337.26 444.608 338.104C444.181 338.939 443.968 339.847 443.968 340.827V343.064C443.968 344.376 444.199 345.493 444.659 346.413C445.127 347.334 445.779 348.037 446.615 348.523C447.45 349 448.426 349.239 449.542 349.239C450.267 349.239 450.927 349.136 451.524 348.932C452.12 348.719 452.636 348.403 453.071 347.986C453.505 347.568 453.838 347.053 454.068 346.439L457.686 347.091C457.396 348.156 456.876 349.089 456.126 349.891C455.385 350.683 454.451 351.301 453.326 351.744C452.21 352.179 450.936 352.396 449.504 352.396Z" fill="black" fill-opacity="0.8"/>
<path d="M513.5 180C513.5 179.172 512.828 178.5 512 178.5C511.172 178.5 510.5 179.172 510.5 180H513.5ZM382.939 221.061C383.525 221.646 384.475 221.646 385.061 221.061L394.607 211.515C395.192 210.929 395.192 209.979 394.607 209.393C394.021 208.808 393.071 208.808 392.485 209.393L384 217.879L375.515 209.393C374.929 208.808 373.979 208.808 373.393 209.393C372.808 209.979 372.808 210.929 373.393 211.515L382.939 221.061ZM384 220H385.5H384ZM512 180H513.5H512ZM492 198.5H404V201.5H492V198.5ZM404 198.5C392.126 198.5 382.5 208.126 382.5 220H385.5C385.5 209.783 393.783 201.5 404 201.5V198.5ZM510.5 180C510.5 190.217 502.217 198.5 492 198.5V201.5C503.874 201.5 513.5 191.874 513.5 180H510.5Z" fill="#B3B3B3"/>
<rect x="528" y="224" width="224" height="176" rx="80" fill="#FFE8A3"/>
<path d="M551.819 298H547.626L557.048 271.818H561.611L571.033 298H566.84L559.438 276.574H559.234L551.819 298ZM552.522 287.747H566.124V291.071H552.522V287.747ZM573.823 305.364V278.364H577.556V281.547H577.876C578.098 281.138 578.417 280.665 578.835 280.128C579.252 279.591 579.832 279.122 580.573 278.722C581.315 278.312 582.295 278.108 583.514 278.108C585.099 278.108 586.514 278.509 587.758 279.31C589.002 280.111 589.978 281.266 590.686 282.774C591.402 284.283 591.759 286.098 591.759 288.22C591.759 290.342 591.406 292.162 590.698 293.679C589.991 295.187 589.019 296.351 587.784 297.169C586.548 297.979 585.137 298.384 583.552 298.384C582.359 298.384 581.383 298.183 580.625 297.783C579.875 297.382 579.286 296.913 578.86 296.376C578.434 295.839 578.106 295.362 577.876 294.945H577.646V305.364H573.823ZM577.569 288.182C577.569 289.562 577.769 290.773 578.17 291.812C578.571 292.852 579.15 293.666 579.909 294.254C580.667 294.834 581.596 295.124 582.696 295.124C583.838 295.124 584.792 294.821 585.559 294.216C586.326 293.602 586.906 292.771 587.298 291.723C587.698 290.675 587.899 289.494 587.899 288.182C587.899 286.886 587.703 285.723 587.311 284.692C586.927 283.661 586.348 282.847 585.572 282.25C584.805 281.653 583.846 281.355 582.696 281.355C581.588 281.355 580.65 281.641 579.883 282.212C579.125 282.783 578.549 283.58 578.157 284.602C577.765 285.625 577.569 286.818 577.569 288.182ZM595.358 305.364V278.364H599.091V281.547H599.411C599.632 281.138 599.952 280.665 600.369 280.128C600.787 279.591 601.367 279.122 602.108 278.722C602.85 278.312 603.83 278.108 605.048 278.108C606.634 278.108 608.048 278.509 609.293 279.31C610.537 280.111 611.513 281.266 612.22 282.774C612.936 284.283 613.294 286.098 613.294 288.22C613.294 290.342 612.941 292.162 612.233 293.679C611.526 295.187 610.554 296.351 609.318 297.169C608.083 297.979 606.672 298.384 605.087 298.384C603.894 298.384 602.918 298.183 602.159 297.783C601.409 297.382 600.821 296.913 600.395 296.376C599.969 295.839 599.641 295.362 599.411 294.945H599.181V305.364H595.358ZM599.104 288.182C599.104 289.562 599.304 290.773 599.705 291.812C600.105 292.852 600.685 293.666 601.443 294.254C602.202 294.834 603.131 295.124 604.23 295.124C605.372 295.124 606.327 294.821 607.094 294.216C607.861 293.602 608.441 292.771 608.833 291.723C609.233 290.675 609.433 289.494 609.433 288.182C609.433 286.886 609.237 285.723 608.845 284.692C608.462 283.661 607.882 282.847 607.107 282.25C606.34 281.653 605.381 281.355 604.23 281.355C603.122 281.355 602.185 281.641 601.418 282.212C600.659 282.783 600.084 283.58 599.692 284.602C599.3 285.625 599.104 286.818 599.104 288.182ZM620.715 271.818V298H616.893V271.818H620.715ZM625.174 298V278.364H628.996V298H625.174ZM627.104 275.334C626.439 275.334 625.868 275.112 625.391 274.669C624.922 274.217 624.688 273.68 624.688 273.058C624.688 272.428 624.922 271.891 625.391 271.447C625.868 270.996 626.439 270.77 627.104 270.77C627.769 270.77 628.336 270.996 628.804 271.447C629.282 271.891 629.52 272.428 629.52 273.058C629.52 273.68 629.282 274.217 628.804 274.669C628.336 275.112 627.769 275.334 627.104 275.334ZM641.726 298.396C639.825 298.396 638.189 297.966 636.817 297.105C635.453 296.236 634.405 295.038 633.672 293.513C632.939 291.987 632.572 290.24 632.572 288.271C632.572 286.277 632.947 284.517 633.697 282.991C634.447 281.457 635.504 280.26 636.868 279.399C638.232 278.538 639.838 278.108 641.688 278.108C643.179 278.108 644.509 278.385 645.676 278.939C646.844 279.484 647.786 280.251 648.501 281.24C649.226 282.229 649.656 283.384 649.793 284.705H646.072C645.868 283.784 645.399 282.991 644.666 282.327C643.942 281.662 642.97 281.33 641.751 281.33C640.686 281.33 639.753 281.611 638.952 282.173C638.159 282.727 637.541 283.52 637.098 284.551C636.655 285.574 636.433 286.784 636.433 288.182C636.433 289.614 636.651 290.849 637.085 291.889C637.52 292.929 638.134 293.734 638.926 294.305C639.727 294.876 640.669 295.162 641.751 295.162C642.476 295.162 643.132 295.03 643.72 294.766C644.317 294.493 644.815 294.105 645.216 293.602C645.625 293.099 645.911 292.494 646.072 291.787H649.793C649.656 293.057 649.243 294.19 648.553 295.188C647.862 296.185 646.938 296.969 645.778 297.54C644.628 298.111 643.277 298.396 641.726 298.396ZM658.911 298.435C657.667 298.435 656.542 298.205 655.536 297.744C654.53 297.276 653.733 296.598 653.145 295.712C652.566 294.825 652.276 293.739 652.276 292.452C652.276 291.344 652.489 290.432 652.915 289.716C653.341 289 653.917 288.433 654.641 288.016C655.365 287.598 656.175 287.283 657.07 287.07C657.965 286.857 658.877 286.695 659.806 286.584C660.982 286.447 661.936 286.337 662.669 286.251C663.402 286.158 663.935 286.009 664.267 285.804C664.6 285.599 664.766 285.267 664.766 284.807V284.717C664.766 283.601 664.451 282.736 663.82 282.122C663.198 281.509 662.269 281.202 661.033 281.202C659.746 281.202 658.732 281.487 657.99 282.058C657.257 282.621 656.75 283.247 656.469 283.938L652.877 283.119C653.303 281.926 653.925 280.963 654.743 280.23C655.57 279.489 656.52 278.952 657.594 278.619C658.668 278.278 659.797 278.108 660.982 278.108C661.766 278.108 662.597 278.202 663.475 278.389C664.361 278.568 665.188 278.901 665.955 279.386C666.73 279.872 667.365 280.567 667.86 281.47C668.354 282.365 668.601 283.528 668.601 284.96V298H664.868V295.315H664.715C664.468 295.81 664.097 296.295 663.603 296.773C663.108 297.25 662.473 297.646 661.698 297.962C660.922 298.277 659.993 298.435 658.911 298.435ZM659.742 295.366C660.799 295.366 661.702 295.158 662.452 294.74C663.211 294.322 663.786 293.777 664.178 293.104C664.578 292.422 664.779 291.693 664.779 290.918V288.386C664.642 288.523 664.378 288.651 663.986 288.77C663.603 288.881 663.164 288.979 662.669 289.064C662.175 289.141 661.694 289.213 661.225 289.281C660.756 289.341 660.364 289.392 660.049 289.435C659.307 289.528 658.63 289.686 658.016 289.908C657.411 290.129 656.925 290.449 656.559 290.866C656.201 291.276 656.022 291.821 656.022 292.503C656.022 293.449 656.371 294.165 657.07 294.651C657.769 295.128 658.659 295.366 659.742 295.366ZM682.175 278.364V281.432H671.449V278.364H682.175ZM674.325 273.659H678.148V292.234C678.148 292.976 678.258 293.534 678.48 293.909C678.702 294.276 678.987 294.527 679.337 294.663C679.695 294.791 680.082 294.855 680.5 294.855C680.807 294.855 681.075 294.834 681.305 294.791C681.535 294.749 681.714 294.714 681.842 294.689L682.533 297.847C682.311 297.932 681.996 298.017 681.587 298.102C681.177 298.196 680.666 298.247 680.052 298.256C679.047 298.273 678.109 298.094 677.24 297.719C676.371 297.344 675.668 296.764 675.131 295.98C674.594 295.196 674.325 294.212 674.325 293.027V273.659ZM685.719 298V278.364H689.541V298H685.719ZM687.649 275.334C686.985 275.334 686.414 275.112 685.936 274.669C685.468 274.217 685.233 273.68 685.233 273.058C685.233 272.428 685.468 271.891 685.936 271.447C686.414 270.996 686.985 270.77 687.649 270.77C688.314 270.77 688.881 270.996 689.35 271.447C689.827 271.891 690.066 272.428 690.066 273.058C690.066 273.68 689.827 274.217 689.35 274.669C688.881 275.112 688.314 275.334 687.649 275.334ZM702.271 298.396C700.43 298.396 698.824 297.974 697.452 297.131C696.079 296.287 695.014 295.107 694.255 293.589C693.497 292.072 693.118 290.3 693.118 288.271C693.118 286.234 693.497 284.453 694.255 282.928C695.014 281.402 696.079 280.217 697.452 279.374C698.824 278.53 700.43 278.108 702.271 278.108C704.112 278.108 705.719 278.53 707.091 279.374C708.463 280.217 709.528 281.402 710.287 282.928C711.045 284.453 711.425 286.234 711.425 288.271C711.425 290.3 711.045 292.072 710.287 293.589C709.528 295.107 708.463 296.287 707.091 297.131C705.719 297.974 704.112 298.396 702.271 298.396ZM702.284 295.188C703.477 295.188 704.466 294.872 705.25 294.241C706.034 293.611 706.613 292.771 706.988 291.723C707.372 290.675 707.564 289.52 707.564 288.259C707.564 287.006 707.372 285.855 706.988 284.807C706.613 283.75 706.034 282.902 705.25 282.263C704.466 281.624 703.477 281.304 702.284 281.304C701.082 281.304 700.085 281.624 699.292 282.263C698.508 282.902 697.925 283.75 697.541 284.807C697.166 285.855 696.979 287.006 696.979 288.259C696.979 289.52 697.166 290.675 697.541 291.723C697.925 292.771 698.508 293.611 699.292 294.241C700.085 294.872 701.082 295.188 702.284 295.188ZM718.83 286.341V298H715.007V278.364H718.676V281.56H718.919C719.371 280.52 720.078 279.685 721.041 279.054C722.013 278.423 723.236 278.108 724.71 278.108C726.048 278.108 727.22 278.389 728.226 278.952C729.232 279.506 730.011 280.332 730.565 281.432C731.119 282.531 731.396 283.891 731.396 285.51V298H727.574V285.97C727.574 284.547 727.203 283.435 726.462 282.634C725.72 281.824 724.702 281.419 723.406 281.419C722.52 281.419 721.732 281.611 721.041 281.994C720.359 282.378 719.818 282.94 719.418 283.682C719.026 284.415 718.83 285.301 718.83 286.341ZM581.556 332.696C581.42 331.486 580.857 330.548 579.869 329.884C578.88 329.21 577.636 328.874 576.136 328.874C575.062 328.874 574.133 329.044 573.349 329.385C572.565 329.717 571.955 330.178 571.521 330.766C571.094 331.345 570.881 332.006 570.881 332.747C570.881 333.369 571.026 333.906 571.316 334.358C571.614 334.81 572.002 335.189 572.479 335.496C572.965 335.794 573.485 336.045 574.039 336.25C574.593 336.446 575.126 336.608 575.637 336.736L578.194 337.401C579.029 337.605 579.886 337.882 580.763 338.232C581.641 338.581 582.455 339.041 583.205 339.612C583.955 340.183 584.56 340.891 585.021 341.734C585.489 342.578 585.724 343.588 585.724 344.764C585.724 346.247 585.34 347.564 584.573 348.714C583.815 349.865 582.711 350.773 581.262 351.438C579.822 352.102 578.079 352.435 576.033 352.435C574.073 352.435 572.377 352.124 570.945 351.501C569.513 350.879 568.393 349.997 567.583 348.855C566.773 347.705 566.326 346.341 566.241 344.764H570.204C570.281 345.71 570.587 346.499 571.124 347.129C571.67 347.751 572.364 348.216 573.208 348.523C574.06 348.821 574.994 348.97 576.008 348.97C577.124 348.97 578.117 348.795 578.987 348.446C579.864 348.088 580.555 347.594 581.058 346.963C581.56 346.324 581.812 345.578 581.812 344.726C581.812 343.95 581.59 343.315 581.147 342.821C580.712 342.327 580.12 341.918 579.37 341.594C578.629 341.27 577.789 340.984 576.852 340.737L573.758 339.893C571.661 339.322 569.999 338.483 568.772 337.375C567.553 336.267 566.944 334.801 566.944 332.977C566.944 331.469 567.353 330.152 568.171 329.027C568.989 327.902 570.097 327.028 571.495 326.406C572.893 325.776 574.469 325.46 576.225 325.46C577.998 325.46 579.562 325.771 580.917 326.393C582.281 327.016 583.354 327.872 584.138 328.963C584.923 330.045 585.332 331.29 585.366 332.696H581.556ZM597.725 352.396C595.884 352.396 594.277 351.974 592.905 351.131C591.533 350.287 590.468 349.107 589.709 347.589C588.951 346.072 588.571 344.3 588.571 342.271C588.571 340.234 588.951 338.453 589.709 336.928C590.468 335.402 591.533 334.217 592.905 333.374C594.277 332.53 595.884 332.108 597.725 332.108C599.566 332.108 601.172 332.53 602.544 333.374C603.916 334.217 604.982 335.402 605.74 336.928C606.499 338.453 606.878 340.234 606.878 342.271C606.878 344.3 606.499 346.072 605.74 347.589C604.982 349.107 603.916 350.287 602.544 351.131C601.172 351.974 599.566 352.396 597.725 352.396ZM597.738 349.188C598.931 349.188 599.919 348.872 600.703 348.241C601.488 347.611 602.067 346.771 602.442 345.723C602.826 344.675 603.017 343.52 603.017 342.259C603.017 341.006 602.826 339.855 602.442 338.807C602.067 337.75 601.488 336.902 600.703 336.263C599.919 335.624 598.931 335.304 597.738 335.304C596.536 335.304 595.539 335.624 594.746 336.263C593.962 336.902 593.378 337.75 592.995 338.807C592.62 339.855 592.432 341.006 592.432 342.259C592.432 343.52 592.62 344.675 592.995 345.723C593.378 346.771 593.962 347.611 594.746 348.241C595.539 348.872 596.536 349.188 597.738 349.188ZM619.806 332.364V335.432H608.709V332.364H619.806ZM611.752 352V330.088C611.752 328.861 612.02 327.842 612.557 327.033C613.094 326.214 613.806 325.605 614.692 325.205C615.579 324.795 616.542 324.591 617.582 324.591C618.349 324.591 619.005 324.655 619.55 324.783C620.096 324.902 620.501 325.013 620.765 325.115L619.87 328.209C619.691 328.158 619.461 328.098 619.18 328.03C618.898 327.953 618.557 327.915 618.157 327.915C617.228 327.915 616.563 328.145 616.163 328.605C615.77 329.065 615.574 329.73 615.574 330.599V352H611.752ZM632.232 332.364V335.432H621.506V332.364H632.232ZM624.383 327.659H628.205V346.234C628.205 346.976 628.316 347.534 628.537 347.909C628.759 348.276 629.045 348.527 629.394 348.663C629.752 348.791 630.14 348.855 630.557 348.855C630.864 348.855 631.133 348.834 631.363 348.791C631.593 348.749 631.772 348.714 631.9 348.689L632.59 351.847C632.368 351.932 632.053 352.017 631.644 352.102C631.235 352.196 630.724 352.247 630.11 352.256C629.104 352.273 628.167 352.094 627.297 351.719C626.428 351.344 625.725 350.764 625.188 349.98C624.651 349.196 624.383 348.212 624.383 347.027V327.659ZM640.034 352L634.255 332.364H638.205L642.053 346.784H642.245L646.106 332.364H650.056L653.891 346.72H654.083L657.906 332.364H661.856L656.09 352H652.191L648.203 337.822H647.909L643.92 352H640.034ZM670.514 352.435C669.27 352.435 668.145 352.205 667.139 351.744C666.133 351.276 665.336 350.598 664.748 349.712C664.169 348.825 663.879 347.739 663.879 346.452C663.879 345.344 664.092 344.432 664.518 343.716C664.944 343 665.52 342.433 666.244 342.016C666.968 341.598 667.778 341.283 668.673 341.07C669.568 340.857 670.48 340.695 671.409 340.584C672.585 340.447 673.54 340.337 674.272 340.251C675.005 340.158 675.538 340.009 675.87 339.804C676.203 339.599 676.369 339.267 676.369 338.807V338.717C676.369 337.601 676.054 336.736 675.423 336.122C674.801 335.509 673.872 335.202 672.636 335.202C671.349 335.202 670.335 335.487 669.593 336.058C668.861 336.621 668.353 337.247 668.072 337.938L664.48 337.119C664.906 335.926 665.528 334.963 666.346 334.23C667.173 333.489 668.123 332.952 669.197 332.619C670.271 332.278 671.4 332.108 672.585 332.108C673.369 332.108 674.2 332.202 675.078 332.389C675.964 332.568 676.791 332.901 677.558 333.386C678.334 333.872 678.968 334.567 679.463 335.47C679.957 336.365 680.204 337.528 680.204 338.96V352H676.471V349.315H676.318C676.071 349.81 675.7 350.295 675.206 350.773C674.711 351.25 674.076 351.646 673.301 351.962C672.525 352.277 671.596 352.435 670.514 352.435ZM671.345 349.366C672.402 349.366 673.305 349.158 674.055 348.74C674.814 348.322 675.389 347.777 675.781 347.104C676.182 346.422 676.382 345.693 676.382 344.918V342.386C676.245 342.523 675.981 342.651 675.589 342.77C675.206 342.881 674.767 342.979 674.272 343.064C673.778 343.141 673.297 343.213 672.828 343.281C672.359 343.341 671.967 343.392 671.652 343.435C670.91 343.528 670.233 343.686 669.619 343.908C669.014 344.129 668.528 344.449 668.162 344.866C667.804 345.276 667.625 345.821 667.625 346.503C667.625 347.449 667.974 348.165 668.673 348.651C669.372 349.128 670.263 349.366 671.345 349.366ZM684.612 352V332.364H688.306V335.483H688.511C688.869 334.426 689.499 333.595 690.403 332.99C691.315 332.376 692.346 332.07 693.496 332.07C693.735 332.07 694.016 332.078 694.34 332.095C694.673 332.112 694.933 332.134 695.12 332.159V335.815C694.967 335.773 694.694 335.726 694.302 335.675C693.91 335.615 693.518 335.585 693.126 335.585C692.222 335.585 691.417 335.777 690.71 336.161C690.011 336.536 689.457 337.06 689.048 337.733C688.639 338.398 688.434 339.156 688.434 340.009V352H684.612ZM705.504 352.396C703.569 352.396 701.903 351.983 700.505 351.156C699.116 350.321 698.042 349.149 697.284 347.641C696.534 346.124 696.159 344.347 696.159 342.31C696.159 340.298 696.534 338.526 697.284 336.991C698.042 335.457 699.099 334.26 700.454 333.399C701.818 332.538 703.412 332.108 705.235 332.108C706.343 332.108 707.417 332.291 708.457 332.658C709.497 333.024 710.43 333.599 711.257 334.384C712.083 335.168 712.735 336.186 713.213 337.439C713.69 338.683 713.929 340.196 713.929 341.977V343.332H698.319V340.469H710.183C710.183 339.463 709.978 338.572 709.569 337.797C709.16 337.013 708.585 336.395 707.843 335.943C707.11 335.491 706.25 335.266 705.261 335.266C704.187 335.266 703.25 335.53 702.449 336.058C701.656 336.578 701.042 337.26 700.608 338.104C700.181 338.939 699.968 339.847 699.968 340.827V343.064C699.968 344.376 700.199 345.493 700.659 346.413C701.127 347.334 701.779 348.037 702.615 348.523C703.45 349 704.426 349.239 705.542 349.239C706.267 349.239 706.927 349.136 707.524 348.932C708.12 348.719 708.636 348.403 709.071 347.986C709.505 347.568 709.838 347.053 710.068 346.439L713.686 347.091C713.396 348.156 712.876 349.089 712.126 349.891C711.385 350.683 710.451 351.301 709.326 351.744C708.21 352.179 706.936 352.396 705.504 352.396Z" fill="black" fill-opacity="0.8"/>
<path d="M513.5 180C513.5 179.172 512.828 178.5 512 178.5C511.172 178.5 510.5 179.172 510.5 180H513.5ZM638.939 221.061C639.525 221.646 640.475 221.646 641.061 221.061L650.607 211.515C651.192 210.929 651.192 209.979 650.607 209.393C650.021 208.808 649.071 208.808 648.485 209.393L640 217.879L631.515 209.393C630.929 208.808 629.979 208.808 629.393 209.393C628.808 209.979 628.808 210.929 629.393 211.515L638.939 221.061ZM640 220H641.5H640ZM512 180H513.5H512ZM532 201.5H620V198.5H532V201.5ZM620 201.5C630.217 201.5 638.5 209.783 638.5 220H641.5C641.5 208.126 631.874 198.5 620 198.5V201.5ZM510.5 180C510.5 191.874 520.126 201.5 532 201.5V198.5C521.783 198.5 513.5 190.217 513.5 180H510.5Z" fill="#B3B3B3"/>
<rect y="448" width="224" height="176" rx="80" fill="#AFF4C6"/>
<path d="M55.0743 508.909C55.0743 511.705 54.5629 514.108 53.5402 516.119C52.5175 518.122 51.1155 519.665 49.3342 520.747C47.5615 521.821 45.5459 522.358 43.2873 522.358C41.0203 522.358 38.9961 521.821 37.2149 520.747C35.4422 519.665 34.0444 518.118 33.0217 516.107C31.999 514.095 31.4876 511.696 31.4876 508.909C31.4876 506.114 31.999 503.714 33.0217 501.712C34.0444 499.7 35.4422 498.158 37.2149 497.084C38.9961 496.001 41.0203 495.46 43.2873 495.46C45.5459 495.46 47.5615 496.001 49.3342 497.084C51.1155 498.158 52.5175 499.7 53.5402 501.712C54.5629 503.714 55.0743 506.114 55.0743 508.909ZM51.1623 508.909C51.1623 506.778 50.8172 504.984 50.1268 503.527C49.445 502.061 48.5075 500.953 47.3143 500.203C46.1297 499.445 44.7873 499.065 43.2873 499.065C41.7788 499.065 40.4322 499.445 39.2476 500.203C38.0629 500.953 37.1254 502.061 36.4351 503.527C35.7533 504.984 35.4123 506.778 35.4123 508.909C35.4123 511.04 35.7533 512.838 36.4351 514.304C37.1254 515.761 38.0629 516.869 39.2476 517.628C40.4322 518.378 41.7788 518.753 43.2873 518.753C44.7873 518.753 46.1297 518.378 47.3143 517.628C48.5075 516.869 49.445 515.761 50.1268 514.304C50.8172 512.838 51.1623 511.04 51.1623 508.909ZM59.0085 529.364V502.364H62.7415V505.547H63.0611C63.2827 505.138 63.6023 504.665 64.0199 504.128C64.4375 503.591 65.0171 503.122 65.7585 502.722C66.5 502.312 67.4801 502.108 68.6989 502.108C70.2841 502.108 71.6989 502.509 72.9432 503.31C74.1875 504.111 75.1634 505.266 75.8707 506.774C76.5867 508.283 76.9446 510.098 76.9446 512.22C76.9446 514.342 76.5909 516.162 75.8835 517.679C75.1761 519.187 74.2046 520.351 72.9688 521.169C71.733 521.979 70.3225 522.384 68.7372 522.384C67.544 522.384 66.5682 522.183 65.8097 521.783C65.0597 521.382 64.4716 520.913 64.0455 520.376C63.6193 519.839 63.2912 519.362 63.0611 518.945H62.831V529.364H59.0085ZM62.7543 512.182C62.7543 513.562 62.9546 514.773 63.3551 515.812C63.7557 516.852 64.3352 517.666 65.0938 518.254C65.8523 518.834 66.7813 519.124 67.8807 519.124C69.0227 519.124 69.9773 518.821 70.7443 518.216C71.5114 517.602 72.0909 516.771 72.483 515.723C72.8835 514.675 73.0838 513.494 73.0838 512.182C73.0838 510.886 72.8878 509.723 72.4957 508.692C72.1122 507.661 71.5327 506.847 70.7571 506.25C69.9901 505.653 69.0313 505.355 67.8807 505.355C66.7727 505.355 65.8352 505.641 65.0682 506.212C64.3097 506.783 63.7344 507.58 63.3423 508.602C62.9503 509.625 62.7543 510.818 62.7543 512.182ZM89.0063 522.396C87.0717 522.396 85.4055 521.983 84.0078 521.156C82.6186 520.321 81.5447 519.149 80.7862 517.641C80.0362 516.124 79.6612 514.347 79.6612 512.31C79.6612 510.298 80.0362 508.526 80.7862 506.991C81.5447 505.457 82.6015 504.26 83.9566 503.399C85.3203 502.538 86.914 502.108 88.7379 502.108C89.8458 502.108 90.9197 502.291 91.9595 502.658C92.9992 503.024 93.9325 503.599 94.7592 504.384C95.5859 505.168 96.2379 506.186 96.7152 507.439C97.1924 508.683 97.4311 510.196 97.4311 511.977V513.332H81.8217V510.469H93.6853C93.6853 509.463 93.4808 508.572 93.0717 507.797C92.6626 507.013 92.0873 506.395 91.3458 505.943C90.6129 505.491 89.7521 505.266 88.7634 505.266C87.6896 505.266 86.7521 505.53 85.9509 506.058C85.1583 506.578 84.5447 507.26 84.11 508.104C83.6839 508.939 83.4708 509.847 83.4708 510.827V513.064C83.4708 514.376 83.7009 515.493 84.1612 516.413C84.6299 517.334 85.2819 518.037 86.1171 518.523C86.9524 519 87.9282 519.239 89.0447 519.239C89.7691 519.239 90.4296 519.136 91.0262 518.932C91.6228 518.719 92.1384 518.403 92.5731 517.986C93.0078 517.568 93.3402 517.053 93.5703 516.439L97.1882 517.091C96.8984 518.156 96.3785 519.089 95.6285 519.891C94.887 520.683 93.9538 521.301 92.8288 521.744C91.7123 522.179 90.4382 522.396 89.0063 522.396ZM100.988 522V502.364H104.683V505.483H104.887C105.245 504.426 105.876 503.595 106.779 502.99C107.691 502.376 108.723 502.07 109.873 502.07C110.112 502.07 110.393 502.078 110.717 502.095C111.049 502.112 111.309 502.134 111.497 502.159V505.815C111.343 505.773 111.071 505.726 110.679 505.675C110.286 505.615 109.894 505.585 109.502 505.585C108.599 505.585 107.794 505.777 107.086 506.161C106.387 506.536 105.833 507.06 105.424 507.733C105.015 508.398 104.811 509.156 104.811 510.009V522H100.988ZM119.659 522.435C118.415 522.435 117.29 522.205 116.284 521.744C115.279 521.276 114.482 520.598 113.894 519.712C113.314 518.825 113.024 517.739 113.024 516.452C113.024 515.344 113.237 514.432 113.664 513.716C114.09 513 114.665 512.433 115.389 512.016C116.114 511.598 116.924 511.283 117.818 511.07C118.713 510.857 119.625 510.695 120.554 510.584C121.73 510.447 122.685 510.337 123.418 510.251C124.151 510.158 124.683 510.009 125.016 509.804C125.348 509.599 125.514 509.267 125.514 508.807V508.717C125.514 507.601 125.199 506.736 124.568 506.122C123.946 505.509 123.017 505.202 121.781 505.202C120.495 505.202 119.48 505.487 118.739 506.058C118.006 506.621 117.499 507.247 117.218 507.938L113.625 507.119C114.051 505.926 114.674 504.963 115.492 504.23C116.318 503.489 117.269 502.952 118.343 502.619C119.416 502.278 120.546 502.108 121.73 502.108C122.514 502.108 123.345 502.202 124.223 502.389C125.11 502.568 125.936 502.901 126.703 503.386C127.479 503.872 128.114 504.567 128.608 505.47C129.102 506.365 129.35 507.528 129.35 508.96V522H125.617V519.315H125.463C125.216 519.81 124.845 520.295 124.351 520.773C123.857 521.25 123.222 521.646 122.446 521.962C121.671 522.277 120.742 522.435 119.659 522.435ZM120.49 519.366C121.547 519.366 122.45 519.158 123.2 518.74C123.959 518.322 124.534 517.777 124.926 517.104C125.327 516.422 125.527 515.693 125.527 514.918V512.386C125.391 512.523 125.127 512.651 124.735 512.77C124.351 512.881 123.912 512.979 123.418 513.064C122.924 513.141 122.442 513.213 121.973 513.281C121.504 513.341 121.112 513.392 120.797 513.435C120.056 513.528 119.378 513.686 118.764 513.908C118.159 514.129 117.674 514.449 117.307 514.866C116.949 515.276 116.77 515.821 116.77 516.503C116.77 517.449 117.12 518.165 117.818 518.651C118.517 519.128 119.408 519.366 120.49 519.366ZM142.923 502.364V505.432H132.197V502.364H142.923ZM135.074 497.659H138.896V516.234C138.896 516.976 139.007 517.534 139.228 517.909C139.45 518.276 139.736 518.527 140.085 518.663C140.443 518.791 140.831 518.855 141.248 518.855C141.555 518.855 141.824 518.834 142.054 518.791C142.284 518.749 142.463 518.714 142.591 518.689L143.281 521.847C143.059 521.932 142.744 522.017 142.335 522.102C141.926 522.196 141.415 522.247 140.801 522.256C139.795 522.273 138.858 522.094 137.988 521.719C137.119 521.344 136.416 520.764 135.879 519.98C135.342 519.196 135.074 518.212 135.074 517.027V497.659ZM146.467 522V502.364H150.29V522H146.467ZM148.398 499.334C147.733 499.334 147.162 499.112 146.685 498.669C146.216 498.217 145.982 497.68 145.982 497.058C145.982 496.428 146.216 495.891 146.685 495.447C147.162 494.996 147.733 494.77 148.398 494.77C149.063 494.77 149.629 494.996 150.098 495.447C150.575 495.891 150.814 496.428 150.814 497.058C150.814 497.68 150.575 498.217 150.098 498.669C149.629 499.112 149.063 499.334 148.398 499.334ZM158.571 510.341V522H154.748V502.364H158.417V505.56H158.66C159.112 504.52 159.819 503.685 160.782 503.054C161.754 502.423 162.977 502.108 164.451 502.108C165.789 502.108 166.961 502.389 167.967 502.952C168.973 503.506 169.753 504.332 170.307 505.432C170.86 506.531 171.137 507.891 171.137 509.51V522H167.315V509.97C167.315 508.547 166.944 507.435 166.203 506.634C165.461 505.824 164.443 505.419 163.147 505.419C162.261 505.419 161.473 505.611 160.782 505.994C160.101 506.378 159.559 506.94 159.159 507.682C158.767 508.415 158.571 509.301 158.571 510.341ZM183.813 529.773C182.253 529.773 180.911 529.568 179.786 529.159C178.669 528.75 177.757 528.209 177.05 527.536C176.343 526.862 175.814 526.125 175.465 525.324L178.75 523.969C178.98 524.344 179.287 524.74 179.671 525.158C180.063 525.584 180.591 525.946 181.256 526.244C181.929 526.543 182.794 526.692 183.851 526.692C185.3 526.692 186.498 526.338 187.444 525.631C188.39 524.932 188.863 523.815 188.863 522.281V518.42H188.62C188.39 518.838 188.057 519.303 187.623 519.814C187.196 520.325 186.608 520.768 185.858 521.143C185.108 521.518 184.132 521.706 182.931 521.706C181.38 521.706 179.982 521.344 178.738 520.619C177.502 519.886 176.522 518.808 175.797 517.385C175.081 515.953 174.723 514.193 174.723 512.105C174.723 510.017 175.077 508.227 175.784 506.736C176.5 505.244 177.48 504.102 178.725 503.31C179.969 502.509 181.38 502.108 182.956 502.108C184.175 502.108 185.159 502.312 185.909 502.722C186.659 503.122 187.243 503.591 187.661 504.128C188.087 504.665 188.415 505.138 188.645 505.547H188.926V502.364H192.672V522.435C192.672 524.122 192.28 525.507 191.496 526.589C190.712 527.672 189.651 528.473 188.313 528.993C186.983 529.513 185.483 529.773 183.813 529.773ZM183.775 518.536C184.874 518.536 185.803 518.28 186.561 517.768C187.328 517.249 187.908 516.507 188.3 515.544C188.701 514.572 188.901 513.409 188.901 512.054C188.901 510.733 188.705 509.57 188.313 508.564C187.921 507.558 187.346 506.774 186.587 506.212C185.828 505.641 184.891 505.355 183.775 505.355C182.624 505.355 181.665 505.653 180.898 506.25C180.131 506.838 179.551 507.639 179.159 508.653C178.776 509.668 178.584 510.801 178.584 512.054C178.584 513.341 178.78 514.47 179.172 515.442C179.564 516.413 180.144 517.172 180.911 517.717C181.686 518.263 182.641 518.536 183.775 518.536ZM66.3721 556.696C66.2357 555.486 65.6732 554.548 64.6846 553.884C63.696 553.21 62.4517 552.874 60.9517 552.874C59.8778 552.874 58.9488 553.044 58.1647 553.385C57.3806 553.717 56.7713 554.178 56.3366 554.766C55.9105 555.345 55.6974 556.006 55.6974 556.747C55.6974 557.369 55.8423 557.906 56.1321 558.358C56.4303 558.81 56.8181 559.189 57.2954 559.496C57.7812 559.794 58.3011 560.045 58.8551 560.25C59.409 560.446 59.9417 560.608 60.4531 560.736L63.0099 561.401C63.8451 561.605 64.7017 561.882 65.5795 562.232C66.4573 562.581 67.2713 563.041 68.0213 563.612C68.7713 564.183 69.3764 564.891 69.8366 565.734C70.3053 566.578 70.5397 567.588 70.5397 568.764C70.5397 570.247 70.1562 571.564 69.3892 572.714C68.6306 573.865 67.5269 574.773 66.0781 575.438C64.6377 576.102 62.8948 576.435 60.8494 576.435C58.8892 576.435 57.1931 576.124 55.7613 575.501C54.3295 574.879 53.2088 573.997 52.3991 572.855C51.5894 571.705 51.142 570.341 51.0568 568.764H55.0198C55.0965 569.71 55.4034 570.499 55.9403 571.129C56.4857 571.751 57.1803 572.216 58.0241 572.523C58.8764 572.821 59.8096 572.97 60.8238 572.97C61.9403 572.97 62.9332 572.795 63.8025 572.446C64.6803 572.088 65.3707 571.594 65.8735 570.963C66.3764 570.324 66.6278 569.578 66.6278 568.726C66.6278 567.95 66.4062 567.315 65.963 566.821C65.5284 566.327 64.936 565.918 64.186 565.594C63.4446 565.27 62.6051 564.984 61.6676 564.737L58.5738 563.893C56.4772 563.322 54.8153 562.483 53.588 561.375C52.3693 560.267 51.7599 558.801 51.7599 556.977C51.7599 555.469 52.169 554.152 52.9872 553.027C53.8053 551.902 54.9133 551.028 56.311 550.406C57.7088 549.776 59.2855 549.46 61.0411 549.46C62.8139 549.46 64.3778 549.771 65.7329 550.393C67.0965 551.016 68.1704 551.872 68.9545 552.963C69.7386 554.045 70.1477 555.29 70.1818 556.696H66.3721ZM76.6856 583.364C76.1146 583.364 75.5947 583.317 75.126 583.223C74.6572 583.138 74.3078 583.044 74.0777 582.942L74.9981 579.81C75.697 579.997 76.3191 580.078 76.8646 580.053C77.4101 580.027 77.8916 579.822 78.3092 579.439C78.7353 579.055 79.1103 578.429 79.4342 577.56L79.9072 576.256L72.7226 556.364H76.8135L81.7865 571.602H81.991L86.964 556.364H91.0677L82.9754 578.621C82.6004 579.643 82.1231 580.509 81.5436 581.216C80.964 581.932 80.2737 582.469 79.4726 582.827C78.6714 583.185 77.7424 583.364 76.6856 583.364ZM108.691 561.158L105.226 561.771C105.081 561.328 104.851 560.906 104.536 560.506C104.229 560.105 103.811 559.777 103.283 559.521C102.754 559.266 102.094 559.138 101.301 559.138C100.219 559.138 99.3155 559.381 98.5911 559.866C97.8667 560.344 97.5045 560.962 97.5045 561.72C97.5045 562.376 97.7474 562.905 98.2332 563.305C98.7189 563.706 99.503 564.034 100.585 564.29L103.705 565.006C105.512 565.423 106.858 566.067 107.745 566.936C108.631 567.805 109.074 568.935 109.074 570.324C109.074 571.5 108.733 572.548 108.051 573.469C107.378 574.381 106.436 575.097 105.226 575.616C104.024 576.136 102.631 576.396 101.046 576.396C98.8468 576.396 97.0528 575.928 95.6636 574.99C94.2743 574.044 93.4221 572.702 93.1067 570.963L96.8013 570.401C97.0314 571.364 97.5045 572.092 98.2204 572.587C98.9363 573.072 99.8695 573.315 101.02 573.315C102.273 573.315 103.274 573.055 104.024 572.536C104.774 572.007 105.149 571.364 105.149 570.605C105.149 569.991 104.919 569.476 104.459 569.058C104.007 568.641 103.313 568.325 102.375 568.112L99.0513 567.384C97.2189 566.966 95.8638 566.301 94.986 565.389C94.1167 564.477 93.682 563.322 93.682 561.925C93.682 560.766 94.0059 559.751 94.6536 558.882C95.3013 558.013 96.1962 557.335 97.3383 556.849C98.4803 556.355 99.7886 556.108 101.263 556.108C103.385 556.108 105.056 556.568 106.274 557.489C107.493 558.401 108.298 559.624 108.691 561.158ZM121.759 556.364V559.432H111.033V556.364H121.759ZM113.91 551.659H117.732V570.234C117.732 570.976 117.843 571.534 118.064 571.909C118.286 572.276 118.572 572.527 118.921 572.663C119.279 572.791 119.667 572.855 120.084 572.855C120.391 572.855 120.66 572.834 120.89 572.791C121.12 572.749 121.299 572.714 121.427 572.689L122.117 575.847C121.895 575.932 121.58 576.017 121.171 576.102C120.762 576.196 120.251 576.247 119.637 576.256C118.631 576.273 117.694 576.094 116.824 575.719C115.955 575.344 115.252 574.764 114.715 573.98C114.178 573.196 113.91 572.212 113.91 571.027V551.659ZM133.555 576.396C131.621 576.396 129.955 575.983 128.557 575.156C127.168 574.321 126.094 573.149 125.335 571.641C124.585 570.124 124.21 568.347 124.21 566.31C124.21 564.298 124.585 562.526 125.335 560.991C126.094 559.457 127.151 558.26 128.506 557.399C129.869 556.538 131.463 556.108 133.287 556.108C134.395 556.108 135.469 556.291 136.509 556.658C137.548 557.024 138.482 557.599 139.308 558.384C140.135 559.168 140.787 560.186 141.264 561.439C141.742 562.683 141.98 564.196 141.98 565.977V567.332H126.371V564.469H138.234C138.234 563.463 138.03 562.572 137.621 561.797C137.212 561.013 136.636 560.395 135.895 559.943C135.162 559.491 134.301 559.266 133.313 559.266C132.239 559.266 131.301 559.53 130.5 560.058C129.707 560.578 129.094 561.26 128.659 562.104C128.233 562.939 128.02 563.847 128.02 564.827V567.064C128.02 568.376 128.25 569.493 128.71 570.413C129.179 571.334 129.831 572.037 130.666 572.523C131.502 573 132.477 573.239 133.594 573.239C134.318 573.239 134.979 573.136 135.575 572.932C136.172 572.719 136.688 572.403 137.122 571.986C137.557 571.568 137.889 571.053 138.119 570.439L141.737 571.091C141.448 572.156 140.928 573.089 140.178 573.891C139.436 574.683 138.503 575.301 137.378 575.744C136.261 576.179 134.987 576.396 133.555 576.396ZM145.537 576V556.364H149.206V559.56H149.449C149.858 558.477 150.527 557.634 151.456 557.028C152.385 556.415 153.498 556.108 154.793 556.108C156.106 556.108 157.205 556.415 158.091 557.028C158.986 557.642 159.647 558.486 160.073 559.56H160.277C160.746 558.511 161.492 557.676 162.515 557.054C163.537 556.423 164.756 556.108 166.171 556.108C167.952 556.108 169.405 556.666 170.53 557.783C171.664 558.899 172.231 560.582 172.231 562.832V576H168.408V563.19C168.408 561.861 168.046 560.898 167.321 560.301C166.597 559.705 165.732 559.406 164.726 559.406C163.482 559.406 162.515 559.79 161.824 560.557C161.134 561.315 160.789 562.291 160.789 563.484V576H156.979V562.947C156.979 561.882 156.647 561.026 155.982 560.378C155.317 559.73 154.452 559.406 153.387 559.406C152.662 559.406 151.993 559.598 151.38 559.982C150.775 560.357 150.284 560.881 149.909 561.554C149.543 562.227 149.36 563.007 149.36 563.893V576H145.537Z" fill="black" fill-opacity="0.8"/>
<path d="M385.5 404C385.5 403.172 384.828 402.5 384 402.5C383.172 402.5 382.5 403.172 382.5 404H385.5ZM110.939 445.061C111.525 445.646 112.475 445.646 113.061 445.061L122.607 435.515C123.192 434.929 123.192 433.979 122.607 433.393C122.021 432.808 121.071 432.808 120.485 433.393L112 441.879L103.515 433.393C102.929 432.808 101.979 432.808 101.393 433.393C100.808 433.979 100.808 434.929 101.393 435.515L110.939 445.061ZM112 444H113.5H112ZM384 404H385.5H384ZM364 422.5H132V425.5H364V422.5ZM132 422.5C120.126 422.5 110.5 432.126 110.5 444H113.5C113.5 433.783 121.783 425.5 132 425.5V422.5ZM382.5 404C382.5 414.217 374.217 422.5 364 422.5V425.5C375.874 425.5 385.5 415.874 385.5 404H382.5Z" fill="#B3B3B3"/>
<rect x="248" y="448" width="224" height="176" rx="80" fill="#AFF4C6"/>
<path d="M317.639 522.818H321.602V540.038C321.602 541.871 321.171 543.494 320.31 544.909C319.45 546.315 318.239 547.423 316.68 548.233C315.12 549.034 313.292 549.435 311.195 549.435C309.107 549.435 307.283 549.034 305.724 548.233C304.164 547.423 302.954 546.315 302.093 544.909C301.232 543.494 300.802 541.871 300.802 540.038V522.818H304.752V539.719C304.752 540.903 305.012 541.956 305.532 542.876C306.06 543.797 306.806 544.521 307.769 545.05C308.732 545.57 309.874 545.83 311.195 545.83C312.525 545.83 313.671 545.57 314.634 545.05C315.606 544.521 316.347 543.797 316.859 542.876C317.379 541.956 317.639 540.903 317.639 539.719V522.818ZM335.52 529.364V532.432H324.794V529.364H335.52ZM327.671 524.659H331.493V543.234C331.493 543.976 331.604 544.534 331.826 544.909C332.047 545.276 332.333 545.527 332.682 545.663C333.04 545.791 333.428 545.855 333.846 545.855C334.152 545.855 334.421 545.834 334.651 545.791C334.881 545.749 335.06 545.714 335.188 545.689L335.878 548.847C335.657 548.932 335.341 549.017 334.932 549.102C334.523 549.196 334.012 549.247 333.398 549.256C332.392 549.273 331.455 549.094 330.586 548.719C329.716 548.344 329.013 547.764 328.476 546.98C327.939 546.196 327.671 545.212 327.671 544.027V524.659ZM339.065 549V529.364H342.887V549H339.065ZM340.995 526.334C340.33 526.334 339.759 526.112 339.282 525.669C338.813 525.217 338.579 524.68 338.579 524.058C338.579 523.428 338.813 522.891 339.282 522.447C339.759 521.996 340.33 521.77 340.995 521.77C341.66 521.77 342.226 521.996 342.695 522.447C343.173 522.891 343.411 523.428 343.411 524.058C343.411 524.68 343.173 525.217 342.695 525.669C342.226 526.112 341.66 526.334 340.995 526.334ZM351.168 522.818V549H347.345V522.818H351.168ZM355.626 549V529.364H359.449V549H355.626ZM357.557 526.334C356.892 526.334 356.321 526.112 355.844 525.669C355.375 525.217 355.14 524.68 355.14 524.058C355.14 523.428 355.375 522.891 355.844 522.447C356.321 521.996 356.892 521.77 357.557 521.77C358.221 521.77 358.788 521.996 359.257 522.447C359.734 522.891 359.973 523.428 359.973 524.058C359.973 524.68 359.734 525.217 359.257 525.669C358.788 526.112 358.221 526.334 357.557 526.334ZM373.073 529.364V532.432H362.347V529.364H373.073ZM365.224 524.659H369.046V543.234C369.046 543.976 369.157 544.534 369.379 544.909C369.6 545.276 369.886 545.527 370.235 545.663C370.593 545.791 370.981 545.855 371.399 545.855C371.705 545.855 371.974 545.834 372.204 545.791C372.434 545.749 372.613 545.714 372.741 545.689L373.431 548.847C373.21 548.932 372.894 549.017 372.485 549.102C372.076 549.196 371.565 549.247 370.951 549.256C369.945 549.273 369.008 549.094 368.139 548.719C367.269 548.344 366.566 547.764 366.029 546.98C365.492 546.196 365.224 545.212 365.224 544.027V524.659ZM376.618 549V529.364H380.44V549H376.618ZM378.548 526.334C377.883 526.334 377.312 526.112 376.835 525.669C376.366 525.217 376.132 524.68 376.132 524.058C376.132 523.428 376.366 522.891 376.835 522.447C377.312 521.996 377.883 521.77 378.548 521.77C379.213 521.77 379.78 521.996 380.248 522.447C380.726 522.891 380.964 523.428 380.964 524.058C380.964 524.68 380.726 525.217 380.248 525.669C379.78 526.112 379.213 526.334 378.548 526.334ZM393.362 549.396C391.427 549.396 389.761 548.983 388.363 548.156C386.974 547.321 385.9 546.149 385.141 544.641C384.391 543.124 384.016 541.347 384.016 539.31C384.016 537.298 384.391 535.526 385.141 533.991C385.9 532.457 386.957 531.26 388.312 530.399C389.675 529.538 391.269 529.108 393.093 529.108C394.201 529.108 395.275 529.291 396.315 529.658C397.354 530.024 398.288 530.599 399.114 531.384C399.941 532.168 400.593 533.186 401.07 534.439C401.548 535.683 401.786 537.196 401.786 538.977V540.332H386.177V537.469H398.041C398.041 536.463 397.836 535.572 397.427 534.797C397.018 534.013 396.442 533.395 395.701 532.943C394.968 532.491 394.107 532.266 393.119 532.266C392.045 532.266 391.107 532.53 390.306 533.058C389.514 533.578 388.9 534.26 388.465 535.104C388.039 535.939 387.826 536.847 387.826 537.827V540.064C387.826 541.376 388.056 542.493 388.516 543.413C388.985 544.334 389.637 545.037 390.472 545.523C391.308 546 392.283 546.239 393.4 546.239C394.124 546.239 394.785 546.136 395.381 545.932C395.978 545.719 396.494 545.403 396.928 544.986C397.363 544.568 397.695 544.053 397.925 543.439L401.543 544.091C401.254 545.156 400.734 546.089 399.984 546.891C399.242 547.683 398.309 548.301 397.184 548.744C396.067 549.179 394.793 549.396 393.362 549.396ZM420.058 534.158L416.593 534.771C416.448 534.328 416.218 533.906 415.903 533.506C415.596 533.105 415.179 532.777 414.65 532.521C414.122 532.266 413.461 532.138 412.669 532.138C411.586 532.138 410.683 532.381 409.958 532.866C409.234 533.344 408.872 533.962 408.872 534.72C408.872 535.376 409.115 535.905 409.6 536.305C410.086 536.706 410.87 537.034 411.953 537.29L415.072 538.006C416.879 538.423 418.225 539.067 419.112 539.936C419.998 540.805 420.441 541.935 420.441 543.324C420.441 544.5 420.1 545.548 419.419 546.469C418.745 547.381 417.804 548.097 416.593 548.616C415.392 549.136 413.998 549.396 412.413 549.396C410.214 549.396 408.42 548.928 407.031 547.99C405.642 547.044 404.789 545.702 404.474 543.963L408.169 543.401C408.399 544.364 408.872 545.092 409.588 545.587C410.304 546.072 411.237 546.315 412.387 546.315C413.64 546.315 414.642 546.055 415.392 545.536C416.142 545.007 416.517 544.364 416.517 543.605C416.517 542.991 416.287 542.476 415.826 542.058C415.375 541.641 414.68 541.325 413.743 541.112L410.419 540.384C408.586 539.966 407.231 539.301 406.353 538.389C405.484 537.477 405.049 536.322 405.049 534.925C405.049 533.766 405.373 532.751 406.021 531.882C406.669 531.013 407.564 530.335 408.706 529.849C409.848 529.355 411.156 529.108 412.63 529.108C414.752 529.108 416.423 529.568 417.642 530.489C418.86 531.401 419.666 532.624 420.058 534.158Z" fill="black" fill-opacity="0.8"/>
<path d="M385.5 404C385.5 403.172 384.828 402.5 384 402.5C383.172 402.5 382.5 403.172 382.5 404H385.5ZM358.939 445.061C359.525 445.646 360.475 445.646 361.061 445.061L370.607 435.515C371.192 434.929 371.192 433.979 370.607 433.393C370.021 432.808 369.071 432.808 368.485 433.393L360 441.879L351.515 433.393C350.929 432.808 349.979 432.808 349.393 433.393C348.808 433.979 348.808 434.929 349.393 435.515L358.939 445.061ZM372 422.5C371.172 422.5 370.5 423.172 370.5 424C370.5 424.828 371.172 425.5 372 425.5V422.5ZM382.5 404V412H385.5V404H382.5ZM358.5 436V444H361.5V436H358.5ZM372 422.5C364.544 422.5 358.5 428.544 358.5 436H361.5C361.5 430.201 366.201 425.5 372 425.5V422.5ZM382.5 412C382.5 417.799 377.799 422.5 372 422.5V425.5C379.456 425.5 385.5 419.456 385.5 412H382.5Z" fill="#B3B3B3"/>
<rect x="744" y="448" width="224" height="176" rx="80" fill="#FFE8A3"/>
<path d="M812.867 502.696C812.73 501.486 812.168 500.548 811.179 499.884C810.191 499.21 808.946 498.874 807.446 498.874C806.372 498.874 805.443 499.044 804.659 499.385C803.875 499.717 803.266 500.178 802.831 500.766C802.405 501.345 802.192 502.006 802.192 502.747C802.192 503.369 802.337 503.906 802.627 504.358C802.925 504.81 803.313 505.189 803.79 505.496C804.276 505.794 804.796 506.045 805.35 506.25C805.904 506.446 806.436 506.608 806.948 506.736L809.504 507.401C810.34 507.605 811.196 507.882 812.074 508.232C812.952 508.581 813.766 509.041 814.516 509.612C815.266 510.183 815.871 510.891 816.331 511.734C816.8 512.578 817.034 513.588 817.034 514.764C817.034 516.247 816.651 517.564 815.884 518.714C815.125 519.865 814.021 520.773 812.573 521.438C811.132 522.102 809.389 522.435 807.344 522.435C805.384 522.435 803.688 522.124 802.256 521.501C800.824 520.879 799.703 519.997 798.894 518.855C798.084 517.705 797.637 516.341 797.551 514.764H801.514C801.591 515.71 801.898 516.499 802.435 517.129C802.98 517.751 803.675 518.216 804.519 518.523C805.371 518.821 806.304 518.97 807.318 518.97C808.435 518.97 809.428 518.795 810.297 518.446C811.175 518.088 811.865 517.594 812.368 516.963C812.871 516.324 813.122 515.578 813.122 514.726C813.122 513.95 812.901 513.315 812.458 512.821C812.023 512.327 811.431 511.918 810.681 511.594C809.939 511.27 809.1 510.984 808.162 510.737L805.068 509.893C802.972 509.322 801.31 508.483 800.083 507.375C798.864 506.267 798.254 504.801 798.254 502.977C798.254 501.469 798.664 500.152 799.482 499.027C800.3 497.902 801.408 497.028 802.806 496.406C804.203 495.776 805.78 495.46 807.536 495.46C809.308 495.46 810.872 495.771 812.227 496.393C813.591 497.016 814.665 497.872 815.449 498.963C816.233 500.045 816.642 501.29 816.676 502.696H812.867ZM820.764 529.364V502.364H824.497V505.547H824.817C825.038 505.138 825.358 504.665 825.775 504.128C826.193 503.591 826.772 503.122 827.514 502.722C828.255 502.312 829.236 502.108 830.454 502.108C832.04 502.108 833.454 502.509 834.699 503.31C835.943 504.111 836.919 505.266 837.626 506.774C838.342 508.283 838.7 510.098 838.7 512.22C838.7 514.342 838.346 516.162 837.639 517.679C836.932 519.187 835.96 520.351 834.724 521.169C833.488 521.979 832.078 522.384 830.493 522.384C829.299 522.384 828.324 522.183 827.565 521.783C826.815 521.382 826.227 520.913 825.801 520.376C825.375 519.839 825.047 519.362 824.817 518.945H824.586V529.364H820.764ZM824.51 512.182C824.51 513.562 824.71 514.773 825.111 515.812C825.511 516.852 826.091 517.666 826.849 518.254C827.608 518.834 828.537 519.124 829.636 519.124C830.778 519.124 831.733 518.821 832.5 518.216C833.267 517.602 833.846 516.771 834.238 515.723C834.639 514.675 834.839 513.494 834.839 512.182C834.839 510.886 834.643 509.723 834.251 508.692C833.868 507.661 833.288 506.847 832.513 506.25C831.746 505.653 830.787 505.355 829.636 505.355C828.528 505.355 827.591 505.641 826.824 506.212C826.065 506.783 825.49 507.58 825.098 508.602C824.706 509.625 824.51 510.818 824.51 512.182ZM850.762 522.396C848.827 522.396 847.161 521.983 845.763 521.156C844.374 520.321 843.3 519.149 842.542 517.641C841.792 516.124 841.417 514.347 841.417 512.31C841.417 510.298 841.792 508.526 842.542 506.991C843.3 505.457 844.357 504.26 845.712 503.399C847.076 502.538 848.669 502.108 850.493 502.108C851.601 502.108 852.675 502.291 853.715 502.658C854.755 503.024 855.688 503.599 856.515 504.384C857.341 505.168 857.993 506.186 858.471 507.439C858.948 508.683 859.187 510.196 859.187 511.977V513.332H843.577V510.469H855.441C855.441 509.463 855.236 508.572 854.827 507.797C854.418 507.013 853.843 506.395 853.101 505.943C852.368 505.491 851.508 505.266 850.519 505.266C849.445 505.266 848.508 505.53 847.706 506.058C846.914 506.578 846.3 507.26 845.865 508.104C845.439 508.939 845.226 509.847 845.226 510.827V513.064C845.226 514.376 845.456 515.493 845.917 516.413C846.385 517.334 847.037 518.037 847.873 518.523C848.708 519 849.684 519.239 850.8 519.239C851.525 519.239 852.185 519.136 852.782 518.932C853.378 518.719 853.894 518.403 854.329 517.986C854.763 517.568 855.096 517.053 855.326 516.439L858.944 517.091C858.654 518.156 858.134 519.089 857.384 519.891C856.642 520.683 855.709 521.301 854.584 521.744C853.468 522.179 852.194 522.396 850.762 522.396ZM871.015 522.396C869.114 522.396 867.478 521.966 866.106 521.105C864.742 520.236 863.694 519.038 862.961 517.513C862.228 515.987 861.862 514.24 861.862 512.271C861.862 510.277 862.237 508.517 862.987 506.991C863.737 505.457 864.793 504.26 866.157 503.399C867.521 502.538 869.127 502.108 870.977 502.108C872.468 502.108 873.798 502.385 874.965 502.939C876.133 503.484 877.075 504.251 877.791 505.24C878.515 506.229 878.945 507.384 879.082 508.705H875.362C875.157 507.784 874.688 506.991 873.955 506.327C873.231 505.662 872.259 505.33 871.041 505.33C869.975 505.33 869.042 505.611 868.241 506.173C867.448 506.727 866.83 507.52 866.387 508.551C865.944 509.574 865.722 510.784 865.722 512.182C865.722 513.614 865.94 514.849 866.374 515.889C866.809 516.929 867.423 517.734 868.215 518.305C869.016 518.876 869.958 519.162 871.041 519.162C871.765 519.162 872.421 519.03 873.009 518.766C873.606 518.493 874.104 518.105 874.505 517.602C874.914 517.099 875.2 516.494 875.362 515.787H879.082C878.945 517.057 878.532 518.19 877.842 519.188C877.151 520.185 876.227 520.969 875.067 521.54C873.917 522.111 872.566 522.396 871.015 522.396ZM882.485 522V502.364H886.308V522H882.485ZM884.416 499.334C883.751 499.334 883.18 499.112 882.703 498.669C882.234 498.217 882 497.68 882 497.058C882 496.428 882.234 495.891 882.703 495.447C883.18 494.996 883.751 494.77 884.416 494.77C885.081 494.77 885.647 494.996 886.116 495.447C886.593 495.891 886.832 496.428 886.832 497.058C886.832 497.68 886.593 498.217 886.116 498.669C885.647 499.112 885.081 499.334 884.416 499.334ZM896.481 522.435C895.236 522.435 894.111 522.205 893.106 521.744C892.1 521.276 891.303 520.598 890.715 519.712C890.136 518.825 889.846 517.739 889.846 516.452C889.846 515.344 890.059 514.432 890.485 513.716C890.911 513 891.486 512.433 892.211 512.016C892.935 511.598 893.745 511.283 894.64 511.07C895.535 510.857 896.447 510.695 897.376 510.584C898.552 510.447 899.506 510.337 900.239 510.251C900.972 510.158 901.505 510.009 901.837 509.804C902.17 509.599 902.336 509.267 902.336 508.807V508.717C902.336 507.601 902.021 506.736 901.39 506.122C900.768 505.509 899.839 505.202 898.603 505.202C897.316 505.202 896.302 505.487 895.56 506.058C894.827 506.621 894.32 507.247 894.039 507.938L890.447 507.119C890.873 505.926 891.495 504.963 892.313 504.23C893.14 503.489 894.09 502.952 895.164 502.619C896.238 502.278 897.367 502.108 898.552 502.108C899.336 502.108 900.167 502.202 901.045 502.389C901.931 502.568 902.758 502.901 903.525 503.386C904.3 503.872 904.935 504.567 905.43 505.47C905.924 506.365 906.171 507.528 906.171 508.96V522H902.438V519.315H902.285C902.038 519.81 901.667 520.295 901.173 520.773C900.678 521.25 900.043 521.646 899.268 521.962C898.492 522.277 897.563 522.435 896.481 522.435ZM897.312 519.366C898.369 519.366 899.272 519.158 900.022 518.74C900.78 518.322 901.356 517.777 901.748 517.104C902.148 516.422 902.349 515.693 902.349 514.918V512.386C902.212 512.523 901.948 512.651 901.556 512.77C901.173 512.881 900.734 512.979 900.239 513.064C899.745 513.141 899.263 513.213 898.795 513.281C898.326 513.341 897.934 513.392 897.619 513.435C896.877 513.528 896.199 513.686 895.586 513.908C894.981 514.129 894.495 514.449 894.128 514.866C893.771 515.276 893.592 515.821 893.592 516.503C893.592 517.449 893.941 518.165 894.64 518.651C895.339 519.128 896.229 519.366 897.312 519.366ZM914.401 495.818V522H910.578V495.818H914.401ZM789.632 576V549.818H798.964C801.001 549.818 802.688 550.189 804.026 550.93C805.365 551.672 806.366 552.686 807.031 553.973C807.695 555.251 808.028 556.692 808.028 558.294C808.028 559.905 807.691 561.354 807.018 562.641C806.353 563.919 805.347 564.933 804.001 565.683C802.663 566.425 800.98 566.795 798.951 566.795H792.534V563.446H798.593C799.88 563.446 800.924 563.224 801.725 562.781C802.526 562.33 803.115 561.716 803.49 560.94C803.865 560.165 804.052 559.283 804.052 558.294C804.052 557.305 803.865 556.428 803.49 555.661C803.115 554.893 802.522 554.293 801.713 553.858C800.911 553.423 799.855 553.206 798.542 553.206H793.582V576H789.632ZM824.107 567.857V556.364H827.942V576H824.184V572.599H823.979C823.527 573.648 822.803 574.521 821.806 575.22C820.817 575.911 819.586 576.256 818.111 576.256C816.85 576.256 815.733 575.979 814.762 575.425C813.799 574.862 813.04 574.031 812.486 572.932C811.941 571.832 811.668 570.473 811.668 568.854V556.364H815.491V568.393C815.491 569.732 815.861 570.797 816.603 571.589C817.344 572.382 818.307 572.778 819.492 572.778C820.208 572.778 820.919 572.599 821.627 572.241C822.343 571.884 822.935 571.342 823.404 570.618C823.881 569.893 824.116 568.973 824.107 567.857ZM832.394 576V556.364H836.089V559.483H836.293C836.651 558.426 837.282 557.595 838.185 556.99C839.097 556.376 840.129 556.07 841.279 556.07C841.518 556.07 841.799 556.078 842.123 556.095C842.455 556.112 842.715 556.134 842.903 556.159V559.815C842.749 559.773 842.477 559.726 842.085 559.675C841.693 559.615 841.3 559.585 840.908 559.585C840.005 559.585 839.2 559.777 838.492 560.161C837.793 560.536 837.239 561.06 836.83 561.733C836.421 562.398 836.217 563.156 836.217 564.009V576H832.394ZM845.527 583.364V556.364H849.26V559.547H849.579C849.801 559.138 850.12 558.665 850.538 558.128C850.956 557.591 851.535 557.122 852.277 556.722C853.018 556.312 853.998 556.108 855.217 556.108C856.802 556.108 858.217 556.509 859.461 557.31C860.706 558.111 861.681 559.266 862.389 560.774C863.105 562.283 863.463 564.098 863.463 566.22C863.463 568.342 863.109 570.162 862.402 571.679C861.694 573.187 860.723 574.351 859.487 575.169C858.251 575.979 856.841 576.384 855.255 576.384C854.062 576.384 853.086 576.183 852.328 575.783C851.578 575.382 850.99 574.913 850.564 574.376C850.137 573.839 849.809 573.362 849.579 572.945H849.349V583.364H845.527ZM849.272 566.182C849.272 567.562 849.473 568.773 849.873 569.812C850.274 570.852 850.853 571.666 851.612 572.254C852.37 572.834 853.299 573.124 854.399 573.124C855.541 573.124 856.495 572.821 857.262 572.216C858.029 571.602 858.609 570.771 859.001 569.723C859.402 568.675 859.602 567.494 859.602 566.182C859.602 564.886 859.406 563.723 859.014 562.692C858.63 561.661 858.051 560.847 857.275 560.25C856.508 559.653 855.549 559.355 854.399 559.355C853.291 559.355 852.353 559.641 851.586 560.212C850.828 560.783 850.252 561.58 849.86 562.602C849.468 563.625 849.272 564.818 849.272 566.182ZM875.333 576.396C873.492 576.396 871.885 575.974 870.513 575.131C869.141 574.287 868.076 573.107 867.317 571.589C866.559 570.072 866.179 568.3 866.179 566.271C866.179 564.234 866.559 562.453 867.317 560.928C868.076 559.402 869.141 558.217 870.513 557.374C871.885 556.53 873.492 556.108 875.333 556.108C877.174 556.108 878.78 556.53 880.152 557.374C881.524 558.217 882.59 559.402 883.348 560.928C884.107 562.453 884.486 564.234 884.486 566.271C884.486 568.3 884.107 570.072 883.348 571.589C882.59 573.107 881.524 574.287 880.152 575.131C878.78 575.974 877.174 576.396 875.333 576.396ZM875.345 573.188C876.539 573.188 877.527 572.872 878.311 572.241C879.095 571.611 879.675 570.771 880.05 569.723C880.434 568.675 880.625 567.52 880.625 566.259C880.625 565.006 880.434 563.855 880.05 562.807C879.675 561.75 879.095 560.902 878.311 560.263C877.527 559.624 876.539 559.304 875.345 559.304C874.144 559.304 873.147 559.624 872.354 560.263C871.57 560.902 870.986 561.75 870.603 562.807C870.228 563.855 870.04 565.006 870.04 566.259C870.04 567.52 870.228 568.675 870.603 569.723C870.986 570.771 871.57 571.611 872.354 572.241C873.147 572.872 874.144 573.188 875.345 573.188ZM902.783 561.158L899.319 561.771C899.174 561.328 898.944 560.906 898.628 560.506C898.322 560.105 897.904 559.777 897.376 559.521C896.847 559.266 896.187 559.138 895.394 559.138C894.312 559.138 893.408 559.381 892.684 559.866C891.959 560.344 891.597 560.962 891.597 561.72C891.597 562.376 891.84 562.905 892.326 563.305C892.812 563.706 893.596 564.034 894.678 564.29L897.797 565.006C899.604 565.423 900.951 566.067 901.837 566.936C902.724 567.805 903.167 568.935 903.167 570.324C903.167 571.5 902.826 572.548 902.144 573.469C901.471 574.381 900.529 575.097 899.319 575.616C898.117 576.136 896.724 576.396 895.138 576.396C892.94 576.396 891.145 575.928 889.756 574.99C888.367 574.044 887.515 572.702 887.199 570.963L890.894 570.401C891.124 571.364 891.597 572.092 892.313 572.587C893.029 573.072 893.962 573.315 895.113 573.315C896.366 573.315 897.367 573.055 898.117 572.536C898.867 572.007 899.242 571.364 899.242 570.605C899.242 569.991 899.012 569.476 898.552 569.058C898.1 568.641 897.405 568.325 896.468 568.112L893.144 567.384C891.312 566.966 889.957 566.301 889.079 565.389C888.209 564.477 887.775 563.322 887.775 561.925C887.775 560.766 888.099 559.751 888.746 558.882C889.394 558.013 890.289 557.335 891.431 556.849C892.573 556.355 893.881 556.108 895.356 556.108C897.478 556.108 899.148 556.568 900.367 557.489C901.586 558.401 902.391 559.624 902.783 561.158ZM915.149 576.396C913.214 576.396 911.548 575.983 910.15 575.156C908.761 574.321 907.687 573.149 906.928 571.641C906.178 570.124 905.803 568.347 905.803 566.31C905.803 564.298 906.178 562.526 906.928 560.991C907.687 559.457 908.744 558.26 910.099 557.399C911.463 556.538 913.056 556.108 914.88 556.108C915.988 556.108 917.062 556.291 918.102 556.658C919.142 557.024 920.075 557.599 920.901 558.384C921.728 559.168 922.38 560.186 922.857 561.439C923.335 562.683 923.573 564.196 923.573 565.977V567.332H907.964V564.469H919.828C919.828 563.463 919.623 562.572 919.214 561.797C918.805 561.013 918.23 560.395 917.488 559.943C916.755 559.491 915.894 559.266 914.906 559.266C913.832 559.266 912.894 559.53 912.093 560.058C911.301 560.578 910.687 561.26 910.252 562.104C909.826 562.939 909.613 563.847 909.613 564.827V567.064C909.613 568.376 909.843 569.493 910.303 570.413C910.772 571.334 911.424 572.037 912.259 572.523C913.095 573 914.071 573.239 915.187 573.239C915.911 573.239 916.572 573.136 917.169 572.932C917.765 572.719 918.281 572.403 918.715 571.986C919.15 571.568 919.482 571.053 919.713 570.439L923.33 571.091C923.041 572.156 922.521 573.089 921.771 573.891C921.029 574.683 920.096 575.301 918.971 575.744C917.855 576.179 916.58 576.396 915.149 576.396Z" fill="black" fill-opacity="0.8"/>
<path d="M641.5 404C641.5 403.172 640.828 402.5 640 402.5C639.172 402.5 638.5 403.172 638.5 404H641.5ZM854.939 445.061C855.525 445.646 856.475 445.646 857.061 445.061L866.607 435.515C867.192 434.929 867.192 433.979 866.607 433.393C866.021 432.808 865.071 432.808 864.485 433.393L856 441.879L847.515 433.393C846.929 432.808 845.979 432.808 845.393 433.393C844.808 433.979 844.808 434.929 845.393 435.515L854.939 445.061ZM856 444H857.5H856ZM640 404H641.5H640ZM660 425.5H836V422.5H660V425.5ZM836 425.5C846.217 425.5 854.5 433.783 854.5 444H857.5C857.5 432.126 847.874 422.5 836 422.5V425.5ZM638.5 404C638.5 415.874 648.126 425.5 660 425.5V422.5C649.783 422.5 641.5 414.217 641.5 404H638.5Z" fill="#B3B3B3"/>
<rect x="496" y="448" width="224" height="176" rx="80" fill="#FFE8A3"/>
<path d="M564.069 504.089C563.822 503.314 563.49 502.619 563.072 502.006C562.663 501.384 562.173 500.855 561.602 500.42C561.031 499.977 560.379 499.641 559.646 499.411C558.922 499.18 558.125 499.065 557.255 499.065C555.781 499.065 554.451 499.445 553.267 500.203C552.082 500.962 551.145 502.074 550.454 503.54C549.772 504.997 549.431 506.783 549.431 508.896C549.431 511.018 549.777 512.812 550.467 514.278C551.157 515.744 552.103 516.857 553.305 517.615C554.507 518.374 555.875 518.753 557.409 518.753C558.832 518.753 560.072 518.463 561.129 517.884C562.194 517.304 563.017 516.486 563.596 515.429C564.184 514.364 564.478 513.111 564.478 511.67L565.501 511.862H558.01V508.602H568.301V511.581C568.301 513.78 567.832 515.689 566.895 517.308C565.966 518.919 564.679 520.163 563.034 521.041C561.397 521.919 559.522 522.358 557.409 522.358C555.039 522.358 552.96 521.812 551.17 520.722C549.389 519.631 548 518.084 547.002 516.081C546.005 514.07 545.507 511.683 545.507 508.922C545.507 506.834 545.797 504.959 546.376 503.297C546.956 501.635 547.77 500.224 548.818 499.065C549.875 497.898 551.115 497.007 552.538 496.393C553.97 495.771 555.534 495.46 557.23 495.46C558.645 495.46 559.961 495.669 561.18 496.087C562.407 496.504 563.498 497.097 564.453 497.864C565.416 498.631 566.213 499.543 566.843 500.599C567.474 501.648 567.9 502.811 568.122 504.089H564.069ZM580.788 522.396C578.853 522.396 577.187 521.983 575.789 521.156C574.4 520.321 573.326 519.149 572.567 517.641C571.817 516.124 571.442 514.347 571.442 512.31C571.442 510.298 571.817 508.526 572.567 506.991C573.326 505.457 574.383 504.26 575.738 503.399C577.102 502.538 578.695 502.108 580.519 502.108C581.627 502.108 582.701 502.291 583.741 502.658C584.78 503.024 585.714 503.599 586.54 504.384C587.367 505.168 588.019 506.186 588.496 507.439C588.974 508.683 589.212 510.196 589.212 511.977V513.332H573.603V510.469H585.467C585.467 509.463 585.262 508.572 584.853 507.797C584.444 507.013 583.869 506.395 583.127 505.943C582.394 505.491 581.533 505.266 580.545 505.266C579.471 505.266 578.533 505.53 577.732 506.058C576.94 506.578 576.326 507.26 575.891 508.104C575.465 508.939 575.252 509.847 575.252 510.827V513.064C575.252 514.376 575.482 515.493 575.942 516.413C576.411 517.334 577.063 518.037 577.898 518.523C578.734 519 579.709 519.239 580.826 519.239C581.55 519.239 582.211 519.136 582.807 518.932C583.404 518.719 583.92 518.403 584.354 517.986C584.789 517.568 585.121 517.053 585.352 516.439L588.969 517.091C588.68 518.156 588.16 519.089 587.41 519.891C586.668 520.683 585.735 521.301 584.61 521.744C583.494 522.179 582.219 522.396 580.788 522.396ZM596.592 510.341V522H592.769V502.364H596.438V505.56H596.681C597.133 504.52 597.84 503.685 598.804 503.054C599.775 502.423 600.998 502.108 602.473 502.108C603.811 502.108 604.982 502.389 605.988 502.952C606.994 503.506 607.774 504.332 608.328 505.432C608.882 506.531 609.159 507.891 609.159 509.51V522H605.336V509.97C605.336 508.547 604.965 507.435 604.224 506.634C603.482 505.824 602.464 505.419 601.169 505.419C600.282 505.419 599.494 505.611 598.804 505.994C598.122 506.378 597.581 506.94 597.18 507.682C596.788 508.415 596.592 509.301 596.592 510.341ZM622.064 522.396C620.129 522.396 618.463 521.983 617.066 521.156C615.676 520.321 614.602 519.149 613.844 517.641C613.094 516.124 612.719 514.347 612.719 512.31C612.719 510.298 613.094 508.526 613.844 506.991C614.602 505.457 615.659 504.26 617.014 503.399C618.378 502.538 619.972 502.108 621.796 502.108C622.904 502.108 623.977 502.291 625.017 502.658C626.057 503.024 626.99 503.599 627.817 504.384C628.644 505.168 629.296 506.186 629.773 507.439C630.25 508.683 630.489 510.196 630.489 511.977V513.332H614.879V510.469H626.743C626.743 509.463 626.539 508.572 626.129 507.797C625.72 507.013 625.145 506.395 624.404 505.943C623.671 505.491 622.81 505.266 621.821 505.266C620.747 505.266 619.81 505.53 619.009 506.058C618.216 506.578 617.602 507.26 617.168 508.104C616.742 508.939 616.529 509.847 616.529 510.827V513.064C616.529 514.376 616.759 515.493 617.219 516.413C617.688 517.334 618.34 518.037 619.175 518.523C620.01 519 620.986 519.239 622.102 519.239C622.827 519.239 623.487 519.136 624.084 518.932C624.681 518.719 625.196 518.403 625.631 517.986C626.066 517.568 626.398 517.053 626.628 516.439L630.246 517.091C629.956 518.156 629.436 519.089 628.686 519.891C627.945 520.683 627.012 521.301 625.887 521.744C624.77 522.179 623.496 522.396 622.064 522.396ZM634.046 522V502.364H637.741V505.483H637.945C638.303 504.426 638.934 503.595 639.837 502.99C640.749 502.376 641.78 502.07 642.931 502.07C643.17 502.07 643.451 502.078 643.775 502.095C644.107 502.112 644.367 502.134 644.554 502.159V505.815C644.401 505.773 644.128 505.726 643.736 505.675C643.344 505.615 642.952 505.585 642.56 505.585C641.657 505.585 640.851 505.777 640.144 506.161C639.445 506.536 638.891 507.06 638.482 507.733C638.073 508.398 637.868 509.156 637.868 510.009V522H634.046ZM652.717 522.435C651.473 522.435 650.348 522.205 649.342 521.744C648.336 521.276 647.54 520.598 646.951 519.712C646.372 518.825 646.082 517.739 646.082 516.452C646.082 515.344 646.295 514.432 646.721 513.716C647.147 513 647.723 512.433 648.447 512.016C649.172 511.598 649.981 511.283 650.876 511.07C651.771 510.857 652.683 510.695 653.612 510.584C654.788 510.447 655.743 510.337 656.476 510.251C657.209 510.158 657.741 510.009 658.074 509.804C658.406 509.599 658.572 509.267 658.572 508.807V508.717C658.572 507.601 658.257 506.736 657.626 506.122C657.004 505.509 656.075 505.202 654.839 505.202C653.552 505.202 652.538 505.487 651.797 506.058C651.064 506.621 650.557 507.247 650.275 507.938L646.683 507.119C647.109 505.926 647.731 504.963 648.549 504.23C649.376 503.489 650.326 502.952 651.4 502.619C652.474 502.278 653.603 502.108 654.788 502.108C655.572 502.108 656.403 502.202 657.281 502.389C658.167 502.568 658.994 502.901 659.761 503.386C660.537 503.872 661.172 504.567 661.666 505.47C662.16 506.365 662.407 507.528 662.407 508.96V522H658.674V519.315H658.521C658.274 519.81 657.903 520.295 657.409 520.773C656.915 521.25 656.28 521.646 655.504 521.962C654.728 522.277 653.799 522.435 652.717 522.435ZM653.548 519.366C654.605 519.366 655.508 519.158 656.258 518.74C657.017 518.322 657.592 517.777 657.984 517.104C658.385 516.422 658.585 515.693 658.585 514.918V512.386C658.449 512.523 658.184 512.651 657.792 512.77C657.409 512.881 656.97 512.979 656.476 513.064C655.981 513.141 655.5 513.213 655.031 513.281C654.562 513.341 654.17 513.392 653.855 513.435C653.113 513.528 652.436 513.686 651.822 513.908C651.217 514.129 650.731 514.449 650.365 514.866C650.007 515.276 649.828 515.821 649.828 516.503C649.828 517.449 650.177 518.165 650.876 518.651C651.575 519.128 652.466 519.366 653.548 519.366ZM670.637 495.818V522H666.815V495.818H670.637ZM541.632 576V549.818H550.964C553.001 549.818 554.688 550.189 556.026 550.93C557.365 551.672 558.366 552.686 559.031 553.973C559.695 555.251 560.028 556.692 560.028 558.294C560.028 559.905 559.691 561.354 559.018 562.641C558.353 563.919 557.347 564.933 556.001 565.683C554.663 566.425 552.98 566.795 550.951 566.795H544.534V563.446H550.593C551.88 563.446 552.924 563.224 553.725 562.781C554.526 562.33 555.115 561.716 555.49 560.94C555.865 560.165 556.052 559.283 556.052 558.294C556.052 557.305 555.865 556.428 555.49 555.661C555.115 554.893 554.522 554.293 553.713 553.858C552.911 553.423 551.855 553.206 550.542 553.206H545.582V576H541.632ZM576.107 567.857V556.364H579.942V576H576.184V572.599H575.979C575.527 573.648 574.803 574.521 573.806 575.22C572.817 575.911 571.586 576.256 570.111 576.256C568.85 576.256 567.733 575.979 566.762 575.425C565.799 574.862 565.04 574.031 564.486 572.932C563.941 571.832 563.668 570.473 563.668 568.854V556.364H567.491V568.393C567.491 569.732 567.861 570.797 568.603 571.589C569.344 572.382 570.307 572.778 571.492 572.778C572.208 572.778 572.919 572.599 573.627 572.241C574.343 571.884 574.935 571.342 575.404 570.618C575.881 569.893 576.116 568.973 576.107 567.857ZM584.394 576V556.364H588.089V559.483H588.293C588.651 558.426 589.282 557.595 590.185 556.99C591.097 556.376 592.129 556.07 593.279 556.07C593.518 556.07 593.799 556.078 594.123 556.095C594.455 556.112 594.715 556.134 594.903 556.159V559.815C594.749 559.773 594.477 559.726 594.085 559.675C593.693 559.615 593.3 559.585 592.908 559.585C592.005 559.585 591.2 559.777 590.492 560.161C589.793 560.536 589.239 561.06 588.83 561.733C588.421 562.398 588.217 563.156 588.217 564.009V576H584.394ZM597.527 583.364V556.364H601.26V559.547H601.579C601.801 559.138 602.12 558.665 602.538 558.128C602.956 557.591 603.535 557.122 604.277 556.722C605.018 556.312 605.998 556.108 607.217 556.108C608.802 556.108 610.217 556.509 611.461 557.31C612.706 558.111 613.681 559.266 614.389 560.774C615.105 562.283 615.463 564.098 615.463 566.22C615.463 568.342 615.109 570.162 614.402 571.679C613.694 573.187 612.723 574.351 611.487 575.169C610.251 575.979 608.841 576.384 607.255 576.384C606.062 576.384 605.086 576.183 604.328 575.783C603.578 575.382 602.99 574.913 602.564 574.376C602.137 573.839 601.809 573.362 601.579 572.945H601.349V583.364H597.527ZM601.272 566.182C601.272 567.562 601.473 568.773 601.873 569.812C602.274 570.852 602.853 571.666 603.612 572.254C604.37 572.834 605.299 573.124 606.399 573.124C607.541 573.124 608.495 572.821 609.262 572.216C610.029 571.602 610.609 570.771 611.001 569.723C611.402 568.675 611.602 567.494 611.602 566.182C611.602 564.886 611.406 563.723 611.014 562.692C610.63 561.661 610.051 560.847 609.275 560.25C608.508 559.653 607.549 559.355 606.399 559.355C605.291 559.355 604.353 559.641 603.586 560.212C602.828 560.783 602.252 561.58 601.86 562.602C601.468 563.625 601.272 564.818 601.272 566.182ZM627.333 576.396C625.492 576.396 623.885 575.974 622.513 575.131C621.141 574.287 620.076 573.107 619.317 571.589C618.559 570.072 618.179 568.3 618.179 566.271C618.179 564.234 618.559 562.453 619.317 560.928C620.076 559.402 621.141 558.217 622.513 557.374C623.885 556.53 625.492 556.108 627.333 556.108C629.174 556.108 630.78 556.53 632.152 557.374C633.524 558.217 634.59 559.402 635.348 560.928C636.107 562.453 636.486 564.234 636.486 566.271C636.486 568.3 636.107 570.072 635.348 571.589C634.59 573.107 633.524 574.287 632.152 575.131C630.78 575.974 629.174 576.396 627.333 576.396ZM627.345 573.188C628.539 573.188 629.527 572.872 630.311 572.241C631.095 571.611 631.675 570.771 632.05 569.723C632.434 568.675 632.625 567.52 632.625 566.259C632.625 565.006 632.434 563.855 632.05 562.807C631.675 561.75 631.095 560.902 630.311 560.263C629.527 559.624 628.539 559.304 627.345 559.304C626.144 559.304 625.147 559.624 624.354 560.263C623.57 560.902 622.986 561.75 622.603 562.807C622.228 563.855 622.04 565.006 622.04 566.259C622.04 567.52 622.228 568.675 622.603 569.723C622.986 570.771 623.57 571.611 624.354 572.241C625.147 572.872 626.144 573.188 627.345 573.188ZM654.783 561.158L651.319 561.771C651.174 561.328 650.944 560.906 650.628 560.506C650.322 560.105 649.904 559.777 649.376 559.521C648.847 559.266 648.187 559.138 647.394 559.138C646.312 559.138 645.408 559.381 644.684 559.866C643.959 560.344 643.597 560.962 643.597 561.72C643.597 562.376 643.84 562.905 644.326 563.305C644.812 563.706 645.596 564.034 646.678 564.29L649.797 565.006C651.604 565.423 652.951 566.067 653.837 566.936C654.724 567.805 655.167 568.935 655.167 570.324C655.167 571.5 654.826 572.548 654.144 573.469C653.471 574.381 652.529 575.097 651.319 575.616C650.117 576.136 648.724 576.396 647.138 576.396C644.94 576.396 643.145 575.928 641.756 574.99C640.367 574.044 639.515 572.702 639.199 570.963L642.894 570.401C643.124 571.364 643.597 572.092 644.313 572.587C645.029 573.072 645.962 573.315 647.113 573.315C648.366 573.315 649.367 573.055 650.117 572.536C650.867 572.007 651.242 571.364 651.242 570.605C651.242 569.991 651.012 569.476 650.552 569.058C650.1 568.641 649.405 568.325 648.468 568.112L645.144 567.384C643.312 566.966 641.957 566.301 641.079 565.389C640.209 564.477 639.775 563.322 639.775 561.925C639.775 560.766 640.099 559.751 640.746 558.882C641.394 558.013 642.289 557.335 643.431 556.849C644.573 556.355 645.881 556.108 647.356 556.108C649.478 556.108 651.148 556.568 652.367 557.489C653.586 558.401 654.391 559.624 654.783 561.158ZM667.149 576.396C665.214 576.396 663.548 575.983 662.15 575.156C660.761 574.321 659.687 573.149 658.928 571.641C658.178 570.124 657.803 568.347 657.803 566.31C657.803 564.298 658.178 562.526 658.928 560.991C659.687 559.457 660.744 558.26 662.099 557.399C663.463 556.538 665.056 556.108 666.88 556.108C667.988 556.108 669.062 556.291 670.102 556.658C671.142 557.024 672.075 557.599 672.901 558.384C673.728 559.168 674.38 560.186 674.857 561.439C675.335 562.683 675.573 564.196 675.573 565.977V567.332H659.964V564.469H671.828C671.828 563.463 671.623 562.572 671.214 561.797C670.805 561.013 670.23 560.395 669.488 559.943C668.755 559.491 667.894 559.266 666.906 559.266C665.832 559.266 664.894 559.53 664.093 560.058C663.301 560.578 662.687 561.26 662.252 562.104C661.826 562.939 661.613 563.847 661.613 564.827V567.064C661.613 568.376 661.843 569.493 662.303 570.413C662.772 571.334 663.424 572.037 664.259 572.523C665.095 573 666.071 573.239 667.187 573.239C667.911 573.239 668.572 573.136 669.169 572.932C669.765 572.719 670.281 572.403 670.715 571.986C671.15 571.568 671.482 571.053 671.713 570.439L675.33 571.091C675.041 572.156 674.521 573.089 673.771 573.891C673.029 574.683 672.096 575.301 670.971 575.744C669.855 576.179 668.58 576.396 667.149 576.396Z" fill="black" fill-opacity="0.8"/>
<path d="M641.5 404C641.5 403.172 640.828 402.5 640 402.5C639.172 402.5 638.5 403.172 638.5 404H641.5ZM606.939 445.061C607.525 445.646 608.475 445.646 609.061 445.061L618.607 435.515C619.192 434.929 619.192 433.979 618.607 433.393C618.021 432.808 617.071 432.808 616.485 433.393L608 441.879L599.515 433.393C598.929 432.808 597.979 432.808 597.393 433.393C596.808 433.979 596.808 434.929 597.393 435.515L606.939 445.061ZM624 422.5C623.172 422.5 622.5 423.172 622.5 424C622.5 424.828 623.172 425.5 624 425.5V422.5ZM638.5 404V408H641.5V404H638.5ZM606.5 440V444H609.5V440H606.5ZM624 422.5C614.335 422.5 606.5 430.335 606.5 440H609.5C609.5 431.992 615.992 425.5 624 425.5V422.5ZM638.5 408C638.5 416.008 632.008 422.5 624 422.5V425.5C633.665 425.5 641.5 417.665 641.5 408H638.5Z" fill="#B3B3B3"/>
</svg>
