<svg width="673" height="232" viewBox="0 0 673 232" fill="none" xmlns="http://www.w3.org/2000/svg">
    <rect width="176" height="72" rx="6" fill="#FFC7C2" />
    <path
        d="M62.1506 27.5455V45H58.4603V27.5455H62.1506ZM70.5775 45.2557C69.2365 45.2557 68.0831 44.9716 67.1172 44.4034C66.157 43.8295 65.4184 43.0341 64.9013 42.017C64.39 41 64.1343 39.8295 64.1343 38.5057C64.1343 37.1648 64.3928 35.9886 64.9098 34.9773C65.4326 33.9602 66.174 33.1676 67.1343 32.5994C68.0945 32.0256 69.2365 31.7386 70.5604 31.7386C71.7025 31.7386 72.7025 31.946 73.5604 32.3608C74.4184 32.7756 75.0973 33.358 75.5973 34.108C76.0973 34.858 76.3729 35.7386 76.424 36.75H72.9979C72.9013 36.0966 72.6456 35.571 72.2309 35.1733C71.8218 34.7699 71.2848 34.5682 70.6201 34.5682C70.0576 34.5682 69.5661 34.7216 69.1456 35.0284C68.7309 35.3295 68.407 35.7699 68.174 36.3494C67.9411 36.929 67.8246 37.6307 67.8246 38.4545C67.8246 39.2898 67.9382 40 68.1655 40.5852C68.3985 41.1705 68.7252 41.6165 69.1456 41.9233C69.5661 42.2301 70.0576 42.3835 70.6201 42.3835C71.0348 42.3835 71.407 42.2983 71.7365 42.1278C72.0718 41.9574 72.3473 41.7102 72.5632 41.3864C72.7848 41.0568 72.9297 40.6619 72.9979 40.2017H76.424C76.3672 41.2017 76.0945 42.0824 75.6059 42.8438C75.1229 43.5994 74.4553 44.1903 73.603 44.6165C72.7507 45.0426 71.7422 45.2557 70.5775 45.2557ZM84.2074 45.2557C82.8835 45.2557 81.7386 44.9744 80.7727 44.4119C79.8125 43.8437 79.071 43.054 78.5483 42.0426C78.0256 41.0256 77.7642 39.8466 77.7642 38.5057C77.7642 37.1534 78.0256 35.9716 78.5483 34.9602C79.071 33.9432 79.8125 33.1534 80.7727 32.5909C81.7386 32.0227 82.8835 31.7386 84.2074 31.7386C85.5312 31.7386 86.6733 32.0227 87.6335 32.5909C88.5994 33.1534 89.3438 33.9432 89.8665 34.9602C90.3892 35.9716 90.6506 37.1534 90.6506 38.5057C90.6506 39.8466 90.3892 41.0256 89.8665 42.0426C89.3438 43.054 88.5994 43.8437 87.6335 44.4119C86.6733 44.9744 85.5312 45.2557 84.2074 45.2557ZM84.2244 42.4432C84.8267 42.4432 85.3295 42.2727 85.733 41.9318C86.1364 41.5852 86.4403 41.1136 86.6449 40.517C86.8551 39.9205 86.9602 39.2415 86.9602 38.4801C86.9602 37.7188 86.8551 37.0398 86.6449 36.4432C86.4403 35.8466 86.1364 35.375 85.733 35.0284C85.3295 34.6818 84.8267 34.5085 84.2244 34.5085C83.6165 34.5085 83.1051 34.6818 82.6903 35.0284C82.2813 35.375 81.9716 35.8466 81.7614 36.4432C81.5568 37.0398 81.4545 37.7188 81.4545 38.4801C81.4545 39.2415 81.5568 39.9205 81.7614 40.517C81.9716 41.1136 82.2813 41.5852 82.6903 41.9318C83.1051 42.2727 83.6165 42.4432 84.2244 42.4432ZM96.1861 37.4318V45H92.5554V31.9091H96.0156V34.2188H96.169C96.4588 33.4574 96.9446 32.8551 97.6264 32.4119C98.3082 31.9631 99.1349 31.7386 100.107 31.7386C101.016 31.7386 101.808 31.9375 102.484 32.3352C103.16 32.733 103.686 33.3011 104.061 34.0398C104.436 34.7727 104.624 35.6477 104.624 36.6648V45H100.993V37.3125C100.999 36.5114 100.794 35.8864 100.379 35.4375C99.9645 34.983 99.3934 34.7557 98.6662 34.7557C98.1775 34.7557 97.7457 34.8608 97.3707 35.071C97.0014 35.2812 96.7116 35.5881 96.5014 35.9915C96.2968 36.3892 96.1917 36.8693 96.1861 37.4318ZM117.921 35.642L114.597 35.8466C114.54 35.5625 114.418 35.3068 114.231 35.0795C114.043 34.8466 113.796 34.6619 113.489 34.5256C113.188 34.3835 112.827 34.3125 112.407 34.3125C111.844 34.3125 111.37 34.4318 110.984 34.6705C110.597 34.9034 110.404 35.2159 110.404 35.608C110.404 35.9205 110.529 36.1847 110.779 36.4006C111.029 36.6165 111.458 36.7898 112.066 36.9205L114.435 37.3977C115.708 37.6591 116.657 38.0795 117.282 38.6591C117.907 39.2386 118.219 40 118.219 40.9432C118.219 41.8011 117.967 42.554 117.461 43.2017C116.961 43.8494 116.273 44.3551 115.398 44.7188C114.529 45.0767 113.526 45.2557 112.39 45.2557C110.657 45.2557 109.276 44.8949 108.248 44.1733C107.225 43.446 106.626 42.4574 106.45 41.2074L110.021 41.0199C110.128 41.5483 110.39 41.9517 110.805 42.2301C111.219 42.5028 111.751 42.6392 112.398 42.6392C113.035 42.6392 113.546 42.517 113.932 42.2727C114.325 42.0227 114.523 41.7017 114.529 41.3097C114.523 40.9801 114.384 40.7102 114.111 40.5C113.839 40.2841 113.418 40.1193 112.85 40.0057L110.583 39.554C109.305 39.2983 108.353 38.8551 107.728 38.2244C107.109 37.5937 106.799 36.7898 106.799 35.8125C106.799 34.9716 107.026 34.2472 107.481 33.6392C107.941 33.0312 108.586 32.5625 109.415 32.233C110.251 31.9034 111.228 31.7386 112.347 31.7386C114.001 31.7386 115.302 32.0881 116.251 32.7869C117.205 33.4858 117.762 34.4375 117.921 35.642Z"
        fill="black" fill-opacity="0.8" />
    <rect x="497" width="176" height="72" rx="6" fill="#FFE8A3" />
    <path
        d="M536.877 45L531.882 27.5455H535.913L538.803 39.6733H538.948L542.135 27.5455H545.587L548.766 39.6989H548.919L551.808 27.5455H555.84L550.845 45H547.249L543.925 33.5881H543.788L540.473 45H536.877ZM557.291 45V31.9091H560.921V45H557.291ZM559.114 30.2216C558.575 30.2216 558.112 30.0426 557.725 29.6847C557.345 29.321 557.154 28.8864 557.154 28.3807C557.154 27.8807 557.345 27.4517 557.725 27.0938C558.112 26.7301 558.575 26.5483 559.114 26.5483C559.654 26.5483 560.114 26.7301 560.495 27.0938C560.881 27.4517 561.075 27.8807 561.075 28.3807C561.075 28.8864 560.881 29.321 560.495 29.6847C560.114 30.0426 559.654 30.2216 559.114 30.2216ZM567.004 37.4318V45H563.374V31.9091H566.834V34.2188H566.987C567.277 33.4574 567.763 32.8551 568.445 32.4119C569.126 31.9631 569.953 31.7386 570.925 31.7386C571.834 31.7386 572.626 31.9375 573.303 32.3352C573.979 32.733 574.504 33.3011 574.879 34.0398C575.254 34.7727 575.442 35.6477 575.442 36.6648V45H571.811V37.3125C571.817 36.5114 571.612 35.8864 571.197 35.4375C570.783 34.983 570.212 34.7557 569.484 34.7557C568.996 34.7557 568.564 34.8608 568.189 35.071C567.82 35.2812 567.53 35.5881 567.32 35.9915C567.115 36.3892 567.01 36.8693 567.004 37.4318ZM582.671 45.2131C581.677 45.2131 580.776 44.9574 579.969 44.446C579.168 43.929 578.532 43.1705 578.06 42.1705C577.594 41.1648 577.362 39.9318 577.362 38.4716C577.362 36.9716 577.603 35.7244 578.086 34.7301C578.569 33.7301 579.211 32.983 580.012 32.4886C580.819 31.9886 581.702 31.7386 582.663 31.7386C583.396 31.7386 584.006 31.8636 584.495 32.1136C584.989 32.358 585.387 32.6648 585.688 33.0341C585.995 33.3977 586.228 33.7557 586.387 34.108H586.498V27.5455H590.12V45H586.54V42.9034H586.387C586.217 43.267 585.975 43.6278 585.663 43.9858C585.356 44.3381 584.955 44.6307 584.461 44.8636C583.972 45.0966 583.376 45.2131 582.671 45.2131ZM583.822 42.3239C584.407 42.3239 584.901 42.1648 585.305 41.8466C585.714 41.5227 586.026 41.071 586.242 40.4915C586.464 39.9119 586.575 39.233 586.575 38.4545C586.575 37.6761 586.467 37 586.251 36.4261C586.035 35.8523 585.722 35.4091 585.313 35.0966C584.904 34.7841 584.407 34.6278 583.822 34.6278C583.225 34.6278 582.722 34.7898 582.313 35.1136C581.904 35.4375 581.594 35.8864 581.384 36.4602C581.174 37.0341 581.069 37.6989 581.069 38.4545C581.069 39.2159 581.174 39.8892 581.384 40.4744C581.6 41.054 581.91 41.5085 582.313 41.8381C582.722 42.1619 583.225 42.3239 583.822 42.3239ZM598.564 45.2557C597.24 45.2557 596.095 44.9744 595.129 44.4119C594.169 43.8437 593.428 43.054 592.905 42.0426C592.382 41.0256 592.121 39.8466 592.121 38.5057C592.121 37.1534 592.382 35.9716 592.905 34.9602C593.428 33.9432 594.169 33.1534 595.129 32.5909C596.095 32.0227 597.24 31.7386 598.564 31.7386C599.888 31.7386 601.03 32.0227 601.99 32.5909C602.956 33.1534 603.7 33.9432 604.223 34.9602C604.746 35.9716 605.007 37.1534 605.007 38.5057C605.007 39.8466 604.746 41.0256 604.223 42.0426C603.7 43.054 602.956 43.8437 601.99 44.4119C601.03 44.9744 599.888 45.2557 598.564 45.2557ZM598.581 42.4432C599.183 42.4432 599.686 42.2727 600.089 41.9318C600.493 41.5852 600.797 41.1136 601.001 40.517C601.212 39.9205 601.317 39.2415 601.317 38.4801C601.317 37.7188 601.212 37.0398 601.001 36.4432C600.797 35.8466 600.493 35.375 600.089 35.0284C599.686 34.6818 599.183 34.5085 598.581 34.5085C597.973 34.5085 597.462 34.6818 597.047 35.0284C596.638 35.375 596.328 35.8466 596.118 36.4432C595.913 37.0398 595.811 37.7188 595.811 38.4801C595.811 39.2415 595.913 39.9205 596.118 40.517C596.328 41.1136 596.638 41.5852 597.047 41.9318C597.462 42.2727 597.973 42.4432 598.581 42.4432ZM609.166 45L605.604 31.9091H609.277L611.305 40.7045H611.425L613.538 31.9091H617.143L619.291 40.6534H619.402L621.396 31.9091H625.061L621.507 45H617.663L615.413 36.767H615.251L613.001 45H609.166ZM637.434 35.642L634.11 35.8466C634.053 35.5625 633.931 35.3068 633.744 35.0795C633.556 34.8466 633.309 34.6619 633.002 34.5256C632.701 34.3835 632.34 34.3125 631.92 34.3125C631.357 34.3125 630.883 34.4318 630.496 34.6705C630.11 34.9034 629.917 35.2159 629.917 35.608C629.917 35.9205 630.042 36.1847 630.292 36.4006C630.542 36.6165 630.971 36.7898 631.579 36.9205L633.948 37.3977C635.221 37.6591 636.17 38.0795 636.795 38.6591C637.42 39.2386 637.732 40 637.732 40.9432C637.732 41.8011 637.479 42.554 636.974 43.2017C636.474 43.8494 635.786 44.3551 634.911 44.7188C634.042 45.0767 633.039 45.2557 631.903 45.2557C630.17 45.2557 628.789 44.8949 627.761 44.1733C626.738 43.446 626.138 42.4574 625.962 41.2074L629.533 41.0199C629.641 41.5483 629.903 41.9517 630.317 42.2301C630.732 42.5028 631.263 42.6392 631.911 42.6392C632.547 42.6392 633.059 42.517 633.445 42.2727C633.837 42.0227 634.036 41.7017 634.042 41.3097C634.036 40.9801 633.897 40.7102 633.624 40.5C633.351 40.2841 632.931 40.1193 632.363 40.0057L630.096 39.554C628.817 39.2983 627.866 38.8551 627.241 38.2244C626.621 37.5937 626.312 36.7898 626.312 35.8125C626.312 34.9716 626.539 34.2472 626.994 33.6392C627.454 33.0312 628.099 32.5625 628.928 32.233C629.763 31.9034 630.741 31.7386 631.86 31.7386C633.513 31.7386 634.815 32.0881 635.763 32.7869C636.718 33.4858 637.275 34.4375 637.434 35.642Z"
        fill="black" fill-opacity="0.8" />
    <rect y="80" width="176" height="72" rx="6" fill="#AFF4C6" />
    <path
        d="M50.6087 107.545H55.1599L59.9667 119.273H60.1712L64.978 107.545H69.5292V125H65.9496V113.639H65.8048L61.2877 124.915H58.8502L54.3332 113.597H54.1883V125H50.6087V107.545ZM78.0114 125.256C76.6648 125.256 75.5057 124.983 74.5341 124.438C73.5682 123.886 72.8239 123.108 72.3012 122.102C71.7784 121.091 71.5171 119.895 71.5171 118.514C71.5171 117.168 71.7784 115.986 72.3012 114.969C72.8239 113.952 73.5597 113.159 74.5086 112.591C75.4631 112.023 76.5824 111.739 77.8665 111.739C78.7301 111.739 79.5341 111.878 80.2784 112.156C81.0284 112.429 81.6819 112.841 82.2387 113.392C82.8012 113.943 83.2387 114.636 83.5512 115.472C83.8637 116.301 84.0199 117.273 84.0199 118.386V119.384H72.9659V117.134H80.6023C80.6023 116.611 80.4887 116.148 80.2614 115.744C80.0341 115.341 79.7188 115.026 79.3154 114.798C78.9176 114.565 78.4546 114.449 77.9262 114.449C77.375 114.449 76.8864 114.577 76.4603 114.832C76.0398 115.082 75.7103 115.42 75.4716 115.847C75.233 116.267 75.1108 116.736 75.1051 117.253V119.392C75.1051 120.04 75.2245 120.599 75.4631 121.071C75.7074 121.543 76.0512 121.906 76.4944 122.162C76.9375 122.418 77.4631 122.545 78.0711 122.545C78.4745 122.545 78.8438 122.489 79.179 122.375C79.5142 122.261 79.8012 122.091 80.0398 121.864C80.2784 121.636 80.4603 121.358 80.5853 121.028L83.9432 121.25C83.7728 122.057 83.4233 122.761 82.8949 123.364C82.3722 123.96 81.6961 124.426 80.8665 124.761C80.0426 125.091 79.0909 125.256 78.0114 125.256ZM89.5639 117.432V125H85.9332V111.909H89.3935V114.219H89.5469C89.8366 113.457 90.3224 112.855 91.0043 112.412C91.6861 111.963 92.5128 111.739 93.4844 111.739C94.3935 111.739 95.1861 111.938 95.8622 112.335C96.5384 112.733 97.0639 113.301 97.4389 114.04C97.8139 114.773 98.0014 115.648 98.0014 116.665V125H94.3707V117.312C94.3764 116.511 94.1719 115.886 93.7571 115.438C93.3423 114.983 92.7713 114.756 92.044 114.756C91.5554 114.756 91.1236 114.861 90.7486 115.071C90.3793 115.281 90.0895 115.588 89.8793 115.991C89.6747 116.389 89.5696 116.869 89.5639 117.432ZM108.802 119.426V111.909H112.432V125H108.947V122.622H108.81C108.515 123.389 108.023 124.006 107.336 124.472C106.654 124.937 105.822 125.17 104.839 125.17C103.964 125.17 103.194 124.972 102.529 124.574C101.864 124.176 101.344 123.611 100.969 122.878C100.6 122.145 100.413 121.267 100.407 120.244V111.909H104.038V119.597C104.043 120.369 104.251 120.98 104.66 121.429C105.069 121.878 105.617 122.102 106.305 122.102C106.742 122.102 107.151 122.003 107.532 121.804C107.913 121.599 108.219 121.298 108.452 120.901C108.691 120.503 108.807 120.011 108.802 119.426ZM125.773 115.642L122.449 115.847C122.392 115.562 122.27 115.307 122.082 115.08C121.895 114.847 121.648 114.662 121.341 114.526C121.04 114.384 120.679 114.312 120.258 114.312C119.696 114.312 119.222 114.432 118.835 114.67C118.449 114.903 118.256 115.216 118.256 115.608C118.256 115.92 118.381 116.185 118.631 116.401C118.881 116.616 119.31 116.79 119.918 116.92L122.287 117.398C123.56 117.659 124.508 118.08 125.133 118.659C125.758 119.239 126.071 120 126.071 120.943C126.071 121.801 125.818 122.554 125.312 123.202C124.812 123.849 124.125 124.355 123.25 124.719C122.381 125.077 121.378 125.256 120.241 125.256C118.508 125.256 117.128 124.895 116.099 124.173C115.077 123.446 114.477 122.457 114.301 121.207L117.872 121.02C117.98 121.548 118.241 121.952 118.656 122.23C119.071 122.503 119.602 122.639 120.25 122.639C120.886 122.639 121.398 122.517 121.784 122.273C122.176 122.023 122.375 121.702 122.381 121.31C122.375 120.98 122.236 120.71 121.963 120.5C121.69 120.284 121.27 120.119 120.702 120.006L118.435 119.554C117.156 119.298 116.204 118.855 115.579 118.224C114.96 117.594 114.65 116.79 114.65 115.812C114.65 114.972 114.878 114.247 115.332 113.639C115.793 113.031 116.437 112.562 117.267 112.233C118.102 111.903 119.079 111.739 120.199 111.739C121.852 111.739 123.153 112.088 124.102 112.787C125.057 113.486 125.614 114.437 125.773 115.642Z"
        fill="black" fill-opacity="0.8" />
    <rect x="251" y="62" width="176" height="104" rx="6" fill="#AFF4C6" />
    <path
        d="M324.636 87.5455H328.326V98.8807C328.326 100.153 328.022 101.267 327.414 102.222C326.812 103.176 325.968 103.92 324.883 104.455C323.798 104.983 322.534 105.247 321.091 105.247C319.642 105.247 318.375 104.983 317.289 104.455C316.204 103.92 315.361 103.176 314.758 102.222C314.156 101.267 313.855 100.153 313.855 98.8807V87.5455H317.545V98.5653C317.545 99.2301 317.69 99.821 317.98 100.338C318.275 100.855 318.69 101.261 319.224 101.557C319.758 101.852 320.38 102 321.091 102C321.807 102 322.429 101.852 322.957 101.557C323.491 101.261 323.903 100.855 324.193 100.338C324.488 99.821 324.636 99.2301 324.636 98.5653V87.5455ZM341.731 95.642L338.407 95.8466C338.35 95.5625 338.228 95.3068 338.04 95.0795C337.853 94.8466 337.606 94.6619 337.299 94.5256C336.998 94.3835 336.637 94.3125 336.216 94.3125C335.654 94.3125 335.179 94.4318 334.793 94.6705C334.407 94.9034 334.213 95.2159 334.213 95.608C334.213 95.9205 334.338 96.1847 334.588 96.4006C334.838 96.6165 335.267 96.7898 335.875 96.9205L338.245 97.3977C339.517 97.6591 340.466 98.0795 341.091 98.6591C341.716 99.2386 342.029 100 342.029 100.943C342.029 101.801 341.776 102.554 341.27 103.202C340.77 103.849 340.083 104.355 339.208 104.719C338.338 105.077 337.336 105.256 336.199 105.256C334.466 105.256 333.086 104.895 332.057 104.173C331.034 103.446 330.435 102.457 330.259 101.207L333.83 101.02C333.938 101.548 334.199 101.952 334.614 102.23C335.029 102.503 335.56 102.639 336.208 102.639C336.844 102.639 337.356 102.517 337.742 102.273C338.134 102.023 338.333 101.702 338.338 101.31C338.333 100.98 338.194 100.71 337.921 100.5C337.648 100.284 337.228 100.119 336.659 100.006L334.392 99.554C333.114 99.2983 332.162 98.8551 331.537 98.2244C330.918 97.5937 330.608 96.7898 330.608 95.8125C330.608 94.9716 330.836 94.2472 331.29 93.6392C331.75 93.0312 332.395 92.5625 333.225 92.233C334.06 91.9034 335.037 91.7386 336.157 91.7386C337.81 91.7386 339.111 92.0881 340.06 92.7869C341.015 93.4858 341.571 94.4375 341.731 95.642ZM349.825 105.256C348.478 105.256 347.319 104.983 346.348 104.438C345.382 103.886 344.637 103.108 344.115 102.102C343.592 101.091 343.331 99.8949 343.331 98.5142C343.331 97.1676 343.592 95.9858 344.115 94.9688C344.637 93.9517 345.373 93.1591 346.322 92.5909C347.277 92.0227 348.396 91.7386 349.68 91.7386C350.544 91.7386 351.348 91.8778 352.092 92.1562C352.842 92.429 353.495 92.8409 354.052 93.392C354.615 93.9432 355.052 94.6364 355.365 95.4716C355.677 96.3011 355.833 97.2727 355.833 98.3864V99.3835H344.779V97.1335H352.416C352.416 96.6108 352.302 96.1477 352.075 95.7443C351.848 95.3409 351.532 95.0256 351.129 94.7983C350.731 94.5653 350.268 94.4489 349.74 94.4489C349.189 94.4489 348.7 94.5767 348.274 94.8324C347.853 95.0824 347.524 95.4205 347.285 95.8466C347.047 96.267 346.924 96.7358 346.919 97.2528V99.392C346.919 100.04 347.038 100.599 347.277 101.071C347.521 101.543 347.865 101.906 348.308 102.162C348.751 102.418 349.277 102.545 349.885 102.545C350.288 102.545 350.657 102.489 350.993 102.375C351.328 102.261 351.615 102.091 351.853 101.864C352.092 101.636 352.274 101.358 352.399 101.028L355.757 101.25C355.586 102.057 355.237 102.761 354.708 103.364C354.186 103.96 353.51 104.426 352.68 104.761C351.856 105.091 350.904 105.256 349.825 105.256ZM357.747 105V91.9091H361.267V94.1932H361.403C361.642 93.3807 362.042 92.767 362.605 92.3523C363.167 91.9318 363.815 91.7216 364.548 91.7216C364.73 91.7216 364.926 91.733 365.136 91.7557C365.346 91.7784 365.531 91.8097 365.69 91.8494V95.071C365.52 95.0199 365.284 94.9744 364.983 94.9347C364.681 94.8949 364.406 94.875 364.156 94.875C363.622 94.875 363.145 94.9915 362.724 95.2244C362.309 95.4517 361.98 95.7699 361.735 96.179C361.497 96.5881 361.377 97.0597 361.377 97.5938V105H357.747ZM292.629 123.545V141H288.939V123.545H292.629ZM298.772 133.432V141H295.141V127.909H298.601V130.219H298.755C299.044 129.457 299.53 128.855 300.212 128.412C300.894 127.963 301.721 127.739 302.692 127.739C303.601 127.739 304.394 127.938 305.07 128.335C305.746 128.733 306.272 129.301 306.647 130.04C307.022 130.773 307.209 131.648 307.209 132.665V141H303.579V133.312C303.584 132.511 303.38 131.886 302.965 131.438C302.55 130.983 301.979 130.756 301.252 130.756C300.763 130.756 300.331 130.861 299.956 131.071C299.587 131.281 299.297 131.588 299.087 131.991C298.883 132.389 298.777 132.869 298.772 133.432ZM316.578 127.909V130.636H308.694V127.909H316.578ZM310.484 124.773H314.115V136.977C314.115 137.312 314.166 137.574 314.268 137.761C314.37 137.943 314.512 138.071 314.694 138.145C314.882 138.219 315.098 138.256 315.342 138.256C315.512 138.256 315.683 138.241 315.853 138.213C316.024 138.179 316.155 138.153 316.245 138.136L316.816 140.838C316.635 140.895 316.379 140.96 316.049 141.034C315.72 141.114 315.319 141.162 314.848 141.179C313.973 141.213 313.206 141.097 312.547 140.83C311.893 140.562 311.385 140.148 311.021 139.585C310.657 139.023 310.478 138.312 310.484 137.455V124.773ZM324.312 141.256C322.966 141.256 321.806 140.983 320.835 140.438C319.869 139.886 319.125 139.108 318.602 138.102C318.079 137.091 317.818 135.895 317.818 134.514C317.818 133.168 318.079 131.986 318.602 130.969C319.125 129.952 319.86 129.159 320.809 128.591C321.764 128.023 322.883 127.739 324.167 127.739C325.031 127.739 325.835 127.878 326.579 128.156C327.329 128.429 327.983 128.841 328.539 129.392C329.102 129.943 329.539 130.636 329.852 131.472C330.164 132.301 330.321 133.273 330.321 134.386V135.384H319.267V133.134H326.903C326.903 132.611 326.789 132.148 326.562 131.744C326.335 131.341 326.02 131.026 325.616 130.798C325.218 130.565 324.755 130.449 324.227 130.449C323.676 130.449 323.187 130.577 322.761 130.832C322.341 131.082 322.011 131.42 321.772 131.847C321.534 132.267 321.412 132.736 321.406 133.253V135.392C321.406 136.04 321.525 136.599 321.764 137.071C322.008 137.543 322.352 137.906 322.795 138.162C323.238 138.418 323.764 138.545 324.372 138.545C324.775 138.545 325.145 138.489 325.48 138.375C325.815 138.261 326.102 138.091 326.341 137.864C326.579 137.636 326.761 137.358 326.886 137.028L330.244 137.25C330.074 138.057 329.724 138.761 329.196 139.364C328.673 139.96 327.997 140.426 327.167 140.761C326.343 141.091 325.392 141.256 324.312 141.256ZM332.234 141V127.909H335.754V130.193H335.89C336.129 129.381 336.529 128.767 337.092 128.352C337.654 127.932 338.302 127.722 339.035 127.722C339.217 127.722 339.413 127.733 339.623 127.756C339.833 127.778 340.018 127.81 340.177 127.849V131.071C340.007 131.02 339.771 130.974 339.47 130.935C339.169 130.895 338.893 130.875 338.643 130.875C338.109 130.875 337.632 130.991 337.211 131.224C336.797 131.452 336.467 131.77 336.223 132.179C335.984 132.588 335.865 133.06 335.865 133.594V141H332.234ZM349.294 127.909V130.636H341.215V127.909H349.294ZM343.064 141V126.963C343.064 126.014 343.249 125.227 343.618 124.602C343.993 123.977 344.505 123.509 345.152 123.196C345.8 122.884 346.536 122.727 347.36 122.727C347.917 122.727 348.425 122.77 348.885 122.855C349.351 122.94 349.698 123.017 349.925 123.085L349.277 125.812C349.135 125.767 348.959 125.724 348.749 125.685C348.544 125.645 348.334 125.625 348.118 125.625C347.584 125.625 347.212 125.75 347.002 126C346.792 126.244 346.686 126.588 346.686 127.031V141H343.064ZM354.321 141.247C353.485 141.247 352.741 141.102 352.088 140.812C351.434 140.517 350.917 140.082 350.537 139.509C350.162 138.929 349.974 138.207 349.974 137.344C349.974 136.616 350.108 136.006 350.375 135.511C350.642 135.017 351.005 134.619 351.465 134.318C351.926 134.017 352.448 133.79 353.034 133.636C353.625 133.483 354.244 133.375 354.892 133.312C355.653 133.233 356.267 133.159 356.733 133.091C357.198 133.017 357.537 132.909 357.747 132.767C357.957 132.625 358.062 132.415 358.062 132.136V132.085C358.062 131.545 357.892 131.128 357.551 130.832C357.215 130.537 356.738 130.389 356.119 130.389C355.465 130.389 354.946 130.534 354.559 130.824C354.173 131.108 353.917 131.466 353.792 131.898L350.434 131.625C350.605 130.83 350.94 130.142 351.44 129.562C351.94 128.977 352.585 128.528 353.375 128.216C354.17 127.898 355.09 127.739 356.136 127.739C356.863 127.739 357.559 127.824 358.224 127.994C358.894 128.165 359.488 128.429 360.005 128.787C360.528 129.145 360.94 129.605 361.241 130.168C361.542 130.724 361.693 131.392 361.693 132.17V141H358.25V139.185H358.147C357.937 139.594 357.656 139.955 357.304 140.267C356.951 140.574 356.528 140.815 356.034 140.991C355.539 141.162 354.968 141.247 354.321 141.247ZM355.36 138.741C355.894 138.741 356.366 138.636 356.775 138.426C357.184 138.21 357.505 137.92 357.738 137.557C357.971 137.193 358.088 136.781 358.088 136.321V134.932C357.974 135.006 357.818 135.074 357.619 135.136C357.426 135.193 357.207 135.247 356.963 135.298C356.718 135.344 356.474 135.386 356.23 135.426C355.985 135.46 355.764 135.491 355.565 135.52C355.139 135.582 354.767 135.682 354.448 135.818C354.13 135.955 353.883 136.139 353.707 136.372C353.531 136.599 353.443 136.884 353.443 137.224C353.443 137.719 353.622 138.097 353.98 138.358C354.343 138.614 354.804 138.741 355.36 138.741ZM369.968 141.256C368.627 141.256 367.474 140.972 366.508 140.403C365.548 139.83 364.809 139.034 364.292 138.017C363.781 137 363.525 135.83 363.525 134.506C363.525 133.165 363.784 131.989 364.301 130.977C364.823 129.96 365.565 129.168 366.525 128.599C367.485 128.026 368.627 127.739 369.951 127.739C371.093 127.739 372.093 127.946 372.951 128.361C373.809 128.776 374.488 129.358 374.988 130.108C375.488 130.858 375.764 131.739 375.815 132.75H372.389C372.292 132.097 372.036 131.571 371.622 131.173C371.213 130.77 370.676 130.568 370.011 130.568C369.448 130.568 368.957 130.722 368.536 131.028C368.122 131.33 367.798 131.77 367.565 132.349C367.332 132.929 367.215 133.631 367.215 134.455C367.215 135.29 367.329 136 367.556 136.585C367.789 137.17 368.116 137.616 368.536 137.923C368.957 138.23 369.448 138.384 370.011 138.384C370.426 138.384 370.798 138.298 371.127 138.128C371.463 137.957 371.738 137.71 371.954 137.386C372.176 137.057 372.321 136.662 372.389 136.202H375.815C375.758 137.202 375.485 138.082 374.997 138.844C374.514 139.599 373.846 140.19 372.994 140.616C372.142 141.043 371.133 141.256 369.968 141.256ZM383.649 141.256C382.303 141.256 381.144 140.983 380.172 140.438C379.206 139.886 378.462 139.108 377.939 138.102C377.416 137.091 377.155 135.895 377.155 134.514C377.155 133.168 377.416 131.986 377.939 130.969C378.462 129.952 379.198 129.159 380.147 128.591C381.101 128.023 382.22 127.739 383.504 127.739C384.368 127.739 385.172 127.878 385.916 128.156C386.666 128.429 387.32 128.841 387.877 129.392C388.439 129.943 388.877 130.636 389.189 131.472C389.502 132.301 389.658 133.273 389.658 134.386V135.384H378.604V133.134H386.24C386.24 132.611 386.127 132.148 385.899 131.744C385.672 131.341 385.357 131.026 384.953 130.798C384.556 130.565 384.093 130.449 383.564 130.449C383.013 130.449 382.524 130.577 382.098 130.832C381.678 131.082 381.348 131.42 381.11 131.847C380.871 132.267 380.749 132.736 380.743 133.253V135.392C380.743 136.04 380.862 136.599 381.101 137.071C381.345 137.543 381.689 137.906 382.132 138.162C382.575 138.418 383.101 138.545 383.709 138.545C384.112 138.545 384.482 138.489 384.817 138.375C385.152 138.261 385.439 138.091 385.678 137.864C385.916 137.636 386.098 137.358 386.223 137.028L389.581 137.25C389.411 138.057 389.061 138.761 388.533 139.364C388.01 139.96 387.334 140.426 386.504 140.761C385.681 141.091 384.729 141.256 383.649 141.256Z"
        fill="black" fill-opacity="0.8" />
    <rect y="160" width="176" height="72" rx="6" fill="#E4CCFF" />
    <path
        d="M27.5815 190.588V187.545H41.9167V190.588H36.573V205H32.9252V190.588H27.5815ZM47.8208 205.256C46.4742 205.256 45.3151 204.983 44.3435 204.438C43.3776 203.886 42.6333 203.108 42.1106 202.102C41.5878 201.091 41.3265 199.895 41.3265 198.514C41.3265 197.168 41.5878 195.986 42.1106 194.969C42.6333 193.952 43.3691 193.159 44.318 192.591C45.2725 192.023 46.3918 191.739 47.6759 191.739C48.5396 191.739 49.3435 191.878 50.0878 192.156C50.8378 192.429 51.4913 192.841 52.0481 193.392C52.6106 193.943 53.0481 194.636 53.3606 195.472C53.6731 196.301 53.8293 197.273 53.8293 198.386V199.384H42.7753V197.134H50.4117C50.4117 196.611 50.2981 196.148 50.0708 195.744C49.8435 195.341 49.5282 195.026 49.1248 194.798C48.7271 194.565 48.264 194.449 47.7356 194.449C47.1844 194.449 46.6958 194.577 46.2697 194.832C45.8492 195.082 45.5197 195.42 45.281 195.847C45.0424 196.267 44.9202 196.736 44.9146 197.253V199.392C44.9146 200.04 45.0339 200.599 45.2725 201.071C45.5168 201.543 45.8606 201.906 46.3038 202.162C46.7469 202.418 47.2725 202.545 47.8805 202.545C48.2839 202.545 48.6532 202.489 48.9884 202.375C49.3236 202.261 49.6106 202.091 49.8492 201.864C50.0878 201.636 50.2697 201.358 50.3947 201.028L53.7526 201.25C53.5822 202.057 53.2327 202.761 52.7043 203.364C52.1816 203.96 51.5055 204.426 50.6759 204.761C49.8521 205.091 48.9003 205.256 47.8208 205.256ZM58.5424 191.909L60.9458 196.486L63.4088 191.909H67.1333L63.3407 198.455L67.2355 205H63.5282L60.9458 200.474L58.406 205H54.656L58.5424 198.455L54.7924 191.909H58.5424ZM75.7966 191.909V194.636H67.9131V191.909H75.7966ZM69.7028 188.773H73.3335V200.977C73.3335 201.312 73.3847 201.574 73.4869 201.761C73.5892 201.943 73.7312 202.071 73.9131 202.145C74.1006 202.219 74.3165 202.256 74.5608 202.256C74.7312 202.256 74.9017 202.241 75.0722 202.213C75.2426 202.179 75.3733 202.153 75.4642 202.136L76.0352 204.838C75.8534 204.895 75.5977 204.96 75.2682 205.034C74.9386 205.114 74.5381 205.162 74.0665 205.179C73.1915 205.213 72.4244 205.097 71.7653 204.83C71.1119 204.562 70.6034 204.148 70.2398 203.585C69.8761 203.023 69.6972 202.312 69.7028 201.455V188.773ZM82.8725 205V187.545H94.4293V190.588H86.5629V194.747H93.6623V197.79H86.5629V205H82.8725ZM96.3874 205V191.909H100.018V205H96.3874ZM98.2113 190.222C97.6715 190.222 97.2084 190.043 96.8221 189.685C96.4414 189.321 96.251 188.886 96.251 188.381C96.251 187.881 96.4414 187.452 96.8221 187.094C97.2084 186.73 97.6715 186.548 98.2113 186.548C98.751 186.548 99.2113 186.73 99.5919 187.094C99.9783 187.452 100.171 187.881 100.171 188.381C100.171 188.886 99.9783 189.321 99.5919 189.685C99.2113 190.043 98.751 190.222 98.2113 190.222ZM108.436 205.256C107.09 205.256 105.931 204.983 104.959 204.438C103.993 203.886 103.249 203.108 102.726 202.102C102.203 201.091 101.942 199.895 101.942 198.514C101.942 197.168 102.203 195.986 102.726 194.969C103.249 193.952 103.985 193.159 104.934 192.591C105.888 192.023 107.007 191.739 108.291 191.739C109.155 191.739 109.959 191.878 110.703 192.156C111.453 192.429 112.107 192.841 112.664 193.392C113.226 193.943 113.664 194.636 113.976 195.472C114.289 196.301 114.445 197.273 114.445 198.386V199.384H103.391V197.134H111.027C111.027 196.611 110.914 196.148 110.686 195.744C110.459 195.341 110.144 195.026 109.74 194.798C109.343 194.565 108.88 194.449 108.351 194.449C107.8 194.449 107.311 194.577 106.885 194.832C106.465 195.082 106.135 195.42 105.897 195.847C105.658 196.267 105.536 196.736 105.53 197.253V199.392C105.53 200.04 105.649 200.599 105.888 201.071C106.132 201.543 106.476 201.906 106.919 202.162C107.363 202.418 107.888 202.545 108.496 202.545C108.899 202.545 109.269 202.489 109.604 202.375C109.939 202.261 110.226 202.091 110.465 201.864C110.703 201.636 110.885 201.358 111.01 201.028L114.368 201.25C114.198 202.057 113.848 202.761 113.32 203.364C112.797 203.96 112.121 204.426 111.291 204.761C110.468 205.091 109.516 205.256 108.436 205.256ZM119.989 187.545V205H116.358V187.545H119.989ZM127.265 205.213C126.271 205.213 125.37 204.957 124.563 204.446C123.762 203.929 123.126 203.17 122.654 202.17C122.188 201.165 121.955 199.932 121.955 198.472C121.955 196.972 122.197 195.724 122.68 194.73C123.163 193.73 123.805 192.983 124.606 192.489C125.413 191.989 126.296 191.739 127.257 191.739C127.99 191.739 128.6 191.864 129.089 192.114C129.583 192.358 129.981 192.665 130.282 193.034C130.589 193.398 130.822 193.756 130.981 194.108H131.092V187.545H134.714V205H131.134V202.903H130.981C130.811 203.267 130.569 203.628 130.257 203.986C129.95 204.338 129.549 204.631 129.055 204.864C128.566 205.097 127.97 205.213 127.265 205.213ZM128.416 202.324C129.001 202.324 129.495 202.165 129.899 201.847C130.308 201.523 130.62 201.071 130.836 200.491C131.058 199.912 131.169 199.233 131.169 198.455C131.169 197.676 131.061 197 130.845 196.426C130.629 195.852 130.316 195.409 129.907 195.097C129.498 194.784 129.001 194.628 128.416 194.628C127.819 194.628 127.316 194.79 126.907 195.114C126.498 195.437 126.188 195.886 125.978 196.46C125.768 197.034 125.663 197.699 125.663 198.455C125.663 199.216 125.768 199.889 125.978 200.474C126.194 201.054 126.504 201.509 126.907 201.838C127.316 202.162 127.819 202.324 128.416 202.324ZM148.135 195.642L144.811 195.847C144.754 195.562 144.632 195.307 144.445 195.08C144.257 194.847 144.01 194.662 143.703 194.526C143.402 194.384 143.041 194.312 142.621 194.312C142.058 194.312 141.584 194.432 141.198 194.67C140.811 194.903 140.618 195.216 140.618 195.608C140.618 195.92 140.743 196.185 140.993 196.401C141.243 196.616 141.672 196.79 142.28 196.92L144.649 197.398C145.922 197.659 146.871 198.08 147.496 198.659C148.121 199.239 148.433 200 148.433 200.943C148.433 201.801 148.181 202.554 147.675 203.202C147.175 203.849 146.487 204.355 145.612 204.719C144.743 205.077 143.74 205.256 142.604 205.256C140.871 205.256 139.49 204.895 138.462 204.173C137.439 203.446 136.84 202.457 136.664 201.207L140.235 201.02C140.343 201.548 140.604 201.952 141.019 202.23C141.433 202.503 141.965 202.639 142.612 202.639C143.249 202.639 143.76 202.517 144.146 202.273C144.539 202.023 144.737 201.702 144.743 201.31C144.737 200.98 144.598 200.71 144.325 200.5C144.053 200.284 143.632 200.119 143.064 200.006L140.797 199.554C139.519 199.298 138.567 198.855 137.942 198.224C137.323 197.594 137.013 196.79 137.013 195.812C137.013 194.972 137.24 194.247 137.695 193.639C138.155 193.031 138.8 192.562 139.629 192.233C140.465 191.903 141.442 191.739 142.561 191.739C144.215 191.739 145.516 192.088 146.465 192.787C147.419 193.486 147.976 194.437 148.135 195.642Z"
        fill="black" fill-opacity="0.8" />
    <rect x="497" y="160" width="176" height="72" rx="6" fill="#FFC7C2" />
    <path
        d="M536.155 190.588V187.545H550.491V190.588H545.147V205H541.499V190.588H536.155ZM556.343 205.256C555.02 205.256 553.875 204.974 552.909 204.412C551.949 203.844 551.207 203.054 550.684 202.043C550.162 201.026 549.9 199.847 549.9 198.506C549.9 197.153 550.162 195.972 550.684 194.96C551.207 193.943 551.949 193.153 552.909 192.591C553.875 192.023 555.02 191.739 556.343 191.739C557.667 191.739 558.809 192.023 559.77 192.591C560.736 193.153 561.48 193.943 562.003 194.96C562.525 195.972 562.787 197.153 562.787 198.506C562.787 199.847 562.525 201.026 562.003 202.043C561.48 203.054 560.736 203.844 559.77 204.412C558.809 204.974 557.667 205.256 556.343 205.256ZM556.361 202.443C556.963 202.443 557.466 202.273 557.869 201.932C558.272 201.585 558.576 201.114 558.781 200.517C558.991 199.92 559.096 199.241 559.096 198.48C559.096 197.719 558.991 197.04 558.781 196.443C558.576 195.847 558.272 195.375 557.869 195.028C557.466 194.682 556.963 194.509 556.361 194.509C555.753 194.509 555.241 194.682 554.826 195.028C554.417 195.375 554.108 195.847 553.897 196.443C553.693 197.04 553.591 197.719 553.591 198.48C553.591 199.241 553.693 199.92 553.897 200.517C554.108 201.114 554.417 201.585 554.826 201.932C555.241 202.273 555.753 202.443 556.361 202.443ZM570.606 205.256C569.282 205.256 568.137 204.974 567.172 204.412C566.211 203.844 565.47 203.054 564.947 202.043C564.424 201.026 564.163 199.847 564.163 198.506C564.163 197.153 564.424 195.972 564.947 194.96C565.47 193.943 566.211 193.153 567.172 192.591C568.137 192.023 569.282 191.739 570.606 191.739C571.93 191.739 573.072 192.023 574.032 192.591C574.998 193.153 575.743 193.943 576.265 194.96C576.788 195.972 577.049 197.153 577.049 198.506C577.049 199.847 576.788 201.026 576.265 202.043C575.743 203.054 574.998 203.844 574.032 204.412C573.072 204.974 571.93 205.256 570.606 205.256ZM570.623 202.443C571.226 202.443 571.728 202.273 572.132 201.932C572.535 201.585 572.839 201.114 573.044 200.517C573.254 199.92 573.359 199.241 573.359 198.48C573.359 197.719 573.254 197.04 573.044 196.443C572.839 195.847 572.535 195.375 572.132 195.028C571.728 194.682 571.226 194.509 570.623 194.509C570.015 194.509 569.504 194.682 569.089 195.028C568.68 195.375 568.37 195.847 568.16 196.443C567.956 197.04 567.853 197.719 567.853 198.48C567.853 199.241 567.956 199.92 568.16 200.517C568.37 201.114 568.68 201.585 569.089 201.932C569.504 202.273 570.015 202.443 570.623 202.443ZM582.585 187.545V205H578.954V187.545H582.585ZM585.105 205V187.545H588.736V194.108H588.847C589.006 193.756 589.236 193.398 589.537 193.034C589.844 192.665 590.242 192.358 590.73 192.114C591.225 191.864 591.838 191.739 592.571 191.739C593.526 191.739 594.407 191.989 595.213 192.489C596.02 192.983 596.665 193.73 597.148 194.73C597.631 195.724 597.873 196.972 597.873 198.472C597.873 199.932 597.637 201.165 597.165 202.17C596.699 203.17 596.063 203.929 595.256 204.446C594.455 204.957 593.557 205.213 592.563 205.213C591.858 205.213 591.259 205.097 590.765 204.864C590.276 204.631 589.875 204.338 589.563 203.986C589.25 203.628 589.012 203.267 588.847 202.903H588.685V205H585.105ZM588.659 198.455C588.659 199.233 588.767 199.912 588.983 200.491C589.199 201.071 589.512 201.523 589.921 201.847C590.33 202.165 590.827 202.324 591.412 202.324C592.003 202.324 592.503 202.162 592.912 201.838C593.321 201.509 593.631 201.054 593.841 200.474C594.057 199.889 594.165 199.216 594.165 198.455C594.165 197.699 594.06 197.034 593.85 196.46C593.64 195.886 593.33 195.437 592.921 195.114C592.512 194.79 592.009 194.628 591.412 194.628C590.821 194.628 590.321 194.784 589.912 195.097C589.509 195.409 589.199 195.852 588.983 196.426C588.767 197 588.659 197.676 588.659 198.455ZM603.572 205.247C602.737 205.247 601.992 205.102 601.339 204.812C600.686 204.517 600.169 204.082 599.788 203.509C599.413 202.929 599.225 202.207 599.225 201.344C599.225 200.616 599.359 200.006 599.626 199.511C599.893 199.017 600.257 198.619 600.717 198.318C601.177 198.017 601.7 197.79 602.285 197.636C602.876 197.483 603.495 197.375 604.143 197.312C604.904 197.233 605.518 197.159 605.984 197.091C606.45 197.017 606.788 196.909 606.998 196.767C607.208 196.625 607.314 196.415 607.314 196.136V196.085C607.314 195.545 607.143 195.128 606.802 194.832C606.467 194.537 605.99 194.389 605.37 194.389C604.717 194.389 604.197 194.534 603.811 194.824C603.424 195.108 603.169 195.466 603.044 195.898L599.686 195.625C599.856 194.83 600.191 194.142 600.691 193.562C601.191 192.977 601.836 192.528 602.626 192.216C603.421 191.898 604.342 191.739 605.387 191.739C606.115 191.739 606.811 191.824 607.475 191.994C608.146 192.165 608.74 192.429 609.257 192.787C609.779 193.145 610.191 193.605 610.492 194.168C610.794 194.724 610.944 195.392 610.944 196.17V205H607.501V203.185H607.399C607.189 203.594 606.907 203.955 606.555 204.267C606.203 204.574 605.779 204.815 605.285 204.991C604.791 205.162 604.22 205.247 603.572 205.247ZM604.612 202.741C605.146 202.741 605.617 202.636 606.027 202.426C606.436 202.21 606.757 201.92 606.99 201.557C607.223 201.193 607.339 200.781 607.339 200.321V198.932C607.225 199.006 607.069 199.074 606.87 199.136C606.677 199.193 606.458 199.247 606.214 199.298C605.97 199.344 605.725 199.386 605.481 199.426C605.237 199.46 605.015 199.491 604.816 199.52C604.39 199.582 604.018 199.682 603.7 199.818C603.382 199.955 603.135 200.139 602.958 200.372C602.782 200.599 602.694 200.884 602.694 201.224C602.694 201.719 602.873 202.097 603.231 202.358C603.595 202.614 604.055 202.741 604.612 202.741ZM613.305 205V191.909H616.825V194.193H616.961C617.2 193.381 617.6 192.767 618.163 192.352C618.725 191.932 619.373 191.722 620.106 191.722C620.288 191.722 620.484 191.733 620.694 191.756C620.904 191.778 621.089 191.81 621.248 191.849V195.071C621.078 195.02 620.842 194.974 620.541 194.935C620.24 194.895 619.964 194.875 619.714 194.875C619.18 194.875 618.703 194.991 618.282 195.224C617.867 195.452 617.538 195.77 617.294 196.179C617.055 196.588 616.936 197.06 616.936 197.594V205H613.305ZM633.561 195.642L630.237 195.847C630.181 195.562 630.058 195.307 629.871 195.08C629.683 194.847 629.436 194.662 629.129 194.526C628.828 194.384 628.468 194.312 628.047 194.312C627.485 194.312 627.01 194.432 626.624 194.67C626.237 194.903 626.044 195.216 626.044 195.608C626.044 195.92 626.169 196.185 626.419 196.401C626.669 196.616 627.098 196.79 627.706 196.92L630.076 197.398C631.348 197.659 632.297 198.08 632.922 198.659C633.547 199.239 633.86 200 633.86 200.943C633.86 201.801 633.607 202.554 633.101 203.202C632.601 203.849 631.914 204.355 631.039 204.719C630.169 205.077 629.166 205.256 628.03 205.256C626.297 205.256 624.916 204.895 623.888 204.173C622.865 203.446 622.266 202.457 622.09 201.207L625.661 201.02C625.769 201.548 626.03 201.952 626.445 202.23C626.86 202.503 627.391 202.639 628.039 202.639C628.675 202.639 629.186 202.517 629.573 202.273C629.965 202.023 630.164 201.702 630.169 201.31C630.164 200.98 630.024 200.71 629.752 200.5C629.479 200.284 629.058 200.119 628.49 200.006L626.223 199.554C624.945 199.298 623.993 198.855 623.368 198.224C622.749 197.594 622.439 196.79 622.439 195.812C622.439 194.972 622.666 194.247 623.121 193.639C623.581 193.031 624.226 192.562 625.056 192.233C625.891 191.903 626.868 191.739 627.987 191.739C629.641 191.739 630.942 192.088 631.891 192.787C632.845 193.486 633.402 194.437 633.561 195.642Z"
        fill="black" fill-opacity="0.8" />
    <rect x="497" y="80" width="176" height="72" rx="6" fill="#BDE3FF" />
    <path
        d="M541.666 125V107.545H548.655C549.939 107.545 551.01 107.736 551.868 108.116C552.726 108.497 553.371 109.026 553.803 109.702C554.234 110.372 554.45 111.145 554.45 112.02C554.45 112.702 554.314 113.301 554.041 113.818C553.769 114.33 553.394 114.75 552.916 115.08C552.445 115.403 551.905 115.634 551.297 115.77V115.94C551.962 115.969 552.584 116.156 553.163 116.503C553.749 116.849 554.223 117.335 554.587 117.96C554.95 118.58 555.132 119.318 555.132 120.176C555.132 121.102 554.902 121.929 554.442 122.656C553.987 123.378 553.314 123.949 552.422 124.369C551.53 124.79 550.431 125 549.124 125H541.666ZM545.357 121.983H548.365C549.394 121.983 550.144 121.787 550.615 121.395C551.087 120.997 551.323 120.469 551.323 119.81C551.323 119.327 551.206 118.901 550.973 118.531C550.74 118.162 550.408 117.872 549.976 117.662C549.55 117.452 549.041 117.347 548.45 117.347H545.357V121.983ZM545.357 114.849H548.092C548.598 114.849 549.047 114.761 549.439 114.585C549.837 114.403 550.149 114.148 550.377 113.818C550.609 113.489 550.726 113.094 550.726 112.634C550.726 112.003 550.502 111.494 550.053 111.108C549.609 110.722 548.979 110.528 548.161 110.528H545.357V114.849ZM565.404 119.426V111.909H569.035V125H565.549V122.622H565.413C565.117 123.389 564.626 124.006 563.938 124.472C563.256 124.937 562.424 125.17 561.441 125.17C560.566 125.17 559.796 124.972 559.131 124.574C558.467 124.176 557.947 123.611 557.572 122.878C557.202 122.145 557.015 121.267 557.009 120.244V111.909H560.64V119.597C560.646 120.369 560.853 120.98 561.262 121.429C561.671 121.878 562.22 122.102 562.907 122.102C563.345 122.102 563.754 122.003 564.134 121.804C564.515 121.599 564.822 121.298 565.055 120.901C565.293 120.503 565.41 120.011 565.404 119.426ZM578.446 111.909V114.636H570.563V111.909H578.446ZM572.352 108.773H575.983V120.977C575.983 121.312 576.034 121.574 576.136 121.761C576.239 121.943 576.381 122.071 576.563 122.145C576.75 122.219 576.966 122.256 577.21 122.256C577.381 122.256 577.551 122.241 577.722 122.213C577.892 122.179 578.023 122.153 578.114 122.136L578.685 124.838C578.503 124.895 578.247 124.96 577.918 125.034C577.588 125.114 577.188 125.162 576.716 125.179C575.841 125.213 575.074 125.097 574.415 124.83C573.761 124.562 573.253 124.148 572.889 123.585C572.526 123.023 572.347 122.312 572.352 121.455V108.773ZM587.318 111.909V114.636H579.435V111.909H587.318ZM581.224 108.773H584.855V120.977C584.855 121.312 584.906 121.574 585.009 121.761C585.111 121.943 585.253 122.071 585.435 122.145C585.622 122.219 585.838 122.256 586.082 122.256C586.253 122.256 586.423 122.241 586.594 122.213C586.764 122.179 586.895 122.153 586.986 122.136L587.557 124.838C587.375 124.895 587.119 124.96 586.79 125.034C586.46 125.114 586.06 125.162 585.588 125.179C584.713 125.213 583.946 125.097 583.287 124.83C582.634 124.562 582.125 124.148 581.761 123.585C581.398 123.023 581.219 122.312 581.224 121.455V108.773ZM595.001 125.256C593.678 125.256 592.533 124.974 591.567 124.412C590.606 123.844 589.865 123.054 589.342 122.043C588.82 121.026 588.558 119.847 588.558 118.506C588.558 117.153 588.82 115.972 589.342 114.96C589.865 113.943 590.606 113.153 591.567 112.591C592.533 112.023 593.678 111.739 595.001 111.739C596.325 111.739 597.467 112.023 598.428 112.591C599.393 113.153 600.138 113.943 600.66 114.96C601.183 115.972 601.445 117.153 601.445 118.506C601.445 119.847 601.183 121.026 600.66 122.043C600.138 123.054 599.393 123.844 598.428 124.412C597.467 124.974 596.325 125.256 595.001 125.256ZM595.018 122.443C595.621 122.443 596.124 122.273 596.527 121.932C596.93 121.585 597.234 121.114 597.439 120.517C597.649 119.92 597.754 119.241 597.754 118.48C597.754 117.719 597.649 117.04 597.439 116.443C597.234 115.847 596.93 115.375 596.527 115.028C596.124 114.682 595.621 114.509 595.018 114.509C594.41 114.509 593.899 114.682 593.484 115.028C593.075 115.375 592.766 115.847 592.555 116.443C592.351 117.04 592.249 117.719 592.249 118.48C592.249 119.241 592.351 119.92 592.555 120.517C592.766 121.114 593.075 121.585 593.484 121.932C593.899 122.273 594.41 122.443 595.018 122.443ZM606.98 117.432V125H603.349V111.909H606.81V114.219H606.963C607.253 113.457 607.739 112.855 608.42 112.412C609.102 111.963 609.929 111.739 610.9 111.739C611.81 111.739 612.602 111.938 613.278 112.335C613.954 112.733 614.48 113.301 614.855 114.04C615.23 114.773 615.418 115.648 615.418 116.665V125H611.787V117.312C611.793 116.511 611.588 115.886 611.173 115.438C610.758 114.983 610.187 114.756 609.46 114.756C608.972 114.756 608.54 114.861 608.165 115.071C607.795 115.281 607.506 115.588 607.295 115.991C607.091 116.389 606.986 116.869 606.98 117.432ZM628.715 115.642L625.391 115.847C625.334 115.562 625.212 115.307 625.025 115.08C624.837 114.847 624.59 114.662 624.283 114.526C623.982 114.384 623.621 114.312 623.201 114.312C622.638 114.312 622.164 114.432 621.778 114.67C621.391 114.903 621.198 115.216 621.198 115.608C621.198 115.92 621.323 116.185 621.573 116.401C621.823 116.616 622.252 116.79 622.86 116.92L625.229 117.398C626.502 117.659 627.451 118.08 628.076 118.659C628.701 119.239 629.013 120 629.013 120.943C629.013 121.801 628.761 122.554 628.255 123.202C627.755 123.849 627.067 124.355 626.192 124.719C625.323 125.077 624.32 125.256 623.184 125.256C621.451 125.256 620.07 124.895 619.042 124.173C618.019 123.446 617.42 122.457 617.244 121.207L620.815 121.02C620.922 121.548 621.184 121.952 621.599 122.23C622.013 122.503 622.545 122.639 623.192 122.639C623.829 122.639 624.34 122.517 624.726 122.273C625.119 122.023 625.317 121.702 625.323 121.31C625.317 120.98 625.178 120.71 624.905 120.5C624.633 120.284 624.212 120.119 623.644 120.006L621.377 119.554C620.099 119.298 619.147 118.855 618.522 118.224C617.903 117.594 617.593 116.79 617.593 115.812C617.593 114.972 617.82 114.247 618.275 113.639C618.735 113.031 619.38 112.562 620.209 112.233C621.045 111.903 622.022 111.739 623.141 111.739C624.795 111.739 626.096 112.088 627.045 112.787C627.999 113.486 628.556 114.437 628.715 115.642Z"
        fill="black" fill-opacity="0.8" />
    <path
        d="M427 114L432.256 116.389L431.697 110.643L427 114ZM431.578 114.054C439.557 112.454 445.511 106.692 450.478 99.0826C455.443 91.4755 459.482 81.9287 463.586 72.6415C467.702 63.3278 471.884 54.2757 477.148 47.549C482.4 40.8369 488.681 36.5 497 36.5V35.5C488.266 35.5 481.724 40.0778 476.36 46.9328C471.007 53.7732 466.78 62.9408 462.671 72.2373C458.551 81.5602 454.55 91.014 449.64 98.536C444.732 106.056 438.973 111.551 431.381 113.074L431.578 114.054Z"
        fill="#113366" />
    <circle cx="497" cy="36" r="1.5" fill="white" stroke="#113366" />
    <path
        d="M427 114L431.99 116.905L432.01 111.131L427 114ZM431.496 114.516C444.524 114.611 453.943 115.106 463.586 115.579C473.231 116.051 483.095 116.5 497 116.5V115.5C483.12 115.5 473.274 115.052 463.635 114.58C453.994 114.107 444.555 113.611 431.503 113.516L431.496 114.516Z"
        fill="#113366" />
    <circle cx="497" cy="116" r="1.5" fill="white" stroke="#113366" />
    <path
        d="M427 114L431.686 117.372L432.264 111.628L427 114ZM431.378 114.94C439.032 116.527 444.805 122.295 449.704 130.204C454.602 138.112 458.565 148.056 462.646 157.86C466.716 167.638 470.906 177.278 476.251 184.472C481.606 191.679 488.173 196.5 497 196.5V195.5C488.608 195.5 482.303 190.941 477.054 183.876C471.794 176.797 467.647 167.271 463.569 157.476C459.503 147.707 455.505 137.671 450.554 129.677C445.603 121.684 439.637 115.631 431.581 113.961L431.378 114.94Z"
        fill="#113366" />
    <circle cx="497" cy="196" r="1.5" fill="white" stroke="#113366" />
    <path
        d="M176 36L180.733 39.3065L181.23 33.5545L176 36ZM180.395 36.8797C188.532 38.3256 194.738 43.7942 200.048 51.2991C205.362 58.8096 209.722 68.2791 214.202 77.6284C218.67 86.9518 223.258 96.1562 229.011 103.026C234.778 109.911 241.757 114.5 251 114.5V113.5C242.147 113.5 235.425 109.127 229.778 102.384C224.118 95.6259 219.58 86.5364 215.104 77.1962C210.641 67.882 206.239 58.3181 200.864 50.7215C195.486 43.1195 189.079 37.4073 180.57 35.8951L180.395 36.8797Z"
        fill="#113366" />
    <circle cx="251" cy="114" r="1.5" fill="white" stroke="#113366" />
    <path
        d="M176 116L181.009 118.871L180.991 113.098L176 116ZM180.502 116.486C194.594 116.397 204.76 115.9 215.131 115.426C225.499 114.952 236.076 114.5 251 114.5V113.5C236.053 113.5 225.459 113.952 215.085 114.427C204.713 114.901 194.565 115.397 180.496 115.486L180.502 116.486Z"
        fill="#113366" />
    <circle cx="251" cy="114" r="1.5" fill="white" stroke="#113366" />
    <path
        d="M176 196L181.237 198.431L180.724 192.68L176 196ZM180.568 196.092C189.156 194.515 195.577 188.514 200.94 180.528C206.301 172.545 210.662 162.491 215.088 152.694C219.526 142.87 224.028 133.306 229.684 126.194C235.328 119.097 242.073 114.5 251 114.5V113.5C241.664 113.5 234.659 118.332 228.901 125.572C223.156 132.797 218.606 142.476 214.177 152.282C209.735 162.114 205.413 172.075 200.11 179.97C194.81 187.862 188.588 193.603 180.388 195.109L180.568 196.092Z"
        fill="#113366" />
    <circle cx="251" cy="114" r="1.5" fill="white" stroke="#113366" />
</svg>