<svg width="752" height="289" viewBox="0 0 752 289" fill="none" xmlns="http://www.w3.org/2000/svg">
  <rect x="260" width="232" height="80" rx="6" fill="#E6E6E6" />
  <path
    d="M296.497 31.5455V49H294.077L285.204 36.1989H285.042V49H282.409V31.5455H284.846L293.727 44.3636H293.889V31.5455H296.497ZM307.971 43.571V35.9091H310.528V49H308.022V46.733H307.885C307.584 47.4318 307.101 48.0142 306.437 48.4801C305.778 48.9403 304.957 49.1705 303.974 49.1705C303.133 49.1705 302.388 48.9858 301.741 48.6165C301.099 48.2415 300.593 47.6875 300.224 46.9545C299.86 46.2216 299.678 45.3153 299.678 44.2358V35.9091H302.226V43.929C302.226 44.821 302.474 45.5312 302.968 46.0597C303.462 46.5881 304.104 46.8523 304.894 46.8523C305.371 46.8523 305.846 46.733 306.317 46.4943C306.795 46.2557 307.189 45.8949 307.502 45.4119C307.82 44.929 307.976 44.3153 307.971 43.571ZM313.496 49V35.9091H315.942V38.0398H316.103C316.376 37.3182 316.822 36.7557 317.442 36.3523C318.061 35.9432 318.802 35.7386 319.666 35.7386C320.541 35.7386 321.274 35.9432 321.865 36.3523C322.461 36.7614 322.902 37.3239 323.186 38.0398H323.322C323.635 37.3409 324.132 36.7841 324.814 36.3693C325.496 35.9489 326.308 35.7386 327.251 35.7386C328.439 35.7386 329.407 36.1108 330.157 36.8551C330.913 37.5994 331.291 38.7216 331.291 40.2216V49H328.743V40.4602C328.743 39.5739 328.501 38.9318 328.018 38.5341C327.535 38.1364 326.959 37.9375 326.288 37.9375C325.459 37.9375 324.814 38.1932 324.353 38.7045C323.893 39.2102 323.663 39.8608 323.663 40.6562V49H321.123V40.2983C321.123 39.5881 320.902 39.017 320.459 38.5852C320.015 38.1534 319.439 37.9375 318.728 37.9375C318.246 37.9375 317.8 38.0653 317.39 38.321C316.987 38.571 316.66 38.9205 316.41 39.3693C316.166 39.8182 316.044 40.3381 316.044 40.929V49H313.496ZM334.455 49V31.5455H337.003V38.0312H337.157C337.304 37.7585 337.518 37.4432 337.796 37.0852C338.074 36.7273 338.461 36.4148 338.955 36.1477C339.449 35.875 340.103 35.7386 340.915 35.7386C341.972 35.7386 342.915 36.0057 343.745 36.5398C344.574 37.0739 345.225 37.8437 345.696 38.8494C346.174 39.8551 346.412 41.0653 346.412 42.4801C346.412 43.8949 346.177 45.108 345.705 46.1193C345.233 47.125 344.586 47.9006 343.762 48.446C342.938 48.9858 341.998 49.2557 340.941 49.2557C340.145 49.2557 339.495 49.1222 338.989 48.8551C338.489 48.5881 338.097 48.2756 337.813 47.9176C337.529 47.5597 337.31 47.2415 337.157 46.9631H336.944V49H334.455ZM336.952 42.4545C336.952 43.375 337.086 44.1818 337.353 44.875C337.62 45.5682 338.006 46.1108 338.512 46.5028C339.018 46.8892 339.637 47.0824 340.37 47.0824C341.131 47.0824 341.768 46.8807 342.279 46.4773C342.79 46.0682 343.177 45.5142 343.438 44.8153C343.705 44.1165 343.839 43.3295 343.839 42.4545C343.839 41.5909 343.708 40.8153 343.446 40.1278C343.191 39.4403 342.804 38.8977 342.287 38.5C341.776 38.1023 341.137 37.9034 340.37 37.9034C339.631 37.9034 339.006 38.0937 338.495 38.4744C337.989 38.8551 337.606 39.3864 337.344 40.0682C337.083 40.75 336.952 41.5455 336.952 42.4545ZM354.46 49.2642C353.17 49.2642 352.059 48.9886 351.128 48.4375C350.201 47.8807 349.486 47.0994 348.98 46.0938C348.48 45.0824 348.23 43.8977 348.23 42.5398C348.23 41.1989 348.48 40.017 348.98 38.9943C349.486 37.9716 350.19 37.1733 351.093 36.5994C352.003 36.0256 353.065 35.7386 354.281 35.7386C355.02 35.7386 355.736 35.8608 356.429 36.1051C357.122 36.3494 357.744 36.733 358.295 37.2557C358.846 37.7784 359.281 38.4574 359.599 39.2926C359.917 40.1222 360.076 41.1307 360.076 42.3182V43.2216H349.67V41.3125H357.579C357.579 40.642 357.443 40.0483 357.17 39.5312C356.897 39.0085 356.514 38.5966 356.02 38.2955C355.531 37.9943 354.957 37.8438 354.298 37.8438C353.582 37.8438 352.957 38.0199 352.423 38.3722C351.895 38.7187 351.486 39.1733 351.196 39.7358C350.912 40.2926 350.77 40.8977 350.77 41.5511V43.0426C350.77 43.9176 350.923 44.6619 351.23 45.2756C351.542 45.8892 351.977 46.358 352.534 46.6818C353.091 47 353.741 47.1591 354.486 47.1591C354.968 47.1591 355.409 47.0909 355.807 46.9545C356.204 46.8125 356.548 46.6023 356.838 46.3239C357.128 46.0455 357.349 45.7017 357.503 45.2926L359.915 45.7273C359.721 46.4375 359.375 47.0597 358.875 47.5938C358.38 48.1222 357.758 48.5341 357.008 48.8295C356.264 49.1193 355.415 49.2642 354.46 49.2642ZM362.448 49V35.9091H364.911V37.9886H365.047C365.286 37.2841 365.706 36.7301 366.309 36.3267C366.917 35.9176 367.604 35.7131 368.371 35.7131C368.53 35.7131 368.718 35.7187 368.934 35.7301C369.155 35.7415 369.329 35.7557 369.454 35.7727V38.2102C369.351 38.1818 369.169 38.1506 368.908 38.1165C368.647 38.0767 368.385 38.0568 368.124 38.0568C367.522 38.0568 366.985 38.1847 366.513 38.4403C366.047 38.6903 365.678 39.0398 365.405 39.4886C365.133 39.9318 364.996 40.4375 364.996 41.0057V49H362.448ZM386.823 36.1307C386.732 35.3239 386.357 34.6989 385.698 34.2557C385.039 33.8068 384.209 33.5824 383.209 33.5824C382.493 33.5824 381.874 33.696 381.351 33.9233C380.828 34.1449 380.422 34.4517 380.132 34.8438C379.848 35.2301 379.706 35.6705 379.706 36.1648C379.706 36.5795 379.803 36.9375 379.996 37.2386C380.195 37.5398 380.453 37.7926 380.772 37.9972C381.096 38.196 381.442 38.3636 381.811 38.5C382.181 38.6307 382.536 38.7386 382.877 38.8239L384.581 39.267C385.138 39.4034 385.709 39.5881 386.294 39.821C386.88 40.054 387.422 40.3608 387.922 40.7415C388.422 41.1222 388.826 41.5938 389.132 42.1562C389.445 42.7188 389.601 43.392 389.601 44.1761C389.601 45.1648 389.346 46.0426 388.834 46.8097C388.328 47.5767 387.593 48.1818 386.627 48.625C385.667 49.0682 384.505 49.2898 383.141 49.2898C381.834 49.2898 380.703 49.0824 379.749 48.6676C378.794 48.2528 378.047 47.6648 377.507 46.9034C376.968 46.1364 376.669 45.2273 376.613 44.1761H379.255C379.306 44.8068 379.51 45.3324 379.868 45.7528C380.232 46.1676 380.695 46.4773 381.257 46.6818C381.826 46.8807 382.448 46.9801 383.124 46.9801C383.868 46.9801 384.53 46.8636 385.11 46.6307C385.695 46.392 386.155 46.0625 386.49 45.642C386.826 45.2159 386.993 44.7187 386.993 44.1506C386.993 43.6335 386.846 43.2102 386.55 42.8807C386.26 42.5511 385.865 42.2784 385.365 42.0625C384.871 41.8466 384.311 41.6562 383.686 41.4915L381.624 40.929C380.226 40.5483 379.118 39.9886 378.3 39.25C377.488 38.5114 377.081 37.5341 377.081 36.3182C377.081 35.3125 377.354 34.4347 377.899 33.6847C378.445 32.9347 379.184 32.3523 380.115 31.9375C381.047 31.517 382.098 31.3068 383.269 31.3068C384.451 31.3068 385.493 31.5142 386.397 31.929C387.306 32.3438 388.022 32.9148 388.544 33.642C389.067 34.3636 389.34 35.1932 389.363 36.1307H386.823ZM393.698 53.9091C393.318 53.9091 392.971 53.8778 392.659 53.8153C392.346 53.7585 392.113 53.696 391.96 53.6278L392.573 51.5398C393.039 51.6648 393.454 51.7188 393.818 51.7017C394.181 51.6847 394.502 51.5483 394.781 51.2926C395.065 51.0369 395.315 50.6193 395.531 50.0398L395.846 49.1705L391.056 35.9091H393.784L397.099 46.0682H397.235L400.551 35.9091H403.287L397.892 50.7472C397.642 51.429 397.323 52.0057 396.937 52.4773C396.551 52.9545 396.09 53.3125 395.556 53.5511C395.022 53.7898 394.403 53.9091 393.698 53.9091ZM415.035 39.1051L412.725 39.5142C412.629 39.2187 412.475 38.9375 412.265 38.6705C412.061 38.4034 411.782 38.1847 411.43 38.0142C411.078 37.8437 410.637 37.7585 410.109 37.7585C409.387 37.7585 408.785 37.9205 408.302 38.2443C407.819 38.5625 407.578 38.9744 407.578 39.4801C407.578 39.9176 407.74 40.2699 408.063 40.5369C408.387 40.804 408.91 41.0227 409.632 41.1932L411.711 41.6705C412.916 41.9489 413.813 42.3778 414.404 42.9574C414.995 43.5369 415.291 44.2898 415.291 45.2159C415.291 46 415.063 46.6989 414.609 47.3125C414.16 47.9205 413.532 48.3977 412.725 48.7443C411.924 49.0909 410.995 49.2642 409.938 49.2642C408.473 49.2642 407.277 48.9517 406.35 48.3267C405.424 47.696 404.856 46.8011 404.646 45.642L407.109 45.267C407.262 45.9091 407.578 46.3949 408.055 46.7244C408.532 47.0483 409.154 47.2102 409.921 47.2102C410.757 47.2102 411.424 47.0369 411.924 46.6903C412.424 46.3381 412.674 45.9091 412.674 45.4034C412.674 44.9943 412.521 44.6506 412.214 44.3722C411.913 44.0937 411.45 43.8835 410.825 43.7415L408.609 43.2557C407.387 42.9773 406.484 42.5341 405.899 41.9261C405.319 41.3182 405.029 40.5483 405.029 39.6165C405.029 38.8437 405.245 38.1676 405.677 37.5881C406.109 37.0085 406.706 36.5568 407.467 36.233C408.228 35.9034 409.1 35.7386 410.083 35.7386C411.498 35.7386 412.612 36.0455 413.424 36.6591C414.237 37.267 414.774 38.0824 415.035 39.1051ZM423.747 35.9091V37.9545H416.597V35.9091H423.747ZM418.514 32.7727H421.063V45.1562C421.063 45.6506 421.137 46.0227 421.284 46.2727C421.432 46.517 421.622 46.6847 421.855 46.7756C422.094 46.8608 422.353 46.9034 422.631 46.9034C422.835 46.9034 423.014 46.8892 423.168 46.8608C423.321 46.8324 423.441 46.8097 423.526 46.7926L423.986 48.8977C423.838 48.9545 423.628 49.0114 423.355 49.0682C423.083 49.1307 422.742 49.1648 422.333 49.1705C421.662 49.1818 421.037 49.0625 420.458 48.8125C419.878 48.5625 419.409 48.1761 419.051 47.6534C418.693 47.1307 418.514 46.4744 418.514 45.6847V32.7727ZM431.612 49.2642C430.322 49.2642 429.211 48.9886 428.279 48.4375C427.353 47.8807 426.637 47.0994 426.132 46.0938C425.632 45.0824 425.382 43.8977 425.382 42.5398C425.382 41.1989 425.632 40.017 426.132 38.9943C426.637 37.9716 427.342 37.1733 428.245 36.5994C429.154 36.0256 430.217 35.7386 431.433 35.7386C432.171 35.7386 432.887 35.8608 433.58 36.1051C434.274 36.3494 434.896 36.733 435.447 37.2557C435.998 37.7784 436.433 38.4574 436.751 39.2926C437.069 40.1222 437.228 41.1307 437.228 42.3182V43.2216H426.822V41.3125H434.731C434.731 40.642 434.595 40.0483 434.322 39.5312C434.049 39.0085 433.666 38.5966 433.171 38.2955C432.683 37.9943 432.109 37.8438 431.45 37.8438C430.734 37.8438 430.109 38.0199 429.575 38.3722C429.046 38.7187 428.637 39.1733 428.348 39.7358C428.063 40.2926 427.921 40.8977 427.921 41.5511V43.0426C427.921 43.9176 428.075 44.6619 428.382 45.2756C428.694 45.8892 429.129 46.358 429.686 46.6818C430.242 47 430.893 47.1591 431.637 47.1591C432.12 47.1591 432.561 47.0909 432.958 46.9545C433.356 46.8125 433.7 46.6023 433.99 46.3239C434.279 46.0455 434.501 45.7017 434.654 45.2926L437.066 45.7273C436.873 46.4375 436.526 47.0597 436.026 47.5938C435.532 48.1222 434.91 48.5341 434.16 48.8295C433.416 49.1193 432.566 49.2642 431.612 49.2642ZM439.6 49V35.9091H442.046V38.0398H442.208C442.48 37.3182 442.926 36.7557 443.546 36.3523C444.165 35.9432 444.906 35.7386 445.77 35.7386C446.645 35.7386 447.378 35.9432 447.969 36.3523C448.566 36.7614 449.006 37.3239 449.29 38.0398H449.426C449.739 37.3409 450.236 36.7841 450.918 36.3693C451.6 35.9489 452.412 35.7386 453.355 35.7386C454.543 35.7386 455.512 36.1108 456.262 36.8551C457.017 37.5994 457.395 38.7216 457.395 40.2216V49H454.847V40.4602C454.847 39.5739 454.605 38.9318 454.122 38.5341C453.639 38.1364 453.063 37.9375 452.392 37.9375C451.563 37.9375 450.918 38.1932 450.458 38.7045C449.997 39.2102 449.767 39.8608 449.767 40.6562V49H447.227V40.2983C447.227 39.5881 447.006 39.017 446.563 38.5852C446.119 38.1534 445.543 37.9375 444.833 37.9375C444.35 37.9375 443.904 38.0653 443.494 38.321C443.091 38.571 442.764 38.9205 442.514 39.3693C442.27 39.8182 442.148 40.3381 442.148 40.929V49H439.6ZM470.164 39.1051L467.855 39.5142C467.758 39.2187 467.605 38.9375 467.394 38.6705C467.19 38.4034 466.911 38.1847 466.559 38.0142C466.207 37.8437 465.766 37.7585 465.238 37.7585C464.516 37.7585 463.914 37.9205 463.431 38.2443C462.948 38.5625 462.707 38.9744 462.707 39.4801C462.707 39.9176 462.869 40.2699 463.193 40.5369C463.516 40.804 464.039 41.0227 464.761 41.1932L466.84 41.6705C468.045 41.9489 468.943 42.3778 469.534 42.9574C470.124 43.5369 470.42 44.2898 470.42 45.2159C470.42 46 470.193 46.6989 469.738 47.3125C469.289 47.9205 468.661 48.3977 467.855 48.7443C467.053 49.0909 466.124 49.2642 465.068 49.2642C463.602 49.2642 462.406 48.9517 461.48 48.3267C460.553 47.696 459.985 46.8011 459.775 45.642L462.238 45.267C462.391 45.9091 462.707 46.3949 463.184 46.7244C463.661 47.0483 464.284 47.2102 465.051 47.2102C465.886 47.2102 466.553 47.0369 467.053 46.6903C467.553 46.3381 467.803 45.9091 467.803 45.4034C467.803 44.9943 467.65 44.6506 467.343 44.3722C467.042 44.0937 466.579 43.8835 465.954 43.7415L463.738 43.2557C462.516 42.9773 461.613 42.5341 461.028 41.9261C460.448 41.3182 460.159 40.5483 460.159 39.6165C460.159 38.8437 460.374 38.1676 460.806 37.5881C461.238 37.0085 461.835 36.5568 462.596 36.233C463.357 35.9034 464.23 35.7386 465.213 35.7386C466.627 35.7386 467.741 36.0455 468.553 36.6591C469.366 37.267 469.903 38.0824 470.164 39.1051Z"
    fill="black" fill-opacity="0.8" />
  <rect y="112" width="176" height="80" rx="6" fill="#E6E6E6" />
  <path
    d="M33.4736 158V146.364H38.1327C38.9888 146.364 39.7028 146.491 40.2747 146.744C40.8467 146.998 41.2766 147.35 41.5645 147.801C41.8524 148.248 41.9963 148.763 41.9963 149.347C41.9963 149.801 41.9054 150.201 41.7236 150.545C41.5418 150.886 41.2918 151.167 40.9736 151.386C40.6592 151.602 40.2994 151.756 39.8941 151.847V151.96C40.3372 151.979 40.752 152.104 41.1384 152.335C41.5285 152.566 41.8448 152.89 42.0872 153.307C42.3297 153.72 42.4509 154.212 42.4509 154.784C42.4509 155.402 42.2975 155.953 41.9907 156.438C41.6876 156.919 41.2388 157.299 40.6441 157.58C40.0494 157.86 39.3164 158 38.4452 158H33.4736ZM35.9338 155.989H37.9395C38.6251 155.989 39.1251 155.858 39.4395 155.597C39.7539 155.331 39.9111 154.979 39.9111 154.54C39.9111 154.218 39.8335 153.934 39.6782 153.688C39.5229 153.441 39.3013 153.248 39.0134 153.108C38.7293 152.968 38.3903 152.898 37.9963 152.898H35.9338V155.989ZM35.9338 151.233H37.7577C38.0948 151.233 38.3941 151.174 38.6554 151.057C38.9206 150.936 39.1289 150.765 39.2804 150.545C39.4357 150.326 39.5134 150.062 39.5134 149.756C39.5134 149.335 39.3638 148.996 39.0645 148.739C38.7691 148.481 38.3486 148.352 37.8032 148.352H35.9338V151.233ZM43.8303 158V149.273H46.2507V158H43.8303ZM45.0462 148.148C44.6863 148.148 44.3776 148.028 44.1201 147.79C43.8663 147.547 43.7394 147.258 43.7394 146.92C43.7394 146.587 43.8663 146.301 44.1201 146.062C44.3776 145.82 44.6863 145.699 45.0462 145.699C45.406 145.699 45.7129 145.82 45.9666 146.062C46.2242 146.301 46.353 146.587 46.353 146.92C46.353 147.258 46.2242 147.547 45.9666 147.79C45.7129 148.028 45.406 148.148 45.0462 148.148ZM50.4341 152.955V158H48.0137V149.273H50.3205V150.812H50.4227C50.6159 150.305 50.9398 149.903 51.3943 149.608C51.8489 149.309 52.4 149.159 53.0477 149.159C53.6538 149.159 54.1822 149.292 54.633 149.557C55.0837 149.822 55.4341 150.201 55.6841 150.693C55.9341 151.182 56.0591 151.765 56.0591 152.443V158H53.6387V152.875C53.6424 152.341 53.5061 151.924 53.2296 151.625C52.9531 151.322 52.5724 151.17 52.0875 151.17C51.7618 151.17 51.4739 151.241 51.2239 151.381C50.9777 151.521 50.7845 151.725 50.6443 151.994C50.508 152.259 50.4379 152.58 50.4341 152.955ZM60.2794 158.165C59.7226 158.165 59.2264 158.068 58.7908 157.875C58.3552 157.678 58.0105 157.388 57.7567 157.006C57.5067 156.619 57.3817 156.138 57.3817 155.562C57.3817 155.078 57.4707 154.67 57.6487 154.341C57.8268 154.011 58.0692 153.746 58.376 153.545C58.6828 153.345 59.0313 153.193 59.4215 153.091C59.8154 152.989 60.2283 152.917 60.6601 152.875C61.1677 152.822 61.5768 152.773 61.8874 152.727C62.198 152.678 62.4234 152.606 62.5635 152.511C62.7037 152.417 62.7737 152.277 62.7737 152.091V152.057C62.7737 151.697 62.6601 151.419 62.4328 151.222C62.2093 151.025 61.8912 150.926 61.4783 150.926C61.0427 150.926 60.6961 151.023 60.4385 151.216C60.1809 151.405 60.0105 151.644 59.9271 151.932L57.6885 151.75C57.8021 151.22 58.0256 150.761 58.359 150.375C58.6923 149.985 59.1222 149.686 59.6487 149.477C60.179 149.265 60.7927 149.159 61.4896 149.159C61.9745 149.159 62.4385 149.216 62.8817 149.33C63.3287 149.443 63.7245 149.619 64.0692 149.858C64.4177 150.097 64.6923 150.403 64.8931 150.778C65.0938 151.15 65.1942 151.595 65.1942 152.114V158H62.8987V156.79H62.8306C62.6904 157.062 62.5029 157.303 62.2681 157.511C62.0332 157.716 61.751 157.877 61.4215 157.994C61.0919 158.108 60.7112 158.165 60.2794 158.165ZM60.9726 156.494C61.3287 156.494 61.6431 156.424 61.9158 156.284C62.1885 156.14 62.4025 155.947 62.5578 155.705C62.7131 155.462 62.7908 155.187 62.7908 154.881V153.955C62.715 154.004 62.6109 154.049 62.4783 154.091C62.3495 154.129 62.2037 154.165 62.0408 154.199C61.8779 154.229 61.715 154.258 61.5521 154.284C61.3893 154.307 61.2415 154.328 61.109 154.347C60.8249 154.388 60.5768 154.455 60.3646 154.545C60.1525 154.636 59.9878 154.759 59.8703 154.915C59.7529 155.066 59.6942 155.256 59.6942 155.483C59.6942 155.812 59.8135 156.064 60.0521 156.239C60.2946 156.409 60.6014 156.494 60.9726 156.494ZM66.896 158V149.273H69.2426V150.795H69.3335C69.4926 150.254 69.7597 149.845 70.1347 149.568C70.5097 149.288 70.9415 149.148 71.4301 149.148C71.5513 149.148 71.682 149.155 71.8222 149.17C71.9623 149.186 72.0854 149.206 72.1915 149.233V151.381C72.0779 151.347 71.9207 151.316 71.7199 151.29C71.5191 151.263 71.3354 151.25 71.1688 151.25C70.8127 151.25 70.4945 151.328 70.2142 151.483C69.9377 151.634 69.718 151.847 69.5551 152.119C69.396 152.392 69.3165 152.706 69.3165 153.062V158H66.896ZM75.0269 161.273C74.72 161.273 74.4322 161.248 74.1632 161.199C73.8981 161.153 73.6784 161.095 73.5041 161.023L74.0496 159.216C74.3337 159.303 74.5894 159.35 74.8166 159.358C75.0477 159.366 75.2465 159.313 75.4132 159.199C75.5837 159.085 75.7219 158.892 75.828 158.619L75.97 158.25L72.8394 149.273H75.3848L77.1916 155.682H77.2825L79.1064 149.273H81.6689L78.2769 158.943C78.114 159.413 77.8924 159.822 77.6121 160.17C77.3356 160.523 76.9852 160.794 76.5609 160.983C76.1367 161.176 75.6253 161.273 75.0269 161.273ZM92.6166 149.71C92.5712 149.252 92.3761 148.896 92.0314 148.642C91.6867 148.388 91.2189 148.261 90.628 148.261C90.2265 148.261 89.8875 148.318 89.6109 148.432C89.3344 148.542 89.1223 148.695 88.9746 148.892C88.8306 149.089 88.7587 149.312 88.7587 149.562C88.7511 149.771 88.7946 149.953 88.8893 150.108C88.9878 150.263 89.1223 150.398 89.2928 150.511C89.4632 150.621 89.6602 150.718 89.8837 150.801C90.1071 150.881 90.3458 150.949 90.5996 151.006L91.645 151.256C92.1526 151.369 92.6185 151.521 93.0428 151.71C93.467 151.9 93.8344 152.133 94.145 152.409C94.4556 152.686 94.6962 153.011 94.8666 153.386C95.0409 153.761 95.1299 154.191 95.1337 154.676C95.1299 155.388 94.9481 156.006 94.5882 156.528C94.2321 157.047 93.717 157.451 93.0428 157.739C92.3723 158.023 91.5636 158.165 90.6166 158.165C89.6772 158.165 88.859 158.021 88.1621 157.733C87.4689 157.445 86.9272 157.019 86.5371 156.455C86.1507 155.886 85.9481 155.184 85.9291 154.347H88.3098C88.3363 154.737 88.4481 155.062 88.645 155.324C88.8458 155.581 89.1128 155.777 89.4462 155.909C89.7833 156.038 90.164 156.102 90.5882 156.102C91.0049 156.102 91.3666 156.042 91.6734 155.92C91.984 155.799 92.2246 155.631 92.395 155.415C92.5655 155.199 92.6507 154.951 92.6507 154.67C92.6507 154.409 92.5731 154.189 92.4178 154.011C92.2662 153.833 92.0428 153.682 91.7473 153.557C91.4556 153.432 91.0977 153.318 90.6734 153.216L89.4064 152.898C88.4253 152.659 87.6507 152.286 87.0825 151.778C86.5143 151.271 86.2321 150.587 86.2359 149.727C86.2321 149.023 86.4196 148.407 86.7984 147.881C87.181 147.354 87.7056 146.943 88.3723 146.648C89.039 146.352 89.7965 146.205 90.645 146.205C91.5087 146.205 92.2625 146.352 92.9064 146.648C93.5541 146.943 94.0579 147.354 94.4178 147.881C94.7776 148.407 94.9632 149.017 94.9746 149.71H92.6166ZM98.0613 161.273C97.7545 161.273 97.4667 161.248 97.1977 161.199C96.9326 161.153 96.7129 161.095 96.5386 161.023L97.0841 159.216C97.3682 159.303 97.6238 159.35 97.8511 159.358C98.0822 159.366 98.281 159.313 98.4477 159.199C98.6182 159.085 98.7564 158.892 98.8625 158.619L99.0045 158.25L95.8738 149.273H98.4193L100.226 155.682H100.317L102.141 149.273H104.703L101.311 158.943C101.148 159.413 100.927 159.822 100.647 160.17C100.37 160.523 100.02 160.794 99.5954 160.983C99.1712 161.176 98.6598 161.273 98.0613 161.273ZM113.027 151.761L110.811 151.898C110.774 151.708 110.692 151.538 110.567 151.386C110.442 151.231 110.277 151.108 110.073 151.017C109.872 150.922 109.632 150.875 109.351 150.875C108.976 150.875 108.66 150.955 108.402 151.114C108.145 151.269 108.016 151.477 108.016 151.739C108.016 151.947 108.099 152.123 108.266 152.267C108.433 152.411 108.719 152.527 109.124 152.614L110.704 152.932C111.552 153.106 112.185 153.386 112.601 153.773C113.018 154.159 113.226 154.667 113.226 155.295C113.226 155.867 113.058 156.369 112.721 156.801C112.387 157.233 111.929 157.57 111.346 157.812C110.766 158.051 110.097 158.17 109.34 158.17C108.185 158.17 107.264 157.93 106.579 157.449C105.897 156.964 105.497 156.305 105.38 155.472L107.76 155.347C107.832 155.699 108.007 155.968 108.283 156.153C108.56 156.335 108.914 156.426 109.346 156.426C109.77 156.426 110.111 156.345 110.368 156.182C110.63 156.015 110.762 155.801 110.766 155.54C110.762 155.32 110.669 155.14 110.488 155C110.306 154.856 110.026 154.746 109.647 154.67L108.135 154.369C107.283 154.199 106.649 153.903 106.232 153.483C105.819 153.062 105.613 152.527 105.613 151.875C105.613 151.314 105.764 150.831 106.067 150.426C106.374 150.021 106.804 149.708 107.357 149.489C107.914 149.269 108.565 149.159 109.311 149.159C110.414 149.159 111.281 149.392 111.914 149.858C112.55 150.324 112.921 150.958 113.027 151.761ZM119.216 149.273V151.091H113.961V149.273H119.216ZM115.154 147.182H117.574V155.318C117.574 155.542 117.608 155.716 117.677 155.841C117.745 155.962 117.84 156.047 117.961 156.097C118.086 156.146 118.23 156.17 118.393 156.17C118.506 156.17 118.62 156.161 118.733 156.142C118.847 156.119 118.934 156.102 118.995 156.091L119.376 157.892C119.254 157.93 119.084 157.973 118.864 158.023C118.644 158.076 118.377 158.108 118.063 158.119C117.48 158.142 116.968 158.064 116.529 157.886C116.093 157.708 115.754 157.432 115.512 157.057C115.269 156.682 115.15 156.208 115.154 155.636V147.182ZM124.501 158.17C123.603 158.17 122.83 157.989 122.183 157.625C121.539 157.258 121.042 156.739 120.694 156.068C120.345 155.394 120.171 154.597 120.171 153.676C120.171 152.778 120.345 151.991 120.694 151.312C121.042 150.634 121.533 150.106 122.165 149.727C122.802 149.348 123.548 149.159 124.404 149.159C124.98 149.159 125.516 149.252 126.012 149.438C126.512 149.619 126.948 149.894 127.319 150.261C127.694 150.629 127.986 151.091 128.194 151.648C128.402 152.201 128.506 152.848 128.506 153.591V154.256H121.137V152.756H126.228C126.228 152.407 126.152 152.098 126.001 151.83C125.849 151.561 125.639 151.35 125.37 151.199C125.105 151.044 124.796 150.966 124.444 150.966C124.076 150.966 123.751 151.051 123.467 151.222C123.186 151.388 122.967 151.614 122.808 151.898C122.648 152.178 122.567 152.491 122.563 152.835V154.261C122.563 154.693 122.643 155.066 122.802 155.381C122.965 155.695 123.194 155.938 123.489 156.108C123.785 156.278 124.135 156.364 124.54 156.364C124.809 156.364 125.056 156.326 125.279 156.25C125.503 156.174 125.694 156.061 125.853 155.909C126.012 155.758 126.133 155.572 126.217 155.352L128.455 155.5C128.342 156.038 128.109 156.508 127.756 156.909C127.408 157.307 126.957 157.617 126.404 157.841C125.855 158.061 125.22 158.17 124.501 158.17ZM129.91 158V149.273H132.217V150.812H132.319C132.501 150.301 132.804 149.898 133.228 149.602C133.652 149.307 134.16 149.159 134.751 149.159C135.349 149.159 135.859 149.309 136.279 149.608C136.7 149.903 136.98 150.305 137.12 150.812H137.211C137.389 150.312 137.711 149.913 138.177 149.614C138.647 149.311 139.202 149.159 139.842 149.159C140.656 149.159 141.317 149.419 141.825 149.938C142.336 150.453 142.592 151.184 142.592 152.131V158H140.177V152.608C140.177 152.123 140.048 151.759 139.791 151.517C139.533 151.275 139.211 151.153 138.825 151.153C138.385 151.153 138.042 151.294 137.796 151.574C137.55 151.85 137.427 152.216 137.427 152.67V158H135.08V152.557C135.08 152.129 134.957 151.788 134.711 151.534C134.469 151.28 134.149 151.153 133.751 151.153C133.482 151.153 133.239 151.222 133.024 151.358C132.811 151.491 132.643 151.678 132.518 151.92C132.393 152.159 132.33 152.439 132.33 152.761V158H129.91Z"
    fill="black" fill-opacity="0.8" />
  <rect x="122" y="209" width="176" height="80" rx="6" fill="#E6E6E6" />
  <path
    d="M153.273 255H149.148V243.364H153.307C154.477 243.364 155.485 243.597 156.329 244.062C157.174 244.525 157.824 245.189 158.278 246.057C158.737 246.924 158.966 247.962 158.966 249.17C158.966 250.383 158.737 251.424 158.278 252.295C157.824 253.167 157.17 253.835 156.318 254.301C155.47 254.767 154.454 255 153.273 255ZM151.608 252.892H153.17C153.898 252.892 154.509 252.763 155.006 252.506C155.506 252.244 155.881 251.841 156.131 251.295C156.384 250.746 156.511 250.038 156.511 249.17C156.511 248.311 156.384 247.608 156.131 247.062C155.881 246.517 155.507 246.116 155.011 245.858C154.515 245.6 153.903 245.472 153.176 245.472H151.608V252.892ZM164.544 255.17C163.646 255.17 162.874 254.989 162.226 254.625C161.582 254.258 161.086 253.739 160.737 253.068C160.389 252.394 160.214 251.597 160.214 250.676C160.214 249.778 160.389 248.991 160.737 248.312C161.086 247.634 161.576 247.106 162.209 246.727C162.845 246.348 163.591 246.159 164.447 246.159C165.023 246.159 165.559 246.252 166.055 246.438C166.555 246.619 166.991 246.894 167.362 247.261C167.737 247.629 168.029 248.091 168.237 248.648C168.446 249.201 168.55 249.848 168.55 250.591V251.256H161.18V249.756H166.271C166.271 249.407 166.196 249.098 166.044 248.83C165.892 248.561 165.682 248.35 165.413 248.199C165.148 248.044 164.839 247.966 164.487 247.966C164.12 247.966 163.794 248.051 163.51 248.222C163.23 248.388 163.01 248.614 162.851 248.898C162.692 249.178 162.61 249.491 162.606 249.835V251.261C162.606 251.693 162.686 252.066 162.845 252.381C163.008 252.695 163.237 252.938 163.533 253.108C163.828 253.278 164.178 253.364 164.584 253.364C164.853 253.364 165.099 253.326 165.322 253.25C165.546 253.174 165.737 253.061 165.896 252.909C166.055 252.758 166.177 252.572 166.26 252.352L168.499 252.5C168.385 253.038 168.152 253.508 167.8 253.909C167.451 254.307 167 254.617 166.447 254.841C165.898 255.061 165.264 255.17 164.544 255.17ZM173.896 255.17C173.002 255.17 172.234 254.981 171.59 254.602C170.949 254.22 170.457 253.689 170.112 253.011C169.771 252.333 169.601 251.553 169.601 250.67C169.601 249.777 169.773 248.992 170.118 248.318C170.466 247.64 170.961 247.112 171.601 246.733C172.241 246.35 173.002 246.159 173.885 246.159C174.646 246.159 175.313 246.297 175.885 246.574C176.457 246.85 176.91 247.239 177.243 247.739C177.576 248.239 177.76 248.826 177.794 249.5H175.51C175.446 249.064 175.275 248.714 174.999 248.449C174.726 248.18 174.368 248.045 173.925 248.045C173.55 248.045 173.222 248.148 172.942 248.352C172.665 248.553 172.449 248.847 172.294 249.233C172.139 249.619 172.061 250.087 172.061 250.636C172.061 251.193 172.137 251.667 172.288 252.057C172.444 252.447 172.662 252.744 172.942 252.949C173.222 253.153 173.55 253.256 173.925 253.256C174.201 253.256 174.449 253.199 174.669 253.085C174.893 252.972 175.076 252.807 175.22 252.591C175.368 252.371 175.465 252.108 175.51 251.801H177.794C177.756 252.468 177.574 253.055 177.249 253.562C176.927 254.066 176.482 254.46 175.913 254.744C175.345 255.028 174.673 255.17 173.896 255.17ZM179.168 255V246.273H181.588V255H179.168ZM180.384 245.148C180.024 245.148 179.715 245.028 179.458 244.79C179.204 244.547 179.077 244.258 179.077 243.92C179.077 243.587 179.204 243.301 179.458 243.062C179.715 242.82 180.024 242.699 180.384 242.699C180.744 242.699 181.05 242.82 181.304 243.062C181.562 243.301 181.691 243.587 181.691 243.92C181.691 244.258 181.562 244.547 181.304 244.79C181.05 245.028 180.744 245.148 180.384 245.148ZM183.351 255V246.273H185.658V247.812H185.76C185.942 247.301 186.245 246.898 186.669 246.602C187.094 246.307 187.601 246.159 188.192 246.159C188.791 246.159 189.3 246.309 189.721 246.608C190.141 246.903 190.421 247.305 190.561 247.812H190.652C190.83 247.312 191.152 246.913 191.618 246.614C192.088 246.311 192.643 246.159 193.283 246.159C194.097 246.159 194.758 246.419 195.266 246.938C195.777 247.453 196.033 248.184 196.033 249.131V255H193.618V249.608C193.618 249.123 193.489 248.759 193.232 248.517C192.974 248.275 192.652 248.153 192.266 248.153C191.827 248.153 191.484 248.294 191.238 248.574C190.991 248.85 190.868 249.216 190.868 249.67V255H188.522V249.557C188.522 249.129 188.399 248.788 188.152 248.534C187.91 248.28 187.59 248.153 187.192 248.153C186.923 248.153 186.681 248.222 186.465 248.358C186.253 248.491 186.084 248.678 185.959 248.92C185.834 249.159 185.772 249.439 185.772 249.761V255H183.351ZM200.258 255.165C199.701 255.165 199.205 255.068 198.769 254.875C198.333 254.678 197.989 254.388 197.735 254.006C197.485 253.619 197.36 253.138 197.36 252.562C197.36 252.078 197.449 251.67 197.627 251.341C197.805 251.011 198.047 250.746 198.354 250.545C198.661 250.345 199.01 250.193 199.4 250.091C199.794 249.989 200.206 249.917 200.638 249.875C201.146 249.822 201.555 249.773 201.866 249.727C202.176 249.678 202.402 249.606 202.542 249.511C202.682 249.417 202.752 249.277 202.752 249.091V249.057C202.752 248.697 202.638 248.419 202.411 248.222C202.188 248.025 201.869 247.926 201.456 247.926C201.021 247.926 200.674 248.023 200.417 248.216C200.159 248.405 199.989 248.644 199.905 248.932L197.667 248.75C197.78 248.22 198.004 247.761 198.337 247.375C198.67 246.985 199.1 246.686 199.627 246.477C200.157 246.265 200.771 246.159 201.468 246.159C201.953 246.159 202.417 246.216 202.86 246.33C203.307 246.443 203.703 246.619 204.047 246.858C204.396 247.097 204.67 247.403 204.871 247.778C205.072 248.15 205.172 248.595 205.172 249.114V255H202.877V253.79H202.809C202.669 254.062 202.481 254.303 202.246 254.511C202.011 254.716 201.729 254.877 201.4 254.994C201.07 255.108 200.689 255.165 200.258 255.165ZM200.951 253.494C201.307 253.494 201.621 253.424 201.894 253.284C202.167 253.14 202.381 252.947 202.536 252.705C202.691 252.462 202.769 252.187 202.769 251.881V250.955C202.693 251.004 202.589 251.049 202.456 251.091C202.328 251.129 202.182 251.165 202.019 251.199C201.856 251.229 201.693 251.258 201.53 251.284C201.367 251.307 201.22 251.328 201.087 251.347C200.803 251.388 200.555 251.455 200.343 251.545C200.131 251.636 199.966 251.759 199.849 251.915C199.731 252.066 199.672 252.256 199.672 252.483C199.672 252.812 199.792 253.064 200.03 253.239C200.273 253.409 200.58 253.494 200.951 253.494ZM209.295 243.364V255H206.874V243.364H209.295ZM220.943 246.71C220.897 246.252 220.702 245.896 220.357 245.642C220.013 245.388 219.545 245.261 218.954 245.261C218.553 245.261 218.214 245.318 217.937 245.432C217.66 245.542 217.448 245.695 217.301 245.892C217.157 246.089 217.085 246.312 217.085 246.562C217.077 246.771 217.121 246.953 217.215 247.108C217.314 247.263 217.448 247.398 217.619 247.511C217.789 247.621 217.986 247.718 218.21 247.801C218.433 247.881 218.672 247.949 218.926 248.006L219.971 248.256C220.479 248.369 220.945 248.521 221.369 248.71C221.793 248.9 222.16 249.133 222.471 249.409C222.782 249.686 223.022 250.011 223.193 250.386C223.367 250.761 223.456 251.191 223.46 251.676C223.456 252.388 223.274 253.006 222.914 253.528C222.558 254.047 222.043 254.451 221.369 254.739C220.698 255.023 219.89 255.165 218.943 255.165C218.003 255.165 217.185 255.021 216.488 254.733C215.795 254.445 215.253 254.019 214.863 253.455C214.477 252.886 214.274 252.184 214.255 251.347H216.636C216.662 251.737 216.774 252.062 216.971 252.324C217.172 252.581 217.439 252.777 217.772 252.909C218.109 253.038 218.49 253.102 218.914 253.102C219.331 253.102 219.693 253.042 220 252.92C220.31 252.799 220.551 252.631 220.721 252.415C220.892 252.199 220.977 251.951 220.977 251.67C220.977 251.409 220.899 251.189 220.744 251.011C220.592 250.833 220.369 250.682 220.073 250.557C219.782 250.432 219.424 250.318 219 250.216L217.732 249.898C216.751 249.659 215.977 249.286 215.409 248.778C214.84 248.271 214.558 247.587 214.562 246.727C214.558 246.023 214.746 245.407 215.125 244.881C215.507 244.354 216.032 243.943 216.698 243.648C217.365 243.352 218.123 243.205 218.971 243.205C219.835 243.205 220.589 243.352 221.232 243.648C221.88 243.943 222.384 244.354 222.744 244.881C223.104 245.407 223.289 246.017 223.301 246.71H220.943ZM226.387 258.273C226.081 258.273 225.793 258.248 225.524 258.199C225.259 258.153 225.039 258.095 224.865 258.023L225.41 256.216C225.694 256.303 225.95 256.35 226.177 256.358C226.408 256.366 226.607 256.313 226.774 256.199C226.944 256.085 227.082 255.892 227.189 255.619L227.331 255.25L224.2 246.273H226.745L228.552 252.682H228.643L230.467 246.273H233.029L229.637 255.943C229.475 256.413 229.253 256.822 228.973 257.17C228.696 257.523 228.346 257.794 227.922 257.983C227.497 258.176 226.986 258.273 226.387 258.273ZM241.353 248.761L239.138 248.898C239.1 248.708 239.018 248.538 238.893 248.386C238.768 248.231 238.603 248.108 238.399 248.017C238.198 247.922 237.958 247.875 237.677 247.875C237.302 247.875 236.986 247.955 236.728 248.114C236.471 248.269 236.342 248.477 236.342 248.739C236.342 248.947 236.425 249.123 236.592 249.267C236.759 249.411 237.045 249.527 237.45 249.614L239.03 249.932C239.878 250.106 240.511 250.386 240.927 250.773C241.344 251.159 241.552 251.667 241.552 252.295C241.552 252.867 241.384 253.369 241.047 253.801C240.713 254.233 240.255 254.57 239.672 254.812C239.092 255.051 238.424 255.17 237.666 255.17C236.511 255.17 235.59 254.93 234.905 254.449C234.223 253.964 233.823 253.305 233.706 252.472L236.086 252.347C236.158 252.699 236.333 252.968 236.609 253.153C236.886 253.335 237.24 253.426 237.672 253.426C238.096 253.426 238.437 253.345 238.694 253.182C238.956 253.015 239.088 252.801 239.092 252.54C239.088 252.32 238.996 252.14 238.814 252C238.632 251.856 238.352 251.746 237.973 251.67L236.461 251.369C235.609 251.199 234.975 250.903 234.558 250.483C234.145 250.062 233.939 249.527 233.939 248.875C233.939 248.314 234.09 247.831 234.393 247.426C234.7 247.021 235.13 246.708 235.683 246.489C236.24 246.269 236.891 246.159 237.638 246.159C238.74 246.159 239.607 246.392 240.24 246.858C240.876 247.324 241.247 247.958 241.353 248.761ZM247.543 246.273V248.091H242.287V246.273H247.543ZM243.48 244.182H245.9V252.318C245.9 252.542 245.935 252.716 246.003 252.841C246.071 252.962 246.166 253.047 246.287 253.097C246.412 253.146 246.556 253.17 246.719 253.17C246.832 253.17 246.946 253.161 247.06 253.142C247.173 253.119 247.26 253.102 247.321 253.091L247.702 254.892C247.58 254.93 247.41 254.973 247.19 255.023C246.971 255.076 246.704 255.108 246.389 255.119C245.806 255.142 245.294 255.064 244.855 254.886C244.419 254.708 244.08 254.432 243.838 254.057C243.596 253.682 243.476 253.208 243.48 252.636V244.182ZM252.827 255.17C251.929 255.17 251.156 254.989 250.509 254.625C249.865 254.258 249.368 253.739 249.02 253.068C248.671 252.394 248.497 251.597 248.497 250.676C248.497 249.778 248.671 248.991 249.02 248.312C249.368 247.634 249.859 247.106 250.492 246.727C251.128 246.348 251.874 246.159 252.73 246.159C253.306 246.159 253.842 246.252 254.338 246.438C254.838 246.619 255.274 246.894 255.645 247.261C256.02 247.629 256.312 248.091 256.52 248.648C256.728 249.201 256.832 249.848 256.832 250.591V251.256H249.463V249.756H254.554C254.554 249.407 254.478 249.098 254.327 248.83C254.175 248.561 253.965 248.35 253.696 248.199C253.431 248.044 253.122 247.966 252.77 247.966C252.402 247.966 252.077 248.051 251.793 248.222C251.512 248.388 251.293 248.614 251.134 248.898C250.974 249.178 250.893 249.491 250.889 249.835V251.261C250.889 251.693 250.969 252.066 251.128 252.381C251.291 252.695 251.52 252.938 251.815 253.108C252.111 253.278 252.461 253.364 252.867 253.364C253.135 253.364 253.382 253.326 253.605 253.25C253.829 253.174 254.02 253.061 254.179 252.909C254.338 252.758 254.459 252.572 254.543 252.352L256.781 252.5C256.668 253.038 256.435 253.508 256.082 253.909C255.734 254.307 255.283 254.617 254.73 254.841C254.181 255.061 253.546 255.17 252.827 255.17ZM258.236 255V246.273H260.543V247.812H260.645C260.827 247.301 261.13 246.898 261.554 246.602C261.978 246.307 262.486 246.159 263.077 246.159C263.675 246.159 264.185 246.309 264.605 246.608C265.026 246.903 265.306 247.305 265.446 247.812H265.537C265.715 247.312 266.037 246.913 266.503 246.614C266.973 246.311 267.528 246.159 268.168 246.159C268.982 246.159 269.643 246.419 270.151 246.938C270.662 247.453 270.918 248.184 270.918 249.131V255H268.503V249.608C268.503 249.123 268.374 248.759 268.117 248.517C267.859 248.275 267.537 248.153 267.151 248.153C266.711 248.153 266.369 248.294 266.122 248.574C265.876 248.85 265.753 249.216 265.753 249.67V255H263.406V249.557C263.406 249.129 263.283 248.788 263.037 248.534C262.795 248.28 262.475 248.153 262.077 248.153C261.808 248.153 261.566 248.222 261.35 248.358C261.137 248.491 260.969 248.678 260.844 248.92C260.719 249.159 260.656 249.439 260.656 249.761V255H258.236Z"
    fill="black" fill-opacity="0.8" />
  <rect x="453" y="209" width="176" height="80" rx="6" fill="#E6E6E6" />
  <path
    d="M497.878 237.182C497.878 238.451 497.637 239.53 497.156 240.42C496.679 241.311 496.027 241.991 495.202 242.46C494.38 242.926 493.455 243.159 492.429 243.159C491.395 243.159 490.467 242.924 489.645 242.455C488.823 241.985 488.173 241.305 487.696 240.415C487.219 239.525 486.98 238.447 486.98 237.182C486.98 235.913 487.219 234.833 487.696 233.943C488.173 233.053 488.823 232.375 489.645 231.909C490.467 231.439 491.395 231.205 492.429 231.205C493.455 231.205 494.38 231.439 495.202 231.909C496.027 232.375 496.679 233.053 497.156 233.943C497.637 234.833 497.878 235.913 497.878 237.182ZM495.383 237.182C495.383 236.36 495.26 235.667 495.014 235.102C494.772 234.538 494.429 234.11 493.986 233.818C493.543 233.527 493.024 233.381 492.429 233.381C491.834 233.381 491.315 233.527 490.872 233.818C490.429 234.11 490.084 234.538 489.838 235.102C489.596 235.667 489.474 236.36 489.474 237.182C489.474 238.004 489.596 238.697 489.838 239.261C490.084 239.826 490.429 240.254 490.872 240.545C491.315 240.837 491.834 240.983 492.429 240.983C493.024 240.983 493.543 240.837 493.986 240.545C494.429 240.254 494.772 239.826 495.014 239.261C495.26 238.697 495.383 238.004 495.383 237.182ZM503.422 243.17C502.528 243.17 501.759 242.981 501.115 242.602C500.475 242.22 499.983 241.689 499.638 241.011C499.297 240.333 499.126 239.553 499.126 238.67C499.126 237.777 499.299 236.992 499.643 236.318C499.992 235.64 500.486 235.112 501.126 234.733C501.767 234.35 502.528 234.159 503.411 234.159C504.172 234.159 504.839 234.297 505.411 234.574C505.983 234.85 506.435 235.239 506.768 235.739C507.102 236.239 507.286 236.826 507.32 237.5H505.036C504.971 237.064 504.801 236.714 504.524 236.449C504.251 236.18 503.893 236.045 503.45 236.045C503.075 236.045 502.748 236.148 502.467 236.352C502.191 236.553 501.975 236.847 501.82 237.233C501.664 237.619 501.587 238.087 501.587 238.636C501.587 239.193 501.662 239.667 501.814 240.057C501.969 240.447 502.187 240.744 502.467 240.949C502.748 241.153 503.075 241.256 503.45 241.256C503.727 241.256 503.975 241.199 504.195 241.085C504.418 240.972 504.602 240.807 504.746 240.591C504.893 240.371 504.99 240.108 505.036 239.801H507.32C507.282 240.468 507.1 241.055 506.774 241.562C506.452 242.066 506.007 242.46 505.439 242.744C504.871 243.028 504.198 243.17 503.422 243.17ZM513.335 234.273V236.091H508.08V234.273H513.335ZM509.273 232.182H511.693V240.318C511.693 240.542 511.727 240.716 511.796 240.841C511.864 240.962 511.959 241.047 512.08 241.097C512.205 241.146 512.349 241.17 512.512 241.17C512.625 241.17 512.739 241.161 512.852 241.142C512.966 241.119 513.053 241.102 513.114 241.091L513.494 242.892C513.373 242.93 513.203 242.973 512.983 243.023C512.763 243.076 512.496 243.108 512.182 243.119C511.599 243.142 511.087 243.064 510.648 242.886C510.212 242.708 509.873 242.432 509.631 242.057C509.388 241.682 509.269 241.208 509.273 240.636V232.182ZM517.225 243.165C516.668 243.165 516.172 243.068 515.736 242.875C515.3 242.678 514.956 242.388 514.702 242.006C514.452 241.619 514.327 241.138 514.327 240.562C514.327 240.078 514.416 239.67 514.594 239.341C514.772 239.011 515.015 238.746 515.321 238.545C515.628 238.345 515.977 238.193 516.367 238.091C516.761 237.989 517.174 237.917 517.605 237.875C518.113 237.822 518.522 237.773 518.833 237.727C519.143 237.678 519.369 237.606 519.509 237.511C519.649 237.417 519.719 237.277 519.719 237.091V237.057C519.719 236.697 519.605 236.419 519.378 236.222C519.155 236.025 518.836 235.926 518.424 235.926C517.988 235.926 517.641 236.023 517.384 236.216C517.126 236.405 516.956 236.644 516.872 236.932L514.634 236.75C514.747 236.22 514.971 235.761 515.304 235.375C515.638 234.985 516.068 234.686 516.594 234.477C517.124 234.265 517.738 234.159 518.435 234.159C518.92 234.159 519.384 234.216 519.827 234.33C520.274 234.443 520.67 234.619 521.015 234.858C521.363 235.097 521.638 235.403 521.838 235.778C522.039 236.15 522.14 236.595 522.14 237.114V243H519.844V241.79H519.776C519.636 242.062 519.448 242.303 519.213 242.511C518.979 242.716 518.696 242.877 518.367 242.994C518.037 243.108 517.657 243.165 517.225 243.165ZM517.918 241.494C518.274 241.494 518.588 241.424 518.861 241.284C519.134 241.14 519.348 240.947 519.503 240.705C519.658 240.462 519.736 240.187 519.736 239.881V238.955C519.66 239.004 519.556 239.049 519.424 239.091C519.295 239.129 519.149 239.165 518.986 239.199C518.823 239.229 518.66 239.258 518.497 239.284C518.335 239.307 518.187 239.328 518.054 239.347C517.77 239.388 517.522 239.455 517.31 239.545C517.098 239.636 516.933 239.759 516.816 239.915C516.698 240.066 516.64 240.256 516.64 240.483C516.64 240.812 516.759 241.064 516.997 241.239C517.24 241.409 517.547 241.494 517.918 241.494ZM526.262 231.364V243H523.841V231.364H526.262ZM541.33 231.364V243H539.205L534.143 235.676H534.058V243H531.597V231.364H533.756L538.779 238.682H538.881V231.364H541.33ZM548.738 239.284V234.273H551.159V243H548.835V241.415H548.744C548.547 241.926 548.219 242.337 547.761 242.648C547.306 242.958 546.751 243.114 546.096 243.114C545.513 243.114 544.999 242.981 544.556 242.716C544.113 242.451 543.766 242.074 543.516 241.585C543.27 241.097 543.145 240.511 543.141 239.83V234.273H545.562V239.398C545.566 239.913 545.704 240.32 545.977 240.619C546.249 240.919 546.615 241.068 547.073 241.068C547.365 241.068 547.638 241.002 547.891 240.869C548.145 240.733 548.35 240.532 548.505 240.267C548.664 240.002 548.742 239.674 548.738 239.284ZM552.919 243V234.273H555.225V235.812H555.328C555.51 235.301 555.813 234.898 556.237 234.602C556.661 234.307 557.169 234.159 557.76 234.159C558.358 234.159 558.867 234.309 559.288 234.608C559.708 234.903 559.989 235.305 560.129 235.812H560.22C560.398 235.312 560.72 234.913 561.186 234.614C561.655 234.311 562.21 234.159 562.85 234.159C563.665 234.159 564.326 234.419 564.833 234.938C565.345 235.453 565.6 236.184 565.6 237.131V243H563.186V237.608C563.186 237.123 563.057 236.759 562.799 236.517C562.542 236.275 562.22 236.153 561.833 236.153C561.394 236.153 561.051 236.294 560.805 236.574C560.559 236.85 560.436 237.216 560.436 237.67V243H558.089V237.557C558.089 237.129 557.966 236.788 557.72 236.534C557.477 236.28 557.157 236.153 556.76 236.153C556.491 236.153 556.248 236.222 556.032 236.358C555.82 236.491 555.652 236.678 555.527 236.92C555.402 237.159 555.339 237.439 555.339 237.761V243H552.919ZM567.382 243V231.364H569.802V235.739H569.876C569.982 235.504 570.136 235.265 570.336 235.023C570.541 234.777 570.806 234.572 571.132 234.409C571.461 234.242 571.87 234.159 572.359 234.159C572.995 234.159 573.583 234.326 574.12 234.659C574.658 234.989 575.088 235.487 575.41 236.153C575.732 236.816 575.893 237.648 575.893 238.648C575.893 239.621 575.736 240.443 575.422 241.114C575.111 241.78 574.687 242.286 574.149 242.631C573.615 242.972 573.016 243.142 572.353 243.142C571.884 243.142 571.484 243.064 571.155 242.909C570.829 242.754 570.562 242.559 570.353 242.324C570.145 242.085 569.986 241.845 569.876 241.602H569.768V243H567.382ZM569.751 238.636C569.751 239.155 569.823 239.608 569.967 239.994C570.111 240.381 570.319 240.682 570.592 240.898C570.865 241.11 571.196 241.216 571.586 241.216C571.98 241.216 572.314 241.108 572.586 240.892C572.859 240.672 573.066 240.369 573.206 239.983C573.35 239.593 573.422 239.144 573.422 238.636C573.422 238.133 573.351 237.689 573.211 237.307C573.071 236.924 572.865 236.625 572.592 236.409C572.319 236.193 571.984 236.085 571.586 236.085C571.192 236.085 570.859 236.189 570.586 236.398C570.317 236.606 570.111 236.902 569.967 237.284C569.823 237.667 569.751 238.117 569.751 238.636ZM581.309 243.17C580.412 243.17 579.639 242.989 578.991 242.625C578.347 242.258 577.851 241.739 577.503 241.068C577.154 240.394 576.98 239.597 576.98 238.676C576.98 237.778 577.154 236.991 577.503 236.312C577.851 235.634 578.342 235.106 578.974 234.727C579.611 234.348 580.357 234.159 581.213 234.159C581.789 234.159 582.325 234.252 582.821 234.438C583.321 234.619 583.756 234.894 584.128 235.261C584.503 235.629 584.794 236.091 585.003 236.648C585.211 237.201 585.315 237.848 585.315 238.591V239.256H577.946V237.756H583.037C583.037 237.407 582.961 237.098 582.809 236.83C582.658 236.561 582.448 236.35 582.179 236.199C581.914 236.044 581.605 235.966 581.253 235.966C580.885 235.966 580.559 236.051 580.275 236.222C579.995 236.388 579.775 236.614 579.616 236.898C579.457 237.178 579.376 237.491 579.372 237.835V239.261C579.372 239.693 579.452 240.066 579.611 240.381C579.774 240.695 580.003 240.938 580.298 241.108C580.594 241.278 580.944 241.364 581.349 241.364C581.618 241.364 581.864 241.326 582.088 241.25C582.311 241.174 582.503 241.061 582.662 240.909C582.821 240.758 582.942 240.572 583.025 240.352L585.264 240.5C585.15 241.038 584.917 241.508 584.565 241.909C584.217 242.307 583.766 242.617 583.213 242.841C582.664 243.061 582.029 243.17 581.309 243.17ZM586.719 243V234.273H589.065V235.795H589.156C589.315 235.254 589.582 234.845 589.957 234.568C590.332 234.288 590.764 234.148 591.253 234.148C591.374 234.148 591.505 234.155 591.645 234.17C591.785 234.186 591.908 234.206 592.014 234.233V236.381C591.901 236.347 591.743 236.316 591.543 236.29C591.342 236.263 591.158 236.25 590.991 236.25C590.635 236.25 590.317 236.328 590.037 236.483C589.76 236.634 589.541 236.847 589.378 237.119C589.219 237.392 589.139 237.706 589.139 238.062V243H586.719ZM519.201 258.71C519.156 258.252 518.961 257.896 518.616 257.642C518.271 257.388 517.804 257.261 517.213 257.261C516.811 257.261 516.472 257.318 516.196 257.432C515.919 257.542 515.707 257.695 515.559 257.892C515.415 258.089 515.343 258.312 515.343 258.562C515.336 258.771 515.379 258.953 515.474 259.108C515.573 259.263 515.707 259.398 515.878 259.511C516.048 259.621 516.245 259.718 516.468 259.801C516.692 259.881 516.931 259.949 517.184 260.006L518.23 260.256C518.737 260.369 519.203 260.521 519.628 260.71C520.052 260.9 520.419 261.133 520.73 261.409C521.04 261.686 521.281 262.011 521.451 262.386C521.626 262.761 521.715 263.191 521.718 263.676C521.715 264.388 521.533 265.006 521.173 265.528C520.817 266.047 520.302 266.451 519.628 266.739C518.957 267.023 518.148 267.165 517.201 267.165C516.262 267.165 515.444 267.021 514.747 266.733C514.054 266.445 513.512 266.019 513.122 265.455C512.735 264.886 512.533 264.184 512.514 263.347H514.895C514.921 263.737 515.033 264.062 515.23 264.324C515.431 264.581 515.698 264.777 516.031 264.909C516.368 265.038 516.749 265.102 517.173 265.102C517.59 265.102 517.951 265.042 518.258 264.92C518.569 264.799 518.809 264.631 518.98 264.415C519.15 264.199 519.235 263.951 519.235 263.67C519.235 263.409 519.158 263.189 519.003 263.011C518.851 262.833 518.628 262.682 518.332 262.557C518.04 262.432 517.682 262.318 517.258 262.216L515.991 261.898C515.01 261.659 514.235 261.286 513.667 260.778C513.099 260.271 512.817 259.587 512.821 258.727C512.817 258.023 513.004 257.407 513.383 256.881C513.766 256.354 514.29 255.943 514.957 255.648C515.624 255.352 516.381 255.205 517.23 255.205C518.093 255.205 518.847 255.352 519.491 255.648C520.139 255.943 520.643 256.354 521.003 256.881C521.362 257.407 521.548 258.017 521.559 258.71H519.201ZM524.646 270.273C524.339 270.273 524.051 270.248 523.782 270.199C523.517 270.153 523.298 270.095 523.123 270.023L523.669 268.216C523.953 268.303 524.209 268.35 524.436 268.358C524.667 268.366 524.866 268.313 525.032 268.199C525.203 268.085 525.341 267.892 525.447 267.619L525.589 267.25L522.459 258.273H525.004L526.811 264.682H526.902L528.726 258.273H531.288L527.896 267.943C527.733 268.413 527.512 268.822 527.231 269.17C526.955 269.523 526.604 269.794 526.18 269.983C525.756 270.176 525.245 270.273 524.646 270.273ZM539.612 260.761L537.396 260.898C537.358 260.708 537.277 260.538 537.152 260.386C537.027 260.231 536.862 260.108 536.658 260.017C536.457 259.922 536.216 259.875 535.936 259.875C535.561 259.875 535.245 259.955 534.987 260.114C534.73 260.269 534.601 260.477 534.601 260.739C534.601 260.947 534.684 261.123 534.851 261.267C535.017 261.411 535.303 261.527 535.709 261.614L537.288 261.932C538.137 262.106 538.769 262.386 539.186 262.773C539.603 263.159 539.811 263.667 539.811 264.295C539.811 264.867 539.642 265.369 539.305 265.801C538.972 266.233 538.514 266.57 537.93 266.812C537.351 267.051 536.682 267.17 535.925 267.17C534.769 267.17 533.849 266.93 533.163 266.449C532.481 265.964 532.082 265.305 531.964 264.472L534.345 264.347C534.417 264.699 534.591 264.968 534.868 265.153C535.144 265.335 535.499 265.426 535.93 265.426C536.355 265.426 536.695 265.345 536.953 265.182C537.214 265.015 537.347 264.801 537.351 264.54C537.347 264.32 537.254 264.14 537.072 264C536.891 263.856 536.61 263.746 536.231 263.67L534.72 263.369C533.868 263.199 533.233 262.903 532.817 262.483C532.404 262.062 532.197 261.527 532.197 260.875C532.197 260.314 532.349 259.831 532.652 259.426C532.959 259.021 533.389 258.708 533.942 258.489C534.499 258.269 535.15 258.159 535.896 258.159C536.999 258.159 537.866 258.392 538.499 258.858C539.135 259.324 539.506 259.958 539.612 260.761ZM545.801 258.273V260.091H540.546V258.273H545.801ZM541.739 256.182H544.159V264.318C544.159 264.542 544.193 264.716 544.261 264.841C544.33 264.962 544.424 265.047 544.546 265.097C544.671 265.146 544.814 265.17 544.977 265.17C545.091 265.17 545.205 265.161 545.318 265.142C545.432 265.119 545.519 265.102 545.58 265.091L545.96 266.892C545.839 266.93 545.669 266.973 545.449 267.023C545.229 267.076 544.962 267.108 544.648 267.119C544.064 267.142 543.553 267.064 543.114 266.886C542.678 266.708 542.339 266.432 542.097 266.057C541.854 265.682 541.735 265.208 541.739 264.636V256.182ZM551.085 267.17C550.188 267.17 549.415 266.989 548.767 266.625C548.123 266.258 547.627 265.739 547.279 265.068C546.93 264.394 546.756 263.597 546.756 262.676C546.756 261.778 546.93 260.991 547.279 260.312C547.627 259.634 548.118 259.106 548.75 258.727C549.387 258.348 550.133 258.159 550.989 258.159C551.565 258.159 552.101 258.252 552.597 258.438C553.097 258.619 553.532 258.894 553.904 259.261C554.279 259.629 554.57 260.091 554.779 260.648C554.987 261.201 555.091 261.848 555.091 262.591V263.256H547.722V261.756H552.813C552.813 261.407 552.737 261.098 552.585 260.83C552.434 260.561 552.224 260.35 551.955 260.199C551.69 260.044 551.381 259.966 551.029 259.966C550.661 259.966 550.335 260.051 550.051 260.222C549.771 260.388 549.551 260.614 549.392 260.898C549.233 261.178 549.152 261.491 549.148 261.835V263.261C549.148 263.693 549.227 264.066 549.387 264.381C549.549 264.695 549.779 264.938 550.074 265.108C550.37 265.278 550.72 265.364 551.125 265.364C551.394 265.364 551.64 265.326 551.864 265.25C552.087 265.174 552.279 265.061 552.438 264.909C552.597 264.758 552.718 264.572 552.801 264.352L555.04 264.5C554.926 265.038 554.693 265.508 554.341 265.909C553.993 266.307 553.542 266.617 552.989 266.841C552.44 267.061 551.805 267.17 551.085 267.17ZM556.495 267V258.273H558.801V259.812H558.904C559.086 259.301 559.389 258.898 559.813 258.602C560.237 258.307 560.745 258.159 561.336 258.159C561.934 258.159 562.444 258.309 562.864 258.608C563.284 258.903 563.565 259.305 563.705 259.812H563.796C563.974 259.312 564.296 258.913 564.762 258.614C565.231 258.311 565.786 258.159 566.426 258.159C567.241 258.159 567.902 258.419 568.409 258.938C568.921 259.453 569.176 260.184 569.176 261.131V267H566.762V261.608C566.762 261.123 566.633 260.759 566.375 260.517C566.118 260.275 565.796 260.153 565.409 260.153C564.97 260.153 564.627 260.294 564.381 260.574C564.135 260.85 564.012 261.216 564.012 261.67V267H561.665V261.557C561.665 261.129 561.542 260.788 561.296 260.534C561.053 260.28 560.733 260.153 560.336 260.153C560.067 260.153 559.824 260.222 559.608 260.358C559.396 260.491 559.228 260.678 559.103 260.92C558.978 261.159 558.915 261.439 558.915 261.761V267H556.495Z"
    fill="black" fill-opacity="0.8" />
  <rect x="576" y="112" width="176" height="80" rx="6" fill="#E6E6E6" />
  <path
    d="M613.386 146V134.364H615.846V139.165H620.84V134.364H623.295V146H620.84V141.193H615.846V146H613.386ZM629.079 146.17C628.181 146.17 627.408 145.989 626.761 145.625C626.117 145.258 625.621 144.739 625.272 144.068C624.924 143.394 624.749 142.597 624.749 141.676C624.749 140.778 624.924 139.991 625.272 139.312C625.621 138.634 626.111 138.106 626.744 137.727C627.38 137.348 628.126 137.159 628.982 137.159C629.558 137.159 630.094 137.252 630.59 137.438C631.09 137.619 631.526 137.894 631.897 138.261C632.272 138.629 632.564 139.091 632.772 139.648C632.98 140.201 633.085 140.848 633.085 141.591V142.256H625.715V140.756H630.806C630.806 140.407 630.73 140.098 630.579 139.83C630.427 139.561 630.217 139.35 629.948 139.199C629.683 139.044 629.374 138.966 629.022 138.966C628.655 138.966 628.329 139.051 628.045 139.222C627.765 139.388 627.545 139.614 627.386 139.898C627.227 140.178 627.145 140.491 627.141 140.835V142.261C627.141 142.693 627.221 143.066 627.38 143.381C627.543 143.695 627.772 143.938 628.068 144.108C628.363 144.278 628.713 144.364 629.119 144.364C629.388 144.364 629.634 144.326 629.857 144.25C630.081 144.174 630.272 144.061 630.431 143.909C630.59 143.758 630.712 143.572 630.795 143.352L633.033 143.5C632.92 144.038 632.687 144.508 632.335 144.909C631.986 145.307 631.535 145.617 630.982 145.841C630.433 146.061 629.799 146.17 629.079 146.17ZM636.355 137.273L637.957 140.324L639.599 137.273H642.082L639.553 141.636L642.15 146H639.678L637.957 142.983L636.264 146H633.764L636.355 141.636L633.855 137.273H636.355ZM645.785 146.165C645.228 146.165 644.732 146.068 644.297 145.875C643.861 145.678 643.516 145.388 643.262 145.006C643.012 144.619 642.887 144.138 642.887 143.562C642.887 143.078 642.976 142.67 643.154 142.341C643.333 142.011 643.575 141.746 643.882 141.545C644.189 141.345 644.537 141.193 644.927 141.091C645.321 140.989 645.734 140.917 646.166 140.875C646.673 140.822 647.083 140.773 647.393 140.727C647.704 140.678 647.929 140.606 648.069 140.511C648.209 140.417 648.279 140.277 648.279 140.091V140.057C648.279 139.697 648.166 139.419 647.939 139.222C647.715 139.025 647.397 138.926 646.984 138.926C646.548 138.926 646.202 139.023 645.944 139.216C645.687 139.405 645.516 139.644 645.433 139.932L643.194 139.75C643.308 139.22 643.531 138.761 643.865 138.375C644.198 137.985 644.628 137.686 645.154 137.477C645.685 137.265 646.298 137.159 646.995 137.159C647.48 137.159 647.944 137.216 648.387 137.33C648.834 137.443 649.23 137.619 649.575 137.858C649.923 138.097 650.198 138.403 650.399 138.778C650.6 139.15 650.7 139.595 650.7 140.114V146H648.404V144.79H648.336C648.196 145.062 648.009 145.303 647.774 145.511C647.539 145.716 647.257 145.877 646.927 145.994C646.598 146.108 646.217 146.165 645.785 146.165ZM646.478 144.494C646.834 144.494 647.149 144.424 647.422 144.284C647.694 144.14 647.908 143.947 648.064 143.705C648.219 143.462 648.297 143.187 648.297 142.881V141.955C648.221 142.004 648.117 142.049 647.984 142.091C647.855 142.129 647.709 142.165 647.547 142.199C647.384 142.229 647.221 142.258 647.058 142.284C646.895 142.307 646.747 142.328 646.615 142.347C646.331 142.388 646.083 142.455 645.87 142.545C645.658 142.636 645.494 142.759 645.376 142.915C645.259 143.066 645.2 143.256 645.2 143.483C645.2 143.812 645.319 144.064 645.558 144.239C645.8 144.409 646.107 144.494 646.478 144.494ZM655.618 146.142C654.955 146.142 654.354 145.972 653.817 145.631C653.282 145.286 652.858 144.78 652.544 144.114C652.233 143.443 652.078 142.621 652.078 141.648C652.078 140.648 652.239 139.816 652.561 139.153C652.883 138.487 653.311 137.989 653.845 137.659C654.383 137.326 654.972 137.159 655.612 137.159C656.101 137.159 656.508 137.242 656.834 137.409C657.163 137.572 657.428 137.777 657.629 138.023C657.834 138.265 657.989 138.504 658.095 138.739H658.169V134.364H660.584V146H658.197V144.602H658.095C657.981 144.845 657.82 145.085 657.612 145.324C657.407 145.559 657.14 145.754 656.811 145.909C656.485 146.064 656.087 146.142 655.618 146.142ZM656.385 144.216C656.775 144.216 657.104 144.11 657.373 143.898C657.646 143.682 657.854 143.381 657.998 142.994C658.146 142.608 658.22 142.155 658.22 141.636C658.22 141.117 658.148 140.667 658.004 140.284C657.86 139.902 657.652 139.606 657.379 139.398C657.106 139.189 656.775 139.085 656.385 139.085C655.987 139.085 655.652 139.193 655.379 139.409C655.106 139.625 654.9 139.924 654.76 140.307C654.62 140.689 654.55 141.133 654.55 141.636C654.55 142.144 654.62 142.593 654.76 142.983C654.904 143.369 655.11 143.672 655.379 143.892C655.652 144.108 655.987 144.216 656.385 144.216ZM666.375 146.17C665.477 146.17 664.704 145.989 664.057 145.625C663.413 145.258 662.917 144.739 662.568 144.068C662.22 143.394 662.045 142.597 662.045 141.676C662.045 140.778 662.22 139.991 662.568 139.312C662.917 138.634 663.407 138.106 664.04 137.727C664.676 137.348 665.422 137.159 666.278 137.159C666.854 137.159 667.39 137.252 667.886 137.438C668.386 137.619 668.822 137.894 669.193 138.261C669.568 138.629 669.86 139.091 670.068 139.648C670.276 140.201 670.381 140.848 670.381 141.591V142.256H663.011V140.756H668.102C668.102 140.407 668.026 140.098 667.875 139.83C667.723 139.561 667.513 139.35 667.244 139.199C666.979 139.044 666.67 138.966 666.318 138.966C665.951 138.966 665.625 139.051 665.341 139.222C665.061 139.388 664.841 139.614 664.682 139.898C664.523 140.178 664.441 140.491 664.437 140.835V142.261C664.437 142.693 664.517 143.066 664.676 143.381C664.839 143.695 665.068 143.938 665.364 144.108C665.659 144.278 666.009 144.364 666.415 144.364C666.684 144.364 666.93 144.326 667.153 144.25C667.377 144.174 667.568 144.061 667.727 143.909C667.886 143.758 668.008 143.572 668.091 143.352L670.329 143.5C670.216 144.038 669.983 144.508 669.631 144.909C669.282 145.307 668.831 145.617 668.278 145.841C667.729 146.061 667.095 146.17 666.375 146.17ZM675.727 146.17C674.833 146.17 674.064 145.981 673.421 145.602C672.78 145.22 672.288 144.689 671.943 144.011C671.602 143.333 671.432 142.553 671.432 141.67C671.432 140.777 671.604 139.992 671.949 139.318C672.297 138.64 672.792 138.112 673.432 137.733C674.072 137.35 674.833 137.159 675.716 137.159C676.477 137.159 677.144 137.297 677.716 137.574C678.288 137.85 678.741 138.239 679.074 138.739C679.407 139.239 679.591 139.826 679.625 140.5H677.341C677.277 140.064 677.106 139.714 676.83 139.449C676.557 139.18 676.199 139.045 675.756 139.045C675.381 139.045 675.053 139.148 674.773 139.352C674.496 139.553 674.28 139.847 674.125 140.233C673.97 140.619 673.892 141.087 673.892 141.636C673.892 142.193 673.968 142.667 674.119 143.057C674.275 143.447 674.492 143.744 674.773 143.949C675.053 144.153 675.381 144.256 675.756 144.256C676.032 144.256 676.28 144.199 676.5 144.085C676.724 143.972 676.907 143.807 677.051 143.591C677.199 143.371 677.296 143.108 677.341 142.801H679.625C679.587 143.468 679.405 144.055 679.08 144.562C678.758 145.066 678.313 145.46 677.744 145.744C677.176 146.028 676.504 146.17 675.727 146.17ZM680.999 146V137.273H683.419V146H680.999ZM682.215 136.148C681.855 136.148 681.546 136.028 681.289 135.79C681.035 135.547 680.908 135.258 680.908 134.92C680.908 134.587 681.035 134.301 681.289 134.062C681.546 133.82 681.855 133.699 682.215 133.699C682.575 133.699 682.881 133.82 683.135 134.062C683.393 134.301 683.522 134.587 683.522 134.92C683.522 135.258 683.393 135.547 683.135 135.79C682.881 136.028 682.575 136.148 682.215 136.148ZM685.182 146V137.273H687.489V138.812H687.591C687.773 138.301 688.076 137.898 688.5 137.602C688.925 137.307 689.432 137.159 690.023 137.159C690.622 137.159 691.131 137.309 691.551 137.608C691.972 137.903 692.252 138.305 692.392 138.812H692.483C692.661 138.312 692.983 137.913 693.449 137.614C693.919 137.311 694.474 137.159 695.114 137.159C695.928 137.159 696.589 137.419 697.097 137.938C697.608 138.453 697.864 139.184 697.864 140.131V146H695.449V140.608C695.449 140.123 695.32 139.759 695.063 139.517C694.805 139.275 694.483 139.153 694.097 139.153C693.658 139.153 693.315 139.294 693.069 139.574C692.822 139.85 692.699 140.216 692.699 140.67V146H690.353V140.557C690.353 140.129 690.23 139.788 689.983 139.534C689.741 139.28 689.421 139.153 689.023 139.153C688.754 139.153 688.512 139.222 688.296 139.358C688.084 139.491 687.915 139.678 687.79 139.92C687.665 140.159 687.603 140.439 687.603 140.761V146H685.182ZM702.089 146.165C701.532 146.165 701.036 146.068 700.6 145.875C700.164 145.678 699.82 145.388 699.566 145.006C699.316 144.619 699.191 144.138 699.191 143.562C699.191 143.078 699.28 142.67 699.458 142.341C699.636 142.011 699.878 141.746 700.185 141.545C700.492 141.345 700.84 141.193 701.231 141.091C701.625 140.989 702.037 140.917 702.469 140.875C702.977 140.822 703.386 140.773 703.697 140.727C704.007 140.678 704.232 140.606 704.373 140.511C704.513 140.417 704.583 140.277 704.583 140.091V140.057C704.583 139.697 704.469 139.419 704.242 139.222C704.018 139.025 703.7 138.926 703.287 138.926C702.852 138.926 702.505 139.023 702.248 139.216C701.99 139.405 701.82 139.644 701.736 139.932L699.498 139.75C699.611 139.22 699.835 138.761 700.168 138.375C700.501 137.985 700.931 137.686 701.458 137.477C701.988 137.265 702.602 137.159 703.299 137.159C703.784 137.159 704.248 137.216 704.691 137.33C705.138 137.443 705.534 137.619 705.878 137.858C706.227 138.097 706.501 138.403 706.702 138.778C706.903 139.15 707.003 139.595 707.003 140.114V146H704.708V144.79H704.64C704.5 145.062 704.312 145.303 704.077 145.511C703.842 145.716 703.56 145.877 703.231 145.994C702.901 146.108 702.52 146.165 702.089 146.165ZM702.782 144.494C703.138 144.494 703.452 144.424 703.725 144.284C703.998 144.14 704.212 143.947 704.367 143.705C704.522 143.462 704.6 143.187 704.6 142.881V141.955C704.524 142.004 704.42 142.049 704.287 142.091C704.159 142.129 704.013 142.165 703.85 142.199C703.687 142.229 703.524 142.258 703.361 142.284C703.198 142.307 703.051 142.328 702.918 142.347C702.634 142.388 702.386 142.455 702.174 142.545C701.962 142.636 701.797 142.759 701.679 142.915C701.562 143.066 701.503 143.256 701.503 143.483C701.503 143.812 701.623 144.064 701.861 144.239C702.104 144.409 702.411 144.494 702.782 144.494ZM711.126 134.364V146H708.705V134.364H711.126ZM613.089 158.364V170H610.964L605.902 162.676H605.817V170H603.356V158.364H605.516L610.538 165.682H610.641V158.364H613.089ZM620.497 166.284V161.273H622.918V170H620.594V168.415H620.503C620.306 168.926 619.978 169.337 619.52 169.648C619.065 169.958 618.51 170.114 617.855 170.114C617.272 170.114 616.759 169.981 616.315 169.716C615.872 169.451 615.526 169.074 615.276 168.585C615.029 168.097 614.904 167.511 614.901 166.83V161.273H617.321V166.398C617.325 166.913 617.463 167.32 617.736 167.619C618.009 167.919 618.374 168.068 618.832 168.068C619.124 168.068 619.397 168.002 619.651 167.869C619.904 167.733 620.109 167.532 620.264 167.267C620.423 167.002 620.501 166.674 620.497 166.284ZM624.678 170V161.273H626.985V162.812H627.087C627.269 162.301 627.572 161.898 627.996 161.602C628.42 161.307 628.928 161.159 629.519 161.159C630.117 161.159 630.627 161.309 631.047 161.608C631.467 161.903 631.748 162.305 631.888 162.812H631.979C632.157 162.312 632.479 161.913 632.945 161.614C633.414 161.311 633.969 161.159 634.61 161.159C635.424 161.159 636.085 161.419 636.592 161.938C637.104 162.453 637.36 163.184 637.36 164.131V170H634.945V164.608C634.945 164.123 634.816 163.759 634.558 163.517C634.301 163.275 633.979 163.153 633.592 163.153C633.153 163.153 632.81 163.294 632.564 163.574C632.318 163.85 632.195 164.216 632.195 164.67V170H629.848V164.557C629.848 164.129 629.725 163.788 629.479 163.534C629.236 163.28 628.916 163.153 628.519 163.153C628.25 163.153 628.007 163.222 627.791 163.358C627.579 163.491 627.411 163.678 627.286 163.92C627.161 164.159 627.098 164.439 627.098 164.761V170H624.678ZM639.141 170V158.364H641.561V162.739H641.635C641.741 162.504 641.895 162.265 642.095 162.023C642.3 161.777 642.565 161.572 642.891 161.409C643.22 161.242 643.63 161.159 644.118 161.159C644.755 161.159 645.342 161.326 645.88 161.659C646.417 161.989 646.847 162.487 647.169 163.153C647.491 163.816 647.652 164.648 647.652 165.648C647.652 166.621 647.495 167.443 647.181 168.114C646.87 168.78 646.446 169.286 645.908 169.631C645.374 169.972 644.775 170.142 644.113 170.142C643.643 170.142 643.243 170.064 642.914 169.909C642.588 169.754 642.321 169.559 642.113 169.324C641.904 169.085 641.745 168.845 641.635 168.602H641.527V170H639.141ZM641.51 165.636C641.51 166.155 641.582 166.608 641.726 166.994C641.87 167.381 642.078 167.682 642.351 167.898C642.624 168.11 642.955 168.216 643.345 168.216C643.739 168.216 644.073 168.108 644.345 167.892C644.618 167.672 644.825 167.369 644.965 166.983C645.109 166.593 645.181 166.144 645.181 165.636C645.181 165.133 645.111 164.689 644.97 164.307C644.83 163.924 644.624 163.625 644.351 163.409C644.078 163.193 643.743 163.085 643.345 163.085C642.952 163.085 642.618 163.189 642.345 163.398C642.077 163.606 641.87 163.902 641.726 164.284C641.582 164.667 641.51 165.117 641.51 165.636ZM653.069 170.17C652.171 170.17 651.398 169.989 650.75 169.625C650.106 169.258 649.61 168.739 649.262 168.068C648.913 167.394 648.739 166.597 648.739 165.676C648.739 164.778 648.913 163.991 649.262 163.312C649.61 162.634 650.101 162.106 650.733 161.727C651.37 161.348 652.116 161.159 652.972 161.159C653.548 161.159 654.084 161.252 654.58 161.438C655.08 161.619 655.516 161.894 655.887 162.261C656.262 162.629 656.553 163.091 656.762 163.648C656.97 164.201 657.074 164.848 657.074 165.591V166.256H649.705V164.756H654.796C654.796 164.407 654.72 164.098 654.569 163.83C654.417 163.561 654.207 163.35 653.938 163.199C653.673 163.044 653.364 162.966 653.012 162.966C652.644 162.966 652.319 163.051 652.035 163.222C651.754 163.388 651.535 163.614 651.375 163.898C651.216 164.178 651.135 164.491 651.131 164.835V166.261C651.131 166.693 651.211 167.066 651.37 167.381C651.533 167.695 651.762 167.938 652.057 168.108C652.353 168.278 652.703 168.364 653.108 168.364C653.377 168.364 653.624 168.326 653.847 168.25C654.071 168.174 654.262 168.061 654.421 167.909C654.58 167.758 654.701 167.572 654.785 167.352L657.023 167.5C656.91 168.038 656.677 168.508 656.324 168.909C655.976 169.307 655.525 169.617 654.972 169.841C654.423 170.061 653.788 170.17 653.069 170.17ZM658.478 170V161.273H660.824V162.795H660.915C661.074 162.254 661.341 161.845 661.716 161.568C662.091 161.288 662.523 161.148 663.012 161.148C663.133 161.148 663.264 161.155 663.404 161.17C663.544 161.186 663.667 161.206 663.773 161.233V163.381C663.66 163.347 663.502 163.316 663.302 163.29C663.101 163.263 662.917 163.25 662.751 163.25C662.395 163.25 662.076 163.328 661.796 163.483C661.52 163.634 661.3 163.847 661.137 164.119C660.978 164.392 660.898 164.706 660.898 165.062V170H658.478ZM674.734 161.71C674.688 161.252 674.493 160.896 674.149 160.642C673.804 160.388 673.336 160.261 672.745 160.261C672.344 160.261 672.005 160.318 671.728 160.432C671.452 160.542 671.239 160.695 671.092 160.892C670.948 161.089 670.876 161.312 670.876 161.562C670.868 161.771 670.912 161.953 671.007 162.108C671.105 162.263 671.239 162.398 671.41 162.511C671.58 162.621 671.777 162.718 672.001 162.801C672.224 162.881 672.463 162.949 672.717 163.006L673.762 163.256C674.27 163.369 674.736 163.521 675.16 163.71C675.584 163.9 675.952 164.133 676.262 164.409C676.573 164.686 676.813 165.011 676.984 165.386C677.158 165.761 677.247 166.191 677.251 166.676C677.247 167.388 677.065 168.006 676.705 168.528C676.349 169.047 675.834 169.451 675.16 169.739C674.489 170.023 673.681 170.165 672.734 170.165C671.794 170.165 670.976 170.021 670.279 169.733C669.586 169.445 669.044 169.019 668.654 168.455C668.268 167.886 668.065 167.184 668.046 166.347H670.427C670.453 166.737 670.565 167.062 670.762 167.324C670.963 167.581 671.23 167.777 671.563 167.909C671.9 168.038 672.281 168.102 672.705 168.102C673.122 168.102 673.484 168.042 673.791 167.92C674.101 167.799 674.342 167.631 674.512 167.415C674.683 167.199 674.768 166.951 674.768 166.67C674.768 166.409 674.69 166.189 674.535 166.011C674.383 165.833 674.16 165.682 673.864 165.557C673.573 165.432 673.215 165.318 672.791 165.216L671.524 164.898C670.543 164.659 669.768 164.286 669.2 163.778C668.632 163.271 668.349 162.587 668.353 161.727C668.349 161.023 668.537 160.407 668.916 159.881C669.298 159.354 669.823 158.943 670.489 158.648C671.156 158.352 671.914 158.205 672.762 158.205C673.626 158.205 674.38 158.352 675.024 158.648C675.671 158.943 676.175 159.354 676.535 159.881C676.895 160.407 677.08 161.017 677.092 161.71H674.734ZM680.179 173.273C679.872 173.273 679.584 173.248 679.315 173.199C679.05 173.153 678.83 173.095 678.656 173.023L679.201 171.216C679.485 171.303 679.741 171.35 679.968 171.358C680.199 171.366 680.398 171.313 680.565 171.199C680.735 171.085 680.874 170.892 680.98 170.619L681.122 170.25L677.991 161.273H680.536L682.343 167.682H682.434L684.258 161.273H686.821L683.429 170.943C683.266 171.413 683.044 171.822 682.764 172.17C682.487 172.523 682.137 172.794 681.713 172.983C681.288 173.176 680.777 173.273 680.179 173.273ZM695.145 163.761L692.929 163.898C692.891 163.708 692.809 163.538 692.684 163.386C692.559 163.231 692.395 163.108 692.19 163.017C691.989 162.922 691.749 162.875 691.468 162.875C691.093 162.875 690.777 162.955 690.52 163.114C690.262 163.269 690.133 163.477 690.133 163.739C690.133 163.947 690.217 164.123 690.383 164.267C690.55 164.411 690.836 164.527 691.241 164.614L692.821 164.932C693.669 165.106 694.302 165.386 694.718 165.773C695.135 166.159 695.343 166.667 695.343 167.295C695.343 167.867 695.175 168.369 694.838 168.801C694.504 169.233 694.046 169.57 693.463 169.812C692.883 170.051 692.215 170.17 691.457 170.17C690.302 170.17 689.381 169.93 688.696 169.449C688.014 168.964 687.614 168.305 687.497 167.472L689.878 167.347C689.95 167.699 690.124 167.968 690.4 168.153C690.677 168.335 691.031 168.426 691.463 168.426C691.887 168.426 692.228 168.345 692.485 168.182C692.747 168.015 692.879 167.801 692.883 167.54C692.879 167.32 692.787 167.14 692.605 167C692.423 166.856 692.143 166.746 691.764 166.67L690.253 166.369C689.4 166.199 688.766 165.903 688.349 165.483C687.936 165.062 687.73 164.527 687.73 163.875C687.73 163.314 687.881 162.831 688.184 162.426C688.491 162.021 688.921 161.708 689.474 161.489C690.031 161.269 690.682 161.159 691.429 161.159C692.531 161.159 693.398 161.392 694.031 161.858C694.667 162.324 695.039 162.958 695.145 163.761ZM701.334 161.273V163.091H696.078V161.273H701.334ZM697.271 159.182H699.692V167.318C699.692 167.542 699.726 167.716 699.794 167.841C699.862 167.962 699.957 168.047 700.078 168.097C700.203 168.146 700.347 168.17 700.51 168.17C700.623 168.17 700.737 168.161 700.851 168.142C700.964 168.119 701.051 168.102 701.112 168.091L701.493 169.892C701.372 169.93 701.201 169.973 700.981 170.023C700.762 170.076 700.495 170.108 700.18 170.119C699.597 170.142 699.086 170.064 698.646 169.886C698.211 169.708 697.872 169.432 697.629 169.057C697.387 168.682 697.267 168.208 697.271 167.636V159.182ZM706.618 170.17C705.72 170.17 704.947 169.989 704.3 169.625C703.656 169.258 703.16 168.739 702.811 168.068C702.463 167.394 702.288 166.597 702.288 165.676C702.288 164.778 702.463 163.991 702.811 163.312C703.16 162.634 703.65 162.106 704.283 161.727C704.919 161.348 705.665 161.159 706.521 161.159C707.097 161.159 707.633 161.252 708.129 161.438C708.629 161.619 709.065 161.894 709.436 162.261C709.811 162.629 710.103 163.091 710.311 163.648C710.519 164.201 710.624 164.848 710.624 165.591V166.256H703.254V164.756H708.345C708.345 164.407 708.269 164.098 708.118 163.83C707.966 163.561 707.756 163.35 707.487 163.199C707.222 163.044 706.913 162.966 706.561 162.966C706.194 162.966 705.868 163.051 705.584 163.222C705.303 163.388 705.084 163.614 704.925 163.898C704.766 164.178 704.684 164.491 704.68 164.835V166.261C704.68 166.693 704.76 167.066 704.919 167.381C705.082 167.695 705.311 167.938 705.607 168.108C705.902 168.278 706.252 168.364 706.658 168.364C706.927 168.364 707.173 168.326 707.396 168.25C707.62 168.174 707.811 168.061 707.97 167.909C708.129 167.758 708.25 167.572 708.334 167.352L710.572 167.5C710.459 168.038 710.226 168.508 709.874 168.909C709.525 169.307 709.074 169.617 708.521 169.841C707.972 170.061 707.338 170.17 706.618 170.17ZM712.027 170V161.273H714.334V162.812H714.436C714.618 162.301 714.921 161.898 715.345 161.602C715.77 161.307 716.277 161.159 716.868 161.159C717.466 161.159 717.976 161.309 718.396 161.608C718.817 161.903 719.097 162.305 719.237 162.812H719.328C719.506 162.312 719.828 161.913 720.294 161.614C720.764 161.311 721.319 161.159 721.959 161.159C722.773 161.159 723.434 161.419 723.942 161.938C724.453 162.453 724.709 163.184 724.709 164.131V170H722.294V164.608C722.294 164.123 722.165 163.759 721.908 163.517C721.65 163.275 721.328 163.153 720.942 163.153C720.502 163.153 720.16 163.294 719.913 163.574C719.667 163.85 719.544 164.216 719.544 164.67V170H717.198V164.557C717.198 164.129 717.074 163.788 716.828 163.534C716.586 163.28 716.266 163.153 715.868 163.153C715.599 163.153 715.357 163.222 715.141 163.358C714.929 163.491 714.76 163.678 714.635 163.92C714.51 164.159 714.448 164.439 714.448 164.761V170H712.027Z"
    fill="black" fill-opacity="0.8" />
  <path
    d="M260 37C258.333 37 257 38.3333 257 40C257 41.6667 258.333 43 260 43C261.667 43 263 41.6667 263 40C263 38.3333 261.667 37 260 37Z"
    fill="white" />
  <path
    d="M87.2929 112.707C87.6834 113.098 88.3166 113.098 88.7071 112.707L95.0711 106.343C95.4616 105.953 95.4616 105.319 95.0711 104.929C94.6805 104.538 94.0474 104.538 93.6569 104.929L88 110.586L82.3431 104.929C81.9526 104.538 81.3195 104.538 80.9289 104.929C80.5384 105.319 80.5384 105.953 80.9289 106.343L87.2929 112.707ZM258 40C258 38.8856 258.886 38 260 38V36C257.781 36 256 37.781 256 40H258ZM260 38C261.114 38 262 38.8856 262 40H264C264 37.781 262.219 36 260 36V38ZM262 40C262 41.1144 261.114 42 260 42V44C262.219 44 264 42.219 264 40H262ZM260 42C258.886 42 258 41.1144 258 40H256C256 42.219 257.781 44 260 44V42ZM257 39H108V41H257V39ZM87 60V112H89V60H87ZM108 39C96.402 39 87 48.402 87 60H89C89 49.5066 97.5066 41 108 41V39Z"
    fill="black" />
  <path
    d="M492 37C490.333 37 489 38.3333 489 40C489 41.6667 490.333 43 492 43C493.667 43 495 41.6667 495 40C495 38.3333 493.667 37 492 37Z"
    fill="white" />
  <path
    d="M663.293 112.707C663.683 113.098 664.317 113.098 664.707 112.707L671.071 106.343C671.462 105.953 671.462 105.319 671.071 104.929C670.681 104.538 670.047 104.538 669.657 104.929L664 110.586L658.343 104.929C657.953 104.538 657.319 104.538 656.929 104.929C656.538 105.319 656.538 105.953 656.929 106.343L663.293 112.707ZM490 40C490 38.8856 490.886 38 492 38V36C489.781 36 488 37.781 488 40H490ZM492 38C493.114 38 494 38.8856 494 40H496C496 37.781 494.219 36 492 36V38ZM494 40C494 41.1144 493.114 42 492 42V44C494.219 44 496 42.219 496 40H494ZM492 42C490.886 42 490 41.1144 490 40H488C488 42.219 489.781 44 492 44V42ZM495 41H644V39H495V41ZM663 60V112H665V60H663ZM644 41C654.493 41 663 49.5066 663 60H665C665 48.402 655.598 39 644 39V41Z"
    fill="black" />
  <path
    d="M260 37C258.333 37 257 38.3333 257 40C257 41.6667 258.333 43 260 43C261.667 43 263 41.6667 263 40C263 38.3333 261.667 37 260 37Z"
    fill="white" />
  <path
    d="M209.293 209.707C209.683 210.098 210.317 210.098 210.707 209.707L217.071 203.343C217.462 202.953 217.462 202.319 217.071 201.929C216.681 201.538 216.047 201.538 215.657 201.929L210 207.586L204.343 201.929C203.953 201.538 203.319 201.538 202.929 201.929C202.538 202.319 202.538 202.953 202.929 203.343L209.293 209.707ZM258 40C258 38.8856 258.886 38 260 38V36C257.781 36 256 37.781 256 40H258ZM260 38C261.114 38 262 38.8856 262 40H264C264 37.781 262.219 36 260 36V38ZM262 40C262 41.1144 261.114 42 260 42V44C262.219 44 264 42.219 264 40H262ZM260 42C258.886 42 258 41.1144 258 40H256C256 42.219 257.781 44 260 44V42ZM257 39H230V41H257V39ZM209 60V209H211V60H209ZM230 39C218.402 39 209 48.402 209 60H211C211 49.5066 219.507 41 230 41V39Z"
    fill="black" />
  <path
    d="M492 37C490.333 37 489 38.3333 489 40C489 41.6667 490.333 43 492 43C493.667 43 495 41.6667 495 40C495 38.3333 493.667 37 492 37Z"
    fill="white" />
  <path
    d="M540.293 209.707C540.683 210.098 541.317 210.098 541.707 209.707L548.071 203.343C548.462 202.953 548.462 202.319 548.071 201.929C547.681 201.538 547.047 201.538 546.657 201.929L541 207.586L535.343 201.929C534.953 201.538 534.319 201.538 533.929 201.929C533.538 202.319 533.538 202.953 533.929 203.343L540.293 209.707ZM490 40C490 38.8856 490.886 38 492 38V36C489.781 36 488 37.781 488 40H490ZM492 38C493.114 38 494 38.8856 494 40H496C496 37.781 494.219 36 492 36V38ZM494 40C494 41.1144 493.114 42 492 42V44C494.219 44 496 42.219 496 40H494ZM492 42C490.886 42 490 41.1144 490 40H488C488 42.219 489.781 44 492 44V42ZM495 41H521V39H495V41ZM540 60V209H542V60H540ZM521 41C531.493 41 540 49.5066 540 60H542C542 48.402 532.598 39 521 39V41Z"
    fill="black" />
</svg>