<svg width="928" height="496" viewBox="0 0 928 496" fill="none" xmlns="http://www.w3.org/2000/svg">
    <rect width="928" height="80" rx="6" fill="#FFC7C2" />
    <path
        d="M343.255 33.5511C343.104 32.2064 342.479 31.1648 341.38 30.4261C340.282 29.678 338.899 29.304 337.232 29.304C336.039 29.304 335.007 29.4934 334.136 29.8722C333.265 30.2415 332.588 30.7528 332.105 31.4062C331.631 32.0502 331.394 32.7841 331.394 33.608C331.394 34.2992 331.555 34.8958 331.877 35.3977C332.209 35.8996 332.64 36.321 333.17 36.6619C333.71 36.9934 334.287 37.2727 334.903 37.5C335.518 37.7178 336.11 37.8977 336.678 38.0398L339.519 38.7784C340.447 39.0057 341.399 39.3134 342.374 39.7017C343.35 40.09 344.254 40.6013 345.088 41.2358C345.921 41.8703 346.593 42.6562 347.105 43.5938C347.625 44.5312 347.886 45.6534 347.886 46.9602C347.886 48.608 347.46 50.071 346.607 51.3494C345.765 52.6278 344.538 53.6364 342.928 54.375C341.328 55.1136 339.392 55.483 337.119 55.483C334.941 55.483 333.056 55.1373 331.465 54.446C329.874 53.7547 328.629 52.7746 327.73 51.5057C326.83 50.2273 326.333 48.7121 326.238 46.9602H330.642C330.727 48.0114 331.068 48.8873 331.664 49.5881C332.27 50.2794 333.042 50.7955 333.98 51.1364C334.927 51.4678 335.963 51.6335 337.09 51.6335C338.331 51.6335 339.434 51.4394 340.4 51.0511C341.375 50.6534 342.142 50.1042 342.701 49.4034C343.26 48.6932 343.539 47.8646 343.539 46.9176C343.539 46.0559 343.293 45.3504 342.801 44.8011C342.318 44.2519 341.66 43.7973 340.826 43.4375C340.002 43.0777 339.07 42.7604 338.028 42.4858L334.59 41.5483C332.261 40.9138 330.414 39.9811 329.051 38.75C327.696 37.5189 327.019 35.8902 327.019 33.8636C327.019 32.1875 327.474 30.7244 328.383 29.4744C329.292 28.2244 330.523 27.2538 332.076 26.5625C333.629 25.8617 335.381 25.5114 337.332 25.5114C339.302 25.5114 341.039 25.857 342.545 26.5483C344.06 27.2396 345.253 28.1913 346.124 29.4034C346.996 30.6061 347.45 31.9886 347.488 33.5511H343.255ZM361.1 55.4403C359.055 55.4403 357.27 54.9716 355.745 54.0341C354.221 53.0966 353.037 51.785 352.194 50.0994C351.351 48.4138 350.93 46.4441 350.93 44.1903C350.93 41.9271 351.351 39.9479 352.194 38.2528C353.037 36.5578 354.221 35.2415 355.745 34.304C357.27 33.3665 359.055 32.8977 361.1 32.8977C363.146 32.8977 364.931 33.3665 366.455 34.304C367.98 35.2415 369.164 36.5578 370.007 38.2528C370.849 39.9479 371.271 41.9271 371.271 44.1903C371.271 46.4441 370.849 48.4138 370.007 50.0994C369.164 51.785 367.98 53.0966 366.455 54.0341C364.931 54.9716 363.146 55.4403 361.1 55.4403ZM361.115 51.875C362.44 51.875 363.539 51.5246 364.41 50.8239C365.281 50.1231 365.925 49.1903 366.342 48.0256C366.768 46.8608 366.981 45.5777 366.981 44.1761C366.981 42.7841 366.768 41.5057 366.342 40.3409C365.925 39.1667 365.281 38.2244 364.41 37.5142C363.539 36.804 362.44 36.4489 361.115 36.4489C359.779 36.4489 358.671 36.804 357.791 37.5142C356.919 38.2244 356.271 39.1667 355.845 40.3409C355.428 41.5057 355.22 42.7841 355.22 44.1761C355.22 45.5777 355.428 46.8608 355.845 48.0256C356.271 49.1903 356.919 50.1231 357.791 50.8239C358.671 51.5246 359.779 51.875 361.115 51.875ZM385.515 33.1818V36.5909H373.185V33.1818H385.515ZM376.566 55V30.6534C376.566 29.2898 376.864 28.1581 377.461 27.2585C378.058 26.3494 378.848 25.6723 379.833 25.2273C380.818 24.7727 381.888 24.5455 383.043 24.5455C383.896 24.5455 384.625 24.6165 385.231 24.7585C385.837 24.8911 386.287 25.0142 386.58 25.1278L385.586 28.5653C385.387 28.5085 385.132 28.4422 384.819 28.3665C384.507 28.2812 384.128 28.2386 383.683 28.2386C382.65 28.2386 381.912 28.4943 381.467 29.0057C381.031 29.517 380.813 30.2557 380.813 31.2216V55H376.566ZM399.202 33.1818V36.5909H387.284V33.1818H399.202ZM390.48 27.9545H394.727V48.5938C394.727 49.4176 394.85 50.0379 395.097 50.4545C395.343 50.8617 395.66 51.1411 396.048 51.2926C396.446 51.4347 396.877 51.5057 397.341 51.5057C397.682 51.5057 397.98 51.482 398.236 51.4347C398.492 51.3873 398.69 51.3494 398.833 51.321L399.6 54.8295C399.353 54.9242 399.003 55.0189 398.548 55.1136C398.094 55.2178 397.526 55.2746 396.844 55.2841C395.726 55.303 394.685 55.1042 393.719 54.6875C392.753 54.2708 391.972 53.6269 391.375 52.7557C390.779 51.8845 390.48 50.7907 390.48 49.4744V27.9545ZM407.75 55L401.33 33.1818H405.719L409.994 49.2045H410.207L414.497 33.1818H418.886L423.148 49.1335H423.361L427.608 33.1818H431.997L425.591 55H421.259L416.827 39.2472H416.5L412.068 55H407.75ZM441.497 55.483C440.115 55.483 438.865 55.2273 437.747 54.7159C436.63 54.1951 435.744 53.4422 435.091 52.4574C434.447 51.4725 434.125 50.2652 434.125 48.8352C434.125 47.6042 434.362 46.5909 434.835 45.7955C435.309 45 435.948 44.3703 436.753 43.9062C437.558 43.4422 438.457 43.0919 439.452 42.8551C440.446 42.6184 441.459 42.4384 442.492 42.3153C443.798 42.1638 444.859 42.0407 445.673 41.946C446.488 41.8419 447.08 41.6761 447.449 41.4489C447.818 41.2216 448.003 40.8523 448.003 40.3409V40.2415C448.003 39.0009 447.653 38.0398 446.952 37.358C446.26 36.6761 445.228 36.3352 443.855 36.3352C442.425 36.3352 441.298 36.6525 440.474 37.2869C439.66 37.9119 439.097 38.608 438.784 39.375L434.793 38.4659C435.266 37.1402 435.957 36.0701 436.867 35.2557C437.785 34.4318 438.841 33.8352 440.034 33.4659C441.227 33.0871 442.482 32.8977 443.798 32.8977C444.67 32.8977 445.593 33.0019 446.568 33.2102C447.553 33.4091 448.472 33.7784 449.324 34.3182C450.186 34.858 450.891 35.6297 451.44 36.6335C451.99 37.6278 452.264 38.9205 452.264 40.5114V55H448.117V52.017H447.946C447.671 52.5663 447.26 53.1061 446.71 53.6364C446.161 54.1667 445.456 54.607 444.594 54.9574C443.732 55.3078 442.7 55.483 441.497 55.483ZM442.421 52.0739C443.595 52.0739 444.599 51.8419 445.432 51.3778C446.275 50.9138 446.914 50.3078 447.349 49.5597C447.795 48.8021 448.017 47.9924 448.017 47.1307V44.3182C447.866 44.4697 447.572 44.6117 447.136 44.7443C446.71 44.8674 446.223 44.9763 445.673 45.071C445.124 45.1562 444.589 45.2367 444.068 45.3125C443.547 45.3788 443.112 45.4356 442.761 45.483C441.938 45.5871 441.185 45.7623 440.503 46.0085C439.831 46.2547 439.291 46.6098 438.884 47.0739C438.486 47.5284 438.287 48.1345 438.287 48.892C438.287 49.9432 438.675 50.7386 439.452 51.2784C440.228 51.8087 441.218 52.0739 442.421 52.0739ZM457.041 55V33.1818H461.146V36.6477H461.374C461.771 35.4735 462.472 34.5502 463.476 33.8778C464.489 33.196 465.635 32.8551 466.913 32.8551C467.179 32.8551 467.491 32.8646 467.851 32.8835C468.22 32.9025 468.509 32.9261 468.717 32.9545V37.017C468.547 36.9697 468.244 36.9176 467.808 36.8608C467.373 36.7945 466.937 36.7614 466.501 36.7614C465.498 36.7614 464.603 36.9744 463.817 37.4006C463.04 37.8172 462.425 38.3996 461.97 39.1477C461.516 39.8864 461.288 40.7292 461.288 41.6761V55H457.041ZM480.135 55.4403C477.985 55.4403 476.134 54.9811 474.581 54.0625C473.037 53.1345 471.844 51.8324 471.001 50.1562C470.168 48.4706 469.751 46.4962 469.751 44.233C469.751 41.9981 470.168 40.0284 471.001 38.3239C471.844 36.6193 473.018 35.2888 474.524 34.3324C476.039 33.3759 477.81 32.8977 479.837 32.8977C481.068 32.8977 482.261 33.1013 483.416 33.5085C484.571 33.9157 485.608 34.5549 486.527 35.4261C487.446 36.2973 488.17 37.429 488.7 38.821C489.231 40.2036 489.496 41.8845 489.496 43.8636V45.3693H472.152V42.1875H485.334C485.334 41.0701 485.107 40.0805 484.652 39.2188C484.197 38.3475 483.558 37.661 482.734 37.1591C481.92 36.6572 480.964 36.4062 479.865 36.4062C478.672 36.4062 477.63 36.6998 476.74 37.2869C475.859 37.8646 475.178 38.6222 474.695 39.5597C474.221 40.4877 473.984 41.4962 473.984 42.5852V45.071C473.984 46.5294 474.24 47.7699 474.751 48.7926C475.272 49.8153 475.997 50.5966 476.925 51.1364C477.853 51.6667 478.937 51.9318 480.178 51.9318C480.982 51.9318 481.716 51.8182 482.379 51.5909C483.042 51.3542 483.615 51.0038 484.098 50.5398C484.581 50.0758 484.95 49.5028 485.206 48.821L489.226 49.5455C488.904 50.7292 488.326 51.7661 487.493 52.6562C486.669 53.5369 485.632 54.2235 484.382 54.7159C483.142 55.1989 481.726 55.4403 480.135 55.4403ZM513.219 33.1818V36.5909H501.301V33.1818H513.219ZM504.497 27.9545H508.744V48.5938C508.744 49.4176 508.867 50.0379 509.114 50.4545C509.36 50.8617 509.677 51.1411 510.065 51.2926C510.463 51.4347 510.894 51.5057 511.358 51.5057C511.699 51.5057 511.997 51.482 512.253 51.4347C512.508 51.3873 512.707 51.3494 512.849 51.321L513.616 54.8295C513.37 54.9242 513.02 55.0189 512.565 55.1136C512.111 55.2178 511.543 55.2746 510.861 55.2841C509.743 55.303 508.702 55.1042 507.736 54.6875C506.77 54.2708 505.989 53.6269 505.392 52.7557C504.795 51.8845 504.497 50.7907 504.497 49.4744V27.9545ZM519.721 63.1818C519.087 63.1818 518.509 63.1297 517.989 63.0256C517.468 62.9309 517.079 62.8267 516.824 62.7131L517.846 59.233C518.623 59.4413 519.314 59.5313 519.92 59.5028C520.526 59.4744 521.061 59.2472 521.525 58.821C521.999 58.3949 522.416 57.6989 522.775 56.733L523.301 55.2841L515.318 33.1818H519.864L525.389 50.1136H525.616L531.142 33.1818H535.702L526.71 57.9119C526.293 59.0483 525.763 60.0095 525.119 60.7955C524.475 61.5909 523.708 62.1875 522.818 62.5852C521.928 62.983 520.896 63.1818 519.721 63.1818ZM538.813 63.1818V33.1818H542.961V36.7188H543.316C543.562 36.2642 543.917 35.7386 544.381 35.142C544.845 34.5455 545.489 34.0246 546.313 33.5795C547.137 33.125 548.226 32.8977 549.58 32.8977C551.342 32.8977 552.913 33.3428 554.296 34.233C555.679 35.1231 556.763 36.4062 557.549 38.0824C558.344 39.7585 558.742 41.7756 558.742 44.1335C558.742 46.4915 558.349 48.5133 557.563 50.1989C556.777 51.875 555.698 53.1676 554.324 54.0767C552.951 54.9763 551.384 55.4261 549.623 55.4261C548.297 55.4261 547.213 55.2036 546.37 54.7585C545.537 54.3134 544.883 53.7926 544.41 53.196C543.936 52.5994 543.572 52.0691 543.316 51.6051H543.06V63.1818H538.813ZM542.975 44.0909C542.975 45.625 543.198 46.9697 543.643 48.125C544.088 49.2803 544.732 50.1847 545.574 50.8381C546.417 51.482 547.449 51.804 548.671 51.804C549.94 51.804 551.001 51.4678 551.853 50.7955C552.705 50.1136 553.349 49.1903 553.785 48.0256C554.23 46.8608 554.452 45.5492 554.452 44.0909C554.452 42.6515 554.234 41.3589 553.799 40.2131C553.373 39.0672 552.729 38.1629 551.867 37.5C551.015 36.8371 549.949 36.5057 548.671 36.5057C547.44 36.5057 546.398 36.8229 545.546 37.4574C544.703 38.0919 544.064 38.9773 543.628 40.1136C543.193 41.25 542.975 42.5758 542.975 44.0909ZM572.024 55.4403C569.874 55.4403 568.023 54.9811 566.47 54.0625C564.926 53.1345 563.733 51.8324 562.891 50.1562C562.057 48.4706 561.641 46.4962 561.641 44.233C561.641 41.9981 562.057 40.0284 562.891 38.3239C563.733 36.6193 564.908 35.2888 566.413 34.3324C567.928 33.3759 569.699 32.8977 571.726 32.8977C572.957 32.8977 574.15 33.1013 575.305 33.5085C576.461 33.9157 577.498 34.5549 578.416 35.4261C579.335 36.2973 580.059 37.429 580.589 38.821C581.12 40.2036 581.385 41.8845 581.385 43.8636V45.3693H564.041V42.1875H577.223C577.223 41.0701 576.996 40.0805 576.541 39.2188C576.087 38.3475 575.447 37.661 574.623 37.1591C573.809 36.6572 572.853 36.4062 571.754 36.4062C570.561 36.4062 569.519 36.6998 568.629 37.2869C567.748 37.8646 567.067 38.6222 566.584 39.5597C566.11 40.4877 565.873 41.4962 565.873 42.5852V45.071C565.873 46.5294 566.129 47.7699 566.641 48.7926C567.161 49.8153 567.886 50.5966 568.814 51.1364C569.742 51.6667 570.826 51.9318 572.067 51.9318C572.872 51.9318 573.605 51.8182 574.268 51.5909C574.931 51.3542 575.504 51.0038 575.987 50.5398C576.47 50.0758 576.839 49.5028 577.095 48.821L581.115 49.5455C580.793 50.7292 580.215 51.7661 579.382 52.6562C578.558 53.5369 577.521 54.2235 576.271 54.7159C575.031 55.1989 573.615 55.4403 572.024 55.4403ZM601.567 38.5085L597.717 39.1903C597.556 38.6979 597.301 38.2292 596.95 37.7841C596.609 37.339 596.145 36.9744 595.558 36.6903C594.971 36.4062 594.237 36.2642 593.356 36.2642C592.154 36.2642 591.15 36.5341 590.345 37.0739C589.54 37.6042 589.138 38.2907 589.138 39.1335C589.138 39.8627 589.408 40.4498 589.947 40.8949C590.487 41.34 591.358 41.7045 592.561 41.9886L596.027 42.7841C598.034 43.2481 599.531 43.9631 600.515 44.929C601.5 45.8949 601.993 47.1496 601.993 48.6932C601.993 50 601.614 51.1648 600.856 52.1875C600.108 53.2008 599.062 53.9962 597.717 54.5739C596.382 55.1515 594.834 55.4403 593.072 55.4403C590.629 55.4403 588.636 54.9195 587.092 53.8778C585.549 52.8267 584.602 51.3352 584.251 49.4034L588.356 48.7784C588.612 49.8485 589.138 50.6581 589.933 51.2074C590.729 51.7472 591.765 52.017 593.044 52.017C594.436 52.017 595.549 51.7282 596.382 51.1506C597.215 50.5634 597.632 49.8485 597.632 49.0057C597.632 48.3239 597.376 47.7509 596.865 47.2869C596.363 46.8229 595.591 46.4725 594.55 46.2358L590.856 45.4261C588.82 44.9621 587.315 44.2235 586.339 43.2102C585.373 42.197 584.89 40.9138 584.89 39.3608C584.89 38.0729 585.25 36.946 585.97 35.9801C586.69 35.0142 587.684 34.2614 588.953 33.7216C590.222 33.1723 591.676 32.8977 593.314 32.8977C595.672 32.8977 597.528 33.4091 598.882 34.4318C600.236 35.4451 601.131 36.804 601.567 38.5085Z"
        fill="black" fill-opacity="0.8" />
    <rect y="208" width="408" height="80" rx="6" fill="#FCD19C" />
    <path
        d="M65.6092 241.551C65.4577 240.206 64.8327 239.165 63.7342 238.426C62.6357 237.678 61.2532 237.304 59.5865 237.304C58.3933 237.304 57.3611 237.493 56.4899 237.872C55.6187 238.241 54.9416 238.753 54.4587 239.406C53.9852 240.05 53.7484 240.784 53.7484 241.608C53.7484 242.299 53.9094 242.896 54.2314 243.398C54.5628 243.9 54.9937 244.321 55.524 244.662C56.0638 244.993 56.6414 245.273 57.2569 245.5C57.8725 245.718 58.4643 245.898 59.0325 246.04L61.8734 246.778C62.8015 247.006 63.7532 247.313 64.7285 247.702C65.7039 248.09 66.6083 248.601 67.4416 249.236C68.2749 249.87 68.9473 250.656 69.4587 251.594C69.9795 252.531 70.2399 253.653 70.2399 254.96C70.2399 256.608 69.8138 258.071 68.9615 259.349C68.1187 260.628 66.8924 261.636 65.2825 262.375C63.6821 263.114 61.7456 263.483 59.4729 263.483C57.2948 263.483 55.4104 263.137 53.8194 262.446C52.2285 261.755 50.9833 260.775 50.0837 259.506C49.184 258.227 48.6869 256.712 48.5922 254.96H52.9956C53.0808 256.011 53.4217 256.887 54.0183 257.588C54.6244 258.279 55.3962 258.795 56.3337 259.136C57.2806 259.468 58.3176 259.634 59.4444 259.634C60.685 259.634 61.7882 259.439 62.7541 259.051C63.7295 258.653 64.4965 258.104 65.0552 257.403C65.614 256.693 65.8933 255.865 65.8933 254.918C65.8933 254.056 65.6471 253.35 65.1547 252.801C64.6717 252.252 64.0136 251.797 63.1802 251.438C62.3564 251.078 61.4236 250.76 60.3819 250.486L56.9444 249.548C54.6149 248.914 52.7683 247.981 51.4047 246.75C50.0505 245.519 49.3734 243.89 49.3734 241.864C49.3734 240.187 49.828 238.724 50.7371 237.474C51.6462 236.224 52.8772 235.254 54.4302 234.562C55.9833 233.862 57.7352 233.511 59.6859 233.511C61.6556 233.511 63.3933 233.857 64.899 234.548C66.4141 235.24 67.6073 236.191 68.4785 237.403C69.3498 238.606 69.8043 239.989 69.8422 241.551H65.6092ZM76.9487 271.182C76.3142 271.182 75.7366 271.13 75.2157 271.026C74.6949 270.931 74.3066 270.827 74.051 270.713L75.0737 267.233C75.8502 267.441 76.5415 267.531 77.1475 267.503C77.7536 267.474 78.2886 267.247 78.7527 266.821C79.2261 266.395 79.6428 265.699 80.0027 264.733L80.5282 263.284L72.5453 241.182H77.0907L82.6163 258.114H82.8436L88.3691 241.182H92.9288L83.9373 265.912C83.5207 267.048 82.9904 268.009 82.3464 268.795C81.7025 269.591 80.9354 270.188 80.0453 270.585C79.1551 270.983 78.1229 271.182 76.9487 271.182ZM112.39 246.509L108.54 247.19C108.379 246.698 108.124 246.229 107.773 245.784C107.432 245.339 106.968 244.974 106.381 244.69C105.794 244.406 105.06 244.264 104.179 244.264C102.977 244.264 101.973 244.534 101.168 245.074C100.363 245.604 99.9607 246.291 99.9607 247.134C99.9607 247.863 100.231 248.45 100.77 248.895C101.31 249.34 102.181 249.705 103.384 249.989L106.85 250.784C108.858 251.248 110.354 251.963 111.339 252.929C112.323 253.895 112.816 255.15 112.816 256.693C112.816 258 112.437 259.165 111.679 260.188C110.931 261.201 109.885 261.996 108.54 262.574C107.205 263.152 105.657 263.44 103.895 263.44C101.452 263.44 99.4588 262.92 97.9153 261.878C96.3717 260.827 95.4247 259.335 95.0744 257.403L99.1795 256.778C99.4352 257.848 99.9607 258.658 100.756 259.207C101.552 259.747 102.589 260.017 103.867 260.017C105.259 260.017 106.372 259.728 107.205 259.151C108.038 258.563 108.455 257.848 108.455 257.006C108.455 256.324 108.199 255.751 107.688 255.287C107.186 254.823 106.414 254.473 105.373 254.236L101.679 253.426C99.6435 252.962 98.1378 252.223 97.1624 251.21C96.1965 250.197 95.7136 248.914 95.7136 247.361C95.7136 246.073 96.0734 244.946 96.7931 243.98C97.5128 243.014 98.5071 242.261 99.7761 241.722C101.045 241.172 102.499 240.898 104.137 240.898C106.495 240.898 108.351 241.409 109.705 242.432C111.059 243.445 111.954 244.804 112.39 246.509ZM126.79 241.182V244.591H114.873V241.182H126.79ZM118.069 235.955H122.316V256.594C122.316 257.418 122.439 258.038 122.685 258.455C122.931 258.862 123.249 259.141 123.637 259.293C124.035 259.435 124.465 259.506 124.929 259.506C125.27 259.506 125.569 259.482 125.824 259.435C126.08 259.387 126.279 259.349 126.421 259.321L127.188 262.83C126.942 262.924 126.591 263.019 126.137 263.114C125.682 263.218 125.114 263.275 124.432 263.284C123.315 263.303 122.273 263.104 121.307 262.688C120.341 262.271 119.56 261.627 118.964 260.756C118.367 259.884 118.069 258.791 118.069 257.474V235.955ZM139.777 263.44C137.628 263.44 135.776 262.981 134.223 262.062C132.68 261.134 131.487 259.832 130.644 258.156C129.811 256.471 129.394 254.496 129.394 252.233C129.394 249.998 129.811 248.028 130.644 246.324C131.487 244.619 132.661 243.289 134.167 242.332C135.682 241.376 137.453 240.898 139.479 240.898C140.71 240.898 141.903 241.101 143.059 241.509C144.214 241.916 145.251 242.555 146.169 243.426C147.088 244.297 147.812 245.429 148.343 246.821C148.873 248.204 149.138 249.884 149.138 251.864V253.369H131.794V250.188H144.976C144.976 249.07 144.749 248.08 144.294 247.219C143.84 246.348 143.201 245.661 142.377 245.159C141.562 244.657 140.606 244.406 139.508 244.406C138.314 244.406 137.273 244.7 136.383 245.287C135.502 245.865 134.82 246.622 134.337 247.56C133.864 248.488 133.627 249.496 133.627 250.585V253.071C133.627 254.529 133.883 255.77 134.394 256.793C134.915 257.815 135.639 258.597 136.567 259.136C137.495 259.667 138.58 259.932 139.82 259.932C140.625 259.932 141.359 259.818 142.022 259.591C142.685 259.354 143.258 259.004 143.741 258.54C144.223 258.076 144.593 257.503 144.848 256.821L148.868 257.545C148.546 258.729 147.969 259.766 147.135 260.656C146.312 261.537 145.275 262.223 144.025 262.716C142.784 263.199 141.368 263.44 139.777 263.44ZM152.971 263V241.182H157.047V244.733H157.317C157.772 243.53 158.515 242.593 159.547 241.92C160.579 241.239 161.815 240.898 163.255 240.898C164.713 240.898 165.935 241.239 166.919 241.92C167.914 242.602 168.648 243.54 169.121 244.733H169.348C169.869 243.568 170.698 242.64 171.834 241.949C172.971 241.248 174.325 240.898 175.897 240.898C177.876 240.898 179.49 241.518 180.74 242.759C182 243.999 182.63 245.869 182.63 248.369V263H178.383V248.767C178.383 247.29 177.98 246.22 177.175 245.557C176.37 244.894 175.409 244.562 174.292 244.562C172.909 244.562 171.834 244.989 171.067 245.841C170.3 246.684 169.917 247.768 169.917 249.094V263H165.684V248.497C165.684 247.313 165.314 246.362 164.576 245.642C163.837 244.922 162.876 244.562 161.692 244.562C160.887 244.562 160.144 244.776 159.462 245.202C158.79 245.618 158.245 246.201 157.829 246.949C157.421 247.697 157.218 248.563 157.218 249.548V263H152.971ZM213.355 241.551C213.204 240.206 212.579 239.165 211.48 238.426C210.382 237.678 208.999 237.304 207.333 237.304C206.14 237.304 205.107 237.493 204.236 237.872C203.365 238.241 202.688 238.753 202.205 239.406C201.731 240.05 201.495 240.784 201.495 241.608C201.495 242.299 201.656 242.896 201.978 243.398C202.309 243.9 202.74 244.321 203.27 244.662C203.81 244.993 204.388 245.273 205.003 245.5C205.619 245.718 206.211 245.898 206.779 246.04L209.62 246.778C210.548 247.006 211.499 247.313 212.475 247.702C213.45 248.09 214.355 248.601 215.188 249.236C216.021 249.87 216.694 250.656 217.205 251.594C217.726 252.531 217.986 253.653 217.986 254.96C217.986 256.608 217.56 258.071 216.708 259.349C215.865 260.628 214.639 261.636 213.029 262.375C211.428 263.114 209.492 263.483 207.219 263.483C205.041 263.483 203.157 263.137 201.566 262.446C199.975 261.755 198.73 260.775 197.83 259.506C196.93 258.227 196.433 256.712 196.338 254.96H200.742C200.827 256.011 201.168 256.887 201.765 257.588C202.371 258.279 203.142 258.795 204.08 259.136C205.027 259.468 206.064 259.634 207.191 259.634C208.431 259.634 209.534 259.439 210.5 259.051C211.476 258.653 212.243 258.104 212.801 257.403C213.36 256.693 213.64 255.865 213.64 254.918C213.64 254.056 213.393 253.35 212.901 252.801C212.418 252.252 211.76 251.797 210.926 251.438C210.103 251.078 209.17 250.76 208.128 250.486L204.691 249.548C202.361 248.914 200.515 247.981 199.151 246.75C197.797 245.519 197.12 243.89 197.12 241.864C197.12 240.187 197.574 238.724 198.483 237.474C199.392 236.224 200.623 235.254 202.176 234.562C203.73 233.862 205.481 233.511 207.432 233.511C209.402 233.511 211.14 233.857 212.645 234.548C214.16 235.24 215.354 236.191 216.225 237.403C217.096 238.606 217.551 239.989 217.588 241.551H213.355ZM231.201 263.44C229.155 263.44 227.37 262.972 225.846 262.034C224.321 261.097 223.137 259.785 222.294 258.099C221.452 256.414 221.03 254.444 221.03 252.19C221.03 249.927 221.452 247.948 222.294 246.253C223.137 244.558 224.321 243.241 225.846 242.304C227.37 241.366 229.155 240.898 231.201 240.898C233.246 240.898 235.031 241.366 236.556 242.304C238.08 243.241 239.264 244.558 240.107 246.253C240.95 247.948 241.371 249.927 241.371 252.19C241.371 254.444 240.95 256.414 240.107 258.099C239.264 259.785 238.08 261.097 236.556 262.034C235.031 262.972 233.246 263.44 231.201 263.44ZM231.215 259.875C232.541 259.875 233.639 259.525 234.51 258.824C235.381 258.123 236.025 257.19 236.442 256.026C236.868 254.861 237.081 253.578 237.081 252.176C237.081 250.784 236.868 249.506 236.442 248.341C236.025 247.167 235.381 246.224 234.51 245.514C233.639 244.804 232.541 244.449 231.215 244.449C229.88 244.449 228.772 244.804 227.891 245.514C227.02 246.224 226.371 247.167 225.945 248.341C225.528 249.506 225.32 250.784 225.32 252.176C225.32 253.578 225.528 254.861 225.945 256.026C226.371 257.19 227.02 258.123 227.891 258.824C228.772 259.525 229.88 259.875 231.215 259.875ZM255.615 241.182V244.591H243.286V241.182H255.615ZM246.666 263V238.653C246.666 237.29 246.965 236.158 247.561 235.259C248.158 234.349 248.949 233.672 249.934 233.227C250.918 232.773 251.988 232.545 253.144 232.545C253.996 232.545 254.725 232.616 255.331 232.759C255.937 232.891 256.387 233.014 256.681 233.128L255.686 236.565C255.488 236.509 255.232 236.442 254.919 236.366C254.607 236.281 254.228 236.239 253.783 236.239C252.751 236.239 252.012 236.494 251.567 237.006C251.131 237.517 250.914 238.256 250.914 239.222V263H246.666ZM269.302 241.182V244.591H257.385V241.182H269.302ZM260.581 235.955H264.828V256.594C264.828 257.418 264.951 258.038 265.197 258.455C265.443 258.862 265.76 259.141 266.149 259.293C266.546 259.435 266.977 259.506 267.441 259.506C267.782 259.506 268.081 259.482 268.336 259.435C268.592 259.387 268.791 259.349 268.933 259.321L269.7 262.83C269.454 262.924 269.103 263.019 268.649 263.114C268.194 263.218 267.626 263.275 266.944 263.284C265.827 263.303 264.785 263.104 263.819 262.688C262.853 262.271 262.072 261.627 261.475 260.756C260.879 259.884 260.581 258.791 260.581 257.474V235.955ZM277.85 263L271.43 241.182H275.819L280.095 257.205H280.308L284.598 241.182H288.987L293.248 257.134H293.461L297.708 241.182H302.098L295.691 263H291.359L286.927 247.247H286.6L282.169 263H277.85ZM311.598 263.483C310.215 263.483 308.965 263.227 307.848 262.716C306.73 262.195 305.845 261.442 305.191 260.457C304.547 259.473 304.225 258.265 304.225 256.835C304.225 255.604 304.462 254.591 304.936 253.795C305.409 253 306.048 252.37 306.853 251.906C307.658 251.442 308.558 251.092 309.552 250.855C310.546 250.618 311.56 250.438 312.592 250.315C313.899 250.164 314.959 250.041 315.774 249.946C316.588 249.842 317.18 249.676 317.549 249.449C317.919 249.222 318.103 248.852 318.103 248.341V248.241C318.103 247.001 317.753 246.04 317.052 245.358C316.361 244.676 315.329 244.335 313.955 244.335C312.526 244.335 311.399 244.652 310.575 245.287C309.76 245.912 309.197 246.608 308.884 247.375L304.893 246.466C305.366 245.14 306.058 244.07 306.967 243.256C307.885 242.432 308.941 241.835 310.134 241.466C311.328 241.087 312.582 240.898 313.899 240.898C314.77 240.898 315.693 241.002 316.669 241.21C317.653 241.409 318.572 241.778 319.424 242.318C320.286 242.858 320.991 243.63 321.541 244.634C322.09 245.628 322.365 246.92 322.365 248.511V263H318.217V260.017H318.046C317.772 260.566 317.36 261.106 316.811 261.636C316.261 262.167 315.556 262.607 314.694 262.957C313.832 263.308 312.8 263.483 311.598 263.483ZM312.521 260.074C313.695 260.074 314.699 259.842 315.532 259.378C316.375 258.914 317.014 258.308 317.45 257.56C317.895 256.802 318.117 255.992 318.117 255.131V252.318C317.966 252.47 317.672 252.612 317.237 252.744C316.811 252.867 316.323 252.976 315.774 253.071C315.224 253.156 314.689 253.237 314.169 253.312C313.648 253.379 313.212 253.436 312.862 253.483C312.038 253.587 311.285 253.762 310.603 254.009C309.931 254.255 309.391 254.61 308.984 255.074C308.586 255.528 308.387 256.134 308.387 256.892C308.387 257.943 308.776 258.739 309.552 259.278C310.329 259.809 311.318 260.074 312.521 260.074ZM327.142 263V241.182H331.247V244.648H331.474C331.872 243.473 332.572 242.55 333.576 241.878C334.589 241.196 335.735 240.855 337.014 240.855C337.279 240.855 337.591 240.865 337.951 240.884C338.32 240.902 338.609 240.926 338.818 240.955V245.017C338.647 244.97 338.344 244.918 337.909 244.861C337.473 244.795 337.037 244.761 336.602 244.761C335.598 244.761 334.703 244.974 333.917 245.401C333.141 245.817 332.525 246.4 332.07 247.148C331.616 247.886 331.389 248.729 331.389 249.676V263H327.142ZM350.235 263.44C348.086 263.44 346.234 262.981 344.681 262.062C343.138 261.134 341.945 259.832 341.102 258.156C340.268 256.471 339.852 254.496 339.852 252.233C339.852 249.998 340.268 248.028 341.102 246.324C341.945 244.619 343.119 243.289 344.624 242.332C346.14 241.376 347.91 240.898 349.937 240.898C351.168 240.898 352.361 241.101 353.516 241.509C354.672 241.916 355.709 242.555 356.627 243.426C357.546 244.297 358.27 245.429 358.801 246.821C359.331 248.204 359.596 249.884 359.596 251.864V253.369H342.252V250.188H355.434C355.434 249.07 355.207 248.08 354.752 247.219C354.298 246.348 353.659 245.661 352.835 245.159C352.02 244.657 351.064 244.406 349.965 244.406C348.772 244.406 347.731 244.7 346.84 245.287C345.96 245.865 345.278 246.622 344.795 247.56C344.321 248.488 344.085 249.496 344.085 250.585V253.071C344.085 254.529 344.34 255.77 344.852 256.793C345.373 257.815 346.097 258.597 347.025 259.136C347.953 259.667 349.037 259.932 350.278 259.932C351.083 259.932 351.817 259.818 352.48 259.591C353.142 259.354 353.715 259.004 354.198 258.54C354.681 258.076 355.051 257.503 355.306 256.821L359.326 257.545C359.004 258.729 358.427 259.766 357.593 260.656C356.769 261.537 355.732 262.223 354.482 262.716C353.242 263.199 351.826 263.44 350.235 263.44Z"
        fill="black" fill-opacity="0.8" />
    <path
        d="M465.5 84C465.5 83.1716 464.828 82.5 464 82.5C463.172 82.5 462.5 83.1716 462.5 84H465.5ZM202.939 205.061C203.525 205.646 204.475 205.646 205.061 205.061L214.607 195.515C215.192 194.929 215.192 193.979 214.607 193.393C214.021 192.808 213.071 192.808 212.485 193.393L204 201.879L195.515 193.393C194.929 192.808 193.979 192.808 193.393 193.393C192.808 193.979 192.808 194.929 193.393 195.515L202.939 205.061ZM462.5 84V120H465.5V84H462.5ZM440 142.5H228V145.5H440V142.5ZM202.5 168V204H205.5V168H202.5ZM228 142.5C213.917 142.5 202.5 153.917 202.5 168H205.5C205.5 155.574 215.574 145.5 228 145.5V142.5ZM462.5 120C462.5 132.426 452.426 142.5 440 142.5V145.5C454.083 145.5 465.5 134.083 465.5 120H462.5Z"
        fill="#B3B3B3" />
    <rect x="520" y="208" width="408" height="80" rx="6" fill="#FCD19C" />
    <path
        d="M574.486 260H570.759L579.134 236.727H583.191L591.566 260H587.839L581.259 240.955H581.077L574.486 260ZM575.111 250.886H587.202V253.841H575.111V250.886ZM594.046 266.545V242.545H597.364V245.375H597.648C597.845 245.011 598.129 244.591 598.5 244.114C598.872 243.636 599.387 243.22 600.046 242.864C600.705 242.5 601.576 242.318 602.659 242.318C604.069 242.318 605.326 242.674 606.432 243.386C607.538 244.098 608.406 245.125 609.034 246.466C609.671 247.807 609.989 249.42 609.989 251.307C609.989 253.193 609.675 254.811 609.046 256.159C608.417 257.5 607.553 258.534 606.455 259.261C605.356 259.981 604.103 260.341 602.694 260.341C601.633 260.341 600.766 260.163 600.091 259.807C599.425 259.451 598.902 259.034 598.523 258.557C598.144 258.08 597.853 257.655 597.648 257.284H597.444V266.545H594.046ZM597.375 251.273C597.375 252.5 597.553 253.576 597.909 254.5C598.266 255.424 598.781 256.148 599.455 256.67C600.129 257.186 600.955 257.443 601.932 257.443C602.947 257.443 603.796 257.174 604.478 256.636C605.159 256.091 605.675 255.352 606.023 254.42C606.379 253.489 606.557 252.439 606.557 251.273C606.557 250.121 606.383 249.087 606.034 248.17C605.694 247.254 605.178 246.53 604.489 246C603.807 245.47 602.955 245.205 601.932 245.205C600.947 245.205 600.114 245.458 599.432 245.966C598.758 246.473 598.247 247.182 597.898 248.091C597.55 249 597.375 250.061 597.375 251.273ZM613.188 266.545V242.545H616.506V245.375H616.79C616.987 245.011 617.271 244.591 617.642 244.114C618.014 243.636 618.529 243.22 619.188 242.864C619.847 242.5 620.718 242.318 621.801 242.318C623.211 242.318 624.468 242.674 625.574 243.386C626.68 244.098 627.548 245.125 628.176 246.466C628.813 247.807 629.131 249.42 629.131 251.307C629.131 253.193 628.817 254.811 628.188 256.159C627.559 257.5 626.695 258.534 625.597 259.261C624.498 259.981 623.245 260.341 621.836 260.341C620.775 260.341 619.908 260.163 619.233 259.807C618.567 259.451 618.044 259.034 617.665 258.557C617.286 258.08 616.995 257.655 616.79 257.284H616.586V266.545H613.188ZM616.517 251.273C616.517 252.5 616.695 253.576 617.051 254.5C617.408 255.424 617.923 256.148 618.597 256.67C619.271 257.186 620.097 257.443 621.074 257.443C622.089 257.443 622.938 257.174 623.62 256.636C624.301 256.091 624.817 255.352 625.165 254.42C625.521 253.489 625.699 252.439 625.699 251.273C625.699 250.121 625.525 249.087 625.176 248.17C624.836 247.254 624.32 246.53 623.631 246C622.949 245.47 622.097 245.205 621.074 245.205C620.089 245.205 619.256 245.458 618.574 245.966C617.9 246.473 617.389 247.182 617.04 248.091C616.692 249 616.517 250.061 616.517 251.273ZM635.728 236.727V260H632.33V236.727H635.728ZM639.691 260V242.545H643.088V260H639.691ZM641.407 239.852C640.816 239.852 640.308 239.655 639.884 239.261C639.467 238.86 639.259 238.383 639.259 237.83C639.259 237.269 639.467 236.792 639.884 236.398C640.308 235.996 640.816 235.795 641.407 235.795C641.997 235.795 642.501 235.996 642.918 236.398C643.342 236.792 643.554 237.269 643.554 237.83C643.554 238.383 643.342 238.86 642.918 239.261C642.501 239.655 641.997 239.852 641.407 239.852ZM654.404 260.352C652.714 260.352 651.26 259.97 650.04 259.205C648.828 258.432 647.896 257.367 647.245 256.011C646.593 254.655 646.267 253.102 646.267 251.352C646.267 249.58 646.601 248.015 647.267 246.659C647.934 245.295 648.873 244.231 650.085 243.466C651.298 242.701 652.726 242.318 654.37 242.318C655.695 242.318 656.877 242.564 657.915 243.057C658.953 243.542 659.79 244.223 660.426 245.102C661.07 245.981 661.453 247.008 661.574 248.182H658.267C658.085 247.364 657.669 246.659 657.017 246.068C656.373 245.477 655.51 245.182 654.426 245.182C653.479 245.182 652.65 245.432 651.938 245.932C651.233 246.424 650.684 247.129 650.29 248.045C649.896 248.955 649.699 250.03 649.699 251.273C649.699 252.545 649.892 253.644 650.279 254.568C650.665 255.492 651.21 256.208 651.915 256.716C652.627 257.223 653.464 257.477 654.426 257.477C655.07 257.477 655.654 257.36 656.176 257.125C656.707 256.883 657.15 256.538 657.506 256.091C657.87 255.644 658.123 255.106 658.267 254.477H661.574C661.453 255.606 661.085 256.614 660.472 257.5C659.858 258.386 659.036 259.083 658.006 259.591C656.983 260.098 655.782 260.352 654.404 260.352ZM669.679 260.386C668.573 260.386 667.573 260.182 666.679 259.773C665.785 259.356 665.077 258.754 664.554 257.966C664.039 257.178 663.781 256.212 663.781 255.068C663.781 254.083 663.971 253.273 664.35 252.636C664.728 252 665.24 251.496 665.884 251.125C666.528 250.754 667.247 250.473 668.043 250.284C668.838 250.095 669.649 249.951 670.475 249.852C671.52 249.731 672.369 249.633 673.02 249.557C673.672 249.473 674.145 249.341 674.44 249.159C674.736 248.977 674.884 248.682 674.884 248.273V248.193C674.884 247.201 674.603 246.432 674.043 245.886C673.49 245.341 672.664 245.068 671.565 245.068C670.422 245.068 669.52 245.322 668.861 245.83C668.209 246.33 667.759 246.886 667.509 247.5L664.315 246.773C664.694 245.712 665.247 244.856 665.975 244.205C666.709 243.545 667.554 243.068 668.509 242.773C669.463 242.47 670.467 242.318 671.52 242.318C672.217 242.318 672.956 242.402 673.736 242.568C674.524 242.727 675.259 243.023 675.94 243.455C676.63 243.886 677.194 244.504 677.634 245.307C678.073 246.102 678.293 247.136 678.293 248.409V260H674.975V257.614H674.838C674.619 258.053 674.289 258.485 673.85 258.909C673.41 259.333 672.846 259.686 672.156 259.966C671.467 260.246 670.641 260.386 669.679 260.386ZM670.418 257.659C671.357 257.659 672.16 257.473 672.827 257.102C673.501 256.731 674.012 256.246 674.361 255.648C674.717 255.042 674.895 254.394 674.895 253.705V251.455C674.774 251.576 674.539 251.689 674.19 251.795C673.85 251.894 673.459 251.981 673.02 252.057C672.581 252.125 672.153 252.189 671.736 252.25C671.319 252.303 670.971 252.348 670.69 252.386C670.031 252.47 669.429 252.61 668.884 252.807C668.346 253.004 667.914 253.288 667.588 253.659C667.27 254.023 667.111 254.508 667.111 255.114C667.111 255.955 667.422 256.591 668.043 257.023C668.664 257.447 669.456 257.659 670.418 257.659ZM690.358 242.545V245.273H680.824V242.545H690.358ZM683.381 238.364H686.779V254.875C686.779 255.534 686.877 256.03 687.074 256.364C687.271 256.689 687.525 256.913 687.835 257.034C688.154 257.148 688.498 257.205 688.869 257.205C689.142 257.205 689.381 257.186 689.585 257.148C689.79 257.11 689.949 257.08 690.063 257.057L690.676 259.864C690.479 259.939 690.199 260.015 689.835 260.091C689.472 260.174 689.017 260.22 688.472 260.227C687.578 260.242 686.744 260.083 685.972 259.75C685.199 259.417 684.574 258.902 684.097 258.205C683.619 257.508 683.381 256.633 683.381 255.58V238.364ZM693.509 260V242.545H696.906V260H693.509ZM695.225 239.852C694.634 239.852 694.126 239.655 693.702 239.261C693.285 238.86 693.077 238.383 693.077 237.83C693.077 237.269 693.285 236.792 693.702 236.398C694.126 235.996 694.634 235.795 695.225 235.795C695.815 235.795 696.319 235.996 696.736 236.398C697.16 236.792 697.372 237.269 697.372 237.83C697.372 238.383 697.16 238.86 696.736 239.261C696.319 239.655 695.815 239.852 695.225 239.852ZM708.222 260.352C706.585 260.352 705.157 259.977 703.938 259.227C702.718 258.477 701.771 257.428 701.097 256.08C700.422 254.731 700.085 253.155 700.085 251.352C700.085 249.542 700.422 247.958 701.097 246.602C701.771 245.246 702.718 244.193 703.938 243.443C705.157 242.693 706.585 242.318 708.222 242.318C709.858 242.318 711.286 242.693 712.506 243.443C713.725 244.193 714.672 245.246 715.347 246.602C716.021 247.958 716.358 249.542 716.358 251.352C716.358 253.155 716.021 254.731 715.347 256.08C714.672 257.428 713.725 258.477 712.506 259.227C711.286 259.977 709.858 260.352 708.222 260.352ZM708.233 257.5C709.294 257.5 710.172 257.22 710.869 256.659C711.566 256.098 712.081 255.352 712.415 254.42C712.756 253.489 712.926 252.462 712.926 251.341C712.926 250.227 712.756 249.205 712.415 248.273C712.081 247.333 711.566 246.58 710.869 246.011C710.172 245.443 709.294 245.159 708.233 245.159C707.165 245.159 706.278 245.443 705.574 246.011C704.877 246.58 704.358 247.333 704.017 248.273C703.684 249.205 703.517 250.227 703.517 251.341C703.517 252.462 703.684 253.489 704.017 254.42C704.358 255.352 704.877 256.098 705.574 256.659C706.278 257.22 707.165 257.5 708.233 257.5ZM722.94 249.636V260H719.543V242.545H722.804V245.386H723.02C723.421 244.462 724.05 243.72 724.906 243.159C725.77 242.598 726.857 242.318 728.168 242.318C729.357 242.318 730.399 242.568 731.293 243.068C732.187 243.561 732.88 244.295 733.372 245.273C733.865 246.25 734.111 247.458 734.111 248.898V260H730.713V249.307C730.713 248.042 730.383 247.053 729.724 246.341C729.065 245.621 728.16 245.261 727.008 245.261C726.221 245.261 725.52 245.432 724.906 245.773C724.3 246.114 723.819 246.614 723.463 247.273C723.115 247.924 722.94 248.712 722.94 249.636ZM758.886 242.841C758.765 241.765 758.265 240.932 757.386 240.341C756.507 239.742 755.401 239.443 754.068 239.443C753.114 239.443 752.288 239.595 751.591 239.898C750.894 240.193 750.352 240.602 749.966 241.125C749.587 241.64 749.398 242.227 749.398 242.886C749.398 243.439 749.526 243.917 749.784 244.318C750.049 244.72 750.394 245.057 750.818 245.33C751.25 245.595 751.712 245.818 752.204 246C752.697 246.174 753.17 246.318 753.625 246.432L755.898 247.023C756.64 247.205 757.401 247.451 758.182 247.761C758.962 248.072 759.685 248.481 760.352 248.989C761.019 249.496 761.557 250.125 761.966 250.875C762.382 251.625 762.591 252.523 762.591 253.568C762.591 254.886 762.25 256.057 761.568 257.08C760.894 258.102 759.913 258.909 758.625 259.5C757.345 260.091 755.795 260.386 753.977 260.386C752.235 260.386 750.727 260.11 749.454 259.557C748.182 259.004 747.185 258.22 746.466 257.205C745.746 256.182 745.348 254.97 745.273 253.568H748.795C748.864 254.409 749.136 255.11 749.614 255.67C750.098 256.223 750.716 256.636 751.466 256.909C752.223 257.174 753.053 257.307 753.954 257.307C754.947 257.307 755.829 257.152 756.602 256.841C757.382 256.523 757.996 256.083 758.443 255.523C758.89 254.955 759.114 254.292 759.114 253.534C759.114 252.845 758.917 252.28 758.523 251.841C758.136 251.402 757.61 251.038 756.943 250.75C756.284 250.462 755.538 250.208 754.704 249.989L751.954 249.239C750.091 248.731 748.614 247.985 747.523 247C746.439 246.015 745.898 244.712 745.898 243.091C745.898 241.75 746.261 240.58 746.989 239.58C747.716 238.58 748.701 237.803 749.943 237.25C751.185 236.689 752.587 236.409 754.148 236.409C755.723 236.409 757.114 236.686 758.318 237.239C759.53 237.792 760.485 238.553 761.182 239.523C761.879 240.485 762.242 241.591 762.273 242.841H758.886ZM773.258 260.352C771.622 260.352 770.194 259.977 768.974 259.227C767.755 258.477 766.808 257.428 766.133 256.08C765.459 254.731 765.122 253.155 765.122 251.352C765.122 249.542 765.459 247.958 766.133 246.602C766.808 245.246 767.755 244.193 768.974 243.443C770.194 242.693 771.622 242.318 773.258 242.318C774.895 242.318 776.323 242.693 777.542 243.443C778.762 244.193 779.709 245.246 780.383 246.602C781.058 247.958 781.395 249.542 781.395 251.352C781.395 253.155 781.058 254.731 780.383 256.08C779.709 257.428 778.762 258.477 777.542 259.227C776.323 259.977 774.895 260.352 773.258 260.352ZM773.27 257.5C774.33 257.5 775.209 257.22 775.906 256.659C776.603 256.098 777.118 255.352 777.452 254.42C777.792 253.489 777.963 252.462 777.963 251.341C777.963 250.227 777.792 249.205 777.452 248.273C777.118 247.333 776.603 246.58 775.906 246.011C775.209 245.443 774.33 245.159 773.27 245.159C772.202 245.159 771.315 245.443 770.611 246.011C769.914 246.58 769.395 247.333 769.054 248.273C768.72 249.205 768.554 250.227 768.554 251.341C768.554 252.462 768.72 253.489 769.054 254.42C769.395 255.352 769.914 256.098 770.611 256.659C771.315 257.22 772.202 257.5 773.27 257.5ZM792.886 242.545V245.273H783.023V242.545H792.886ZM785.727 260V240.523C785.727 239.432 785.966 238.527 786.443 237.807C786.92 237.08 787.553 236.538 788.341 236.182C789.129 235.818 789.985 235.636 790.909 235.636C791.591 235.636 792.174 235.693 792.659 235.807C793.144 235.913 793.504 236.011 793.738 236.102L792.943 238.852C792.784 238.807 792.579 238.754 792.329 238.693C792.079 238.625 791.776 238.591 791.42 238.591C790.595 238.591 790.004 238.795 789.648 239.205C789.299 239.614 789.125 240.205 789.125 240.977V260H785.727ZM803.932 242.545V245.273H794.397V242.545H803.932ZM796.954 238.364H800.352V254.875C800.352 255.534 800.451 256.03 800.647 256.364C800.844 256.689 801.098 256.913 801.409 257.034C801.727 257.148 802.072 257.205 802.443 257.205C802.716 257.205 802.954 257.186 803.159 257.148C803.363 257.11 803.522 257.08 803.636 257.057L804.25 259.864C804.053 259.939 803.772 260.015 803.409 260.091C803.045 260.174 802.591 260.22 802.045 260.227C801.151 260.242 800.318 260.083 799.545 259.75C798.772 259.417 798.147 258.902 797.67 258.205C797.193 257.508 796.954 256.633 796.954 255.58V238.364ZM810.866 260L805.73 242.545H809.241L812.662 255.364H812.832L816.264 242.545H819.775L823.184 255.307H823.355L826.753 242.545H830.264L825.139 260H821.673L818.128 247.398H817.866L814.321 260H810.866ZM837.96 260.386C836.854 260.386 835.854 260.182 834.96 259.773C834.066 259.356 833.358 258.754 832.835 257.966C832.32 257.178 832.062 256.212 832.062 255.068C832.062 254.083 832.252 253.273 832.63 252.636C833.009 252 833.52 251.496 834.164 251.125C834.808 250.754 835.528 250.473 836.324 250.284C837.119 250.095 837.93 249.951 838.755 249.852C839.801 249.731 840.649 249.633 841.301 249.557C841.952 249.473 842.426 249.341 842.721 249.159C843.017 248.977 843.164 248.682 843.164 248.273V248.193C843.164 247.201 842.884 246.432 842.324 245.886C841.77 245.341 840.945 245.068 839.846 245.068C838.702 245.068 837.801 245.322 837.142 245.83C836.49 246.33 836.039 246.886 835.789 247.5L832.596 246.773C832.975 245.712 833.528 244.856 834.255 244.205C834.99 243.545 835.835 243.068 836.789 242.773C837.744 242.47 838.748 242.318 839.801 242.318C840.498 242.318 841.236 242.402 842.017 242.568C842.805 242.727 843.539 243.023 844.221 243.455C844.911 243.886 845.475 244.504 845.914 245.307C846.354 246.102 846.574 247.136 846.574 248.409V260H843.255V257.614H843.119C842.899 258.053 842.57 258.485 842.13 258.909C841.691 259.333 841.127 259.686 840.437 259.966C839.748 260.246 838.922 260.386 837.96 260.386ZM838.699 257.659C839.638 257.659 840.441 257.473 841.108 257.102C841.782 256.731 842.293 256.246 842.642 255.648C842.998 255.042 843.176 254.394 843.176 253.705V251.455C843.055 251.576 842.82 251.689 842.471 251.795C842.13 251.894 841.74 251.981 841.301 252.057C840.861 252.125 840.433 252.189 840.017 252.25C839.6 252.303 839.252 252.348 838.971 252.386C838.312 252.47 837.71 252.61 837.164 252.807C836.627 253.004 836.195 253.288 835.869 253.659C835.551 254.023 835.392 254.508 835.392 255.114C835.392 255.955 835.702 256.591 836.324 257.023C836.945 257.447 837.736 257.659 838.699 257.659ZM850.491 260V242.545H853.775V245.318H853.957C854.275 244.379 854.836 243.64 855.639 243.102C856.449 242.557 857.366 242.284 858.389 242.284C858.601 242.284 858.851 242.292 859.139 242.307C859.434 242.322 859.665 242.341 859.832 242.364V245.614C859.696 245.576 859.453 245.534 859.105 245.489C858.756 245.436 858.408 245.409 858.059 245.409C857.256 245.409 856.54 245.58 855.912 245.92C855.29 246.254 854.798 246.72 854.434 247.318C854.071 247.909 853.889 248.583 853.889 249.341V260H850.491ZM869.062 260.352C867.342 260.352 865.861 259.985 864.619 259.25C863.384 258.508 862.429 257.466 861.755 256.125C861.089 254.777 860.755 253.197 860.755 251.386C860.755 249.598 861.089 248.023 861.755 246.659C862.429 245.295 863.369 244.231 864.573 243.466C865.786 242.701 867.202 242.318 868.823 242.318C869.808 242.318 870.763 242.481 871.687 242.807C872.611 243.133 873.441 243.644 874.176 244.341C874.911 245.038 875.49 245.943 875.914 247.057C876.339 248.163 876.551 249.508 876.551 251.091V252.295H862.676V249.75H873.221C873.221 248.856 873.039 248.064 872.676 247.375C872.312 246.678 871.801 246.129 871.142 245.727C870.49 245.326 869.725 245.125 868.846 245.125C867.892 245.125 867.058 245.36 866.346 245.83C865.642 246.292 865.096 246.898 864.71 247.648C864.331 248.39 864.142 249.197 864.142 250.068V252.057C864.142 253.223 864.346 254.216 864.755 255.034C865.172 255.852 865.751 256.477 866.494 256.909C867.236 257.333 868.104 257.545 869.096 257.545C869.74 257.545 870.327 257.455 870.858 257.273C871.388 257.083 871.846 256.803 872.233 256.432C872.619 256.061 872.914 255.602 873.119 255.057L876.335 255.636C876.077 256.583 875.615 257.413 874.948 258.125C874.289 258.83 873.46 259.379 872.46 259.773C871.467 260.159 870.335 260.352 869.062 260.352Z"
        fill="black" fill-opacity="0.8" />
    <path
        d="M465.5 84C465.5 83.1716 464.828 82.5 464 82.5C463.172 82.5 462.5 83.1716 462.5 84H465.5ZM722.939 205.061C723.525 205.646 724.475 205.646 725.061 205.061L734.607 195.515C735.192 194.929 735.192 193.979 734.607 193.393C734.021 192.808 733.071 192.808 732.485 193.393L724 201.879L715.515 193.393C714.929 192.808 713.979 192.808 713.393 193.393C712.808 193.979 712.808 194.929 713.393 195.515L722.939 205.061ZM462.5 84V120H465.5V84H462.5ZM488 145.5H700V142.5H488V145.5ZM722.5 168V204H725.5V168H722.5ZM700 145.5C712.426 145.5 722.5 155.574 722.5 168H725.5C725.5 153.917 714.083 142.5 700 142.5V145.5ZM462.5 120C462.5 134.083 473.917 145.5 488 145.5V142.5C475.574 142.5 465.5 132.426 465.5 120H462.5Z"
        fill="#B3B3B3" />
    <rect y="384" width="176" height="112" rx="6" fill="#AFF4C6" />
    <path
        d="M46.8737 422.273C46.8737 424.136 46.5328 425.739 45.851 427.08C45.1692 428.415 44.2345 429.443 43.047 430.165C41.8652 430.881 40.5215 431.239 39.0158 431.239C37.5044 431.239 36.155 430.881 34.9675 430.165C33.7857 429.443 32.8538 428.412 32.172 427.071C31.4902 425.73 31.1493 424.131 31.1493 422.273C31.1493 420.409 31.4902 418.81 32.172 417.474C32.8538 416.134 33.7857 415.105 34.9675 414.389C36.155 413.668 37.5044 413.307 39.0158 413.307C40.5215 413.307 41.8652 413.668 43.047 414.389C44.2345 415.105 45.1692 416.134 45.851 417.474C46.5328 418.81 46.8737 420.409 46.8737 422.273ZM44.2658 422.273C44.2658 420.852 44.0357 419.656 43.5754 418.685C43.1209 417.707 42.4959 416.969 41.7004 416.469C40.9107 415.963 40.0158 415.71 39.0158 415.71C38.0101 415.71 37.1124 415.963 36.3226 416.469C35.5328 416.969 34.9078 417.707 34.4476 418.685C33.993 419.656 33.7658 420.852 33.7658 422.273C33.7658 423.693 33.993 424.892 34.4476 425.869C34.9078 426.841 35.5328 427.58 36.3226 428.085C37.1124 428.585 38.0101 428.835 39.0158 428.835C40.0158 428.835 40.9107 428.585 41.7004 428.085C42.4959 427.58 43.1209 426.841 43.5754 425.869C44.0357 424.892 44.2658 423.693 44.2658 422.273ZM49.4966 435.909V417.909H51.9852V420.031H52.1983C52.346 419.759 52.5591 419.443 52.8375 419.085C53.1159 418.727 53.5022 418.415 53.9966 418.148C54.4909 417.875 55.1443 417.739 55.9568 417.739C57.0136 417.739 57.9568 418.006 58.7863 418.54C59.6159 419.074 60.2665 419.844 60.738 420.849C61.2153 421.855 61.454 423.065 61.454 424.48C61.454 425.895 61.2182 427.108 60.7466 428.119C60.275 429.125 59.6272 429.901 58.8034 430.446C57.9795 430.986 57.0392 431.256 55.9824 431.256C55.1869 431.256 54.5363 431.122 54.0307 430.855C53.5307 430.588 53.1386 430.276 52.8545 429.918C52.5704 429.56 52.3517 429.241 52.1983 428.963H52.0449V435.909H49.4966ZM51.9937 424.455C51.9937 425.375 52.1272 426.182 52.3943 426.875C52.6613 427.568 53.0477 428.111 53.5534 428.503C54.0591 428.889 54.6784 429.082 55.4113 429.082C56.1727 429.082 56.8091 428.881 57.3204 428.477C57.8318 428.068 58.2182 427.514 58.4795 426.815C58.7466 426.116 58.8801 425.33 58.8801 424.455C58.8801 423.591 58.7494 422.815 58.488 422.128C58.2324 421.44 57.846 420.898 57.329 420.5C56.8176 420.102 56.1784 419.903 55.4113 419.903C54.6727 419.903 54.0477 420.094 53.5363 420.474C53.0307 420.855 52.6471 421.386 52.3858 422.068C52.1244 422.75 51.9937 423.545 51.9937 424.455ZM69.4951 431.264C68.2053 431.264 67.0945 430.989 66.1627 430.438C65.2366 429.881 64.5207 429.099 64.015 428.094C63.515 427.082 63.265 425.898 63.265 424.54C63.265 423.199 63.515 422.017 64.015 420.994C64.5207 419.972 65.2252 419.173 66.1286 418.599C67.0377 418.026 68.1002 417.739 69.3161 417.739C70.0548 417.739 70.7707 417.861 71.4639 418.105C72.157 418.349 72.7792 418.733 73.3303 419.256C73.8815 419.778 74.3161 420.457 74.6343 421.293C74.9525 422.122 75.1116 423.131 75.1116 424.318V425.222H64.7053V423.312H72.6144C72.6144 422.642 72.4781 422.048 72.2053 421.531C71.9326 421.009 71.5491 420.597 71.0548 420.295C70.5661 419.994 69.9923 419.844 69.3332 419.844C68.6173 419.844 67.9923 420.02 67.4582 420.372C66.9298 420.719 66.5207 421.173 66.2309 421.736C65.9468 422.293 65.8048 422.898 65.8048 423.551V425.043C65.8048 425.918 65.9582 426.662 66.265 427.276C66.5775 427.889 67.0122 428.358 67.569 428.682C68.1258 429 68.7764 429.159 69.5207 429.159C70.0036 429.159 70.444 429.091 70.8417 428.955C71.2394 428.812 71.5832 428.602 71.873 428.324C72.1627 428.045 72.3843 427.702 72.5377 427.293L74.9497 427.727C74.7565 428.437 74.4099 429.06 73.9099 429.594C73.4156 430.122 72.7934 430.534 72.0434 430.83C71.2991 431.119 70.4497 431.264 69.4951 431.264ZM77.483 431V417.909H79.9461V419.989H80.0824C80.3211 419.284 80.7415 418.73 81.3438 418.327C81.9518 417.918 82.6393 417.713 83.4063 417.713C83.5654 417.713 83.7529 417.719 83.9688 417.73C84.1904 417.741 84.3637 417.756 84.4887 417.773V420.21C84.3864 420.182 84.2046 420.151 83.9432 420.116C83.6819 420.077 83.4205 420.057 83.1591 420.057C82.5569 420.057 82.0199 420.185 81.5483 420.44C81.0824 420.69 80.7131 421.04 80.4404 421.489C80.1677 421.932 80.0313 422.437 80.0313 423.006V431H77.483ZM89.9304 431.29C89.1009 431.29 88.3509 431.136 87.6804 430.83C87.01 430.517 86.4787 430.065 86.0867 429.474C85.7003 428.884 85.5071 428.159 85.5071 427.301C85.5071 426.562 85.6492 425.955 85.9333 425.477C86.2173 425 86.6009 424.622 87.0838 424.344C87.5668 424.065 88.1065 423.855 88.7031 423.713C89.2997 423.571 89.9077 423.463 90.527 423.389C91.3111 423.298 91.9475 423.224 92.4361 423.168C92.9247 423.105 93.2798 423.006 93.5014 422.869C93.723 422.733 93.8338 422.511 93.8338 422.205V422.145C93.8338 421.401 93.6236 420.824 93.2031 420.415C92.7884 420.006 92.169 419.801 91.3452 419.801C90.4872 419.801 89.8111 419.991 89.3168 420.372C88.8281 420.747 88.4901 421.165 88.3026 421.625L85.9077 421.08C86.1918 420.284 86.6065 419.642 87.152 419.153C87.7031 418.659 88.3367 418.301 89.0526 418.08C89.7685 417.852 90.5213 417.739 91.3111 417.739C91.8338 417.739 92.3878 417.801 92.973 417.926C93.5639 418.045 94.1151 418.267 94.6264 418.591C95.1435 418.915 95.5668 419.378 95.8963 419.98C96.2259 420.577 96.3906 421.352 96.3906 422.307V431H93.902V429.21H93.7997C93.635 429.54 93.3878 429.864 93.0583 430.182C92.7287 430.5 92.3054 430.764 91.7884 430.974C91.2713 431.185 90.652 431.29 89.9304 431.29ZM90.4844 429.244C91.1889 429.244 91.7912 429.105 92.2912 428.827C92.7969 428.548 93.1804 428.185 93.4418 427.736C93.7088 427.281 93.8423 426.795 93.8423 426.278V424.591C93.7514 424.682 93.5753 424.767 93.3139 424.847C93.0583 424.92 92.7656 424.986 92.4361 425.043C92.1065 425.094 91.7855 425.142 91.473 425.188C91.1605 425.227 90.8992 425.261 90.6889 425.29C90.1946 425.352 89.7429 425.457 89.3338 425.605C88.9304 425.753 88.6065 425.966 88.3622 426.244C88.1236 426.517 88.0043 426.881 88.0043 427.335C88.0043 427.966 88.2372 428.443 88.7031 428.767C89.169 429.085 89.7628 429.244 90.4844 429.244ZM105.44 417.909V419.955H98.289V417.909H105.44ZM100.207 414.773H102.755V427.156C102.755 427.651 102.829 428.023 102.977 428.273C103.124 428.517 103.315 428.685 103.548 428.776C103.786 428.861 104.045 428.903 104.323 428.903C104.528 428.903 104.707 428.889 104.86 428.861C105.013 428.832 105.133 428.81 105.218 428.793L105.678 430.898C105.531 430.955 105.32 431.011 105.048 431.068C104.775 431.131 104.434 431.165 104.025 431.17C103.354 431.182 102.729 431.062 102.15 430.812C101.57 430.562 101.102 430.176 100.744 429.653C100.386 429.131 100.207 428.474 100.207 427.685V414.773ZM107.803 431V417.909H110.351V431H107.803ZM109.089 415.889C108.646 415.889 108.266 415.741 107.947 415.446C107.635 415.145 107.479 414.787 107.479 414.372C107.479 413.952 107.635 413.594 107.947 413.298C108.266 412.997 108.646 412.847 109.089 412.847C109.533 412.847 109.91 412.997 110.223 413.298C110.541 413.594 110.7 413.952 110.7 414.372C110.7 414.787 110.541 415.145 110.223 415.446C109.91 415.741 109.533 415.889 109.089 415.889ZM115.871 423.227V431H113.323V417.909H115.769V420.04H115.931C116.232 419.347 116.704 418.79 117.346 418.369C117.994 417.949 118.809 417.739 119.792 417.739C120.684 417.739 121.465 417.926 122.136 418.301C122.806 418.67 123.326 419.222 123.695 419.955C124.065 420.687 124.249 421.594 124.249 422.673V431H121.701V422.98C121.701 422.031 121.454 421.29 120.959 420.756C120.465 420.216 119.786 419.946 118.923 419.946C118.332 419.946 117.806 420.074 117.346 420.33C116.891 420.585 116.53 420.96 116.263 421.455C116.002 421.943 115.871 422.534 115.871 423.227ZM132.699 436.182C131.66 436.182 130.765 436.045 130.015 435.773C129.27 435.5 128.663 435.139 128.191 434.69C127.719 434.241 127.367 433.75 127.134 433.216L129.324 432.312C129.478 432.562 129.682 432.827 129.938 433.105C130.199 433.389 130.552 433.631 130.995 433.83C131.444 434.028 132.02 434.128 132.725 434.128C133.691 434.128 134.489 433.892 135.12 433.42C135.751 432.955 136.066 432.21 136.066 431.188V428.614H135.904C135.751 428.892 135.529 429.202 135.239 429.543C134.955 429.884 134.563 430.179 134.063 430.429C133.563 430.679 132.913 430.804 132.111 430.804C131.077 430.804 130.145 430.562 129.316 430.08C128.492 429.591 127.839 428.872 127.356 427.923C126.878 426.969 126.64 425.795 126.64 424.403C126.64 423.011 126.876 421.818 127.347 420.824C127.824 419.83 128.478 419.068 129.307 418.54C130.137 418.006 131.077 417.739 132.128 417.739C132.941 417.739 133.597 417.875 134.097 418.148C134.597 418.415 134.986 418.727 135.265 419.085C135.549 419.443 135.768 419.759 135.921 420.031H136.109V417.909H138.606V431.29C138.606 432.415 138.344 433.338 137.822 434.06C137.299 434.781 136.591 435.315 135.699 435.662C134.813 436.009 133.813 436.182 132.699 436.182ZM132.674 428.69C133.407 428.69 134.026 428.52 134.532 428.179C135.043 427.832 135.43 427.338 135.691 426.696C135.958 426.048 136.091 425.273 136.091 424.369C136.091 423.489 135.961 422.713 135.699 422.043C135.438 421.372 135.055 420.849 134.549 420.474C134.043 420.094 133.418 419.903 132.674 419.903C131.907 419.903 131.268 420.102 130.756 420.5C130.245 420.892 129.859 421.426 129.597 422.102C129.341 422.778 129.214 423.534 129.214 424.369C129.214 425.227 129.344 425.98 129.606 426.628C129.867 427.276 130.253 427.781 130.765 428.145C131.282 428.509 131.918 428.69 132.674 428.69ZM57.5814 454.131C57.4905 453.324 57.1155 452.699 56.4564 452.256C55.7973 451.807 54.9678 451.582 53.9678 451.582C53.2519 451.582 52.6325 451.696 52.1098 451.923C51.5871 452.145 51.1808 452.452 50.8911 452.844C50.607 453.23 50.4649 453.67 50.4649 454.165C50.4649 454.58 50.5615 454.937 50.7547 455.239C50.9536 455.54 51.2121 455.793 51.5303 455.997C51.8541 456.196 52.2007 456.364 52.57 456.5C52.9394 456.631 53.2945 456.739 53.6354 456.824L55.3399 457.267C55.8967 457.403 56.4678 457.588 57.053 457.821C57.6382 458.054 58.1808 458.361 58.6808 458.741C59.1808 459.122 59.5842 459.594 59.8911 460.156C60.2036 460.719 60.3598 461.392 60.3598 462.176C60.3598 463.165 60.1041 464.043 59.5928 464.81C59.0871 465.577 58.3513 466.182 57.3854 466.625C56.4252 467.068 55.2632 467.29 53.8996 467.29C52.5928 467.29 51.4621 467.082 50.5075 466.668C49.553 466.253 48.8058 465.665 48.2661 464.903C47.7263 464.136 47.428 463.227 47.3712 462.176H50.0132C50.0644 462.807 50.2689 463.332 50.6269 463.753C50.9905 464.168 51.4536 464.477 52.0161 464.682C52.5842 464.881 53.2064 464.98 53.8825 464.98C54.6269 464.98 55.2888 464.864 55.8683 464.631C56.4536 464.392 56.9138 464.062 57.249 463.642C57.5842 463.216 57.7519 462.719 57.7519 462.151C57.7519 461.634 57.6041 461.21 57.3087 460.881C57.0189 460.551 56.624 460.278 56.124 460.062C55.6297 459.847 55.07 459.656 54.445 459.491L52.3825 458.929C50.9848 458.548 49.8769 457.989 49.0587 457.25C48.2462 456.511 47.8399 455.534 47.8399 454.318C47.8399 453.312 48.1127 452.435 48.6581 451.685C49.2036 450.935 49.9422 450.352 50.874 449.938C51.8058 449.517 52.857 449.307 54.0274 449.307C55.2092 449.307 56.2519 449.514 57.1553 449.929C58.0644 450.344 58.7803 450.915 59.303 451.642C59.8257 452.364 60.0985 453.193 60.1212 454.131H57.5814ZM64.4571 471.909C64.0764 471.909 63.7298 471.878 63.4173 471.815C63.1048 471.759 62.8719 471.696 62.7184 471.628L63.3321 469.54C63.798 469.665 64.2128 469.719 64.5764 469.702C64.94 469.685 65.2611 469.548 65.5395 469.293C65.8236 469.037 66.0736 468.619 66.2895 468.04L66.6048 467.17L61.815 453.909H64.5423L67.8576 464.068H67.994L71.3094 453.909H74.0451L68.6503 468.747C68.4003 469.429 68.0821 470.006 67.6957 470.477C67.3094 470.955 66.8491 471.313 66.315 471.551C65.7809 471.79 65.1616 471.909 64.4571 471.909ZM85.7937 457.105L83.484 457.514C83.3874 457.219 83.234 456.937 83.0238 456.67C82.8193 456.403 82.5409 456.185 82.1886 456.014C81.8363 455.844 81.396 455.759 80.8676 455.759C80.146 455.759 79.5437 455.92 79.0607 456.244C78.5778 456.562 78.3363 456.974 78.3363 457.48C78.3363 457.918 78.4982 458.27 78.8221 458.537C79.146 458.804 79.6687 459.023 80.3903 459.193L82.4698 459.67C83.6744 459.949 84.5721 460.378 85.163 460.957C85.7539 461.537 86.0494 462.29 86.0494 463.216C86.0494 464 85.8221 464.699 85.3676 465.312C84.9187 465.92 84.2909 466.398 83.484 466.744C82.6829 467.091 81.7539 467.264 80.6971 467.264C79.2312 467.264 78.0352 466.952 77.109 466.327C76.1829 465.696 75.6147 464.801 75.4045 463.642L77.8676 463.267C78.021 463.909 78.3363 464.395 78.8136 464.724C79.2909 465.048 79.913 465.21 80.6801 465.21C81.5153 465.21 82.1829 465.037 82.6829 464.69C83.1829 464.338 83.4329 463.909 83.4329 463.403C83.4329 462.994 83.2795 462.651 82.9727 462.372C82.6715 462.094 82.2085 461.884 81.5835 461.741L79.3676 461.256C78.146 460.977 77.2426 460.534 76.6573 459.926C76.0778 459.318 75.788 458.548 75.788 457.616C75.788 456.844 76.0039 456.168 76.4357 455.588C76.8676 455.009 77.4641 454.557 78.2255 454.233C78.9869 453.903 79.859 453.739 80.842 453.739C82.2568 453.739 83.3704 454.045 84.1829 454.659C84.9954 455.267 85.5323 456.082 85.7937 457.105ZM94.506 453.909V455.955H87.3555V453.909H94.506ZM89.2731 450.773H91.8214V463.156C91.8214 463.651 91.8952 464.023 92.043 464.273C92.1907 464.517 92.381 464.685 92.614 464.776C92.8526 464.861 93.1111 464.903 93.3895 464.903C93.5941 464.903 93.7731 464.889 93.9265 464.861C94.0799 464.832 94.1992 464.81 94.2844 464.793L94.7447 466.898C94.5969 466.955 94.3867 467.011 94.114 467.068C93.8413 467.131 93.5003 467.165 93.0913 467.17C92.4208 467.182 91.7958 467.062 91.2163 466.812C90.6367 466.562 90.168 466.176 89.81 465.653C89.452 465.131 89.2731 464.474 89.2731 463.685V450.773ZM102.37 467.264C101.081 467.264 99.9698 466.989 99.0379 466.438C98.1118 465.881 97.3959 465.099 96.8902 464.094C96.3902 463.082 96.1402 461.898 96.1402 460.54C96.1402 459.199 96.3902 458.017 96.8902 456.994C97.3959 455.972 98.1004 455.173 99.0038 454.599C99.9129 454.026 100.975 453.739 102.191 453.739C102.93 453.739 103.646 453.861 104.339 454.105C105.032 454.349 105.654 454.733 106.206 455.256C106.757 455.778 107.191 456.457 107.51 457.293C107.828 458.122 107.987 459.131 107.987 460.318V461.222H97.5806V459.312H105.49C105.49 458.642 105.353 458.048 105.081 457.531C104.808 457.009 104.424 456.597 103.93 456.295C103.441 455.994 102.867 455.844 102.208 455.844C101.492 455.844 100.867 456.02 100.333 456.372C99.805 456.719 99.3959 457.173 99.1061 457.736C98.822 458.293 98.68 458.898 98.68 459.551V461.043C98.68 461.918 98.8334 462.662 99.1402 463.276C99.4527 463.889 99.8874 464.358 100.444 464.682C101.001 465 101.652 465.159 102.396 465.159C102.879 465.159 103.319 465.091 103.717 464.955C104.115 464.812 104.458 464.602 104.748 464.324C105.038 464.045 105.26 463.702 105.413 463.293L107.825 463.727C107.632 464.437 107.285 465.06 106.785 465.594C106.291 466.122 105.669 466.534 104.919 466.83C104.174 467.119 103.325 467.264 102.37 467.264ZM110.358 467V453.909H112.804V456.04H112.966C113.239 455.318 113.685 454.756 114.304 454.352C114.924 453.943 115.665 453.739 116.529 453.739C117.404 453.739 118.137 453.943 118.728 454.352C119.324 454.761 119.764 455.324 120.049 456.04H120.185C120.497 455.341 120.995 454.784 121.676 454.369C122.358 453.949 123.171 453.739 124.114 453.739C125.301 453.739 126.27 454.111 127.02 454.855C127.776 455.599 128.154 456.722 128.154 458.222V467H125.605V458.46C125.605 457.574 125.364 456.932 124.881 456.534C124.398 456.136 123.821 455.938 123.151 455.938C122.321 455.938 121.676 456.193 121.216 456.705C120.756 457.21 120.526 457.861 120.526 458.656V467H117.986V458.298C117.986 457.588 117.764 457.017 117.321 456.585C116.878 456.153 116.301 455.938 115.591 455.938C115.108 455.938 114.662 456.065 114.253 456.321C113.85 456.571 113.523 456.92 113.273 457.369C113.029 457.818 112.907 458.338 112.907 458.929V467H110.358Z"
        fill="black" fill-opacity="0.8" />
    <rect x="232" y="384" width="176" height="112" rx="6" fill="#AFF4C6" />
    <path
        d="M300.971 431.545H303.613V443.026C303.613 444.247 303.326 445.33 302.752 446.273C302.178 447.21 301.372 447.949 300.332 448.489C299.292 449.023 298.073 449.29 296.676 449.29C295.283 449.29 294.068 449.023 293.028 448.489C291.988 447.949 291.181 447.21 290.607 446.273C290.033 445.33 289.747 444.247 289.747 443.026V431.545H292.38V442.812C292.38 443.602 292.553 444.304 292.9 444.918C293.252 445.531 293.749 446.014 294.391 446.366C295.033 446.713 295.795 446.886 296.676 446.886C297.562 446.886 298.326 446.713 298.968 446.366C299.616 446.014 300.11 445.531 300.451 444.918C300.798 444.304 300.971 443.602 300.971 442.812V431.545ZM312.892 435.909V437.955H305.742V435.909H312.892ZM307.659 432.773H310.207V445.156C310.207 445.651 310.281 446.023 310.429 446.273C310.577 446.517 310.767 446.685 311 446.776C311.239 446.861 311.497 446.903 311.776 446.903C311.98 446.903 312.159 446.889 312.313 446.861C312.466 446.832 312.585 446.81 312.671 446.793L313.131 448.898C312.983 448.955 312.773 449.011 312.5 449.068C312.227 449.131 311.886 449.165 311.477 449.17C310.807 449.182 310.182 449.062 309.602 448.812C309.023 448.562 308.554 448.176 308.196 447.653C307.838 447.131 307.659 446.474 307.659 445.685V432.773ZM315.255 449V435.909H317.803V449H315.255ZM316.542 433.889C316.099 433.889 315.718 433.741 315.4 433.446C315.087 433.145 314.931 432.787 314.931 432.372C314.931 431.952 315.087 431.594 315.4 431.298C315.718 430.997 316.099 430.847 316.542 430.847C316.985 430.847 317.363 430.997 317.675 431.298C317.994 431.594 318.153 431.952 318.153 432.372C318.153 432.787 317.994 433.145 317.675 433.446C317.363 433.741 316.985 433.889 316.542 433.889ZM323.324 431.545V449H320.776V431.545H323.324ZM326.296 449V435.909H328.844V449H326.296ZM327.583 433.889C327.14 433.889 326.759 433.741 326.441 433.446C326.129 433.145 325.972 432.787 325.972 432.372C325.972 431.952 326.129 431.594 326.441 431.298C326.759 430.997 327.14 430.847 327.583 430.847C328.026 430.847 328.404 430.997 328.717 431.298C329.035 431.594 329.194 431.952 329.194 432.372C329.194 432.787 329.035 433.145 328.717 433.446C328.404 433.741 328.026 433.889 327.583 433.889ZM337.927 435.909V437.955H330.777V435.909H337.927ZM332.695 432.773H335.243V445.156C335.243 445.651 335.317 446.023 335.464 446.273C335.612 446.517 335.802 446.685 336.035 446.776C336.274 446.861 336.533 446.903 336.811 446.903C337.016 446.903 337.195 446.889 337.348 446.861C337.501 446.832 337.621 446.81 337.706 446.793L338.166 448.898C338.018 448.955 337.808 449.011 337.535 449.068C337.263 449.131 336.922 449.165 336.513 449.17C335.842 449.182 335.217 449.062 334.638 448.812C334.058 448.562 333.589 448.176 333.231 447.653C332.874 447.131 332.695 446.474 332.695 445.685V432.773ZM341.901 453.909C341.52 453.909 341.174 453.878 340.861 453.815C340.549 453.759 340.316 453.696 340.163 453.628L340.776 451.54C341.242 451.665 341.657 451.719 342.02 451.702C342.384 451.685 342.705 451.548 342.984 451.293C343.268 451.037 343.518 450.619 343.734 450.04L344.049 449.17L339.259 435.909H341.986L345.302 446.068H345.438L348.753 435.909H351.489L346.094 450.747C345.844 451.429 345.526 452.006 345.14 452.477C344.753 452.955 344.293 453.313 343.759 453.551C343.225 453.79 342.606 453.909 341.901 453.909Z"
        fill="black" fill-opacity="0.8" />
    <path
        d="M205.5 292C205.5 291.172 204.828 290.5 204 290.5C203.172 290.5 202.5 291.172 202.5 292H205.5ZM86.9393 381.061C87.5251 381.646 88.4749 381.646 89.0607 381.061L98.6066 371.515C99.1924 370.929 99.1924 369.979 98.6066 369.393C98.0208 368.808 97.0711 368.808 96.4853 369.393L88 377.879L79.5147 369.393C78.9289 368.808 77.9792 368.808 77.3934 369.393C76.8076 369.979 76.8076 370.929 77.3934 371.515L86.9393 381.061ZM202.5 292V312H205.5V292H202.5ZM180 334.5H112V337.5H180V334.5ZM86.5 360V380H89.5V360H86.5ZM112 334.5C97.9167 334.5 86.5 345.917 86.5 360H89.5C89.5 347.574 99.5736 337.5 112 337.5V334.5ZM202.5 312C202.5 324.426 192.426 334.5 180 334.5V337.5C194.083 337.5 205.5 326.083 205.5 312H202.5Z"
        fill="#B3B3B3" />
    <path
        d="M205.5 292C205.5 291.172 204.828 290.5 204 290.5C203.172 290.5 202.5 291.172 202.5 292H205.5ZM318.939 381.061C319.525 381.646 320.475 381.646 321.061 381.061L330.607 371.515C331.192 370.929 331.192 369.979 330.607 369.393C330.021 368.808 329.071 368.808 328.485 369.393L320 377.879L311.515 369.393C310.929 368.808 309.979 368.808 309.393 369.393C308.808 369.979 308.808 370.929 309.393 371.515L318.939 381.061ZM202.5 292V312H205.5V292H202.5ZM228 337.5H296V334.5H228V337.5ZM318.5 360V380H321.5V360H318.5ZM296 337.5C308.426 337.5 318.5 347.574 318.5 360H321.5C321.5 345.917 310.083 334.5 296 334.5V337.5ZM202.5 312C202.5 326.083 213.917 337.5 228 337.5V334.5C215.574 334.5 205.5 324.426 205.5 312H202.5Z"
        fill="#B3B3B3" />
    <rect x="520" y="384" width="204" height="112" rx="6" fill="#AFF4C6" />
    <path
        d="M589.537 419.06C589.372 418.543 589.151 418.08 588.872 417.67C588.6 417.256 588.273 416.903 587.892 416.614C587.511 416.318 587.077 416.094 586.588 415.94C586.105 415.787 585.574 415.71 584.994 415.71C584.011 415.71 583.125 415.963 582.335 416.469C581.546 416.974 580.921 417.716 580.46 418.693C580.006 419.665 579.779 420.855 579.779 422.264C579.779 423.679 580.009 424.875 580.469 425.852C580.929 426.83 581.56 427.571 582.361 428.077C583.162 428.582 584.074 428.835 585.097 428.835C586.046 428.835 586.872 428.642 587.577 428.256C588.287 427.869 588.835 427.324 589.222 426.619C589.614 425.909 589.81 425.074 589.81 424.114L590.492 424.241H585.497V422.068H592.358V424.054C592.358 425.52 592.046 426.793 591.421 427.872C590.801 428.946 589.943 429.776 588.847 430.361C587.756 430.946 586.506 431.239 585.097 431.239C583.517 431.239 582.131 430.875 580.938 430.148C579.75 429.42 578.824 428.389 578.159 427.054C577.494 425.713 577.162 424.122 577.162 422.281C577.162 420.889 577.355 419.639 577.742 418.531C578.128 417.423 578.671 416.483 579.369 415.71C580.074 414.932 580.901 414.338 581.85 413.929C582.804 413.514 583.847 413.307 584.977 413.307C585.921 413.307 586.798 413.446 587.611 413.724C588.429 414.003 589.156 414.398 589.793 414.909C590.435 415.42 590.966 416.028 591.386 416.733C591.807 417.432 592.091 418.207 592.239 419.06H589.537ZM600.683 431.264C599.393 431.264 598.282 430.989 597.35 430.438C596.424 429.881 595.708 429.099 595.202 428.094C594.702 427.082 594.452 425.898 594.452 424.54C594.452 423.199 594.702 422.017 595.202 420.994C595.708 419.972 596.413 419.173 597.316 418.599C598.225 418.026 599.288 417.739 600.504 417.739C601.242 417.739 601.958 417.861 602.651 418.105C603.345 418.349 603.967 418.733 604.518 419.256C605.069 419.778 605.504 420.457 605.822 421.293C606.14 422.122 606.299 423.131 606.299 424.318V425.222H595.893V423.312H603.802C603.802 422.642 603.666 422.048 603.393 421.531C603.12 421.009 602.737 420.597 602.242 420.295C601.754 419.994 601.18 419.844 600.521 419.844C599.805 419.844 599.18 420.02 598.646 420.372C598.117 420.719 597.708 421.173 597.418 421.736C597.134 422.293 596.992 422.898 596.992 423.551V425.043C596.992 425.918 597.146 426.662 597.452 427.276C597.765 427.889 598.2 428.358 598.756 428.682C599.313 429 599.964 429.159 600.708 429.159C601.191 429.159 601.631 429.091 602.029 428.955C602.427 428.812 602.771 428.602 603.06 428.324C603.35 428.045 603.572 427.702 603.725 427.293L606.137 427.727C605.944 428.437 605.597 429.06 605.097 429.594C604.603 430.122 603.981 430.534 603.231 430.83C602.487 431.119 601.637 431.264 600.683 431.264ZM611.219 423.227V431H608.671V417.909H611.117V420.04H611.278C611.58 419.347 612.051 418.79 612.693 418.369C613.341 417.949 614.156 417.739 615.139 417.739C616.031 417.739 616.813 417.926 617.483 418.301C618.153 418.67 618.673 419.222 619.043 419.955C619.412 420.687 619.597 421.594 619.597 422.673V431H617.048V422.98C617.048 422.031 616.801 421.29 616.307 420.756C615.813 420.216 615.134 419.946 614.27 419.946C613.679 419.946 613.153 420.074 612.693 420.33C612.239 420.585 611.878 420.96 611.611 421.455C611.349 421.943 611.219 422.534 611.219 423.227ZM628.2 431.264C626.911 431.264 625.8 430.989 624.868 430.438C623.942 429.881 623.226 429.099 622.72 428.094C622.22 427.082 621.97 425.898 621.97 424.54C621.97 423.199 622.22 422.017 622.72 420.994C623.226 419.972 623.93 419.173 624.834 418.599C625.743 418.026 626.805 417.739 628.021 417.739C628.76 417.739 629.476 417.861 630.169 418.105C630.862 418.349 631.484 418.733 632.036 419.256C632.587 419.778 633.021 420.457 633.34 421.293C633.658 422.122 633.817 423.131 633.817 424.318V425.222H623.411V423.312H631.32C631.32 422.642 631.183 422.048 630.911 421.531C630.638 421.009 630.254 420.597 629.76 420.295C629.271 419.994 628.697 419.844 628.038 419.844C627.322 419.844 626.697 420.02 626.163 420.372C625.635 420.719 625.226 421.173 624.936 421.736C624.652 422.293 624.51 422.898 624.51 423.551V425.043C624.51 425.918 624.663 426.662 624.97 427.276C625.283 427.889 625.717 428.358 626.274 428.682C626.831 429 627.482 429.159 628.226 429.159C628.709 429.159 629.149 429.091 629.547 428.955C629.945 428.812 630.288 428.602 630.578 428.324C630.868 428.045 631.09 427.702 631.243 427.293L633.655 427.727C633.462 428.437 633.115 429.06 632.615 429.594C632.121 430.122 631.499 430.534 630.749 430.83C630.004 431.119 629.155 431.264 628.2 431.264ZM636.188 431V417.909H638.651V419.989H638.788C639.026 419.284 639.447 418.73 640.049 418.327C640.657 417.918 641.344 417.713 642.111 417.713C642.271 417.713 642.458 417.719 642.674 417.73C642.896 417.741 643.069 417.756 643.194 417.773V420.21C643.092 420.182 642.91 420.151 642.648 420.116C642.387 420.077 642.126 420.057 641.864 420.057C641.262 420.057 640.725 420.185 640.254 420.44C639.788 420.69 639.418 421.04 639.146 421.489C638.873 421.932 638.736 422.437 638.736 423.006V431H636.188ZM648.636 431.29C647.806 431.29 647.056 431.136 646.386 430.83C645.715 430.517 645.184 430.065 644.792 429.474C644.405 428.884 644.212 428.159 644.212 427.301C644.212 426.562 644.354 425.955 644.638 425.477C644.923 425 645.306 424.622 645.789 424.344C646.272 424.065 646.812 423.855 647.408 423.713C648.005 423.571 648.613 423.463 649.232 423.389C650.016 423.298 650.653 423.224 651.141 423.168C651.63 423.105 651.985 423.006 652.207 422.869C652.428 422.733 652.539 422.511 652.539 422.205V422.145C652.539 421.401 652.329 420.824 651.908 420.415C651.494 420.006 650.874 419.801 650.05 419.801C649.192 419.801 648.516 419.991 648.022 420.372C647.533 420.747 647.195 421.165 647.008 421.625L644.613 421.08C644.897 420.284 645.312 419.642 645.857 419.153C646.408 418.659 647.042 418.301 647.758 418.08C648.474 417.852 649.227 417.739 650.016 417.739C650.539 417.739 651.093 417.801 651.678 417.926C652.269 418.045 652.82 418.267 653.332 418.591C653.849 418.915 654.272 419.378 654.602 419.98C654.931 420.577 655.096 421.352 655.096 422.307V431H652.607V429.21H652.505C652.34 429.54 652.093 429.864 651.763 430.182C651.434 430.5 651.011 430.764 650.494 430.974C649.977 431.185 649.357 431.29 648.636 431.29ZM649.19 429.244C649.894 429.244 650.496 429.105 650.996 428.827C651.502 428.548 651.886 428.185 652.147 427.736C652.414 427.281 652.548 426.795 652.548 426.278V424.591C652.457 424.682 652.28 424.767 652.019 424.847C651.763 424.92 651.471 424.986 651.141 425.043C650.812 425.094 650.491 425.142 650.178 425.188C649.866 425.227 649.604 425.261 649.394 425.29C648.9 425.352 648.448 425.457 648.039 425.605C647.636 425.753 647.312 425.966 647.067 426.244C646.829 426.517 646.709 426.881 646.709 427.335C646.709 427.966 646.942 428.443 647.408 428.767C647.874 429.085 648.468 429.244 649.19 429.244ZM660.582 413.545V431H658.034V413.545H660.582ZM577.754 467V449.545H583.976C585.334 449.545 586.459 449.793 587.351 450.287C588.243 450.781 588.911 451.457 589.354 452.315C589.797 453.168 590.019 454.128 590.019 455.196C590.019 456.27 589.794 457.236 589.345 458.094C588.902 458.946 588.232 459.622 587.334 460.122C586.442 460.616 585.32 460.864 583.967 460.864H579.689V458.631H583.729C584.587 458.631 585.283 458.483 585.817 458.188C586.351 457.886 586.743 457.477 586.993 456.96C587.243 456.443 587.368 455.855 587.368 455.196C587.368 454.537 587.243 453.952 586.993 453.44C586.743 452.929 586.348 452.528 585.808 452.239C585.274 451.949 584.57 451.804 583.695 451.804H580.388V467H577.754ZM600.738 461.571V453.909H603.295V467H600.789V464.733H600.653C600.352 465.432 599.869 466.014 599.204 466.48C598.545 466.94 597.724 467.17 596.741 467.17C595.9 467.17 595.156 466.986 594.508 466.616C593.866 466.241 593.36 465.688 592.991 464.955C592.627 464.222 592.445 463.315 592.445 462.236V453.909H594.994V461.929C594.994 462.821 595.241 463.531 595.735 464.06C596.229 464.588 596.872 464.852 597.661 464.852C598.139 464.852 598.613 464.733 599.085 464.494C599.562 464.256 599.957 463.895 600.269 463.412C600.587 462.929 600.744 462.315 600.738 461.571ZM606.263 467V453.909H608.726V455.989H608.862C609.101 455.284 609.521 454.73 610.124 454.327C610.732 453.918 611.419 453.713 612.186 453.713C612.345 453.713 612.533 453.719 612.749 453.73C612.97 453.741 613.144 453.756 613.269 453.773V456.21C613.166 456.182 612.984 456.151 612.723 456.116C612.462 456.077 612.2 456.057 611.939 456.057C611.337 456.057 610.8 456.185 610.328 456.44C609.862 456.69 609.493 457.04 609.22 457.489C608.947 457.932 608.811 458.437 608.811 459.006V467H606.263ZM615.018 471.909V453.909H617.506V456.031H617.719C617.867 455.759 618.08 455.443 618.359 455.085C618.637 454.727 619.023 454.415 619.518 454.148C620.012 453.875 620.665 453.739 621.478 453.739C622.535 453.739 623.478 454.006 624.308 454.54C625.137 455.074 625.788 455.844 626.259 456.849C626.737 457.855 626.975 459.065 626.975 460.48C626.975 461.895 626.739 463.108 626.268 464.119C625.796 465.125 625.148 465.901 624.325 466.446C623.501 466.986 622.56 467.256 621.504 467.256C620.708 467.256 620.058 467.122 619.552 466.855C619.052 466.588 618.66 466.276 618.376 465.918C618.092 465.56 617.873 465.241 617.719 464.963H617.566V471.909H615.018ZM617.515 460.455C617.515 461.375 617.648 462.182 617.915 462.875C618.183 463.568 618.569 464.111 619.075 464.503C619.58 464.889 620.2 465.082 620.933 465.082C621.694 465.082 622.33 464.881 622.842 464.477C623.353 464.068 623.739 463.514 624.001 462.815C624.268 462.116 624.401 461.33 624.401 460.455C624.401 459.591 624.271 458.815 624.009 458.128C623.754 457.44 623.367 456.898 622.85 456.5C622.339 456.102 621.7 455.903 620.933 455.903C620.194 455.903 619.569 456.094 619.058 456.474C618.552 456.855 618.168 457.386 617.907 458.068C617.646 458.75 617.515 459.545 617.515 460.455ZM634.888 467.264C633.661 467.264 632.59 466.983 631.675 466.42C630.761 465.858 630.05 465.071 629.545 464.06C629.039 463.048 628.786 461.866 628.786 460.514C628.786 459.156 629.039 457.969 629.545 456.952C630.05 455.935 630.761 455.145 631.675 454.582C632.59 454.02 633.661 453.739 634.888 453.739C636.116 453.739 637.187 454.02 638.102 454.582C639.016 455.145 639.727 455.935 640.232 456.952C640.738 457.969 640.991 459.156 640.991 460.514C640.991 461.866 640.738 463.048 640.232 464.06C639.727 465.071 639.016 465.858 638.102 466.42C637.187 466.983 636.116 467.264 634.888 467.264ZM634.897 465.125C635.692 465.125 636.352 464.915 636.874 464.494C637.397 464.074 637.783 463.514 638.033 462.815C638.289 462.116 638.417 461.347 638.417 460.506C638.417 459.67 638.289 458.903 638.033 458.205C637.783 457.5 637.397 456.935 636.874 456.509C636.352 456.082 635.692 455.869 634.897 455.869C634.096 455.869 633.431 456.082 632.903 456.509C632.38 456.935 631.991 457.5 631.735 458.205C631.485 458.903 631.36 459.67 631.36 460.506C631.36 461.347 631.485 462.116 631.735 462.815C631.991 463.514 632.38 464.074 632.903 464.494C633.431 464.915 634.096 465.125 634.897 465.125ZM653.189 457.105L650.879 457.514C650.783 457.219 650.629 456.937 650.419 456.67C650.214 456.403 649.936 456.185 649.584 456.014C649.231 455.844 648.791 455.759 648.263 455.759C647.541 455.759 646.939 455.92 646.456 456.244C645.973 456.562 645.731 456.974 645.731 457.48C645.731 457.918 645.893 458.27 646.217 458.537C646.541 458.804 647.064 459.023 647.785 459.193L649.865 459.67C651.07 459.949 651.967 460.378 652.558 460.957C653.149 461.537 653.445 462.29 653.445 463.216C653.445 464 653.217 464.699 652.763 465.312C652.314 465.92 651.686 466.398 650.879 466.744C650.078 467.091 649.149 467.264 648.092 467.264C646.626 467.264 645.43 466.952 644.504 466.327C643.578 465.696 643.01 464.801 642.8 463.642L645.263 463.267C645.416 463.909 645.731 464.395 646.209 464.724C646.686 465.048 647.308 465.21 648.075 465.21C648.91 465.21 649.578 465.037 650.078 464.69C650.578 464.338 650.828 463.909 650.828 463.403C650.828 462.994 650.675 462.651 650.368 462.372C650.067 462.094 649.604 461.884 648.979 461.741L646.763 461.256C645.541 460.977 644.638 460.534 644.052 459.926C643.473 459.318 643.183 458.548 643.183 457.616C643.183 456.844 643.399 456.168 643.831 455.588C644.263 455.009 644.859 454.557 645.621 454.233C646.382 453.903 647.254 453.739 648.237 453.739C649.652 453.739 650.766 454.045 651.578 454.659C652.391 455.267 652.927 456.082 653.189 457.105ZM661.432 467.264C660.143 467.264 659.032 466.989 658.1 466.438C657.174 465.881 656.458 465.099 655.952 464.094C655.452 463.082 655.202 461.898 655.202 460.54C655.202 459.199 655.452 458.017 655.952 456.994C656.458 455.972 657.163 455.173 658.066 454.599C658.975 454.026 660.038 453.739 661.253 453.739C661.992 453.739 662.708 453.861 663.401 454.105C664.094 454.349 664.717 454.733 665.268 455.256C665.819 455.778 666.253 456.457 666.572 457.293C666.89 458.122 667.049 459.131 667.049 460.318V461.222H656.643V459.312H664.552C664.552 458.642 664.415 458.048 664.143 457.531C663.87 457.009 663.486 456.597 662.992 456.295C662.503 455.994 661.93 455.844 661.27 455.844C660.555 455.844 659.93 456.02 659.395 456.372C658.867 456.719 658.458 457.173 658.168 457.736C657.884 458.293 657.742 458.898 657.742 459.551V461.043C657.742 461.918 657.895 462.662 658.202 463.276C658.515 463.889 658.949 464.358 659.506 464.682C660.063 465 660.714 465.159 661.458 465.159C661.941 465.159 662.381 465.091 662.779 464.955C663.177 464.812 663.52 464.602 663.81 464.324C664.1 464.045 664.322 463.702 664.475 463.293L666.887 463.727C666.694 464.437 666.347 465.06 665.847 465.594C665.353 466.122 664.731 466.534 663.981 466.83C663.236 467.119 662.387 467.264 661.432 467.264Z"
        fill="black" fill-opacity="0.8" />
    <path
        d="M725.5 292C725.5 291.172 724.828 290.5 724 290.5C723.172 290.5 722.5 291.172 722.5 292H725.5ZM620.939 381.061C621.525 381.646 622.475 381.646 623.061 381.061L632.607 371.515C633.192 370.929 633.192 369.979 632.607 369.393C632.021 368.808 631.071 368.808 630.485 369.393L622 377.879L613.515 369.393C612.929 368.808 611.979 368.808 611.393 369.393C610.808 369.979 610.808 370.929 611.393 371.515L620.939 381.061ZM722.5 292V312H725.5V292H722.5ZM700 334.5H646V337.5H700V334.5ZM620.5 360V380H623.5V360H620.5ZM646 334.5C631.917 334.5 620.5 345.917 620.5 360H623.5C623.5 347.574 633.574 337.5 646 337.5V334.5ZM722.5 312C722.5 324.426 712.426 334.5 700 334.5V337.5C714.083 337.5 725.5 326.083 725.5 312H722.5Z"
        fill="#B3B3B3" />
    <rect x="752" y="384" width="176" height="112" rx="6" fill="#AFF4C6" />
    <path
        d="M808.069 418.131C807.978 417.324 807.603 416.699 806.944 416.256C806.285 415.807 805.455 415.582 804.455 415.582C803.739 415.582 803.12 415.696 802.597 415.923C802.074 416.145 801.668 416.452 801.378 416.844C801.094 417.23 800.952 417.67 800.952 418.165C800.952 418.58 801.049 418.937 801.242 419.239C801.441 419.54 801.699 419.793 802.018 419.997C802.341 420.196 802.688 420.364 803.057 420.5C803.427 420.631 803.782 420.739 804.123 420.824L805.827 421.267C806.384 421.403 806.955 421.588 807.54 421.821C808.125 422.054 808.668 422.361 809.168 422.741C809.668 423.122 810.071 423.594 810.378 424.156C810.691 424.719 810.847 425.392 810.847 426.176C810.847 427.165 810.591 428.043 810.08 428.81C809.574 429.577 808.839 430.182 807.873 430.625C806.912 431.068 805.75 431.29 804.387 431.29C803.08 431.29 801.949 431.082 800.995 430.668C800.04 430.253 799.293 429.665 798.753 428.903C798.214 428.136 797.915 427.227 797.858 426.176H800.5C800.552 426.807 800.756 427.332 801.114 427.753C801.478 428.168 801.941 428.477 802.503 428.682C803.071 428.881 803.694 428.98 804.37 428.98C805.114 428.98 805.776 428.864 806.356 428.631C806.941 428.392 807.401 428.062 807.736 427.642C808.071 427.216 808.239 426.719 808.239 426.151C808.239 425.634 808.091 425.21 807.796 424.881C807.506 424.551 807.111 424.278 806.611 424.062C806.117 423.847 805.557 423.656 804.932 423.491L802.87 422.929C801.472 422.548 800.364 421.989 799.546 421.25C798.733 420.511 798.327 419.534 798.327 418.318C798.327 417.312 798.6 416.435 799.145 415.685C799.691 414.935 800.429 414.352 801.361 413.938C802.293 413.517 803.344 413.307 804.515 413.307C805.696 413.307 806.739 413.514 807.643 413.929C808.552 414.344 809.268 414.915 809.79 415.642C810.313 416.364 810.586 417.193 810.608 418.131H808.069ZM813.334 435.909V417.909H815.822V420.031H816.035C816.183 419.759 816.396 419.443 816.674 419.085C816.953 418.727 817.339 418.415 817.834 418.148C818.328 417.875 818.981 417.739 819.794 417.739C820.851 417.739 821.794 418.006 822.623 418.54C823.453 419.074 824.103 419.844 824.575 420.849C825.052 421.855 825.291 423.065 825.291 424.48C825.291 425.895 825.055 427.108 824.584 428.119C824.112 429.125 823.464 429.901 822.64 430.446C821.816 430.986 820.876 431.256 819.819 431.256C819.024 431.256 818.373 431.122 817.868 430.855C817.368 430.588 816.976 430.276 816.691 429.918C816.407 429.56 816.189 429.241 816.035 428.963H815.882V435.909H813.334ZM815.831 424.455C815.831 425.375 815.964 426.182 816.231 426.875C816.498 427.568 816.885 428.111 817.39 428.503C817.896 428.889 818.515 429.082 819.248 429.082C820.01 429.082 820.646 428.881 821.157 428.477C821.669 428.068 822.055 427.514 822.316 426.815C822.584 426.116 822.717 425.33 822.717 424.455C822.717 423.591 822.586 422.815 822.325 422.128C822.069 421.44 821.683 420.898 821.166 420.5C820.655 420.102 820.015 419.903 819.248 419.903C818.51 419.903 817.885 420.094 817.373 420.474C816.868 420.855 816.484 421.386 816.223 422.068C815.961 422.75 815.831 423.545 815.831 424.455ZM833.332 431.264C832.042 431.264 830.932 430.989 830 430.438C829.074 429.881 828.358 429.099 827.852 428.094C827.352 427.082 827.102 425.898 827.102 424.54C827.102 423.199 827.352 422.017 827.852 420.994C828.358 419.972 829.062 419.173 829.966 418.599C830.875 418.026 831.937 417.739 833.153 417.739C833.892 417.739 834.608 417.861 835.301 418.105C835.994 418.349 836.616 418.733 837.167 419.256C837.718 419.778 838.153 420.457 838.471 421.293C838.789 422.122 838.949 423.131 838.949 424.318V425.222H828.542V423.312H836.451C836.451 422.642 836.315 422.048 836.042 421.531C835.77 421.009 835.386 420.597 834.892 420.295C834.403 419.994 833.829 419.844 833.17 419.844C832.454 419.844 831.829 420.02 831.295 420.372C830.767 420.719 830.358 421.173 830.068 421.736C829.784 422.293 829.642 422.898 829.642 423.551V425.043C829.642 425.918 829.795 426.662 830.102 427.276C830.414 427.889 830.849 428.358 831.406 428.682C831.963 429 832.613 429.159 833.358 429.159C833.841 429.159 834.281 429.091 834.679 428.955C835.076 428.812 835.42 428.602 835.71 428.324C836 428.045 836.221 427.702 836.375 427.293L838.787 427.727C838.593 428.437 838.247 429.06 837.747 429.594C837.253 430.122 836.63 430.534 835.88 430.83C835.136 431.119 834.287 431.264 833.332 431.264ZM846.834 431.264C845.567 431.264 844.476 430.977 843.561 430.403C842.652 429.824 841.953 429.026 841.465 428.009C840.976 426.991 840.732 425.827 840.732 424.514C840.732 423.185 840.982 422.011 841.482 420.994C841.982 419.972 842.686 419.173 843.596 418.599C844.505 418.026 845.576 417.739 846.809 417.739C847.803 417.739 848.689 417.923 849.468 418.293C850.246 418.656 850.874 419.168 851.351 419.827C851.834 420.486 852.121 421.256 852.212 422.136H849.732C849.596 421.523 849.283 420.994 848.794 420.551C848.311 420.108 847.664 419.886 846.851 419.886C846.141 419.886 845.519 420.074 844.985 420.449C844.456 420.818 844.044 421.347 843.749 422.034C843.453 422.716 843.306 423.523 843.306 424.455C843.306 425.409 843.451 426.233 843.74 426.926C844.03 427.619 844.439 428.156 844.968 428.537C845.502 428.918 846.13 429.108 846.851 429.108C847.334 429.108 847.772 429.02 848.164 428.844C848.561 428.662 848.894 428.403 849.161 428.068C849.434 427.733 849.624 427.33 849.732 426.858H852.212C852.121 427.705 851.846 428.46 851.385 429.125C850.925 429.79 850.309 430.312 849.536 430.693C848.769 431.074 847.868 431.264 846.834 431.264ZM854.481 431V417.909H857.029V431H854.481ZM855.768 415.889C855.325 415.889 854.944 415.741 854.626 415.446C854.314 415.145 854.157 414.787 854.157 414.372C854.157 413.952 854.314 413.594 854.626 413.298C854.944 412.997 855.325 412.847 855.768 412.847C856.211 412.847 856.589 412.997 856.902 413.298C857.22 413.594 857.379 413.952 857.379 414.372C857.379 414.787 857.22 415.145 856.902 415.446C856.589 415.741 856.211 415.889 855.768 415.889ZM863.811 431.29C862.982 431.29 862.232 431.136 861.561 430.83C860.891 430.517 860.36 430.065 859.968 429.474C859.581 428.884 859.388 428.159 859.388 427.301C859.388 426.562 859.53 425.955 859.814 425.477C860.098 425 860.482 424.622 860.965 424.344C861.448 424.065 861.988 423.855 862.584 423.713C863.181 423.571 863.789 423.463 864.408 423.389C865.192 423.298 865.828 423.224 866.317 423.168C866.806 423.105 867.161 423.006 867.382 422.869C867.604 422.733 867.715 422.511 867.715 422.205V422.145C867.715 421.401 867.505 420.824 867.084 420.415C866.669 420.006 866.05 419.801 865.226 419.801C864.368 419.801 863.692 419.991 863.198 420.372C862.709 420.747 862.371 421.165 862.184 421.625L859.789 421.08C860.073 420.284 860.488 419.642 861.033 419.153C861.584 418.659 862.218 418.301 862.934 418.08C863.649 417.852 864.402 417.739 865.192 417.739C865.715 417.739 866.269 417.801 866.854 417.926C867.445 418.045 867.996 418.267 868.507 418.591C869.024 418.915 869.448 419.378 869.777 419.98C870.107 420.577 870.272 421.352 870.272 422.307V431H867.783V429.21H867.681C867.516 429.54 867.269 429.864 866.939 430.182C866.61 430.5 866.186 430.764 865.669 430.974C865.152 431.185 864.533 431.29 863.811 431.29ZM864.365 429.244C865.07 429.244 865.672 429.105 866.172 428.827C866.678 428.548 867.061 428.185 867.323 427.736C867.59 427.281 867.723 426.795 867.723 426.278V424.591C867.632 424.682 867.456 424.767 867.195 424.847C866.939 424.92 866.647 424.986 866.317 425.043C865.988 425.094 865.666 425.142 865.354 425.188C865.041 425.227 864.78 425.261 864.57 425.29C864.076 425.352 863.624 425.457 863.215 425.605C862.811 425.753 862.488 425.966 862.243 426.244C862.005 426.517 861.885 426.881 861.885 427.335C861.885 427.966 862.118 428.443 862.584 428.767C863.05 429.085 863.644 429.244 864.365 429.244ZM875.758 413.545V431H873.21V413.545H875.758ZM795.754 467V449.545H801.976C803.334 449.545 804.459 449.793 805.351 450.287C806.243 450.781 806.911 451.457 807.354 452.315C807.797 453.168 808.019 454.128 808.019 455.196C808.019 456.27 807.794 457.236 807.345 458.094C806.902 458.946 806.232 459.622 805.334 460.122C804.442 460.616 803.32 460.864 801.967 460.864H797.689V458.631H801.729C802.587 458.631 803.283 458.483 803.817 458.188C804.351 457.886 804.743 457.477 804.993 456.96C805.243 456.443 805.368 455.855 805.368 455.196C805.368 454.537 805.243 453.952 804.993 453.44C804.743 452.929 804.348 452.528 803.808 452.239C803.274 451.949 802.57 451.804 801.695 451.804H798.388V467H795.754ZM818.738 461.571V453.909H821.295V467H818.789V464.733H818.653C818.352 465.432 817.869 466.014 817.204 466.48C816.545 466.94 815.724 467.17 814.741 467.17C813.9 467.17 813.156 466.986 812.508 466.616C811.866 466.241 811.36 465.688 810.991 464.955C810.627 464.222 810.445 463.315 810.445 462.236V453.909H812.994V461.929C812.994 462.821 813.241 463.531 813.735 464.06C814.229 464.588 814.872 464.852 815.661 464.852C816.139 464.852 816.613 464.733 817.085 464.494C817.562 464.256 817.957 463.895 818.269 463.412C818.587 462.929 818.744 462.315 818.738 461.571ZM824.263 467V453.909H826.726V455.989H826.862C827.101 455.284 827.521 454.73 828.124 454.327C828.732 453.918 829.419 453.713 830.186 453.713C830.345 453.713 830.533 453.719 830.749 453.73C830.97 453.741 831.144 453.756 831.269 453.773V456.21C831.166 456.182 830.984 456.151 830.723 456.116C830.462 456.077 830.2 456.057 829.939 456.057C829.337 456.057 828.8 456.185 828.328 456.44C827.862 456.69 827.493 457.04 827.22 457.489C826.947 457.932 826.811 458.437 826.811 459.006V467H824.263ZM833.018 471.909V453.909H835.506V456.031H835.719C835.867 455.759 836.08 455.443 836.359 455.085C836.637 454.727 837.023 454.415 837.518 454.148C838.012 453.875 838.665 453.739 839.478 453.739C840.535 453.739 841.478 454.006 842.308 454.54C843.137 455.074 843.788 455.844 844.259 456.849C844.737 457.855 844.975 459.065 844.975 460.48C844.975 461.895 844.739 463.108 844.268 464.119C843.796 465.125 843.148 465.901 842.325 466.446C841.501 466.986 840.56 467.256 839.504 467.256C838.708 467.256 838.058 467.122 837.552 466.855C837.052 466.588 836.66 466.276 836.376 465.918C836.092 465.56 835.873 465.241 835.719 464.963H835.566V471.909H833.018ZM835.515 460.455C835.515 461.375 835.648 462.182 835.915 462.875C836.183 463.568 836.569 464.111 837.075 464.503C837.58 464.889 838.2 465.082 838.933 465.082C839.694 465.082 840.33 464.881 840.842 464.477C841.353 464.068 841.739 463.514 842.001 462.815C842.268 462.116 842.401 461.33 842.401 460.455C842.401 459.591 842.271 458.815 842.009 458.128C841.754 457.44 841.367 456.898 840.85 456.5C840.339 456.102 839.7 455.903 838.933 455.903C838.194 455.903 837.569 456.094 837.058 456.474C836.552 456.855 836.168 457.386 835.907 458.068C835.646 458.75 835.515 459.545 835.515 460.455ZM852.888 467.264C851.661 467.264 850.59 466.983 849.675 466.42C848.761 465.858 848.05 465.071 847.545 464.06C847.039 463.048 846.786 461.866 846.786 460.514C846.786 459.156 847.039 457.969 847.545 456.952C848.05 455.935 848.761 455.145 849.675 454.582C850.59 454.02 851.661 453.739 852.888 453.739C854.116 453.739 855.187 454.02 856.102 454.582C857.016 455.145 857.727 455.935 858.232 456.952C858.738 457.969 858.991 459.156 858.991 460.514C858.991 461.866 858.738 463.048 858.232 464.06C857.727 465.071 857.016 465.858 856.102 466.42C855.187 466.983 854.116 467.264 852.888 467.264ZM852.897 465.125C853.692 465.125 854.352 464.915 854.874 464.494C855.397 464.074 855.783 463.514 856.033 462.815C856.289 462.116 856.417 461.347 856.417 460.506C856.417 459.67 856.289 458.903 856.033 458.205C855.783 457.5 855.397 456.935 854.874 456.509C854.352 456.082 853.692 455.869 852.897 455.869C852.096 455.869 851.431 456.082 850.903 456.509C850.38 456.935 849.991 457.5 849.735 458.205C849.485 458.903 849.36 459.67 849.36 460.506C849.36 461.347 849.485 462.116 849.735 462.815C849.991 463.514 850.38 464.074 850.903 464.494C851.431 464.915 852.096 465.125 852.897 465.125ZM871.189 457.105L868.879 457.514C868.783 457.219 868.629 456.937 868.419 456.67C868.214 456.403 867.936 456.185 867.584 456.014C867.231 455.844 866.791 455.759 866.263 455.759C865.541 455.759 864.939 455.92 864.456 456.244C863.973 456.562 863.731 456.974 863.731 457.48C863.731 457.918 863.893 458.27 864.217 458.537C864.541 458.804 865.064 459.023 865.785 459.193L867.865 459.67C869.07 459.949 869.967 460.378 870.558 460.957C871.149 461.537 871.445 462.29 871.445 463.216C871.445 464 871.217 464.699 870.763 465.312C870.314 465.92 869.686 466.398 868.879 466.744C868.078 467.091 867.149 467.264 866.092 467.264C864.626 467.264 863.43 466.952 862.504 466.327C861.578 465.696 861.01 464.801 860.8 463.642L863.263 463.267C863.416 463.909 863.731 464.395 864.209 464.724C864.686 465.048 865.308 465.21 866.075 465.21C866.91 465.21 867.578 465.037 868.078 464.69C868.578 464.338 868.828 463.909 868.828 463.403C868.828 462.994 868.675 462.651 868.368 462.372C868.067 462.094 867.604 461.884 866.979 461.741L864.763 461.256C863.541 460.977 862.638 460.534 862.052 459.926C861.473 459.318 861.183 458.548 861.183 457.616C861.183 456.844 861.399 456.168 861.831 455.588C862.263 455.009 862.859 454.557 863.621 454.233C864.382 453.903 865.254 453.739 866.237 453.739C867.652 453.739 868.766 454.045 869.578 454.659C870.391 455.267 870.927 456.082 871.189 457.105ZM879.432 467.264C878.143 467.264 877.032 466.989 876.1 466.438C875.174 465.881 874.458 465.099 873.952 464.094C873.452 463.082 873.202 461.898 873.202 460.54C873.202 459.199 873.452 458.017 873.952 456.994C874.458 455.972 875.163 455.173 876.066 454.599C876.975 454.026 878.038 453.739 879.253 453.739C879.992 453.739 880.708 453.861 881.401 454.105C882.094 454.349 882.717 454.733 883.268 455.256C883.819 455.778 884.253 456.457 884.572 457.293C884.89 458.122 885.049 459.131 885.049 460.318V461.222H874.643V459.312H882.552C882.552 458.642 882.415 458.048 882.143 457.531C881.87 457.009 881.486 456.597 880.992 456.295C880.503 455.994 879.93 455.844 879.27 455.844C878.555 455.844 877.93 456.02 877.395 456.372C876.867 456.719 876.458 457.173 876.168 457.736C875.884 458.293 875.742 458.898 875.742 459.551V461.043C875.742 461.918 875.895 462.662 876.202 463.276C876.515 463.889 876.949 464.358 877.506 464.682C878.063 465 878.714 465.159 879.458 465.159C879.941 465.159 880.381 465.091 880.779 464.955C881.177 464.812 881.52 464.602 881.81 464.324C882.1 464.045 882.322 463.702 882.475 463.293L884.887 463.727C884.694 464.437 884.347 465.06 883.847 465.594C883.353 466.122 882.731 466.534 881.981 466.83C881.236 467.119 880.387 467.264 879.432 467.264Z"
        fill="black" fill-opacity="0.8" />
    <path
        d="M725.5 292C725.5 291.172 724.828 290.5 724 290.5C723.172 290.5 722.5 291.172 722.5 292H725.5ZM838.939 381.061C839.525 381.646 840.475 381.646 841.061 381.061L850.607 371.515C851.192 370.929 851.192 369.979 850.607 369.393C850.021 368.808 849.071 368.808 848.485 369.393L840 377.879L831.515 369.393C830.929 368.808 829.979 368.808 829.393 369.393C828.808 369.979 828.808 370.929 829.393 371.515L838.939 381.061ZM722.5 292V312H725.5V292H722.5ZM748 337.5H816V334.5H748V337.5ZM838.5 360V380H841.5V360H838.5ZM816 337.5C828.426 337.5 838.5 347.574 838.5 360H841.5C841.5 345.917 830.083 334.5 816 334.5V337.5ZM722.5 312C722.5 326.083 733.917 337.5 748 337.5V334.5C735.574 334.5 725.5 324.426 725.5 312H722.5Z"
        fill="#B3B3B3" />
</svg>