<svg xmlns="http://www.w3.org/2000/svg" xmlns:xlink="http://www.w3.org/1999/xlink" xmlns:lucid="lucid" width="660" height="440"><g transform="translate(-360 -60)" lucid:page-tab-id="0_0"><path d="M0 0h1870.87v1322.83H0z" fill="#fff"/><path d="M571.78 86a6 6 0 0 1 6-6h224.44a6 6 0 0 1 6 6v40.54a6 6 0 0 1-6 6H577.78a6 6 0 0 1-6-6z" stroke="#4881b3" stroke-width="3" fill="#f5fbff"/><use xlink:href="#a" transform="matrix(1,0,0,1,583.7796610169491,92) translate(40.107 19.8375)"/><use xlink:href="#b" transform="matrix(1,0,0,1,583.7796610169491,92) translate(98.35499999999999 19.8375)"/><path d="M690 135v30.95a6 6 0 0 1-6 6H484.52a6 6 0 0 0-6 6v13.44" stroke="#224c72" stroke-width="2" fill="none"/><path d="M691 135.03h-2V134h2z" stroke="#224c72" stroke-width=".05" fill="#224c72"/><path d="M478.52 206.66l-4.64-14.27h9.27z" stroke="#224c72" stroke-width="2" fill="#224c72"/><path d="M380 217.36a6 6 0 0 1 6-6h185.03a6 6 0 0 1 6 6v40.54a6 6 0 0 1-6 6H386a6 6 0 0 1-6-6z" stroke="#4881b3" stroke-width="3" fill="#f5fbff"/><use xlink:href="#c" transform="matrix(1,0,0,1,392,223.35593220338987) translate(38.103 19.8375)"/><use xlink:href="#d" transform="matrix(1,0,0,1,392,223.35593220338987) translate(95.14500000000001 19.8375)"/><path d="M746 135v30.94a6 6 0 0 0 6 6h150.05a6 6 0 0 1 6 6v13.45" stroke="#224c72" stroke-width="2" fill="none"/><path d="M747 135h-2v-1h2z" stroke="#224c72" stroke-width=".05" fill="#224c72"/><path d="M908.05 206.66l-4.63-14.27h9.27z" stroke="#224c72" stroke-width="2" fill="#224c72"/><path d="M816.1 217.36a6 6 0 0 1 6-6H994a6 6 0 0 1 6 6v40.54a6 6 0 0 1-6 6H822.1a6 6 0 0 1-6-6z" stroke="#4881b3" stroke-width="3" fill="#f5fbff"/><use xlink:href="#e" transform="matrix(1,0,0,1,828.1016949152543,223.35593220338984) translate(26.864000000000004 19.8375)"/><use xlink:href="#f" transform="matrix(1,0,0,1,828.1016949152543,223.35593220338984) translate(88.694 19.8375)"/><path d="M478.52 266.36v43.46a6 6 0 0 0 6 6h85.37a6 6 0 0 1 6 6v25.95" stroke="#224c72" stroke-width="2" fill="none"/><path d="M479.52 266.4h-2v-1.04h2z" stroke="#224c72" stroke-width=".05" fill="#224c72"/><path d="M575.9 363.04l-4.65-14.27h9.28z" stroke="#224c72" stroke-width="2" fill="#224c72"/><path d="M480 373.74a6 6 0 0 1 6-6h179.78a6 6 0 0 1 6 6V474a6 6 0 0 1-6 6H486a6 6 0 0 1-6-6z" stroke="#4881b3" stroke-width="3" fill="#f5fbff"/><use xlink:href="#g" transform="matrix(1,0,0,1,492,379.73873501446883) translate(5.715 31.0875)"/><use xlink:href="#h" transform="matrix(1,0,0,1,492,379.73873501446883) translate(18 31.0875)"/><use xlink:href="#g" transform="matrix(1,0,0,1,492,379.73873501446883) translate(5.715 49.0875)"/><use xlink:href="#i" transform="matrix(1,0,0,1,492,379.73873501446883) translate(18 49.0875)"/><use xlink:href="#j" transform="matrix(1,0,0,1,492,379.73873501446883) translate(96.26400000000001 49.0875)"/><use xlink:href="#k" transform="matrix(1,0,0,1,492,379.73873501446883) translate(131.04000000000002 49.0875)"/><use xlink:href="#l" transform="matrix(1,0,0,1,492,379.73873501446883) translate(18 67.0875)"/><path d="M908.05 266.36v44.08a6 6 0 0 1-6 6H827.3a6 6 0 0 0-6 6v26.58" stroke="#224c72" stroke-width="2" fill="none"/><path d="M909.05 266.4h-2v-1.04h2z" stroke="#224c72" stroke-width=".05" fill="#224c72"/><path d="M821.3 364.28l-4.64-14.26h9.27z" stroke="#224c72" stroke-width="2" fill="#224c72"/><path d="M724.15 374.98a6 6 0 0 1 6-6h182.28a6 6 0 0 1 6 6V474a6 6 0 0 1-6 6H730.15a6 6 0 0 1-6-6z" stroke="#4881b3" stroke-width="3" fill="#f5fbff"/><use xlink:href="#g" transform="matrix(1,0,0,1,736.1525423728813,380.9830508474576) translate(5.715 39.15)"/><use xlink:href="#m" transform="matrix(1,0,0,1,736.1525423728813,380.9830508474576) translate(18 39.15)"/><use xlink:href="#g" transform="matrix(1,0,0,1,736.1525423728813,380.9830508474576) translate(5.715 57.15)"/><use xlink:href="#n" transform="matrix(1,0,0,1,736.1525423728813,380.9830508474576) translate(18 57.15)"/><use xlink:href="#o" transform="matrix(1,0,0,1,736.1525423728813,380.9830508474576) translate(102.88799999999998 57.15)"/><use xlink:href="#p" transform="matrix(1,0,0,1,736.1525423728813,380.9830508474576) translate(127.85399999999997 57.15)"/><path d="M701.72 200.00000000000003C656.6 200 620 236.6 620 281.72c0 45.13 36.6 81.7 81.72 81.7 45.13 0 81.7-36.57 81.7-81.7S746.86 200 701.73 200zM701.72 224.52c31.6 0 57.2 25.6 57.2 57.2s-25.6 57.2-57.2 57.2-57.2-25.6-57.2-57.2 25.6-57.2 57.2-57.2z" stroke="#000" stroke-opacity="0" stroke-width="3" fill="#d7e9ff"/><path d="M701.72 200.00000000000003c45.13 0 81.7 36.6 81.7 81.72 0 45.13-36.57 81.7-81.7 81.7-36.1 0-66.56-22.1-77.72-56.45l23.3-7.58c7.82 24.03 29.14 39.52 54.42 39.52 31.6 0 57.2-25.6 57.2-57.2s-25.6-57.2-57.2-57.2z" stroke="#000" stroke-opacity="0" stroke-width="3" fill="#4297ff"/><path d="M813.62 225h-12.95a6 6 0 0 0-6 6v12.56a1.44 1.44 0 0 1-1.44 1.44" stroke="#224c72" stroke-width="2" fill="none"/><path d="M814.62 226h-1.03v-2h1z" stroke="#224c72" stroke-width=".05" fill="#224c72"/><path d="M777.97 245l14.26-4.63v9.27z" stroke="#224c72" stroke-width="2" fill="#224c72"/><path d="M579.48 225h13.76a6 6 0 0 1 6 6v48.12a2.26 2.26 0 0 0 2.26 2.27" stroke="#224c72" stroke-width="2" fill="none"/><path d="M579.5 226h-1.02v-2h1.02z" stroke="#224c72" stroke-width=".05" fill="#224c72"/><path d="M616.77 281.4L602.5 286v-9.27z" stroke="#224c72" stroke-width="2" fill="#224c72"/><defs><path fill="#1d262b" d="M259-733c214 1 343 153 343 373C602-143 477 1 263 0H50c-36-2-38-53-1-54h73v-625c-36-3-101 12-100-26 0-16 9-28 28-28h209zm6 679c176-2 268-125 268-310 0-180-103-312-274-315h-70v625h76" id="q"/><path fill="#1d262b" d="M156-730c25 0 46 23 46 47s-21 47-46 47-47-22-47-47 22-47 47-47zm31 219v461c37 5 103-15 103 25 0 15-9 25-28 25H49C30-2 21-10 21-25c0-40 67-20 103-25v-410c-39-6-114 16-114-24 0-16 9-27 28-27h149" id="r"/><path fill="#1d262b" d="M241 243C127 243 16 186 16 91 16 21 58-23 138-40c-48-9-72-30-72-65 0-33 26-57 79-72-59-31-85-83-85-158 0-160 192-242 311-144 58-47 102-51 160-7v84c-15 18-24 27-27 27-36 3-24-49-26-82-23-20-55-11-75 10 33 44 42 145 12 201-39 72-110 98-222 98-45 0-67 17-67 40 0 17 8 28 25 34 20 7 62 10 126 10 113 0 211 46 211 147 0 105-130 160-247 160zm9-436c79 0 117-62 117-146 0-74-48-138-118-138-71 0-120 64-120 138 0 97 40 146 121 146zM88 85c0 154 327 145 327-3 0-69-57-103-171-103C140-21 88 14 88 85" id="s"/><path fill="#1d262b" d="M213 11C132 11 91-40 91-122v-338c-33-2-86 10-86-25 0-36 53-24 86-26v-133c-1-24 33-14 52-14 8 0 12 4 12 13v134h126c19 1 28 10 28 26 0 15-9 25-27 25H155v317c-3 66 13 99 65 99 33 0 59-7 79-18 19-10 19 19 30 26 3 6 2 12-5 18-25 19-62 29-111 29" id="t"/><path fill="#1d262b" d="M68-392c3-80 76-130 164-130 104 0 156 53 156 160v312c40 6 118-18 118 25 0 15-9 25-28 25H325v-55c-11 31-77 66-120 66C103 11 36-46 40-144c5-112 100-168 286-168 0-60-2-98-7-113-11-35-39-53-84-53-73 0-109 28-109 84 0 21-30 7-47 11-7 0-11-3-11-9zM207-39c51 0 119-56 118-102v-116c-125-4-224 20-224 117 0 67 35 101 106 101" id="u"/><path fill="#1d262b" d="M192-733v679c38 4 104-14 103 27 0 15-9 27-28 27H54C35-3 26-12 26-27c-1-41 65-23 103-27v-625c-40-5-113 16-114-27 0-16 9-27 28-27h149" id="v"/><g id="a"><use transform="matrix(0.018,0,0,0.018,0,0)" xlink:href="#q"/><use transform="matrix(0.018,0,0,0.018,11.771999999999998,0)" xlink:href="#r"/><use transform="matrix(0.018,0,0,0.018,17.351999999999997,0)" xlink:href="#s"/><use transform="matrix(0.018,0,0,0.018,27.089999999999996,0)" xlink:href="#r"/><use transform="matrix(0.018,0,0,0.018,32.669999999999995,0)" xlink:href="#t"/><use transform="matrix(0.018,0,0,0.018,38.78999999999999,0)" xlink:href="#u"/><use transform="matrix(0.018,0,0,0.018,47.988,0)" xlink:href="#v"/></g><path fill="#1d262b" d="M497-733v129c-1 37-55 37-55 1v-74l-252-1v273h143c-1-33-4-75 28-75 15 0 26 9 26 28v138c-3 19-12 28-27 28-28 0-29-36-27-66H190v302c36 4 102-14 102 25 0 15-9 25-28 25H50C32-1 23-10 23-25c0-39 66-21 102-25v-628c-38-5-104 17-103-27 0-19 9-28 28-28h447" id="w"/><path fill="#1d262b" d="M264-522c132 0 211 120 211 264 0 156-67 269-211 269S51-102 51-258c0-144 81-264 213-264zm-2 483c108 0 140-97 142-219 1-112-46-214-141-214-100 0-143 97-142 215 1 123 37 218 141 218" id="x"/><path fill="#1d262b" d="M323-517c140 10 186 114 186 276C509-92 447 3 310 9c-58 2-101-31-128-69v246c36 4 101-13 101 24 0 15-9 25-28 25H43c-19-1-29-10-29-25 1-37 67-20 103-24v-646C78-466 4-443 2-485c0-15 9-26 28-26h152v87c11-46 82-97 141-93zM307-42c102 0 136-93 136-212 0-102-36-212-129-212-65 0-124 66-129 126-5 59-3 123-3 187 0 66 58 111 125 111" id="y"/><path fill="#1d262b" d="M375-456c-126-57-177 101-177 241v165c39 6 111-17 113 25 0 15-9 25-28 25H60C41-1 31-10 31-25c0-40 67-20 104-25v-410c-39-6-113 17-115-25 0-15 9-26 28-26h150v107c23-77 70-116 143-116 39 0 68 10 87 31v94c-15 19-24 28-27 28-38 2-23-55-26-89" id="z"/><path fill="#1d262b" d="M360-520c87 0 131 80 131 179v291c35 3 96-12 95 25 0 15-9 25-28 25H426v-312c1-92-13-146-90-149-90-3-138 109-138 208v203c36 5 101-15 101 25 0 15-9 25-27 25H60C41-1 31-10 31-25c0-40 67-20 103-25v-410c-39-6-112 17-114-25 0-15 9-26 28-26h150v115c27-83 81-124 162-124" id="A"/><g id="b"><use transform="matrix(0.018,0,0,0.018,0,0)" xlink:href="#w"/><use transform="matrix(0.018,0,0,0.018,9.126,0)" xlink:href="#x"/><use transform="matrix(0.018,0,0,0.018,18.594,0)" xlink:href="#x"/><use transform="matrix(0.018,0,0,0.018,28.062,0)" xlink:href="#t"/><use transform="matrix(0.018,0,0,0.018,34.182,0)" xlink:href="#y"/><use transform="matrix(0.018,0,0,0.018,44.1,0)" xlink:href="#z"/><use transform="matrix(0.018,0,0,0.018,51.94800000000001,0)" xlink:href="#r"/><use transform="matrix(0.018,0,0,0.018,57.528,0)" xlink:href="#A"/><use transform="matrix(0.018,0,0,0.018,68.41799999999999,0)" xlink:href="#t"/></g><path fill="#1d262b" d="M719-25c0 15-9 25-28 25H478c-19-1-28-10-28-25 0-40 68-20 105-25l-59-174H240L186-50c37 4 105-14 105 25 0 15-9 25-28 25H50C31-1 22-10 22-25c0-39 64-21 100-25l205-671c7-34 54-31 64-2L620-50c36 4 99-14 99 25zM480-277L359-623 252-277h228" id="B"/><path fill="#1d262b" d="M50-258c0-144 84-266 215-266 64 0 117 17 159 50-4 39 14 109-27 109-36 0-24-52-26-85-27-16-63-24-107-24-100 0-145 102-143 219 1 118 33 206 133 213 64 4 124-48 121-112 0-25 35-10 55-14 5 0 7 4 7 12-5 100-80 173-188 168C111 7 50-105 50-258" id="C"/><path fill="#1d262b" d="M582-485c2 36-55 22-88 25L326-11c-14 32-54 32-66 0L95-460c-32-2-80 10-80-25 0-15 9-25 28-25h175c19 1 29 10 29 25 2 35-52 23-85 25L294-82l134-378c-31-2-78 10-78-25 0-15 9-25 27-25h176c19 1 29 10 29 25" id="D"/><path fill="#1d262b" d="M50-258c0-141 72-264 198-264 136 0 191 113 191 266H116c0 145 44 217 133 217 73 0 116-35 127-106-1-24 31-10 50-14 5 0 8 4 8 12-7 99-76 158-184 158C112 10 50-108 50-258zm323-52c12-118-110-214-199-129-30 29-48 72-55 129h254" id="E"/><g id="c"><use transform="matrix(0.018,0,0,0.018,0,0)" xlink:href="#B"/><use transform="matrix(0.018,0,0,0.018,13.014,0)" xlink:href="#C"/><use transform="matrix(0.018,0,0,0.018,21.798,0)" xlink:href="#t"/><use transform="matrix(0.018,0,0,0.018,27.918,0)" xlink:href="#r"/><use transform="matrix(0.018,0,0,0.018,33.156,0)" xlink:href="#D"/><use transform="matrix(0.018,0,0,0.018,43.56,0)" xlink:href="#E"/></g><g id="d"><use transform="matrix(0.018,0,0,0.018,0,0)" xlink:href="#t"/><use transform="matrix(0.018,0,0,0.018,6.119999999999999,0)" xlink:href="#z"/><use transform="matrix(0.018,0,0,0.018,13.967999999999998,0)" xlink:href="#u"/><use transform="matrix(0.018,0,0,0.018,23.165999999999997,0)" xlink:href="#C"/><use transform="matrix(0.018,0,0,0.018,31.95,0)" xlink:href="#E"/></g><path fill="#1d262b" d="M261-733c130-2 228 64 231 187 2 122-103 202-235 198h-68v298c36 4 102-14 102 25 0 15-9 25-28 25H50C31-1 22-10 22-25c0-39 64-21 100-25v-631c-36-3-100 12-100-25 0-16 9-27 28-27h211zm-72 329c128 11 236-26 236-140 0-85-78-136-168-136h-68v276" id="F"/><path fill="#1d262b" d="M57-382c0-136 193-181 294-102-4 40 15 110-27 112-35 1-24-50-26-83-75-42-174-12-176 71-1 69 91 91 144 113 102 43 138 172 46 245C242 30 95 20 41-41c5-41-16-118 27-119 37-2 23 56 26 90 59 50 206 39 205-55 0-33-18-62-54-85 2 0-130-56-135-64-35-27-53-63-53-108" id="G"/><g id="e"><use transform="matrix(0.018,0,0,0.018,0,0)" xlink:href="#F"/><use transform="matrix(0.018,0,0,0.018,9.036,0)" xlink:href="#u"/><use transform="matrix(0.018,0,0,0.018,18.233999999999998,0)" xlink:href="#G"/><use transform="matrix(0.018,0,0,0.018,25.47,0)" xlink:href="#G"/><use transform="matrix(0.018,0,0,0.018,32.705999999999996,0)" xlink:href="#r"/><use transform="matrix(0.018,0,0,0.018,37.943999999999996,0)" xlink:href="#D"/><use transform="matrix(0.018,0,0,0.018,48.348,0)" xlink:href="#E"/></g><path fill="#1d262b" d="M544-733v129c0 37-55 37-55 1v-75l-178-1v629c39 5 110-16 112 25 0 15-9 25-28 25H160c-19-1-28-10-28-25 1-41 72-20 110-25v-629l-177 1c-3 38 12 103-28 102-15 0-27-9-27-28v-129h534" id="H"/><g id="f"><use transform="matrix(0.018,0,0,0.018,0,0)" xlink:href="#H"/><use transform="matrix(0.018,0,0,0.018,9.809999999999999,0)" xlink:href="#z"/><use transform="matrix(0.018,0,0,0.018,17.657999999999998,0)" xlink:href="#u"/><use transform="matrix(0.018,0,0,0.018,26.855999999999995,0)" xlink:href="#C"/><use transform="matrix(0.018,0,0,0.018,35.63999999999999,0)" xlink:href="#E"/></g><path fill="#1d262b" d="M183-387c58 0 107 50 107 108s-49 108-107 108c-57 0-108-50-108-108s51-108 108-108" id="I"/><use transform="matrix(0.018,0,0,0.018,0,0)" xlink:href="#I" id="g"/><path fill="#1d262b" d="M264-733c18 1 27 10 27 26 0 38-66 20-101 24v633c36 4 101-14 101 25 0 15-9 25-27 25H50C31-1 22-10 22-25c0-39 64-21 100-25v-633c-35-4-100 13-100-24 0-16 9-26 28-26h214" id="J"/><g id="h"><use transform="matrix(0.018,0,0,0.018,0,0)" xlink:href="#J"/><use transform="matrix(0.018,0,0,0.018,5.598,0)" xlink:href="#A"/><use transform="matrix(0.018,0,0,0.018,16.488,0)" xlink:href="#t"/><use transform="matrix(0.018,0,0,0.018,22.607999999999997,0)" xlink:href="#E"/><use transform="matrix(0.018,0,0,0.018,31.409999999999997,0)" xlink:href="#A"/><use transform="matrix(0.018,0,0,0.018,42.3,0)" xlink:href="#t"/><use transform="matrix(0.018,0,0,0.018,48.419999999999995,0)" xlink:href="#r"/><use transform="matrix(0.018,0,0,0.018,53.20799999999999,0)" xlink:href="#x"/><use transform="matrix(0.018,0,0,0.018,62.67599999999999,0)" xlink:href="#A"/><use transform="matrix(0.018,0,0,0.018,73.56599999999999,0)" xlink:href="#u"/><use transform="matrix(0.018,0,0,0.018,82.76399999999998,0)" xlink:href="#v"/></g><path fill="#1d262b" d="M773-733c19 1 28 10 28 26 0 37-66 20-101 24l28 633c36 4 101-14 101 25 0 15-9 25-28 25H588c-19-1-28-10-28-25 0-39 66-21 102-25l-27-600L463-66c-7 34-55 32-64 2L218-651 189-50c36 4 102-14 102 25 0 15-9 25-28 25H50C31-1 22-10 22-25c0-39 66-21 102-25l30-633c-36-4-101 14-102-24 0-16 9-26 28-26h168c8 0 13 6 15 13l165 562 162-562c2-17 26-13 45-13h138" id="K"/><g id="i"><use transform="matrix(0.018,0,0,0.018,0,0)" xlink:href="#K"/><use transform="matrix(0.018,0,0,0.018,15.335999999999999,0)" xlink:href="#E"/><use transform="matrix(0.018,0,0,0.018,24.137999999999998,0)" xlink:href="#G"/><use transform="matrix(0.018,0,0,0.018,31.374,0)" xlink:href="#G"/><use transform="matrix(0.018,0,0,0.018,38.61,0)" xlink:href="#u"/><use transform="matrix(0.018,0,0,0.018,47.808,0)" xlink:href="#s"/><use transform="matrix(0.018,0,0,0.018,57.54599999999999,0)" xlink:href="#E"/><use transform="matrix(0.018,0,0,0.018,66.348,0)" xlink:href="#G"/></g><path fill="#1d262b" d="M51-248c0-154 73-275 209-275 51 0 88 19 110 56v-216c-38-5-110 16-111-25 0-16 9-25 28-25h146v683c40 6 118-18 118 25 0 15-9 25-28 25H370v-52c-3 30-69 65-116 63C114 8 51-96 51-248zM260-40c64-3 110-70 110-141v-166c-1-71-38-126-106-126-102 0-148 108-148 227 0 102 50 210 144 206" id="L"/><g id="j"><use transform="matrix(0.018,0,0,0.018,0,0)" xlink:href="#u"/><use transform="matrix(0.018,0,0,0.018,9.197999999999999,0)" xlink:href="#A"/><use transform="matrix(0.018,0,0,0.018,20.087999999999997,0)" xlink:href="#L"/></g><g id="k"><use transform="matrix(0.018,0,0,0.018,0,0)" xlink:href="#L"/><use transform="matrix(0.018,0,0,0.018,10.008,0)" xlink:href="#u"/><use transform="matrix(0.018,0,0,0.018,19.205999999999996,0)" xlink:href="#t"/><use transform="matrix(0.018,0,0,0.018,25.325999999999993,0)" xlink:href="#u"/></g><path fill="#1d262b" d="M361-520c83 0 130 82 130 177v293c35 3 97-12 96 25 0 15-9 25-28 25H426v-312c1-91-14-145-91-149-87-5-137 104-137 208v203c36 4 102-14 102 25 0 15-9 25-28 25H60C41-1 31-10 31-25c0-39 67-21 103-25v-633c-39-6-114 17-114-24 0-15 9-26 28-26h155v328c24-77 77-115 158-115" id="M"/><g id="l"><use transform="matrix(0.018,0,0,0.018,0,0)" xlink:href="#G"/><use transform="matrix(0.018,0,0,0.018,7.236,0)" xlink:href="#M"/><use transform="matrix(0.018,0,0,0.018,18.27,0)" xlink:href="#u"/><use transform="matrix(0.018,0,0,0.018,27.467999999999996,0)" xlink:href="#z"/><use transform="matrix(0.018,0,0,0.018,35.315999999999995,0)" xlink:href="#r"/><use transform="matrix(0.018,0,0,0.018,40.895999999999994,0)" xlink:href="#A"/><use transform="matrix(0.018,0,0,0.018,51.785999999999994,0)" xlink:href="#s"/></g><path fill="#1d262b" d="M341 11c-139 0-221-91-221-231v-463c-35-4-100 13-100-24 0-16 9-26 28-26h213c19 1 28 10 28 26 0 37-66 20-101 24v463c0 113 51 170 153 170 106 0 159-57 159-170v-463c-35-4-100 13-100-24 0-16 9-26 28-26h213c19 1 28 10 28 26 0 37-66 20-101 24v463c1 141-85 231-227 231" id="N"/><g id="m"><use transform="matrix(0.018,0,0,0.018,0,0)" xlink:href="#N"/><use transform="matrix(0.018,0,0,0.018,12.402,0)" xlink:href="#A"/><use transform="matrix(0.018,0,0,0.018,24.083999999999993,0)" xlink:href="#r"/><use transform="matrix(0.018,0,0,0.018,29.663999999999994,0)" xlink:href="#A"/><use transform="matrix(0.018,0,0,0.018,40.553999999999995,0)" xlink:href="#t"/><use transform="matrix(0.018,0,0,0.018,46.674,0)" xlink:href="#E"/><use transform="matrix(0.018,0,0,0.018,55.476,0)" xlink:href="#A"/><use transform="matrix(0.018,0,0,0.018,66.36599999999999,0)" xlink:href="#t"/><use transform="matrix(0.018,0,0,0.018,72.48599999999999,0)" xlink:href="#r"/><use transform="matrix(0.018,0,0,0.018,77.274,0)" xlink:href="#x"/><use transform="matrix(0.018,0,0,0.018,86.74199999999999,0)" xlink:href="#A"/><use transform="matrix(0.018,0,0,0.018,97.63199999999999,0)" xlink:href="#u"/><use transform="matrix(0.018,0,0,0.018,106.83,0)" xlink:href="#v"/></g><g id="n"><use transform="matrix(0.018,0,0,0.018,0,0)" xlink:href="#s"/><use transform="matrix(0.018,0,0,0.018,9.738,0)" xlink:href="#E"/><use transform="matrix(0.018,0,0,0.018,18.54,0)" xlink:href="#A"/><use transform="matrix(0.018,0,0,0.018,29.429999999999996,0)" xlink:href="#E"/><use transform="matrix(0.018,0,0,0.018,38.232,0)" xlink:href="#z"/><use transform="matrix(0.018,0,0,0.018,46.08,0)" xlink:href="#u"/><use transform="matrix(0.018,0,0,0.018,55.278,0)" xlink:href="#t"/><use transform="matrix(0.018,0,0,0.018,61.397999999999996,0)" xlink:href="#E"/><use transform="matrix(0.018,0,0,0.018,70.19999999999999,0)" xlink:href="#L"/></g><path fill="#1d262b" d="M306-523c140 0 195 116 195 275 0 146-76 259-212 259-46 0-95-27-112-58 1 19-3 33-11 47H97c11-17 16-37 16-61v-622C74-689 2-666 0-708c0-16 9-25 28-25l149 2v278c29-47 72-70 129-70zM286-40c102-2 145-102 145-216 0-109-32-220-129-220-71 0-125 64-125 139v179c-1 63 46 119 109 118" id="O"/><path fill="#1d262b" d="M57 158c29 13 59 26 96 26 74 0 84-123 108-184L92-460c-32-2-80 10-80-25 0-15 9-25 28-25h178c19 1 29 10 29 25 2 36-55 22-88 25L293-85l132-375c-31-2-79 10-79-25 0-15 9-25 27-25h179c19 1 29 10 29 25 2 37-56 22-90 25L283 125c-17 60-65 115-137 115-41 0-77-9-108-31-19-13 7-31 11-45 2-4 5-6 8-6" id="P"/><g id="o"><use transform="matrix(0.018,0,0,0.018,0,0)" xlink:href="#O"/><use transform="matrix(0.018,0,0,0.018,9.647999999999998,0)" xlink:href="#P"/></g><g id="p"><use transform="matrix(0.018,0,0,0.018,0,0)" xlink:href="#C"/><use transform="matrix(0.018,0,0,0.018,8.783999999999999,0)" xlink:href="#x"/><use transform="matrix(0.018,0,0,0.018,18.252,0)" xlink:href="#L"/><use transform="matrix(0.018,0,0,0.018,28.259999999999998,0)" xlink:href="#E"/></g></defs></g></svg>