<svg xmlns="http://www.w3.org/2000/svg" xmlns:xlink="http://www.w3.org/1999/xlink" xmlns:lucid="lucid" width="604" height="440"><g transform="translate(-641 -343.6666666667055)" lucid:page-tab-id="0_0"><path d="M0 0h1870.87v1322.83H0z" fill="#fff"/><path d="M863 369.67a6 6 0 0 1 6-6h132a6 6 0 0 1 6 6v96c-24.05-17.04-39.02-17.04-48.1-17.04-14.4 0-33.55 17.04-47.95 17.04-8.93 0-24.05 0-47.95-17.04z" stroke="#3a414a" fill="#ffdda6"/><path d="M871 378.67a6 6 0 0 1 6-6h132a6 6 0 0 1 6 6v96c-24.05-17.04-39.02-17.04-48.1-17.04-14.4 0-33.55 17.04-47.95 17.04-8.93 0-24.05 0-47.95-17.04z" stroke="#3a414a" fill="#ffdda6"/><path d="M879 387.67a6 6 0 0 1 6-6h132a6 6 0 0 1 6 6v96c-24.05-17.04-39.02-17.04-48.1-17.04-14.4 0-33.55 17.04-47.95 17.04-8.93 0-24.05 0-47.95-17.04z" stroke="#3a414a" fill="#ffdda6"/><use xlink:href="#a" transform="matrix(1,0,0,1,884,386.6666666667055) translate(23.351851851851848 24.80902777777778)"/><use xlink:href="#b" transform="matrix(1,0,0,1,884,386.6666666667055) translate(5.388888888888886 51.47569444444445)"/><path d="M1084 583.67c0 22.1-17.9 40-40 40s-40-17.9-40-40 17.9-40 40-40 40 17.9 40 40z" stroke="#3a414a" fill="#54c45e"/><use xlink:href="#c" transform="matrix(1,0,0,1,1009,548.6666666667055) translate(12.222222222222221 39.65277777777778)"/><path d="M882 513.67c0 22.1-17.9 40-40 40s-40-17.9-40-40 17.9-40 40-40 40 17.9 40 40z" stroke="#3a414a" fill="#ffd9d9"/><use xlink:href="#d" transform="matrix(1,0,0,1,807,478.6666666667055) translate(10.33950617283951 39.65277777777778)"/><path d="M862 423.8l-1.77.08-1.92.3-1.68.42-1.5.56-1.38.67-1.28.8-1.22.95-1.18 1.1-1.15 1.36-1.14 1.64-1.15 2.07-1.14 2.7-1.15 3.7-1.1 5.46-.95 9.63-.02 1.55" stroke="#3a414a" stroke-linejoin="round" fill="none"/><path d="M862.5 424.27l-.5.02-.04-1 .54-.04z" stroke="#3a414a" stroke-width=".05" fill="#3a414a"/><path d="M842.02 471.55l-4.43-14.33 9.26.13z" stroke="#3a414a" fill="#3a414a"/><path d="M1023.96 423.78l1.46.03 1.77.12 1.58.16 1.45.22 1.34.25 1.22.3 1.13.3 1.06.35.98.37.93.4.9.4.83.44.8.47.75.48.73.5.7.53.68.56.65.6.63.6.6.65.6.68.58.74.57.78.56.83.55.9.54.96.52 1.04.5 1.14.5 1.25.48 1.38.46 1.55.45 1.72.4 1.96.4 2.24.32 2.6.25 3.1.16 3.76v4.73l-.28 6.33-.82 9.6-5.77 48.04" stroke="#3a414a" stroke-linejoin="round" fill="none"/><path d="M1023.98 423.28l-.02 1h-.5v-1z" stroke="#3a414a" stroke-width=".05" fill="#3a414a"/><path d="M1044.1 541.55l-3.64-14.55 9.25.64z" stroke="#3a414a" fill="#3a414a"/><path d="M842 554.67l-.02.13-.04.62-.08.6-.1.6-.14.6-.16.58-.2.6-.23.6-.27.6-.32.62-.36.63-.42.65-.48.68-.56.7-.64.74-.76.8-.9.83-1.05.9-1.28.98-1.57 1.07-1.95 1.2-2.48 1.4-3.3 1.6-4.6 1.98-7.2 2.67-50 15.9-4.6 1.98-3.3 1.62-2.48 1.37-1.95 1.2-1.1.78" stroke="#3a414a" stroke-linejoin="round" fill="none"/><path d="M842 554.17l.5-.02v.54l-1-.03v-.53z" stroke="#3a414a" stroke-width=".05" fill="#3a414a"/><path d="M741.87 611.8l3.76-14.52 7.82 4.98z" stroke="#3a414a" fill="#3a414a"/><path d="M789 613.67c17.67 0 32 17.9 32 40s-14.33 40-32 40h-96c-17.67 0-32-17.9-32-40s14.33-40 32-40z" stroke="#3a414a" fill="#ff8f8f"/><use xlink:href="#e" transform="matrix(1,0,0,1,666,618.6666666667055) translate(15.807469135802473 26.52777777777778)"/><use xlink:href="#f" transform="matrix(1,0,0,1,666,618.6666666667055) translate(92.22722222222222 26.52777777777778)"/><use xlink:href="#g" transform="matrix(1,0,0,1,666,618.6666666667055) translate(53.400061728395066 53.19444444444445)"/><path d="M1044 624.67l.02.13.04.62.08.6.1.6.14.6.16.58.2.6.23.6.27.6.32.62.36.63.42.65.48.68.56.7.64.74.76.8.9.83 1.05.9 1.28.98 1.57 1.07 1.95 1.2 2.48 1.4 3.3 1.6 4.6 1.98 7.2 2.67 50 15.9 4.6 1.98 3.3 1.62 2.48 1.37 1.95 1.2 1.1.78" stroke="#3a414a" stroke-linejoin="round" fill="none"/><path d="M1044 624.17l.5-.02v.52l-1 .02v-.56z" stroke="#3a414a" stroke-width=".05" fill="#3a414a"/><path d="M1144.13 681.8l-11.58-9.54 7.82-4.98z" stroke="#3a414a" fill="#3a414a"/><path d="M1193 683.67c17.67 0 32 17.9 32 40s-14.33 40-32 40h-96c-17.67 0-32-17.9-32-40s14.33-40 32-40z" stroke="#3a414a" fill="#c3f7c8"/><g><use xlink:href="#h" transform="matrix(1,0,0,1,1070,688.6666666667055) translate(16.825987654320983 26.52777777777778)"/><use xlink:href="#i" transform="matrix(1,0,0,1,1070,688.6666666667055) translate(67.81364197530863 26.52777777777778)"/><use xlink:href="#j" transform="matrix(1,0,0,1,1070,688.6666666667055) translate(117.19635802469136 26.52777777777778)"/><use xlink:href="#k" transform="matrix(1,0,0,1,1070,688.6666666667055) translate(54.017345679012344 53.19444444444445)"/></g><defs><path fill="#3a414a" d="M240 0l2-218c-23 76-54 145-80 218h-23L58-218 59 0H30v-248h44l77 211c21-75 51-140 76-211h43V0h-30" id="l"/><path fill="#3a414a" d="M84 4C-5 8 30-112 23-190h32v120c0 31 7 50 39 49 72-2 45-101 50-169h31l1 190h-30c-1-10 1-25-2-33-11 22-28 36-60 37" id="m"/><path fill="#3a414a" d="M24 0v-261h32V0H24" id="n"/><path fill="#3a414a" d="M59-47c-2 24 18 29 38 22v24C64 9 27 4 27-40v-127H5v-23h24l9-43h21v43h35v23H59v120" id="o"/><path fill="#3a414a" d="M24-231v-30h32v30H24zM24 0v-190h32V0H24" id="p"/><path fill="#3a414a" d="M115-194c55 1 70 41 70 98S169 2 115 4C84 4 66-9 55-30l1 105H24l-1-265h31l2 30c10-21 28-34 59-34zm-8 174c40 0 45-34 45-75s-6-73-45-74c-42 0-51 32-51 76 0 43 10 73 51 73" id="q"/><path fill="#3a414a" d="M100-194c63 0 86 42 84 106H49c0 40 14 67 53 68 26 1 43-12 49-29l28 8c-11 28-37 45-77 45C44 4 14-33 15-96c1-61 26-98 85-98zm52 81c6-60-76-77-97-28-3 7-6 17-6 28h103" id="r"/><g id="a"><use transform="matrix(0.06172839506172839,0,0,0.06172839506172839,0,0)" xlink:href="#l"/><use transform="matrix(0.06172839506172839,0,0,0.06172839506172839,18.456790123456788,0)" xlink:href="#m"/><use transform="matrix(0.06172839506172839,0,0,0.06172839506172839,30.80246913580247,0)" xlink:href="#n"/><use transform="matrix(0.06172839506172839,0,0,0.06172839506172839,35.67901234567901,0)" xlink:href="#o"/><use transform="matrix(0.06172839506172839,0,0,0.06172839506172839,41.851851851851855,0)" xlink:href="#p"/><use transform="matrix(0.06172839506172839,0,0,0.06172839506172839,46.7283950617284,0)" xlink:href="#q"/><use transform="matrix(0.06172839506172839,0,0,0.06172839506172839,59.074074074074076,0)" xlink:href="#n"/><use transform="matrix(0.06172839506172839,0,0,0.06172839506172839,63.95061728395061,0)" xlink:href="#r"/></g><path fill="#3a414a" d="M30-248c118-7 216 8 213 122C240-48 200 0 122 0H30v-248zM63-27c89 8 146-16 146-99s-60-101-146-95v194" id="s"/><path fill="#3a414a" d="M100-194c62-1 85 37 85 99 1 63-27 99-86 99S16-35 15-95c0-66 28-99 85-99zM99-20c44 1 53-31 53-75 0-43-8-75-51-75s-53 32-53 75 10 74 51 75" id="t"/><path fill="#3a414a" d="M96-169c-40 0-48 33-48 73s9 75 48 75c24 0 41-14 43-38l32 2c-6 37-31 61-74 61-59 0-76-41-82-99-10-93 101-131 147-64 4 7 5 14 7 22l-32 3c-4-21-16-35-41-35" id="u"/><path fill="#3a414a" d="M210-169c-67 3-38 105-44 169h-31v-121c0-29-5-50-35-48C34-165 62-65 56 0H25l-1-190h30c1 10-1 24 2 32 10-44 99-50 107 0 11-21 27-35 58-36 85-2 47 119 55 194h-31v-121c0-29-5-49-35-48" id="v"/><path fill="#3a414a" d="M117-194c89-4 53 116 60 194h-32v-121c0-31-8-49-39-48C34-167 62-67 57 0H25l-1-190h30c1 10-1 24 2 32 11-22 29-35 61-36" id="w"/><path fill="#3a414a" d="M135-143c-3-34-86-38-87 0 15 53 115 12 119 90S17 21 10-45l28-5c4 36 97 45 98 0-10-56-113-15-118-90-4-57 82-63 122-42 12 7 21 19 24 35" id="x"/><g id="b"><use transform="matrix(0.06172839506172839,0,0,0.06172839506172839,0,0)" xlink:href="#s"/><use transform="matrix(0.06172839506172839,0,0,0.06172839506172839,15.987654320987653,0)" xlink:href="#t"/><use transform="matrix(0.06172839506172839,0,0,0.06172839506172839,28.333333333333332,0)" xlink:href="#u"/><use transform="matrix(0.06172839506172839,0,0,0.06172839506172839,39.44444444444444,0)" xlink:href="#m"/><use transform="matrix(0.06172839506172839,0,0,0.06172839506172839,51.79012345679012,0)" xlink:href="#v"/><use transform="matrix(0.06172839506172839,0,0,0.06172839506172839,70.24691358024691,0)" xlink:href="#r"/><use transform="matrix(0.06172839506172839,0,0,0.06172839506172839,82.5925925925926,0)" xlink:href="#w"/><use transform="matrix(0.06172839506172839,0,0,0.06172839506172839,94.93827160493828,0)" xlink:href="#o"/><use transform="matrix(0.06172839506172839,0,0,0.06172839506172839,101.11111111111111,0)" xlink:href="#x"/></g><path fill="#3a414a" d="M233-177c-1 41-23 64-60 70L243 0h-38l-65-103H63V0H30v-248c88 3 205-21 203 71zM63-129c60-2 137 13 137-47 0-61-80-42-137-45v92" id="y"/><path fill="#3a414a" d="M141-36C126-15 110 5 73 4 37 3 15-17 15-53c-1-64 63-63 125-63 3-35-9-54-41-54-24 1-41 7-42 31l-33-3c5-37 33-52 76-52 45 0 72 20 72 64v82c-1 20 7 32 28 27v20c-31 9-61-2-59-35zM48-53c0 20 12 33 32 33 41-3 63-29 60-74-43 2-92-5-92 41" id="z"/><g id="c"><use transform="matrix(0.06172839506172839,0,0,0.06172839506172839,0,0)" xlink:href="#y"/><use transform="matrix(0.06172839506172839,0,0,0.06172839506172839,15.987654320987653,0)" xlink:href="#r"/><use transform="matrix(0.06172839506172839,0,0,0.06172839506172839,28.333333333333332,0)" xlink:href="#z"/><use transform="matrix(0.06172839506172839,0,0,0.06172839506172839,40.67901234567901,0)" xlink:href="#n"/></g><path fill="#3a414a" d="M63-220v92h138v28H63V0H30v-248h175v28H63" id="A"/><path fill="#3a414a" d="M143 0L79-87 56-68V0H24v-261h32v163l83-92h37l-77 82L181 0h-38" id="B"/><g id="d"><use transform="matrix(0.06172839506172839,0,0,0.06172839506172839,0,0)" xlink:href="#A"/><use transform="matrix(0.06172839506172839,0,0,0.06172839506172839,13.518518518518517,0)" xlink:href="#z"/><use transform="matrix(0.06172839506172839,0,0,0.06172839506172839,25.864197530864196,0)" xlink:href="#B"/><use transform="matrix(0.06172839506172839,0,0,0.06172839506172839,36.9753086419753,0)" xlink:href="#r"/></g><path fill="#3a414a" d="M197 0v-115H63V0H30v-248h33v105h134v-105h34V0h-34" id="C"/><path fill="#3a414a" d="M114-163C36-179 61-72 57 0H25l-1-190h30c1 12-1 29 2 39 6-27 23-49 58-41v29" id="D"/><g id="e"><use transform="matrix(0.06172839506172839,0,0,0.06172839506172839,0,0)" xlink:href="#C"/><use transform="matrix(0.06172839506172839,0,0,0.06172839506172839,15.987654320987653,0)" xlink:href="#z"/><use transform="matrix(0.06172839506172839,0,0,0.06172839506172839,28.333333333333332,0)" xlink:href="#u"/><use transform="matrix(0.06172839506172839,0,0,0.06172839506172839,39.44444444444444,0)" xlink:href="#B"/><use transform="matrix(0.06172839506172839,0,0,0.06172839506172839,50.55555555555556,0)" xlink:href="#r"/><use transform="matrix(0.06172839506172839,0,0,0.06172839506172839,62.901234567901234,0)" xlink:href="#D"/></g><path fill="#3a414a" d="M177-190C167-65 218 103 67 71c-23-6-38-20-44-43l32-5c15 47 100 32 89-28v-30C133-14 115 1 83 1 29 1 15-40 15-95c0-56 16-97 71-98 29-1 48 16 59 35 1-10 0-23 2-32h30zM94-22c36 0 50-32 50-73 0-42-14-75-50-75-39 0-46 34-46 75s6 73 46 73" id="E"/><g id="f"><use transform="matrix(0.06172839506172839,0,0,0.06172839506172839,0,0)" xlink:href="#E"/><use transform="matrix(0.06172839506172839,0,0,0.06172839506172839,12.345679012345679,0)" xlink:href="#r"/><use transform="matrix(0.06172839506172839,0,0,0.06172839506172839,24.691358024691358,0)" xlink:href="#o"/><use transform="matrix(0.06172839506172839,0,0,0.06172839506172839,30.864197530864196,0)" xlink:href="#x"/></g><path fill="#3a414a" d="M85-194c31 0 48 13 60 33l-1-100h32l1 261h-30c-2-10 0-23-3-31C134-8 116 4 85 4 32 4 16-35 15-94c0-66 23-100 70-100zm9 24c-40 0-46 34-46 75 0 40 6 74 45 74 42 0 51-32 51-76 0-42-9-74-50-73" id="F"/><g id="g"><use transform="matrix(0.06172839506172839,0,0,0.06172839506172839,0,0)" xlink:href="#F"/><use transform="matrix(0.06172839506172839,0,0,0.06172839506172839,12.345679012345679,0)" xlink:href="#z"/><use transform="matrix(0.06172839506172839,0,0,0.06172839506172839,24.691358024691358,0)" xlink:href="#o"/><use transform="matrix(0.06172839506172839,0,0,0.06172839506172839,30.864197530864196,0)" xlink:href="#z"/></g><path fill="#3a414a" d="M137-103V0h-34v-103L8-248h37l75 118 75-118h37" id="G"/><g id="h"><use transform="matrix(0.06172839506172839,0,0,0.06172839506172839,0,0)" xlink:href="#G"/><use transform="matrix(0.06172839506172839,0,0,0.06172839506172839,12.777777777777777,0)" xlink:href="#t"/><use transform="matrix(0.06172839506172839,0,0,0.06172839506172839,25.123456790123456,0)" xlink:href="#m"/><use transform="matrix(0.06172839506172839,0,0,0.06172839506172839,37.46913580246913,0)" xlink:href="#D"/></g><g id="i"><use transform="matrix(0.06172839506172839,0,0,0.06172839506172839,0,0)" xlink:href="#F"/><use transform="matrix(0.06172839506172839,0,0,0.06172839506172839,12.345679012345679,0)" xlink:href="#z"/><use transform="matrix(0.06172839506172839,0,0,0.06172839506172839,24.691358024691358,0)" xlink:href="#o"/><use transform="matrix(0.06172839506172839,0,0,0.06172839506172839,30.864197530864196,0)" xlink:href="#z"/></g><g id="j"><use transform="matrix(0.06172839506172839,0,0,0.06172839506172839,0,0)" xlink:href="#p"/><use transform="matrix(0.06172839506172839,0,0,0.06172839506172839,4.876543209876543,0)" xlink:href="#x"/></g><path fill="#3a414a" d="M101-234c-31-9-42 10-38 44h38v23H63V0H32v-167H5v-23h27c-7-52 17-82 69-68v24" id="H"/><g id="k"><use transform="matrix(0.06172839506172839,0,0,0.06172839506172839,0,0)" xlink:href="#x"/><use transform="matrix(0.06172839506172839,0,0,0.06172839506172839,11.11111111111111,0)" xlink:href="#z"/><use transform="matrix(0.06172839506172839,0,0,0.06172839506172839,23.45679012345679,0)" xlink:href="#H"/><use transform="matrix(0.06172839506172839,0,0,0.06172839506172839,29.62962962962963,0)" xlink:href="#r"/></g></defs></g></svg>