<svg xmlns="http://www.w3.org/2000/svg" xmlns:xlink="http://www.w3.org/1999/xlink" xmlns:lucid="lucid" width="709.64" height="401.6"><g transform="translate(-303.6842105263159 -120)" lucid:page-tab-id="0_0"><path d="M0 0h1870.87v1322.83H0z" fill="#fff"/><path d="M502.53 214.27c12.8 0 23.15 13.8 23.15 30.8s-10.36 30.8-23.15 30.8h-69.48c-12.8 0-23.16-13.8-23.16-30.8s10.36-30.8 23.15-30.8z" stroke="#4881b3" stroke-width="3" fill="#f5fbff"/><use xlink:href="#a" transform="matrix(1,0,0,1,414.89473684210515,219.26666666666654) translate(37.05 30.65)"/><path d="M632.63 180c12.8 0 23.16 13.8 23.16 30.8s-10.38 30.8-23.17 30.8h-69.47c-12.8 0-23.16-13.8-23.16-30.8s10.37-30.8 23.16-30.8z" stroke="#4881b3" stroke-width="3" fill="#f5fbff"/><use xlink:href="#b" transform="matrix(1,0,0,1,545,185) translate(42.005 17.65)"/><use xlink:href="#c" transform="matrix(1,0,0,1,545,185) translate(12.054999999999994 39.25)"/><path d="M772.63 158.4c12.8 0 23.16 13.8 23.16 30.8S785.4 220 772.62 220h-69.47c-12.8 0-23.16-13.8-23.16-30.8s10.37-30.8 23.16-30.8z" stroke="#4881b3" stroke-width="3" fill="#f5fbff"/><use xlink:href="#d" transform="matrix(1,0,0,1,685,163.4) translate(6.529999999999996 17.65)"/><use xlink:href="#e" transform="matrix(1,0,0,1,685,163.4) translate(69.48 17.65)"/><use xlink:href="#f" transform="matrix(1,0,0,1,685,163.4) translate(27.005000000000003 39.25)"/><path d="M688.95 255.6c12.8 0 23.16 13.8 23.16 30.8s-10.36 30.8-23.15 30.8h-69.48c-12.8 0-23.15-13.8-23.15-30.8s10.36-30.8 23.15-30.8z" stroke="#4881b3" stroke-width="3" fill="#f5fbff"/><use xlink:href="#g" transform="matrix(1,0,0,1,601.3157894736842,260.59999999999985) translate(6.024999999999999 30.65)"/><use xlink:href="#f" transform="matrix(1,0,0,1,601.3157894736842,260.59999999999985) translate(48.975 30.65)"/><path d="M832.63 246.4c12.8 0 23.16 13.8 23.16 30.8S845.4 308 832.62 308h-69.47c-12.8 0-23.16-13.8-23.16-30.8s10.37-30.8 23.16-30.8z" stroke="#4881b3" stroke-width="3" fill="#f5fbff"/><use xlink:href="#h" transform="matrix(1,0,0,1,745,251.39999999999986) translate(22.054999999999993 17.65)"/><use xlink:href="#i" transform="matrix(1,0,0,1,745,251.39999999999986) translate(29.555 39.25)"/><path d="M829.75 331.2c16.7 0 30.25 16.5 30.25 36.87 0 20.36-13.54 36.86-30.25 36.86h-90.73c-16.7 0-30.25-16.5-30.25-36.86s13.54-36.87 30.25-36.87z" stroke="#4881b3" stroke-width="3" fill="#f5fbff"/><use xlink:href="#j" transform="matrix(1,0,0,1,713.7719298245613,336.19999999999976) translate(48.525 26.4)"/><use xlink:href="#k" transform="matrix(1,0,0,1,713.7719298245613,336.19999999999976) translate(8.12999999999999 48)"/><path d="M552.63 284.8c12.8 0 23.16 13.8 23.16 30.8s-10.38 30.8-23.17 30.8h-69.47c-12.8 0-23.16-13.8-23.16-30.8s10.37-30.8 23.16-30.8z" stroke="#4881b3" stroke-width="3" fill="#f5fbff"/><use xlink:href="#l" transform="matrix(1,0,0,1,465,289.7999999999999) translate(15.554999999999994 17.65)"/><use xlink:href="#m" transform="matrix(1,0,0,1,465,289.7999999999999) translate(29.055 39.25)"/><path d="M672.63 340c12.8 0 23.16 13.8 23.16 30.8s-10.38 30.8-23.17 30.8h-69.47c-12.8 0-23.16-13.8-23.16-30.8s10.37-30.8 23.16-30.8z" stroke="#4881b3" stroke-width="3" fill="#f5fbff"/><use xlink:href="#n" transform="matrix(1,0,0,1,585,345) translate(20.554999999999993 17.65)"/><use xlink:href="#o" transform="matrix(1,0,0,1,585,345) translate(31.53 39.25)"/><path d="M512.63 140c12.8 0 23.16 13.8 23.16 30.8s-10.38 30.8-23.17 30.8h-69.47c-12.8 0-23.16-13.8-23.16-30.8s10.37-30.8 23.16-30.8z" stroke="#4881b3" stroke-width="3" fill="#f5fbff"/><use xlink:href="#p" transform="matrix(1,0,0,1,425,145) translate(17.64999999999999 30.65)"/><path d="M416.32 284.8c12.8 0 23.15 13.8 23.15 30.8s-10.36 30.8-23.15 30.8h-69.48c-12.8 0-23.16-13.8-23.16-30.8s10.37-30.8 23.16-30.8z" stroke="#4881b3" stroke-width="3" fill="#f5fbff"/><use xlink:href="#q" transform="matrix(1,0,0,1,328.68421052631595,289.79999999999995) translate(2.625 30.65)"/><use xlink:href="#r" transform="matrix(1,0,0,1,328.68421052631595,289.79999999999995) translate(54.575 30.65)"/><path d="M543.86 360c12.8 0 23.16 13.8 23.16 30.8s-10.37 30.8-23.16 30.8H474.4c-12.8 0-23.17-13.8-23.17-30.8S461.6 360 474.4 360z" stroke="#4881b3" stroke-width="3" fill="#f5fbff"/><use xlink:href="#s" transform="matrix(1,0,0,1,456.2280701754387,365) translate(18.574999999999996 30.65)"/><path d="M681.6 420c15 0 27.17 13.8 27.17 30.8s-12.16 30.8-27.16 30.8h-81.46c-15 0-27.16-13.8-27.16-30.8s12.16-30.8 27.16-30.8z" stroke="#4881b3" stroke-width="3" fill="#f5fbff"/><use xlink:href="#t" transform="matrix(1,0,0,1,577.9824561403509,425) translate(9.599999999999994 30.65)"/><path d="M836.84 418.93c12.8 0 23.16 13.8 23.16 30.8s-10.37 30.8-23.16 30.8h-69.47c-12.8 0-23.16-13.8-23.16-30.8s10.38-30.8 23.17-30.8z" stroke="#4881b3" stroke-width="3" fill="#f5fbff"/><use xlink:href="#u" transform="matrix(1,0,0,1,749.2105263157895,423.933333333333) translate(2.049999999999997 30.65)"/><use xlink:href="#v" transform="matrix(1,0,0,1,749.2105263157895,423.933333333333) translate(64 30.65)"/><path d="M965.6 389.6c12.8 0 23.17 13.8 23.17 30.8s-10.37 30.8-23.16 30.8h-69.46c-12.8 0-23.16-13.8-23.16-30.8s10.37-30.8 23.16-30.8z" stroke="#4881b3" stroke-width="3" fill="#f5fbff"/><use xlink:href="#w" transform="matrix(1,0,0,1,877.9824561403508,394.5999999999998) translate(27.055 17.65)"/><use xlink:href="#x" transform="matrix(1,0,0,1,877.9824561403508,394.5999999999998) translate(1.404999999999996 39.25)"/><path d="M970.17 306.4c12.8 0 23.16 13.8 23.16 30.8S982.96 368 970.17 368H900.7c-12.8 0-23.16-13.8-23.16-30.8s10.37-30.8 23.16-30.8z" stroke="#4881b3" stroke-width="3" fill="#f5fbff"/><g><use xlink:href="#y" transform="matrix(1,0,0,1,882.5383340240364,311.39999999999986) translate(13.554999999999994 17.65)"/><use xlink:href="#f" transform="matrix(1,0,0,1,882.5383340240364,311.39999999999986) translate(27.005000000000003 39.25)"/></g><path d="M912.63 161.6c12.8 0 23.16 13.8 23.16 30.8s-10.38 30.8-23.17 30.8h-69.47c-12.8 0-23.16-13.8-23.16-30.8s10.37-30.8 23.16-30.8z" stroke="#4881b3" stroke-width="3" fill="#f5fbff"/><g><use xlink:href="#z" transform="matrix(1,0,0,1,825,166.59999999999997) translate(7.625 30.65)"/><use xlink:href="#A" transform="matrix(1,0,0,1,825,166.59999999999997) translate(56.625 30.65)"/></g><path d="M416.32 378.4c12.8 0 23.15 13.8 23.15 30.8S429.1 440 416.32 440h-69.48c-12.8 0-23.16-13.8-23.16-30.8s10.37-30.8 23.16-30.8z" stroke="#4881b3" stroke-width="3" fill="#f5fbff"/><g><use xlink:href="#B" transform="matrix(1,0,0,1,328.6842105263159,383.40000000000003) translate(12.549999999999997 30.65)"/><use xlink:href="#C" transform="matrix(1,0,0,1,328.6842105263159,383.40000000000003) translate(55.5 30.65)"/></g><path d="M532.1 440c12.8 0 23.16 13.8 23.16 30.8s-10.36 30.8-23.15 30.8h-69.47c-12.8 0-23.16-13.8-23.16-30.8s10.37-30.8 23.16-30.8z" stroke="#4881b3" stroke-width="3" fill="#f5fbff"/><g><use xlink:href="#D" transform="matrix(1,0,0,1,444.47368421052636,445) translate(1.5749999999999957 20.9)"/><use xlink:href="#E" transform="matrix(1,0,0,1,444.47368421052636,445) translate(38.525 20.9)"/><use xlink:href="#F" transform="matrix(1,0,0,1,444.47368421052636,445) translate(27.03 42.5)"/></g><path d="M970.17 234c12.8 0 23.16 13.8 23.16 30.8s-10.37 30.8-23.16 30.8H900.7c-12.8 0-23.16-13.8-23.16-30.8S887.9 234 900.7 234z" stroke="#4881b3" stroke-width="3" fill="#f5fbff"/><g><use xlink:href="#G" transform="matrix(1,0,0,1,882.5383340240364,238.99999999999991) translate(19.57999999999999 17.65)"/><use xlink:href="#H" transform="matrix(1,0,0,1,882.5383340240364,238.99999999999991) translate(12.554999999999994 39.25)"/></g><defs><path fill="#1d262b" d="M212-179c-10-28-35-45-73-45-59 0-87 40-87 99 0 60 29 101 89 101 43 0 62-24 78-52l27 14C228-24 195 4 139 4 59 4 22-46 18-125c-6-104 99-153 187-111 19 9 31 26 39 46" id="I"/><path fill="#1d262b" d="M24-231v-30h32v30H24zM24 0v-190h32V0H24" id="J"/><path fill="#1d262b" d="M59-47c-2 24 18 29 38 22v24C64 9 27 4 27-40v-127H5v-23h24l9-43h21v43h35v23H59v120" id="K"/><path fill="#1d262b" d="M100-194c63 0 86 42 84 106H49c0 40 14 67 53 68 26 1 43-12 49-29l28 8c-11 28-37 45-77 45C44 4 14-33 15-96c1-61 26-98 85-98zm52 81c6-60-76-77-97-28-3 7-6 17-6 28h103" id="L"/><g id="a"><use transform="matrix(0.05,0,0,0.05,0,0)" xlink:href="#I"/><use transform="matrix(0.05,0,0,0.05,12.950000000000001,0)" xlink:href="#J"/><use transform="matrix(0.05,0,0,0.05,16.900000000000002,0)" xlink:href="#K"/><use transform="matrix(0.05,0,0,0.05,21.900000000000002,0)" xlink:href="#L"/></g><path fill="#1d262b" d="M160-131c35 5 61 23 61 61C221 17 115-2 30 0v-248c76 3 177-17 177 60 0 33-19 50-47 57zm-97-11c50-1 110 9 110-42 0-47-63-36-110-37v79zm0 115c55-2 124 14 124-45 0-56-70-42-124-44v89" id="M"/><g id="b"><use transform="matrix(0.05,0,0,0.05,0,0)" xlink:href="#M"/><use transform="matrix(0.05,0,0,0.05,12,0)" xlink:href="#L"/></g><path fill="#1d262b" d="M117-194c89-4 53 116 60 194h-32v-121c0-31-8-49-39-48C34-167 62-67 57 0H25l-1-190h30c1 10-1 24 2 32 11-22 29-35 61-36" id="N"/><path fill="#1d262b" d="M100-194c62-1 85 37 85 99 1 63-27 99-86 99S16-35 15-95c0-66 28-99 85-99zM99-20c44 1 53-31 53-75 0-43-8-75-51-75s-53 32-53 75 10 74 51 75" id="O"/><path fill="#1d262b" d="M108 0H70L1-190h34L89-25l56-165h34" id="P"/><path fill="#1d262b" d="M141-36C126-15 110 5 73 4 37 3 15-17 15-53c-1-64 63-63 125-63 3-35-9-54-41-54-24 1-41 7-42 31l-33-3c5-37 33-52 76-52 45 0 72 20 72 64v82c-1 20 7 32 28 27v20c-31 9-61-2-59-35zM48-53c0 20 12 33 32 33 41-3 63-29 60-74-43 2-92-5-92 41" id="Q"/><g id="c"><use transform="matrix(0.05,0,0,0.05,0,0)" xlink:href="#J"/><use transform="matrix(0.05,0,0,0.05,3.95,0)" xlink:href="#N"/><use transform="matrix(0.05,0,0,0.05,13.949999999999998,0)" xlink:href="#N"/><use transform="matrix(0.05,0,0,0.05,23.95,0)" xlink:href="#O"/><use transform="matrix(0.05,0,0,0.05,33.95,0)" xlink:href="#P"/><use transform="matrix(0.05,0,0,0.05,42.95,0)" xlink:href="#Q"/><use transform="matrix(0.05,0,0,0.05,52.95,0)" xlink:href="#K"/><use transform="matrix(0.05,0,0,0.05,57.95,0)" xlink:href="#J"/><use transform="matrix(0.05,0,0,0.05,61.900000000000006,0)" xlink:href="#P"/><use transform="matrix(0.05,0,0,0.05,70.9,0)" xlink:href="#L"/></g><path fill="#1d262b" d="M33 0v-248h34V0H33" id="R"/><path fill="#1d262b" d="M85-194c31 0 48 13 60 33l-1-100h32l1 261h-30c-2-10 0-23-3-31C134-8 116 4 85 4 32 4 16-35 15-94c0-66 23-100 70-100zm9 24c-40 0-46 34-46 75 0 40 6 74 45 74 42 0 51-32 51-76 0-42-9-74-50-73" id="S"/><path fill="#1d262b" d="M179-190L93 31C79 59 56 82 12 73V49c39 6 53-20 64-50L1-190h34L92-34l54-156h33" id="T"/><g id="d"><use transform="matrix(0.05,0,0,0.05,0,0)" xlink:href="#R"/><use transform="matrix(0.05,0,0,0.05,5,0)" xlink:href="#S"/><use transform="matrix(0.05,0,0,0.05,15,0)" xlink:href="#L"/><use transform="matrix(0.05,0,0,0.05,25,0)" xlink:href="#N"/><use transform="matrix(0.05,0,0,0.05,35,0)" xlink:href="#K"/><use transform="matrix(0.05,0,0,0.05,40,0)" xlink:href="#J"/><use transform="matrix(0.05,0,0,0.05,43.95,0)" xlink:href="#K"/><use transform="matrix(0.05,0,0,0.05,48.95,0)" xlink:href="#T"/></g><g id="e"><use transform="matrix(0.05,0,0,0.05,0,0)" xlink:href="#Q"/><use transform="matrix(0.05,0,0,0.05,10,0)" xlink:href="#N"/><use transform="matrix(0.05,0,0,0.05,20,0)" xlink:href="#S"/></g><path fill="#1d262b" d="M185-189c-5-48-123-54-124 2 14 75 158 14 163 119 3 78-121 87-175 55-17-10-28-26-33-46l33-7c5 56 141 63 141-1 0-78-155-14-162-118-5-82 145-84 179-34 5 7 8 16 11 25" id="U"/><path fill="#1d262b" d="M101-234c-31-9-42 10-38 44h38v23H63V0H32v-167H5v-23h27c-7-52 17-82 69-68v24" id="V"/><g id="f"><use transform="matrix(0.05,0,0,0.05,0,0)" xlink:href="#U"/><use transform="matrix(0.05,0,0,0.05,12,0)" xlink:href="#Q"/><use transform="matrix(0.05,0,0,0.05,22,0)" xlink:href="#V"/><use transform="matrix(0.05,0,0,0.05,27,0)" xlink:href="#L"/><use transform="matrix(0.05,0,0,0.05,37,0)" xlink:href="#K"/><use transform="matrix(0.05,0,0,0.05,42,0)" xlink:href="#T"/></g><path fill="#1d262b" d="M30-248c118-7 216 8 213 122C240-48 200 0 122 0H30v-248zM63-27c89 8 146-16 146-99s-60-101-146-95v194" id="W"/><g id="g"><use transform="matrix(0.05,0,0,0.05,0,0)" xlink:href="#W"/><use transform="matrix(0.05,0,0,0.05,12.950000000000001,0)" xlink:href="#Q"/><use transform="matrix(0.05,0,0,0.05,22.950000000000003,0)" xlink:href="#K"/><use transform="matrix(0.05,0,0,0.05,27.950000000000003,0)" xlink:href="#Q"/></g><path fill="#1d262b" d="M106-169C34-169 62-67 57 0H25v-261h32l-1 103c12-21 28-36 61-36 89 0 53 116 60 194h-32v-121c2-32-8-49-39-48" id="X"/><path fill="#1d262b" d="M114-163C36-179 61-72 57 0H25l-1-190h30c1 12-1 29 2 39 6-27 23-49 58-41v29" id="Y"/><path fill="#1d262b" d="M177-190C167-65 218 103 67 71c-23-6-38-20-44-43l32-5c15 47 100 32 89-28v-30C133-14 115 1 83 1 29 1 15-40 15-95c0-56 16-97 71-98 29-1 48 16 59 35 1-10 0-23 2-32h30zM94-22c36 0 50-32 50-73 0-42-14-75-50-75-39 0-46 34-46 75s6 73 46 73" id="Z"/><g id="h"><use transform="matrix(0.05,0,0,0.05,0,0)" xlink:href="#U"/><use transform="matrix(0.05,0,0,0.05,12,0)" xlink:href="#X"/><use transform="matrix(0.05,0,0,0.05,22,0)" xlink:href="#Q"/><use transform="matrix(0.05,0,0,0.05,32,0)" xlink:href="#Y"/><use transform="matrix(0.05,0,0,0.05,37.95,0)" xlink:href="#J"/><use transform="matrix(0.05,0,0,0.05,41.900000000000006,0)" xlink:href="#N"/><use transform="matrix(0.05,0,0,0.05,51.900000000000006,0)" xlink:href="#Z"/></g><path fill="#1d262b" d="M233-177c-1 41-23 64-60 70L243 0h-38l-65-103H63V0H30v-248c88 3 205-21 203 71zM63-129c60-2 137 13 137-47 0-61-80-42-137-45v92" id="aa"/><path fill="#1d262b" d="M84 4C-5 8 30-112 23-190h32v120c0 31 7 50 39 49 72-2 45-101 50-169h31l1 190h-30c-1-10 1-25-2-33-11 22-28 36-60 37" id="ab"/><path fill="#1d262b" d="M24 0v-261h32V0H24" id="ac"/><path fill="#1d262b" d="M135-143c-3-34-86-38-87 0 15 53 115 12 119 90S17 21 10-45l28-5c4 36 97 45 98 0-10-56-113-15-118-90-4-57 82-63 122-42 12 7 21 19 24 35" id="ad"/><g id="i"><use transform="matrix(0.05,0,0,0.05,0,0)" xlink:href="#aa"/><use transform="matrix(0.05,0,0,0.05,12.950000000000001,0)" xlink:href="#ab"/><use transform="matrix(0.05,0,0,0.05,22.950000000000003,0)" xlink:href="#ac"/><use transform="matrix(0.05,0,0,0.05,26.900000000000002,0)" xlink:href="#L"/><use transform="matrix(0.05,0,0,0.05,36.900000000000006,0)" xlink:href="#ad"/></g><path fill="#1d262b" d="M96-169c-40 0-48 33-48 73s9 75 48 75c24 0 41-14 43-38l32 2c-6 37-31 61-74 61-59 0-76-41-82-99-10-93 101-131 147-64 4 7 5 14 7 22l-32 3c-4-21-16-35-41-35" id="ae"/><path fill="#1d262b" d="M143 0L79-87 56-68V0H24v-261h32v163l83-92h37l-77 82L181 0h-38" id="af"/><g id="j"><use transform="matrix(0.05,0,0,0.05,0,0)" xlink:href="#M"/><use transform="matrix(0.05,0,0,0.05,12,0)" xlink:href="#ac"/><use transform="matrix(0.05,0,0,0.05,15.949999999999998,0)" xlink:href="#O"/><use transform="matrix(0.05,0,0,0.05,25.950000000000003,0)" xlink:href="#ae"/><use transform="matrix(0.05,0,0,0.05,34.95,0)" xlink:href="#af"/></g><path fill="#1d262b" d="M210-169c-67 3-38 105-44 169h-31v-121c0-29-5-50-35-48C34-165 62-65 56 0H25l-1-190h30c1 10-1 24 2 32 10-44 99-50 107 0 11-21 27-35 58-36 85-2 47 119 55 194h-31v-121c0-29-5-49-35-48" id="ag"/><g id="k"><use transform="matrix(0.05,0,0,0.05,0,0)" xlink:href="#I"/><use transform="matrix(0.05,0,0,0.05,12.950000000000001,0)" xlink:href="#O"/><use transform="matrix(0.05,0,0,0.05,22.950000000000003,0)" xlink:href="#ag"/><use transform="matrix(0.05,0,0,0.05,37.900000000000006,0)" xlink:href="#ag"/><use transform="matrix(0.05,0,0,0.05,52.85,0)" xlink:href="#ab"/><use transform="matrix(0.05,0,0,0.05,62.85,0)" xlink:href="#N"/><use transform="matrix(0.05,0,0,0.05,72.85000000000001,0)" xlink:href="#J"/><use transform="matrix(0.05,0,0,0.05,76.80000000000001,0)" xlink:href="#ae"/><use transform="matrix(0.05,0,0,0.05,85.80000000000001,0)" xlink:href="#Q"/><use transform="matrix(0.05,0,0,0.05,95.80000000000001,0)" xlink:href="#K"/><use transform="matrix(0.05,0,0,0.05,100.80000000000001,0)" xlink:href="#J"/><use transform="matrix(0.05,0,0,0.05,104.75,0)" xlink:href="#O"/><use transform="matrix(0.05,0,0,0.05,114.75,0)" xlink:href="#N"/></g><path fill="#1d262b" d="M232-93c-1 65-40 97-104 97C67 4 28-28 28-90v-158h33c8 89-33 224 67 224 102 0 64-133 71-224h33v155" id="ah"/><path fill="#1d262b" d="M206 0h-36l-40-164L89 0H53L-1-190h32L70-26l43-164h34l41 164 42-164h31" id="ai"/><g id="l"><use transform="matrix(0.05,0,0,0.05,0,0)" xlink:href="#ah"/><use transform="matrix(0.05,0,0,0.05,12.950000000000001,0)" xlink:href="#N"/><use transform="matrix(0.05,0,0,0.05,22.950000000000003,0)" xlink:href="#af"/><use transform="matrix(0.05,0,0,0.05,31.950000000000003,0)" xlink:href="#N"/><use transform="matrix(0.05,0,0,0.05,41.95,0)" xlink:href="#O"/><use transform="matrix(0.05,0,0,0.05,51.95,0)" xlink:href="#ai"/><use transform="matrix(0.05,0,0,0.05,64.9,0)" xlink:href="#N"/></g><g id="m"><use transform="matrix(0.05,0,0,0.05,0,0)" xlink:href="#ah"/><use transform="matrix(0.05,0,0,0.05,12.950000000000001,0)" xlink:href="#ad"/><use transform="matrix(0.05,0,0,0.05,21.950000000000003,0)" xlink:href="#L"/><use transform="matrix(0.05,0,0,0.05,31.950000000000003,0)" xlink:href="#Y"/><use transform="matrix(0.05,0,0,0.05,37.900000000000006,0)" xlink:href="#ad"/></g><g id="n"><use transform="matrix(0.05,0,0,0.05,0,0)" xlink:href="#ah"/><use transform="matrix(0.05,0,0,0.05,12.950000000000001,0)" xlink:href="#N"/><use transform="matrix(0.05,0,0,0.05,22.950000000000003,0)" xlink:href="#af"/><use transform="matrix(0.05,0,0,0.05,31.950000000000003,0)" xlink:href="#O"/><use transform="matrix(0.05,0,0,0.05,41.95,0)" xlink:href="#ai"/><use transform="matrix(0.05,0,0,0.05,54.900000000000006,0)" xlink:href="#N"/></g><path fill="#1d262b" d="M30 0v-248h33v221h125V0H30" id="aj"/><g id="o"><use transform="matrix(0.05,0,0,0.05,0,0)" xlink:href="#aj"/><use transform="matrix(0.05,0,0,0.05,10,0)" xlink:href="#J"/><use transform="matrix(0.05,0,0,0.05,13.949999999999998,0)" xlink:href="#N"/><use transform="matrix(0.05,0,0,0.05,23.95,0)" xlink:href="#af"/><use transform="matrix(0.05,0,0,0.05,32.95,0)" xlink:href="#ad"/></g><path fill="#1d262b" d="M63-220v92h138v28H63V0H30v-248h175v28H63" id="ak"/><g id="p"><use transform="matrix(0.05,0,0,0.05,0,0)" xlink:href="#ak"/><use transform="matrix(0.05,0,0,0.05,10.950000000000001,0)" xlink:href="#J"/><use transform="matrix(0.05,0,0,0.05,14.9,0)" xlink:href="#Y"/><use transform="matrix(0.05,0,0,0.05,20.85,0)" xlink:href="#L"/><use transform="matrix(0.05,0,0,0.05,30.85,0)" xlink:href="#ai"/><use transform="matrix(0.05,0,0,0.05,43.800000000000004,0)" xlink:href="#Q"/><use transform="matrix(0.05,0,0,0.05,53.800000000000004,0)" xlink:href="#ac"/><use transform="matrix(0.05,0,0,0.05,57.75,0)" xlink:href="#ac"/><use transform="matrix(0.05,0,0,0.05,61.70000000000002,0)" xlink:href="#ad"/></g><path fill="#1d262b" d="M115-194c55 1 70 41 70 98S169 2 115 4C84 4 66-9 55-30l1 105H24l-1-265h31l2 30c10-21 28-34 59-34zm-8 174c40 0 45-34 45-75s-6-73-45-74c-42 0-51 32-51 76 0 43 10 73 51 73" id="al"/><g id="q"><use transform="matrix(0.05,0,0,0.05,0,0)" xlink:href="#U"/><use transform="matrix(0.05,0,0,0.05,12,0)" xlink:href="#al"/><use transform="matrix(0.05,0,0,0.05,22,0)" xlink:href="#Q"/><use transform="matrix(0.05,0,0,0.05,32,0)" xlink:href="#ag"/></g><g id="r"><use transform="matrix(0.05,0,0,0.05,0,0)" xlink:href="#ak"/><use transform="matrix(0.05,0,0,0.05,10.950000000000001,0)" xlink:href="#J"/><use transform="matrix(0.05,0,0,0.05,14.9,0)" xlink:href="#ac"/><use transform="matrix(0.05,0,0,0.05,18.85,0)" xlink:href="#K"/><use transform="matrix(0.05,0,0,0.05,23.85,0)" xlink:href="#L"/><use transform="matrix(0.05,0,0,0.05,33.85,0)" xlink:href="#Y"/><use transform="matrix(0.05,0,0,0.05,39.800000000000004,0)" xlink:href="#ad"/></g><path fill="#1d262b" d="M205 0l-28-72H64L36 0H1l101-248h38L239 0h-34zm-38-99l-47-123c-12 45-31 82-46 123h93" id="am"/><g id="s"><use transform="matrix(0.05,0,0,0.05,0,0)" xlink:href="#am"/><use transform="matrix(0.05,0,0,0.05,12,0)" xlink:href="#N"/><use transform="matrix(0.05,0,0,0.05,22,0)" xlink:href="#K"/><use transform="matrix(0.05,0,0,0.05,27,0)" xlink:href="#J"/><use transform="matrix(0.05,0,0,0.05,30.950000000000003,0)" xlink:href="#P"/><use transform="matrix(0.05,0,0,0.05,39.95,0)" xlink:href="#J"/><use transform="matrix(0.05,0,0,0.05,43.900000000000006,0)" xlink:href="#Y"/><use transform="matrix(0.05,0,0,0.05,49.85000000000001,0)" xlink:href="#ab"/><use transform="matrix(0.05,0,0,0.05,59.85,0)" xlink:href="#ad"/></g><path fill="#1d262b" d="M16-82v-28h88v28H16" id="an"/><g id="t"><use transform="matrix(0.05,0,0,0.05,0,0)" xlink:href="#am"/><use transform="matrix(0.05,0,0,0.05,12,0)" xlink:href="#N"/><use transform="matrix(0.05,0,0,0.05,22,0)" xlink:href="#K"/><use transform="matrix(0.05,0,0,0.05,27,0)" xlink:href="#J"/><use transform="matrix(0.05,0,0,0.05,30.950000000000003,0)" xlink:href="#an"/><use transform="matrix(0.05,0,0,0.05,36.9,0)" xlink:href="#U"/><use transform="matrix(0.05,0,0,0.05,48.9,0)" xlink:href="#al"/><use transform="matrix(0.05,0,0,0.05,58.900000000000006,0)" xlink:href="#T"/><use transform="matrix(0.05,0,0,0.05,67.9,0)" xlink:href="#ai"/><use transform="matrix(0.05,0,0,0.05,80.85000000000001,0)" xlink:href="#Q"/><use transform="matrix(0.05,0,0,0.05,90.85000000000001,0)" xlink:href="#Y"/><use transform="matrix(0.05,0,0,0.05,96.80000000000001,0)" xlink:href="#L"/></g><g id="u"><use transform="matrix(0.05,0,0,0.05,0,0)" xlink:href="#U"/><use transform="matrix(0.05,0,0,0.05,12,0)" xlink:href="#L"/><use transform="matrix(0.05,0,0,0.05,22,0)" xlink:href="#ae"/><use transform="matrix(0.05,0,0,0.05,31,0)" xlink:href="#ab"/><use transform="matrix(0.05,0,0,0.05,41,0)" xlink:href="#Y"/><use transform="matrix(0.05,0,0,0.05,46.95,0)" xlink:href="#L"/></g><g id="v"><use transform="matrix(0.05,0,0,0.05,0,0)" xlink:href="#U"/><use transform="matrix(0.05,0,0,0.05,12,0)" xlink:href="#J"/><use transform="matrix(0.05,0,0,0.05,15.949999999999998,0)" xlink:href="#K"/><use transform="matrix(0.05,0,0,0.05,20.95,0)" xlink:href="#L"/><use transform="matrix(0.05,0,0,0.05,30.950000000000003,0)" xlink:href="#ad"/></g><path fill="#1d262b" d="M140-251c81 0 123 46 123 126C263-46 219 4 140 4 59 4 17-45 17-125s42-126 123-126zm0 227c63 0 89-41 89-101s-29-99-89-99c-61 0-89 39-89 99S79-25 140-24" id="ao"/><g id="w"><use transform="matrix(0.05,0,0,0.05,0,0)" xlink:href="#ao"/><use transform="matrix(0.05,0,0,0.05,14,0)" xlink:href="#N"/><use transform="matrix(0.05,0,0,0.05,24,0)" xlink:href="#ac"/><use transform="matrix(0.05,0,0,0.05,27.950000000000003,0)" xlink:href="#J"/><use transform="matrix(0.05,0,0,0.05,31.899999999999995,0)" xlink:href="#N"/><use transform="matrix(0.05,0,0,0.05,41.9,0)" xlink:href="#L"/></g><path fill="#1d262b" d="M127-220V0H93v-220H8v-28h204v28h-85" id="ap"/><g id="x"><use transform="matrix(0.05,0,0,0.05,0,0)" xlink:href="#ap"/><use transform="matrix(0.05,0,0,0.05,10.3,0)" xlink:href="#Y"/><use transform="matrix(0.05,0,0,0.05,16.25,0)" xlink:href="#Q"/><use transform="matrix(0.05,0,0,0.05,26.25,0)" xlink:href="#N"/><use transform="matrix(0.05,0,0,0.05,36.25,0)" xlink:href="#ad"/><use transform="matrix(0.05,0,0,0.05,45.25,0)" xlink:href="#Q"/><use transform="matrix(0.05,0,0,0.05,55.25,0)" xlink:href="#ae"/><use transform="matrix(0.05,0,0,0.05,64.25,0)" xlink:href="#K"/><use transform="matrix(0.05,0,0,0.05,69.25,0)" xlink:href="#J"/><use transform="matrix(0.05,0,0,0.05,73.2,0)" xlink:href="#O"/><use transform="matrix(0.05,0,0,0.05,83.2,0)" xlink:href="#N"/><use transform="matrix(0.05,0,0,0.05,93.2,0)" xlink:href="#ad"/></g><path fill="#1d262b" d="M30-248c87 1 191-15 191 75 0 78-77 80-158 76V0H30v-248zm33 125c57 0 124 11 124-50 0-59-68-47-124-48v98" id="aq"/><g id="y"><use transform="matrix(0.05,0,0,0.05,0,0)" xlink:href="#aq"/><use transform="matrix(0.05,0,0,0.05,12,0)" xlink:href="#Q"/><use transform="matrix(0.05,0,0,0.05,22,0)" xlink:href="#ad"/><use transform="matrix(0.05,0,0,0.05,31,0)" xlink:href="#ad"/><use transform="matrix(0.05,0,0,0.05,40,0)" xlink:href="#ai"/><use transform="matrix(0.05,0,0,0.05,52.95,0)" xlink:href="#O"/><use transform="matrix(0.05,0,0,0.05,62.95,0)" xlink:href="#Y"/><use transform="matrix(0.05,0,0,0.05,68.9,0)" xlink:href="#S"/></g><g id="z"><use transform="matrix(0.05,0,0,0.05,0,0)" xlink:href="#ao"/><use transform="matrix(0.05,0,0,0.05,14,0)" xlink:href="#al"/><use transform="matrix(0.05,0,0,0.05,24,0)" xlink:href="#L"/><use transform="matrix(0.05,0,0,0.05,34,0)" xlink:href="#N"/></g><path fill="#1d262b" d="M266 0h-40l-56-210L115 0H75L2-248h35L96-30l15-64 43-154h32l59 218 59-218h35" id="ar"/><g id="A"><use transform="matrix(0.05,0,0,0.05,0,0)" xlink:href="#ar"/><use transform="matrix(0.05,0,0,0.05,16.95,0)" xlink:href="#J"/><use transform="matrix(0.05,0,0,0.05,20.9,0)" xlink:href="#an"/><use transform="matrix(0.05,0,0,0.05,26.849999999999994,0)" xlink:href="#ak"/><use transform="matrix(0.05,0,0,0.05,37.8,0)" xlink:href="#J"/></g><g id="B"><use transform="matrix(0.05,0,0,0.05,0,0)" xlink:href="#ah"/><use transform="matrix(0.05,0,0,0.05,12.950000000000001,0)" xlink:href="#al"/><use transform="matrix(0.05,0,0,0.05,22.950000000000003,0)" xlink:href="#K"/><use transform="matrix(0.05,0,0,0.05,27.950000000000003,0)" xlink:href="#O"/></g><g id="C"><use transform="matrix(0.05,0,0,0.05,0,0)" xlink:href="#W"/><use transform="matrix(0.05,0,0,0.05,12.950000000000001,0)" xlink:href="#Q"/><use transform="matrix(0.05,0,0,0.05,22.950000000000003,0)" xlink:href="#K"/><use transform="matrix(0.05,0,0,0.05,27.950000000000003,0)" xlink:href="#L"/></g><g id="D"><use transform="matrix(0.05,0,0,0.05,0,0)" xlink:href="#ah"/><use transform="matrix(0.05,0,0,0.05,12.950000000000001,0)" xlink:href="#ad"/><use transform="matrix(0.05,0,0,0.05,21.950000000000003,0)" xlink:href="#L"/></g><g id="E"><use transform="matrix(0.05,0,0,0.05,0,0)" xlink:href="#ac"/><use transform="matrix(0.05,0,0,0.05,3.95,0)" xlink:href="#J"/><use transform="matrix(0.05,0,0,0.05,7.9,0)" xlink:href="#ae"/><use transform="matrix(0.05,0,0,0.05,16.9,0)" xlink:href="#L"/><use transform="matrix(0.05,0,0,0.05,26.899999999999995,0)" xlink:href="#N"/><use transform="matrix(0.05,0,0,0.05,36.9,0)" xlink:href="#ae"/><use transform="matrix(0.05,0,0,0.05,45.9,0)" xlink:href="#L"/><use transform="matrix(0.05,0,0,0.05,55.900000000000006,0)" xlink:href="#S"/></g><g id="F"><use transform="matrix(0.05,0,0,0.05,0,0)" xlink:href="#ae"/><use transform="matrix(0.05,0,0,0.05,9,0)" xlink:href="#O"/><use transform="matrix(0.05,0,0,0.05,19,0)" xlink:href="#al"/><use transform="matrix(0.05,0,0,0.05,29,0)" xlink:href="#J"/><use transform="matrix(0.05,0,0,0.05,32.95,0)" xlink:href="#L"/><use transform="matrix(0.05,0,0,0.05,42.95,0)" xlink:href="#ad"/></g><g id="G"><use transform="matrix(0.05,0,0,0.05,0,0)" xlink:href="#aa"/><use transform="matrix(0.05,0,0,0.05,12.950000000000001,0)" xlink:href="#L"/><use transform="matrix(0.05,0,0,0.05,22.950000000000003,0)" xlink:href="#Z"/><use transform="matrix(0.05,0,0,0.05,32.95,0)" xlink:href="#J"/><use transform="matrix(0.05,0,0,0.05,36.900000000000006,0)" xlink:href="#ad"/><use transform="matrix(0.05,0,0,0.05,45.900000000000006,0)" xlink:href="#K"/><use transform="matrix(0.05,0,0,0.05,50.900000000000006,0)" xlink:href="#L"/><use transform="matrix(0.05,0,0,0.05,60.900000000000006,0)" xlink:href="#Y"/></g><g id="H"><use transform="matrix(0.05,0,0,0.05,0,0)" xlink:href="#U"/><use transform="matrix(0.05,0,0,0.05,12,0)" xlink:href="#O"/><use transform="matrix(0.05,0,0,0.05,22,0)" xlink:href="#V"/><use transform="matrix(0.05,0,0,0.05,27,0)" xlink:href="#K"/><use transform="matrix(0.05,0,0,0.05,32,0)" xlink:href="#ai"/><use transform="matrix(0.05,0,0,0.05,44.95,0)" xlink:href="#Q"/><use transform="matrix(0.05,0,0,0.05,54.95,0)" xlink:href="#Y"/><use transform="matrix(0.05,0,0,0.05,60.900000000000006,0)" xlink:href="#L"/><use transform="matrix(0.05,0,0,0.05,70.9,0)" xlink:href="#ad"/></g></defs></g></svg>